<?xml version="1.0" encoding="UTF-8"?>
<!-- Generator: Adobe Illustrator 24.0.2, SVG Export Plug-In . SVG Version: 6.00 Build 0)  -->
<svg
		version="1.1" id="Layer_1" xmlns="http://www.w3.org/2000/svg" xmlns:xlink="http://www.w3.org/1999/xlink"
		x="0px"
		y="0px"
		viewBox="0 -15 278 348.3"
		style="enable-background:new 0 -15 278 348.3;"
		xml:space="preserve"
>
<style type="text/css">
	.st0{fill:#FFFFFF;}
</style>
<g>
	<g>
		<g>
			<path class="st0" d="M76.4,115.1c2.3,2.6,3.4,5.5,3.4,8.8c0,2.5-0.7,4.9-2.1,7.2s-3.3,4-5.9,5.4c-1.2,0.6-2.5,1.1-3.9,1.4     c-1.4,0.3-3.1,0.4-5.2,0.4H45.5l0.6-1.1c0.9-2.2,1.4-4.3,1.4-6.2V93c0-2.5-0.6-4.9-1.8-7.2H61h2.6c2.6,0.3,5,1,7.2,2     s3.9,2.4,5.1,4.3s1.8,4,1.8,6.3c0,3.2-1.2,6-3.6,8.6c-0.6,0.6-1.2,1.2-2,1.8l-2.6,1.8l1.3,0.5C72.9,112,74.8,113.3,76.4,115.1      M66.4,103.8c0.2-0.5,0.4-1.1,0.5-1.9s0.2-1.4,0.2-1.9c0-2.2-0.7-4.1-2.1-5.7c-1.3-1.6-3-2.3-5.1-2.3h-1.8v17.6     c1.8,0,3.5-0.5,5-1.5C64.6,107,65.7,105.6,66.4,103.8 M68,118.1c-1.2-3.7-3.9-5.8-8.2-6.4h-1.6v20.5c0.7,0.1,1.2,0.1,1.5,0.1h0.9     c2.6-0.2,4.7-1.2,6.2-2.8c1.5-1.6,2.2-3.7,2.2-6.3C68.9,121.7,68.6,120,68,118.1"/>
			<path class="st0" d="M136.6,103.8c0.9,3,1.3,5.9,1.3,8.7c0,6-1.8,11.4-5.4,16.1c-3.6,4.7-8.4,7.8-14.3,9.3     c-2.5,0.6-5.1,0.9-7.7,0.9c-6.3,0-11.7-1.9-16.4-5.6c-4.7-3.8-7.7-8.8-9-15c-0.5-1.9-0.7-4-0.7-6.2c0-7.8,2.5-14.2,7.5-19.3     c5-5.1,11.3-7.6,18.8-7.6c2.3,0,4.7,0.3,7.2,0.9c4.5,1,8.4,3.1,11.7,6.2C133,95.3,135.3,99.2,136.6,103.8 M125.9,122.3     c0.5-2.5,0.8-5.1,0.8-7.8c0-3.8-0.6-7.2-1.7-10.2c-1.1-2.9-2.8-5.5-5-7.5c-1.7-1.6-3.6-2.8-5.8-3.6c-2.2-0.8-4.3-1.2-6.4-1.2     c-2.5,0-4.7,0.5-6.6,1.5s-3.1,2.3-3.8,4c-0.6,1.6-1.1,3.2-1.4,4.8c-0.3,1.6-0.5,3.5-0.5,5.8v1.9c0,0.6,0,1.3,0.1,2.2     c0.4,3.9,1.4,7.2,3,9.9c1.5,2.7,3.6,4.9,6.2,6.7c1.8,1.2,3.5,2.1,5.2,2.6s3.3,0.8,5,0.8c2.2,0,4.2-0.5,5.8-1.5     c1.7-1,2.8-2.3,3.6-4C125.1,125.4,125.5,123.9,125.9,122.3"/>
			<path class="st0" d="M185,125l-1.5,10.3L182,136c-2.5,1-4.9,1.7-7.1,2.1c-2.2,0.4-4.3,0.6-6.4,0.6c-6.6,0-12.2-1.8-16.7-5.5     s-7.4-8.7-8.7-15.1c-0.4-2.1-0.7-4.2-0.7-6.1c0-7.6,2.7-14,8.1-19.1c5.4-5.1,12.1-7.7,20.2-7.7c1.8,0,3.7,0.1,5.6,0.4     c1.9,0.3,3.6,0.7,5.1,1.2l2.8,0.9l0.3,10.6c-0.8-1.1-1.9-2.3-3.2-3.4c-3.4-2.9-7-4.3-10.9-4.3c-3.1,0-5.9,0.9-8.5,2.8     c-2.6,1.8-4.6,4.5-5.9,7.9c-1.4,3.5-2.1,7-2.1,10.8c0,1.7,0.1,3.2,0.4,4.7c0.2,1.5,0.7,3,1.2,4.5c1.4,3.5,3.4,6.2,6.2,8.2     c2.7,1.9,5.8,2.9,9.1,2.9c3.8,0,7.3-1.3,10.5-3.9C182.8,127.5,184,126.3,185,125"/>
			<path class="st0" d="M237,138.2h-15.2c0.1-0.4,0.1-0.8,0.1-1.2v-1c0-0.7,0-1.5-0.1-2.2c-0.1-0.8-0.3-1.7-0.7-2.8l-3-8.6h-14.4     l-3,7.6c-0.7,1.8-1,3.7-1,5.8l0.2,2.5h-15.2c2.6-2.8,4.7-6.2,6.3-10.1l14.4-35.5c0.2-0.5,0.4-1.3,0.7-2.1     c0.3-0.9,0.5-1.7,0.7-2.5l0.3-1.1l0.2-1.1h9.6l0.2,1.1l0.2,1.2l1.3,4.6l12.4,34.6c1.3,3.4,3,6.7,5.1,9.8L237,138.2z M216.7,115.2     l-5.5-18.1l-6.2,18.1H216.7z"/>
			<path class="st0" d="M40.8,182.6c0,7.5-2.2,13.5-6.5,18.2c-4.4,4.7-10.4,7.4-18.1,8.1h-3.4H0.3c1.5-1.9,2.2-4.4,2.2-7.4v-38.1     c0-2.6-0.7-5-2.2-7h11.9l3.5,0.2c8,1,14.1,3.8,18.5,8.4S40.8,175.5,40.8,182.6 M29.5,182.9c0-5.7-1.2-10.2-3.7-13.5     s-6-5.5-10.5-6.5l-2-0.3V203l2.2-0.3c4.5-0.8,7.9-3,10.4-6.4C28.3,192.9,29.5,188.4,29.5,182.9"/>
			<path class="st0" d="M78.4,199l-4.7,9.9H46.1c1.5-2,2.2-4.5,2.2-7.4v-38c0-2.7-0.7-5.1-2.1-7.1h29.4l-4.1,9     c-2-0.6-4.1-1.1-6.1-1.5s-4.2-0.5-6.3-0.5v15.2h14.4l-4.9,8.5l-2.3-0.8c-2.2-0.6-4.6-1.1-7.1-1.3v17C65.7,202,72.2,201,78.4,199"/>
			<path class="st0" d="M128.9,156.4l-2.6,9.1c-1.3-0.6-2.7-1.1-4.3-1.5c-1.6-0.4-3.1-0.8-4.5-0.9l-3.4-0.2v38.6     c0,3.1,0.7,5.5,2.1,7.4h-15l0.8-1.2c0.3-0.6,0.6-1.3,0.9-2.2c0.3-0.8,0.4-2.2,0.4-4V163c-4.1,0-7.9,0.7-11.3,2     c-1.3,0.5-2.4,1-3.5,1.7l3.1-10.3H128.9z"/>
			<path class="st0" d="M177.8,174.5c0.9,3,1.3,5.9,1.3,8.7c0,6-1.8,11.4-5.4,16.1c-3.6,4.7-8.4,7.8-14.3,9.3     c-2.5,0.6-5.1,0.9-7.6,0.9c-6.3,0-11.7-1.9-16.4-5.6c-4.7-3.8-7.7-8.8-9-15c-0.5-1.9-0.7-4-0.7-6.2c0-7.8,2.5-14.2,7.5-19.3     s11.3-7.6,18.8-7.6c2.3,0,4.7,0.3,7.2,0.9c4.5,1,8.4,3.1,11.7,6.2C174.1,166,176.4,169.9,177.8,174.5 M167.1,193     c0.5-2.5,0.8-5.1,0.8-7.8c0-3.8-0.6-7.2-1.7-10.2c-1.1-2.9-2.8-5.5-5-7.5c-1.7-1.6-3.6-2.8-5.8-3.6s-4.3-1.2-6.4-1.2     c-2.5,0-4.7,0.5-6.6,1.5c-1.9,1-3.1,2.3-3.8,4c-0.6,1.6-1.1,3.2-1.4,4.8c-0.3,1.6-0.5,3.5-0.5,5.8v1.9c0,0.6,0,1.3,0.1,2.1     c0.4,3.9,1.4,7.2,3,9.9c1.5,2.7,3.6,4.9,6.2,6.7c1.8,1.2,3.5,2.1,5.2,2.6s3.3,0.8,5,0.8c2.2,0,4.2-0.5,5.8-1.5     c1.7-1,2.8-2.3,3.6-4C166.2,196,166.7,194.6,167.1,193"/>
			<path class="st0" d="M224.2,208.9h-10.1c-7.5-6.8-13.6-14.7-18.4-23.8v16.5c0,2.2,0.4,4.3,1.3,6.1l0.7,1.2h-15     c0.8-1,1.3-2,1.7-3.2s0.5-2.6,0.5-4.2v-38.1c0-2.7-0.7-5-2.2-7h14.8l3.4,0.2c4.5,0.6,8.1,2.1,10.9,4.4c1.6,1.3,2.9,2.9,3.8,4.7     c0.9,1.8,1.3,3.7,1.3,5.6c0,2.4-0.7,4.7-2,6.9s-3.2,3.9-5.6,5.3l-2.1,1C211.9,193.5,217.5,201.6,224.2,208.9 M204.9,176.2     c0.5-1.5,0.8-2.9,0.8-4.2c0-2.4-0.8-4.5-2.3-6.2s-3.6-2.8-6.2-3.2c-0.4-0.1-1-0.1-1.7-0.1v20l1.3-0.2     C201.1,181.6,203.8,179.6,204.9,176.2"/>
			<path class="st0" d="M276.4,174.5c0.9,3,1.3,5.9,1.3,8.7c0,6-1.8,11.4-5.4,16.1c-3.6,4.7-8.4,7.8-14.3,9.3     c-2.5,0.6-5.1,0.9-7.7,0.9c-6.3,0-11.7-1.9-16.4-5.6c-4.7-3.8-7.7-8.8-9-15c-0.5-1.9-0.7-4-0.7-6.2c0-7.8,2.5-14.2,7.5-19.3     s11.3-7.6,18.8-7.6c2.3,0,4.7,0.3,7.2,0.9c4.5,1,8.4,3.1,11.7,6.2C272.7,166,275,169.9,276.4,174.5 M265.6,193     c0.5-2.5,0.8-5.1,0.8-7.8c0-3.8-0.6-7.2-1.7-10.2c-1.1-2.9-2.8-5.5-5-7.5c-1.7-1.6-3.6-2.8-5.8-3.6s-4.3-1.2-6.4-1.2     c-2.5,0-4.7,0.5-6.6,1.5c-1.9,1-3.1,2.3-3.8,4c-0.6,1.6-1.1,3.2-1.4,4.8c-0.3,1.6-0.5,3.5-0.5,5.8v1.9c0,0.6,0,1.3,0.1,2.1     c0.4,3.9,1.4,7.2,3,9.9c1.5,2.7,3.6,4.9,6.2,6.7c1.8,1.2,3.5,2.1,5.2,2.6s3.3,0.8,5,0.8c2.2,0,4.2-0.5,5.8-1.5     c1.7-1,2.8-2.3,3.6-4C264.8,196,265.3,194.6,265.6,193"/>
		</g>
		<polygon class="st0" points="112.4,258.5 112.4,244.3 114.5,244.3 120.9,255.4 120.9,244.3 122.7,244.3 122.7,258.5 120.6,258.5     114.2,247.5 114.2,258.5   "/>
		<path class="st0" d="M125.7,253.4c0-1.4,0.4-2.7,1.3-3.7s2.1-1.6,3.6-1.6s2.7,0.5,3.6,1.6c0.9,1,1.4,2.3,1.4,3.7s-0.4,2.7-1.4,3.7    c-0.9,1-2.1,1.5-3.6,1.5s-2.7-0.5-3.6-1.5C126.1,256.1,125.7,254.9,125.7,253.4 M127.4,253.4c0,1,0.3,1.9,0.8,2.6    c0.6,0.7,1.3,1.1,2.3,1.1s1.8-0.4,2.3-1.1c0.6-0.8,0.9-1.6,0.9-2.6s-0.3-1.9-0.9-2.6c-0.5-0.8-1.3-1.1-2.3-1.1s-1.8,0.4-2.3,1.1    S127.4,252.4,127.4,253.4"/>
		<path class="st0" d="M139,256.1c0.7,0,1.3,0.6,1.3,1.3c0,0.7-0.6,1.3-1.3,1.3s-1.3-0.5-1.3-1.3S138.3,256.1,139,256.1"/>
		<path class="st0" d="M148.3,251.4c0-2.3,0.4-4.1,1.3-5.3c0.9-1.3,2.1-2,3.7-2c1.6,0,2.9,0.7,3.7,2c0.9,1.3,1.3,3.1,1.3,5.3    c0,2.3-0.4,4-1.3,5.3c-0.9,1.3-2.1,1.9-3.7,1.9c-1.6,0-2.9-0.7-3.7-1.9C148.7,255.5,148.3,253.7,148.3,251.4 M150.1,251.4    c0,1.8,0.3,3.2,0.8,4.2c0.6,1,1.3,1.5,2.4,1.5s1.8-0.5,2.4-1.5c0.5-1,0.8-2.4,0.8-4.2s-0.3-3.2-0.8-4.2c-0.6-1-1.3-1.5-2.4-1.5    s-1.8,0.5-2.4,1.5C150.3,248.2,150.1,249.6,150.1,251.4"/>
		<polygon class="st0" points="161.3,248.4 161.3,246.5 165,244.3 165.6,244.3 165.6,258.5 163.9,258.5 163.9,246.9   "/>
		<path class="st0" d="M97.8,298.2v-10.5h3.5c1.9,0,3,1,3,2.7c0,0.9-0.5,1.7-1.2,2.1c1,0.4,1.7,1.4,1.7,2.6c0,1.9-1.2,3.1-3.3,3.1    L97.8,298.2L97.8,298.2z M99.1,291.9h2.2c1,0,1.7-0.5,1.7-1.5s-0.6-1.5-1.7-1.5h-2.2V291.9z M99.1,296.9h2.2    c1.4,0,2.1-0.6,2.1-1.9c0-1.2-0.7-1.8-2.1-1.8h-2.2V296.9z"/>
		<path class="st0" d="M106.9,290.6h1.3v5c0,1,0.4,1.6,1.3,1.6c0.6,0,1.1-0.3,1.5-0.9s0.6-1.4,0.6-2.5v-3.2h1.3v7.6h-1.3v-1.4    c-0.6,1-1.4,1.5-2.5,1.5c-1.4,0-2.2-0.9-2.2-2.4C106.9,295.9,106.9,290.6,106.9,290.6z"/>
		<path class="st0" d="M120.9,291.5c0.6,0.7,0.9,1.5,0.9,2.5v0.6h-5.6c0.1,1.5,0.8,2.5,2.1,2.5c1.1,0,1.7-0.5,2.1-1.4l1.1,0.5    c-0.7,1.5-1.7,2.1-3.2,2.1c-1.1,0-1.9-0.4-2.5-1.1c-0.6-0.8-0.9-1.7-0.9-2.8c0-1.1,0.3-2,0.9-2.8s1.4-1.1,2.5-1.1    C119.5,290.5,120.3,290.8,120.9,291.5 M120.5,293.5c-0.2-1.1-0.9-1.9-2.1-1.9c-1.1,0-1.8,0.7-2.1,1.9H120.5z"/>
		<path class="st0" d="M124,298.2v-7.6h1.3v1.4c0.6-1,1.4-1.5,2.5-1.5c1.4,0,2.2,0.9,2.2,2.4v5.3h-1.3v-5c0-1-0.4-1.5-1.3-1.5    c-0.6,0-1.1,0.3-1.5,0.9s-0.6,1.4-0.6,2.5v3.2L124,298.2L124,298.2z"/>
		<path class="st0" d="M132,294.4c0-1.1,0.3-2,1-2.8s1.6-1.2,2.6-1.2c1.1,0,2,0.4,2.6,1.2c0.7,0.8,1,1.7,1,2.8c0,1.1-0.3,2-1,2.8    s-1.5,1.1-2.6,1.1s-2-0.4-2.6-1.1C132.3,296.4,132,295.5,132,294.4 M133.3,294.4c0,0.8,0.2,1.4,0.6,2c0.4,0.5,1,0.8,1.7,0.8    s1.3-0.3,1.7-0.8c0.4-0.6,0.6-1.2,0.6-2s-0.2-1.4-0.6-1.9c-0.4-0.6-1-0.8-1.7-0.8s-1.3,0.3-1.7,0.8    C133.5,293,133.3,293.6,133.3,294.4"/>
		<path class="st0" d="M141.8,295.7c0.4,1,1,1.5,1.8,1.5s1.2-0.4,1.2-1.2c0-0.5-0.6-0.9-1.2-1.1c-1-0.4-2.3-0.9-2.3-2.3    c0-1.2,0.9-2.1,2.2-2.1c0.9,0,1.7,0.4,2.2,1.2l-0.9,0.7c-0.5-0.5-0.9-0.8-1.4-0.8s-0.9,0.4-0.9,1c0,1.4,3.5,1.1,3.5,3.3    c0,1.5-1,2.4-2.5,2.4c-1.4,0-2.4-0.9-2.8-2L141.8,295.7z"/>
		<path class="st0" d="M151.1,298.2l3.6-10.5h1.3l3.6,10.5h-1.3l-0.9-2.8h-4l-0.9,2.8H151.1z M153.7,294.1h3.2l-1.6-4.7L153.7,294.1    z"/>
		<path class="st0" d="M161.7,287.5c0.5,0,0.9,0.4,0.9,1c0,0.5-0.4,0.9-0.9,0.9s-0.9-0.4-0.9-0.9S161.2,287.5,161.7,287.5     M161.1,290.6h1.3v7.6h-1.3V290.6z"/>
		<path class="st0" d="M164.7,298.2v-7.6h1.3v1.3c0.4-0.8,1.4-1.4,2.2-1.4c0.4,0,0.8,0.1,1,0.2l-0.3,1.1c-0.3-0.1-0.6-0.2-0.9-0.2    c-0.6,0-1.1,0.3-1.5,1s-0.6,1.6-0.6,2.7v2.9H164.7z"/>
		<path class="st0" d="M176,291.5c0.6,0.7,0.9,1.5,0.9,2.5v0.6h-5.6c0.1,1.5,0.8,2.5,2.1,2.5c1.1,0,1.7-0.5,2.1-1.4l1.1,0.5    c-0.7,1.5-1.7,2.1-3.2,2.1c-1.1,0-1.9-0.4-2.5-1.1c-0.6-0.8-0.9-1.7-0.9-2.8c0-1.1,0.3-2,0.9-2.8c0.6-0.8,1.4-1.1,2.5-1.1    C174.6,290.5,175.4,290.8,176,291.5 M175.6,293.5c-0.2-1.1-0.9-1.9-2.1-1.9c-1.1,0-1.8,0.7-2.1,1.9H175.6z"/>
		<path class="st0" d="M179.4,295.7c0.4,1,1,1.5,1.8,1.5s1.2-0.4,1.2-1.2c0-0.5-0.6-0.9-1.2-1.1c-1-0.4-2.3-0.9-2.3-2.3    c0-1.2,0.9-2.1,2.2-2.1c0.9,0,1.7,0.4,2.2,1.2l-0.9,0.7c-0.5-0.5-0.9-0.8-1.4-0.8s-0.9,0.4-0.9,1c0,1.4,3.5,1.1,3.5,3.3    c0,1.5-1,2.4-2.5,2.4c-1.4,0-2.4-0.9-2.8-2L179.4,295.7z"/>
		<path class="st0" d="M42,56.6L30.2,43l3.7-3.2c1.8-1.5,3.8-2.2,6.1-2s4.3,1.3,6.1,3.4c1.8,2.1,2.7,4.3,2.5,6.6s-1.1,4.1-2.9,5.7    L42,56.6z M42.3,53.5L44,52c2.5-2.2,3.6-5.5,0.2-9.3c-3.3-3.8-6.7-3.3-9.2-1.1l-1.7,1.5L42.3,53.5z"/>
		<path class="st0" d="M56,31.3c1.5,0.4,2.8,1.3,3.8,2.7l0.6,0.8l-7.9,5.4c1.6,2,3.6,2.7,5.5,1.4c1.5-1,1.9-2.3,1.6-4.1l2-0.4    c0.5,2.8-0.3,4.6-2.5,6.1c-1.6,1.1-3.1,1.4-4.7,0.9c-1.6-0.5-2.9-1.5-4-3.1s-1.5-3.1-1.4-4.8s0.9-3,2.5-4.1    C52.9,31.2,54.4,30.8,56,31.3 M57.3,34.5c-1.5-1.4-3.2-1.8-4.8-0.6c-1.6,1.1-1.9,2.8-1.1,4.7L57.3,34.5z"/>
		
			<rect x="68.3" y="17.2" transform="matrix(0.8867 -0.4624 0.4624 0.8867 -4.2613 35.0927)" class="st0" width="2.3" height="18.1"/>
		<path class="st0" d="M77.9,32l-5.2-11.9l2-0.9l1,2.2c0.2-2,1.2-3.4,2.9-4.1c2.2-0.9,4.1-0.2,5.1,2.2l3.7,8.4l-2,0.9L82,20.9    c-0.7-1.6-1.7-2.1-3.1-1.5c-0.9,0.4-1.5,1.3-1.8,2.5c-0.2,1.3,0,2.7,0.7,4.3l2.2,5L77.9,32z"/>
		<path class="st0" d="M90.2,22.3c1.2,1.4,2.4,1.9,3.7,1.5c1.3-0.4,1.8-1.3,1.3-2.6C95,20.3,93.8,20,92.6,20    c-1.8-0.1-4.1-0.2-4.9-2.5c-0.7-2,0.3-3.9,2.5-4.6c1.5-0.5,2.9-0.3,4.2,0.7l-1,1.7c-1-0.6-1.9-0.7-2.7-0.5c-0.9,0.3-1.3,1.1-1,2.1    c0.7,2.2,6.3-0.2,7.5,3.5c0.8,2.4-0.3,4.4-2.8,5.3c-2.3,0.8-4.4-0.1-5.7-1.8L90.2,22.3z"/>
		<path class="st0" d="M97.3,12.9L96.8,11l2.2-0.6l-1-3.8l1.8-1.9l1.3,5.1l3.3-0.8l0.5,1.9l-3.3,0.8l1.8,6.9    c0.3,1.3,1.1,1.9,2.2,1.6c0.5-0.1,1-0.4,1.3-0.8l1,1.7c-0.5,0.5-1.1,0.8-1.9,1c-2.2,0.6-4-0.5-4.7-3.2l-1.7-6.8L97.3,12.9z"/>
		<path class="st0" d="M108.4,2.8c0.9-0.2,1.7,0.4,1.9,1.3c0.2,0.9-0.4,1.7-1.3,1.9s-1.7-0.4-1.9-1.3C107,3.9,107.5,3,108.4,2.8     M110.9,21l-2.5-12.8l2.1-0.4l2.5,12.8L110.9,21z"/>
		<path class="st0" d="M116.5,19.9L114.9,7l2.2-0.3l0.3,2.4c0.8-1.8,2.1-2.9,4-3.1c2.4-0.3,4,1,4.3,3.5l1.1,9.1l-2.2,0.3l-1.1-8.5    c-0.2-1.8-1.1-2.5-2.6-2.4c-1,0.1-1.8,0.8-2.4,1.9s-0.8,2.6-0.6,4.3l0.7,5.4L116.5,19.9z"/>
		<path class="st0" d="M128.7,7.4l-0.1-2l2.2-0.1l-0.2-3.9l2.1-1.5l0.2,5.3l3.4-0.1l0.1,2L133,7.2l0.3,7.1c0.1,1.4,0.7,2.1,1.8,2.1    c0.6,0,1.1-0.2,1.5-0.5l0.6,1.9c-0.6,0.4-1.2,0.5-2.1,0.6c-2.3,0.1-3.8-1.3-3.9-4.1l-0.3-7L128.7,7.4z"/>
		<path class="st0" d="M139.4,11.5c0.1-1.8,0.7-3.4,1.9-4.6c1.2-1.3,2.7-1.9,4.6-1.8c1.9,0.1,3.3,0.8,4.4,2.2c1.1,1.4,1.6,3,1.5,4.8    s-0.7,3.4-1.9,4.7s-2.7,1.8-4.6,1.8c-1.9-0.1-3.3-0.8-4.4-2.2C139.8,15,139.3,13.4,139.4,11.5 M141.6,11.6    c-0.1,1.3,0.3,2.4,0.9,3.4c0.7,1,1.6,1.5,2.9,1.5c1.3,0.1,2.3-0.4,3-1.3c0.8-0.9,1.2-2,1.2-3.3c0.1-1.3-0.2-2.4-0.9-3.4    s-1.6-1.5-2.9-1.6c-1.3-0.1-2.3,0.4-3,1.3C142.1,9.2,141.7,10.3,141.6,11.6"/>
		<polygon class="st0" points="161.7,19.9 165.2,2.2 175.4,4.3 174.9,6.4 167,4.8 166,9.9 172.4,11.2 172,13.3 165.6,12 164.3,18.3     172.5,19.9 172.1,22   "/>
		<path class="st0" d="M177,18.9c0.2,1.8,0.9,2.9,2.2,3.3s2.2-0.1,2.6-1.4c0.2-0.8-0.5-1.7-1.5-2.4c-1.5-1.1-3.3-2.5-2.6-4.9    c0.6-2,2.5-3,4.7-2.4c1.5,0.4,2.5,1.4,3.1,3l-1.8,0.8c-0.5-1-1.1-1.7-1.9-1.9c-0.9-0.3-1.7,0.2-2,1.1c-0.7,2.2,5.3,3.5,4.2,7.2    c-0.7,2.5-2.8,3.5-5.3,2.7c-2.4-0.7-3.5-2.6-3.7-4.7L177,18.9z"/>
		<path class="st0" d="M183.7,31l6.7-17l2,0.8l-0.6,1.5c1-0.7,2.8-0.9,4.2-0.3c3.5,1.4,4.4,4.6,2.9,8.4c-1.5,3.7-4.4,5.5-7.8,4.1    c-0.7-0.3-1.4-0.7-1.9-1.4c-0.6-0.6-0.9-1.2-1-1.7l-2.5,6.3L183.7,31z M196.9,23.5c1-2.6,0.4-5-1.8-5.8c-2.2-0.9-4.2,0.4-5.3,3    c-1,2.6-0.4,4.9,1.8,5.8C193.8,27.4,195.9,26.2,196.9,23.5"/>
		<path class="st0" d="M207.7,27.1l1.9,1l0.3-0.5c0.8-1.6,0.4-2.8-1.3-3.7c-1.2-0.6-2.5-0.4-3.3,0.6l-1.5-1.3c1.3-1.8,3.6-2.2,5.7-1    c2.7,1.4,3.7,3.7,2.2,6.7l-3.8,7.4l-1.5-0.8l0.5-1.8c-1.5,0.8-3,0.8-4.6-0.1c-2.1-1.1-3-3-1.8-5.4    C201.8,25.7,204.5,25.4,207.7,27.1 M203.5,31.9c0.9,0.5,1.8,0.6,2.7,0.3c0.9-0.2,1.7-1,2.3-2.2l0.1-0.3l-2.1-1.1    c-2-1-3.5-0.9-4.1,0.5C202,30.3,202.3,31.3,203.5,31.9"/>
		<path class="st0" d="M210.8,37.8l7-11l1.8,1.2l-1.3,2c1.8-0.9,3.5-0.9,5,0.1c2,1.3,2.4,3.3,1,5.5l-5,7.7l-1.8-1.2l4.6-7.2    c1-1.5,0.8-2.6-0.5-3.5c-0.8-0.5-1.9-0.6-3.1-0.1c-1.2,0.5-2.3,1.5-3.2,3l-2.9,4.6L210.8,37.8z M220,24.6c1.1-0.6,2.5-0.8,3.4-0.2    c0.5,0.3,0.9,0.8,1.3,1.4c0.3,0.6,0.7,1,1,1.3c0.5,0.3,1.2,0.4,1.9,0.1l0.5,1.5c-1.1,0.6-2.4,0.7-3.4,0.1    c-0.5-0.3-0.9-0.8-1.3-1.4c-0.3-0.6-0.7-1-1-1.3c-0.5-0.4-1.2-0.4-1.9-0.1L220,24.6z"/>
		<path class="st0" d="M225.9,39.9c1.1-1.4,2.6-2.3,4.3-2.6s3.3,0.1,4.8,1.3s2.2,2.6,2.3,4.4c0.1,1.8-0.4,3.3-1.6,4.8    c-1.1,1.4-2.6,2.3-4.3,2.6s-3.3-0.1-4.8-1.3s-2.2-2.6-2.3-4.4C224.2,43,224.8,41.4,225.9,39.9 M227.6,41.3c-0.8,1-1.2,2.1-1.3,3.3    c0,1.2,0.5,2.2,1.5,2.9c1,0.8,2,1,3.2,0.7s2.1-0.9,2.9-2c0.8-1,1.2-2.1,1.2-3.3s-0.4-2.2-1.4-2.9c-1-0.8-2-1-3.2-0.7    C229.4,39.7,228.5,40.3,227.6,41.3"/>
		
			<rect x="231.7" y="47.9" transform="matrix(0.6788 -0.7343 0.7343 0.6788 41.3786 192.595)" class="st0" width="18.3" height="2.2"/>
	</g>
</g>
</svg>