<?xml version="1.0" standalone="no"?>
<!DOCTYPE svg PUBLIC "-//W3C//DTD SVG 1.1//EN" "http://www.w3.org/Graphics/SVG/1.1/DTD/svg11.dtd" >
<svg xmlns="http://www.w3.org/2000/svg" xmlns:xlink="http://www.w3.org/1999/xlink" version="1.1">
<metadata>
Created by FontForge 20190801 at Thu Oct 15 10:51:18 2020
 By root
Copyright (c) 2018-2020 by Phil Plu:ckthun. All rights reserved.
</metadata>
<defs>
<font id="DankMono-Bold" horiz-adv-x="660" >
  <font-face 
    font-family="Dank Mono"
    font-weight="700"
    font-stretch="normal"
    units-per-em="1200"
    panose-1="0 0 0 0 0 0 0 0 0 0"
    ascent="935"
    descent="-265"
    x-height="570"
    cap-height="780"
    bbox="-1 -275 2446 1240"
    underline-thickness="50"
    underline-position="-125"
    unicode-range="U+000D-E0B3"
  />
<missing-glyph 
d="M581 780v-976h-501v976h501zM506 702h-352v-821h352v821z" />
    <glyph glyph-name="asterisk_slash.liga" unicode="&#x2a;&#x2f;" horiz-adv-x="1320" 
d="M1144 798l-454 -935l-71 45l452 935zM361 541l-136 74l45 70l123 -52l14 152l84 -3v-156l130 33l35 -71l-154 -57l102 -124l-73 -45l-104 97l-94 -85l-72 55z" />
    <glyph glyph-name="bar_braceright.liga" unicode="&#x7c;&#x7d;" horiz-adv-x="1320" 
d="M288 -196v78h260v819h-260v79h440q47 0 85.5 -8.5t67 -28.5t44 -52.5t15.5 -80.5v-175q0 -23 2 -41t12.5 -30.5t32.5 -19t61 -6.5v-92q-40 0 -61.5 -6.5t-32 -19.5t-12.5 -31.5t-2 -41.5v-170q0 -48 -15.5 -81t-43.5 -53.5t-67 -29.5t-86 -9h-440zM728 -118
q24 0 44.5 3.5t35.5 13.5t23 26.5t8 42.5v118q1 14 1 29v30q0 59 16 96.5t63 52.5q-42 14 -60.5 48t-18.5 91v28.5t-1 28.5v126q0 51 -30.5 68t-80.5 17h-77v-819h77z" />
    <glyph glyph-name="bar_bracketright.liga" unicode="&#x7c;]" horiz-adv-x="1320" 
d="M288 780h662v-976h-662v90h240v794h-240v92zM847 -106v794h-216v-794h216z" />
    <glyph glyph-name="bar_greater.liga" unicode="&#x7c;&#x3e;" horiz-adv-x="1320" 
d="M327 -196v976h103v-68l535 -368v-98l-535 -367v-75h-103zM855 295l-425 298v-596z" />
    <glyph glyph-name="braceleft_bar.liga" unicode="&#x7b;&#x7c;" horiz-adv-x="1320" 
d="M248 246v92q40 0 61.5 6.5t32 19t12.5 30.5t2 41v175q0 48 15.5 80.5t44 52.5t67.5 28.5t86 8.5h440v-79h-261v-819h261v-78h-440q-47 0 -86.5 9t-67.5 29.5t-43.5 53.5t-15.5 81v170q0 23 -2 41.5t-12 31.5t-32 19.5t-62 6.5zM377 294q47 -15 63.5 -52.5t16.5 -96.5v-30
t1 -29v-118q0 -26 8 -42.5t22.5 -26.5t35 -13.5t45.5 -3.5h76v819h-76q-51 0 -81 -17t-30 -68v-126q-1 -14 -1 -28.5v-28.5q0 -57 -19 -91t-61 -48z" />
    <glyph glyph-name="bracketleft_bar.liga" unicode="[&#x7c;" horiz-adv-x="1320" 
d="M347 780h662v-92h-241v-794h241v-90h-662v976zM665 -106v794h-215v-794h215z" />
    <glyph glyph-name="colon_colon.liga" unicode="&#x3a;&#x3a;" horiz-adv-x="1320" 
d="M804 466q0 34 18 51t51 17q68 0 68 -68t-68 -68q-69 0 -69 68zM804 93q0 33 18 50.5t51 17.5q68 0 68 -68t-68 -68q-69 0 -69 68zM295 466q0 68 68 68t68 -68t-68 -68t-68 68zM295 93q0 68 68 68t68 -68t-68 -68t-68 68z" />
    <glyph glyph-name="colon_colon_colon.liga" unicode="&#x3a;&#x3a;&#x3a;" horiz-adv-x="1980" 
d="M381 466q0 34 18 51t51 17q68 0 68 -68t-68 -68q-69 0 -69 68zM910 466q0 34 18 51t51 17q68 0 68 -68t-68 -68q-69 0 -69 68zM381 93q0 33 18 50.5t51 17.5q68 0 68 -68t-68 -68q-69 0 -69 68zM910 93q0 33 18 50.5t51 17.5q68 0 68 -68t-68 -68q-69 0 -69 68zM1441 466
q0 68 68 68t68 -68t-68 -68t-68 68zM1441 93q0 68 68 68t68 -68t-68 -68t-68 68z" />
    <glyph glyph-name="equal_equal.liga" unicode="&#x3d;&#x3d;" horiz-adv-x="1320" 
d="M123 365l7 93h1043l-7 -93h-1043zM1173 254l-7 -92h-1043l7 92h1043z" />
    <glyph glyph-name="equal_equal_equal.liga" unicode="&#x3d;&#x3d;&#x3d;" horiz-adv-x="1980" 
d="M128 429l7 92h1681l-7 -92h-1681zM1816 348l-7 -93h-1681l7 93h1681zM1816 173l-7 -92h-1681l7 92h1681z" />
    <glyph glyph-name="equal_greater.liga" unicode="&#x3d;&#x3e;" horiz-adv-x="1320" 
d="M132 161v92h881l77 55l-80 57h-878v93h748l-116 83l43 91l388 -275v-97l-385 -275l-46 90l120 86h-752z" />
    <glyph glyph-name="exclam_equal.liga" unicode="&#x21;&#x3d;" horiz-adv-x="1320" 
d="M130 458h543l106 200l72 -44l-83 -156h405l-7 -93h-447l-59 -111h513l-7 -92h-555l-119 -224l-77 35l100 189h-392l7 92h434l59 111h-500z" />
    <glyph glyph-name="exclam_equal_equal.liga" unicode="&#x21;&#x3d;&#x3d;" horiz-adv-x="1980" 
d="M1092 429l-45 -81h769l-7 -93h-814l-46 -82h867l-7 -92h-912l-91 -163l-76 36l71 127h-673l7 92h717l45 82h-769l7 93h814l45 81h-866l7 92h910l87 157l74 -46l-62 -111h672l-7 -92h-717z" />
    <glyph glyph-name="hyphen_greater.liga" unicode="&#x2d;&#x3e;" horiz-adv-x="1320" 
d="M127 262v93h879l-267 187l65 80l376 -265v-97l-373 -263l-69 77l269 188h-880z" />
    <glyph glyph-name="hyphen_hyphen_greater.liga" unicode="&#x2d;&#x2d;&#x3e;" horiz-adv-x="1980" 
d="M127 262v93h1528l-268 187l65 80l377 -265v-97l-374 -263l-69 77l270 188h-1529z" />
    <glyph glyph-name="less_bar.liga" unicode="&#x3c;&#x7c;" horiz-adv-x="1320" 
d="M331 344l535 368v68h103v-976h-103v75l-535 367v98zM441 295l425 -298v596z" />
    <glyph glyph-name="less_bar_greater.liga" unicode="&#x3c;&#x7c;&#x3e;" horiz-adv-x="1980" 
d="M336 242v97l585 314v127h103v-127l585 -314v-97l-585 -311v-127h-103v127zM449 290l472 -249v493zM1496 290l-472 243v-491z" />
    <glyph glyph-name="less_exclam_hyphen_hyphen.liga" unicode="&#x3c;&#x21;&#x2d;&#x2d;" horiz-adv-x="2640" 
d="M127 260v97l376 278l66 -79l-272 -201h504v-93h-505l274 -202l-70 -78zM1147 355h1299v-93h-1299v93zM1029 780v-198l-14 -363h-89l-14 363v198h117zM972 122q68 0 68 -68q0 -69 -68 -69q-69 0 -69 69q0 33 18 50.5t51 17.5z" />
    <glyph glyph-name="less_greater.liga" unicode="&#x3c;&#x3e;" horiz-adv-x="1320" 
d="M648 590l521 -246v-98l-515 -262l-526 262v98zM654 94l410 200l-416 186l-415 -186z" />
    <glyph glyph-name="less_hyphen.liga" unicode="&#x3c;&#x2d;" horiz-adv-x="1320" 
d="M126 260v97l376 265l66 -80l-268 -187h880v-93h-881l270 -188l-70 -77z" />
    <glyph glyph-name="period_equal.liga" unicode="&#x2e;&#x3d;" horiz-adv-x="1320" 
d="M1063 458v-93h-585l-7 93h592zM478 254h585v-92h-592zM200 310q0 38 21 57.5t58 19.5q77 0 77 -77q0 -78 -77 -78q-79 0 -79 78z" />
    <glyph glyph-name="period_period_period.liga" unicode="&#x2e;&#x2e;&#x2e;" horiz-adv-x="1980" 
d="M910 54q0 33 18 50.5t51 17.5q68 0 68 -68q0 -69 -68 -69q-69 0 -69 69zM381 54q0 33 18 50.5t51 17.5q68 0 68 -68q0 -69 -68 -69q-69 0 -69 69zM1441 54q0 68 68 68t68 -68q0 -69 -68 -69t-68 69z" />
    <glyph glyph-name="plus_plus.liga" unicode="&#x2b;&#x2b;" horiz-adv-x="1320" 
d="M325 356v157h92v-157h458v157h92v-157h155v-92h-155v-156h-92v156h-458v-156h-92v156h-152v92h152z" />
    <glyph glyph-name="slash_asterisk.liga" unicode="&#x2f;&#x2a;" horiz-adv-x="1320" 
d="M597 798l-454 -935l-71 45l452 935zM831 541l-137 74l45 70l123 -52l14 152l84 -3v-156l130 33l35 -71l-154 -57l102 -124l-72 -45l-104 97l-95 -85l-71 55z" />
    <glyph glyph-name="slash_equal.liga" unicode="&#x2f;&#x3d;" horiz-adv-x="1320" 
d="M503 365l41 93h629l-7 -93h-663zM1173 254l-7 -92h-762l41 92h728zM568 779l-415 -897l-71 45l413 896z" />
    <glyph glyph-name="less_equal_greater.liga" unicode="&#x3c;&#x3d;&#x3e;" horiz-adv-x="1980" 
d="M492 622l66 -80l-120 -84h1075l-116 83l44 91l388 -275v-97l-385 -275l-47 90l121 86h-1084l125 -87l-70 -77l-373 263v97zM223 308l79 -55h1345l77 55l-80 57h-1339z" />
    <glyph glyph-name="dollar_braceleft.liga" unicode="&#x24;&#x7b;" horiz-adv-x="1320" 
d="M150 6l68 60q45 -66 131 -78v285q-88 26 -140 82t-52 138q0 41 14 76.5t39 62.5t60.5 45.5t78.5 24.5v78h92v-77q59 -8 107.5 -35t77.5 -70l-64 -61q-32 35 -59.5 53t-61.5 23v-262q52 -10 91.5 -26.5t66 -42.5t40 -62t13.5 -86q0 -54 -15.5 -95.5t-43 -70.5t-66.5 -46
t-86 -22v-97h-92v96q-67 8 -119.5 35t-79.5 72zM779 338q43 0 68.5 9t38.5 23t16.5 31.5t3.5 33.5q0 28 -5.5 53t-14.5 51q-8 22 -13.5 43t-5.5 47q0 40 15.5 68.5t42.5 47t63.5 27.5t77.5 9h17t23 -1v-80q-14 2 -25.5 3t-20.5 1q-19 0 -35.5 -3.5t-29 -11.5t-20 -21.5
t-7.5 -33.5q0 -17 5 -38t12 -42q8 -25 15 -56.5t7 -66.5q0 -47 -18.5 -84.5t-62.5 -52.5q23 -9 38 -24.5t25 -35t14 -42.5t4 -47q0 -37 -7.5 -64.5t-15.5 -51.5q-6 -17 -11 -35t-5 -36q0 -44 29 -61.5t72 -17.5h4.5t7.5 1h8q4 0 5 1h3q2 1 4 1q2 1 5 1v-78q-13 -2 -21.5 -2
h-16.5q-42 0 -78.5 9.5t-63.5 30t-43 51.5t-16 74q0 27 5.5 46.5t13.5 39.5q10 23 15 45t5 48q0 16 -3.5 33.5t-16.5 32t-38 24t-69 9.5v92zM559 124q0 53 -29 83t-89 45v-262q56 10 87 43.5t31 90.5zM349 377v233q-48 -11 -74 -40t-26 -71q0 -81 100 -122z" />
    <glyph glyph-name="numbersign_braceleft.liga" unicode="&#x23;&#x7b;" horiz-adv-x="1320" 
d="M140 85l12 83h94l38 250h-99l11 85h101l38 277h93l-38 -277h171l38 277h93l-39 -277h256q-2 3 -2.5 6.5t-2.5 6.5q-10 26 -18.5 54.5t-8.5 60.5q0 39 15.5 67.5t42.5 46.5t63 27t77 9h17.5t23.5 -1v-80q-14 2 -25.5 3t-21.5 1q-38 0 -64.5 -15t-26.5 -55q0 -17 5 -37.5
t11 -38.5q8 -28 15 -59.5t7 -66.5q0 -48 -17.5 -85.5t-62.5 -52.5q23 -9 38 -24.5t24.5 -35.5t13.5 -43t4 -47q0 -36 -7 -63t-15 -50q-6 -18 -11 -36.5t-5 -36.5q0 -44 29 -61.5t72 -17.5h4.5t7.5 1h8q4 0 5 1h3q2 1 4 1q2 1 5 1v-78q-13 -2 -21.5 -2h-16.5q-42 0 -78.5 9.5
t-64 30t-43 51.5t-15.5 74q0 27 5.5 46.5t13.5 39.5q3 9 5.5 16t4.5 15h-315l-37 -281h-94l39 281h-171l-39 -281h-94l40 281h-95zM603 168h308q-2 14 -6.5 27.5t-15 25t-27 18.5t-42.5 7v92q27 0 45 7.5t29 19t16.5 26t7.5 27.5h-278zM510 168l38 250h-172l-37 -250h171z
" />
    <glyph glyph-name="uni22CA_greater.liga" unicode="&#x22ca;&#x3e;" horiz-adv-x="1320" 
d="M333 312l-218 206l53 79l232 -221l241 229h85l481 -247v-93l-481 -245h-84l-242 229l-242 -231l-53 78zM726 498v-374l383 187zM467 312l172 -163v327z" />
    <glyph glyph-name=".notdef" 
d="M581 780v-976h-501v976h501zM506 702h-352v-821h352v821z" />
    <glyph glyph-name="uni0000" horiz-adv-x="0" 
 />
    <glyph glyph-name="uni0000" horiz-adv-x="0" 
 />
    <glyph glyph-name="uni000D" unicode="&#xd;" 
 />
    <glyph glyph-name="space" unicode=" " 
 />
    <glyph glyph-name="exclam" unicode="!" 
d="M284 219l-14 363v198h117v-198l-14 -363h-89zM261 54q0 33 18 50.5t51 17.5q68 0 68 -68q0 -69 -68 -69q-69 0 -69 69z" />
    <glyph glyph-name="quotedbl" unicode="&#x22;" 
d="M172 787l118 -7v-86q-4 -32 -11 -73t-15 -78.5t-15.5 -65.5t-10.5 -35l-66 13v332zM369 787l118 -7v-86q-4 -32 -11 -73t-15 -78.5t-15.5 -65.5t-10.5 -35l-66 13v332z" />
    <glyph glyph-name="numbersign" unicode="#" 
d="M78 192v83h79l31 231h-74v84h86l28 189h93l-27 -189h122l27 189h93l-28 -189h74v-84h-87l-29 -231h80v-83h-92l-28 -192h-93l29 192h-122l-29 -192h-93l28 192h-68zM251 275h121l31 231h-123z" />
    <glyph glyph-name="dollar" unicode="$" 
d="M78 94l67 60q47 -67 131 -77v284q-88 27 -139.5 83t-51.5 137q0 41 13.5 76t38.5 62.5t60.5 45.5t78.5 25v49h92v-48q59 -8 108 -35t77 -70l-64 -60q-33 35 -60.5 53t-60.5 23v-262q53 -11 92.5 -28t66 -42.5t40 -61.5t13.5 -86q0 -54 -15.5 -95.5t-43.5 -70.5t-67 -46
t-86 -22v-63h-92v62q-66 8 -119 35.5t-79 71.5zM486 212q0 54 -29.5 84t-88.5 45v-262q56 11 87 44t31 89zM177 587q0 -39 24 -69.5t75 -51.5v232q-48 -11 -73.5 -40t-25.5 -71z" />
    <glyph glyph-name="percent" unicode="%" 
d="M610 753l-481 -771l-72 46l480 770zM482 -13q-32 0 -59 11.5t-47 32t-31 48t-11 60.5q0 66 41 106.5t107 40.5q33 0 60.5 -10.5t47.5 -30t31 -46.5t11 -60q0 -32 -11.5 -60t-31.5 -48.5t-47.5 -32t-59.5 -11.5zM482 57q36 0 51.5 19t15.5 63q0 45 -15.5 63.5t-51.5 18.5
q-35 0 -49.5 -18.5t-14.5 -63.5q0 -44 15 -63t49 -19zM185 497q-32 0 -59.5 11.5t-47.5 32t-31 48t-11 60.5t11 59.5t30.5 46t47 30t60.5 10.5q66 0 107.5 -40t41.5 -106q0 -32 -11.5 -60t-31.5 -48.5t-47 -32t-59 -11.5zM185 567q36 0 51.5 18.5t15.5 63.5t-15.5 63.5
t-51.5 18.5q-35 0 -49.5 -18.5t-14.5 -63.5t15 -63.5t49 -18.5z" />
    <glyph glyph-name="ampersand" unicode="&#x26;" 
d="M176 448q-22 31 -36.5 55t-22 43t-10.5 35.5t-3 32.5q0 41 14 74.5t39.5 57.5t61.5 37t79 13q121 0 185 -100l-66 -62q-20 35 -53 54t-73 19q-45 0 -69 -22.5t-24 -67.5q0 -16 4 -33t14.5 -37t29 -45.5t47.5 -59.5l177 -207q29 54 55 127l63 -72q-27 -69 -59 -124
l113 -132l-86 -37q-21 24 -41 47t-39 44q-42 -51 -90 -77t-101 -26q-49 0 -93.5 20.5t-78.5 55.5t-54 80.5t-20 94.5q0 60 33 113t104 99zM231 377q-94 -67 -94 -143q0 -31 13 -60t34.5 -51.5t49 -36t55.5 -13.5q34 0 66.5 21t63.5 60q-62 71 -108 125.5t-80 97.5z" />
    <glyph glyph-name="quotesingle" unicode="'" 
d="M266 787l118 -7v-86q-4 -32 -11 -73t-15 -78.5t-15.5 -65.5t-10.5 -35l-66 13v332z" />
    <glyph glyph-name="parenleft" unicode="(" 
d="M295 295q0 -63 10 -118t32.5 -106.5t58.5 -102.5t87 -106l-60 -61q-63 59 -108.5 117.5t-75 118.5t-43 124t-13.5 134t13.5 133t43 122t75 116.5t108.5 116.5l60 -61q-51 -55 -87 -105t-58.5 -100.5t-32.5 -104.5t-10 -117z" />
    <glyph glyph-name="parenright" unicode=")" 
d="M365 295q0 63 -10 117t-32.5 104.5t-58.5 100.5t-87 105l60 61q63 -59 108.5 -116.5t75 -116.5t43 -122t13.5 -133t-13.5 -134t-43 -124t-75 -118.5t-108.5 -117.5l-60 61q51 55 87 106t58.5 102.5t32.5 106.5t10 118z" />
    <glyph glyph-name="asterisk" unicode="*" 
d="M248 553l-137 74l45 70l123 -52l14 151l84 -3v-156l130 34l35 -71l-154 -57l102 -125l-73 -44l-104 96l-94 -84l-72 55z" />
    <glyph glyph-name="plus" unicode="+" 
d="M130 356h152v154h92v-154h155v-92h-155v-153h-92v153h-152v92z" />
    <glyph glyph-name="comma" unicode="," 
d="M208 -130q3 5 10.5 19t17 33.5t19.5 42.5t18 44q-12 18 -12 45q0 33 18 50.5t51 17.5q40 0 54 -21.5t14 -57.5q-3 -20 -12 -34q-11 -24 -27.5 -51t-34.5 -50.5t-34 -41.5t-25 -24z" />
    <glyph glyph-name="hyphen" unicode="-" 
d="M529 255h-397v93h397v-93z" />
    <glyph glyph-name="period" unicode="." 
d="M261 54q0 33 18 50.5t51 17.5q68 0 68 -68q0 -69 -68 -69q-69 0 -69 69z" />
    <glyph glyph-name="slash" unicode="/" 
d="M593 798l-453 -935l-72 45l453 935z" />
    <glyph glyph-name="zero" unicode="0" 
d="M58 390q0 89 20.5 163t56.5 128t85.5 84t108.5 30t109 -30.5t86.5 -84.5t57 -128.5t20.5 -162.5q0 -87 -20.5 -161t-56.5 -128t-86 -84.5t-110 -30.5q-59 0 -109 30.5t-86 84.5t-56 128t-20 162zM431 657q-42 62 -101 62q-36 0 -66 -23.5t-52 -67.5t-34.5 -106.5
t-12.5 -140.5q0 -50 6.5 -93t17.5 -79zM329 73q37 0 67.5 22.5t52.5 63t34 97t12 125.5q0 53 -5.5 98t-16.5 83l-237 -441q40 -48 93 -48z" />
    <glyph glyph-name="one" unicode="1" 
d="M106 655q64 13 114 44t77 81h94v-698h167v-10q0 -16 1 -34t8 -38h-443v82h170v545q-56 -54 -177 -68z" />
    <glyph glyph-name="two" unicode="2" 
d="M464 606q0 49 -33 74t-94 25q-46 0 -87 -20t-78 -76l-69 47q70 141 232 141q50 0 91.5 -12t71.5 -36t46.5 -59t16.5 -80q0 -61 -30 -125t-79 -129.5t-111 -132t-126 -131.5h378v-92h-515v98q14 15 29.5 31t31.5 32l41 41q51 52 102 104.5t91.5 104.5t65.5 101t25 94z" />
    <glyph glyph-name="three" unicode="3" 
d="M131 699q11 24 32.5 42t48.5 30t57.5 18t58.5 6q49 0 91.5 -15.5t73.5 -44t49 -69t18 -90.5q0 -57 -24.5 -101.5t-69.5 -73.5q48 -27 77.5 -79t29.5 -120q0 -102 -66.5 -159.5t-182.5 -57.5q-86 0 -142.5 34t-93.5 103l69 47q35 -53 72 -74t91 -21q76 0 113.5 33.5
t37.5 96.5q0 73 -46 113.5t-131 40.5h-50v83h50q80 0 122.5 35.5t42.5 100.5q0 62 -36 96t-101 34q-17 0 -35.5 -3t-36 -10.5t-32.5 -20.5t-24 -32z" />
    <glyph glyph-name="four" unicode="4" 
d="M442 240v-240h-97v240h-262v94l249 446h104l-246 -451h155v143h106q-7 -20 -8 -38t-1 -33v-72h112v-89h-112z" />
    <glyph glyph-name="five" unicode="5" 
d="M97 381l33 399h398v-83h-308l-19 -212q39 41 121 41q54 0 98.5 -18.5t76 -53t49 -82t17.5 -106.5q0 -60 -18.5 -111.5t-51 -89t-77.5 -59t-98 -21.5q-115 0 -228 111l65 64q38 -42 76 -61.5t82 -19.5q75 0 114.5 48.5t39.5 135.5t-40 131t-115 44q-45 0 -78.5 -15.5
t-49.5 -41.5h-87z" />
    <glyph glyph-name="six" unicode="6" 
d="M87 478q0 70 21.5 128.5t59.5 100.5t91.5 65t117.5 23q45 0 90.5 -11.5t80.5 -32.5l-59 -73q-23 12 -54.5 20t-60.5 8q-42 0 -77 -16.5t-60 -46.5t-39 -72t-14 -93v-33q29 26 73.5 41t97.5 15q58 0 105 -17.5t80 -50t50.5 -79t17.5 -104.5q0 -60 -19 -109t-53.5 -83.5
t-83 -53.5t-107.5 -19q-60 0 -107.5 19t-81 55t-51.5 87t-18 114v218zM184 329v-69q0 -40 12 -73.5t33.5 -57.5t51 -37t64.5 -13t66 13t53.5 36.5t35.5 55t13 68.5q0 36 -11.5 65.5t-32.5 51.5t-50 34t-64 12q-51 0 -98.5 -24t-72.5 -62z" />
    <glyph glyph-name="seven" unicode="7" 
d="M586 780v-88q-63 -79 -119.5 -157t-100 -160.5t-69 -174.5t-25.5 -200h-107q0 107 26.5 202.5t70.5 182t100 164.5t114 148h-402v83h512z" />
    <glyph glyph-name="eight" unicode="8" 
d="M129 610q0 46 15 80.5t42 58t64 35t80 11.5t79.5 -12t62.5 -35.5t41 -58t15 -79.5q0 -65 -30.5 -118t-84.5 -82q43 -14 73 -38t49 -52.5t27.5 -58.5t8.5 -56q0 -52 -17.5 -93t-49.5 -69.5t-76.5 -43t-97.5 -14.5q-50 0 -94.5 13.5t-77.5 41t-52 69t-19 96.5q0 26 8.5 56
t27.5 58.5t49 52.5t73 38q-54 29 -85 82t-31 118zM182 202q0 -70 41 -98.5t107 -28.5q65 0 105 28t40 99q0 20 -8.5 42.5t-26.5 44t-46 39.5t-66 28q-38 -10 -65.5 -28t-45.5 -39.5t-26.5 -44t-8.5 -42.5zM436 605q0 51 -29 74.5t-76 23.5q-48 0 -79 -24.5t-31 -76.5
q0 -47 27.5 -83t81.5 -57q51 21 78.5 57.5t27.5 85.5z" />
    <glyph glyph-name="nine" unicode="9" 
d="M333 794q60 0 107.5 -19t81 -55t51.5 -86.5t18 -113.5v-219q0 -70 -21.5 -128t-60 -100t-92 -65t-118.5 -23q-43 0 -88.5 11.5t-80.5 31.5l59 74q23 -13 54 -20t60 -7q42 0 77.5 16.5t60.5 46t39 71t14 92.5v32q-29 -26 -75 -45t-105 -19q-55 0 -100 17.5t-77 50.5
t-49.5 80.5t-17.5 107.5q0 62 19 111.5t53.5 84.5t83 54t107.5 19zM165 522q0 -37 11.5 -68t32.5 -53t49 -34t61 -12q27 0 53.5 8t49.5 21t41.5 30.5t30.5 36.5v69q0 40 -12 73.5t-33.5 57.5t-51 37t-64.5 13t-66 -13t-53.5 -37t-35.5 -57t-13 -72z" />
    <glyph glyph-name="colon" unicode=":" 
d="M261 83q0 34 18 51t51 17q68 0 68 -68t-68 -68q-69 0 -69 68zM261 457q0 33 18 50t51 17q68 0 68 -67q0 -69 -68 -69q-69 0 -69 69z" />
    <glyph glyph-name="semicolon" unicode=";" 
d="M208 -100q3 5 10.5 19t17 33.5t19.5 42t18 44.5q-12 17 -12 44q0 34 18 51t51 17q39 0 53.5 -20.5t14.5 -56.5q-1 -21 -13 -36q-11 -24 -27.5 -51t-34 -51t-33.5 -41.5t-25 -23.5zM261 457q0 33 18 50t51 17q68 0 68 -67q0 -69 -68 -69q-69 0 -69 69z" />
    <glyph glyph-name="less" unicode="&#x3c;" 
d="M502 603l38 -91l-324 -198l324 -198l-41 -89l-385 239v97z" />
    <glyph glyph-name="equal" unicode="=" 
d="M528 369h-404l7 93h404zM528 162h-404l7 92h404z" />
    <glyph glyph-name="greater" unicode="&#x3e;" 
d="M546 363v-97l-385 -239l-41 89l324 198l-324 198l38 91z" />
    <glyph glyph-name="question" unicode="?" 
d="M469 598q0 57 -35 82.5t-107 25.5q-22 0 -46.5 -5t-48 -15t-43 -25.5t-33.5 -37.5l-68 56q12 28 35.5 49.5t55.5 36.5t71 22.5t82 7.5q52 0 95 -11.5t74 -35.5t48 -61t17 -89q0 -39 -9.5 -67.5t-25 -50t-35 -38.5t-40.5 -33q-25 -19 -45 -37.5t-34 -39.5t-21.5 -47.5
t-7.5 -62.5h-102q0 45 7.5 78.5t23 60t39.5 49.5t57 47q21 15 38.5 29t30.5 30t20 35.5t7 46.5zM232 54q0 68 69 68q67 0 67 -68q0 -69 -67 -69q-69 0 -69 69z" />
    <glyph glyph-name="at" unicode="@" 
d="M61 246q0 137 14 240t46.5 171.5t86 103t132.5 34.5q129 0 194 -86t65 -241v-468h-97v24q-42 -39 -95 -39q-41 0 -75.5 19t-59 52.5t-38.5 80.5t-14 103q0 53 13 96t37 73t57.5 46t74.5 16q31 0 54 -10t46 -33v40q0 238 -162 238q-49 0 -83.5 -24t-56.5 -80t-32 -148.5
t-10 -229.5q0 -52 7 -105t26 -101.5t52 -90t85 -69.5l-78 -61q-63 32 -100 83t-57 112t-26 127t-6 127zM426 79q23 0 41 10t35 33v215q-19 26 -36.5 37.5t-40.5 11.5q-54 0 -82 -37.5t-28 -109.5q0 -77 29.5 -118.5t81.5 -41.5z" />
    <glyph glyph-name="A" unicode="A" 
d="M259 780h127l220 -780h-97l-62 216h-238l-58 -216h-97zM232 299h191l-97 337h-3z" />
    <glyph glyph-name="B" unicode="B" 
d="M88 780h178q125 0 186.5 -48t61.5 -152q0 -99 -66 -140l-8 3q66 -26 99.5 -77t33.5 -125q0 -55 -18 -99.5t-50.5 -76t-78 -48.5t-101.5 -17h-237v780zM185 376v-279h140q74 0 114 37.5t40 106.5q0 135 -164 135h-130zM185 473h81q84 0 119 26t35 79q0 58 -36.5 81.5
t-117.5 23.5h-81v-210zM432 446l8 -3q-2 1 -4 1.5t-4 1.5z" />
    <glyph glyph-name="C" unicode="C" 
d="M601 176q-7 -38 -33 -72.5t-63.5 -61t-83.5 -42t-94 -15.5q-65 0 -116.5 28t-87 79t-54.5 123t-19 159q0 93 20.5 170.5t57.5 133.5t88.5 87t112.5 31q41 0 81 -14t74 -38t59.5 -56.5t36.5 -68.5l-107 -31q-7 24 -21.5 45t-34 36.5t-42 24.5t-46.5 9q-39 0 -71 -23
t-54.5 -65.5t-34.5 -102.5t-12 -135q0 -144 45 -221.5t127 -77.5q29 0 56 9.5t49.5 25t38 36t19.5 42.5z" />
    <glyph glyph-name="D" unicode="D" 
d="M340 97q75 0 113.5 75t38.5 221q0 148 -42 217t-130 69h-140v-582h160zM587 396q0 -396 -247 -396h-257v780h188q86 0 146 -21.5t97.5 -67.5t55 -119t17.5 -176z" />
    <glyph glyph-name="E" unicode="E" 
d="M107 0v780h441v-97h-344v-224h285v-97h-285v-265h344v-97h-441z" />
    <glyph glyph-name="F" unicode="F" 
d="M558 780v-97h-344v-279h285v-98h-285v-306h-97v780h441z" />
    <glyph glyph-name="G" unicode="G" 
d="M600 282q0 -67 -19.5 -122t-54.5 -94t-85 -60t-111 -21q-67 0 -119.5 26t-88 75t-54 120t-18.5 162q0 99 22 178.5t61.5 135t95.5 85t125 29.5q63 0 119.5 -29.5t111.5 -96.5l-76 -63q-21 26 -40 44.5t-37 30t-36.5 16.5t-40.5 5q-95 0 -146.5 -84t-51.5 -244
q0 -146 44.5 -221.5t132.5 -75.5q38 0 70 14t55 39.5t36.5 62t14.5 81.5h-180v83h270v-76z" />
    <glyph glyph-name="H" unicode="H" 
d="M174 780v-363h308v363h98v-708q0 -16 1 -33.5t7 -38.5h-106v334h-308v-334h-97v780h97z" />
    <glyph glyph-name="I" unicode="I" 
d="M111 83h170v614h-144v83h378v-83h-137v-614h167v-11q0 -16 1 -33.5t8 -38.5h-443v83z" />
    <glyph glyph-name="J" unicode="J" 
d="M79 83l59 71q33 -38 82.5 -58.5t112.5 -20.5q141 0 141 101v515h-330v89h437q-7 -21 -8 -38.5t-1 -33.5v-532q0 -43 -17.5 -78.5t-49 -60.5t-76 -38.5t-99.5 -13.5q-39 0 -77 7t-71 20t-59.5 31t-43.5 40z" />
    <glyph glyph-name="K" unicode="K" 
d="M88 0v780h97v-348l286 348h129l-324 -400l354 -380h-144l-276 298l-25 -31v-267h-97z" />
    <glyph glyph-name="L" unicode="L" 
d="M558 0h-454v780h97v-697h357v-83z" />
    <glyph glyph-name="M" unicode="M" 
d="M56 0v780h97q19 -49 43 -105.5t48.5 -110.5t47 -101t38.5 -77q15 30 37 77t45.5 101t46.5 110.5t41 105.5h104v-780h-97v576q-33 -90 -69 -170t-62 -136h-94q-19 42 -35.5 79.5t-32 74t-30.5 74t-31 80.5v-578h-97z" />
    <glyph glyph-name="N" unicode="N" 
d="M186 780l291 -564v564h98v-780h-101l-291 587v-587h-97v780h100z" />
    <glyph glyph-name="O" unicode="O" 
d="M330 -15q-67 0 -119 26.5t-88 76.5t-54.5 123t-18.5 166q0 204 73 311.5t205 107.5q66 0 118.5 -27.5t88.5 -81t55.5 -132t19.5 -180.5q0 -92 -18.5 -164.5t-54.5 -122.5t-88 -76.5t-119 -26.5zM332 79q85 0 125.5 71.5t40.5 223.5q0 176 -43.5 256.5t-124.5 80.5
q-80 0 -124 -80.5t-44 -254.5q0 -154 42.5 -225.5t127.5 -71.5z" />
    <glyph glyph-name="P" unicode="P" 
d="M330 780q56 0 101.5 -17.5t78 -49t50.5 -76.5t18 -101q0 -63 -22 -106.5t-62 -71t-97 -40t-126 -12.5h-81v-306h-98v780h238zM320 404q164 0 164 135q0 69 -40 106.5t-114 37.5h-140v-279h130z" />
    <glyph glyph-name="Q" unicode="Q" 
d="M50 377q0 204 73 311t205 107q133 0 207.5 -108t74.5 -312q0 -167 -59.5 -266.5t-169.5 -119.5v-131h-102v131q-111 20 -170 120t-59 268zM279 87v187h102v-188q60 19 88.5 89.5t28.5 198.5q0 176 -43.5 256.5t-124.5 80.5q-80 0 -124 -80.5t-44 -254.5q0 -128 29 -198.5
t88 -90.5z" />
    <glyph glyph-name="R" unicode="R" 
d="M330 780q56 0 101.5 -17t78 -49t50.5 -77t18 -101q0 -88 -41.5 -138t-114.5 -72q13 -23 27 -46l28 -46q21 -34 41 -68t35.5 -64.5t25 -57t9.5 -44.5h-112q0 17 -9.5 41.5t-25.5 54.5t-35.5 63t-40.5 67l-26 44q-5 9 -11 18.5t-11 19.5q-11 -1 -22.5 -1h-23.5h-81v-307
h-98v780h238zM190 404h130q164 0 164 137q0 68 -40 105t-114 37h-140v-279z" />
    <glyph glyph-name="S" unicode="S" 
d="M323 -15q-83 0 -148.5 29t-96.5 80l67 60q56 -80 171 -80q79 0 124.5 35t45.5 103q0 60 -37.5 91t-112.5 44q-55 9 -101.5 29t-79.5 50t-51.5 69t-18.5 87q0 46 17.5 85t49.5 67.5t76 44.5t96 16q72 0 134 -29t95 -79l-64 -61q-20 22 -38 37t-36 24t-37 13t-43 4
q-75 0 -116.5 -31.5t-41.5 -85.5t45.5 -91t145.5 -56q52 -10 91.5 -26.5t66.5 -42.5t40.5 -62.5t13.5 -86.5q0 -61 -19.5 -105.5t-53.5 -73.5t-81 -43.5t-103 -14.5z" />
    <glyph glyph-name="T" unicode="T" 
d="M586 780v-83h-211v-697h-97v697h-204v83h512z" />
    <glyph glyph-name="U" unicode="U" 
d="M79 780h97v-563q0 -35 12 -61t33 -43.5t49.5 -26t61.5 -8.5q66 0 109 34t43 105v563h97v-568q0 -51 -15.5 -92.5t-47 -71.5t-78.5 -46.5t-109 -16.5t-109.5 16.5t-79 46.5t-47.5 71.5t-16 92.5v568z" />
    <glyph glyph-name="V" unicode="V" 
d="M35 780h104l185 -619l199 619h103l-257 -780h-93z" />
    <glyph glyph-name="W" unicode="W" 
d="M43 780h98q0 -59 2.5 -141t8.5 -168.5t15 -166.5t22 -136q20 55 35 98t26 78t18.5 64.5t13.5 57.5h96q5 -28 12 -57t17.5 -64.5t25 -78.5t34.5 -99q14 56 23.5 136.5t16 167t9.5 168.5t3 141h97q0 -52 -3.5 -116.5t-9.5 -135.5t-15 -144.5t-19.5 -143t-23 -131
t-25.5 -109.5h-90q-13 36 -28 76t-28.5 81t-25.5 81.5t-20 77.5q-9 -37 -21.5 -77.5t-26.5 -81.5t-29.5 -81t-29.5 -76h-90q-11 48 -22 109.5t-21 131t-18 143t-14 144.5t-9.5 135.5t-3.5 116.5z" />
    <glyph glyph-name="X" unicode="X" 
d="M327 290l-157 -290h-109l212 388l-212 392h105l161 -294l161 294h105l-212 -392l212 -388h-109z" />
    <glyph glyph-name="Y" unicode="Y" 
d="M127 780l196 -344l209 344h104l-266 -457v-323h-97v323l-250 457h104z" />
    <glyph glyph-name="Z" unicode="Z" 
d="M61 88l164 250h-108v89h166l171 261h-364v92h490v-88l-173 -265h136v-89h-194l-161 -246h411v-92h-538v88z" />
    <glyph glyph-name="bracketleft" unicode="[" 
d="M205 -196v976h270v-93h-168v-791h168v-92h-270z" />
    <glyph glyph-name="backslash" unicode="\" 
d="M140 843l452 -935l-71 -45l-454 935z" />
    <glyph glyph-name="bracketright" unicode="]" 
d="M455 780v-976h-270v92h168v791h-168v93h270z" />
    <glyph glyph-name="asciicircum" unicode="^" 
d="M276 829h91l195 -269h-105l-134 150l-121 -150h-104z" />
    <glyph glyph-name="underscore" unicode="_" 
d="M637 -196h-613v82h613v-82z" />
    <glyph glyph-name="grave" unicode="`" 
d="M185 791l53 86l235 -167l-35 -63z" />
    <glyph glyph-name="a" unicode="a" 
d="M414 327q15 0 30 -0.5t29 -0.5q-2 38 -14 69t-33 54t-49.5 35.5t-62.5 12.5q-36 0 -76.5 -18t-90.5 -65l-58 71q45 48 102 74t120 26q57 0 104.5 -20t82 -56t53.5 -85.5t19 -108.5v-308l-5 5v-12h-120q8 11 14.5 24t9.5 25q-26 -29 -70 -45.5t-102 -16.5
q-44 0 -83.5 10.5t-69.5 31t-47.5 51.5t-17.5 71q0 88 84 132t251 44zM178 151q0 -19 9 -34.5t24.5 -25.5t36 -15.5t44.5 -5.5q48 0 98 21.5t83 66.5v82h-55q-124 0 -182 -20.5t-58 -68.5z" />
    <glyph glyph-name="b" unicode="b" 
d="M85 0v781l97 -7v-259q60 70 164 70q118 0 183.5 -74t65.5 -211q0 -71 -19 -129t-53 -99t-82 -63.5t-107 -22.5q-39 0 -74 10t-64 29q6 -16 14 -25h-125zM182 156q20 -39 56.5 -58t93.5 -19q36 0 67 16.5t53 45.5t34.5 69.5t12.5 88.5q0 45 -11 82t-31.5 63t-49.5 40
t-65 14q-50 0 -91.5 -27t-68.5 -76v-239z" />
    <glyph glyph-name="c" unicode="c" 
d="M582 174q-18 -87 -86 -137t-171 -50q-121 0 -187.5 73.5t-66.5 212.5q0 66 16 123t47.5 99t78.5 66t110 24q44 0 83.5 -12t72.5 -33.5t57 -51.5t36 -67l-106 -31q-14 50 -53 77t-88 27q-75 0 -111 -60.5t-36 -166.5q0 -94 38.5 -142t114.5 -48q57 0 93.5 28t46.5 84z" />
    <glyph glyph-name="d" unicode="d" 
d="M67 301q0 136 65.5 210t183.5 74q104 0 164 -70v266l97 -6v-704q0 -15 1 -33t7 -38h-105v35q-65 -48 -152 -48q-58 0 -106.5 22.5t-82.5 63.5t-53 99t-19 129zM330 79q112 0 150 77v239q-27 50 -69 77t-91 27q-36 0 -65 -14t-49.5 -40t-31.5 -63t-11 -82q0 -48 12.5 -89
t34.5 -70t52.5 -45.5t67.5 -16.5z" />
    <glyph glyph-name="e" unicode="e" 
d="M79 239v56q0 139 66.5 214.5t194.5 75.5q72 0 117.5 -24t71 -64.5t35 -94t9.5 -112.5v-25.5t-1 -25.5h-395q0 -33 11.5 -63t32.5 -52.5t50 -36t65 -13.5t76.5 18t89.5 65l58 -71q-45 -48 -102 -74t-120 -26q-57 0 -104.5 20.5t-82 55.5t-53.5 80.5t-19 96.5zM471 327v12
q0 77 -36 118.5t-108 41.5q-77 0 -111 -46t-38 -126h293z" />
    <glyph glyph-name="f" unicode="f" 
d="M114 327h107v243q0 52 17 93t45 69t64.5 43t75.5 15q55 0 108.5 -32.5t88.5 -107.5l-88 -39q-19 44 -49.5 64t-61.5 20q-20 0 -39 -8t-33.5 -23.5t-23 -39t-8.5 -54.5v-243h221v-89h-221v-440l-96 7v433h-107v89z" />
    <glyph glyph-name="g" unicode="g" 
d="M62 327q0 59 17 106.5t48.5 81.5t77 52t102.5 18q106 0 166 -66v51h106q-7 -20 -8 -38t-1 -33v-485q0 -43 -17 -78t-48.5 -59.5t-76 -38t-98.5 -13.5q-39 0 -76.5 7t-70.5 19.5t-59.5 30.5t-43.5 39l59 71q33 -38 82 -58.5t112 -20.5q140 0 140 101v94q-38 -26 -80.5 -40
t-87.5 -14q-55 0 -99.5 20t-76.5 56t-49.5 86.5t-17.5 110.5zM156 326q0 -37 11.5 -70t33 -57.5t51.5 -38.5t67 -14q47 0 88.5 22.5t65.5 61.5v170q-27 49 -69 75t-91 26q-35 0 -64 -13.5t-49.5 -37t-32 -55.5t-11.5 -69z" />
    <glyph glyph-name="h" unicode="h" 
d="M90 781l97 -6v-254q27 29 71.5 46.5t89.5 17.5q56 0 95.5 -25t65 -65.5t37 -92.5t11.5 -105v-226q0 -15 1 -33t8 -38h-111v317q0 36 -10 67t-29 54.5t-46.5 37t-62.5 13.5q-45 0 -73.5 -23t-46.5 -55v-411h-97v781z" />
    <glyph glyph-name="i" unicode="i" 
d="M111 82h174v406l-114 7v75h208v-488h164v-11q0 -15 1 -33t7 -38h-440v82zM254 723q0 67 68 67q67 0 67 -67q0 -68 -67 -68q-68 0 -68 68z" />
    <glyph glyph-name="j" unicode="j" 
d="M85 -64l88 39q18 -45 49 -64.5t62 -19.5q20 0 39 8t33 23.5t22.5 39t8.5 54.5v472l-114 7v75h211v-554q0 -53 -17 -94t-45 -69t-64.5 -43t-75.5 -15q-55 0 -108.5 33t-88.5 108zM428 790q68 0 68 -67q0 -68 -68 -68t-68 68q0 33 18 50t50 17z" />
    <glyph glyph-name="k" unicode="k" 
d="M209 775v-422l248 217h137l-288 -260l319 -310h-149l-246 241l-21 -19v-222h-97v781z" />
    <glyph glyph-name="l" unicode="l" 
d="M113 82h169v611l-114 7v75h211v-693h165v-11q0 -15 1 -33t8 -38h-440v82z" />
    <glyph glyph-name="m" unicode="m" 
d="M71 570h97v-26q16 23 35 32t45 9q41 0 68.5 -20t43.5 -53q20 39 41.5 56t63.5 17q41 0 66.5 -13.5t40 -37.5t20 -57t5.5 -71v-406h-93v426q0 29 -14 50.5t-39 21.5q-19 0 -35.5 -17t-33.5 -57q1 -7 1 -13.5v-14.5v-396h-93v417q0 29 -15 50.5t-41 21.5q-20 0 -34.5 -15.5
t-31.5 -45.5v-357q0 -15 1 -33t8 -38h-106v570z" />
    <glyph glyph-name="n" unicode="n" 
d="M101 0v570h125q-5 -8 -11 -19t-11 -24q28 26 70.5 42t86.5 16q55 0 94 -25t64 -65.5t37 -92.5t12 -105v-226q0 -15 1 -33t8 -38h-112v317q0 36 -10 67t-28.5 54.5t-45.5 37t-61 13.5q-47 0 -75.5 -23t-47.5 -56v-410h-96z" />
    <glyph glyph-name="o" unicode="o" 
d="M329 -14q-60 0 -108 20.5t-82.5 59t-53 93.5t-18.5 124q0 68 18 123.5t52 95.5t82 61.5t108 21.5q61 0 110 -22t83.5 -61.5t53.5 -95.5t19 -124t-19 -123t-53.5 -93.5t-83 -59t-108.5 -20.5zM332 70q72 0 112.5 54.5t40.5 157.5t-41 162t-114 59q-74 0 -114.5 -58.5
t-40.5 -160.5q0 -103 41.5 -158.5t115.5 -55.5z" />
    <glyph glyph-name="p" unicode="p" 
d="M79 -202v772h125q-6 -9 -12.5 -22.5t-11.5 -27.5q31 34 69.5 49.5t90.5 15.5q118 0 183.5 -74t65.5 -211q0 -71 -19 -129t-53 -99t-82 -63.5t-107 -22.5q-43 0 -81.5 13t-70.5 36v-230zM176 156q20 -39 56.5 -58t93.5 -19q37 0 67.5 16.5t52.5 45.5t34.5 69.5t12.5 88.5
q0 45 -11 82t-31.5 63t-49.5 40t-65 14q-50 0 -91.5 -27t-68.5 -76v-239z" />
    <glyph glyph-name="q" unicode="q" 
d="M68 300q0 137 66 211t184 74q104 0 164 -70v55h105q-6 -21 -7 -38.5t-1 -33.5v-693l-97 -7v237q-32 -23 -70.5 -36t-81.5 -13q-58 0 -106.5 22.5t-83 63.5t-53.5 99t-19 129zM332 79q112 0 150 77v239q-27 49 -69 76t-91 27q-72 0 -114.5 -54t-42.5 -145
q0 -48 12.5 -88.5t34.5 -69.5t52.5 -45.5t67.5 -16.5z" />
    <glyph glyph-name="r" unicode="r" 
d="M77 82h173v406l-114 7v75h224q-13 -21 -16 -43q17 20 38 31.5t43 17.5t42.5 7.5t34.5 1.5q8 0 17 -0.5t22 -3.5t32 -9t46 -16l-61 -94q-46 25 -86 25q-46 0 -82 -26t-46 -68v-311h164v-11q0 -15 1 -33t8 -38h-440v82z" />
    <glyph glyph-name="s" unicode="s" 
d="M362 333q110 -21 157.5 -58.5t47.5 -103.5q0 -40 -16 -74t-46 -59t-72 -38.5t-94 -13.5q-152 0 -242 124l64 67q42 -51 86 -77.5t93 -26.5q27 0 51.5 8t43 21t29.5 31t11 37q0 25 -25 39t-91 27q-127 26 -182 68t-55 109q0 39 16 70.5t45.5 54t70.5 35t91 12.5
q72 0 128 -25t89 -73l-61 -62q-36 38 -70 54.5t-80 16.5q-30 0 -55 -6t-43 -16.5t-28.5 -24.5t-10.5 -31q0 -32 37 -51.5t111 -33.5z" />
    <glyph glyph-name="t" unicode="t" 
d="M99 570h89v211l97 -6v-205h237v-89h-237v-275q0 -31 8.5 -54.5t23 -39t33 -23.5t38.5 -8q31 0 62 19.5t50 64.5l87 -39q-34 -74 -87.5 -107t-109.5 -33q-39 0 -75.5 15t-64.5 43t-45 69t-17 93v275h-89v89z" />
    <glyph glyph-name="u" unicode="u" 
d="M85 571h102v-327q0 -34 11 -65t30 -55t45.5 -38t57.5 -14q41 0 68.5 24.5t57.5 72.5v401h96v-499q0 -15 1 -33t8 -38h-105v61q-27 -35 -70 -55t-88 -20q-47 0 -86 22t-67.5 60.5t-44.5 89t-16 107.5v306z" />
    <glyph glyph-name="v" unicode="v" 
d="M73 570h103l147 -413l160 413h102l-217 -570h-93z" />
    <glyph glyph-name="w" unicode="w" 
d="M55 585h96q0 -116 15 -218t39 -201q13 35 24.5 67t21.5 64t18 65.5t15 70.5h96q6 -37 13.5 -70.5t16 -65.5t19 -64t22.5 -67q26 99 41 201t15 218h97q0 -78 -8.5 -153t-23 -147.5t-32.5 -143t-38 -141.5h-89q-27 72 -48.5 135t-35.5 130q-6 -25 -14 -50.5t-19 -56.5
t-25.5 -69.5t-34.5 -88.5h-89q-17 71 -33.5 141.5t-29.5 143t-21 147.5t-8 153z" />
    <glyph glyph-name="x" unicode="x" 
d="M92 0l186 287l-180 283h108l126 -198l128 198h108l-182 -283l183 -287h-109l-129 203l-130 -203h-109z" />
    <glyph glyph-name="y" unicode="y" 
d="M179 570q6 -38 20.5 -88t35 -105.5t44.5 -114t49 -113.5q23 62 45 124t40.5 117.5t32 102t19.5 77.5h108q-10 -41 -30 -102t-46 -132t-55.5 -148.5t-59.5 -151.5q1 -2 2 -3.5t2 -3.5h-7q-11 -27 -21 -53t-21 -51q-29 -68 -69.5 -100.5t-101.5 -32.5q-9 0 -21.5 1t-29.5 4
l18 79q11 -3 16.5 -3.5t10.5 -0.5q32 0 54 22.5t38 60.5l16 40t16 41q-31 57 -63.5 129.5t-60.5 146t-48.5 141.5t-28.5 117h96z" />
    <glyph glyph-name="z" unicode="z" 
d="M147 0h-36v74l-1 2l1 1v5h4l316 406h-307v82h415v-84l-319 -404h323v-11q0 -15 1 -33t7 -38h-396l-5 -6z" />
    <glyph glyph-name="braceleft" unicode="{" 
d="M166 246v92q43 0 68.5 9t38.5 23t17 31.5t4 33.5q0 28 -6 53t-15 51q-8 22 -13.5 43t-5.5 47q0 40 15.5 68.5t42.5 47t63.5 27.5t77.5 9h17t23 -1v-80q-14 2 -25 3t-21 1q-38 0 -64.5 -15t-26.5 -55q0 -17 4.5 -38.5t12.5 -45.5q7 -22 14 -52.5t7 -64.5q0 -49 -18 -86.5
t-63 -52.5q23 -9 38 -24.5t25 -35t14 -42.5t4 -47q0 -37 -7.5 -64.5t-15.5 -51.5q-6 -17 -10.5 -35t-4.5 -36q0 -22 7.5 -37t21 -24.5t31 -13.5t36.5 -4q9 0 18.5 1t22.5 3v-78q-13 -2 -21 -2h-16q-42 0 -79 9.5t-64 30t-43 51.5t-16 74q0 27 5.5 46.5t13.5 39.5
q10 23 15.5 45t5.5 48q0 16 -3.5 33.5t-17 32t-38.5 24t-69 9.5z" />
    <glyph glyph-name="bar" unicode="|" 
d="M278 780h103v-976h-103v976z" />
    <glyph glyph-name="braceright" unicode="}" 
d="M208 -121q20 0 37.5 4t30.5 13.5t21 24.5t8 37q0 18 -5 36t-11 35q-8 24 -15.5 51.5t-7.5 64.5q0 24 4 47t14 42.5t25.5 35t37.5 24.5q-45 15 -63 52.5t-18 86.5q0 34 7 64.5t14 52.5q8 24 13 45.5t5 38.5q0 20 -7.5 33.5t-20 21.5t-29 11.5t-35.5 3.5q-10 0 -21 -1
t-25 -3v80q14 1 23 1h17q41 0 77.5 -9t63.5 -27.5t42.5 -47t15.5 -68.5q0 -26 -5.5 -47t-13.5 -43q-9 -26 -15 -51t-6 -53q0 -16 4 -33.5t17 -31.5t38.5 -23t68.5 -9v-92q-43 0 -68.5 -9.5t-39 -24t-17 -32t-3.5 -33.5q0 -26 5.5 -48t15.5 -45q8 -20 13.5 -39.5t5.5 -46.5
q0 -43 -16 -74t-43 -51.5t-64 -30t-79 -9.5h-15.5t-21.5 2v78q13 -2 23 -3t18 -1z" />
    <glyph glyph-name="asciitilde" unicode="~" 
d="M239 411q21 0 38.5 -5t31.5 -13t25.5 -17.5t20.5 -18.5q20 -19 36.5 -31t34.5 -12q26 0 50.5 24.5t44.5 60.5l68 -49q-10 -21 -25.5 -43.5t-36 -41.5t-47 -31t-58.5 -12q-42 0 -68.5 17.5t-43.5 34.5q-22 20 -39 32.5t-37 12.5q-48 0 -94 -86l-68 51q30 61 72 94t95 33z
" />
    <glyph glyph-name="exclamdown" unicode="&#xa1;" 
d="M387 99v-197h-117v197l14 364h89zM261 628q0 68 69 68q68 0 68 -68t-68 -68q-33 0 -51 17t-18 51z" />
    <glyph glyph-name="cent" unicode="&#xa2;" 
d="M274 585v102h97v-102q72 -11 127 -54t76 -108l-106 -30q-14 49 -53.5 76.5t-89.5 27.5q-46 0 -75 -21.5t-45 -54.5t-22 -73.5t-6 -78.5q0 -40 8 -75t26 -61t47.5 -40.5t72.5 -14.5q56 0 93 27.5t48 85.5l110 -16q-15 -78 -70.5 -126.5t-140.5 -59.5v-114l-97 7v108
q-99 15 -151.5 87.5t-52.5 197.5q0 59 12.5 111.5t38 93.5t64 68.5t89.5 36.5z" />
    <glyph glyph-name="sterling" unicode="&#xa3;" 
d="M89 392h106q0 17 -0.5 31t-1.5 28q-2 31 -3 61.5t-1 62.5q0 106 50 163t144 57q64 0 112 -27.5t74 -75.5l-61 -59q-23 34 -58 53t-70 19q-45 0 -69.5 -32.5t-24.5 -101.5v-12t1 -16v-7t1 -8v-11.5t1 -10.5q2 -29 3 -57t1 -57h181l-6 -83h-180q-7 -55 -25.5 -112
t-55.5 -115h351v-82h-454v87q41 61 60 116t26 106h-107z" />
    <glyph glyph-name="currency" unicode="&#xa4;" 
d="M211 479q53 30 120 30q69 0 118 -30l86 87l66 -66l-84 -86q15 -25 23.5 -55t8.5 -65q0 -37 -9 -67.5t-24 -55.5l85 -85l-66 -65l-87 85q-47 -28 -117 -28q-68 0 -120 28l-86 -86l-66 65l86 87q-31 51 -31 122q0 35 8 65t22 54l-85 88l66 66zM331 422q-57 0 -85.5 -34
t-28.5 -94q0 -62 28.5 -95.5t85.5 -33.5t85 33.5t28 95.5q0 60 -28 94t-85 34z" />
    <glyph glyph-name="yen" unicode="&#xa5;" 
d="M23 780h104l196 -344l209 344h104l-251 -431h134l-7 -83h-142v-65h149l-7 -82h-142v-119h-97v119h-146l7 82h139v65h-146l7 83h125z" />
    <glyph glyph-name="brokenbar" unicode="&#xa6;" 
d="M278 780h103v-426h-103v426zM278 220h103v-416h-103v416z" />
    <glyph glyph-name="section" unicode="&#xa7;" 
d="M142 17q32 -36 83.5 -58t110.5 -22q69 0 105.5 30t36.5 84q0 55 -37 85t-112 30q-46 0 -89.5 11.5t-77.5 35.5t-54.5 60t-20.5 85q0 62 21 95.5t58 50.5q-35 26 -58 62t-23 79q0 46 16.5 84.5t47.5 66t75.5 43t100.5 15.5q38 0 76 -7.5t71.5 -20.5t60.5 -30.5t43 -38.5
l-59 -72q-32 37 -84 58.5t-111 21.5q-69 0 -105.5 -30t-36.5 -84q0 -55 37 -85t111 -30q46 0 90 -11.5t78 -35.5t55 -60t21 -85q0 -62 -21.5 -95.5t-58.5 -50.5q36 -26 59 -62t23 -79q0 -46 -16.5 -84.5t-48 -66t-76 -43t-100.5 -15.5q-38 0 -76 7.5t-71.5 20t-60 30.5
t-42.5 39zM325 256q46 0 76 3t47.5 12.5t24.5 28.5t7 51q0 31 -13.5 50t-34.5 29t-47 13t-52 3q-46 0 -75.5 -3t-47 -12.5t-24.5 -28.5t-7 -51q0 -31 14 -50t35 -29t47 -13t50 -3z" />
    <glyph glyph-name="dieresis" unicode="&#xa8;" 
d="M330 728q0 33 18 50.5t51 17.5q68 0 68 -68q0 -69 -68 -69q-69 0 -69 69zM134 728q0 68 68 68t68 -68q0 -69 -68 -69t-68 69z" />
    <glyph glyph-name="copyright" unicode="&#xa9;" 
d="M329 854q56 0 105 -21t85.5 -61.5t57.5 -100.5t21 -138t-21 -138t-57.5 -100.5t-85.5 -61.5t-105 -21q-55 0 -104 21t-85.5 61.5t-57.5 100.5t-21 138t21 138t57.5 100.5t85.5 61.5t104 21zM329 289q41 0 76.5 16.5t62.5 48t42.5 77.5t15.5 104t-15.5 103t-42.5 76.5
t-62.5 48t-76.5 16.5q-40 0 -76 -16.5t-62 -48t-41.5 -76.5t-15.5 -103t15.5 -104t41.5 -77.5t62 -48t76 -16.5zM485 469q-8 -56 -47.5 -90t-103.5 -34q-76 0 -115 48t-39 135q0 41 9 77.5t28 64t47.5 43.5t67.5 16q28 0 52.5 -8.5t44 -23t32.5 -35t19 -44.5l-68 -20
q-7 30 -28 47.5t-52 17.5q-44 0 -63 -35.5t-19 -94.5q0 -63 21 -93t66 -30q69 0 77 70z" />
    <glyph glyph-name="guillemotleft" unicode="&#xab;" 
d="M299 64q-52 46 -107.5 106.5t-97.5 124.5q43 63 98 122.5t107 106.5l45 -66q-27 -30 -46 -53t-33.5 -42t-24.5 -35t-18 -33q8 -17 18 -33.5t24.5 -35.5t33.5 -41.5t46 -52.5zM505 64q-52 46 -107 106.5t-97 124.5q43 63 97.5 122.5t106.5 106.5l45 -66q-27 -30 -46 -53
t-33.5 -42t-24.5 -35t-18 -33q8 -17 18 -33.5t24.5 -35.5t33.5 -41.5t46 -52.5z" />
    <glyph glyph-name="logicalnot" unicode="&#xac;" 
d="M520 137h-93v118h-285v83h378v-201z" />
    <glyph glyph-name="registered" unicode="&#xae;" 
d="M68 587q0 56 21 104.5t56.5 84.5t83.5 57t102 21t102 -21t83.5 -57t56 -84.5t20.5 -104.5q0 -55 -20.5 -103.5t-56 -85t-83.5 -57.5t-102 -21t-102 21t-83.5 57.5t-56.5 85t-21 103.5zM331 397q39 0 74 15t60.5 41.5t40.5 61.5t15 74t-15 73.5t-40.5 60t-60.5 40.5
t-74 15t-73.5 -15t-60 -40.5t-40.5 -60t-15 -73.5t15 -74t40.5 -61.5t60 -41.5t73.5 -15zM236 718h100q18 0 36.5 -6t33.5 -18t24 -29.5t9 -41.5t-10 -40.5t-27 -27.5q16 -25 28.5 -51.5t12.5 -40.5h-66q0 11 -10 33.5t-24 42.5h-45v-76h-62v255zM298 599h35q23 0 35 5
t12 23t-12 24.5t-33 6.5h-37v-59z" />
    <glyph glyph-name="macron" unicode="&#xaf;" 
d="M479 648h-299v73h299v-73z" />
    <glyph glyph-name="degree" unicode="&#xb0;" 
d="M245 487q-33 0 -61.5 12.5t-50 34t-34 50t-12.5 60.5t12 59.5t33.5 48t50 32t61.5 11.5t62 -12t51 -32.5t34.5 -48t12.5 -59.5q0 -31 -12.5 -59.5t-34.5 -50t-51 -34t-61 -12.5zM245 559q37 0 56.5 22t19.5 63t-20 63t-56 22q-35 0 -54.5 -22t-19.5 -63t19.5 -63
t54.5 -22z" />
    <glyph glyph-name="plusminus" unicode="&#xb1;" 
d="M88 399h189v145h93v-145h194v-89h-194v-146h-93v146h-189v89zM111 143h435v-89h-435v89z" />
    <glyph glyph-name="acute" unicode="&#xb4;" 
d="M222 647l-35 63l235 167l53 -86z" />
    <glyph glyph-name="paragraph" unicode="&#xb6;" 
d="M301 251q-64 8 -108.5 29.5t-72.5 55t-40.5 80t-12.5 104.5q0 62 15 109t49 79.5t89.5 50.5t135.5 21h232v-983l-97 7v893h-93v-900l-97 7v447z" />
    <glyph glyph-name="periodcentered" unicode="&#xb7;" 
d="M261 319q0 33 18 50.5t51 17.5q68 0 68 -68t-68 -68q-69 0 -69 68z" />
    <glyph glyph-name="cedilla" unicode="&#xb8;" 
d="M372 -251q-49 0 -81 14.5t-61 50.5l52 51q16 -25 35 -34t57 -9q37 0 53 8t16 27q0 37 -46 37q-17 0 -33 -5.5t-24 -13.5h-68l27 139h72l-15 -66q10 4 24.5 6t28.5 2q51 0 80.5 -27t29.5 -75q0 -52 -37.5 -78.5t-109.5 -26.5z" />
    <glyph glyph-name="guillemotright" unicode="&#xbb;" 
d="M110 132q27 30 46 52.5t33.5 41.5t24.5 35.5t18 33.5q-8 17 -18 33t-24.5 35t-33.5 42t-46 53l45 66q52 -47 107 -106.5t98 -122.5q-42 -64 -97.5 -124.5t-107.5 -106.5zM316 132q27 30 46 52.5t33.5 41.5t24.5 35.5t18 33.5q-8 17 -18 33t-24.5 35t-33.5 42t-46 53
l46 66q51 -47 106 -106.5t98 -122.5q-42 -64 -97.5 -124.5t-106.5 -106.5z" />
    <glyph glyph-name="onequarter" unicode="&#xbc;" 
d="M349 137l138 218h75l-136 -213h62v49h-21v13h99q-6 -17 -7.5 -32.5t-1.5 -29.5h64v-56h-64v-86h-69v86h-139v51zM38 220l533 362l52 -38l-537 -365zM38 724q40 8 65.5 22.5t39.5 33.5h64v-355h-67v267q-14 -9 -38 -15t-56 -11z" />
    <glyph glyph-name="onehalf" unicode="&#xbd;" 
d="M622 554l-537 -365l-48 41l533 362zM139 425v267q-14 -9 -38 -15t-56 -11l-8 58q40 8 65.5 22.5t39.5 33.5h64v-355h-67zM542 264q0 38 -66 38q-25 0 -47.5 -10t-42.5 -36l-53 24q20 34 58 55.5t82 21.5q29 0 54 -7.5t43.5 -20t29.5 -29t11 -35.5q0 -21 -10.5 -40.5
t-27.5 -39t-39 -38.5t-46 -39q-9 -8 -16.5 -14t-14.5 -11.5t-14 -11.5t-16 -15h193v-56h-290v52q22 21 45 39.5t46 37.5q23 18 45 35t39 34t27 33.5t10 32.5z" />
    <glyph glyph-name="threequarters" unicode="&#xbe;" 
d="M36 494l44 32q20 -23 40 -32.5t54 -9.5q35 0 55 9t20 35q0 61 -90 61h-30v52h30q42 0 63 15t21 40q0 27 -22.5 35.5t-52.5 8.5q-21 0 -39.5 -7t-29.5 -25l-38 38q14 23 46 36t67 13q26 0 51 -7t44.5 -19.5t31.5 -31t12 -41.5q0 -25 -13 -46t-38 -34q26 -13 42.5 -36
t16.5 -52q0 -23 -12 -41.5t-32.5 -31t-48.5 -19.5t-60 -7q-48 0 -78.5 16.5t-53.5 48.5zM487 355h75l-136 -213h62v49h-21v13h99q-6 -17 -7.5 -32.5t-1.5 -29.5h64v-56h-64v-86h-69v86h-139v51zM38 220l533 362l52 -38l-537 -365z" />
    <glyph glyph-name="questiondown" unicode="&#xbf;" 
d="M188 84q0 -57 34.5 -82.5t106.5 -25.5q23 0 47.5 5t47.5 15.5t43 26t33 37.5l68 -56q-12 -28 -35.5 -50t-55.5 -37t-71 -22.5t-82 -7.5q-52 0 -95 11.5t-74 35.5t-48 61.5t-17 88.5q0 39 9.5 67.5t25 50.5t35 39t40.5 33q25 19 45 37t34 39t21.5 48t7.5 63h103
q0 -45 -7.5 -78.5t-23 -60t-40 -49.5t-57.5 -47q-21 -15 -38.5 -29t-30 -30.5t-19.5 -36t-7 -46.5zM424 629q0 -68 -68 -68t-68 68t68 68t68 -68z" />
    <glyph glyph-name="multiply" unicode="&#xd7;" 
d="M271 301l-124 122l58 58l123 -123l126 125l59 -58l-126 -126l127 -126l-58 -55l-126 124l-125 -124l-59 58z" />
    <glyph glyph-name="Thorn" unicode="&#xde;" 
d="M92 780h98v-193h140q56 0 101.5 -14.5t78 -41t50.5 -63.5t18 -83q0 -97 -79 -148.5t-228 -51.5h-81v-185h-98v780zM320 276q76 0 120 29t44 80t-42.5 81t-111.5 30h-140v-220h130z" />
    <glyph glyph-name="germandbls" unicode="&#xdf;" 
d="M311 790q46 0 81.5 -17t60 -44t37 -61t12.5 -67q0 -28 -7.5 -48.5t-19.5 -36t-26.5 -26.5t-27.5 -20q-25 -17 -40.5 -31.5t-15.5 -33.5q0 -15 13 -27t50 -31q21 -11 44 -24t42 -33t31 -49t12 -71q0 -39 -11 -72t-33 -57.5t-54 -38.5t-74 -14q-35 0 -70.5 10t-64.5 28
l43 75q20 -11 43 -17.5t41 -6.5q21 0 35 8t22 21t11 28t3 30q0 27 -8.5 46t-22 32.5t-30.5 23.5t-35 19q-17 9 -33 18.5t-28.5 21.5t-20 28.5t-7.5 39.5q0 21 6 37t16.5 28.5t23.5 22.5t26 19q36 27 49.5 46.5t13.5 45.5q0 22 -7.5 42t-20.5 35.5t-30.5 24.5t-37.5 9
q-43 0 -67 -42.5t-24 -127.5v-533h-98v527q0 60 13 108.5t38.5 83t62.5 53t84 18.5z" />
    <glyph glyph-name="ae" unicode="&#xe6;" 
d="M377 213q0 -42 4.5 -70.5t14 -45t25 -23.5t36.5 -7q41 0 65.5 23.5t50.5 65.5l47 -64q-12 -20 -27 -39t-35 -34t-45.5 -24.5t-60.5 -9.5q-51 0 -79 20.5t-45 61.5q-21 -42 -54.5 -61.5t-78.5 -19.5q-37 0 -67 12t-52 33.5t-34 52t-12 67.5q0 50 20 83.5t52.5 54t73 29.5
t81.5 9h14.5t14.5 -1q0 51 -3 84t-11 52t-21.5 26.5t-35.5 7.5q-36 0 -61 -19t-53 -64l-60 71q51 101 161 101q43 0 76 -14.5t50 -40.5q15 29 44.5 42t71.5 13q95 0 137.5 -70t42.5 -220v-56h-247v-26zM453 501q-39 0 -57 -43t-18 -140h146q0 102 -17.5 142.5t-53.5 40.5z
M286 239q-7 1 -12.5 1h-11.5q-70 0 -101.5 -21t-31.5 -68q0 -41 18.5 -62t43.5 -21q27 0 53.5 22.5t41.5 66.5v82z" />
    <glyph glyph-name="eth" unicode="&#xf0;" 
d="M318 517q49 0 86.5 -19t71.5 -54q-8 58 -47 108.5t-91 91.5l-114 -79l-37 62l79 67q-38 23 -73.5 39t-65.5 27l42 76q18 -6 65.5 -25.5t104.5 -55.5l92 78l53 -86l-69 -48q32 -28 61 -62t51 -74.5t35 -88t13 -103.5v-115q0 -54 -15 -95.5t-38.5 -71.5t-53 -50t-58 -32
t-53.5 -17t-39 -5q-58 0 -106 20t-82.5 56.5t-53.5 86.5t-19 110q0 59 18.5 107t52.5 82t82 52t108 18zM315 78q27 0 56 10.5t53 33t39 57.5t15 83v74q-36 47 -76.5 71.5t-86.5 24.5q-34 0 -63.5 -13.5t-52 -37t-35.5 -55t-13 -68.5t13 -70t35.5 -57.5t52.5 -38.5t63 -14z
" />
    <glyph glyph-name="divide" unicode="&#xf7;" 
d="M559 255h-457v83h457v-83zM264 482q0 33 18 50.5t51 17.5q68 0 68 -68q0 -69 -68 -69q-69 0 -69 69zM264 110q0 33 18 50.5t51 17.5q68 0 68 -68q0 -69 -68 -69q-69 0 -69 69z" />
    <glyph glyph-name="eng" unicode="&#x14b;" 
d="M101 0v563l5 -6v13h120q-5 -8 -11.5 -20t-11.5 -25q27 28 69.5 44t86.5 16q56 0 95.5 -25t64.5 -65.5t37 -92.5t12 -105v-358q0 -32 -13 -59t-34.5 -47t-50 -31.5t-59.5 -11.5q-35 0 -64.5 16.5t-61.5 54.5l51 65q17 -23 36.5 -36t41.5 -13q51 0 51 81v359q0 36 -10 67
t-28.5 54.5t-45.5 37t-62 13.5q-47 0 -75 -23.5t-47 -58.5v-407h-96z" />
    <glyph glyph-name="OE" unicode="&#x152;" 
d="M53 391q0 196 48 300t160 104q43 0 76 -15h249v-97h-155q20 -42 31.5 -98.5t15.5 -125.5h76v-98h-75q-5 -168 -50 -264h157v-97h-246q-31 -15 -70 -15q-103 0 -160 104t-57 302zM273 79q27 0 46 17.5t30 55t16 97t5 142.5q0 86 -3.5 146.5t-14 99t-30 56.5t-51.5 18
q-33 0 -53.5 -19t-32.5 -58t-16 -99.5t-4 -143.5q0 -164 26.5 -238t81.5 -74z" />
    <glyph glyph-name="oe" unicode="&#x153;" 
d="M32 284q0 69 12.5 125t35 95t54.5 60t71 21q41 0 79.5 -21t59.5 -51l-2 -6q32 78 130 78q41 0 68.5 -15.5t44.5 -50t24.5 -90t7.5 -134.5v-56h-226v-26q0 -43 3.5 -70t12.5 -42.5t25 -21t40 -5.5q18 0 32 3t25.5 10t21.5 19.5t21 30.5l56 -60q-42 -92 -153 -92
q-51 0 -87.5 17.5t-50.5 47.5q-27 -32 -60.5 -48.5t-69.5 -16.5q-40 0 -72.5 21t-55 60t-35 94t-12.5 124zM210 70q20 0 37.5 17t30 46.5t20 70t7.5 87.5t-7.5 86.5t-20 69t-29.5 46t-37 16.5q-37 0 -57 -58.5t-20 -163.5q0 -103 19.5 -160t56.5 -57zM529 318
q0 54 -3.5 89.5t-10.5 56.5t-18.5 29t-28.5 8q-38 0 -57 -42.5t-19 -140.5h137z" />
    <glyph glyph-name="uni0237" unicode="&#x237;" 
d="M173 -25q18 -45 49 -64.5t62 -19.5q20 0 39 8t33 23.5t22.5 39t8.5 54.5v472l-114 7v75h211v-554v-16q-3 -49 -21 -87t-45.5 -64.5t-62.5 -40t-73 -13.5q-55 0 -108.5 33t-88.5 108z" />
    <glyph glyph-name="circumflex" unicode="&#x2c6;" 
d="M291 826h74l149 -198h-88l-97 100l-85 -100h-87z" />
    <glyph glyph-name="caron" unicode="&#x2c7;" 
d="M152 840h87l85 -100l97 100h88l-148 -199h-75z" />
    <glyph glyph-name="breve" unicode="&#x2d8;" 
d="M243 781q0 -42 24 -67.5t66 -25.5q40 0 62 24t22 69h85q0 -35 -13 -65.5t-36 -53t-53.5 -35.5t-66.5 -13t-68 13t-56 36t-37.5 53.5t-13.5 64.5h85z" />
    <glyph glyph-name="dotaccent" unicode="&#x2d9;" 
d="M261 728q0 33 18 50.5t51 17.5q68 0 68 -68q0 -69 -68 -69q-69 0 -69 69z" />
    <glyph glyph-name="ring" unicode="&#x2da;" 
d="M330 560q-53 0 -87 32t-34 86q0 52 33.5 85t87.5 33t87.5 -33t33.5 -85q0 -53 -34.5 -85.5t-86.5 -32.5zM330 618q24 0 38 17t14 43q0 25 -14 42.5t-38 17.5q-23 0 -37.5 -17t-14.5 -43t14.5 -43t37.5 -17z" />
    <glyph glyph-name="ogonek" unicode="&#x2db;" 
d="M476 -183q-46 -28 -86 -28t-70.5 24.5t-30.5 68.5q0 28 18 61t44 71h71q-24 -36 -40.5 -67t-16.5 -46q0 -16 14 -22t29 -6q9 0 23.5 7t28.5 17z" />
    <glyph glyph-name="tilde" unicode="&#x2dc;" 
d="M255 795q39 0 61 -13.5t39 -28.5q17 -14 27.5 -20t23.5 -6q23 0 44.5 16.5t39.5 49.5l64 -45q-10 -19 -24 -38t-33 -34t-42 -24.5t-51 -9.5q-38 0 -60 13.5t-38 28.5q-11 11 -24 19t-30 8q-21 0 -41.5 -15t-42.5 -54l-63 47q29 56 66.5 81t83.5 25z" />
    <glyph glyph-name="hungarumlaut" unicode="&#x2dd;" 
d="M422 800l85 -22l-125 -146h-72zM163 632l112 168l85 -22l-125 -146h-72z" />
    <glyph glyph-name="gravecomb" unicode="&#x300;" 
d="M185 791l53 86l235 -167l-35 -63z" />
    <glyph glyph-name="acutecomb" unicode="&#x301;" 
d="M222 647l-35 63l235 167l53 -86z" />
    <glyph glyph-name="uni0302" unicode="&#x302;" 
d="M286 826h75l148 -198h-88l-97 100l-85 -100h-87z" />
    <glyph glyph-name="tildecomb" unicode="&#x303;" 
d="M255 796q39 0 61 -14t39 -29q17 -14 27.5 -20t23.5 -6q23 0 44.5 16.5t39.5 50.5l64 -46q-10 -19 -24 -38t-33 -34t-43 -24.5t-53 -9.5q-36 0 -57.5 13t-35.5 27q-13 12 -26 20.5t-30 8.5q-21 0 -41.5 -15t-42.5 -54l-63 48q29 55 66.5 80.5t83.5 25.5z" />
    <glyph glyph-name="uni0304" unicode="&#x304;" 
d="M479 648h-299v73h299v-73z" />
    <glyph glyph-name="uni0306" unicode="&#x306;" 
d="M243 781q0 -42 24 -68t66 -26q40 0 62 24.5t22 69.5h85q0 -36 -13 -66.5t-36 -53t-53.5 -35t-66.5 -12.5t-68 13t-56 35.5t-37.5 53t-13.5 65.5h85z" />
    <glyph glyph-name="uni0307" unicode="&#x307;" 
d="M261 728q0 33 18 50t51 17q68 0 68 -67q0 -69 -68 -69q-69 0 -69 69z" />
    <glyph glyph-name="uni0308" unicode="&#x308;" 
d="M360 728q0 67 68 67t68 -67q0 -69 -68 -69t-68 69zM163 728q0 33 18 50t51 17q68 0 68 -67q0 -69 -68 -69q-69 0 -69 69z" />
    <glyph glyph-name="uni030A" unicode="&#x30a;" 
d="M330 560q-53 0 -87 32t-34 86q0 52 33.5 84.5t87.5 32.5t87.5 -32.5t33.5 -84.5q0 -53 -34.5 -85.5t-86.5 -32.5zM330 618q24 0 38 17t14 43q0 25 -14 42.5t-38 17.5q-23 0 -37.5 -17t-14.5 -43t14.5 -43t37.5 -17z" />
    <glyph glyph-name="uni030B" unicode="&#x30b;" 
d="M422 800l85 -22l-125 -147h-72zM163 631l112 169l85 -22l-125 -147h-72z" />
    <glyph glyph-name="uni030C" unicode="&#x30c;" 
d="M152 840h87l85 -100l97 100h88l-148 -199h-75z" />
    <glyph glyph-name="uni0312" unicode="&#x312;" 
d="M139 686q0 7 1 10q2 20 11.5 45.5t21.5 49.5t23.5 43.5t18.5 25.5l51 -14q-1 -4 -5 -16.5t-8.5 -29.5t-9.5 -36.5t-8 -37.5q8 -8 12.5 -21t4.5 -24q0 -29 -18.5 -41t-43.5 -12q-43 0 -50 46q0 2 -0.5 2.5t-0.5 2.5v7z" />
    <glyph glyph-name="uni0326" unicode="&#x326;" 
d="M245 -228q2 4 8 15.5t13.5 27t15.5 34t15 35.5q-9 13 -9 35q0 56 56 56q30 0 43 -15.5t13 -44.5q-1 -21 -12 -35q-9 -20 -22.5 -41t-27.5 -40t-26.5 -32.5t-19.5 -17.5z" />
    <glyph glyph-name="uni0327" unicode="&#x327;" 
d="M372 -251q-49 0 -81 14.5t-61 50.5l52 51q16 -25 35 -34t57 -9q37 0 53 8t16 27q0 37 -46 37q-17 0 -33 -5.5t-24 -13.5h-68l27 139h72l-15 -66q10 4 24.5 6t28.5 2q51 0 80.5 -27t29.5 -75q0 -52 -37.5 -78.5t-109.5 -26.5z" />
    <glyph glyph-name="uni0328" unicode="&#x328;" 
d="M420 -183q-46 -28 -86 -28t-70.5 24t-30.5 65q0 30 18 64t44 72h71q-24 -36 -40.5 -67.5t-16.5 -46.5t13 -21t24 -6q14 0 29 7t29 17z" />
    <glyph glyph-name="uni0335" unicode="&#x335;" 
d="M117 338h427v-90h-427v90z" />
    <glyph glyph-name="uni0336" unicode="&#x336;" 
d="M24 240v82h613v-82h-613z" />
    <glyph glyph-name="uni0337" unicode="&#x337;" 
d="M173 66l-77 35l364 685l72 -45z" />
    <glyph glyph-name="uni0338" unicode="&#x338;" 
d="M547 654l-371 -764l-72 45l370 763z" />
    <glyph glyph-name="tonos" unicode="&#x384;" 
d="M174 788l-39 -188h-98l29 188h108z" />
    <glyph glyph-name="dieresistonos" unicode="&#x385;" 
d="M428 728q0 33 18 50t51 17q68 0 68 -67q0 -69 -68 -69q-69 0 -69 69zM94 728q0 33 18 50t51 17q68 0 68 -67q0 -69 -68 -69q-69 0 -69 69zM402 823l-40 -188h-97l29 188h108z" />
    <glyph glyph-name="Alpha" unicode="&#x391;" 
d="M259 780h127l220 -780h-97l-62 216h-237l-59 -216h-97zM232 299h191l-97 336h-3z" />
    <glyph glyph-name="Beta" unicode="&#x392;" 
d="M88 780h178q125 0 186.5 -48t61.5 -152q0 -99 -66 -140l-8 3q66 -26 99.5 -77t33.5 -125q0 -55 -18 -99.5t-50.5 -76t-78 -48.5t-101.5 -17h-237v780zM185 376v-279h140q74 0 114 37.5t40 106.5q0 135 -164 135h-130zM185 473h81q84 0 119 26t35 79q0 58 -36.5 81.5
t-117.5 23.5h-81v-210zM432 446l8 -3q-2 1 -4 1.5t-4 1.5z" />
    <glyph glyph-name="Gamma" unicode="&#x393;" 
d="M497 687h-259v-687h-97v780h368z" />
    <glyph glyph-name="uni0394" unicode="&#x394;" 
d="M607 83v-83h-555v83l228 697h93zM153 89h351l-176 540z" />
    <glyph glyph-name="Epsilon" unicode="&#x395;" 
d="M107 0v780h441v-97h-344v-224h285v-98h-285v-264h344v-97h-441z" />
    <glyph glyph-name="Zeta" unicode="&#x396;" 
d="M188 92h411v-92h-538v87l393 600h-364v93h490v-88z" />
    <glyph glyph-name="Eta" unicode="&#x397;" 
d="M174 780v-364h308v364h98v-708q0 -16 1 -34t7 -38h-106v334h-308v-334h-97v780h97z" />
    <glyph glyph-name="Theta" unicode="&#x398;" 
d="M448 344h-231v92h231v-92zM330 -15q-67 0 -119 26.5t-88 76.5t-54.5 123t-18.5 166q0 204 73 311t205 107q133 0 207.5 -108t74.5 -312q0 -92 -18.5 -164.5t-54.5 -122.5t-88 -76.5t-119 -26.5zM332 79q85 0 125.5 71.5t40.5 223.5q0 176 -43.5 256.5t-124.5 80.5
q-80 0 -124 -80.5t-44 -254.5q0 -154 42.5 -225.5t127.5 -71.5z" />
    <glyph glyph-name="Iota" unicode="&#x399;" 
d="M281 83v614h-144v83h378v-83h-137v-614h167v-11q0 -16 1 -33.5t8 -38.5h-443v83h170z" />
    <glyph glyph-name="Kappa" unicode="&#x39a;" 
d="M88 0v780h97v-348l286 348h129l-324 -400l354 -380h-144l-276 298l-25 -31v-267h-97z" />
    <glyph glyph-name="Lambda" unicode="&#x39b;" 
d="M276 780h93l237 -780h-103l-179 597l-166 -597h-102z" />
    <glyph glyph-name="Mu" unicode="&#x39c;" 
d="M56 0v780h97q19 -49 43 -105.5t48.5 -110.5t47 -101t38.5 -77q15 30 37 77t45.5 101t46.5 110.5t41 105.5h104v-780h-97v576q-33 -90 -69 -170t-62 -136h-94q-19 42 -35.5 79.5t-32 74t-30.5 74t-31 80.5v-578h-97z" />
    <glyph glyph-name="Nu" unicode="&#x39d;" 
d="M186 780l291 -564v564h98v-780h-101l-291 587v-587h-97v780h100z" />
    <glyph glyph-name="Xi" unicode="&#x39e;" 
d="M599 92v-92h-538v92h538zM514 338h-368v89h368v-89zM90 687v93h490v-93h-490z" />
    <glyph glyph-name="Omicron" unicode="&#x39f;" 
d="M330 -15q-67 0 -119 26.5t-88 76.5t-54.5 123t-18.5 166q0 204 73 311t205 107q133 0 207.5 -108t74.5 -312q0 -92 -18.5 -164.5t-54.5 -122.5t-88 -76.5t-119 -26.5zM332 79q85 0 125.5 71.5t40.5 223.5q0 176 -43.5 256.5t-124.5 80.5q-80 0 -124 -80.5t-44 -254.5
q0 -154 42.5 -225.5t127.5 -71.5z" />
    <glyph glyph-name="Pi" unicode="&#x3a0;" 
d="M77 780h503v-708q0 -16 1 -34t7 -38h-106v697h-308v-697h-97v780z" />
    <glyph glyph-name="Rho" unicode="&#x3a1;" 
d="M330 780q56 0 101.5 -17.5t78 -49t50.5 -76.5t18 -101q0 -63 -22 -106.5t-62 -71t-97 -40t-126 -12.5h-81v-306h-98v780h238zM320 404q164 0 164 135q0 69 -40 106.5t-114 37.5h-140v-279h130z" />
    <glyph glyph-name="Sigma" unicode="&#x3a3;" 
d="M107 93l264 300l-264 293v94h441v-97h-314l236 -248v-89l-236 -249h314v-97h-441v93z" />
    <glyph glyph-name="Tau" unicode="&#x3a4;" 
d="M586 780v-83h-211v-697h-97v697h-204v83h512z" />
    <glyph glyph-name="Upsilon" unicode="&#x3a5;" 
d="M127 780l196 -344l209 344h104l-266 -457v-323h-97v323l-250 457h104z" />
    <glyph glyph-name="Phi" unicode="&#x3a6;" 
d="M43 398q0 132 60.5 206.5t177.5 86.5v89h97v-89q117 -13 178 -87.5t61 -202.5q0 -132 -62.5 -212t-176.5 -96v-93h-97v93q-114 13 -176 91.5t-62 213.5zM378 597v-409q74 11 110.5 62t36.5 148q0 94 -35 141.5t-112 57.5zM281 189v408q-75 -11 -110 -59t-35 -138
q0 -184 145 -211z" />
    <glyph glyph-name="Chi" unicode="&#x3a7;" 
d="M327 290l-157 -290h-109l212 388l-212 392h105l161 -294l161 294h105l-212 -392l212 -388h-109z" />
    <glyph glyph-name="Psi" unicode="&#x3a8;" 
d="M48 581v199h93v-198q0 -86 34.5 -131.5t106.5 -56.5v386h97v-386q73 10 107.5 55t34.5 132v199h92v-198q0 -124 -61.5 -195.5t-172.5 -84.5v-302h-97v302q-110 14 -172 86t-62 193z" />
    <glyph glyph-name="Omega" unicode="&#x2126;" 
d="M329 795q63 0 116 -26.5t91 -77.5t59.5 -126.5t21.5 -173.5q0 -57 -10.5 -103.5t-27 -83t-37.5 -64t-42 -46.5h107v-94h-234v94q14 0 36.5 18.5t43.5 56t36.5 93t15.5 129.5q0 82 -13.5 141t-37 96.5t-55.5 55t-70 17.5q-37 0 -68.5 -17t-55 -54.5t-37 -96.5t-13.5 -142
q0 -74 16 -129.5t37.5 -93t43.5 -56t35 -18.5v-94h-234v94h105q-21 19 -41.5 46t-37 64t-26.5 83.5t-10 103.5q0 98 21 173.5t59 126.5t90.5 77.5t115.5 26.5z" />
    <glyph glyph-name="beta" unicode="&#x3b2;" 
d="M187 31v-233l-97 7v771q3 49 21 88.5t49 67.5t73.5 43t92.5 15q97 0 152.5 -53t55.5 -145q0 -58 -22 -105.5t-58 -69.5q24 -13 45 -35.5t36.5 -50.5t24.5 -60t9 -64q0 -48 -19.5 -88.5t-53.5 -70t-80.5 -46.5t-99.5 -17q-36 0 -69 12t-60 34zM327 73q66 0 103 33.5
t37 96.5q0 37 -13 68.5t-36.5 55t-55.5 36.5t-70 13h-50v81h50q69 0 109 36t40 97q0 54 -32.5 83t-91.5 29q-130 0 -130 -140v-418q43 -71 140 -71z" />
    <glyph glyph-name="gamma" unicode="&#x3b3;" 
d="M165 571l169 -370q29 50 52 94t40.5 87.5t28.5 89t17 98.5h102q-8 -72 -25 -135.5t-41.5 -124.5t-56 -123.5t-69.5 -131.5v-250h-98v249l-220 505z" />
    <glyph glyph-name="eta" unicode="&#x3b7;" 
d="M350 585q48 0 88.5 -21.5t69 -59.5t44.5 -91t16 -116v-492h-103v512q0 37 -11 68.5t-30 54.5t-45 36t-57 13q-87 0 -125 -109v-380h-96v476q0 23 -7.5 43.5t-25.5 50.5h97q14 -15 21 -30t9 -35q23 36 64 58t91 22z" />
    <glyph glyph-name="theta" unicode="&#x3b8;" 
d="M79 387q0 88 15.5 162t47 127.5t78 83.5t109.5 30t110 -30.5t78.5 -84.5t47.5 -128t16 -161q0 -86 -15.5 -159.5t-47 -127t-79 -84t-110.5 -30.5t-110 30t-78 84t-46.5 127.5t-15.5 160.5zM473 423q-2 66 -11 119.5t-26.5 91.5t-44 59t-62.5 21t-61.5 -20t-43 -58
t-26.5 -91.5t-11 -121.5h286zM187 332q2 -58 11.5 -105.5t26.5 -82t43.5 -53.5t62.5 -19t61.5 18.5t42.5 52.5t26 82t12 107h-286z" />
    <glyph glyph-name="iota" unicode="&#x3b9;" 
d="M368 570v-365l1 -8q5 -45 22 -73.5t61 -36.5l-25 -88q-85 17 -120.5 66t-35.5 134v289l-114 7v75h211z" />
    <glyph glyph-name="kappa" unicode="&#x3ba;" 
d="M107 268l5 4v291l5 -5v12h120q-8 -13 -18 -35.5t-10 -39.5v-139l248 214h137l-290 -259l321 -311h-149l-249 242l-18 -16v-226h-97v265z" />
    <glyph glyph-name="lambda" unicode="&#x3bb;" 
d="M75 0l201 480q-12 27 -22.5 52.5t-20.5 48.5q-20 47 -43.5 71.5t-52.5 34.5l39 89q89 -27 147 -164q47 -110 89 -206t78 -174t65 -137t50 -95h-111q-14 27 -33 66t-41 86.5t-45.5 100.5t-47.5 107l-149 -360h-103z" />
    <glyph glyph-name="mu" unicode="&#xb5;" 
d="M76 -202v772h97v-384q18 -62 61 -88t94 -26q33 0 56.5 19t47.5 55v424h97v-375q0 -39 1 -65t7.5 -41.5t20 -21.5t37.5 -6l-21 -76q-15 0 -34.5 2.5t-38.5 10t-35.5 20.5t-25.5 34q-27 -32 -66 -49.5t-82 -17.5q-34 0 -64 11.5t-55 32.5v-224z" />
    <glyph glyph-name="nu" unicode="&#x3bd;" 
d="M564 570q-15 -146 -67.5 -287t-129.5 -283h-92l-211 559l92 12l168 -419q60 104 93.5 207.5t45.5 210.5h101z" />
    <glyph glyph-name="omicron" unicode="&#x3bf;" 
d="M329 -15q-60 0 -108 20.5t-82.5 59.5t-53 94t-18.5 124q0 68 18 123.5t52 95.5t82 61.5t108 21.5q61 0 110 -22t83.5 -62t53.5 -95.5t19 -123.5q0 -69 -19 -124t-53.5 -93.5t-83 -59t-108.5 -20.5zM332 70q72 0 112.5 54.5t40.5 157.5t-41 162t-114 59q-74 0 -114.5 -59
t-40.5 -160q0 -103 41.5 -158.5t115.5 -55.5z" />
    <glyph glyph-name="pi" unicode="&#x3c0;" 
d="M56 570h549l-12 -82h-77v-293q0 -26 2 -46t10 -34.5t25 -24t47 -13.5l-24 -88q-85 18 -120.5 66.5t-35.5 133.5v299h-189v-488h-93v488h-82v82z" />
    <glyph glyph-name="rho" unicode="&#x3c1;" 
d="M79 -202v502q0 74 13.5 127.5t44 88.5t79.5 52t120 17q121 0 187 -74t66 -209q0 -72 -19 -130t-53.5 -99.5t-83 -64t-107.5 -22.5q-87 0 -150 48v-229zM176 160q18 -42 54 -61.5t96 -19.5q37 0 67.5 16.5t52.5 45.5t34.5 69.5t12.5 88.5q0 45 -11 82t-31.5 63t-49.5 40
t-65 14q-86 0 -123 -49t-37 -149v-140z" />
    <glyph glyph-name="sigma" unicode="&#x3c3;" 
d="M67 291q0 59 15 112t46 93.5t78.5 64.5t111.5 24h296l-10 -91h-92q62 -77 62 -203q0 -69 -19 -125t-53 -96.5t-80.5 -62.5t-102.5 -22q-55 0 -101.5 22t-80 62t-52 96.5t-18.5 125.5zM321 77q66 0 104 55.5t38 158.5q0 100 -37 151.5t-105 51.5t-105.5 -51.5
t-37.5 -151.5q0 -101 38.5 -157.5t104.5 -56.5z" />
    <glyph glyph-name="tau" unicode="&#x3c4;" 
d="M105 570h451l-12 -82h-175v-293q0 -26 2 -46t10 -34.5t25 -24t47 -13.5l-25 -88q-83 17 -119.5 67.5t-36.5 132.5v299h-167v82z" />
    <glyph glyph-name="upsilon" unicode="&#x3c5;" 
d="M484 571q79 -219 79 -355q0 -231 -221 -231q-115 0 -180 62.5t-65 187.5v336h102v-356q0 -62 36.5 -97t114.5 -35q63 0 92 26.5t29 90.5q0 56 -20.5 142.5t-62.5 213.5z" />
    <glyph glyph-name="phi" unicode="&#x3c6;" 
d="M49 293q0 74 13 146.5t36 130.5h102q-26 -69 -40 -139t-14 -135q0 -102 33 -156t95 -60v275q0 112 40.5 171t116.5 59h4q90 0 128.5 -78t38.5 -231q0 -145 -57.5 -214.5t-173.5 -74.5v-189l-97 7v182q-111 6 -168 81.5t-57 224.5zM371 355v-276q42 2 68 10.5t41 30t20 59
t5 95.5q0 53 -3 93.5t-10.5 67.5t-21 40.5t-35.5 13.5q-38 0 -51 -35.5t-13 -98.5z" />
    <glyph glyph-name="psi" unicode="&#x3c8;" 
d="M51 570h96v-197q0 -70 7 -121.5t23 -86t40.5 -54t58.5 -25.5v484h97v-482q74 18 108 89.5t34 205.5q0 78 -12 187h97q9 -103 9 -182q0 -96 -14 -167t-42.5 -120t-73 -77t-106.5 -36v-183h-97v182q-60 6 -103 30.5t-70 71t-39.5 116.5t-12.5 167v198z" />
    <glyph glyph-name="endash" unicode="&#x2013;" 
d="M559 255h-466q7 21 8 38.5t1 33.5v11h466q-7 -21 -8 -38.5t-1 -33.5v-11z" />
    <glyph glyph-name="emdash" unicode="&#x2014;" 
d="M637 255h-613v83h613v-83z" />
    <glyph glyph-name="quoteleft" unicode="&#x2018;" 
d="M262 578q0 14 4 22q5 24 17 54.5t26 58.5t27.5 50t21.5 30l62 -19q-2 -5 -6.5 -20.5t-10.5 -36.5t-12.5 -45t-11.5 -47q11 -11 16.5 -26t5.5 -32q0 -31 -23 -47.5t-52 -16.5q-32 0 -48 23t-16 52z" />
    <glyph glyph-name="quoteright" unicode="&#x2019;" 
d="M240 510q2 5 7 20.5t11 36.5t12.5 45t10.5 46q-11 11 -16.5 26.5t-5.5 32.5q0 31 23 47.5t52 16.5q32 0 48 -23t16 -52q0 -14 -4 -23q-5 -24 -17 -54.5t-25.5 -58t-27 -49.5t-21.5 -30z" />
    <glyph glyph-name="quotesinglbase" unicode="&#x201a;" 
d="M293 10q-12 17 -12 44q0 33 18 50.5t51 17.5q40 0 53.5 -21.5t13.5 -57.5q-3 -20 -12 -34q-10 -24 -27 -51t-34.5 -50.5t-33.5 -41.5t-25 -24l-57 28q3 5 10.5 19.5t17 34t19.5 42t18 44.5z" />
    <glyph glyph-name="quotedblleft" unicode="&#x201c;" 
d="M341 577q0 15 4 24q5 24 17 54.5t26 58t27 49.5t21 30l63 -19q-2 -5 -7 -20.5t-11 -36.5t-12 -45.5t-11 -47.5q11 -11 16 -25.5t5 -31.5q0 -32 -22.5 -48t-51.5 -16q-32 0 -48 22.5t-16 51.5zM174 577q0 15 4 24q5 24 17 54.5t26 58t27 49.5t21 30l63 -19q-2 -5 -7 -20.5
t-11 -36.5t-12 -45t-11 -47q11 -11 16 -26t5 -32q-1 -32 -23 -48t-51 -16q-32 0 -48 22.5t-16 51.5z" />
    <glyph glyph-name="quotedblright" unicode="&#x201d;" 
d="M369 659q-11 11 -16 26t-5 32q0 31 22.5 47.5t51.5 16.5q32 0 48 -23t16 -52q0 -14 -4 -23q-5 -24 -16.5 -54.5t-25.5 -58t-27.5 -49.5t-21.5 -30l-63 19q2 5 7 20.5t11 36.5t12.5 45t10.5 47zM161 510q2 5 7 20.5t11 36.5t12.5 45t10.5 47q-11 11 -16 26t-5 32
q0 31 22.5 47.5t51.5 16.5q32 0 48 -23t16 -52q0 -14 -4 -23q-5 -24 -16.5 -54.5t-25.5 -58t-27.5 -49.5t-21.5 -30z" />
    <glyph glyph-name="quotedblbase" unicode="&#x201e;" 
d="M369 8q-21 21 -21 58q0 31 22.5 47.5t51.5 16.5q32 0 48 -23t16 -52q0 -14 -4 -23q-5 -24 -16.5 -54.5t-25.5 -58.5t-27.5 -50t-21.5 -29l-63 19q2 5 7 20.5t11 36.5t12.5 45t10.5 47zM161 -141q2 5 7 20.5t11 36.5t12.5 45t10.5 47q-21 21 -21 58q0 31 22.5 47.5
t51.5 16.5q32 0 48 -23t16 -52q0 -14 -4 -23q-5 -24 -16.5 -54.5t-25.5 -58.5t-27.5 -50t-21.5 -29z" />
    <glyph glyph-name="dagger" unicode="&#x2020;" 
d="M381 477v-477h-102v477h-139v97h139v206h102v-206h145v-97h-145z" />
    <glyph glyph-name="daggerdbl" unicode="&#x2021;" 
d="M140 308h139v169h-139v97h139v206h102v-206h145v-97h-145v-169h145v-96h-145v-212h-102v212h-139v96z" />
    <glyph glyph-name="bullet" unicode="&#x2022;" 
d="M225 317q0 48 25.5 73t73.5 25q98 0 98 -98q0 -99 -98 -99q-99 0 -99 99z" />
    <glyph glyph-name="ellipsis" unicode="&#x2026;" 
d="M261 54q0 33 18 50.5t51 17.5q68 0 68 -68q0 -69 -68 -69q-69 0 -69 69zM75 54q0 68 68 68t68 -68q0 -69 -68 -69t-68 69zM448 54q0 68 69 68q67 0 67 -68q0 -69 -67 -69q-69 0 -69 69z" />
    <glyph glyph-name="perthousand" unicode="&#x2030;" 
d="M613 643l-478 -345l-73 47l477 344zM175 -13q-32 0 -59.5 11.5t-47 32t-30.5 48t-11 60.5q0 66 41 106.5t107 40.5q33 0 60 -10.5t47 -30t31 -46.5t11 -59q0 -33 -11.5 -61t-31.5 -48.5t-47 -32t-59 -11.5zM177 57q35 0 50 19t15 63q0 45 -15.5 63.5t-51.5 18.5
q-35 0 -49.5 -18t-14.5 -62q0 -45 15.5 -64.5t50.5 -19.5zM176 497q-32 0 -59.5 11.5t-47 32t-30.5 48t-11 60.5t11 59.5t30.5 46t46.5 30t60 10.5t60 -10.5t47 -29.5t31 -46t11 -59q0 -33 -11.5 -61t-31.5 -48.5t-47 -32t-59 -11.5zM178 567q35 0 50 18.5t15 63.5
t-15.5 63.5t-51.5 18.5q-35 0 -49.5 -18t-14.5 -63t15.5 -64t50.5 -19zM481 -13q-32 0 -59 11.5t-47 32t-31 48t-11 60.5q0 66 41 106.5t107 40.5q33 0 60.5 -10.5t47.5 -30t31 -46.5t11 -59q0 -33 -11.5 -61t-31.5 -48.5t-47.5 -32t-59.5 -11.5zM483 57q35 0 50 19t15 63
q0 45 -15.5 63.5t-51.5 18.5q-35 0 -49.5 -18t-14.5 -62q0 -45 15.5 -64.5t50.5 -19.5z" />
    <glyph glyph-name="guilsinglleft" unicode="&#x2039;" 
d="M388 64q-52 46 -107 106.5t-97 124.5q43 63 97.5 122.5t106.5 106.5l45 -66q-27 -30 -46 -53t-33.5 -42t-24.5 -35t-18 -33q8 -17 18 -33.5t24.5 -35.5t33.5 -41.5t46 -52.5z" />
    <glyph glyph-name="guilsinglright" unicode="&#x203a;" 
d="M227 132q27 30 46 52.5t33.5 41.5t24.5 35.5t18 33.5q-8 17 -18 33t-24.5 35t-33.5 42t-46 53l45 66q52 -47 106.5 -106.5t97.5 -122.5q-42 -64 -97 -124.5t-107 -106.5z" />
    <glyph glyph-name="fraction" unicode="&#x2044;" 
d="M636 455l-561 -371l-50 58l561 362z" />
    <glyph glyph-name="Euro" unicode="&#x20ac;" 
d="M29 328h43q-1 11 -1 22.5v22.5v19.5t1 19.5h-50l7 83h52q12 68 36 123.5t58.5 94.5t78.5 60.5t94 21.5q41 0 79.5 -14t71 -38t56 -56t34.5 -68l-106 -31q-14 49 -50.5 82t-85.5 33q-61 0 -102.5 -55.5t-57.5 -152.5h227l-7 -83h-228q-1 -8 -1 -17v-18v-25t1 -24h235
l-7 -82h-217q17 -82 57.5 -125t100.5 -43q29 0 55 9.5t46.5 25t34.5 36t18 42.5l109 -15q-7 -38 -31.5 -72.5t-60.5 -61t-81 -42t-94 -15.5q-104 0 -171.5 70t-90.5 191h-60z" />
    <glyph glyph-name="trademark" unicode="&#x2122;" 
d="M24 780h347q23 -60 48.5 -110.5t45.5 -85.5q18 35 42.5 85.5t46.5 110.5h79v-446h-76v300l-60 -137h-61l-64 139v-302h-75v380h-91v-380h-75v380h-107v66z" />
    <glyph glyph-name="oneeighth" unicode="&#x215b;" 
d="M419 177q-27 16 -42 39.5t-15 51.5q0 42 31.5 65.5t85.5 23.5q53 0 85.5 -25t32.5 -64q0 -27 -13.5 -50.5t-39.5 -39.5q77 -37 77 -97q0 -42 -39.5 -69t-102.5 -27q-30 0 -55 7t-43 20t-28.5 30.5t-10.5 37.5q0 29 20 54t57 43zM571 592l52 -38l-537 -365l-48 41zM38 724
q40 8 65.5 22.5t39.5 33.5h64v-355h-67v267q-14 -9 -38 -15t-56 -11zM402 81q0 -43 77 -43q38 0 59.5 11.5t21.5 31.5q0 19 -21.5 37t-59.5 31q-37 -13 -57 -31t-20 -37zM482 203q56 26 56 63q0 18 -16 29.5t-41 11.5q-26 0 -43.5 -12t-17.5 -31q0 -15 16 -31t46 -30z" />
    <glyph glyph-name="threeeighths" unicode="&#x215c;" 
d="M342 80q0 29 20 54t57 43q-27 16 -42 39.5t-15 51.5q0 42 31.5 65.5t85.5 23.5q53 0 85.5 -25t32.5 -64q0 -27 -13.5 -50.5t-39.5 -39.5q77 -37 77 -97q0 -42 -39.5 -69t-102.5 -27q-30 0 -55 7t-43 20t-28.5 30.5t-10.5 37.5zM36 494l44 32q20 -23 40 -32.5t54 -9.5
q35 0 55 9t20 35q0 61 -90 61h-30v52h30q42 0 63 15t21 40q0 27 -22.5 35.5t-52.5 8.5q-21 0 -39.5 -7t-29.5 -25l-38 38q14 23 46 36t67 13q26 0 51 -7t44.5 -19.5t31.5 -31t12 -41.5q0 -25 -13 -46t-38 -34q26 -13 42.5 -36t16.5 -52q0 -23 -12 -41.5t-32.5 -31
t-48.5 -19.5t-60 -7q-48 0 -78.5 16.5t-53.5 48.5zM571 592l52 -38l-537 -365l-48 41zM479 38q38 0 59.5 11.5t21.5 31.5q0 19 -21.5 37t-59.5 31q-37 -13 -57 -31t-20 -37q0 -43 77 -43zM482 203q56 26 56 63q0 18 -16 29.5t-41 11.5q-26 0 -43.5 -12t-17.5 -31
q0 -15 16 -31t46 -30z" />
    <glyph glyph-name="fiveeighths" unicode="&#x215d;" 
d="M342 80q0 29 20 54t57 43q-27 16 -42 39.5t-15 51.5q0 42 31.5 65.5t85.5 23.5q53 0 85.5 -25t32.5 -64q0 -27 -13.5 -50.5t-39.5 -39.5q77 -37 77 -97q0 -42 -39.5 -69t-102.5 -27q-30 0 -55 7t-43 20t-28.5 30.5t-10.5 37.5zM76 507q40 -37 90 -37q37 0 59 17t22 55
q0 80 -70 80q-22 0 -39.5 -9t-26.5 -21h-63l20 188h224v-57h-160l-8 -65q11 8 26.5 13.5t35.5 5.5q26 0 49.5 -10t41 -28t28 -42.5t10.5 -54.5q0 -28 -12 -51.5t-32.5 -41t-47.5 -27t-57 -9.5q-64 0 -131 52zM571 582l52 -38l-537 -365l-48 41zM479 38q38 0 59.5 11.5
t21.5 31.5q0 19 -21.5 37t-59.5 31q-37 -13 -57 -31t-20 -37q0 -43 77 -43zM420 264q0 -15 16 -31t46 -30q56 26 56 63q0 18 -16 29.5t-41 11.5q-26 0 -43.5 -12t-17.5 -31z" />
    <glyph glyph-name="seveneighths" unicode="&#x215e;" 
d="M419 177q-27 16 -42 39.5t-15 51.5q0 42 31.5 65.5t85.5 23.5q53 0 85.5 -25t32.5 -64q0 -27 -13.5 -50.5t-39.5 -39.5q77 -37 77 -97q0 -42 -39.5 -69t-102.5 -27q-30 0 -55 7t-43 20t-28.5 30.5t-10.5 37.5q0 29 20 54t57 43zM39 780h284v-53q-12 -17 -26.5 -34.5
t-28.5 -34.5q-21 -25 -41.5 -50.5t-37 -54t-27 -60.5t-10.5 -68h-74q0 39 11 72.5t28 63.5t38 57.5t43 53.5q13 15 21 24.5t20 25.5h-200v58zM38 240l533 362l52 -38l-537 -366zM479 38q38 0 59.5 11.5t21.5 31.5q0 19 -21.5 37t-59.5 31q-37 -13 -57 -31t-20 -37
q0 -43 77 -43zM482 203q56 26 56 63q0 18 -16 29.5t-41 11.5q-26 0 -43.5 -12t-17.5 -31q0 -15 16 -31t46 -30z" />
    <glyph glyph-name="arrowleft" unicode="&#x2190;" 
d="M303 534l51 -69l-171 -140h427v-82h-424l168 -139l-54 -68l-244 210q-4 2 -7 5q-11 8 -17.5 16t-6.5 18q0 11 9.5 21t21.5 20z" />
    <glyph glyph-name="arrowup" unicode="&#x2191;" 
d="M81 311l208 247q10 12 20 21.5t21 9.5t20 -8.5t17 -19.5l212 -247l-68 -54l-139 168v-428h-82v431l-140 -171z" />
    <glyph glyph-name="arrowright" unicode="&#x2192;" 
d="M358 534l246 -208q12 -10 21.5 -20t9.5 -21q0 -10 -6.5 -18t-17.5 -16q-3 -3 -7 -5l-243 -210l-54 68l167 139h-424v82h427l-170 140z" />
    <glyph glyph-name="arrowdown" unicode="&#x2193;" 
d="M81 263l69 51l140 -171v432h82v-429l139 168l68 -54l-212 -246q-8 -11 -17 -20t-20 -9t-21 10t-20 22z" />
    <glyph glyph-name="arrowboth" unicode="&#x2194;" 
d="M234 496l50 -71l-110 -100h312l-110 100l50 71l193 -175q11 -9 18.5 -17.5t7.5 -18.5t-6.5 -17t-15.5 -15q-3 -3 -9 -7l-185 -170l-54 67l110 100h-310l110 -100l-54 -67l-185 170q-6 4 -9 7q-9 8 -15.5 15t-6.5 17t8 18.5t18 17.5z" />
    <glyph glyph-name="arrowupdn" unicode="&#x2195;" 
d="M294 769q9 11 17.5 18.5t18.5 7.5t17 -6t15 -16q4 -6 7 -9l190 -204l-68 -54l-119 132v-692l119 133l68 -54l-190 -205q-2 -2 -4 -4.5t-3 -4.5q-8 -9 -15 -15.5t-17 -6.5t-18.5 8t-17.5 18l-195 212l71 52l120 -133v692l-120 -132l-71 51z" />
    <glyph glyph-name="uni2196" unicode="&#x2196;" 
d="M139 129l-27 322q0 10 -1 14q0 27 7 35t34 8q4 0 8 -0.5t8 -0.5l321 -24l-11 -86l-216 21l300 -300l-58 -59l-303 302l23 -219z" />
    <glyph glyph-name="uni2197" unicode="&#x2197;" 
d="M522 129l-86 13l23 219l-303 -302l-58 59l300 300l-216 -21l-11 86l321 24q4 0 8 0.5t8 0.5q11 0 20.5 -2t14.5 -7l-1 1q5 -4 6.5 -10t1.5 -13q0 -6 -0.5 -11.5t-1.5 -12.5v-3z" />
    <glyph glyph-name="uni2198" unicode="&#x2198;" 
d="M522 440l26 -321q1 -7 1.5 -14.5t0.5 -12.5q0 -21 -11.5 -26t-30.5 -5q-4 0 -8 0.5t-8 0.5l-321 23l11 87l216 -22l-300 301l58 59l303 -303l-23 219z" />
    <glyph glyph-name="uni2199" unicode="&#x2199;" 
d="M139 440l85 -14l-23 -219l303 303l58 -59l-300 -301l216 22l11 -87l-321 -23q-4 0 -8 -0.5t-8 -0.5q-11 0 -20.5 2t-14.5 7q-6 7 -6 22v12q1 4 1 7.5v6.5z" />
    <glyph glyph-name="partialdiff" unicode="&#x2202;" 
d="M55 260q0 59 18.5 107t53 82t83 52.5t108.5 18.5q50 0 87.5 -19t71.5 -54q-9 59 -48 110t-91.5 92t-109.5 71t-102 45l42 77q15 -5 51.5 -19.5t82 -40t94 -62.5t89 -87t66.5 -115t26 -145v-116v-8q-1 -53 -17 -93t-40 -69.5t-53 -49t-57.5 -31t-53 -16.5t-38.5 -5
q-58 0 -106.5 20t-83 56.5t-54 87t-19.5 111.5zM150 259q0 -37 13 -70t35.5 -57.5t52.5 -38.5t64 -14q28 0 57 10.5t53 33t39 57.5t15 84v75q-36 47 -76.5 71.5t-86.5 24.5q-34 0 -64.5 -13.5t-53 -37.5t-35.5 -56t-13 -69z" />
    <glyph glyph-name="emptyset" unicode="&#x2205;" 
d="M37 15l70 79q-31 38 -48.5 85.5t-17.5 100.5q0 61 23 114.5t62.5 93.5t92 63t112.5 23q44 0 83.5 -12t73.5 -35l69 78l64 -57l-70 -78q32 -38 50.5 -87t18.5 -103q0 -61 -22.5 -114.5t-62 -93.5t-92 -63t-112.5 -23q-46 0 -88 14t-77 39l-69 -77zM223 103
q23 -14 50.5 -22t57.5 -8q44 0 82 16.5t66 44.5t44.5 66.5t16.5 81.5q0 36 -11.5 68.5t-31.5 58.5zM433 465q-23 12 -48.5 19t-53.5 7q-43 0 -81.5 -16.5t-66.5 -44.5t-44.5 -66t-16.5 -82q0 -35 10.5 -66.5t30.5 -57.5z" />
    <glyph glyph-name="product" unicode="&#x220f;" 
d="M63 731h535v-83h-79v-773l-98 7v766h-177v-773l-98 7v766h-83v83z" />
    <glyph glyph-name="summation" unicode="&#x2211;" 
d="M114 88l282 297l-282 306v89h432v-93h-291l239 -267v-66l-239 -262h291v-92h-432v88z" />
    <glyph glyph-name="minus" unicode="&#x2212;" 
d="M529 255h-397v93h397v-93z" />
    <glyph glyph-name="radical" unicode="&#x221a;" 
d="M157 432l87 -295l147 643h203v-96h-129l-159 -684h-119l-133 432h103z" />
    <glyph glyph-name="infinity" unicode="&#x221e;" 
d="M648 298q0 -42 -11 -77t-31.5 -60t-48.5 -39t-63 -14q-49 0 -92 27.5t-72 75.5q-29 -49 -72 -76t-92 -27q-35 0 -63.5 14t-48.5 38.5t-31 59.5t-11 77q0 43 11.5 78.5t32 61t49 40t62.5 14.5q49 0 92 -28.5t71 -78.5q28 50 71 78.5t93 28.5q35 0 63 -14t48.5 -39.5
t31.5 -61t11 -78.5zM169 191q43 0 72 24.5t55 84.5q-26 63 -54 86.5t-70 23.5q-45 0 -63 -24.5t-18 -85.5t17.5 -85t60.5 -24zM491 191q43 0 60.5 24t17.5 86q0 60 -17.5 84.5t-62.5 24.5q-43 0 -70.5 -24t-54.5 -86q26 -60 55.5 -84.5t71.5 -24.5z" />
    <glyph glyph-name="integral" unicode="&#x222b;" 
d="M278 -58q-6 -27 -26.5 -47.5t-46 -34.5t-51 -21.5t-42.5 -7.5v87q13 0 28 4.5t28.5 13t23 20t12.5 26.5l137 643q6 29 26.5 48.5t47.5 31.5t56.5 17t53.5 5v-78q-15 0 -32.5 -4t-33 -12t-27.5 -20t-16 -29z" />
    <glyph glyph-name="approxequal" unicode="&#x2248;" 
d="M262 471q35 0 56.5 -13t37.5 -27q12 -11 25 -19.5t30 -8.5q43 0 95 66l64 -45q-14 -19 -30 -38t-36 -34t-43.5 -24.5t-52.5 -9.5q-37 0 -59.5 14t-42.5 31q-8 8 -20 16t-29 8q-25 0 -54.5 -19.5t-49.5 -48.5l-63 46q29 49 75.5 77.5t96.5 28.5zM261 285q36 0 58 -13.5
t41 -30.5q9 -8 21.5 -16.5t29.5 -8.5q23 0 46 17t49 50l64 -45q-14 -19 -30 -38t-36 -34t-44 -24.5t-53 -9.5q-36 0 -57.5 13t-38.5 27q-12 11 -24.5 19.5t-29.5 8.5q-23 0 -53 -18t-51 -49l-63 46q29 48 74.5 77t96.5 29z" />
    <glyph glyph-name="notequal" unicode="&#x2260;" 
d="M390 369l-53 -115h198l-7 -92h-233l-52 -115l-62 23l42 92h-99l7 92h134l52 115h-193l7 93h228l49 108l63 -23l-39 -85h103l-7 -93h-138z" />
    <glyph glyph-name="lessequal" unicode="&#x2264;" 
d="M524 593l42 -74l-354 -159l354 -158l-45 -72l-423 190v82zM101 112h457v-83h-457v83z" />
    <glyph glyph-name="greaterequal" unicode="&#x2265;" 
d="M559 29h-457v83h457v-83zM562 402v-82l-422 -190l-46 72l354 158l-354 159l43 74z" />
    <glyph glyph-name="upblock" unicode="&#x2580;" 
d="M661 1156v-715h-662v715h662z" />
    <glyph glyph-name="uni2581" unicode="&#x2581;" 
d="M661 -260h-662v188h662v-188z" />
    <glyph glyph-name="uni2582" unicode="&#x2582;" 
d="M661 -260h-662v364h662v-364z" />
    <glyph glyph-name="uni2583" unicode="&#x2583;" 
d="M661 -260h-662v539h662v-539z" />
    <glyph glyph-name="dnblock" unicode="&#x2584;" 
d="M661 -260h-662v715h662v-715z" />
    <glyph glyph-name="uni2585" unicode="&#x2585;" 
d="M661 -260h-662v889h662v-889z" />
    <glyph glyph-name="uni2586" unicode="&#x2586;" 
d="M661 -260h-662v1065h662v-1065z" />
    <glyph glyph-name="uni2587" unicode="&#x2587;" 
d="M661 -260h-662v1240h662v-1240z" />
    <glyph glyph-name="block" unicode="&#x2588;" 
d="M661 1156v-1416h-662v1416h662z" />
    <glyph glyph-name="uni2589" unicode="&#x2589;" 
d="M581 1156v-1416h-582v1416h582z" />
    <glyph glyph-name="uni258A" unicode="&#x258a;" 
d="M499 1156v-1416h-500v1416h500z" />
    <glyph glyph-name="uni258B" unicode="&#x258b;" 
d="M418 1156v-1416h-419v1416h419z" />
    <glyph glyph-name="lfblock" unicode="&#x258c;" 
d="M337 1156v-1416h-338v1416h338z" />
    <glyph glyph-name="uni258D" unicode="&#x258d;" 
d="M256 1156v-1416h-257v1416h257z" />
    <glyph glyph-name="uni258E" unicode="&#x258e;" 
d="M175 1156v-1416h-176v1416h176z" />
    <glyph glyph-name="uni258F" unicode="&#x258f;" 
d="M94 1156v-1416h-95v1416h95z" />
    <glyph glyph-name="rtblock" unicode="&#x2590;" 
d="M661 1156v-1416h-338v1416h338z" />
    <glyph glyph-name="ltshade" unicode="&#x2591;" 
d="M78 1156v-193h-69v193h69zM441 -114v193h69v-193h-69zM510 998v-193h-69v193h69zM219 998v-193h-69v193h69zM150 -114v193h69v-193h-69zM582 236h69v-193h-69v193zM582 963v193h69v-193h-69zM9 43v193h69v-193h-69zM582 -68h69v-192h-69v192zM78 -68v-192h-69v192h69z
M78 540v-192h-69v192h69zM441 502v192h69v-192h-69zM510 382v-192h-69v192h69zM219 382v-192h-69v192h69zM582 852h69v-192h-69v192zM219 694v-192h-69v192h69zM78 852v-192h-69v192h69zM582 540h69v-192h-69v192zM364 1156v-193h-68v193h68zM364 236v-193h-68v193h68z
M364 -68v-192h-68v192h68zM296 660v192h68v-192h-68zM296 348v192h68v-192h-68zM441 1156h69v-70h-69v70zM150 1156h69v-70h-69v70zM441 -191h69v-69h-69v69zM219 -191v-69h-69v69h69z" />
    <glyph glyph-name="shade" unicode="&#x2592;" 
d="M26 892v170h62v-170h-62zM26 630v179h62v-179h-62zM26 98v179h62v-179h-62zM26 -154v170h62v-170h-62zM26 359v181h62v-181h-62zM397 892v170h62v-170h-62zM397 630v179h62v-179h-62zM397 98v179h62v-179h-62zM397 -154v170h62v-170h-62zM397 359v181h62v-181h-62z
M304 756v168h61v-168h-61zM304 494v168h61v-168h-61zM304 -38v168h61v-168h-61zM304 224v169h61v-169h-61zM109 756v168h62v-168h-62zM109 494v168h62v-168h-62zM109 -38v168h62v-168h-62zM109 224v169h62v-169h-62zM207 892v170h60v-170h-60zM207 630v179h60v-179h-60z
M207 98v179h60v-179h-60zM207 -154v170h60v-170h-60zM207 359v181h60v-181h-60zM480 756v168h62v-168h-62zM480 494v168h62v-168h-62zM480 -38v168h62v-168h-62zM480 224v169h62v-169h-62zM574 892v170h61v-170h-61zM574 630v179h61v-179h-61zM574 98v179h61v-179h-61z
M574 -154v170h61v-170h-61zM574 359v181h61v-181h-61zM109 -260v121h62v-121h-62zM304 -260v121h61v-121h-61zM480 -260v121h62v-121h-62zM109 1025v131h62v-131h-62zM304 1025v131h61v-131h-61zM480 1025v131h62v-131h-62z" />
    <glyph glyph-name="dkshade" unicode="&#x2593;" 
d="M12 880v182h53v-182h-53zM12 619v190h53v-190h-53zM12 86v191h53v-191h-53zM12 -178v194h53v-194h-53zM12 348v192h53v-192h-53zM306 880v182h53v-182h-53zM306 619v190h53v-190h-53zM306 86v191h53v-191h-53zM306 -178v194h53v-194h-53zM306 348v192h53v-192h-53z
M232 744v204h53v-204h-53zM232 482v202h53v-202h-53zM232 -50v203h53v-203h-53zM232 212v204h53v-204h-53zM82 744v204h53v-204h-53zM82 482v202h53v-202h-53zM82 -50v203h53v-203h-53zM82 212v204h53v-204h-53zM155 880v182h52v-182h-52zM155 619v190h52v-190h-52zM155 86
v191h52v-191h-52zM155 -178v194h52v-194h-52zM155 348v192h52v-192h-52zM371 744v204h53v-204h-53zM371 482v202h53v-202h-53zM371 -50v203h53v-203h-53zM371 212v204h53v-204h-53zM445 880v182h53v-182h-53zM445 619v190h53v-190h-53zM445 86v191h53v-191h-53zM445 -178
v194h53v-194h-53zM445 348v192h53v-192h-53zM82 -260v144h53v-144h-53zM232 -260v144h53v-144h-53zM371 -260v144h53v-144h-53zM82 1002v154h53v-154h-53zM232 1002v154h53v-154h-53zM371 1002v154h53v-154h-53zM523 744v204h53v-204h-53zM523 482v202h53v-202h-53zM523 -50
v203h53v-203h-53zM523 212v204h53v-204h-53zM596 880v182h53v-182h-53zM596 619v190h53v-190h-53zM596 86v191h53v-191h-53zM596 -178v194h53v-194h-53zM596 348v192h53v-192h-53zM523 -260v144h53v-144h-53zM523 1002v154h53v-154h-53z" />
    <glyph glyph-name="uni2594" unicode="&#x2594;" 
d="M661 771h-662v188h662v-188z" />
    <glyph glyph-name="uni2595" unicode="&#x2595;" 
d="M661 1156v-1416h-95v1416h95z" />
    <glyph glyph-name="uni2596" unicode="&#x2596;" 
d="M337 -260h-338v715h338v-715z" />
    <glyph glyph-name="uni2597" unicode="&#x2597;" 
d="M661 -260h-338v715h338v-715z" />
    <glyph glyph-name="uni2598" unicode="&#x2598;" 
d="M337 441h-338v715h338v-715z" />
    <glyph glyph-name="uni2599" unicode="&#x2599;" 
d="M337 1156v-701h324v-715h-662v1416h338z" />
    <glyph glyph-name="uni259A" unicode="&#x259a;" 
d="M-1 1156h338v-701h324v-715h-338v701h-324v715z" />
    <glyph glyph-name="uni259B" unicode="&#x259b;" 
d="M-1 -260v1416h662v-715h-324v-701h-338z" />
    <glyph glyph-name="uni259C" unicode="&#x259c;" 
d="M-1 1156h662v-1416h-338v701h-324v715z" />
    <glyph glyph-name="uni259D" unicode="&#x259d;" 
d="M323 441v715h338v-715h-338z" />
    <glyph glyph-name="uni259E" unicode="&#x259e;" 
d="M-1 455h324v701h338v-715h-324v-701h-338v715z" />
    <glyph glyph-name="uni259F" unicode="&#x259f;" 
d="M-1 455h324v701h338v-1416h-662v715z" />
    <glyph glyph-name="triagup" unicode="&#x25b2;" 
d="M646 0h-632l316 597z" />
    <glyph glyph-name="uni25B3" unicode="&#x25b3;" 
d="M646 0h-632l316 597zM545 61l-215 408l-215 -408h430z" />
    <glyph glyph-name="uni25C7" unicode="&#x25c7;" 
d="M325 581l300 -299l-300 -300l-299 300zM325 491l-209 -209l209 -209l209 209z" />
    <glyph glyph-name="lozenge" unicode="&#x25ca;" 
d="M367 701l218 -350l-218 -351h-91l-202 351l202 350h91zM323 126l148 225l-148 224l-135 -224z" />
    <glyph glyph-name="circle" unicode="&#x25cb;" 
d="M324 -14q-57 3 -107.5 26.5t-88.5 62t-61 89.5t-26 109q0 62 23.5 116.5t63.5 95.5t94.5 65t115.5 24q57 -3 107.5 -26.5t88.5 -62t61 -89.5t26 -109q0 -61 -23.5 -116t-63.5 -96t-94 -65t-116 -24zM324 491q-41 -3 -76.5 -19.5t-62.5 -44t-43.5 -63.5t-19.5 -77v-7v-7
q3 -41 19.5 -77t43.5 -63.5t62.5 -44t76.5 -19.5h7h7q41 3 76.5 19.5t62.5 44t43.5 63.5t19.5 77v7v7q-3 41 -19.5 77t-43.5 63.5t-62.5 44t-76.5 19.5h-7h-7z" />
    <glyph glyph-name="uni25CE" unicode="&#x25ce;" 
d="M331 574q60 0 112.5 -23t92 -63t62.5 -93.5t23 -114.5t-23 -114.5t-62.5 -93.5t-92 -63t-112.5 -23t-112.5 23t-92 63t-62.5 93.5t-23 114.5t23 114.5t62.5 93.5t92 63t112.5 23zM331 69q44 0 82 16.5t66 45.5t44.5 67.5t16.5 81.5q0 44 -16.5 82t-44.5 67t-66 45.5
t-82 16.5q-43 0 -81.5 -16.5t-66.5 -45.5t-44.5 -67t-16.5 -82q0 -43 16.5 -81.5t44.5 -67.5t66.5 -45.5t81.5 -16.5zM331 456q36 0 67.5 -14t55 -38t37 -56t13.5 -68t-13.5 -68t-37 -56t-55 -38t-67.5 -14t-67.5 14t-55 38t-37 56t-13.5 68t13.5 68t37 56t55 38t67.5 14z
M331 180q99 0 99 100t-99 100t-99 -100t99 -100z" />
    <glyph glyph-name="H18533" unicode="&#x25cf;" 
d="M331 574q60 0 112.5 -23t92 -63t62.5 -93.5t23 -114.5t-23 -114.5t-62.5 -93.5t-92 -63t-112.5 -23t-112.5 23t-92 63t-62.5 93.5t-23 114.5t23 114.5t62.5 93.5t92 63t112.5 23z" />
    <glyph glyph-name="uni25D0" unicode="&#x25d0;" 
d="M338 -14q-60 0 -114 23t-94.5 63t-64.5 93.5t-24 114.5t24 114.5t64.5 93.5t94.5 63t114 23q57 -3 107.5 -26.5t88.5 -62t61 -89.5t26 -109q0 -59 -22 -112.5t-60 -94.5t-89.5 -66t-111.5 -28zM540 280q-1 42 -17.5 79t-43.5 65.5t-63 46t-78 20.5v-422q42 3 78 20.5
t63 46t43.5 65.5t17.5 79z" />
    <glyph glyph-name="uni25D1" unicode="&#x25d1;" 
d="M122 280q1 -42 17 -79t43.5 -65.5t63.5 -46t78 -20.5v422q-42 -3 -78 -20.5t-63 -46t-43 -65.5t-18 -79zM338 -14h-7h-7q-60 3 -111.5 28t-89.5 66t-60 94.5t-22 112.5q3 58 26 109t61 89.5t88.5 62t107.5 26.5h7q59 0 112 -24t92.5 -64.5t62.5 -93.5t23 -112t-22 -111
t-60.5 -92t-90 -64t-110.5 -27z" />
    <glyph glyph-name="uni25D2" unicode="&#x25d2;" 
d="M41 273q0 62 23.5 116.5t63.5 95.5t94.5 65t115.5 24q57 -3 107.5 -26.5t88.5 -62t61 -89.5t26 -109q0 -60 -22 -115t-61 -96t-92 -65.5t-115 -24.5q-58 0 -109.5 22.5t-91 61t-63 91t-26.5 112.5zM540 287q-3 42 -20 78.5t-45 64t-65 44t-79 17.5q-42 -1 -79 -17.5
t-65 -44t-45 -64t-20 -78.5h418z" />
    <glyph glyph-name="uni25D3" unicode="&#x25d3;" 
d="M621 287q0 -61 -23.5 -116t-63.5 -96t-94 -65t-116 -24q-57 3 -107.5 26.5t-88.5 62t-61 89.5t-26 109q0 60 22 115t61 96t92 65.5t115 24.5q58 0 109.5 -22.5t91 -61t63 -91t26.5 -112.5zM122 273q3 -42 20 -78.5t45 -64t65 -43.5t79 -18q42 2 79 18t65 43.5t45 64
t20 78.5h-418z" />
    <glyph glyph-name="uni25D4" unicode="&#x25d4;" 
d="M41 273q0 62 23.5 116.5t63.5 95.5t94.5 65t115.5 24q57 -3 107.5 -26.5t88.5 -62t61 -89.5t26 -109q0 -61 -23.5 -116t-63.5 -96t-94 -65t-116 -24q-57 3 -107.5 26.5t-88.5 62t-61 89.5t-26 109zM122 287v-7v-7q3 -41 19.5 -77t43.5 -63.5t62.5 -44t76.5 -19.5h7h7
q41 3 76.5 19.5t62.5 44t43.5 63.5t19.5 77h-216v218q-41 -3 -76.5 -19.5t-62.5 -44t-43.5 -63.5t-19.5 -77z" />
    <glyph glyph-name="uni25D5" unicode="&#x25d5;" 
d="M331 -14q-60 0 -112.5 23.5t-92 64t-62.5 94t-23 112.5q0 58 22.5 110t61.5 92t90.5 64.5t108.5 27.5q60 0 114 -23t94.5 -63t64.5 -93.5t24 -114.5t-23 -114.5t-62.5 -93.5t-92 -63t-112.5 -23zM324 287v204q-41 -3 -76.5 -19.5t-62.5 -44t-43.5 -63.5t-19.5 -77h202z
" />
    <glyph glyph-name="uni25D6" unicode="&#x25d6;" 
d="M338 -14q-61 0 -115 23t-94.5 63t-64 93.5t-23.5 114.5t23.5 114.5t64 93.5t94.5 63t115 23v-588z" />
    <glyph glyph-name="uni25D7" unicode="&#x25d7;" 
d="M324 574q61 0 115 -23t94.5 -63t64 -93.5t23.5 -114.5t-23.5 -114.5t-64 -93.5t-94.5 -63t-115 -23v588z" />
    <glyph glyph-name="uni25DC" unicode="&#x25dc;" 
d="M338 491q-45 0 -84.5 -17t-68.5 -47t-46 -69.5t-17 -84.5h-81q0 62 23.5 117t64 96t94.5 64.5t115 23.5v-83z" />
    <glyph glyph-name="uni25DD" unicode="&#x25dd;" 
d="M324 574q61 0 115 -23.5t94.5 -64.5t64 -96t23.5 -117h-81q0 45 -17 84.5t-46 69.5t-68.5 47t-84.5 17v83z" />
    <glyph glyph-name="uni25DE" unicode="&#x25de;" 
d="M324 69q45 0 84.5 17t68.5 47t46 69.5t17 84.5h81q0 -62 -23.5 -117t-64 -96t-94.5 -64.5t-115 -23.5v83zM324 69q45 0 84.5 17t68.5 47t46 69.5t17 84.5h81q0 -62 -23.5 -117t-64 -96t-94.5 -64.5t-115 -23.5v83z" />
    <glyph glyph-name="uni25DF" unicode="&#x25df;" 
d="M338 -14q-61 0 -115 23.5t-94.5 64.5t-64 96t-23.5 117h81q0 -45 17 -84.5t46 -69.5t68.5 -47t84.5 -17v-83zM338 -14q-61 0 -115 23.5t-94.5 64.5t-64 96t-23.5 117h81q0 -45 17 -84.5t46 -69.5t68.5 -47t84.5 -17v-83zM338 -14q-61 0 -115 23.5t-94.5 64.5t-64 96
t-23.5 117h81q0 -45 17 -84.5t46 -69.5t68.5 -47t84.5 -17v-83zM338 -14q-61 0 -115 23.5t-94.5 64.5t-64 96t-23.5 117h81q0 -45 17 -84.5t46 -69.5t68.5 -47t84.5 -17v-83z" />
    <glyph glyph-name="uni25E0" unicode="&#x25e0;" 
d="M41 273q0 60 22 113.5t60.5 94t90 65.5t110.5 28q62 0 116 -24t94 -65t63.5 -95.5t23.5 -116.5h-81q0 44 -16 83t-44.5 68.5t-66.5 47.5t-82 19q-44 -1 -82 -19t-66.5 -47.5t-44.5 -68.5t-16 -83h-81z" />
    <glyph glyph-name="uni25E1" unicode="&#x25e1;" 
d="M122 287q0 -44 16 -83t44.5 -68.5t66.5 -47t82 -19.5q44 2 82 19.5t66.5 47t44.5 68.5t16 83h81q0 -60 -22 -113.5t-60.5 -94t-90 -65.5t-110.5 -28q-61 0 -115.5 24t-94.5 65t-63.5 96t-23.5 116h81z" />
    <glyph glyph-name="uniE0A0" unicode="&#xe0a0;" 
d="M80 -260v316q0 69 13.5 115.5t34.5 78t47.5 52t53.5 37.5q1 1 1.5 1t1.5 1q26 17 50 35t42 43t29 60.5t11 86.5v310h-112l181 213l182 -213h-114v-343q0 -64 -13.5 -109t-34.5 -76.5t-48 -53.5t-54 -41q-22 -16 -43.5 -32.5t-38.5 -39t-27 -53t-10 -72.5v-316h-152z
M232 1156v-702l-153 -112v814h153z" />
    <glyph glyph-name="uniE0A1" unicode="&#xe0a1;" 
d="M275 277l171 -330v330h64v-473h-64l-171 343v-343h-64v473h64zM151 780h70v-409h208v-65h-278v474z" />
    <glyph glyph-name="uniE0A2" unicode="&#xe0a2;" 
d="M202 0q-73 0 -73 75v330q0 75 58 79v140q0 32 10 60.5t28.5 50t45 34.5t59.5 13t59.5 -13t45 -34.5t28.5 -50t10 -60.5v-140q58 -4 58 -79v-330q0 -75 -74 -75h-255zM330 706q-17 0 -29.5 -7t-20 -19t-11 -26.5t-3.5 -29.5v-140h128v140q0 15 -3.5 29.5t-11.5 26t-20 19
t-29 7.5zM350 279q32 17 32 49q0 22 -14.5 37.5t-37.5 15.5q-22 0 -37.5 -15.5t-15.5 -37.5q0 -32 32 -49v-152h41v152z" />
    <glyph glyph-name="uniE0B0" unicode="&#xe0b0;" 
d="M543 449l-544 -723v1444z" />
    <glyph glyph-name="uniE0B1" unicode="&#xe0b1;" 
d="M59 1145l538 -699l-538 -701l-55 65l486 636l-486 634z" />
    <glyph glyph-name="uniE0B2" unicode="&#xe0b2;" 
d="M661 1240v-1515l-544 758z" />
    <glyph glyph-name="uniE0B3" unicode="&#xe0b3;" 
d="M656 1147l-486 -667l486 -667l-55 -69l-538 736l538 735z" />
    <glyph glyph-name="_part.dot" 
d="M262 728q0 33 18 50t51 17q68 0 68 -67q0 -69 -68 -69q-69 0 -69 69z" />
    <glyph glyph-name="_part.flatCurveBottom" 
d="M576 14q0 -44 -17 -79t-48.5 -60t-76 -38.5t-99.5 -13.5q-40 0 -78 7t-71 20t-59.5 31t-43.5 39l59 72q33 -38 83 -58.5t113 -20.5q141 0 141 101h97z" />
    <glyph glyph-name="_part.fullStem" 
d="M379 589v-792l-97 7v785h97z" />
    <glyph glyph-name="_part.horizSerif" 
d="M544 82v-10q0 -16 1 -34t8 -38h-443v82h434z" />
    <glyph glyph-name="_part.horizStroke" 
d="M543 289h-426v89h426v-89z" />
    <glyph glyph-name="_part.lowerStemLeft" 
d="M272 574h126q-4 -6 -9.5 -15.5t-9.5 -20t-7 -21t-3 -19.5v-694l-97 -7v777z" />
    <glyph glyph-name="_part.lowerStemRight" 
d="M279 574h106q-7 -21 -8 -39t-1 -33v-698l-97 -7v777z" />
    <glyph glyph-name="_part.narrowShoulder" 
d="M212 519q19 39 42 54.5t55 15.5q36 0 61.5 -15t42 -41t24.5 -60.5t8 -73.5v-399h-93v419q0 30 -15 51.5t-41 21.5q-23 0 -38.5 -18t-33.5 -53l-12 3v95z" />
    <glyph glyph-name="_part.openCurveTop" 
d="M480 317q0 40 -11.5 73.5t-33 58t-51 38t-65.5 13.5t-76.5 -18t-90.5 -65l-58 71q45 49 102.5 75t120.5 26q57 0 105 -20.5t82.5 -56.5t54 -86t19.5 -109h-98z" />
    <glyph glyph-name="_part.openCurveTopSmall" 
d="M414 574q0 31 -9 54.5t-23.5 39t-33.5 23.5t-39 8q-31 0 -62 -19.5t-49 -63.5l-88 38q34 75 88 108t109 33q40 0 76.5 -15t65 -43t45.5 -69t17 -94h-97z" />
    <glyph glyph-name="_part.reverseShoulder" 
d="M528 85q-12 -22 -31 -40.5t-42 -32t-49 -20.5t-52 -7q-48 0 -88 22.5t-68.5 61t-44.5 89.5t-16 108v309h103v-329q0 -34 11 -65.5t30.5 -55.5t47.5 -38t61 -14q42 0 72 31.5t66 90.5v-110z" />
    <glyph glyph-name="_part.rightCurve" 
d="M125 166q37 -86 155 -86q37 0 67.5 16.5t53 45.5t35 70t12.5 89q0 46 -11 83t-32 63.5t-50 40.5t-65 14q-51 0 -94.5 -29t-70.5 -82l-12 3v103q33 48 76 70t105 22q118 0 184.5 -75t66.5 -212q0 -71 -19 -129.5t-53.5 -100t-83 -64t-107.5 -22.5q-50 0 -93 16.5t-76 45.5
v116z" />
    <glyph glyph-name="_part.shortCurve" 
d="M120 241q23 -44 67 -69t93 -25q37 0 67.5 14t52 39t33 58t11.5 70t-11.5 69t-32.5 56t-50 37.5t-64 13.5q-51 0 -95 -28.5t-71 -81.5l-12 3v103q32 46 76.5 67.5t107.5 21.5q58 0 103.5 -18.5t77.5 -52.5t49 -82t17 -107q0 -61 -17.5 -111.5t-49.5 -87t-77 -56.5
t-100 -20q-51 0 -98 17.5t-89 50.5v116z" />
    <glyph glyph-name="_part.shortStemLeft" 
d="M272 567l5 -5v12h121q-4 -6 -9.5 -15.5t-9.5 -20t-7 -21t-3 -19.5v-498h-97v567z" />
    <glyph glyph-name="_part.shortStemRight" 
d="M376 574v-502q0 -16 1 -34t8 -38h-106v574h97z" />
    <glyph glyph-name="_part.shoulder" 
d="M134 501q11 20 30.5 36t43.5 27.5t51.5 18t54.5 6.5q56 0 95.5 -25t65 -66t37.5 -93t12 -106v-227q0 -16 1 -34t8 -38h-112v319q0 36 -10 67.5t-29 55t-46.5 37t-62.5 13.5q-50 0 -79 -26t-48 -62l-12 3v94z" />
    <glyph glyph-name="_part.upperShortStem" 
d="M282 192v595l97 -7v-588h-97z" />
    <glyph glyph-name="_part.upperStem" 
d="M282 787l97 -7v-780h-97v787z" />
    <glyph glyph-name="_part.upperStemLeft" 
d="M282 787l97 -7v-704q0 -18 10 -40.5t19 -35.5h-126v787z" />
    <glyph glyph-name="_part.upperStemRight" 
d="M282 787l97 -7v-708q0 -16 1 -34t8 -38h-106v787z" />
    <glyph glyph-name="eight.dnom" 
d="M268 175q-27 16 -42 39.5t-15 51.5q0 42 31.5 65.5t85.5 23.5q52 0 84.5 -25t32.5 -64q0 -27 -14 -50.5t-39 -39.5q37 -17 56.5 -41.5t19.5 -54.5q0 -42 -39 -68.5t-101 -26.5q-60 0 -98.5 26.5t-38.5 67.5q0 29 20 54t57 42zM251 80q0 -20 19.5 -31t57.5 -11t59 11
t21 31q0 19 -21 36.5t-59 31.5q-37 -13 -57 -31t-20 -37zM269 262q0 -15 16.5 -30.5t45.5 -29.5q55 26 55 62q0 18 -16 29.5t-40 11.5q-26 0 -43.5 -12t-17.5 -31z" />
    <glyph glyph-name="eight.numr" 
d="M268 610q-27 17 -42 40.5t-15 50.5q0 42 31.5 65.5t85.5 23.5q52 0 84.5 -25t32.5 -64q0 -27 -14 -50t-40 -40q77 -35 77 -96q0 -42 -39 -68.5t-101 -26.5q-60 0 -98.5 26.5t-38.5 67.5q0 29 20 54t57 42zM251 515q0 -20 19.5 -31t57.5 -11t59 11t21 31q0 19 -21 36.5
t-59 31.5q-37 -13 -57 -31t-20 -37zM269 697q0 -15 16.5 -30.5t45.5 -29.5q55 26 55 62q0 18 -16 29.5t-40 11.5q-26 0 -43.5 -12t-17.5 -31z" />
    <glyph glyph-name="five.dnom" 
d="M206 163l20 186h222v-56h-159l-8 -65q11 8 26.5 13.5t35.5 5.5q26 0 49.5 -10t41 -27t27.5 -40.5t10 -50.5q0 -30 -12 -54.5t-32.5 -42.5t-47.5 -27.5t-56 -9.5q-64 0 -130 52l40 41q22 -19 43 -27.5t47 -8.5q37 0 58.5 17.5t21.5 59.5q0 37 -17 55t-49 18
q-23 0 -41.5 -8.5t-27.5 -20.5h-62z" />
    <glyph glyph-name="five.numr" 
d="M206 588l20 186h222v-56h-159l-8 -64q11 8 26.5 13t35.5 5q26 0 49.5 -10t41 -28t27.5 -42.5t10 -53.5q0 -28 -12 -51t-32.5 -40t-47.5 -26.5t-56 -9.5q-65 0 -130 51l40 41q22 -19 43 -27.5t47 -8.5q37 0 58.5 17t21.5 54q0 42 -17.5 60.5t-51.5 18.5q-21 0 -39 -8.5
t-27 -20.5h-62z" />
    <glyph glyph-name="four.dnom" 
d="M190 137l138 215h74l-135 -211h62v48h-22v14h99q-6 -17 -7.5 -32.5t-1.5 -29.5h64v-55h-64v-86h-68v86h-139v51z" />
    <glyph glyph-name="four.numr" 
d="M190 559l138 215h74l-135 -210h62v48h-22v13h99q-6 -17 -7.5 -32t-1.5 -29h64v-56h-64v-86h-68v86h-139v51z" />
    <glyph glyph-name="graph" 
d="M205 707l53 86l195 -167l-36 -62z" />
    <glyph glyph-name="idotaccent" 
d="M285 82v406l-114 7v75h208v-488h169v-11q0 -15 1 -33t8 -38h-440v82h168zM330 790q67 0 67 -67q0 -68 -67 -68q-68 0 -68 68q0 67 68 67z" />
    <glyph glyph-name="nine.dnom" 
d="M331 294q-72 0 -72 -61q0 -32 18.5 -48.5t52.5 -16.5q53 0 81 39q0 50 -21.5 68.5t-58.5 18.5zM245 62q12 -11 28 -17t39 -6q47 0 73 25t26 71v4q-20 -14 -38 -20.5t-43 -6.5q-63 0 -101.5 32.5t-38.5 85.5q0 27 10.5 49.5t29.5 39t45.5 25.5t57.5 9q32 0 59 -9
t46.5 -25.5t30.5 -39.5t11 -50v-94q0 -68 -46.5 -109t-123.5 -41q-32 0 -54.5 8t-44.5 26z" />
    <glyph glyph-name="nine.numr" 
d="M331 731q-72 0 -72 -64q0 -29 18.5 -45.5t52.5 -16.5q53 0 81 39q-1 50 -22 68.5t-58 18.5zM245 499q25 -23 64 -23q49 0 75.5 25t26.5 71v4q-20 -14 -38 -20.5t-43 -6.5q-63 0 -101.5 32.5t-38.5 85.5q0 27 10.5 49.5t29.5 39t44.5 25.5t56.5 9q33 0 60 -9t47 -25.5
t31 -39.5t11 -50v-94q0 -34 -12 -61.5t-34.5 -47t-54.5 -30.5t-71 -11q-30 0 -52.5 8t-44.5 26z" />
    <glyph glyph-name="one.dnom" 
d="M306 0v265q-25 -17 -92 -26l-8 58q40 7 64.5 22t38.5 33h65v-352h-68z" />
    <glyph glyph-name="one.numr" 
d="M306 422v266q-14 -10 -37 -16t-55 -11l-8 58q40 8 64.5 22.5t38.5 32.5h65v-352h-68z" />
    <glyph glyph-name="seven.dnom" 
d="M468 352v-53l-54 -68q-34 -43 -56.5 -75t-35.5 -58.5t-18 -49t-5 -48.5h-74q0 39 10.5 72.5t27.5 63t38 56.5t43 53q2 2 3 4q2 2 3 4q3 2 6 7l5 5q4 6 8 10q3 3 7 9q3 3 9 11h-198v57h281z" />
    <glyph glyph-name="seven.numr" 
d="M468 774v-52q-11 -17 -25.5 -34t-28.5 -34q-21 -25 -41.5 -50.5t-36.5 -54t-26.5 -60t-10.5 -67.5h-74q0 39 10.5 72.5t27.5 63.5t38 56.5t43 52.5q13 16 21 25t20 25h-198v57h281z" />
    <glyph glyph-name="six.dnom" 
d="M201 109v96q0 33 12 60t33.5 46.5t50.5 30.5t63 11q29 0 55 -7t47 -16l-35 -44q-13 7 -31 10t-34 3q-45 0 -68.5 -24.5t-23.5 -69.5v-6q14 11 31.5 19t47.5 8q29 0 55.5 -8t46 -23.5t31 -37.5t11.5 -49q0 -25 -9.5 -47t-28 -39t-45 -27t-60.5 -10q-65 0 -107 33.5
t-42 90.5zM270 109q0 -30 22.5 -48.5t57.5 -18.5q37 0 56 18.5t19 47.5t-19.5 47.5t-53.5 18.5q-26 0 -47 -10.5t-35 -26.5v-28z" />
    <glyph glyph-name="six.numr" 
d="M363 791q26 0 52 -7t47 -16l-35 -44q-13 7 -31 10t-34 3q-45 0 -68.5 -24.5t-23.5 -69.5v-6q14 11 31.5 19t49.5 8q29 0 54.5 -8t45 -23.5t31 -37.5t11.5 -49q0 -25 -9.5 -47t-28 -39t-45 -27t-60.5 -10q-65 0 -107 33.5t-42 90.5v96q0 33 12 60t34 46.5t51.5 30.5
t64.5 11zM270 547q2 -30 23.5 -48.5t56.5 -18.5q37 0 56 18.5t19 47.5t-19.5 47.5t-54.5 18.5q-25 0 -46 -10.5t-35 -26.5v-28z" />
    <glyph glyph-name="slashlongcomb.case" 
d="M568 800l-418 -856l-71 45l416 856z" />
    <glyph glyph-name="three.dnom" 
d="M218 300q13 23 45 36t67 13q26 0 50.5 -7t44 -19.5t31.5 -30.5t12 -41q0 -25 -13.5 -46t-36.5 -34q26 -13 42 -35.5t16 -51.5q0 -24 -11.5 -42t-32 -31t-47.5 -19.5t-59 -6.5q-49 0 -79.5 16.5t-53.5 48.5l43 32q21 -23 40.5 -32.5t55.5 -9.5q34 0 53 9.5t19 36.5
q0 58 -89 58h-30v52h30q42 0 62.5 15t20.5 40q0 26 -21 35t-47 9t-44.5 -7.5t-29.5 -25.5z" />
    <glyph glyph-name="three.numr" 
d="M218 741q13 23 45 36t67 13q26 0 50.5 -7t44 -19.5t31.5 -30.5t12 -41q0 -25 -13.5 -46t-36.5 -34q26 -13 42 -35.5t16 -51.5q0 -24 -11.5 -42t-32 -31t-48.5 -19.5t-60 -6.5q-48 0 -78 16.5t-53 48.5l43 32q21 -23 40.5 -32.5t53.5 -9.5q35 0 54.5 9t19.5 35
q0 60 -89 60h-30v52h30q42 0 62.5 14.5t20.5 40.5t-22 34.5t-52 8.5q-21 0 -39 -7t-29 -25z" />
    <glyph glyph-name="two.dnom" 
d="M404 262q0 38 -65 38q-25 0 -47.5 -9.5t-42.5 -35.5l-53 23q20 34 57.5 55.5t82.5 21.5q28 0 53 -7.5t43.5 -20t29 -29t10.5 -35.5q0 -20 -10 -39.5t-27 -39t-39 -38.5t-46 -39q-9 -7 -16.5 -13t-14.5 -11.5t-14 -12t-15 -14.5h191v-56h-288v52q22 20 45 38.5t46 37.5
q23 18 45 35t38.5 33.5t26.5 33t10 32.5z" />
    <glyph glyph-name="two.numr" 
d="M404 697q0 38 -65 38q-25 0 -47.5 -9.5t-42.5 -35.5l-53 23q20 34 57.5 55.5t82.5 21.5q28 0 53 -7.5t43.5 -20t29 -29t10.5 -35.5q0 -20 -10 -39.5t-27 -39t-39 -38.5t-46 -39q-9 -7 -16.5 -13t-14.5 -11.5t-14 -12t-15 -14.5h191v-56h-288v52q22 20 45 38.5t46 37.5
q23 18 45 35t38.5 34t26.5 33t10 32z" />
    <glyph glyph-name="underscore.more" 
d="M664 -125v-82h-664v82h664z" />
    <glyph glyph-name="zero.dnom" 
d="M176 169q0 40 11.5 74t31.5 59t48.5 39t61.5 14q34 0 62.5 -14t49 -39t32 -59t11.5 -74t-11.5 -73.5t-32.5 -58t-49.5 -38.5t-61.5 -14t-61.5 13.5t-48.5 38t-31.5 58.5t-11.5 74zM375 286q-19 19 -46 19q-37 0 -58.5 -36.5t-21.5 -97.5q0 -34 8 -64zM331 39
q37 0 59.5 34.5t22.5 95.5q0 17 -2 32t-5 29l-116 -177q19 -14 41 -14z" />
    <glyph glyph-name="zero.numr" 
d="M176 601q0 41 11.5 75.5t31.5 60t48.5 39.5t61.5 14q34 0 62.5 -14t49 -39.5t32 -60t11.5 -75.5q0 -39 -11.5 -72t-32.5 -57t-49.5 -38t-61.5 -14t-61.5 13.5t-48.5 38t-31.5 57.5t-11.5 72zM375 721q-19 19 -46 19q-37 0 -58.5 -37t-21.5 -102q0 -32 8 -59zM329 474
q38 0 61 34t23 93q0 34 -8 64l-115 -178q18 -13 39 -13z" />
    <glyph glyph-name="AE" unicode="&#xc6;" 
d="M54 0l155 780h373v-97h-240l54 -224h158v-98h-134l64 -264h102v-97h-177v4l-48 212h-171l-38 -216h-98zM342 299l-76 336h-1l-60 -336h137z" />
    <glyph glyph-name="dotlessi" unicode="&#x131;" 
d="M111 82h174v406l-114 7v75h208v-488h164v-11q0 -15 1 -33t7 -38h-440v82z" />
    <glyph glyph-name="Agrave" unicode="&#xc0;" 
d="M259 780h127l220 -780h-97l-62 216h-238l-58 -216h-97zM232 299h191l-97 337h-3zM178 997l53 86l235 -167l-35 -63z" />
    <glyph glyph-name="Aacute" unicode="&#xc1;" 
d="M259 780h127l220 -780h-97l-62 216h-238l-58 -216h-97zM232 299h191l-97 337h-3zM214 853l-35 63l235 167l53 -86z" />
    <glyph glyph-name="Acircumflex" unicode="&#xc2;" 
d="M259 780h127l220 -780h-97l-62 216h-238l-58 -216h-97zM232 299h191l-97 337h-3zM287 1053h74l149 -198h-88l-97 100l-85 -100h-87z" />
    <glyph glyph-name="Atilde" unicode="&#xc3;" 
d="M259 780h127l220 -780h-97l-62 216h-238l-58 -216h-97zM232 299h191l-97 337h-3zM248 1002q39 0 61 -14t39 -29q17 -14 27.5 -20t23.5 -6q23 0 44.5 16.5t39.5 50.5l64 -46q-10 -19 -24 -38t-33 -34t-43 -24.5t-53 -9.5q-36 0 -57.5 13t-35.5 27q-13 12 -26 20.5t-30 8.5
q-21 0 -41.5 -15t-42.5 -54l-63 48q29 55 66.5 80.5t83.5 25.5z" />
    <glyph glyph-name="Adieresis" unicode="&#xc4;" 
d="M259 780h127l220 -780h-97l-62 216h-238l-58 -216h-97zM232 299h191l-97 337h-3zM352 924q0 33 18 50.5t51 17.5q68 0 68 -68q0 -69 -68 -69q-69 0 -69 69zM156 924q0 68 68 68t68 -68q0 -69 -68 -69t-68 69z" />
    <glyph glyph-name="Aring" unicode="&#xc5;" 
d="M259 780h127l220 -780h-97l-62 216h-238l-58 -216h-97zM232 299h191l-97 337h-3zM323 758q-53 0 -87 32t-34 86q0 52 33.5 85t87.5 33t87.5 -33t33.5 -85q0 -53 -34.5 -85.5t-86.5 -32.5zM323 816q24 0 38 17t14 43q0 25 -14 42.5t-38 17.5q-23 0 -37.5 -17t-14.5 -43
t14.5 -43t37.5 -17z" />
    <glyph glyph-name="Ccedilla" unicode="&#xc7;" 
d="M601 176q-7 -38 -33 -72.5t-63.5 -61t-83.5 -42t-94 -15.5q-65 0 -116.5 28t-87 79t-54.5 123t-19 159q0 93 20.5 170.5t57.5 133.5t88.5 87t112.5 31q41 0 81 -14t74 -38t59.5 -56.5t36.5 -68.5l-107 -31q-7 24 -21.5 45t-34 36.5t-42 24.5t-46.5 9q-39 0 -71 -23
t-54.5 -65.5t-34.5 -102.5t-12 -135q0 -144 45 -221.5t127 -77.5q29 0 56 9.5t49.5 25t38 36t19.5 42.5zM327 -251q-49 0 -81 14.5t-61 50.5l52 51q16 -25 35 -34t57 -9q37 0 53 8t16 27q0 37 -46 37q-17 0 -33 -5.5t-24 -13.5h-68l27 139h72l-15 -66q10 4 24.5 6t28.5 2
q51 0 80.5 -27t29.5 -75q0 -52 -37.5 -78.5t-109.5 -26.5z" />
    <glyph glyph-name="Egrave" unicode="&#xc8;" 
d="M107 0v780h441v-97h-344v-224h285v-97h-285v-265h344v-97h-441zM185 997l53 86l235 -167l-35 -63z" />
    <glyph glyph-name="Eacute" unicode="&#xc9;" 
d="M107 0v780h441v-97h-344v-224h285v-97h-285v-265h344v-97h-441zM221 853l-35 63l235 167l53 -86z" />
    <glyph glyph-name="Ecircumflex" unicode="&#xca;" 
d="M107 0v780h441v-97h-344v-224h285v-97h-285v-265h344v-97h-441zM294 1053h74l149 -198h-88l-97 100l-85 -100h-87z" />
    <glyph glyph-name="Edieresis" unicode="&#xcb;" 
d="M107 0v780h441v-97h-344v-224h285v-97h-285v-265h344v-97h-441zM359 924q0 33 18 50.5t51 17.5q68 0 68 -68q0 -69 -68 -69q-69 0 -69 69zM163 924q0 68 68 68t68 -68q0 -69 -68 -69t-68 69z" />
    <glyph glyph-name="Igrave" unicode="&#xcc;" 
d="M111 83h170v614h-144v83h378v-83h-137v-614h167v-11q0 -16 1 -33.5t8 -38.5h-443v83zM185 997l53 86l235 -167l-35 -63z" />
    <glyph glyph-name="Iacute" unicode="&#xcd;" 
d="M111 83h170v614h-144v83h378v-83h-137v-614h167v-11q0 -16 1 -33.5t8 -38.5h-443v83zM221 853l-35 63l235 167l53 -86z" />
    <glyph glyph-name="Icircumflex" unicode="&#xce;" 
d="M111 83h170v614h-144v83h378v-83h-137v-614h167v-11q0 -16 1 -33.5t8 -38.5h-443v83zM294 1053h74l149 -198h-88l-97 100l-85 -100h-87z" />
    <glyph glyph-name="Idieresis" unicode="&#xcf;" 
d="M111 83h170v614h-144v83h378v-83h-137v-614h167v-11q0 -16 1 -33.5t8 -38.5h-443v83zM359 924q0 33 18 50.5t51 17.5q68 0 68 -68q0 -69 -68 -69q-69 0 -69 69zM163 924q0 68 68 68t68 -68q0 -69 -68 -69t-68 69z" />
    <glyph glyph-name="Ntilde" unicode="&#xd1;" 
d="M186 780l291 -564v564h98v-780h-101l-291 587v-587h-97v780h100zM255 1002q39 0 61 -14t39 -29q17 -14 27.5 -20t23.5 -6q23 0 44.5 16.5t39.5 50.5l64 -46q-10 -19 -24 -38t-33 -34t-43 -24.5t-53 -9.5q-36 0 -57.5 13t-35.5 27q-13 12 -26 20.5t-30 8.5
q-21 0 -41.5 -15t-42.5 -54l-63 48q29 55 66.5 80.5t83.5 25.5z" />
    <glyph glyph-name="Ograve" unicode="&#xd2;" 
d="M330 -15q-67 0 -119 26.5t-88 76.5t-54.5 123t-18.5 166q0 204 73 311.5t205 107.5q66 0 118.5 -27.5t88.5 -81t55.5 -132t19.5 -180.5q0 -92 -18.5 -164.5t-54.5 -122.5t-88 -76.5t-119 -26.5zM332 79q85 0 125.5 71.5t40.5 223.5q0 176 -43.5 256.5t-124.5 80.5
q-80 0 -124 -80.5t-44 -254.5q0 -154 42.5 -225.5t127.5 -71.5zM185 997l53 86l235 -167l-35 -63z" />
    <glyph glyph-name="Oacute" unicode="&#xd3;" 
d="M330 -15q-67 0 -119 26.5t-88 76.5t-54.5 123t-18.5 166q0 204 73 311.5t205 107.5q66 0 118.5 -27.5t88.5 -81t55.5 -132t19.5 -180.5q0 -92 -18.5 -164.5t-54.5 -122.5t-88 -76.5t-119 -26.5zM332 79q85 0 125.5 71.5t40.5 223.5q0 176 -43.5 256.5t-124.5 80.5
q-80 0 -124 -80.5t-44 -254.5q0 -154 42.5 -225.5t127.5 -71.5zM221 853l-35 63l235 167l53 -86z" />
    <glyph glyph-name="Ocircumflex" unicode="&#xd4;" 
d="M330 -15q-67 0 -119 26.5t-88 76.5t-54.5 123t-18.5 166q0 204 73 311.5t205 107.5q66 0 118.5 -27.5t88.5 -81t55.5 -132t19.5 -180.5q0 -92 -18.5 -164.5t-54.5 -122.5t-88 -76.5t-119 -26.5zM332 79q85 0 125.5 71.5t40.5 223.5q0 176 -43.5 256.5t-124.5 80.5
q-80 0 -124 -80.5t-44 -254.5q0 -154 42.5 -225.5t127.5 -71.5zM294 1053h74l149 -198h-88l-97 100l-85 -100h-87z" />
    <glyph glyph-name="Otilde" unicode="&#xd5;" 
d="M330 -15q-67 0 -119 26.5t-88 76.5t-54.5 123t-18.5 166q0 204 73 311.5t205 107.5q66 0 118.5 -27.5t88.5 -81t55.5 -132t19.5 -180.5q0 -92 -18.5 -164.5t-54.5 -122.5t-88 -76.5t-119 -26.5zM332 79q85 0 125.5 71.5t40.5 223.5q0 176 -43.5 256.5t-124.5 80.5
q-80 0 -124 -80.5t-44 -254.5q0 -154 42.5 -225.5t127.5 -71.5zM255 1002q39 0 61 -14t39 -29q17 -14 27.5 -20t23.5 -6q23 0 44.5 16.5t39.5 50.5l64 -46q-10 -19 -24 -38t-33 -34t-43 -24.5t-53 -9.5q-36 0 -57.5 13t-35.5 27q-13 12 -26 20.5t-30 8.5q-21 0 -41.5 -15
t-42.5 -54l-63 48q29 55 66.5 80.5t83.5 25.5z" />
    <glyph glyph-name="Odieresis" unicode="&#xd6;" 
d="M330 -15q-67 0 -119 26.5t-88 76.5t-54.5 123t-18.5 166q0 204 73 311.5t205 107.5q66 0 118.5 -27.5t88.5 -81t55.5 -132t19.5 -180.5q0 -92 -18.5 -164.5t-54.5 -122.5t-88 -76.5t-119 -26.5zM332 79q85 0 125.5 71.5t40.5 223.5q0 176 -43.5 256.5t-124.5 80.5
q-80 0 -124 -80.5t-44 -254.5q0 -154 42.5 -225.5t127.5 -71.5zM359 924q0 33 18 50.5t51 17.5q68 0 68 -68q0 -69 -68 -69q-69 0 -69 69zM163 924q0 68 68 68t68 -68q0 -69 -68 -69t-68 69z" />
    <glyph glyph-name="Ugrave" unicode="&#xd9;" 
d="M79 780h97v-563q0 -35 12 -61t33 -43.5t49.5 -26t61.5 -8.5q66 0 109 34t43 105v563h97v-568q0 -51 -15.5 -92.5t-47 -71.5t-78.5 -46.5t-109 -16.5t-109.5 16.5t-79 46.5t-47.5 71.5t-16 92.5v568zM185 997l53 86l235 -167l-35 -63z" />
    <glyph glyph-name="Uacute" unicode="&#xda;" 
d="M79 780h97v-563q0 -35 12 -61t33 -43.5t49.5 -26t61.5 -8.5q66 0 109 34t43 105v563h97v-568q0 -51 -15.5 -92.5t-47 -71.5t-78.5 -46.5t-109 -16.5t-109.5 16.5t-79 46.5t-47.5 71.5t-16 92.5v568zM221 853l-35 63l235 167l53 -86z" />
    <glyph glyph-name="Ucircumflex" unicode="&#xdb;" 
d="M79 780h97v-563q0 -35 12 -61t33 -43.5t49.5 -26t61.5 -8.5q66 0 109 34t43 105v563h97v-568q0 -51 -15.5 -92.5t-47 -71.5t-78.5 -46.5t-109 -16.5t-109.5 16.5t-79 46.5t-47.5 71.5t-16 92.5v568zM294 1053h74l149 -198h-88l-97 100l-85 -100h-87z" />
    <glyph glyph-name="Udieresis" unicode="&#xdc;" 
d="M79 780h97v-563q0 -35 12 -61t33 -43.5t49.5 -26t61.5 -8.5q66 0 109 34t43 105v563h97v-568q0 -51 -15.5 -92.5t-47 -71.5t-78.5 -46.5t-109 -16.5t-109.5 16.5t-79 46.5t-47.5 71.5t-16 92.5v568zM359 924q0 33 18 50.5t51 17.5q68 0 68 -68q0 -69 -68 -69
q-69 0 -69 69zM163 924q0 68 68 68t68 -68q0 -69 -68 -69t-68 69z" />
    <glyph glyph-name="Yacute" unicode="&#xdd;" 
d="M127 780l196 -344l209 344h104l-266 -457v-323h-97v323l-250 457h104zM221 853l-35 63l235 167l53 -86z" />
    <glyph glyph-name="agrave" unicode="&#xe0;" 
d="M414 327q15 0 30 -0.5t29 -0.5q-2 38 -14 69t-33 54t-49.5 35.5t-62.5 12.5q-36 0 -76.5 -18t-90.5 -65l-58 71q45 48 102 74t120 26q57 0 104.5 -20t82 -56t53.5 -85.5t19 -108.5v-308l-5 5v-12h-120q8 11 14.5 24t9.5 25q-26 -29 -70 -45.5t-102 -16.5
q-44 0 -83.5 10.5t-69.5 31t-47.5 51.5t-17.5 71q0 88 84 132t251 44zM178 151q0 -19 9 -34.5t24.5 -25.5t36 -15.5t44.5 -5.5q48 0 98 21.5t83 66.5v82h-55q-124 0 -182 -20.5t-58 -68.5zM185 787l53 86l235 -167l-35 -63z" />
    <glyph glyph-name="aacute" unicode="&#xe1;" 
d="M414 327q15 0 30 -0.5t29 -0.5q-2 38 -14 69t-33 54t-49.5 35.5t-62.5 12.5q-36 0 -76.5 -18t-90.5 -65l-58 71q45 48 102 74t120 26q57 0 104.5 -20t82 -56t53.5 -85.5t19 -108.5v-308l-5 5v-12h-120q8 11 14.5 24t9.5 25q-26 -29 -70 -45.5t-102 -16.5
q-44 0 -83.5 10.5t-69.5 31t-47.5 51.5t-17.5 71q0 88 84 132t251 44zM178 151q0 -19 9 -34.5t24.5 -25.5t36 -15.5t44.5 -5.5q48 0 98 21.5t83 66.5v82h-55q-124 0 -182 -20.5t-58 -68.5zM221 643l-35 63l235 167l53 -86z" />
    <glyph glyph-name="acircumflex" unicode="&#xe2;" 
d="M414 327q15 0 30 -0.5t29 -0.5q-2 38 -14 69t-33 54t-49.5 35.5t-62.5 12.5q-36 0 -76.5 -18t-90.5 -65l-58 71q45 48 102 74t120 26q57 0 104.5 -20t82 -56t53.5 -85.5t19 -108.5v-308l-5 5v-12h-120q8 11 14.5 24t9.5 25q-26 -29 -70 -45.5t-102 -16.5
q-44 0 -83.5 10.5t-69.5 31t-47.5 51.5t-17.5 71q0 88 84 132t251 44zM178 151q0 -19 9 -34.5t24.5 -25.5t36 -15.5t44.5 -5.5q48 0 98 21.5t83 66.5v82h-55q-124 0 -182 -20.5t-58 -68.5zM294 843h74l149 -198h-88l-97 100l-85 -100h-87z" />
    <glyph glyph-name="atilde" unicode="&#xe3;" 
d="M414 327q15 0 30 -0.5t29 -0.5q-2 38 -14 69t-33 54t-49.5 35.5t-62.5 12.5q-36 0 -76.5 -18t-90.5 -65l-58 71q45 48 102 74t120 26q57 0 104.5 -20t82 -56t53.5 -85.5t19 -108.5v-308l-5 5v-12h-120q8 11 14.5 24t9.5 25q-26 -29 -70 -45.5t-102 -16.5
q-44 0 -83.5 10.5t-69.5 31t-47.5 51.5t-17.5 71q0 88 84 132t251 44zM178 151q0 -19 9 -34.5t24.5 -25.5t36 -15.5t44.5 -5.5q48 0 98 21.5t83 66.5v82h-55q-124 0 -182 -20.5t-58 -68.5zM255 792q39 0 61 -14t39 -29q17 -14 27.5 -20t23.5 -6q23 0 44.5 16.5t39.5 50.5
l64 -46q-10 -19 -24 -38t-33 -34t-43 -24.5t-53 -9.5q-36 0 -57.5 13t-35.5 27q-13 12 -26 20.5t-30 8.5q-21 0 -41.5 -15t-42.5 -54l-63 48q29 55 66.5 80.5t83.5 25.5z" />
    <glyph glyph-name="adieresis" unicode="&#xe4;" 
d="M414 327q15 0 30 -0.5t29 -0.5q-2 38 -14 69t-33 54t-49.5 35.5t-62.5 12.5q-36 0 -76.5 -18t-90.5 -65l-58 71q45 48 102 74t120 26q57 0 104.5 -20t82 -56t53.5 -85.5t19 -108.5v-308l-5 5v-12h-120q8 11 14.5 24t9.5 25q-26 -29 -70 -45.5t-102 -16.5
q-44 0 -83.5 10.5t-69.5 31t-47.5 51.5t-17.5 71q0 88 84 132t251 44zM178 151q0 -19 9 -34.5t24.5 -25.5t36 -15.5t44.5 -5.5q48 0 98 21.5t83 66.5v82h-55q-124 0 -182 -20.5t-58 -68.5zM359 714q0 33 18 50.5t51 17.5q68 0 68 -68q0 -69 -68 -69q-69 0 -69 69zM163 714
q0 68 68 68t68 -68q0 -69 -68 -69t-68 69z" />
    <glyph glyph-name="aring" unicode="&#xe5;" 
d="M414 327q15 0 30 -0.5t29 -0.5q-2 38 -14 69t-33 54t-49.5 35.5t-62.5 12.5q-36 0 -76.5 -18t-90.5 -65l-58 71q45 48 102 74t120 26q57 0 104.5 -20t82 -56t53.5 -85.5t19 -108.5v-308l-5 5v-12h-120q8 11 14.5 24t9.5 25q-26 -29 -70 -45.5t-102 -16.5
q-44 0 -83.5 10.5t-69.5 31t-47.5 51.5t-17.5 71q0 88 84 132t251 44zM178 151q0 -19 9 -34.5t24.5 -25.5t36 -15.5t44.5 -5.5q48 0 98 21.5t83 66.5v82h-55q-124 0 -182 -20.5t-58 -68.5zM330 548q-53 0 -87 32t-34 86q0 52 33.5 85t87.5 33t87.5 -33t33.5 -85
q0 -53 -34.5 -85.5t-86.5 -32.5zM330 606q24 0 38 17t14 43q0 25 -14 42.5t-38 17.5q-23 0 -37.5 -17t-14.5 -43t14.5 -43t37.5 -17z" />
    <glyph glyph-name="ccedilla" unicode="&#xe7;" 
d="M582 174q-18 -87 -86 -137t-171 -50q-121 0 -187.5 73.5t-66.5 212.5q0 66 16 123t47.5 99t78.5 66t110 24q44 0 83.5 -12t72.5 -33.5t57 -51.5t36 -67l-106 -31q-14 50 -53 77t-88 27q-75 0 -111 -60.5t-36 -166.5q0 -94 38.5 -142t114.5 -48q57 0 93.5 28t46.5 84z
M327 -251q-49 0 -81 14.5t-61 50.5l52 51q16 -25 35 -34t57 -9q37 0 53 8t16 27q0 37 -46 37q-17 0 -33 -5.5t-24 -13.5h-68l27 139h72l-15 -66q10 4 24.5 6t28.5 2q51 0 80.5 -27t29.5 -75q0 -52 -37.5 -78.5t-109.5 -26.5z" />
    <glyph glyph-name="egrave" unicode="&#xe8;" 
d="M79 239v56q0 139 66.5 214.5t194.5 75.5q72 0 117.5 -24t71 -64.5t35 -94t9.5 -112.5v-25.5t-1 -25.5h-395q0 -33 11.5 -63t32.5 -52.5t50 -36t65 -13.5t76.5 18t89.5 65l58 -71q-45 -48 -102 -74t-120 -26q-57 0 -104.5 20.5t-82 55.5t-53.5 80.5t-19 96.5zM471 327v12
q0 77 -36 118.5t-108 41.5q-77 0 -111 -46t-38 -126h293zM185 787l53 86l235 -167l-35 -63z" />
    <glyph glyph-name="eacute" unicode="&#xe9;" 
d="M79 239v56q0 139 66.5 214.5t194.5 75.5q72 0 117.5 -24t71 -64.5t35 -94t9.5 -112.5v-25.5t-1 -25.5h-395q0 -33 11.5 -63t32.5 -52.5t50 -36t65 -13.5t76.5 18t89.5 65l58 -71q-45 -48 -102 -74t-120 -26q-57 0 -104.5 20.5t-82 55.5t-53.5 80.5t-19 96.5zM471 327v12
q0 77 -36 118.5t-108 41.5q-77 0 -111 -46t-38 -126h293zM221 643l-35 63l235 167l53 -86z" />
    <glyph glyph-name="ecircumflex" unicode="&#xea;" 
d="M79 239v56q0 139 66.5 214.5t194.5 75.5q72 0 117.5 -24t71 -64.5t35 -94t9.5 -112.5v-25.5t-1 -25.5h-395q0 -33 11.5 -63t32.5 -52.5t50 -36t65 -13.5t76.5 18t89.5 65l58 -71q-45 -48 -102 -74t-120 -26q-57 0 -104.5 20.5t-82 55.5t-53.5 80.5t-19 96.5zM471 327v12
q0 77 -36 118.5t-108 41.5q-77 0 -111 -46t-38 -126h293zM294 843h74l149 -198h-88l-97 100l-85 -100h-87z" />
    <glyph glyph-name="edieresis" unicode="&#xeb;" 
d="M79 239v56q0 139 66.5 214.5t194.5 75.5q72 0 117.5 -24t71 -64.5t35 -94t9.5 -112.5v-25.5t-1 -25.5h-395q0 -33 11.5 -63t32.5 -52.5t50 -36t65 -13.5t76.5 18t89.5 65l58 -71q-45 -48 -102 -74t-120 -26q-57 0 -104.5 20.5t-82 55.5t-53.5 80.5t-19 96.5zM471 327v12
q0 77 -36 118.5t-108 41.5q-77 0 -111 -46t-38 -126h293zM359 714q0 33 18 50.5t51 17.5q68 0 68 -68q0 -69 -68 -69q-69 0 -69 69zM163 714q0 68 68 68t68 -68q0 -69 -68 -69t-68 69z" />
    <glyph glyph-name="igrave" unicode="&#xec;" 
d="M111 82h174v406l-114 7v75h208v-488h164v-11q0 -15 1 -33t7 -38h-440v82zM186 791l53 86l235 -167l-35 -63z" />
    <glyph glyph-name="iacute" unicode="&#xed;" 
d="M111 82h174v406l-114 7v75h208v-488h164v-11q0 -15 1 -33t7 -38h-440v82zM221 647l-35 63l235 167l53 -86z" />
    <glyph glyph-name="icircumflex" unicode="&#xee;" 
d="M111 82h174v406l-114 7v75h208v-488h164v-11q0 -15 1 -33t7 -38h-440v82zM285 826h74l149 -198h-88l-97 100l-85 -100h-87z" />
    <glyph glyph-name="idieresis" unicode="&#xef;" 
d="M111 82h174v406l-114 7v75h208v-488h164v-11q0 -15 1 -33t7 -38h-440v82zM360 728q0 33 18 50.5t51 17.5q68 0 68 -68q0 -69 -68 -69q-69 0 -69 69zM164 728q0 68 68 68t68 -68q0 -69 -68 -69t-68 69z" />
    <glyph glyph-name="ntilde" unicode="&#xf1;" 
d="M101 0v570h125q-5 -8 -11 -19t-11 -24q28 26 70.5 42t86.5 16q55 0 94 -25t64 -65.5t37 -92.5t12 -105v-226q0 -15 1 -33t8 -38h-112v317q0 36 -10 67t-28.5 54.5t-45.5 37t-61 13.5q-47 0 -75.5 -23t-47.5 -56v-410h-96zM255 792q39 0 61 -14t39 -29q17 -14 27.5 -20
t23.5 -6q23 0 44.5 16.5t39.5 50.5l64 -46q-10 -19 -24 -38t-33 -34t-43 -24.5t-53 -9.5q-36 0 -57.5 13t-35.5 27q-13 12 -26 20.5t-30 8.5q-21 0 -41.5 -15t-42.5 -54l-63 48q29 55 66.5 80.5t83.5 25.5z" />
    <glyph glyph-name="ograve" unicode="&#xf2;" 
d="M329 -14q-60 0 -108 20.5t-82.5 59t-53 93.5t-18.5 124q0 68 18 123.5t52 95.5t82 61.5t108 21.5q61 0 110 -22t83.5 -61.5t53.5 -95.5t19 -124t-19 -123t-53.5 -93.5t-83 -59t-108.5 -20.5zM332 70q72 0 112.5 54.5t40.5 157.5t-41 162t-114 59q-74 0 -114.5 -58.5
t-40.5 -160.5q0 -103 41.5 -158.5t115.5 -55.5zM182 802l53 86l235 -167l-35 -63z" />
    <glyph glyph-name="oacute" unicode="&#xf3;" 
d="M329 -14q-60 0 -108 20.5t-82.5 59t-53 93.5t-18.5 124q0 68 18 123.5t52 95.5t82 61.5t108 21.5q61 0 110 -22t83.5 -61.5t53.5 -95.5t19 -124t-19 -123t-53.5 -93.5t-83 -59t-108.5 -20.5zM332 70q72 0 112.5 54.5t40.5 157.5t-41 162t-114 59q-74 0 -114.5 -58.5
t-40.5 -160.5q0 -103 41.5 -158.5t115.5 -55.5zM218 658l-35 63l235 167l53 -86z" />
    <glyph glyph-name="ocircumflex" unicode="&#xf4;" 
d="M329 -14q-60 0 -108 20.5t-82.5 59t-53 93.5t-18.5 124q0 68 18 123.5t52 95.5t82 61.5t108 21.5q61 0 110 -22t83.5 -61.5t53.5 -95.5t19 -124t-19 -123t-53.5 -93.5t-83 -59t-108.5 -20.5zM332 70q72 0 112.5 54.5t40.5 157.5t-41 162t-114 59q-74 0 -114.5 -58.5
t-40.5 -160.5q0 -103 41.5 -158.5t115.5 -55.5zM291 858h74l149 -198h-88l-97 100l-85 -100h-87z" />
    <glyph glyph-name="otilde" unicode="&#xf5;" 
d="M329 -14q-60 0 -108 20.5t-82.5 59t-53 93.5t-18.5 124q0 68 18 123.5t52 95.5t82 61.5t108 21.5q61 0 110 -22t83.5 -61.5t53.5 -95.5t19 -124t-19 -123t-53.5 -93.5t-83 -59t-108.5 -20.5zM332 70q72 0 112.5 54.5t40.5 157.5t-41 162t-114 59q-74 0 -114.5 -58.5
t-40.5 -160.5q0 -103 41.5 -158.5t115.5 -55.5zM252 807q39 0 61 -14t39 -29q17 -14 27.5 -20t23.5 -6q23 0 44.5 16.5t39.5 50.5l64 -46q-10 -19 -24 -38t-33 -34t-43 -24.5t-53 -9.5q-36 0 -57.5 13t-35.5 27q-13 12 -26 20.5t-30 8.5q-21 0 -41.5 -15t-42.5 -54l-63 48
q29 55 66.5 80.5t83.5 25.5z" />
    <glyph glyph-name="odieresis" unicode="&#xf6;" 
d="M329 -14q-60 0 -108 20.5t-82.5 59t-53 93.5t-18.5 124q0 68 18 123.5t52 95.5t82 61.5t108 21.5q61 0 110 -22t83.5 -61.5t53.5 -95.5t19 -124t-19 -123t-53.5 -93.5t-83 -59t-108.5 -20.5zM332 70q72 0 112.5 54.5t40.5 157.5t-41 162t-114 59q-74 0 -114.5 -58.5
t-40.5 -160.5q0 -103 41.5 -158.5t115.5 -55.5zM356 729q0 33 18 50.5t51 17.5q68 0 68 -68q0 -69 -68 -69q-69 0 -69 69zM160 729q0 68 68 68t68 -68q0 -69 -68 -69t-68 69z" />
    <glyph glyph-name="ugrave" unicode="&#xf9;" 
d="M85 571h102v-327q0 -34 11 -65t30 -55t45.5 -38t57.5 -14q41 0 68.5 24.5t57.5 72.5v401h96v-499q0 -15 1 -33t8 -38h-105v61q-27 -35 -70 -55t-88 -20q-47 0 -86 22t-67.5 60.5t-44.5 89t-16 107.5v306zM185 816l53 86l235 -167l-35 -63z" />
    <glyph glyph-name="uacute" unicode="&#xfa;" 
d="M85 571h102v-327q0 -34 11 -65t30 -55t45.5 -38t57.5 -14q41 0 68.5 24.5t57.5 72.5v401h96v-499q0 -15 1 -33t8 -38h-105v61q-27 -35 -70 -55t-88 -20q-47 0 -86 22t-67.5 60.5t-44.5 89t-16 107.5v306zM221 672l-35 63l235 167l53 -86z" />
    <glyph glyph-name="ucircumflex" unicode="&#xfb;" 
d="M85 571h102v-327q0 -34 11 -65t30 -55t45.5 -38t57.5 -14q41 0 68.5 24.5t57.5 72.5v401h96v-499q0 -15 1 -33t8 -38h-105v61q-27 -35 -70 -55t-88 -20q-47 0 -86 22t-67.5 60.5t-44.5 89t-16 107.5v306zM294 872h74l149 -198h-88l-97 100l-85 -100h-87z" />
    <glyph glyph-name="udieresis" unicode="&#xfc;" 
d="M85 571h102v-327q0 -34 11 -65t30 -55t45.5 -38t57.5 -14q41 0 68.5 24.5t57.5 72.5v401h96v-499q0 -15 1 -33t8 -38h-105v61q-27 -35 -70 -55t-88 -20q-47 0 -86 22t-67.5 60.5t-44.5 89t-16 107.5v306zM359 743q0 33 18 50.5t51 17.5q68 0 68 -68q0 -69 -68 -69
q-69 0 -69 69zM163 743q0 68 68 68t68 -68q0 -69 -68 -69t-68 69z" />
    <glyph glyph-name="yacute" unicode="&#xfd;" 
d="M179 570q6 -38 20.5 -88t35 -105.5t44.5 -114t49 -113.5q23 62 45 124t40.5 117.5t32 102t19.5 77.5h108q-10 -41 -30 -102t-46 -132t-55.5 -148.5t-59.5 -151.5q1 -2 2 -3.5t2 -3.5h-7q-11 -27 -21 -53t-21 -51q-29 -68 -69.5 -100.5t-101.5 -32.5q-9 0 -21.5 1t-29.5 4
l18 79q11 -3 16.5 -3.5t10.5 -0.5q32 0 54 22.5t38 60.5l16 40t16 41q-31 57 -63.5 129.5t-60.5 146t-48.5 141.5t-28.5 117h96zM221 643l-35 63l235 167l53 -86z" />
    <glyph glyph-name="ydieresis" unicode="&#xff;" 
d="M179 570q6 -38 20.5 -88t35 -105.5t44.5 -114t49 -113.5q23 62 45 124t40.5 117.5t32 102t19.5 77.5h108q-10 -41 -30 -102t-46 -132t-55.5 -148.5t-59.5 -151.5q1 -2 2 -3.5t2 -3.5h-7q-11 -27 -21 -53t-21 -51q-29 -68 -69.5 -100.5t-101.5 -32.5q-9 0 -21.5 1t-29.5 4
l18 79q11 -3 16.5 -3.5t10.5 -0.5q32 0 54 22.5t38 60.5l16 40t16 41q-31 57 -63.5 129.5t-60.5 146t-48.5 141.5t-28.5 117h96zM359 714q0 33 18 50.5t51 17.5q68 0 68 -68q0 -69 -68 -69q-69 0 -69 69zM163 714q0 68 68 68t68 -68q0 -69 -68 -69t-68 69z" />
    <glyph glyph-name="thorn" unicode="&#xfe;" 
d="M76 -195v969h97v-259q60 70 164 70q118 0 183.5 -74t65.5 -211q0 -71 -19 -129t-53 -99t-82 -63.5t-107 -22.5q-43 0 -81.5 13t-70.5 36v-237zM323 79q37 0 67.5 16.5t52.5 45.5t34.5 69.5t12.5 88.5q0 45 -11 82t-31.5 63t-49.5 40t-65 14q-49 0 -91 -27t-69 -76v-239
q20 -39 56.5 -58t93.5 -19z" />
    <glyph glyph-name="Oslash" unicode="&#xd8;" 
d="M197 19l-17 -34l-72 45l23 47q-81 102 -81 300q0 204 73 311t205 107q76 0 133 -36l17 34l73 -44l-25 -51q41 -54 62.5 -134.5t21.5 -188.5q0 -92 -18.5 -164.5t-54.5 -122.5t-88 -76.5t-119 -26.5q-76 0 -133 34zM421 676q-36 35 -91 35q-80 0 -124 -80.5t-44 -254.5
q0 -114 24 -185zM332 79q85 0 125.5 71.5t40.5 223.5q0 68 -6.5 120.5t-19.5 92.5l-232 -478q38 -30 92 -30z" />
    <glyph glyph-name="oslash" unicode="&#xf8;" 
d="M237 -1l-79 -162l-71 45l77 158q-46 38 -71.5 100t-25.5 143q0 68 18 123.5t52 95.5t82 61.5t108 21.5q49 0 95 -16l79 163l72 -44l-79 -161q48 -40 73.5 -102.5t25.5 -142.5q0 -69 -19 -124t-53.5 -93.5t-83 -59t-108.5 -20.5q-48 0 -92 14zM384 493q-12 5 -25.5 7.5
t-28.5 2.5q-74 0 -114.5 -59t-40.5 -160q0 -94 35 -149zM276 80q24 -10 56 -10q72 0 112.5 54.5t40.5 157.5q0 95 -35 153z" />
    <glyph glyph-name="Amacron" unicode="&#x100;" 
d="M259 780h127l220 -780h-97l-62 216h-238l-58 -216h-97zM232 299h191l-97 337h-3zM472 854h-299v73h299v-73z" />
    <glyph glyph-name="amacron" unicode="&#x101;" 
d="M414 327q15 0 30 -0.5t29 -0.5q-2 38 -14 69t-33 54t-49.5 35.5t-62.5 12.5q-36 0 -76.5 -18t-90.5 -65l-58 71q45 48 102 74t120 26q57 0 104.5 -20t82 -56t53.5 -85.5t19 -108.5v-308l-5 5v-12h-120q8 11 14.5 24t9.5 25q-26 -29 -70 -45.5t-102 -16.5
q-44 0 -83.5 10.5t-69.5 31t-47.5 51.5t-17.5 71q0 88 84 132t251 44zM178 151q0 -19 9 -34.5t24.5 -25.5t36 -15.5t44.5 -5.5q48 0 98 21.5t83 66.5v82h-55q-124 0 -182 -20.5t-58 -68.5zM479 644h-299v73h299v-73z" />
    <glyph glyph-name="Abreve" unicode="&#x102;" 
d="M259 780h127l220 -780h-97l-62 216h-238l-58 -216h-97zM232 299h191l-97 337h-3zM236 1022q0 -42 24 -67.5t66 -25.5q40 0 62 24t22 69h85q0 -35 -13 -65.5t-36 -53t-53.5 -35.5t-66.5 -13t-68 13t-56 36t-37.5 53.5t-13.5 64.5h85z" />
    <glyph glyph-name="abreve" unicode="&#x103;" 
d="M414 327q15 0 30 -0.5t29 -0.5q-2 38 -14 69t-33 54t-49.5 35.5t-62.5 12.5q-36 0 -76.5 -18t-90.5 -65l-58 71q45 48 102 74t120 26q57 0 104.5 -20t82 -56t53.5 -85.5t19 -108.5v-308l-5 5v-12h-120q8 11 14.5 24t9.5 25q-26 -29 -70 -45.5t-102 -16.5
q-44 0 -83.5 10.5t-69.5 31t-47.5 51.5t-17.5 71q0 88 84 132t251 44zM178 151q0 -19 9 -34.5t24.5 -25.5t36 -15.5t44.5 -5.5q48 0 98 21.5t83 66.5v82h-55q-124 0 -182 -20.5t-58 -68.5zM243 812q0 -42 24 -67.5t66 -25.5q40 0 62 24t22 69h85q0 -35 -13 -65.5t-36 -53
t-53.5 -35.5t-66.5 -13t-68 13t-56 36t-37.5 53.5t-13.5 64.5h85z" />
    <glyph glyph-name="Cacute" unicode="&#x106;" 
d="M601 176q-7 -38 -33 -72.5t-63.5 -61t-83.5 -42t-94 -15.5q-65 0 -116.5 28t-87 79t-54.5 123t-19 159q0 93 20.5 170.5t57.5 133.5t88.5 87t112.5 31q41 0 81 -14t74 -38t59.5 -56.5t36.5 -68.5l-107 -31q-7 24 -21.5 45t-34 36.5t-42 24.5t-46.5 9q-39 0 -71 -23
t-54.5 -65.5t-34.5 -102.5t-12 -135q0 -144 45 -221.5t127 -77.5q29 0 56 9.5t49.5 25t38 36t19.5 42.5zM221 853l-35 63l235 167l53 -86z" />
    <glyph glyph-name="cacute" unicode="&#x107;" 
d="M582 174q-18 -87 -86 -137t-171 -50q-121 0 -187.5 73.5t-66.5 212.5q0 66 16 123t47.5 99t78.5 66t110 24q44 0 83.5 -12t72.5 -33.5t57 -51.5t36 -67l-106 -31q-14 50 -53 77t-88 27q-75 0 -111 -60.5t-36 -166.5q0 -94 38.5 -142t114.5 -48q57 0 93.5 28t46.5 84z
M221 643l-35 63l235 167l53 -86z" />
    <glyph glyph-name="Ccircumflex" unicode="&#x108;" 
d="M601 176q-7 -38 -33 -72.5t-63.5 -61t-83.5 -42t-94 -15.5q-65 0 -116.5 28t-87 79t-54.5 123t-19 159q0 93 20.5 170.5t57.5 133.5t88.5 87t112.5 31q41 0 81 -14t74 -38t59.5 -56.5t36.5 -68.5l-107 -31q-7 24 -21.5 45t-34 36.5t-42 24.5t-46.5 9q-39 0 -71 -23
t-54.5 -65.5t-34.5 -102.5t-12 -135q0 -144 45 -221.5t127 -77.5q29 0 56 9.5t49.5 25t38 36t19.5 42.5zM294 1053h74l149 -198h-88l-97 100l-85 -100h-87z" />
    <glyph glyph-name="ccircumflex" unicode="&#x109;" 
d="M582 174q-18 -87 -86 -137t-171 -50q-121 0 -187.5 73.5t-66.5 212.5q0 66 16 123t47.5 99t78.5 66t110 24q44 0 83.5 -12t72.5 -33.5t57 -51.5t36 -67l-106 -31q-14 50 -53 77t-88 27q-75 0 -111 -60.5t-36 -166.5q0 -94 38.5 -142t114.5 -48q57 0 93.5 28t46.5 84z
M294 843h74l149 -198h-88l-97 100l-85 -100h-87z" />
    <glyph glyph-name="cdotaccent" unicode="&#x10b;" 
d="M582 174q-18 -87 -86 -137t-171 -50q-121 0 -187.5 73.5t-66.5 212.5q0 66 16 123t47.5 99t78.5 66t110 24q44 0 83.5 -12t72.5 -33.5t57 -51.5t36 -67l-106 -31q-14 50 -53 77t-88 27q-75 0 -111 -60.5t-36 -166.5q0 -94 38.5 -142t114.5 -48q57 0 93.5 28t46.5 84z
M261 714q0 33 18 50.5t51 17.5q68 0 68 -68q0 -69 -68 -69q-69 0 -69 69z" />
    <glyph glyph-name="Cdotaccent" unicode="&#x10a;" 
d="M601 176q-7 -38 -33 -72.5t-63.5 -61t-83.5 -42t-94 -15.5q-65 0 -116.5 28t-87 79t-54.5 123t-19 159q0 93 20.5 170.5t57.5 133.5t88.5 87t112.5 31q41 0 81 -14t74 -38t59.5 -56.5t36.5 -68.5l-107 -31q-7 24 -21.5 45t-34 36.5t-42 24.5t-46.5 9q-39 0 -71 -23
t-54.5 -65.5t-34.5 -102.5t-12 -135q0 -144 45 -221.5t127 -77.5q29 0 56 9.5t49.5 25t38 36t19.5 42.5zM261 924q0 33 18 50.5t51 17.5q68 0 68 -68q0 -69 -68 -69q-69 0 -69 69z" />
    <glyph glyph-name="Ccaron" unicode="&#x10c;" 
d="M601 176q-7 -38 -33 -72.5t-63.5 -61t-83.5 -42t-94 -15.5q-65 0 -116.5 28t-87 79t-54.5 123t-19 159q0 93 20.5 170.5t57.5 133.5t88.5 87t112.5 31q41 0 81 -14t74 -38t59.5 -56.5t36.5 -68.5l-107 -31q-7 24 -21.5 45t-34 36.5t-42 24.5t-46.5 9q-39 0 -71 -23
t-54.5 -65.5t-34.5 -102.5t-12 -135q0 -144 45 -221.5t127 -77.5q29 0 56 9.5t49.5 25t38 36t19.5 42.5zM151 1050h87l85 -100l97 100h88l-148 -199h-75z" />
    <glyph glyph-name="ccaron" unicode="&#x10d;" 
d="M582 174q-18 -87 -86 -137t-171 -50q-121 0 -187.5 73.5t-66.5 212.5q0 66 16 123t47.5 99t78.5 66t110 24q44 0 83.5 -12t72.5 -33.5t57 -51.5t36 -67l-106 -31q-14 50 -53 77t-88 27q-75 0 -111 -60.5t-36 -166.5q0 -94 38.5 -142t114.5 -48q57 0 93.5 28t46.5 84z
M151 840h87l85 -100l97 100h88l-148 -199h-75z" />
    <glyph glyph-name="Dcaron" unicode="&#x10e;" 
d="M340 97q75 0 113.5 75t38.5 221q0 148 -42 217t-130 69h-140v-582h160zM587 396q0 -396 -247 -396h-257v780h188q86 0 146 -21.5t97.5 -67.5t55 -119t17.5 -176zM151 1050h87l85 -100l97 100h88l-148 -199h-75z" />
    <glyph glyph-name="Dcroat" unicode="&#x110;" 
d="M270 780q85 0 145 -21.5t97.5 -67.5t55 -119t17.5 -176q0 -396 -245 -396h-255v780h185zM502 400q-1 151 -45.5 221t-136.5 70h-150v-291h332zM170 320v-235h170q69 0 109.5 59.5t49.5 175.5h-329z" />
    <glyph glyph-name="Eth" unicode="&#xd0;" 
d="M270 780q85 0 145 -21.5t97.5 -67.5t55 -119t17.5 -176q0 -396 -245 -396h-255v780h185zM502 400q-1 151 -45.5 221t-136.5 70h-150v-291h332zM170 320v-235h170q69 0 109.5 59.5t49.5 175.5h-329z" />
    <glyph glyph-name="dcroat" unicode="&#x111;" 
d="M67 301q0 136 65.5 210t183.5 74q104 0 164 -70v266l97 -6v-704q0 -15 1 -33t7 -38h-105v35q-65 -48 -152 -48q-58 0 -106.5 22.5t-82.5 63.5t-53 99t-19 129zM330 79q112 0 150 77v239q-27 50 -69 77t-91 27q-36 0 -65 -14t-49.5 -40t-31.5 -63t-11 -82q0 -48 12.5 -89
t34.5 -70t52.5 -45.5t67.5 -16.5zM479 644h-299v73h299v-73z" />
    <glyph glyph-name="Emacron" unicode="&#x112;" 
d="M107 0v780h441v-97h-344v-224h285v-97h-285v-265h344v-97h-441zM479 854h-299v73h299v-73z" />
    <glyph glyph-name="emacron" unicode="&#x113;" 
d="M79 239v56q0 139 66.5 214.5t194.5 75.5q72 0 117.5 -24t71 -64.5t35 -94t9.5 -112.5v-25.5t-1 -25.5h-395q0 -33 11.5 -63t32.5 -52.5t50 -36t65 -13.5t76.5 18t89.5 65l58 -71q-45 -48 -102 -74t-120 -26q-57 0 -104.5 20.5t-82 55.5t-53.5 80.5t-19 96.5zM471 327v12
q0 77 -36 118.5t-108 41.5q-77 0 -111 -46t-38 -126h293zM479 644h-299v73h299v-73z" />
    <glyph glyph-name="Ebreve" unicode="&#x114;" 
d="M107 0v780h441v-97h-344v-224h285v-97h-285v-265h344v-97h-441zM243 1022q0 -42 24 -67.5t66 -25.5q40 0 62 24t22 69h85q0 -35 -13 -65.5t-36 -53t-53.5 -35.5t-66.5 -13t-68 13t-56 36t-37.5 53.5t-13.5 64.5h85z" />
    <glyph glyph-name="ebreve" unicode="&#x115;" 
d="M79 239v56q0 139 66.5 214.5t194.5 75.5q72 0 117.5 -24t71 -64.5t35 -94t9.5 -112.5v-25.5t-1 -25.5h-395q0 -33 11.5 -63t32.5 -52.5t50 -36t65 -13.5t76.5 18t89.5 65l58 -71q-45 -48 -102 -74t-120 -26q-57 0 -104.5 20.5t-82 55.5t-53.5 80.5t-19 96.5zM471 327v12
q0 77 -36 118.5t-108 41.5q-77 0 -111 -46t-38 -126h293zM243 812q0 -42 24 -67.5t66 -25.5q40 0 62 24t22 69h85q0 -35 -13 -65.5t-36 -53t-53.5 -35.5t-66.5 -13t-68 13t-56 36t-37.5 53.5t-13.5 64.5h85z" />
    <glyph glyph-name="Edotaccent" unicode="&#x116;" 
d="M107 0v780h441v-97h-344v-224h285v-97h-285v-265h344v-97h-441zM261 924q0 33 18 50.5t51 17.5q68 0 68 -68q0 -69 -68 -69q-69 0 -69 69z" />
    <glyph glyph-name="edotaccent" unicode="&#x117;" 
d="M79 239v56q0 139 66.5 214.5t194.5 75.5q72 0 117.5 -24t71 -64.5t35 -94t9.5 -112.5v-25.5t-1 -25.5h-395q0 -33 11.5 -63t32.5 -52.5t50 -36t65 -13.5t76.5 18t89.5 65l58 -71q-45 -48 -102 -74t-120 -26q-57 0 -104.5 20.5t-82 55.5t-53.5 80.5t-19 96.5zM471 327v12
q0 77 -36 118.5t-108 41.5q-77 0 -111 -46t-38 -126h293zM261 714q0 33 18 50.5t51 17.5q68 0 68 -68q0 -69 -68 -69q-69 0 -69 69z" />
    <glyph glyph-name="Ecaron" unicode="&#x11a;" 
d="M107 0v780h441v-97h-344v-224h285v-97h-285v-265h344v-97h-441zM151 1050h87l85 -100l97 100h88l-148 -199h-75z" />
    <glyph glyph-name="Gcircumflex" unicode="&#x11c;" 
d="M600 282q0 -67 -19.5 -122t-54.5 -94t-85 -60t-111 -21q-67 0 -119.5 26t-88 75t-54 120t-18.5 162q0 99 22 178.5t61.5 135t95.5 85t125 29.5q63 0 119.5 -29.5t111.5 -96.5l-76 -63q-21 26 -40 44.5t-37 30t-36.5 16.5t-40.5 5q-95 0 -146.5 -84t-51.5 -244
q0 -146 44.5 -221.5t132.5 -75.5q38 0 70 14t55 39.5t36.5 62t14.5 81.5h-180v83h270v-76zM294 1053h74l149 -198h-88l-97 100l-85 -100h-87z" />
    <glyph glyph-name="ecaron" unicode="&#x11b;" 
d="M79 239v56q0 139 66.5 214.5t194.5 75.5q72 0 117.5 -24t71 -64.5t35 -94t9.5 -112.5v-25.5t-1 -25.5h-395q0 -33 11.5 -63t32.5 -52.5t50 -36t65 -13.5t76.5 18t89.5 65l58 -71q-45 -48 -102 -74t-120 -26q-57 0 -104.5 20.5t-82 55.5t-53.5 80.5t-19 96.5zM471 327v12
q0 77 -36 118.5t-108 41.5q-77 0 -111 -46t-38 -126h293zM151 840h87l85 -100l97 100h88l-148 -199h-75z" />
    <glyph glyph-name="gcircumflex" unicode="&#x11d;" 
d="M62 327q0 59 17 106.5t48.5 81.5t77 52t102.5 18q106 0 166 -66v51h106q-7 -20 -8 -38t-1 -33v-485q0 -43 -17 -78t-48.5 -59.5t-76 -38t-98.5 -13.5q-39 0 -76.5 7t-70.5 19.5t-59.5 30.5t-43.5 39l59 71q33 -38 82 -58.5t112 -20.5q140 0 140 101v94q-38 -26 -80.5 -40
t-87.5 -14q-55 0 -99.5 20t-76.5 56t-49.5 86.5t-17.5 110.5zM156 326q0 -37 11.5 -70t33 -57.5t51.5 -38.5t67 -14q47 0 88.5 22.5t65.5 61.5v170q-27 49 -69 75t-91 26q-35 0 -64 -13.5t-49.5 -37t-32 -55.5t-11.5 -69zM294 843h74l149 -198h-88l-97 100l-85 -100h-87z
" />
    <glyph glyph-name="Gbreve" unicode="&#x11e;" 
d="M600 282q0 -67 -19.5 -122t-54.5 -94t-85 -60t-111 -21q-67 0 -119.5 26t-88 75t-54 120t-18.5 162q0 99 22 178.5t61.5 135t95.5 85t125 29.5q63 0 119.5 -29.5t111.5 -96.5l-76 -63q-21 26 -40 44.5t-37 30t-36.5 16.5t-40.5 5q-95 0 -146.5 -84t-51.5 -244
q0 -146 44.5 -221.5t132.5 -75.5q38 0 70 14t55 39.5t36.5 62t14.5 81.5h-180v83h270v-76zM243 1022q0 -42 24 -67.5t66 -25.5q40 0 62 24t22 69h85q0 -35 -13 -65.5t-36 -53t-53.5 -35.5t-66.5 -13t-68 13t-56 36t-37.5 53.5t-13.5 64.5h85z" />
    <glyph glyph-name="gbreve" unicode="&#x11f;" 
d="M62 327q0 59 17 106.5t48.5 81.5t77 52t102.5 18q106 0 166 -66v51h106q-7 -20 -8 -38t-1 -33v-485q0 -43 -17 -78t-48.5 -59.5t-76 -38t-98.5 -13.5q-39 0 -76.5 7t-70.5 19.5t-59.5 30.5t-43.5 39l59 71q33 -38 82 -58.5t112 -20.5q140 0 140 101v94q-38 -26 -80.5 -40
t-87.5 -14q-55 0 -99.5 20t-76.5 56t-49.5 86.5t-17.5 110.5zM156 326q0 -37 11.5 -70t33 -57.5t51.5 -38.5t67 -14q47 0 88.5 22.5t65.5 61.5v170q-27 49 -69 75t-91 26q-35 0 -64 -13.5t-49.5 -37t-32 -55.5t-11.5 -69zM243 812q0 -42 24 -67.5t66 -25.5q40 0 62 24t22 69
h85q0 -35 -13 -65.5t-36 -53t-53.5 -35.5t-66.5 -13t-68 13t-56 36t-37.5 53.5t-13.5 64.5h85z" />
    <glyph glyph-name="Gdotaccent" unicode="&#x120;" 
d="M600 282q0 -67 -19.5 -122t-54.5 -94t-85 -60t-111 -21q-67 0 -119.5 26t-88 75t-54 120t-18.5 162q0 99 22 178.5t61.5 135t95.5 85t125 29.5q63 0 119.5 -29.5t111.5 -96.5l-76 -63q-21 26 -40 44.5t-37 30t-36.5 16.5t-40.5 5q-95 0 -146.5 -84t-51.5 -244
q0 -146 44.5 -221.5t132.5 -75.5q38 0 70 14t55 39.5t36.5 62t14.5 81.5h-180v83h270v-76zM261 924q0 33 18 50.5t51 17.5q68 0 68 -68q0 -69 -68 -69q-69 0 -69 69z" />
    <glyph glyph-name="gdotaccent" unicode="&#x121;" 
d="M62 327q0 59 17 106.5t48.5 81.5t77 52t102.5 18q106 0 166 -66v51h106q-7 -20 -8 -38t-1 -33v-485q0 -43 -17 -78t-48.5 -59.5t-76 -38t-98.5 -13.5q-39 0 -76.5 7t-70.5 19.5t-59.5 30.5t-43.5 39l59 71q33 -38 82 -58.5t112 -20.5q140 0 140 101v94q-38 -26 -80.5 -40
t-87.5 -14q-55 0 -99.5 20t-76.5 56t-49.5 86.5t-17.5 110.5zM156 326q0 -37 11.5 -70t33 -57.5t51.5 -38.5t67 -14q47 0 88.5 22.5t65.5 61.5v170q-27 49 -69 75t-91 26q-35 0 -64 -13.5t-49.5 -37t-32 -55.5t-11.5 -69zM261 714q0 33 18 50.5t51 17.5q68 0 68 -68
q0 -69 -68 -69q-69 0 -69 69z" />
    <glyph glyph-name="Hcircumflex" unicode="&#x124;" 
d="M174 780v-363h308v363h98v-708q0 -16 1 -33.5t7 -38.5h-106v334h-308v-334h-97v780h97zM294 1053h74l149 -198h-88l-97 100l-85 -100h-87z" />
    <glyph glyph-name="hcircumflex" unicode="&#x125;" 
d="M90 781l97 -6v-254q27 29 71.5 46.5t89.5 17.5q56 0 95.5 -25t65 -65.5t37 -92.5t11.5 -105v-226q0 -15 1 -33t8 -38h-111v317q0 36 -10 67t-29 54.5t-46.5 37t-62.5 13.5q-45 0 -73.5 -23t-46.5 -55v-411h-97v781zM294 1026h74l149 -198h-88l-97 100l-85 -100h-87z" />
    <glyph glyph-name="Hbar" unicode="&#x126;" 
d="M77 574v206h97v-206h308v206h98v-206h57v-83h-57v-419q0 -16 1 -34t7 -38h-106v334h-308v-334h-97v491h-53v83h53zM174 491v-75h308v75h-308z" />
    <glyph glyph-name="hbar" unicode="&#x127;" 
d="M187 644v-123q27 29 71.5 46.5t89.5 17.5q56 0 95.5 -25t65 -65.5t37 -92.5t11.5 -105v-226q0 -15 1 -33t8 -38h-111v317q0 36 -10 67t-29 54.5t-46.5 37t-62.5 13.5q-45 0 -73.5 -23t-46.5 -55v-411h-97v644h-45v72h45v65l97 -7v-58h156v-72h-156z" />
    <glyph glyph-name="Itilde" unicode="&#x128;" 
d="M111 83h170v614h-144v83h378v-83h-137v-614h167v-11q0 -16 1 -33.5t8 -38.5h-443v83zM255 1002q39 0 61 -14t39 -29q17 -14 27.5 -20t23.5 -6q23 0 44.5 16.5t39.5 50.5l64 -46q-10 -19 -24 -38t-33 -34t-43 -24.5t-53 -9.5q-36 0 -57.5 13t-35.5 27q-13 12 -26 20.5
t-30 8.5q-21 0 -41.5 -15t-42.5 -54l-63 48q29 55 66.5 80.5t83.5 25.5z" />
    <glyph glyph-name="imacron" unicode="&#x12b;" 
d="M111 82h174v406l-114 7v75h208v-488h164v-11q0 -15 1 -33t7 -38h-440v82zM480 648h-299v73h299v-73z" />
    <glyph glyph-name="Ibreve" unicode="&#x12c;" 
d="M111 83h170v614h-144v83h378v-83h-137v-614h167v-11q0 -16 1 -33.5t8 -38.5h-443v83zM243 1022q0 -42 24 -67.5t66 -25.5q40 0 62 24t22 69h85q0 -35 -13 -65.5t-36 -53t-53.5 -35.5t-66.5 -13t-68 13t-56 36t-37.5 53.5t-13.5 64.5h85z" />
    <glyph glyph-name="ibreve" unicode="&#x12d;" 
d="M111 82h174v406l-114 7v75h208v-488h164v-11q0 -15 1 -33t7 -38h-440v82zM243 -74q0 -42 24 -67.5t66 -25.5q40 0 62 24t22 69h85q0 -35 -13 -65.5t-36 -53t-53.5 -35.5t-66.5 -13t-68 13t-56 36t-37.5 53.5t-13.5 64.5h85z" />
    <glyph glyph-name="Idotaccent" unicode="&#x130;" 
d="M111 83h170v614h-144v83h378v-83h-137v-614h167v-11q0 -16 1 -33.5t8 -38.5h-443v83zM261 924q0 33 18 50.5t51 17.5q68 0 68 -68q0 -69 -68 -69q-69 0 -69 69z" />
    <glyph glyph-name="Jcircumflex" unicode="&#x134;" 
d="M79 83l59 71q33 -38 82.5 -58.5t112.5 -20.5q141 0 141 101v515h-330v89h437q-7 -21 -8 -38.5t-1 -33.5v-532q0 -43 -17.5 -78.5t-49 -60.5t-76 -38.5t-99.5 -13.5q-39 0 -77 7t-71 20t-59.5 31t-43.5 40zM294 1053h74l149 -198h-88l-97 100l-85 -100h-87z" />
    <glyph glyph-name="jcircumflex" unicode="&#x135;" 
d="M173 -25q18 -45 49 -64.5t62 -19.5q20 0 39 8t33 23.5t22.5 39t8.5 54.5v472l-114 7v75h211v-554v-16q-3 -49 -21 -87t-45.5 -64.5t-62.5 -40t-73 -13.5q-55 0 -108.5 33t-88.5 108zM401 843h74l149 -198h-88l-97 100l-85 -100h-87z" />
    <glyph glyph-name="uni0136" unicode="&#x136;" 
d="M88 0v780h97v-348l286 348h129l-324 -400l354 -380h-144l-276 298l-25 -31v-267h-97zM250 -239q2 4 8 15.5t13.5 27t15.5 34t15 35.5q-9 13 -9 35q0 56 56 56q30 0 43 -15.5t13 -44.5q-1 -21 -12 -35q-9 -20 -22.5 -41t-27.5 -40t-26.5 -32.5t-19.5 -17.5z" />
    <glyph glyph-name="uni0137" unicode="&#x137;" 
d="M209 775v-422l248 217h137l-288 -260l319 -310h-149l-246 241l-21 -19v-222h-97v781zM250 -239q2 4 8 15.5t13.5 27t15.5 34t15 35.5q-9 13 -9 35q0 56 56 56q30 0 43 -15.5t13 -44.5q-1 -21 -12 -35q-9 -20 -22.5 -41t-27.5 -40t-26.5 -32.5t-19.5 -17.5z" />
    <glyph glyph-name="kgreenlandic" unicode="&#x138;" 
d="M107 268l5 4v291l5 -5v12h120q-8 -13 -18 -35.5t-10 -39.5v-139l248 214h137l-290 -259l321 -311h-149l-249 242l-18 -16v-226h-97v265z" />
    <glyph glyph-name="Lacute" unicode="&#x139;" 
d="M558 0h-454v780h97v-697h357v-83zM221 853l-35 63l235 167l53 -86z" />
    <glyph glyph-name="lacute" unicode="&#x13a;" 
d="M113 82h169v611l-114 7v75h211v-693h165v-11q0 -15 1 -33t8 -38h-440v82zM221 848l-35 63l235 167l53 -86z" />
    <glyph glyph-name="uni013B" unicode="&#x13b;" 
d="M558 0h-454v780h97v-697h357v-83zM250 -239q2 4 8 15.5t13.5 27t15.5 34t15 35.5q-9 13 -9 35q0 56 56 56q30 0 43 -15.5t13 -44.5q-1 -21 -12 -35q-9 -20 -22.5 -41t-27.5 -40t-26.5 -32.5t-19.5 -17.5z" />
    <glyph glyph-name="uni013C" unicode="&#x13c;" 
d="M113 82h169v611l-114 7v75h211v-693h165v-11q0 -15 1 -33t8 -38h-440v82zM250 -239q2 4 8 15.5t13.5 27t15.5 34t15 35.5q-9 13 -9 35q0 56 56 56q30 0 43 -15.5t13 -44.5q-1 -21 -12 -35q-9 -20 -22.5 -41t-27.5 -40t-26.5 -32.5t-19.5 -17.5z" />
    <glyph glyph-name="Ldot" unicode="&#x13f;" 
d="M558 0h-454v780h97v-697h357v-83zM262 319q0 33 18 50.5t51 17.5q68 0 68 -68t-68 -68q-69 0 -69 68z" />
    <glyph glyph-name="Nacute" unicode="&#x143;" 
d="M186 780l291 -564v564h98v-780h-101l-291 587v-587h-97v780h100zM221 853l-35 63l235 167l53 -86z" />
    <glyph glyph-name="nacute" unicode="&#x144;" 
d="M101 0v570h125q-5 -8 -11 -19t-11 -24q28 26 70.5 42t86.5 16q55 0 94 -25t64 -65.5t37 -92.5t12 -105v-226q0 -15 1 -33t8 -38h-112v317q0 36 -10 67t-28.5 54.5t-45.5 37t-61 13.5q-47 0 -75.5 -23t-47.5 -56v-410h-96zM221 643l-35 63l235 167l53 -86z" />
    <glyph glyph-name="uni0145" unicode="&#x145;" 
d="M186 780l291 -564v564h98v-780h-101l-291 587v-587h-97v780h100zM250 -239q2 4 8 15.5t13.5 27t15.5 34t15 35.5q-9 13 -9 35q0 56 56 56q30 0 43 -15.5t13 -44.5q-1 -21 -12 -35q-9 -20 -22.5 -41t-27.5 -40t-26.5 -32.5t-19.5 -17.5z" />
    <glyph glyph-name="uni0146" unicode="&#x146;" 
d="M101 0v570h125q-5 -8 -11 -19t-11 -24q28 26 70.5 42t86.5 16q55 0 94 -25t64 -65.5t37 -92.5t12 -105v-226q0 -15 1 -33t8 -38h-112v317q0 36 -10 67t-28.5 54.5t-45.5 37t-61 13.5q-47 0 -75.5 -23t-47.5 -56v-410h-96zM250 -239q2 4 8 15.5t13.5 27t15.5 34t15 35.5
q-9 13 -9 35q0 56 56 56q30 0 43 -15.5t13 -44.5q-1 -21 -12 -35q-9 -20 -22.5 -41t-27.5 -40t-26.5 -32.5t-19.5 -17.5z" />
    <glyph glyph-name="Ncaron" unicode="&#x147;" 
d="M186 780l291 -564v564h98v-780h-101l-291 587v-587h-97v780h100zM151 1050h87l85 -100l97 100h88l-148 -199h-75z" />
    <glyph glyph-name="ncaron" unicode="&#x148;" 
d="M101 0v570h125q-5 -8 -11 -19t-11 -24q28 26 70.5 42t86.5 16q55 0 94 -25t64 -65.5t37 -92.5t12 -105v-226q0 -15 1 -33t8 -38h-112v317q0 36 -10 67t-28.5 54.5t-45.5 37t-61 13.5q-47 0 -75.5 -23t-47.5 -56v-410h-96zM151 840h87l85 -100l97 100h88l-148 -199h-75z
" />
    <glyph glyph-name="Omacron" unicode="&#x14c;" 
d="M330 -15q-67 0 -119 26.5t-88 76.5t-54.5 123t-18.5 166q0 204 73 311.5t205 107.5q66 0 118.5 -27.5t88.5 -81t55.5 -132t19.5 -180.5q0 -92 -18.5 -164.5t-54.5 -122.5t-88 -76.5t-119 -26.5zM332 79q85 0 125.5 71.5t40.5 223.5q0 176 -43.5 256.5t-124.5 80.5
q-80 0 -124 -80.5t-44 -254.5q0 -154 42.5 -225.5t127.5 -71.5zM479 854h-299v73h299v-73z" />
    <glyph glyph-name="omacron" unicode="&#x14d;" 
d="M329 -14q-60 0 -108 20.5t-82.5 59t-53 93.5t-18.5 124q0 68 18 123.5t52 95.5t82 61.5t108 21.5q61 0 110 -22t83.5 -61.5t53.5 -95.5t19 -124t-19 -123t-53.5 -93.5t-83 -59t-108.5 -20.5zM332 70q72 0 112.5 54.5t40.5 157.5t-41 162t-114 59q-74 0 -114.5 -58.5
t-40.5 -160.5q0 -103 41.5 -158.5t115.5 -55.5zM476 659h-299v73h299v-73z" />
    <glyph glyph-name="Obreve" unicode="&#x14e;" 
d="M330 -15q-67 0 -119 26.5t-88 76.5t-54.5 123t-18.5 166q0 204 73 311.5t205 107.5q66 0 118.5 -27.5t88.5 -81t55.5 -132t19.5 -180.5q0 -92 -18.5 -164.5t-54.5 -122.5t-88 -76.5t-119 -26.5zM332 79q85 0 125.5 71.5t40.5 223.5q0 176 -43.5 256.5t-124.5 80.5
q-80 0 -124 -80.5t-44 -254.5q0 -154 42.5 -225.5t127.5 -71.5zM243 1022q0 -42 24 -67.5t66 -25.5q40 0 62 24t22 69h85q0 -35 -13 -65.5t-36 -53t-53.5 -35.5t-66.5 -13t-68 13t-56 36t-37.5 53.5t-13.5 64.5h85z" />
    <glyph glyph-name="obreve" unicode="&#x14f;" 
d="M329 -14q-60 0 -108 20.5t-82.5 59t-53 93.5t-18.5 124q0 68 18 123.5t52 95.5t82 61.5t108 21.5q61 0 110 -22t83.5 -61.5t53.5 -95.5t19 -124t-19 -123t-53.5 -93.5t-83 -59t-108.5 -20.5zM332 70q72 0 112.5 54.5t40.5 157.5t-41 162t-114 59q-74 0 -114.5 -58.5
t-40.5 -160.5q0 -103 41.5 -158.5t115.5 -55.5zM240 827q0 -42 24 -67.5t66 -25.5q40 0 62 24t22 69h85q0 -35 -13 -65.5t-36 -53t-53.5 -35.5t-66.5 -13t-68 13t-56 36t-37.5 53.5t-13.5 64.5h85z" />
    <glyph glyph-name="ohungarumlaut" unicode="&#x151;" 
d="M329 -14q-60 0 -108 20.5t-82.5 59t-53 93.5t-18.5 124q0 68 18 123.5t52 95.5t82 61.5t108 21.5q61 0 110 -22t83.5 -61.5t53.5 -95.5t19 -124t-19 -123t-53.5 -93.5t-83 -59t-108.5 -20.5zM332 70q72 0 112.5 54.5t40.5 157.5t-41 162t-114 59q-74 0 -114.5 -58.5
t-40.5 -160.5q0 -103 41.5 -158.5t115.5 -55.5zM462 828l85 -22l-125 -146h-72zM203 660l112 168l85 -22l-125 -146h-72z" />
    <glyph glyph-name="Ohungarumlaut" unicode="&#x150;" 
d="M330 -15q-67 0 -119 26.5t-88 76.5t-54.5 123t-18.5 166q0 204 73 311.5t205 107.5q66 0 118.5 -27.5t88.5 -81t55.5 -132t19.5 -180.5q0 -92 -18.5 -164.5t-54.5 -122.5t-88 -76.5t-119 -26.5zM332 79q85 0 125.5 71.5t40.5 223.5q0 176 -43.5 256.5t-124.5 80.5
q-80 0 -124 -80.5t-44 -254.5q0 -154 42.5 -225.5t127.5 -71.5zM465 1023l85 -22l-125 -146h-72zM206 855l112 168l85 -22l-125 -146h-72z" />
    <glyph glyph-name="Racute" unicode="&#x154;" 
d="M330 780q56 0 101.5 -17t78 -49t50.5 -77t18 -101q0 -88 -41.5 -138t-114.5 -72q13 -23 27 -46l28 -46q21 -34 41 -68t35.5 -64.5t25 -57t9.5 -44.5h-112q0 17 -9.5 41.5t-25.5 54.5t-35.5 63t-40.5 67l-26 44q-5 9 -11 18.5t-11 19.5q-11 -1 -22.5 -1h-23.5h-81v-307
h-98v780h238zM190 404h130q164 0 164 137q0 68 -40 105t-114 37h-140v-279zM221 853l-35 63l235 167l53 -86z" />
    <glyph glyph-name="racute" unicode="&#x155;" 
d="M77 82h173v406l-114 7v75h224q-13 -21 -16 -43q17 20 38 31.5t43 17.5t42.5 7.5t34.5 1.5q8 0 17 -0.5t22 -3.5t32 -9t46 -16l-61 -94q-46 25 -86 25q-46 0 -82 -26t-46 -68v-311h164v-11q0 -15 1 -33t8 -38h-440v82zM221 643l-35 63l235 167l53 -86z" />
    <glyph glyph-name="uni0156" unicode="&#x156;" 
d="M330 780q56 0 101.5 -17t78 -49t50.5 -77t18 -101q0 -88 -41.5 -138t-114.5 -72q13 -23 27 -46l28 -46q21 -34 41 -68t35.5 -64.5t25 -57t9.5 -44.5h-112q0 17 -9.5 41.5t-25.5 54.5t-35.5 63t-40.5 67l-26 44q-5 9 -11 18.5t-11 19.5q-11 -1 -22.5 -1h-23.5h-81v-307
h-98v780h238zM190 404h130q164 0 164 137q0 68 -40 105t-114 37h-140v-279zM250 -239q2 4 8 15.5t13.5 27t15.5 34t15 35.5q-9 13 -9 35q0 56 56 56q30 0 43 -15.5t13 -44.5q-1 -21 -12 -35q-9 -20 -22.5 -41t-27.5 -40t-26.5 -32.5t-19.5 -17.5z" />
    <glyph glyph-name="uni0157" unicode="&#x157;" 
d="M77 82h173v406l-114 7v75h224q-13 -21 -16 -43q17 20 38 31.5t43 17.5t42.5 7.5t34.5 1.5q8 0 17 -0.5t22 -3.5t32 -9t46 -16l-61 -94q-46 25 -86 25q-46 0 -82 -26t-46 -68v-311h164v-11q0 -15 1 -33t8 -38h-440v82zM216 -239q2 4 8 15.5t13.5 27t15.5 34t15 35.5
q-9 13 -9 35q0 56 56 56q30 0 43 -15.5t13 -44.5q-1 -21 -12 -35q-9 -20 -22.5 -41t-27.5 -40t-26.5 -32.5t-19.5 -17.5z" />
    <glyph glyph-name="Rcaron" unicode="&#x158;" 
d="M330 780q56 0 101.5 -17t78 -49t50.5 -77t18 -101q0 -88 -41.5 -138t-114.5 -72q13 -23 27 -46l28 -46q21 -34 41 -68t35.5 -64.5t25 -57t9.5 -44.5h-112q0 17 -9.5 41.5t-25.5 54.5t-35.5 63t-40.5 67l-26 44q-5 9 -11 18.5t-11 19.5q-11 -1 -22.5 -1h-23.5h-81v-307
h-98v780h238zM190 404h130q164 0 164 137q0 68 -40 105t-114 37h-140v-279zM151 1050h87l85 -100l97 100h88l-148 -199h-75z" />
    <glyph glyph-name="rcaron" unicode="&#x159;" 
d="M77 82h173v406l-114 7v75h224q-13 -21 -16 -43q17 20 38 31.5t43 17.5t42.5 7.5t34.5 1.5q8 0 17 -0.5t22 -3.5t32 -9t46 -16l-61 -94q-46 25 -86 25q-46 0 -82 -26t-46 -68v-311h164v-11q0 -15 1 -33t8 -38h-440v82zM151 840h87l85 -100l97 100h88l-148 -199h-75z" />
    <glyph glyph-name="Sacute" unicode="&#x15a;" 
d="M323 -15q-83 0 -148.5 29t-96.5 80l67 60q56 -80 171 -80q79 0 124.5 35t45.5 103q0 60 -37.5 91t-112.5 44q-55 9 -101.5 29t-79.5 50t-51.5 69t-18.5 87q0 46 17.5 85t49.5 67.5t76 44.5t96 16q72 0 134 -29t95 -79l-64 -61q-20 22 -38 37t-36 24t-37 13t-43 4
q-75 0 -116.5 -31.5t-41.5 -85.5t45.5 -91t145.5 -56q52 -10 91.5 -26.5t66.5 -42.5t40.5 -62.5t13.5 -86.5q0 -61 -19.5 -105.5t-53.5 -73.5t-81 -43.5t-103 -14.5zM221 853l-35 63l235 167l53 -86z" />
    <glyph glyph-name="sacute" unicode="&#x15b;" 
d="M362 333q110 -21 157.5 -58.5t47.5 -103.5q0 -40 -16 -74t-46 -59t-72 -38.5t-94 -13.5q-152 0 -242 124l64 67q42 -51 86 -77.5t93 -26.5q27 0 51.5 8t43 21t29.5 31t11 37q0 25 -25 39t-91 27q-127 26 -182 68t-55 109q0 39 16 70.5t45.5 54t70.5 35t91 12.5
q72 0 128 -25t89 -73l-61 -62q-36 38 -70 54.5t-80 16.5q-30 0 -55 -6t-43 -16.5t-28.5 -24.5t-10.5 -31q0 -32 37 -51.5t111 -33.5zM235 643l-35 63l235 167l53 -86z" />
    <glyph glyph-name="Scircumflex" unicode="&#x15c;" 
d="M323 -15q-83 0 -148.5 29t-96.5 80l67 60q56 -80 171 -80q79 0 124.5 35t45.5 103q0 60 -37.5 91t-112.5 44q-55 9 -101.5 29t-79.5 50t-51.5 69t-18.5 87q0 46 17.5 85t49.5 67.5t76 44.5t96 16q72 0 134 -29t95 -79l-64 -61q-20 22 -38 37t-36 24t-37 13t-43 4
q-75 0 -116.5 -31.5t-41.5 -85.5t45.5 -91t145.5 -56q52 -10 91.5 -26.5t66.5 -42.5t40.5 -62.5t13.5 -86.5q0 -61 -19.5 -105.5t-53.5 -73.5t-81 -43.5t-103 -14.5zM294 1053h74l149 -198h-88l-97 100l-85 -100h-87z" />
    <glyph glyph-name="scircumflex" unicode="&#x15d;" 
d="M362 333q110 -21 157.5 -58.5t47.5 -103.5q0 -40 -16 -74t-46 -59t-72 -38.5t-94 -13.5q-152 0 -242 124l64 67q42 -51 86 -77.5t93 -26.5q27 0 51.5 8t43 21t29.5 31t11 37q0 25 -25 39t-91 27q-127 26 -182 68t-55 109q0 39 16 70.5t45.5 54t70.5 35t91 12.5
q72 0 128 -25t89 -73l-61 -62q-36 38 -70 54.5t-80 16.5q-30 0 -55 -6t-43 -16.5t-28.5 -24.5t-10.5 -31q0 -32 37 -51.5t111 -33.5zM308 843h74l149 -198h-88l-97 100l-85 -100h-87z" />
    <glyph glyph-name="Scedilla" unicode="&#x15e;" 
d="M323 -15q-83 0 -148.5 29t-96.5 80l67 60q56 -80 171 -80q79 0 124.5 35t45.5 103q0 60 -37.5 91t-112.5 44q-55 9 -101.5 29t-79.5 50t-51.5 69t-18.5 87q0 46 17.5 85t49.5 67.5t76 44.5t96 16q72 0 134 -29t95 -79l-64 -61q-20 22 -38 37t-36 24t-37 13t-43 4
q-75 0 -116.5 -31.5t-41.5 -85.5t45.5 -91t145.5 -56q52 -10 91.5 -26.5t66.5 -42.5t40.5 -62.5t13.5 -86.5q0 -61 -19.5 -105.5t-53.5 -73.5t-81 -43.5t-103 -14.5zM327 -251q-49 0 -81 14.5t-61 50.5l52 51q16 -25 35 -34t57 -9q37 0 53 8t16 27q0 37 -46 37
q-17 0 -33 -5.5t-24 -13.5h-68l27 139h72l-15 -66q10 4 24.5 6t28.5 2q51 0 80.5 -27t29.5 -75q0 -52 -37.5 -78.5t-109.5 -26.5z" />
    <glyph glyph-name="scedilla" unicode="&#x15f;" 
d="M362 333q110 -21 157.5 -58.5t47.5 -103.5q0 -40 -16 -74t-46 -59t-72 -38.5t-94 -13.5q-152 0 -242 124l64 67q42 -51 86 -77.5t93 -26.5q27 0 51.5 8t43 21t29.5 31t11 37q0 25 -25 39t-91 27q-127 26 -182 68t-55 109q0 39 16 70.5t45.5 54t70.5 35t91 12.5
q72 0 128 -25t89 -73l-61 -62q-36 38 -70 54.5t-80 16.5q-30 0 -55 -6t-43 -16.5t-28.5 -24.5t-10.5 -31q0 -32 37 -51.5t111 -33.5zM327 -251q-49 0 -81 14.5t-61 50.5l52 51q16 -25 35 -34t57 -9q37 0 53 8t16 27q0 37 -46 37q-17 0 -33 -5.5t-24 -13.5h-68l27 139h72
l-15 -66q10 4 24.5 6t28.5 2q51 0 80.5 -27t29.5 -75q0 -52 -37.5 -78.5t-109.5 -26.5z" />
    <glyph glyph-name="Scaron" unicode="&#x160;" 
d="M323 -15q-83 0 -148.5 29t-96.5 80l67 60q56 -80 171 -80q79 0 124.5 35t45.5 103q0 60 -37.5 91t-112.5 44q-55 9 -101.5 29t-79.5 50t-51.5 69t-18.5 87q0 46 17.5 85t49.5 67.5t76 44.5t96 16q72 0 134 -29t95 -79l-64 -61q-20 22 -38 37t-36 24t-37 13t-43 4
q-75 0 -116.5 -31.5t-41.5 -85.5t45.5 -91t145.5 -56q52 -10 91.5 -26.5t66.5 -42.5t40.5 -62.5t13.5 -86.5q0 -61 -19.5 -105.5t-53.5 -73.5t-81 -43.5t-103 -14.5zM151 1050h87l85 -100l97 100h88l-148 -199h-75z" />
    <glyph glyph-name="scaron" unicode="&#x161;" 
d="M362 333q110 -21 157.5 -58.5t47.5 -103.5q0 -40 -16 -74t-46 -59t-72 -38.5t-94 -13.5q-152 0 -242 124l64 67q42 -51 86 -77.5t93 -26.5q27 0 51.5 8t43 21t29.5 31t11 37q0 25 -25 39t-91 27q-127 26 -182 68t-55 109q0 39 16 70.5t45.5 54t70.5 35t91 12.5
q72 0 128 -25t89 -73l-61 -62q-36 38 -70 54.5t-80 16.5q-30 0 -55 -6t-43 -16.5t-28.5 -24.5t-10.5 -31q0 -32 37 -51.5t111 -33.5zM151 840h87l85 -100l97 100h88l-148 -199h-75z" />
    <glyph glyph-name="Tcaron" unicode="&#x164;" 
d="M586 780v-83h-211v-697h-97v697h-204v83h512zM151 1050h87l85 -100l97 100h88l-148 -199h-75z" />
    <glyph glyph-name="Utilde" unicode="&#x168;" 
d="M79 780h97v-563q0 -35 12 -61t33 -43.5t49.5 -26t61.5 -8.5q66 0 109 34t43 105v563h97v-568q0 -51 -15.5 -92.5t-47 -71.5t-78.5 -46.5t-109 -16.5t-109.5 16.5t-79 46.5t-47.5 71.5t-16 92.5v568zM255 1002q39 0 61 -14t39 -29q17 -14 27.5 -20t23.5 -6q23 0 44.5 16.5
t39.5 50.5l64 -46q-10 -19 -24 -38t-33 -34t-43 -24.5t-53 -9.5q-36 0 -57.5 13t-35.5 27q-13 12 -26 20.5t-30 8.5q-21 0 -41.5 -15t-42.5 -54l-63 48q29 55 66.5 80.5t83.5 25.5z" />
    <glyph glyph-name="utilde" unicode="&#x169;" 
d="M85 571h102v-327q0 -34 11 -65t30 -55t45.5 -38t57.5 -14q41 0 68.5 24.5t57.5 72.5v401h96v-499q0 -15 1 -33t8 -38h-105v61q-27 -35 -70 -55t-88 -20q-47 0 -86 22t-67.5 60.5t-44.5 89t-16 107.5v306zM255 821q39 0 61 -14t39 -29q17 -14 27.5 -20t23.5 -6
q23 0 44.5 16.5t39.5 50.5l64 -46q-10 -19 -24 -38t-33 -34t-43 -24.5t-53 -9.5q-36 0 -57.5 13t-35.5 27q-13 12 -26 20.5t-30 8.5q-21 0 -41.5 -15t-42.5 -54l-63 48q29 55 66.5 80.5t83.5 25.5z" />
    <glyph glyph-name="Umacron" unicode="&#x16a;" 
d="M79 780h97v-563q0 -35 12 -61t33 -43.5t49.5 -26t61.5 -8.5q66 0 109 34t43 105v563h97v-568q0 -51 -15.5 -92.5t-47 -71.5t-78.5 -46.5t-109 -16.5t-109.5 16.5t-79 46.5t-47.5 71.5t-16 92.5v568zM479 854h-299v73h299v-73z" />
    <glyph glyph-name="umacron" unicode="&#x16b;" 
d="M85 571h102v-327q0 -34 11 -65t30 -55t45.5 -38t57.5 -14q41 0 68.5 24.5t57.5 72.5v401h96v-499q0 -15 1 -33t8 -38h-105v61q-27 -35 -70 -55t-88 -20q-47 0 -86 22t-67.5 60.5t-44.5 89t-16 107.5v306zM479 673h-299v73h299v-73z" />
    <glyph glyph-name="Ubreve" unicode="&#x16c;" 
d="M79 780h97v-563q0 -35 12 -61t33 -43.5t49.5 -26t61.5 -8.5q66 0 109 34t43 105v563h97v-568q0 -51 -15.5 -92.5t-47 -71.5t-78.5 -46.5t-109 -16.5t-109.5 16.5t-79 46.5t-47.5 71.5t-16 92.5v568zM243 1022q0 -42 24 -67.5t66 -25.5q40 0 62 24t22 69h85
q0 -35 -13 -65.5t-36 -53t-53.5 -35.5t-66.5 -13t-68 13t-56 36t-37.5 53.5t-13.5 64.5h85z" />
    <glyph glyph-name="ubreve" unicode="&#x16d;" 
d="M85 571h102v-327q0 -34 11 -65t30 -55t45.5 -38t57.5 -14q41 0 68.5 24.5t57.5 72.5v401h96v-499q0 -15 1 -33t8 -38h-105v61q-27 -35 -70 -55t-88 -20q-47 0 -86 22t-67.5 60.5t-44.5 89t-16 107.5v306zM243 841q0 -42 24 -67.5t66 -25.5q40 0 62 24t22 69h85
q0 -35 -13 -65.5t-36 -53t-53.5 -35.5t-66.5 -13t-68 13t-56 36t-37.5 53.5t-13.5 64.5h85z" />
    <glyph glyph-name="Uring" unicode="&#x16e;" 
d="M79 780h97v-563q0 -35 12 -61t33 -43.5t49.5 -26t61.5 -8.5q66 0 109 34t43 105v563h97v-568q0 -51 -15.5 -92.5t-47 -71.5t-78.5 -46.5t-109 -16.5t-109.5 16.5t-79 46.5t-47.5 71.5t-16 92.5v568zM330 758q-53 0 -87 32t-34 86q0 52 33.5 85t87.5 33t87.5 -33t33.5 -85
q0 -53 -34.5 -85.5t-86.5 -32.5zM330 816q24 0 38 17t14 43q0 25 -14 42.5t-38 17.5q-23 0 -37.5 -17t-14.5 -43t14.5 -43t37.5 -17z" />
    <glyph glyph-name="uring" unicode="&#x16f;" 
d="M85 571h102v-327q0 -34 11 -65t30 -55t45.5 -38t57.5 -14q41 0 68.5 24.5t57.5 72.5v401h96v-499q0 -15 1 -33t8 -38h-105v61q-27 -35 -70 -55t-88 -20q-47 0 -86 22t-67.5 60.5t-44.5 89t-16 107.5v306zM330 577q-53 0 -87 32t-34 86q0 52 33.5 85t87.5 33t87.5 -33
t33.5 -85q0 -53 -34.5 -85.5t-86.5 -32.5zM330 635q24 0 38 17t14 43q0 25 -14 42.5t-38 17.5q-23 0 -37.5 -17t-14.5 -43t14.5 -43t37.5 -17z" />
    <glyph glyph-name="Uhungarumlaut" unicode="&#x170;" 
d="M79 780h97v-563q0 -35 12 -61t33 -43.5t49.5 -26t61.5 -8.5q66 0 109 34t43 105v563h97v-568q0 -51 -15.5 -92.5t-47 -71.5t-78.5 -46.5t-109 -16.5t-109.5 16.5t-79 46.5t-47.5 71.5t-16 92.5v568zM465 1023l85 -22l-125 -146h-72zM206 855l112 168l85 -22l-125 -146
h-72z" />
    <glyph glyph-name="uhungarumlaut" unicode="&#x171;" 
d="M85 571h102v-327q0 -34 11 -65t30 -55t45.5 -38t57.5 -14q41 0 68.5 24.5t57.5 72.5v401h96v-499q0 -15 1 -33t8 -38h-105v61q-27 -35 -70 -55t-88 -20q-47 0 -86 22t-67.5 60.5t-44.5 89t-16 107.5v306zM465 842l85 -22l-125 -146h-72zM206 674l112 168l85 -22
l-125 -146h-72z" />
    <glyph glyph-name="Wcircumflex" unicode="&#x174;" 
d="M43 780h98q0 -59 2.5 -141t8.5 -168.5t15 -166.5t22 -136q20 55 35 98t26 78t18.5 64.5t13.5 57.5h96q5 -28 12 -57t17.5 -64.5t25 -78.5t34.5 -99q14 56 23.5 136.5t16 167t9.5 168.5t3 141h97q0 -52 -3.5 -116.5t-9.5 -135.5t-15 -144.5t-19.5 -143t-23 -131
t-25.5 -109.5h-90q-13 36 -28 76t-28.5 81t-25.5 81.5t-20 77.5q-9 -37 -21.5 -77.5t-26.5 -81.5t-29.5 -81t-29.5 -76h-90q-11 48 -22 109.5t-21 131t-18 143t-14 144.5t-9.5 135.5t-3.5 116.5zM294 1053h74l149 -198h-88l-97 100l-85 -100h-87z" />
    <glyph glyph-name="wcircumflex" unicode="&#x175;" 
d="M55 585h96q0 -116 15 -218t39 -201q13 35 24.5 67t21.5 64t18 65.5t15 70.5h96q6 -37 13.5 -70.5t16 -65.5t19 -64t22.5 -67q26 99 41 201t15 218h97q0 -78 -8.5 -153t-23 -147.5t-32.5 -143t-38 -141.5h-89q-27 72 -48.5 135t-35.5 130q-6 -25 -14 -50.5t-19 -56.5
t-25.5 -69.5t-34.5 -88.5h-89q-17 71 -33.5 141.5t-29.5 143t-21 147.5t-8 153zM294 843h74l149 -198h-88l-97 100l-85 -100h-87z" />
    <glyph glyph-name="Ycircumflex" unicode="&#x176;" 
d="M127 780l196 -344l209 344h104l-266 -457v-323h-97v323l-250 457h104zM294 1053h74l149 -198h-88l-97 100l-85 -100h-87z" />
    <glyph glyph-name="ycircumflex" unicode="&#x177;" 
d="M179 570q6 -38 20.5 -88t35 -105.5t44.5 -114t49 -113.5q23 62 45 124t40.5 117.5t32 102t19.5 77.5h108q-10 -41 -30 -102t-46 -132t-55.5 -148.5t-59.5 -151.5q1 -2 2 -3.5t2 -3.5h-7q-11 -27 -21 -53t-21 -51q-29 -68 -69.5 -100.5t-101.5 -32.5q-9 0 -21.5 1t-29.5 4
l18 79q11 -3 16.5 -3.5t10.5 -0.5q32 0 54 22.5t38 60.5l16 40t16 41q-31 57 -63.5 129.5t-60.5 146t-48.5 141.5t-28.5 117h96zM294 843h74l149 -198h-88l-97 100l-85 -100h-87z" />
    <glyph glyph-name="Ydieresis" unicode="&#x178;" 
d="M127 780l196 -344l209 344h104l-266 -457v-323h-97v323l-250 457h104zM359 924q0 33 18 50.5t51 17.5q68 0 68 -68q0 -69 -68 -69q-69 0 -69 69zM163 924q0 68 68 68t68 -68q0 -69 -68 -69t-68 69z" />
    <glyph glyph-name="Zacute" unicode="&#x179;" 
d="M61 88l164 250h-108v89h166l171 261h-364v92h490v-88l-173 -265h136v-89h-194l-161 -246h411v-92h-538v88zM221 853l-35 63l235 167l53 -86z" />
    <glyph glyph-name="zacute" unicode="&#x17a;" 
d="M147 0h-36v74l-1 2l1 1v5h4l316 406h-307v82h415v-84l-319 -404h323v-11q0 -15 1 -33t7 -38h-396l-5 -6zM221 643l-35 63l235 167l53 -86z" />
    <glyph glyph-name="Zdotaccent" unicode="&#x17b;" 
d="M61 88l164 250h-108v89h166l171 261h-364v92h490v-88l-173 -265h136v-89h-194l-161 -246h411v-92h-538v88zM261 924q0 33 18 50.5t51 17.5q68 0 68 -68q0 -69 -68 -69q-69 0 -69 69z" />
    <glyph glyph-name="zdotaccent" unicode="&#x17c;" 
d="M147 0h-36v74l-1 2l1 1v5h4l316 406h-307v82h415v-84l-319 -404h323v-11q0 -15 1 -33t7 -38h-396l-5 -6zM261 714q0 33 18 50.5t51 17.5q68 0 68 -68q0 -69 -68 -69q-69 0 -69 69z" />
    <glyph glyph-name="Zcaron" unicode="&#x17d;" 
d="M61 88l164 250h-108v89h166l171 261h-364v92h490v-88l-173 -265h136v-89h-194l-161 -246h411v-92h-538v88zM151 1050h87l85 -100l97 100h88l-148 -199h-75z" />
    <glyph glyph-name="zcaron" unicode="&#x17e;" 
d="M147 0h-36v74l-1 2l1 1v5h4l316 406h-307v82h415v-84l-319 -404h323v-11q0 -15 1 -33t7 -38h-396l-5 -6zM151 840h87l85 -100l97 100h88l-148 -199h-75z" />
    <glyph glyph-name="longs" unicode="&#x17f;" 
d="M172 -195v780q3 49 20.5 87t45.5 64.5t63 40t73 13.5q55 0 108.5 -32.5t88.5 -107.5l-88 -39q-18 44 -49 64t-62 20q-20 0 -39 -8t-33.5 -23.5t-23 -39t-8.5 -54.5v-772z" />
    <glyph glyph-name="Eng" unicode="&#x14a;" 
d="M186 780l291 -564v564h98v-842q0 -32 -13 -59t-35.5 -47t-51 -31.5t-60.5 -11.5q-35 0 -64 16.5t-61 55.5l51 64q35 -47 77 -47q29 0 44 19t15 62v41h-3l-291 587v-587h-97v780h100z" />
    <glyph glyph-name="dcaron" unicode="&#x10f;" 
d="M326 585q54 0 93.5 -17t70.5 -54v267l96 -7v-703q0 -15 1 -33t8 -38h-105v36q-31 -24 -69.5 -37t-82.5 -13q-58 0 -106.5 22.5t-83 63.5t-53.5 99t-19 129q0 137 66 211t184 74zM173 299q0 -48 12.5 -88.5t34.5 -69.5t52.5 -45.5t67.5 -16.5q57 0 93.5 19t56.5 59v238
q-27 49 -69 76t-91 27q-72 0 -114.5 -54t-42.5 -145zM123 883h87l85 -100l96 100h87l-147 -197h-74z" />
    <glyph glyph-name="lslash" unicode="&#x142;" 
d="M105 101l177 334v258l-114 6v75h211v-155l86 162l74 -44l-160 -300v-355h165v-11q0 -15 1 -33t8 -38h-440v82h33zM282 82v173l-92 -173h92z" />
    <glyph glyph-name="Lslash" unicode="&#x141;" 
d="M96 101l8 15v664h97v-481l259 487l72 -45l-331 -622v-37h357v-82h-454v97z" />
    <glyph glyph-name="ldot" unicode="&#x140;" 
d="M79 82h169v611l-114 6v75h211v-692h165v-11q0 -15 1 -33t8 -38h-440v82zM459 455q67 0 67 -68t-67 -68q-69 0 -69 68q0 33 18 50.5t51 17.5z" />
    <glyph glyph-name="napostrophe" unicode="&#x149;" 
d="M101 0v563l5 -6v13h120q-5 -8 -11 -19.5t-11 -24.5q28 27 70 43t85 16q56 0 95.5 -25t64.5 -65.5t37 -92.5t12 -105v-226q0 -15 1 -33t8 -38h-112v317q0 36 -10 67t-28.5 54.5t-46 37t-62.5 13.5q-45 0 -73.5 -23t-47.5 -56v-410h-96zM103 742q-8 13 -8 34q0 56 55 56
q31 0 43.5 -15.5t12.5 -44.5q-1 -21 -11 -34q-9 -19 -22.5 -40.5t-27.5 -40t-26.5 -32.5t-19.5 -18l-47 23q2 4 8 15.5t13.5 27t15.5 33.5t14 36z" />
    <glyph glyph-name="Tbar" unicode="&#x166;" 
d="M586 780v-83h-211v-124h105v-73h-105v-500h-97v500h-97v73h97v124h-204v83h512z" />
    <glyph glyph-name="tbar" unicode="&#x167;" 
d="M188 570v211l97 -7v-204h237v-89h-237v-60h145v-72h-145v-143q0 -31 8.5 -54.5t23 -39t33 -23.5t38.5 -8q31 0 62 19.5t50 64.5l87 -39q-34 -75 -87.5 -108t-109.5 -33q-37 0 -72.5 14t-63 40t-45.5 64t-21 87v159h-55v72h55v60h-89v89h89z" />
    <glyph glyph-name="uni0123" unicode="&#x123;" 
d="M62 327q0 59 17 106.5t48.5 81.5t77 52t102.5 18q106 0 166 -66v51h106q-7 -20 -8 -38t-1 -33v-485q0 -43 -17 -78t-48.5 -59.5t-76 -38t-98.5 -13.5q-39 0 -76.5 7t-70.5 19.5t-59.5 30.5t-43.5 39l59 71q33 -38 82 -58.5t112 -20.5q140 0 140 101v94q-38 -26 -80.5 -40
t-87.5 -14q-55 0 -99.5 20t-76.5 56t-49.5 86.5t-17.5 110.5zM156 326q0 -37 11.5 -70t33 -57.5t51.5 -38.5t67 -14q47 0 88.5 22.5t65.5 61.5v170q-27 49 -69 75t-91 26q-35 0 -64 -13.5t-49.5 -37t-32 -55.5t-11.5 -69zM251 788q0 14 4 22q5 24 17 54.5t26 58.5t27.5 50
t21.5 30l62 -19q-2 -5 -6.5 -20.5t-10.5 -36.5t-12.5 -45t-11.5 -47q11 -11 16.5 -26t5.5 -32q0 -31 -23 -47.5t-52 -16.5q-32 0 -48 23t-16 52z" />
    <glyph glyph-name="uni0122" unicode="&#x122;" 
d="M600 282q0 -67 -19.5 -122t-54.5 -94t-85 -60t-111 -21q-67 0 -119.5 26t-88 75t-54 120t-18.5 162q0 99 22 178.5t61.5 135t95.5 85t125 29.5q63 0 119.5 -29.5t111.5 -96.5l-76 -63q-21 26 -40 44.5t-37 30t-36.5 16.5t-40.5 5q-95 0 -146.5 -84t-51.5 -244
q0 -146 44.5 -221.5t132.5 -75.5q38 0 70 14t55 39.5t36.5 62t14.5 81.5h-180v83h270v-76zM250 -250q2 4 8 15.5t13.5 27t15.5 34t15 35.5q-9 13 -9 35q0 56 56 56q30 0 43 -15.5t13 -44.5q-1 -21 -12 -35q-9 -20 -22.5 -41t-27.5 -40t-26.5 -32.5t-19.5 -17.5z" />
    <glyph glyph-name="Lcaron" unicode="&#x13d;" 
d="M104 780h97v-698h357v-82h-454v780zM239 1046l85 -100l97 100h88l-148 -198h-75l-134 198h87z" />
    <glyph glyph-name="lcaron" unicode="&#x13e;" 
d="M113 82h169v611l-114 6v75h211v-692h165v-11q0 -15 1 -33t8 -38h-440v82zM239 1039l85 -100l97 100h86l-147 -197h-74l-134 197h87z" />
    <glyph glyph-name="Imacron" unicode="&#x12a;" 
d="M111 83h170v614h-144v83h378v-83h-137v-614h167v-11q0 -16 1 -33.5t8 -38.5h-443v83zM479 854h-299v73h299v-73z" />
    <glyph glyph-name="itilde" unicode="&#x129;" 
d="M111 82h174v406l-114 7v75h208v-488h164v-11q0 -15 1 -33t7 -38h-440v82zM256 796q39 0 61 -14t39 -29q17 -14 27.5 -20t23.5 -6q23 0 44.5 16.5t39.5 50.5l64 -46q-10 -19 -24 -38t-33 -34t-43 -24.5t-53 -9.5q-36 0 -57.5 13t-35.5 27q-13 12 -26 20.5t-30 8.5
q-21 0 -41.5 -15t-42.5 -54l-63 48q29 55 66.5 80.5t83.5 25.5z" />
    <glyph glyph-name="eogonek" unicode="&#x119;" 
d="M79 239v56q0 139 66.5 214.5t194.5 75.5q72 0 117.5 -24t71 -64.5t35 -94t9.5 -112.5v-25.5t-1 -25.5h-395q0 -33 11.5 -63t32.5 -52.5t50 -36t65 -13.5t76.5 18t89.5 65l58 -71q-45 -48 -102 -74t-120 -26q-57 0 -104.5 20.5t-82 55.5t-53.5 80.5t-19 96.5zM471 327v12
q0 77 -36 118.5t-108 41.5q-77 0 -111 -46t-38 -126h293zM591 -185q-46 -28 -86 -28t-70.5 24.5t-30.5 68.5q0 28 18 61t44 71h71q-24 -36 -40.5 -67t-16.5 -46q0 -16 14 -22t29 -6q9 0 23.5 7t28.5 17z" />
    <glyph glyph-name="Eogonek" unicode="&#x118;" 
d="M107 0v780h441v-97h-344v-224h285v-97h-285v-265h344v-97h-441zM593 -185q-46 -28 -86 -28t-70.5 24.5t-30.5 68.5q0 28 18 61t44 71h71q-24 -36 -40.5 -67t-16.5 -46q0 -16 14 -22t29 -6q9 0 23.5 7t28.5 17z" />
    <glyph glyph-name="Aogonek" unicode="&#x104;" 
d="M259 780h127l220 -780h-97l-62 216h-238l-58 -216h-97zM232 299h191l-97 337h-3zM639 -183q-46 -28 -86 -28t-70.5 24.5t-30.5 68.5q0 28 18 61t44 71h71q-24 -36 -40.5 -67t-16.5 -46q0 -16 14 -22t29 -6q9 0 23.5 7t28.5 17z" />
    <glyph glyph-name="aogonek" unicode="&#x105;" 
d="M414 327q15 0 30 -0.5t29 -0.5q-2 38 -14 69t-33 54t-49.5 35.5t-62.5 12.5q-36 0 -76.5 -18t-90.5 -65l-58 71q45 48 102 74t120 26q57 0 104.5 -20t82 -56t53.5 -85.5t19 -108.5v-308l-5 5v-12h-120q8 11 14.5 24t9.5 25q-26 -29 -70 -45.5t-102 -16.5
q-44 0 -83.5 10.5t-69.5 31t-47.5 51.5t-17.5 71q0 88 84 132t251 44zM178 151q0 -19 9 -34.5t24.5 -25.5t36 -15.5t44.5 -5.5q48 0 98 21.5t83 66.5v82h-55q-124 0 -182 -20.5t-58 -68.5zM591 -185q-46 -28 -86 -28t-70.5 24.5t-30.5 68.5q0 28 18 61t44 71h71
q-24 -36 -40.5 -67t-16.5 -46q0 -16 14 -22t29 -6q9 0 23.5 7t28.5 17z" />
    <glyph glyph-name="Iogonek" unicode="&#x12e;" 
d="M111 83h170v614h-144v83h378v-83h-137v-614h167v-11q0 -16 1 -33.5t8 -38.5h-443v83zM593 -185q-46 -28 -86 -28t-70.5 24.5t-30.5 68.5q0 28 18 61t44 71h71q-24 -36 -40.5 -67t-16.5 -46q0 -16 14 -22t29 -6q9 0 23.5 7t28.5 17z" />
    <glyph glyph-name="iogonek" unicode="&#x12f;" 
d="M111 82h174v406l-114 7v75h208v-488h164v-11q0 -15 1 -33t7 -38h-440v82zM254 723q0 67 68 67q67 0 67 -67q0 -68 -67 -68q-68 0 -68 68zM598 -180q-46 -28 -86 -28t-70.5 24.5t-30.5 68.5q0 28 18 61t44 71h71q-24 -36 -40.5 -67t-16.5 -46q0 -16 14 -22t29 -6
q9 0 23.5 7t28.5 17z" />
    <glyph glyph-name="Uogonek" unicode="&#x172;" 
d="M79 780h97v-563q0 -35 12 -61t33 -43.5t49.5 -26t61.5 -8.5q66 0 109 34t43 105v563h97v-568q0 -51 -15.5 -92.5t-47 -71.5t-78.5 -46.5t-109 -16.5t-109.5 16.5t-79 46.5t-47.5 71.5t-16 92.5v568zM477 -188q-46 -28 -86 -28t-70.5 24.5t-30.5 68.5q0 28 18 61t44 71h71
q-24 -36 -40.5 -67t-16.5 -46q0 -16 14 -22t29 -6q9 0 23.5 7t28.5 17z" />
    <glyph glyph-name="uogonek" unicode="&#x173;" 
d="M85 571h102v-327q0 -34 11 -65t30 -55t45.5 -38t57.5 -14q41 0 68.5 24.5t57.5 72.5v401h96v-499q0 -15 1 -33t8 -38h-105v61q-27 -35 -70 -55t-88 -20q-47 0 -86 22t-67.5 60.5t-44.5 89t-16 107.5v306zM598 -178q-46 -28 -86 -28t-70.5 24.5t-30.5 68.5q0 28 18 61
t44 71h71q-24 -36 -40.5 -67t-16.5 -46q0 -16 14 -22t29 -6q9 0 23.5 7t28.5 17z" />
    <glyph glyph-name="uni0162" unicode="&#x162;" 
d="M74 697v83h512v-83h-211v-697h-14l-12 -52q10 4 24.5 6t29.5 2q51 0 80 -27t29 -74q0 -53 -37 -79.5t-109 -26.5q-49 0 -81.5 14.5t-61.5 49.5l52 51q16 -24 35 -33t57 -9q37 0 53 8t16 27q0 37 -46 37q-17 0 -33 -5.5t-24 -13.5h-68l24 125h-11v697h-204z" />
    <glyph glyph-name="uni0163" unicode="&#x163;" 
d="M285 481v-275q0 -31 8.5 -54.5t23 -39t33 -23.5t38.5 -8q31 0 62 19.5t50 64.5l87 -39q-32 -70 -80.5 -103t-100.5 -37l-9 -38q22 8 53 8q51 0 80 -27t29 -74q0 -52 -37 -78.5t-108 -26.5q-49 0 -81 15t-61 50l52 50q16 -24 35 -33t57 -9q37 0 52.5 8t15.5 27
q0 17 -12.5 27t-33.5 10q-17 0 -33 -5.5t-23 -13.5h-68l23 116q-59 17 -101.5 67t-47.5 131v291h-89v89h89v211l97 -7v-204h237v-89h-237z" />
    <glyph glyph-name="uni021A" unicode="&#x21a;" 
d="M586 780v-83h-211v-697h-97v697h-204v83h512zM250 -239q2 4 8 15.5t13.5 27t15.5 34t15 35.5q-9 13 -9 35q0 56 56 56q30 0 43 -15.5t13 -44.5q-1 -21 -12 -35q-9 -20 -22.5 -41t-27.5 -40t-26.5 -32.5t-19.5 -17.5z" />
    <glyph glyph-name="uni021B" unicode="&#x21b;" 
d="M99 570h89v211l97 -6v-205h237v-89h-237v-275q0 -31 8.5 -54.5t23 -39t33 -23.5t38.5 -8q31 0 62 19.5t50 64.5l87 -39q-34 -74 -87.5 -107t-109.5 -33q-39 0 -75.5 15t-64.5 43t-45 69t-17 93v275h-89v89zM308 -248q2 4 8 15.5t13.5 27t15.5 34t15 35.5q-9 13 -9 35
q0 56 56 56q30 0 43 -15.5t13 -44.5q-1 -21 -12 -35q-9 -20 -22.5 -41t-27.5 -40t-26.5 -32.5t-19.5 -17.5z" />
    <glyph glyph-name="uni0219" unicode="&#x219;" 
d="M362 333q110 -21 157.5 -58.5t47.5 -103.5q0 -40 -16 -74t-46 -59t-72 -38.5t-94 -13.5q-152 0 -242 124l64 67q42 -51 86 -77.5t93 -26.5q27 0 51.5 8t43 21t29.5 31t11 37q0 25 -25 39t-91 27q-127 26 -182 68t-55 109q0 39 16 70.5t45.5 54t70.5 35t91 12.5
q72 0 128 -25t89 -73l-61 -62q-36 38 -70 54.5t-80 16.5q-30 0 -55 -6t-43 -16.5t-28.5 -24.5t-10.5 -31q0 -32 37 -51.5t111 -33.5zM261 -251q2 4 8 15.5t13.5 27t15.5 34t15 35.5q-9 13 -9 35q0 56 56 56q30 0 43 -15.5t13 -44.5q-1 -21 -12 -35q-9 -20 -22.5 -41
t-27.5 -40t-26.5 -32.5t-19.5 -17.5z" />
    <glyph glyph-name="uni0218" unicode="&#x218;" 
d="M323 -15q-83 0 -148.5 29t-96.5 80l67 60q56 -80 171 -80q79 0 124.5 35t45.5 103q0 60 -37.5 91t-112.5 44q-55 9 -101.5 29t-79.5 50t-51.5 69t-18.5 87q0 46 17.5 85t49.5 67.5t76 44.5t96 16q72 0 134 -29t95 -79l-64 -61q-20 22 -38 37t-36 24t-37 13t-43 4
q-75 0 -116.5 -31.5t-41.5 -85.5t45.5 -91t145.5 -56q52 -10 91.5 -26.5t66.5 -42.5t40.5 -62.5t13.5 -86.5q0 -61 -19.5 -105.5t-53.5 -73.5t-81 -43.5t-103 -14.5zM252 -251q2 4 8 15.5t13.5 27t15.5 34t15 35.5q-9 13 -9 35q0 56 56 56q30 0 43 -15.5t13 -44.5
q-1 -21 -12 -35q-9 -20 -22.5 -41t-27.5 -40t-26.5 -32.5t-19.5 -17.5z" />
    <glyph glyph-name="uni0227" unicode="&#x227;" 
d="M414 327q15 0 30 -0.5t29 -0.5q-2 38 -14 69t-33 54t-49.5 35.5t-62.5 12.5q-36 0 -76.5 -18t-90.5 -65l-58 71q45 48 102 74t120 26q57 0 104.5 -20t82 -56t53.5 -85.5t19 -108.5v-308l-5 5v-12h-120q8 11 14.5 24t9.5 25q-26 -29 -70 -45.5t-102 -16.5
q-44 0 -83.5 10.5t-69.5 31t-47.5 51.5t-17.5 71q0 88 84 132t251 44zM178 151q0 -19 9 -34.5t24.5 -25.5t36 -15.5t44.5 -5.5q48 0 98 21.5t83 66.5v82h-55q-124 0 -182 -20.5t-58 -68.5zM261 714q0 33 18 50.5t51 17.5q68 0 68 -68q0 -69 -68 -69q-69 0 -69 69z" />
    <glyph glyph-name="uni0226" unicode="&#x226;" 
d="M259 780h127l220 -780h-97l-62 216h-238l-58 -216h-97zM232 299h191l-97 337h-3zM254 924q0 33 18 50.5t51 17.5q68 0 68 -68q0 -69 -68 -69q-69 0 -69 69z" />
    <glyph glyph-name="uni0228" unicode="&#x228;" 
d="M107 0v780h441v-97h-344v-224h285v-97h-285v-265h344v-97h-441zM352 -251q-49 0 -81 14.5t-61 50.5l52 51q16 -25 35 -34t57 -9q37 0 53 8t16 27q0 37 -46 37q-17 0 -33 -5.5t-24 -13.5h-68l27 139h72l-15 -66q10 4 24.5 6t28.5 2q51 0 80.5 -27t29.5 -75
q0 -52 -37.5 -78.5t-109.5 -26.5z" />
    <glyph glyph-name="uni0229" unicode="&#x229;" 
d="M79 239v56q0 139 66.5 214.5t194.5 75.5q72 0 117.5 -24t71 -64.5t35 -94t9.5 -112.5v-25.5t-1 -25.5h-395q0 -33 11.5 -63t32.5 -52.5t50 -36t65 -13.5t76.5 18t89.5 65l58 -71q-45 -48 -102 -74t-120 -26q-57 0 -104.5 20.5t-82 55.5t-53.5 80.5t-19 96.5zM471 327v12
q0 77 -36 118.5t-108 41.5q-77 0 -111 -46t-38 -126h293zM352 -251q-49 0 -81 14.5t-61 50.5l52 51q16 -25 35 -34t57 -9q37 0 53 8t16 27q0 37 -46 37q-17 0 -33 -5.5t-24 -13.5h-68l27 139h72l-15 -66q10 4 24.5 6t28.5 2q51 0 80.5 -27t29.5 -75q0 -52 -37.5 -78.5
t-109.5 -26.5z" />
    <glyph glyph-name="uni022E" unicode="&#x22e;" 
d="M330 -15q-67 0 -119 26.5t-88 76.5t-54.5 123t-18.5 166q0 204 73 311.5t205 107.5q66 0 118.5 -27.5t88.5 -81t55.5 -132t19.5 -180.5q0 -92 -18.5 -164.5t-54.5 -122.5t-88 -76.5t-119 -26.5zM332 79q85 0 125.5 71.5t40.5 223.5q0 176 -43.5 256.5t-124.5 80.5
q-80 0 -124 -80.5t-44 -254.5q0 -154 42.5 -225.5t127.5 -71.5zM261 924q0 33 18 50.5t51 17.5q68 0 68 -68q0 -69 -68 -69q-69 0 -69 69z" />
    <glyph glyph-name="uni022F" unicode="&#x22f;" 
d="M329 -14q-60 0 -108 20.5t-82.5 59t-53 93.5t-18.5 124q0 68 18 123.5t52 95.5t82 61.5t108 21.5q61 0 110 -22t83.5 -61.5t53.5 -95.5t19 -124t-19 -123t-53.5 -93.5t-83 -59t-108.5 -20.5zM332 70q72 0 112.5 54.5t40.5 157.5t-41 162t-114 59q-74 0 -114.5 -58.5
t-40.5 -160.5q0 -103 41.5 -158.5t115.5 -55.5zM258 729q0 33 18 50.5t51 17.5q68 0 68 -68q0 -69 -68 -69q-69 0 -69 69z" />
    <glyph glyph-name="uni01EA" unicode="&#x1ea;" 
d="M330 -15q-67 0 -119 26.5t-88 76.5t-54.5 123t-18.5 166q0 204 73 311.5t205 107.5q66 0 118.5 -27.5t88.5 -81t55.5 -132t19.5 -180.5q0 -92 -18.5 -164.5t-54.5 -122.5t-88 -76.5t-119 -26.5zM332 79q85 0 125.5 71.5t40.5 223.5q0 176 -43.5 256.5t-124.5 80.5
q-80 0 -124 -80.5t-44 -254.5q0 -154 42.5 -225.5t127.5 -71.5zM439 -187q-46 -28 -86 -28t-70.5 24.5t-30.5 68.5q0 28 18 61t44 71h71q-24 -36 -40.5 -67t-16.5 -46q0 -16 14 -22t29 -6q9 0 23.5 7t28.5 17z" />
    <glyph glyph-name="uni01EB" unicode="&#x1eb;" 
d="M329 -14q-60 0 -108 20.5t-82.5 59t-53 93.5t-18.5 124q0 68 18 123.5t52 95.5t82 61.5t108 21.5q61 0 110 -22t83.5 -61.5t53.5 -95.5t19 -124t-19 -123t-53.5 -93.5t-83 -59t-108.5 -20.5zM332 70q72 0 112.5 54.5t40.5 157.5t-41 162t-114 59q-74 0 -114.5 -58.5
t-40.5 -160.5q0 -103 41.5 -158.5t115.5 -55.5zM438 -187q-46 -28 -86 -28t-70.5 24.5t-30.5 68.5q0 28 18 61t44 71h71q-24 -36 -40.5 -67t-16.5 -46q0 -16 14 -22t29 -6q9 0 23.5 7t28.5 17z" />
    <glyph glyph-name="uni01EC" unicode="&#x1ec;" 
d="M330 -15q-67 0 -119 26.5t-88 76.5t-54.5 123t-18.5 166q0 204 73 311.5t205 107.5q66 0 118.5 -27.5t88.5 -81t55.5 -132t19.5 -180.5q0 -92 -18.5 -164.5t-54.5 -122.5t-88 -76.5t-119 -26.5zM332 79q85 0 125.5 71.5t40.5 223.5q0 176 -43.5 256.5t-124.5 80.5
q-80 0 -124 -80.5t-44 -254.5q0 -154 42.5 -225.5t127.5 -71.5zM439 -187q-46 -28 -86 -28t-70.5 24.5t-30.5 68.5q0 28 18 61t44 71h71q-24 -36 -40.5 -67t-16.5 -46q0 -16 14 -22t29 -6q9 0 23.5 7t28.5 17zM479 854h-299v73h299v-73z" />
    <glyph glyph-name="uni01ED" unicode="&#x1ed;" 
d="M329 -14q-60 0 -108 20.5t-82.5 59t-53 93.5t-18.5 124q0 68 18 123.5t52 95.5t82 61.5t108 21.5q61 0 110 -22t83.5 -61.5t53.5 -95.5t19 -124t-19 -123t-53.5 -93.5t-83 -59t-108.5 -20.5zM332 70q72 0 112.5 54.5t40.5 157.5t-41 162t-114 59q-74 0 -114.5 -58.5
t-40.5 -160.5q0 -103 41.5 -158.5t115.5 -55.5zM438 -187q-46 -28 -86 -28t-70.5 24.5t-30.5 68.5q0 28 18 61t44 71h71q-24 -36 -40.5 -67t-16.5 -46q0 -16 14 -22t29 -6q9 0 23.5 7t28.5 17zM476 659h-299v73h299v-73z" />
    <glyph glyph-name="uni01CD" unicode="&#x1cd;" 
d="M259 780h127l220 -780h-97l-62 216h-238l-58 -216h-97zM232 299h191l-97 337h-3zM151 1050h87l85 -100l97 100h88l-148 -199h-75z" />
    <glyph glyph-name="uni01CE" unicode="&#x1ce;" 
d="M414 327q15 0 30 -0.5t29 -0.5q-2 38 -14 69t-33 54t-49.5 35.5t-62.5 12.5q-36 0 -76.5 -18t-90.5 -65l-58 71q45 48 102 74t120 26q57 0 104.5 -20t82 -56t53.5 -85.5t19 -108.5v-308l-5 5v-12h-120q8 11 14.5 24t9.5 25q-26 -29 -70 -45.5t-102 -16.5
q-44 0 -83.5 10.5t-69.5 31t-47.5 51.5t-17.5 71q0 88 84 132t251 44zM178 151q0 -19 9 -34.5t24.5 -25.5t36 -15.5t44.5 -5.5q48 0 98 21.5t83 66.5v82h-55q-124 0 -182 -20.5t-58 -68.5zM151 840h87l85 -100l97 100h88l-148 -199h-75z" />
    <glyph glyph-name="uni01CF" unicode="&#x1cf;" 
d="M111 83h170v614h-144v83h378v-83h-137v-614h167v-11q0 -16 1 -33.5t8 -38.5h-443v83zM151 1050h87l85 -100l97 100h88l-148 -199h-75z" />
    <glyph glyph-name="uni01D0" unicode="&#x1d0;" 
d="M111 82h174v406l-114 7v75h208v-488h164v-11q0 -15 1 -33t7 -38h-440v82zM151 840h87l85 -100l97 100h88l-148 -199h-75z" />
    <glyph glyph-name="uni01D1" unicode="&#x1d1;" 
d="M330 -15q-67 0 -119 26.5t-88 76.5t-54.5 123t-18.5 166q0 204 73 311.5t205 107.5q66 0 118.5 -27.5t88.5 -81t55.5 -132t19.5 -180.5q0 -92 -18.5 -164.5t-54.5 -122.5t-88 -76.5t-119 -26.5zM332 79q85 0 125.5 71.5t40.5 223.5q0 176 -43.5 256.5t-124.5 80.5
q-80 0 -124 -80.5t-44 -254.5q0 -154 42.5 -225.5t127.5 -71.5zM151 1050h87l85 -100l97 100h88l-148 -199h-75z" />
    <glyph glyph-name="uni01D2" unicode="&#x1d2;" 
d="M329 -14q-60 0 -108 20.5t-82.5 59t-53 93.5t-18.5 124q0 68 18 123.5t52 95.5t82 61.5t108 21.5q61 0 110 -22t83.5 -61.5t53.5 -95.5t19 -124t-19 -123t-53.5 -93.5t-83 -59t-108.5 -20.5zM332 70q72 0 112.5 54.5t40.5 157.5t-41 162t-114 59q-74 0 -114.5 -58.5
t-40.5 -160.5q0 -103 41.5 -158.5t115.5 -55.5zM151 840h87l85 -100l97 100h88l-148 -199h-75z" />
    <glyph glyph-name="uni01D3" unicode="&#x1d3;" 
d="M79 780h97v-563q0 -35 12 -61t33 -43.5t49.5 -26t61.5 -8.5q66 0 109 34t43 105v563h97v-568q0 -51 -15.5 -92.5t-47 -71.5t-78.5 -46.5t-109 -16.5t-109.5 16.5t-79 46.5t-47.5 71.5t-16 92.5v568zM151 1050h87l85 -100l97 100h88l-148 -199h-75z" />
    <glyph glyph-name="uni01D4" unicode="&#x1d4;" 
d="M85 571h102v-327q0 -34 11 -65t30 -55t45.5 -38t57.5 -14q41 0 68.5 24.5t57.5 72.5v401h96v-499q0 -15 1 -33t8 -38h-105v61q-27 -35 -70 -55t-88 -20q-47 0 -86 22t-67.5 60.5t-44.5 89t-16 107.5v306zM151 840h87l85 -100l97 100h88l-148 -199h-75z" />
    <glyph glyph-name="uni0189" unicode="&#x189;" 
d="M271 780q86 0 146 -21.5t97.5 -67.5t55 -119t17.5 -176q0 -396 -247 -396h-257v780h188zM492 407q-2 141 -44 206.5t-128 65.5h-140v-272h312zM180 314v-217h160q63 0 100.5 55t48.5 162h-309z" />
    <glyph glyph-name="uni01F8" unicode="&#x1f8;" 
d="M186 780l291 -564v564h98v-780h-101l-291 587v-587h-97v780h100zM185 997l53 86l235 -167l-35 -63z" />
    <glyph glyph-name="uni01F9" unicode="&#x1f9;" 
d="M101 0v570h125q-5 -8 -11 -19t-11 -24q28 26 70.5 42t86.5 16q55 0 94 -25t64 -65.5t37 -92.5t12 -105v-226q0 -15 1 -33t8 -38h-112v317q0 36 -10 67t-28.5 54.5t-45.5 37t-61 13.5q-47 0 -75.5 -23t-47.5 -56v-410h-96zM185 787l53 86l235 -167l-35 -63z" />
    <glyph glyph-name="uni0232" unicode="&#x232;" 
d="M127 780l196 -344l209 344h104l-266 -457v-323h-97v323l-250 457h104zM479 854h-299v73h299v-73z" />
    <glyph glyph-name="uni0233" unicode="&#x233;" 
d="M179 570q6 -38 20.5 -88t35 -105.5t44.5 -114t49 -113.5q23 62 45 124t40.5 117.5t32 102t19.5 77.5h108q-10 -41 -30 -102t-46 -132t-55.5 -148.5t-59.5 -151.5q1 -2 2 -3.5t2 -3.5h-7q-11 -27 -21 -53t-21 -51q-29 -68 -69.5 -100.5t-101.5 -32.5q-9 0 -21.5 1t-29.5 4
l18 79q11 -3 16.5 -3.5t10.5 -0.5q32 0 54 22.5t38 60.5l16 40t16 41q-31 57 -63.5 129.5t-60.5 146t-48.5 141.5t-28.5 117h96zM479 644h-299v73h299v-73z" />
    <glyph glyph-name="uni021E" unicode="&#x21e;" 
d="M174 780v-363h308v363h98v-708q0 -16 1 -33.5t7 -38.5h-106v334h-308v-334h-97v780h97zM152 1046h87l85 -100l97 100h88l-148 -199h-75z" />
    <glyph glyph-name="uni021F" unicode="&#x21f;" 
d="M90 781l97 -6v-254q27 29 71.5 46.5t89.5 17.5q56 0 95.5 -25t65 -65.5t37 -92.5t11.5 -105v-226q0 -15 1 -33t8 -38h-111v317q0 36 -10 67t-29 54.5t-46.5 37t-62.5 13.5q-45 0 -73.5 -23t-46.5 -55v-411h-97v781zM152 1019h87l85 -100l97 100h88l-148 -199h-75z" />
    <glyph glyph-name="alpha" unicode="&#x3b1;" 
d="M318 585q54 0 94 -17t71 -54v56h97v-499q0 -15 1 -33t7 -38h-105v36q-32 -24 -70.5 -37t-82.5 -13q-58 0 -106.5 22.5t-83 63.5t-53.5 99t-19 129q0 137 66 211t184 74zM332 79q58 0 94.5 19.5t56.5 59.5v236q-27 49 -69.5 76.5t-91.5 27.5q-72 0 -114.5 -54t-42.5 -145
q0 -48 12.5 -88.5t34.5 -69.5t52.5 -45.5t67.5 -16.5z" />
    <glyph glyph-name="Iotadieresis" unicode="&#x3aa;" 
d="M281 83v614h-144v83h378v-83h-137v-614h167v-11q0 -16 1 -33.5t8 -38.5h-443v83h170zM360 938q0 33 18 50.5t51 17.5q68 0 68 -68q0 -69 -68 -69q-69 0 -69 69zM164 938q0 68 68 68t68 -68q0 -69 -68 -69t-68 69z" />
    <glyph glyph-name="Upsilondieresis" unicode="&#x3ab;" 
d="M127 780l196 -344l209 344h104l-266 -457v-323h-97v323l-250 457h104zM358 924q0 33 18 50.5t51 17.5q68 0 68 -68q0 -69 -68 -69q-69 0 -69 69zM162 924q0 68 68 68t68 -68q0 -69 -68 -69t-68 69z" />
    <glyph glyph-name="onesuperior" unicode="&#xb9;" 
d="M307 425v267q-14 -9 -38 -15t-56 -11l-8 58q40 8 65 22.5t39 33.5h65v-355h-67z" />
    <glyph glyph-name="twosuperior" unicode="&#xb2;" 
d="M405 702q0 19 -17 28.5t-49 9.5q-25 0 -47.5 -10t-42.5 -36l-53 24q20 34 57.5 55.5t82.5 21.5q29 0 53.5 -7.5t43.5 -20t29.5 -29t10.5 -35.5q0 -21 -10 -40.5t-27 -39t-39 -38.5t-46 -39q-19 -16 -31.5 -25.5t-29.5 -26.5h192v-56h-289v52q21 21 44 39.5t47 37.5
q23 18 45 35t39 34t27 33.5t10 32.5z" />
    <glyph glyph-name="threesuperior" unicode="&#xb3;" 
d="M217 746q14 23 46 36t67 13q26 0 51.5 -7t45 -19.5t31.5 -31t12 -41.5q0 -25 -13.5 -46t-38.5 -34q26 -13 42.5 -36t16.5 -52q0 -23 -11.5 -41.5t-32 -31t-48.5 -19.5t-61 -7q-48 0 -78.5 16.5t-52.5 48.5l43 32q20 -23 40 -32.5t54 -9.5q35 0 55 9t20 35q0 61 -90 61
h-30v52h30q42 0 63 15t21 40q0 27 -22.5 35.5t-52.5 8.5q-21 0 -39.5 -7t-29.5 -25z" />
    <glyph glyph-name="wdieresis" unicode="&#x1e85;" 
d="M55 585h96q0 -116 15 -218t39 -201q13 35 24.5 67t21.5 64t18 65.5t15 70.5h96q6 -37 13.5 -70.5t16 -65.5t19 -64t22.5 -67q26 99 41 201t15 218h97q0 -78 -8.5 -153t-23 -147.5t-32.5 -143t-38 -141.5h-89q-27 72 -48.5 135t-35.5 130q-6 -25 -14 -50.5t-19 -56.5
t-25.5 -69.5t-34.5 -88.5h-89q-17 71 -33.5 141.5t-29.5 143t-21 147.5t-8 153zM359 714q0 33 18 50.5t51 17.5q68 0 68 -68q0 -69 -68 -69q-69 0 -69 69zM163 714q0 68 68 68t68 -68q0 -69 -68 -69t-68 69z" />
    <glyph glyph-name="Wdieresis" unicode="&#x1e84;" 
d="M43 780h98q0 -59 2.5 -141t8.5 -168.5t15 -166.5t22 -136q20 55 35 98t26 78t18.5 64.5t13.5 57.5h96q5 -28 12 -57t17.5 -64.5t25 -78.5t34.5 -99q14 56 23.5 136.5t16 167t9.5 168.5t3 141h97q0 -52 -3.5 -116.5t-9.5 -135.5t-15 -144.5t-19.5 -143t-23 -131
t-25.5 -109.5h-90q-13 36 -28 76t-28.5 81t-25.5 81.5t-20 77.5q-9 -37 -21.5 -77.5t-26.5 -81.5t-29.5 -81t-29.5 -76h-90q-11 48 -22 109.5t-21 131t-18 143t-14 144.5t-9.5 135.5t-3.5 116.5zM359 924q0 33 18 50.5t51 17.5q68 0 68 -68q0 -69 -68 -69q-69 0 -69 69z
M163 924q0 68 68 68t68 -68q0 -69 -68 -69t-68 69z" />
    <glyph glyph-name="wacute" unicode="&#x1e83;" 
d="M55 585h96q0 -116 15 -218t39 -201q13 35 24.5 67t21.5 64t18 65.5t15 70.5h96q6 -37 13.5 -70.5t16 -65.5t19 -64t22.5 -67q26 99 41 201t15 218h97q0 -78 -8.5 -153t-23 -147.5t-32.5 -143t-38 -141.5h-89q-27 72 -48.5 135t-35.5 130q-6 -25 -14 -50.5t-19 -56.5
t-25.5 -69.5t-34.5 -88.5h-89q-17 71 -33.5 141.5t-29.5 143t-21 147.5t-8 153zM221 643l-35 63l235 167l53 -86z" />
    <glyph glyph-name="Wacute" unicode="&#x1e82;" 
d="M43 780h98q0 -59 2.5 -141t8.5 -168.5t15 -166.5t22 -136q20 55 35 98t26 78t18.5 64.5t13.5 57.5h96q5 -28 12 -57t17.5 -64.5t25 -78.5t34.5 -99q14 56 23.5 136.5t16 167t9.5 168.5t3 141h97q0 -52 -3.5 -116.5t-9.5 -135.5t-15 -144.5t-19.5 -143t-23 -131
t-25.5 -109.5h-90q-13 36 -28 76t-28.5 81t-25.5 81.5t-20 77.5q-9 -37 -21.5 -77.5t-26.5 -81.5t-29.5 -81t-29.5 -76h-90q-11 48 -22 109.5t-21 131t-18 143t-14 144.5t-9.5 135.5t-3.5 116.5zM221 853l-35 63l235 167l53 -86z" />
    <glyph glyph-name="wgrave" unicode="&#x1e81;" 
d="M55 585h96q0 -116 15 -218t39 -201q13 35 24.5 67t21.5 64t18 65.5t15 70.5h96q6 -37 13.5 -70.5t16 -65.5t19 -64t22.5 -67q26 99 41 201t15 218h97q0 -78 -8.5 -153t-23 -147.5t-32.5 -143t-38 -141.5h-89q-27 72 -48.5 135t-35.5 130q-6 -25 -14 -50.5t-19 -56.5
t-25.5 -69.5t-34.5 -88.5h-89q-17 71 -33.5 141.5t-29.5 143t-21 147.5t-8 153zM185 787l53 86l235 -167l-35 -63z" />
    <glyph glyph-name="Wgrave" unicode="&#x1e80;" 
d="M43 780h98q0 -59 2.5 -141t8.5 -168.5t15 -166.5t22 -136q20 55 35 98t26 78t18.5 64.5t13.5 57.5h96q5 -28 12 -57t17.5 -64.5t25 -78.5t34.5 -99q14 56 23.5 136.5t16 167t9.5 168.5t3 141h97q0 -52 -3.5 -116.5t-9.5 -135.5t-15 -144.5t-19.5 -143t-23 -131
t-25.5 -109.5h-90q-13 36 -28 76t-28.5 81t-25.5 81.5t-20 77.5q-9 -37 -21.5 -77.5t-26.5 -81.5t-29.5 -81t-29.5 -76h-90q-11 48 -22 109.5t-21 131t-18 143t-14 144.5t-9.5 135.5t-3.5 116.5zM185 997l53 86l235 -167l-35 -63z" />
    <glyph glyph-name="Delta" unicode="&#x2206;" 
d="M607 83v-83h-555v83l228 697h93zM153 89h351l-176 540z" />
    <glyph glyph-name="lira" unicode="&#x20a4;" 
d="M292 437q1 -10 1 -19.5v-19.5v-6h181l-6 -83h-180q-7 -55 -25.5 -112t-55.5 -115h351v-82h-454v87q41 61 60 116t26 106h-107l6 83h106q0 12 -0.5 23t-0.5 22h-111l6 83h101q-1 14 -1 27.5v27.5q0 106 50 163t144 57q64 0 112 -27.5t74 -75.5l-61 -59q-23 34 -58 53
t-70 19q-45 0 -69.5 -32.5t-24.5 -101.5v-12t1 -16v-7t1 -8v-8h186l-6 -83h-176z" />
    <glyph glyph-name="franc" unicode="&#x20a3;" 
d="M79 255h58v525h441v-97h-344v-279h285v-98h-285v-51h242v-92h-242v-163h-97v163h-58v92z" />
    <glyph glyph-name="uni02C9" unicode="&#x2c9;" 
d="M481 648h-299v73h299v-73z" />
    <glyph glyph-name="uni2215" unicode="&#x2215;" 
d="M593 798l-453 -935l-72 45l453 935z" />
    <glyph glyph-name="uni2219" unicode="&#x2219;" 
d="M225 317q0 48 25.5 73t73.5 25q98 0 98 -98q0 -99 -98 -99q-99 0 -99 99z" />
    <glyph glyph-name="uni00A0" unicode="&#xa0;" 
 />
    <glyph glyph-name="uni00AD" unicode="&#xad;" 
d="M529 255h-397v93h397v-93z" />
    <glyph glyph-name="tcaron" unicode="&#x165;" 
d="M285 481v-275q0 -31 8.5 -54.5t23 -39t33 -23.5t38.5 -8q31 0 62 19.5t50 64.5l87 -39q-34 -75 -87.5 -108t-109.5 -33q-39 0 -75.5 15t-64.5 43t-45 69.5t-17 93.5v275h-89v89h89v211l97 -7v-204h237v-89h-237zM115 1029h87l85 -99l97 99h86l-147 -197h-74z" />
    <glyph glyph-name="uni22CA" unicode="&#x22ca;" 
d="M252 322l-197 205l53 79l208 -217l215 225h85v-585h-84l-216 226l-218 -228l-53 78zM380 322l149 -156v311z" />
    <glyph glyph-name="x.hex.liga" horiz-adv-x="644" 
d="M109 190l163 158l-163 157l68 68l164 -159l165 159l67 -68l-163 -157l163 -158l-67 -67l-165 158l-164 -158z" />
    <glyph glyph-name="Gcaron" unicode="&#x1e6;" 
d="M600 282q0 -67 -19.5 -122t-54.5 -94t-85 -60t-111 -21q-67 0 -119.5 26t-88 75t-54 120t-18.5 162q0 99 22 178.5t61.5 135t95.5 85t125 29.5q63 0 119.5 -29.5t111.5 -96.5l-76 -63q-21 26 -40 44.5t-37 30t-36.5 16.5t-40.5 5q-95 0 -146.5 -84t-51.5 -244
q0 -146 44.5 -221.5t132.5 -75.5q38 0 70 14t55 39.5t36.5 62t14.5 81.5h-180v83h270v-76zM151 1050h87l85 -100l97 100h88l-148 -199h-75z" />
    <glyph glyph-name="gcaron" unicode="&#x1e7;" 
d="M62 327q0 59 17 106.5t48.5 81.5t77 52t102.5 18q106 0 166 -66v51h106q-7 -20 -8 -38t-1 -33v-485q0 -43 -17 -78t-48.5 -59.5t-76 -38t-98.5 -13.5q-39 0 -76.5 7t-70.5 19.5t-59.5 30.5t-43.5 39l59 71q33 -38 82 -58.5t112 -20.5q140 0 140 101v94q-38 -26 -80.5 -40
t-87.5 -14q-55 0 -99.5 20t-76.5 56t-49.5 86.5t-17.5 110.5zM156 326q0 -37 11.5 -70t33 -57.5t51.5 -38.5t67 -14q47 0 88.5 22.5t65.5 61.5v170q-27 49 -69 75t-91 26q-35 0 -64 -13.5t-49.5 -37t-32 -55.5t-11.5 -69zM151 840h87l85 -100l97 100h88l-148 -199h-75z" />
    <glyph glyph-name="uni01E8" unicode="&#x1e8;" 
d="M88 0v780h97v-348l286 348h129l-324 -400l354 -380h-144l-276 298l-25 -31v-267h-97zM151 1050h87l85 -100l97 100h88l-148 -199h-75z" />
    <glyph glyph-name="uni01E9" unicode="&#x1e9;" 
d="M209 775v-422l248 217h137l-288 -260l319 -310h-149l-246 241l-21 -19v-222h-97v781zM151 1020h87l85 -100l97 100h88l-148 -199h-75z" />
  </font>
</defs>
</svg>
