<?xml version="1.0" encoding="UTF-8"?>
<svg xmlns="http://www.w3.org/2000/svg" xmlns:xlink="http://www.w3.org/1999/xlink" version="1.2" >
<font id="Operator Mono Light Italic">
<font-face  font-family="Operator Mono" units-per-em="1000" ascent="800" descent="-200" font-style="italic" font-weight="300" font-stretch="normal" slope="-11" cap-height="620" x-height="484" underline-position="-75" underline-thickness="49" />
<missing-glyph  horiz-adv-x="550" d="M8 -200 L548 -200 L533 800 L-7 800 L8 -200 Z M70 750 L457 750 L269 360 L70 750 Z M481 676 L492 -76 L301 300 L481 676 Z M60 -76 L49 676 L240 300 L60 -76 Z M271 240 L471 -150 L84 -150 L271 240 Z " />
<glyph glyph-name="CR" unicode="&#xd;" horiz-adv-x="250" d="" />
<glyph glyph-name="space" unicode="&#x20;" horiz-adv-x="550" d="" />
<glyph glyph-name="exclam" unicode="&#x21;" horiz-adv-x="550" d="M287 226 C312 342 368 553 398 675 L320 675 C299 553 270 342 248 226 L287 226 Z M263 0 L283 96 L193 96 L173 0 L263 0 Z " />
<glyph glyph-name="quotedbl" unicode="&#x22;" horiz-adv-x="550" d="M422 387 L503 634 L506 666 L430 666 L381 387 L422 387 Z M210 387 L291 634 L294 666 L218 666 L169 387 L210 387 Z " />
<glyph glyph-name="numbersign" unicode="&#x23;" horiz-adv-x="550" d="M199 226 L239 385 L376 407 L336 247 L199 226 Z M138 -12 L185 173 L322 194 L275 8 L321 13 L369 201 L477 218 L489 271 L382 254 L423 414 L530 431 L542 484 L436 468 L482 648 L436 642 L390 460 L253 439 L300 622 L254 617 L207 432 L98 415 L87 361 L193 378 L152 219 L45 202 L33 149 L139 165 L92 -17 L138 -12 Z " />
<glyph glyph-name="dollar" unicode="&#x24;" horiz-adv-x="550" d="M198 480 C198 517 238 551 342 545 L285 356 C238 400 198 442 198 480 L198 480 Z M390 143 C390 105 345 70 239 72 L299 269 C348 223 390 181 390 143 L390 143 Z M200 -85 L228 22 C385 21 447 83 447 144 C447 205 382 267 318 325 L384 541 C420 536 461 527 509 513 L520 569 C477 580 439 587 404 591 L441 704 L386 704 L352 595 C200 600 140 539 140 476 C140 416 202 356 265 299 L197 75 C157 79 109 88 53 103 L40 46 C91 35 137 28 178 24 L146 -84 L200 -85 Z " />
<glyph glyph-name="percent" unicode="&#x25;" horiz-adv-x="550" d="M298 537 C298 599 266 633 221 633 C153 633 101 553 101 457 C101 395 133 361 179 361 C246 361 298 441 298 537 L298 537 Z M96 -5 L546 594 L509 625 L60 25 L96 -5 Z M247 537 C247 472 219 409 185 409 C166 409 152 421 152 457 C152 522 180 585 214 585 C233 585 247 573 247 537 L247 537 Z M307 82 C307 20 339 -14 385 -14 C452 -14 504 66 504 162 C504 224 472 258 427 258 C360 258 307 178 307 82 L307 82 Z M358 83 C358 147 386 210 420 210 C439 210 453 199 453 162 C453 97 425 34 391 34 C373 34 358 46 358 83 L358 83 Z " />
<glyph glyph-name="ampersand" unicode="&#x26;" horiz-adv-x="550" d="M474 -18 L519 23 C468 71 425 117 391 165 C433 216 474 277 514 349 L462 368 C430 305 397 251 363 206 C321 275 297 345 292 421 C349 481 384 546 384 596 C384 625 367 640 343 640 C299 640 243 537 240 437 C116 326 22 213 22 105 C22 33 62 -10 132 -10 C195 -10 273 35 352 119 C386 73 427 27 474 -18 L474 -18 Z M148 45 C106 45 80 71 80 117 C80 198 153 290 243 379 C252 303 280 230 325 159 C258 83 195 45 148 45 L148 45 Z " />
<glyph glyph-name="quotesingle" unicode="&#x27;" horiz-adv-x="550" d="M318 387 L401 634 L403 666 L325 666 L277 387 L318 387 Z " />
<glyph glyph-name="parenleft" unicode="&#x28;" horiz-adv-x="550" d="M502 714 C233 536 124 383 124 216 C124 93 186 -41 337 -201 L383 -166 C241 -19 181 103 181 217 C181 367 273 506 534 671 L502 714 Z " />
<glyph glyph-name="parenright" unicode="&#x29;" horiz-adv-x="550" d="M43 -213 C312 -35 421 118 421 284 C421 408 359 541 208 702 L161 667 C304 520 364 398 364 284 C364 133 272 -6 11 -170 L43 -213 Z " />
<glyph glyph-name="asterisk" unicode="&#x2a;" horiz-adv-x="550" d="M366 283 L400 296 L363 449 L519 472 L519 508 L360 522 L387 678 L350 688 L288 541 L149 614 L128 584 L250 480 L137 370 L160 342 L295 424 L366 283 Z " />
<glyph glyph-name="plus" unicode="&#x2b;" horiz-adv-x="550" d="M494 264 L504 314 L316 314 L354 508 L300 508 L262 314 L75 314 L65 264 L253 264 L215 71 L269 71 L307 264 L494 264 Z " />
<glyph glyph-name="comma" unicode="&#x2c;" horiz-adv-x="550" d="M119 -171 L143 -186 C248 -99 291 -20 296 103 L205 100 C222 -18 204 -85 119 -171 L119 -171 Z " />
<glyph glyph-name="hyphen" unicode="&#x2d;" horiz-adv-x="550" d="M428 315 L133 315 L124 264 L419 264 L428 315 Z " />
<glyph glyph-name="period" unicode="&#x2e;" horiz-adv-x="550" d="M278 0 L298 100 L207 100 L187 0 L278 0 Z " />
<glyph glyph-name="slash" unicode="&#x2f;" horiz-adv-x="550" d="M561 712 L-57 -164 L-4 -178 L608 689 L561 712 Z " />
<glyph glyph-name="zero" unicode="0" horiz-adv-x="550" d="M65 217 C65 65 132 -11 234 -11 C392 -11 512 188 512 404 C512 555 444 631 343 631 C185 631 65 433 65 217 L65 217 Z M331 580 C401 580 446 528 452 422 L125 251 C133 419 217 580 331 580 L331 580 Z M246 40 C175 40 130 93 125 201 L452 371 C445 202 361 40 246 40 L246 40 Z " />
<glyph glyph-name="one" unicode="1" horiz-adv-x="550" d="M439 0 L453 52 L298 52 L413 647 L353 643 L338 566 L173 546 L166 502 L328 511 L239 52 L67 52 L57 0 L439 0 Z " />
<glyph glyph-name="two" unicode="2" horiz-adv-x="550" d="M435 0 L446 53 L127 53 C362 214 497 324 497 465 C497 590 387 651 167 615 L158 558 C364 590 438 540 438 450 C438 328 295 220 44 49 L45 0 L435 0 Z " />
<glyph glyph-name="three" unicode="3" horiz-adv-x="550" d="M469 168 C469 236 412 302 238 347 L523 569 L529 620 L173 620 L163 567 L455 567 L168 346 L163 316 C353 271 412 217 412 158 C412 95 348 28 64 58 L57 0 C374 -29 469 76 469 168 L469 168 Z " />
<glyph glyph-name="four" unicode="4" horiz-adv-x="550" d="M482 138 L498 191 L420 191 L464 418 L407 413 L364 191 L118 191 C198 314 257 424 321 623 L257 626 C199 433 143 317 59 178 L57 138 L354 138 L327 0 L383 0 L410 138 L482 138 Z " />
<glyph glyph-name="five" unicode="5" horiz-adv-x="550" d="M465 192 C465 266 402 337 200 378 L246 567 L511 567 L526 620 L204 620 L135 338 C343 303 409 244 409 180 C409 108 329 31 62 58 L55 0 C357 -26 465 88 465 192 L465 192 Z " />
<glyph glyph-name="six" unicode="6" horiz-adv-x="550" d="M256 -10 C377 -10 475 81 475 211 C475 379 294 437 142 299 C172 405 263 520 480 586 L466 642 C172 545 73 355 73 196 C73 56 152 -10 256 -10 L256 -10 Z M268 40 C194 40 130 87 130 211 C130 225 131 239 133 253 C273 383 419 334 419 202 C419 111 360 40 268 40 L268 40 Z " />
<glyph glyph-name="seven" unicode="7" horiz-adv-x="550" d="M174 -4 C276 190 401 386 547 572 L557 620 L161 620 L150 566 L481 566 L481 563 C336 381 214 192 112 3 L174 -4 Z " />
<glyph glyph-name="eight" unicode="8" horiz-adv-x="550" d="M444 144 C444 211 381 273 319 333 C373 366 442 405 528 451 L507 489 C418 440 345 399 287 363 C241 409 202 452 202 494 C202 552 266 603 448 561 L465 619 C257 656 145 575 145 484 C145 430 188 380 238 331 C89 233 57 178 57 120 C57 42 129 -11 233 -11 C355 -11 444 60 444 144 L444 144 Z M248 39 C173 39 116 74 116 133 C116 173 137 215 269 301 C329 246 388 193 388 139 C388 84 329 39 248 39 L248 39 Z " />
<glyph glyph-name="nine" unicode="9" horiz-adv-x="550" d="M110 -19 C405 77 504 267 504 426 C504 567 424 632 320 632 C200 632 102 542 102 411 C102 243 283 186 434 323 C404 217 314 102 96 36 L110 -19 Z M158 420 C158 511 217 581 309 581 C383 581 446 536 446 411 C446 397 445 382 443 368 C303 238 158 287 158 420 L158 420 Z " />
<glyph glyph-name="colon" unicode="&#x3a;" horiz-adv-x="550" d="M345 335 L365 436 L274 436 L254 335 L345 335 Z M274 0 L295 100 L203 100 L183 0 L274 0 Z " />
<glyph glyph-name="semicolon" unicode="&#x3b;" horiz-adv-x="550" d="M345 335 L365 436 L274 436 L254 335 L345 335 Z M116 -172 L140 -186 C246 -99 288 -20 293 102 L203 99 C218 -19 200 -85 116 -172 L116 -172 Z " />
<glyph glyph-name="less" unicode="&#x3c;" horiz-adv-x="550" d="M483 591 L102 321 L93 269 L371 -17 L412 24 L153 286 L155 294 L510 546 L483 591 Z " />
<glyph glyph-name="equal" unicode="&#x3d;" horiz-adv-x="550" d="M508 430 L116 430 L106 379 L497 379 L508 430 Z M465 207 L73 207 L63 156 L454 156 L465 207 Z " />
<glyph glyph-name="greater" unicode="&#x3e;" horiz-adv-x="550" d="M94 -17 L474 254 L484 306 L206 591 L165 551 L424 289 L422 281 L67 29 L94 -17 Z " />
<glyph glyph-name="question" unicode="&#x3f;" horiz-adv-x="550" d="M143 619 C344 595 447 562 447 484 C447 423 387 363 197 265 L216 232 C431 341 514 421 514 504 C514 599 397 652 154 678 L143 619 Z M214 0 L234 96 L145 96 L125 0 L214 0 Z " />
<glyph glyph-name="at" unicode="&#x40;" horiz-adv-x="550" d="M402 -140 L409 -90 C187 -145 109 -59 109 122 C109 381 247 633 402 633 C481 633 508 578 491 470 C471 475 452 477 436 477 C314 477 232 327 232 185 C232 99 263 59 306 59 C341 59 385 84 421 117 L416 65 L468 64 C475 115 485 178 495 228 L538 436 C571 595 530 681 415 681 C214 681 56 402 56 117 C56 -90 154 -197 402 -140 L402 -140 Z M331 111 C306 111 286 135 286 193 C286 304 346 430 412 430 C430 430 455 425 481 417 L428 158 C397 132 357 111 331 111 L331 111 Z " />
<glyph glyph-name="A" unicode="A" horiz-adv-x="550" d="M405 -2 L465 2 C446 210 423 416 398 623 L311 623 C204 416 100 207 2 0 L64 0 C96 67 128 134 161 202 L386 202 C393 133 399 65 405 -2 L405 -2 Z M341 568 L349 568 C361 463 372 356 382 249 L183 249 C235 356 288 462 341 568 L341 568 Z " />
<glyph glyph-name="B" unicode="B" horiz-adv-x="550" d="M484 185 C484 253 426 305 340 320 C448 348 514 414 514 494 C514 586 414 652 177 618 L57 0 C371 -36 484 77 484 185 L484 185 Z M456 480 C456 405 375 338 182 330 L229 574 C383 591 456 547 456 480 L456 480 Z M424 179 C424 98 335 30 128 50 L174 291 C351 302 424 252 424 179 L424 179 Z " />
<glyph glyph-name="C" unicode="C" horiz-adv-x="550" d="M378 633 C205 633 70 433 70 221 C70 12 213 -65 449 22 L455 79 C247 -1 131 50 131 232 C131 402 233 579 366 579 C445 579 457 518 454 408 L512 409 C519 555 489 633 378 633 L378 633 Z " />
<glyph glyph-name="D" unicode="D" horiz-adv-x="550" d="M518 382 C518 577 391 656 170 619 L50 0 C367 -42 518 153 518 382 L518 382 Z M457 375 C457 188 348 29 120 49 L222 572 C374 590 457 528 457 375 L457 375 Z " />
<glyph glyph-name="E" unicode="E" horiz-adv-x="550" d="M439 53 L137 53 L183 291 L438 291 L447 338 L192 338 L236 567 L537 567 L547 620 L185 620 L65 0 L425 0 L439 53 Z " />
<glyph glyph-name="F" unicode="F" horiz-adv-x="550" d="M446 277 L456 325 L190 325 L237 567 L551 567 L560 620 L187 620 L67 0 L127 0 L181 277 L446 277 Z " />
<glyph glyph-name="G" unicode="G" horiz-adv-x="550" d="M398 -109 L479 241 L420 238 L381 62 C220 6 130 64 130 230 C130 400 229 579 358 579 C435 579 448 518 445 408 L502 409 C509 561 473 633 367 633 C205 633 69 434 69 219 C69 30 182 -51 368 7 L342 -111 L398 -109 Z " />
<glyph glyph-name="H" unicode="H" horiz-adv-x="550" d="M363 0 L425 0 L545 620 L483 620 L429 339 L174 339 L228 620 L166 620 L46 0 L108 0 L164 290 L419 290 L363 0 Z " />
<glyph glyph-name="I" unicode="I" horiz-adv-x="550" d="M264 49 L365 571 L515 571 L525 620 L159 620 L149 571 L304 571 L203 49 L52 49 L42 0 L407 0 L419 49 L264 49 Z " />
<glyph glyph-name="J" unicode="J" horiz-adv-x="550" d="M47 -12 C222 -12 303 6 345 48 C372 75 386 110 417 275 L483 620 L212 620 L202 571 L413 571 L353 267 C328 134 317 99 297 79 C266 48 204 43 57 45 L47 -12 Z " />
<glyph glyph-name="K" unicode="K" horiz-adv-x="550" d="M408 -5 L474 4 L277 312 L578 620 L509 620 L207 312 L408 -5 Z M179 620 L58 0 L119 0 L240 620 L179 620 Z " />
<glyph glyph-name="L" unicode="L" horiz-adv-x="550" d="M444 0 L456 53 L139 53 L249 620 L187 620 L67 0 L444 0 Z " />
<glyph glyph-name="M" unicode="M" horiz-adv-x="550" d="M237 622 L158 618 L38 0 L94 0 L195 529 L198 529 L229 98 L277 98 L484 529 L487 529 L381 0 L441 0 L561 620 L479 620 L270 178 L268 178 L237 622 Z " />
<glyph glyph-name="N" unicode="N" horiz-adv-x="550" d="M362 0 L426 0 L546 620 L489 620 L390 102 L385 102 L238 621 L166 619 L47 0 L104 0 L205 531 L210 531 L362 0 Z " />
<glyph glyph-name="O" unicode="O" horiz-adv-x="550" d="M353 632 C186 632 66 424 66 219 C66 66 135 -12 238 -12 C405 -12 526 196 526 401 C526 554 456 632 353 632 L353 632 Z M248 41 C176 41 128 101 128 223 C128 399 218 578 343 578 C415 578 463 518 463 397 C463 221 374 41 248 41 L248 41 Z " />
<glyph glyph-name="P" unicode="P" horiz-adv-x="550" d="M120 0 L161 209 C400 229 539 321 539 460 C539 571 436 651 179 618 L59 0 L120 0 Z M478 451 C478 341 371 269 172 267 L232 569 C404 587 478 533 478 451 L478 451 Z " />
<glyph glyph-name="Q" unicode="Q" horiz-adv-x="550" d="M419 -131 L446 -81 L227 16 C398 101 530 254 530 426 C530 548 467 633 346 633 C146 633 11 392 115 100 L167 120 C87 390 191 581 333 581 C420 581 468 521 468 420 C468 265 338 110 158 36 L143 -8 L419 -131 Z " />
<glyph glyph-name="R" unicode="R" horiz-adv-x="550" d="M420 -5 L487 5 L314 268 C444 328 517 393 517 485 C517 582 422 650 175 619 L55 0 L116 0 L226 570 C381 587 455 547 455 473 C455 398 390 346 239 279 L238 277 L420 -5 Z " />
<glyph glyph-name="S" unicode="S" horiz-adv-x="550" d="M506 463 C491 572 439 631 339 631 C219 631 131 545 131 453 C131 308 393 244 393 133 C393 65 306 11 42 77 L29 16 C337 -51 455 41 455 141 C455 279 193 338 193 461 C193 524 247 579 323 579 C396 579 437 541 450 453 L506 463 Z " />
<glyph glyph-name="T" unicode="T" horiz-adv-x="550" d="M369 567 L570 567 L580 620 L117 620 L107 567 L308 567 L197 0 L259 0 L369 567 Z " />
<glyph glyph-name="U" unicode="U" horiz-adv-x="550" d="M145 215 L224 620 L163 620 L83 210 C54 64 118 -15 244 -15 C359 -15 438 58 465 198 L547 620 L486 620 L404 197 C383 90 332 41 251 41 C157 41 122 99 145 215 L145 215 Z " />
<glyph glyph-name="V" unicode="V" horiz-adv-x="550" d="M271 0 C381 207 487 414 585 620 L523 620 C434 432 339 245 241 56 L234 56 C212 245 191 435 175 622 L116 618 C133 412 156 207 183 0 L271 0 Z " />
<glyph glyph-name="W" unicode="W" horiz-adv-x="550" d="M332 0 L402 0 C441 117 509 353 573 620 L514 620 C476 455 400 157 375 76 L371 76 L344 438 L303 438 L137 76 L133 76 C139 157 179 455 204 620 L144 620 C105 353 80 117 75 0 L145 0 L306 346 L332 0 Z " />
<glyph glyph-name="X" unicode="X" horiz-adv-x="550" d="M398 -3 L460 3 L328 307 L581 620 L513 620 L302 352 L187 623 L126 617 L258 314 L6 0 L73 0 L284 269 L398 -3 Z " />
<glyph glyph-name="Y" unicode="Y" horiz-adv-x="550" d="M259 0 L298 204 L589 620 L522 620 L281 269 L173 621 L110 619 L238 210 L197 0 L259 0 Z " />
<glyph glyph-name="Z" unicode="Z" horiz-adv-x="550" d="M434 0 L443 54 L106 53 L541 568 L550 620 L154 620 L143 566 L471 567 L36 52 L27 0 L434 0 Z " />
<glyph glyph-name="bracketleft" unicode="&#x5b;" horiz-adv-x="550" d="M66 -178 L371 -178 L381 -129 L133 -129 L283 643 L531 643 L541 692 L235 692 L66 -178 Z " />
<glyph glyph-name="backslash" unicode="&#x5c;" horiz-adv-x="550" d="M164 711 L115 695 L394 -181 L444 -166 L164 711 Z " />
<glyph glyph-name="bracketright" unicode="&#x5d;" horiz-adv-x="550" d="M483 693 L177 693 L167 644 L415 644 L266 -128 L18 -128 L8 -177 L313 -177 L483 693 Z " />
<glyph glyph-name="asciicircum" unicode="&#x5e;" horiz-adv-x="550" d="M442 165 L492 196 L321 491 L306 489 L51 196 L89 162 L304 410 L442 165 Z " />
<glyph glyph-name="underscore" unicode="&#x5f;" horiz-adv-x="550" d="M461 -50 L-21 -50 L-30 -98 L452 -98 L461 -50 Z " />
<glyph glyph-name="grave" unicode="&#x60;" horiz-adv-x="550" d="M371 576 C318 621 244 701 199 760 L154 712 C207 657 296 587 354 550 L371 576 Z " />
<glyph glyph-name="a" unicode="a" horiz-adv-x="550" d="M187 46 C146 46 116 79 116 156 C116 305 204 443 314 443 C340 443 375 437 413 427 C398 353 368 200 358 147 C306 93 234 46 187 46 L187 46 Z M511 34 L504 66 C402 23 395 44 411 123 L480 474 C430 487 386 494 346 494 C178 494 56 326 56 143 C56 40 100 -10 161 -10 C217 -10 292 39 350 97 C336 -5 372 -48 511 34 L511 34 Z " />
<glyph glyph-name="b" unicode="b" horiz-adv-x="550" d="M202 -10 C372 -10 492 154 492 333 C492 442 445 496 382 496 C324 496 250 448 192 390 L253 703 L194 698 L61 13 C110 -1 162 -10 202 -10 L202 -10 Z M234 41 C207 41 169 47 128 58 L182 335 C232 391 305 441 357 441 C398 441 434 403 434 321 C434 176 346 41 234 41 L234 41 Z " />
<glyph glyph-name="c" unicode="c" horiz-adv-x="550" d="M489 339 C491 447 452 495 364 495 C211 495 77 341 77 174 C77 9 216 -73 456 47 L446 80 C242 3 136 46 136 183 C136 321 233 443 350 443 C406 443 432 417 434 338 L489 339 Z " />
<glyph glyph-name="d" unicode="d" horiz-adv-x="550" d="M191 46 C148 46 115 85 115 165 C115 309 201 445 310 445 C336 445 374 439 413 428 L357 140 C308 89 239 46 191 46 L191 46 Z M514 35 L506 66 C404 23 397 44 413 126 L527 703 L466 698 L425 487 C394 492 366 495 341 495 C175 495 56 331 56 152 C56 45 103 -10 165 -10 C221 -10 294 35 350 91 C338 -6 377 -46 514 35 L514 35 Z " />
<glyph glyph-name="e" unicode="e" horiz-adv-x="550" d="M463 54 L454 87 C234 2 127 41 127 179 C127 181 127 183 127 184 C358 201 491 271 491 384 C491 453 440 496 357 496 C191 496 69 324 69 171 C69 7 209 -77 463 54 L463 54 Z M344 445 C399 445 433 416 433 374 C433 285 313 236 130 222 C147 333 226 445 344 445 L344 445 Z " />
<glyph glyph-name="f" unicode="f" horiz-adv-x="550" d="M398 -6 C398 74 338 171 203 269 L482 265 L490 314 L185 315 C248 493 359 643 456 643 C521 643 533 574 444 475 L469 459 C604 592 580 704 476 704 C344 704 202 523 129 315 L88 315 L79 281 L113 264 C91 191 79 116 79 45 C79 -112 147 -179 227 -179 C315 -179 398 -109 398 -6 L398 -6 Z M248 -129 C189 -129 136 -83 136 48 C136 112 146 179 164 245 C298 150 353 60 353 -18 C353 -87 304 -129 248 -129 L248 -129 Z " />
<glyph glyph-name="g" unicode="g" horiz-adv-x="550" d="M205 77 C157 77 120 113 120 188 C120 315 203 445 316 445 C347 445 384 435 425 415 C402 357 379 277 369 206 C320 123 260 77 205 77 L205 77 Z M418 -91 C442 -44 418 23 418 158 C418 174 419 194 420 215 C469 317 513 443 513 472 C513 484 490 495 473 495 C467 495 459 486 450 471 C414 486 378 495 342 495 C181 495 62 341 62 176 C62 75 111 21 181 21 C251 21 316 73 364 140 C364 20 390 -58 361 -86 C341 -106 262 -129 56 -111 L50 -170 C285 -185 389 -149 418 -91 L418 -91 Z " />
<glyph glyph-name="h" unicode="h" horiz-adv-x="550" d="M512 33 L501 66 C424 31 409 39 409 70 C409 130 478 306 478 405 C478 455 455 495 395 495 C333 495 258 455 185 375 L248 703 L189 698 L54 0 L112 0 L174 320 C246 400 313 440 361 440 C398 440 416 419 416 379 C416 296 347 124 347 47 C347 -14 399 -36 512 33 L512 33 Z " />
<glyph glyph-name="i" unicode="i" horiz-adv-x="550" d="M356 571 L394 702 L326 699 L296 567 L356 571 Z M467 41 L459 76 C253 18 220 40 244 132 L336 484 L282 485 L77 433 L81 400 L264 430 L184 123 C148 -13 232 -53 467 41 L467 41 Z " />
<glyph glyph-name="j" unicode="j" horiz-adv-x="550" d="M413 571 L453 703 L386 700 L352 567 L413 571 Z M7 -174 C194 -173 249 -161 283 -127 C346 -63 283 107 393 484 L340 485 L126 442 L132 410 L321 432 C234 98 282 -53 241 -94 C221 -114 196 -118 11 -115 L7 -174 Z " />
<glyph glyph-name="k" unicode="k" horiz-adv-x="550" d="M418 -5 L486 5 L295 200 C449 276 510 351 510 416 C510 463 478 495 421 495 C357 495 273 453 192 370 L257 703 L197 698 L62 0 L120 0 L181 315 C264 399 341 440 394 440 C426 440 446 423 446 394 C446 349 396 284 222 200 L418 -5 Z " />
<glyph glyph-name="l" unicode="l" horiz-adv-x="550" d="M455 65 L441 98 C284 14 199 18 192 159 C437 335 530 491 530 606 C530 669 497 705 441 705 C306 705 132 438 132 168 L132 165 C112 151 81 130 68 122 L86 93 C95 99 116 112 134 124 C152 -32 271 -46 455 65 L455 65 Z M422 646 C453 646 473 624 473 583 C473 495 400 362 191 204 C200 430 330 646 422 646 L422 646 Z " />
<glyph glyph-name="m" unicode="m" horiz-adv-x="550" d="M528 21 L518 53 C469 33 457 36 457 57 C457 113 529 329 529 425 C529 470 507 495 471 495 C434 495 389 468 341 413 C343 466 323 495 285 495 C250 495 208 470 163 419 C167 441 171 469 173 486 L118 482 C95 339 74 231 28 0 L86 0 C107 108 140 276 158 372 C199 418 236 440 260 440 C289 440 293 407 282 353 L212 0 L264 0 L337 371 C379 418 416 440 441 440 C461 440 468 424 468 401 C468 321 398 106 398 36 C398 -16 438 -27 528 21 L528 21 Z " />
<glyph glyph-name="n" unicode="n" horiz-adv-x="550" d="M512 33 L501 66 C424 31 409 39 409 70 C409 130 478 306 478 405 C478 455 455 495 395 495 C333 495 258 456 184 380 C190 416 196 464 200 487 L143 483 C120 339 99 231 54 0 L112 0 C130 93 165 265 177 330 C248 404 314 440 361 440 C398 440 416 419 416 379 C416 294 347 124 347 47 C347 -14 399 -36 512 33 L512 33 Z " />
<glyph glyph-name="o" unicode="o" horiz-adv-x="550" d="M59 185 C59 57 127 -11 233 -11 C376 -11 491 125 491 299 C491 427 421 496 317 496 C173 496 59 357 59 185 L59 185 Z M431 290 C431 153 354 40 244 40 C164 40 119 97 119 195 C119 330 195 446 306 446 C386 446 431 387 431 290 L431 290 Z " />
<glyph glyph-name="p" unicode="p" horiz-adv-x="550" d="M234 40 C206 40 168 46 128 58 C150 170 171 280 181 336 C231 390 306 440 356 440 C399 440 434 401 434 320 C434 175 347 40 234 40 L234 40 Z M83 -171 C93 -122 105 -62 117 -1 C149 -7 177 -10 203 -10 C371 -10 492 154 492 334 C492 442 444 496 381 496 C323 496 246 445 188 385 C194 420 201 466 205 487 L148 483 C121 317 89 151 26 -176 L83 -171 Z " />
<glyph glyph-name="q" unicode="q" horiz-adv-x="550" d="M496 -135 L488 -104 C381 -141 372 -130 385 -62 L491 471 C444 485 391 495 349 495 C178 495 57 332 57 152 C57 45 106 -10 171 -10 C228 -10 300 34 357 88 L325 -78 C304 -186 350 -212 496 -135 L496 -135 Z M195 45 C151 45 116 84 116 165 C116 310 201 445 315 445 C344 445 383 440 423 429 L367 139 C316 87 245 45 195 45 L195 45 Z " />
<glyph glyph-name="r" unicode="r" horiz-adv-x="550" d="M508 27 L501 60 C342 4 309 41 485 474 L457 493 C384 461 307 442 247 437 C252 454 255 469 255 482 C255 505 243 518 224 518 C185 518 142 469 142 434 C142 413 158 400 184 394 C156 326 112 262 50 187 L76 164 C137 231 195 318 228 389 C278 388 343 400 407 420 C231 6 303 -63 508 27 L508 27 Z " />
<glyph glyph-name="s" unicode="s" horiz-adv-x="550" d="M457 121 C457 204 344 298 318 383 C394 472 387 529 341 529 C299 529 252 467 252 413 C252 402 253 391 256 380 C219 336 167 293 76 227 L93 199 C170 248 228 293 272 334 C311 250 398 177 398 116 C398 66 353 28 124 50 L122 -6 C387 -24 457 46 457 121 L457 121 Z " />
<glyph glyph-name="t" unicode="t" horiz-adv-x="550" d="M455 51 L446 84 C230 2 195 45 222 163 L284 436 L479 436 L488 483 L294 483 L326 624 L280 621 L210 483 L144 483 L132 436 L225 436 L163 160 C127 4 204 -74 455 51 L455 51 Z " />
<glyph glyph-name="u" unicode="u" horiz-adv-x="550" d="M517 34 L508 66 C412 23 407 44 422 123 L493 484 L436 484 L374 167 C302 86 248 45 198 45 C151 45 127 82 150 179 L220 487 L160 483 L90 362 L129 339 L91 173 C62 47 99 -11 171 -11 C231 -11 293 31 363 112 C339 -4 374 -48 517 34 L517 34 Z " />
<glyph glyph-name="v" unicode="v" horiz-adv-x="550" d="M240 55 L233 55 C203 200 178 344 156 486 L97 483 C121 321 151 159 185 -4 L264 -4 C361 156 456 324 544 484 L481 484 C404 342 326 199 240 55 L240 55 Z " />
<glyph glyph-name="w" unicode="w" horiz-adv-x="550" d="M335 0 L390 0 C450 167 498 319 543 484 L480 484 C446 341 411 214 373 80 L369 80 L325 365 L285 365 L133 81 L130 81 C144 212 158 340 178 484 L118 484 C94 304 80 122 76 0 L135 0 L289 284 L335 0 Z " />
<glyph glyph-name="x" unicode="x" horiz-adv-x="550" d="M379 -2 L444 3 L310 243 L540 484 L474 484 L281 279 L162 486 L99 482 L235 243 L4 0 L69 0 L263 207 L379 -2 Z " />
<glyph glyph-name="y" unicode="y" horiz-adv-x="550" d="M413 -91 C437 -43 425 39 425 163 C425 178 425 192 426 206 C473 302 511 440 511 471 C511 485 487 493 470 493 C444 493 386 329 375 199 C316 128 244 79 195 79 C129 79 95 149 216 486 L158 484 C20 113 76 24 167 24 C238 24 318 81 374 147 C375 19 386 -59 360 -86 C339 -106 267 -128 67 -110 L58 -171 C287 -185 385 -148 413 -91 L413 -91 Z " />
<glyph glyph-name="z" unicode="z" horiz-adv-x="550" d="M424 0 L439 53 L110 51 L505 434 L515 484 L135 484 L121 432 L437 433 L42 51 L33 0 L424 0 Z " />
<glyph glyph-name="braceleft" unicode="&#x7b;" horiz-adv-x="550" d="M371 -205 L397 -157 C244 -91 177 -48 177 1 C177 70 296 107 296 179 C296 213 272 244 203 262 C296 284 334 331 334 371 C334 420 265 481 265 528 C265 581 347 625 550 666 L539 719 C293 660 210 589 210 519 C210 458 278 403 278 360 C278 326 240 292 106 283 L98 240 C196 230 239 205 239 169 C239 113 117 76 117 -11 C117 -74 190 -125 371 -205 L371 -205 Z " />
<glyph glyph-name="bar" unicode="&#x7c;" horiz-adv-x="550" d="M334 701 L163 -180 L218 -180 L390 703 L334 701 Z " />
<glyph glyph-name="braceright" unicode="&#x7d;" horiz-adv-x="550" d="M9 -204 C255 -145 338 -74 338 -4 C338 58 269 113 269 155 C269 189 307 224 442 232 L450 275 C351 285 309 310 309 346 C309 402 430 440 430 526 C430 589 358 640 177 720 L151 673 C304 606 370 563 370 514 C370 445 252 408 252 336 C252 303 276 272 344 253 C252 232 214 184 214 144 C214 95 283 34 283 -13 C283 -66 201 -110 -2 -151 L9 -204 Z " />
<glyph glyph-name="asciitilde" unicode="&#x7e;" horiz-adv-x="550" d="M375 202 C432 202 483 264 535 383 L495 400 C460 318 418 256 382 256 C325 256 290 408 205 408 C148 408 95 344 44 227 L83 210 C119 292 159 354 196 354 C254 354 290 202 375 202 L375 202 Z " />
<glyph glyph-name="uni00A0" unicode="&#xa0;" horiz-adv-x="550" d="" />
<glyph glyph-name="exclamdown" unicode="&#xa1;" horiz-adv-x="550" d="M303 620 L283 524 L373 524 L393 620 L303 620 Z M279 394 C253 278 197 67 168 -55 L246 -55 C268 67 295 278 319 394 L279 394 Z " />
<glyph glyph-name="cent" unicode="&#xa2;" horiz-adv-x="550" d="M143 254 C143 330 188 396 325 417 L256 117 C172 147 143 196 143 254 L143 254 Z M421 34 L432 88 C380 90 337 96 301 104 L374 422 C408 424 446 424 490 421 L501 479 C460 482 422 481 388 479 L421 620 L366 620 L334 473 C154 444 87 343 87 243 C87 165 132 99 240 63 L205 -86 L260 -86 L289 49 C327 41 371 36 421 34 L421 34 Z " />
<glyph glyph-name="sterling" unicode="&#xa3;" horiz-adv-x="550" d="M487 129 L457 145 C394 2 328 50 175 82 C199 129 208 196 216 263 L412 263 L421 311 L221 311 C229 372 238 432 261 478 C290 536 336 579 391 579 C439 579 469 549 469 448 L528 450 C531 571 492 634 404 634 C316 634 246 564 210 491 C181 433 171 373 163 311 L86 311 L77 263 L158 263 C151 206 143 148 119 89 C-18 94 -49 -12 43 -12 C79 -12 115 4 144 35 C328 -7 415 -69 487 129 L487 129 Z " />
<glyph glyph-name="yen" unicode="&#xa5;" horiz-adv-x="550" d="M455 120 L466 168 L289 168 L304 248 L323 273 L486 273 L495 321 L359 321 L582 620 L517 620 L288 306 L178 621 L116 619 L223 321 L82 321 L73 273 L240 273 L248 252 L231 168 L52 168 L43 120 L222 120 L198 0 L257 0 L280 120 L455 120 Z " />
<glyph glyph-name="section" unicode="&#xa7;" horiz-adv-x="550" d="M131 252 C131 302 203 333 282 346 C350 308 425 278 425 233 C425 196 379 168 267 141 C199 175 131 205 131 252 L131 252 Z M408 9 C408 56 365 89 313 118 C425 149 481 187 481 242 C481 353 229 381 229 490 C229 539 278 581 345 581 C408 581 443 547 453 471 L507 482 C495 580 451 633 360 632 C249 631 169 559 169 481 C169 434 201 399 241 371 C147 353 75 312 75 241 C75 121 347 92 347 5 C347 -46 267 -88 30 -24 L17 -83 C296 -147 408 -70 408 9 L408 9 Z " />
<glyph glyph-name="dieresis" unicode="&#xa8;" horiz-adv-x="550" d="M404 571 L443 702 L375 700 L344 569 L404 571 Z M192 568 L231 699 L164 698 L132 567 L192 568 Z " />
<glyph glyph-name="copyright" unicode="&#xa9;" horiz-adv-x="550" d="M314 613 C169 613 45 470 45 256 C45 100 133 7 250 7 C397 7 518 151 518 365 C518 520 431 613 314 613 L314 613 Z M307 576 C405 576 478 495 478 357 C478 177 380 44 257 44 C159 44 84 126 84 264 C84 444 186 576 307 576 L307 576 Z M317 486 C231 486 163 377 163 260 C163 153 230 110 346 155 L352 196 C258 160 207 182 207 269 C207 355 251 445 310 445 C340 445 347 415 346 365 L386 366 C390 443 372 486 317 486 L317 486 Z " />
<glyph glyph-name="ordfeminine" unicode="&#xaa;" horiz-adv-x="550" d="M230 293 C198 293 170 322 170 378 C170 485 240 583 331 583 C352 583 380 579 408 572 C396 515 374 408 366 367 C326 328 270 293 230 293 L230 293 Z M490 276 L483 301 C406 272 402 291 414 351 L467 611 C423 621 385 625 353 625 C218 625 118 500 118 366 C118 288 156 246 208 246 C253 246 312 280 359 323 C349 250 384 219 490 276 L490 276 Z M91 167 L83 123 L442 123 L450 167 L91 167 Z " />
<glyph glyph-name="guillemotleft" unicode="&#xab;" horiz-adv-x="550" d="M186 -11 L236 21 L101 240 L323 460 L284 498 L68 276 L53 213 L186 -11 Z M417 -11 L467 20 L334 241 L558 458 L519 496 L302 277 L286 214 L417 -11 Z " />
<glyph glyph-name="registered" unicode="&#xae;" horiz-adv-x="550" d="M329 671 C192 671 94 561 94 407 C94 278 173 200 296 200 C433 200 531 309 531 463 C531 592 452 671 329 671 L329 671 Z M328 637 C426 637 495 573 495 459 C495 321 408 233 296 233 C199 233 130 298 130 412 C130 550 216 637 328 637 L328 637 Z M358 322 L400 326 L330 418 C387 442 407 468 407 497 C407 534 373 566 259 549 L215 324 L253 324 L290 520 C353 527 371 510 371 490 C371 471 350 449 281 426 L358 322 Z " />
<glyph glyph-name="macron" unicode="&#xaf;" horiz-adv-x="550" d="M439 662 L119 662 L109 611 L430 611 L439 662 Z " />
<glyph glyph-name="degree" unicode="&#xb0;" horiz-adv-x="550" d="M341 670 C246 670 156 594 156 479 C156 384 218 322 305 322 C401 322 492 398 492 513 C492 609 429 670 341 670 L341 670 Z M313 369 C246 369 205 418 205 484 C205 567 264 624 335 624 C401 624 442 575 442 509 C442 425 384 369 313 369 L313 369 Z " />
<glyph glyph-name="plusminus" unicode="&#xb1;" horiz-adv-x="550" d="M446 71 L456 120 L278 120 L313 300 L493 300 L503 349 L323 349 L359 536 L305 536 L269 349 L90 349 L80 300 L259 300 L224 120 L48 120 L38 71 L446 71 Z " />
<glyph glyph-name="two.sup" unicode="&#xb2;" horiz-adv-x="550" d="M424 333 L434 377 L220 377 C376 474 465 542 465 627 C465 708 385 749 224 725 L217 680 C361 700 412 670 412 617 C412 544 313 478 145 373 L146 333 L424 333 Z " />
<glyph glyph-name="three.sup" unicode="&#xb3;" horiz-adv-x="550" d="M446 442 C446 486 405 527 286 553 L478 685 L483 728 L229 728 L221 685 L421 685 L227 553 L224 530 C355 504 397 471 397 436 C397 399 351 360 160 379 L154 333 C378 312 446 381 446 442 L446 442 Z " />
<glyph glyph-name="acute" unicode="&#xb4;" horiz-adv-x="550" d="M170 584 L184 557 C256 593 360 653 423 704 L379 754 C325 699 235 626 170 584 L170 584 Z " />
<glyph glyph-name="mu" unicode="&#xb5;" horiz-adv-x="550" d="M82 -171 L116 17 C129 -1 150 -10 178 -10 C237 -10 295 32 363 114 C339 -4 374 -48 517 34 L508 66 C412 23 407 44 422 123 L493 484 L436 484 L374 167 C302 86 248 45 198 45 C151 45 131 81 148 169 L210 488 L151 483 L23 -176 L82 -171 Z " />
<glyph glyph-name="paragraph" unicode="&#xb6;" horiz-adv-x="550" d="M397 156 C363 160 332 166 305 174 L382 566 C411 568 443 568 477 565 L397 156 Z M139 355 C139 451 204 533 333 559 L262 190 C182 225 139 284 139 355 L139 355 Z M250 -108 L294 119 C322 112 353 106 387 104 L349 -88 L404 -81 L541 621 C257 646 81 513 81 345 C81 249 140 175 245 134 L197 -115 L250 -108 Z " />
<glyph glyph-name="periodcentered" unicode="&#xb7;" horiz-adv-x="550" d="M314 258 L334 358 L241 358 L221 258 L314 258 Z " />
<glyph glyph-name="cedilla" unicode="&#xb8;" horiz-adv-x="550" d="M137 -144 C170 -75 202 -35 239 -35 C277 -35 303 -75 296 -173 L351 -172 C359 -46 310 11 246 11 C191 11 144 -35 103 -133 L137 -144 Z " />
<glyph glyph-name="one.sup" unicode="&#xb9;" horiz-adv-x="550" d="M437 333 L448 376 L332 376 L405 745 L355 741 L343 681 L214 663 L208 626 L334 636 L283 376 L157 376 L148 333 L437 333 Z " />
<glyph glyph-name="ordmasculine" unicode="&#xba;" horiz-adv-x="550" d="M486 475 C486 569 431 627 347 627 C231 627 139 521 139 398 C139 304 193 246 279 246 C394 246 486 352 486 475 L486 475 Z M190 405 C190 504 250 585 336 585 C397 585 435 540 435 468 C435 368 376 288 289 288 C227 288 190 334 190 405 L190 405 Z M92 167 L84 123 L418 123 L426 167 L92 167 Z " />
<glyph glyph-name="guillemotright" unicode="&#xbb;" horiz-adv-x="550" d="M286 -11 L502 211 L516 274 L384 497 L333 465 L469 247 L247 26 L286 -11 Z M50 -10 L268 209 L284 272 L153 497 L103 466 L236 245 L11 28 L50 -10 Z " />
<glyph glyph-name="onequarter" unicode="&#xbc;" horiz-adv-x="550" d="M456 425 L467 468 L351 468 L424 837 L374 833 L362 773 L233 755 L227 718 L353 728 L302 468 L176 468 L167 425 L456 425 Z M64 284 L496 284 L505 325 L73 325 L64 284 Z M364 -125 L377 -83 L322 -83 L350 57 L302 53 L276 -83 L113 -83 C166 -7 205 63 246 187 L194 189 C156 69 119 -3 65 -91 L61 -125 L267 -125 L251 -210 L297 -210 L314 -125 L364 -125 Z " />
<glyph glyph-name="onehalf" unicode="&#xbd;" horiz-adv-x="550" d="M456 425 L467 468 L351 468 L424 837 L374 833 L362 773 L233 755 L227 718 L353 728 L302 468 L176 468 L167 425 L456 425 Z M64 284 L496 284 L505 325 L73 325 L64 284 Z M329 -210 L339 -166 L125 -166 C281 -69 370 -1 370 84 C370 165 290 206 129 182 L122 137 C266 157 317 127 317 74 C317 1 218 -65 50 -170 L51 -210 L329 -210 Z " />
<glyph glyph-name="threequarters" unicode="&#xbe;" horiz-adv-x="550" d="M465 534 C465 578 424 619 305 645 L497 777 L502 820 L248 820 L240 777 L440 777 L246 645 L243 622 C374 596 416 563 416 528 C416 491 370 452 179 471 L173 425 C397 404 465 473 465 534 L465 534 Z M64 284 L496 284 L505 325 L73 325 L64 284 Z M364 -125 L377 -83 L322 -83 L350 57 L302 53 L276 -83 L113 -83 C166 -7 205 63 246 187 L194 189 C156 69 119 -3 65 -91 L61 -125 L267 -125 L251 -210 L297 -210 L314 -125 L364 -125 Z " />
<glyph glyph-name="questiondown" unicode="&#xbf;" horiz-adv-x="550" d="M362 620 L341 524 L431 524 L452 620 L362 620 Z M433 1 C233 25 128 58 128 136 C128 197 189 257 379 355 L360 388 C145 279 63 199 63 116 C63 21 179 -32 421 -58 L433 1 Z " />
<glyph glyph-name="Agrave" unicode="&#xc0;" horiz-adv-x="550" d="M474 714 C421 759 347 839 302 898 L257 850 C310 795 399 725 457 688 L474 714 Z M405 -2 L465 2 C446 210 423 416 398 623 L311 623 C204 416 100 207 2 0 L64 0 C96 67 128 134 161 202 L386 202 C393 133 399 65 405 -2 L405 -2 Z M341 568 L349 568 C361 463 372 356 382 249 L183 249 C235 356 288 462 341 568 L341 568 Z " />
<glyph glyph-name="Aacute" unicode="&#xc1;" horiz-adv-x="550" d="M258 722 L272 695 C344 731 448 791 511 842 L467 892 C413 837 323 764 258 722 L258 722 Z M405 -2 L465 2 C446 210 423 416 398 623 L311 623 C204 416 100 207 2 0 L64 0 C96 67 128 134 161 202 L386 202 C393 133 399 65 405 -2 L405 -2 Z M341 568 L349 568 C361 463 372 356 382 249 L183 249 C235 356 288 462 341 568 L341 568 Z " />
<glyph glyph-name="Acircumflex" unicode="&#xc2;" horiz-adv-x="550" d="M502 696 L543 729 L410 880 L408 880 L208 733 L236 700 L398 818 L502 696 Z M405 -2 L465 2 C446 210 423 416 398 623 L311 623 C204 416 100 207 2 0 L64 0 C96 67 128 134 161 202 L386 202 C393 133 399 65 405 -2 L405 -2 Z M341 568 L349 568 C361 463 372 356 382 249 L183 249 C235 356 288 462 341 568 L341 568 Z " />
<glyph glyph-name="Atilde" unicode="&#xc3;" horiz-adv-x="550" d="M458 752 C410 752 394 862 326 862 C278 862 231 817 181 731 L213 712 C250 773 283 815 313 815 C361 815 377 705 445 705 C494 705 540 755 590 841 L558 860 C521 799 488 752 458 752 L458 752 Z M405 -2 L465 2 C446 210 423 416 398 623 L311 623 C204 416 100 207 2 0 L64 0 C96 67 128 134 161 202 L386 202 C393 133 399 65 405 -2 L405 -2 Z M341 568 L349 568 C361 463 372 356 382 249 L183 249 C235 356 288 462 341 568 L341 568 Z " />
<glyph glyph-name="Adieresis" unicode="&#xc4;" horiz-adv-x="550" d="M499 709 L538 840 L470 838 L439 707 L499 709 Z M287 706 L326 837 L259 836 L227 705 L287 706 Z M405 -2 L465 2 C446 210 423 416 398 623 L311 623 C204 416 100 207 2 0 L64 0 C96 67 128 134 161 202 L386 202 C393 133 399 65 405 -2 L405 -2 Z M341 568 L349 568 C361 463 372 356 382 249 L183 249 C235 356 288 462 341 568 L341 568 Z " />
<glyph glyph-name="Aring" unicode="&#xc5;" horiz-adv-x="550" d="M392 891 C312 891 255 842 255 781 C255 725 306 682 379 682 C458 682 516 731 516 793 C516 849 464 891 392 891 L392 891 Z M387 852 C435 852 470 823 470 788 C470 751 433 721 383 721 C335 721 301 749 301 785 C301 822 338 852 387 852 L387 852 Z M405 -2 L465 2 C446 210 423 416 398 623 L311 623 C204 416 100 207 2 0 L64 0 C96 67 128 134 161 202 L386 202 C393 133 399 65 405 -2 L405 -2 Z M341 568 L349 568 C361 463 372 356 382 249 L183 249 C235 356 288 462 341 568 L341 568 Z " />
<glyph glyph-name="AE" unicode="&#xc6;" horiz-adv-x="550" d="M348 568 L357 568 L293 240 L176 240 C233 348 290 458 348 568 L348 568 Z M246 0 L475 0 L489 52 L314 52 L360 291 L507 291 L515 337 L369 337 L414 568 L587 568 L597 620 L322 620 C208 413 96 204 -14 0 L50 0 C84 64 117 128 151 193 L284 193 L246 0 Z " />
<glyph glyph-name="Ccedilla" unicode="&#xc7;" horiz-adv-x="550" d="M344 -178 C349 -92 328 -38 294 -13 C340 -11 392 1 449 22 L455 79 C247 -1 131 50 131 232 C131 402 233 579 366 579 C445 579 457 518 454 408 L512 409 C519 555 489 633 378 633 C205 633 70 433 70 221 C70 101 117 24 202 -2 C163 -19 128 -64 96 -139 L130 -150 C163 -81 195 -41 232 -41 C270 -41 296 -81 289 -179 L344 -178 Z " />
<glyph glyph-name="Egrave" unicode="&#xc8;" horiz-adv-x="550" d="M487 712 C434 757 360 837 315 896 L270 848 C323 793 412 723 470 686 L487 712 Z M439 53 L137 53 L183 291 L438 291 L447 338 L192 338 L236 567 L537 567 L547 620 L185 620 L65 0 L425 0 L439 53 Z " />
<glyph glyph-name="Eacute" unicode="&#xc9;" horiz-adv-x="550" d="M271 720 L285 693 C357 729 461 789 524 840 L480 890 C426 835 336 762 271 720 L271 720 Z M439 53 L137 53 L183 291 L438 291 L447 338 L192 338 L236 567 L537 567 L547 620 L185 620 L65 0 L425 0 L439 53 Z " />
<glyph glyph-name="Ecircumflex" unicode="&#xca;" horiz-adv-x="550" d="M515 694 L556 727 L423 878 L421 878 L221 731 L249 698 L411 816 L515 694 Z M439 53 L137 53 L183 291 L438 291 L447 338 L192 338 L236 567 L537 567 L547 620 L185 620 L65 0 L425 0 L439 53 Z " />
<glyph glyph-name="Edieresis" unicode="&#xcb;" horiz-adv-x="550" d="M513 707 L552 838 L484 836 L453 705 L513 707 Z M301 704 L340 835 L273 834 L241 703 L301 704 Z M439 53 L137 53 L183 291 L438 291 L447 338 L192 338 L236 567 L537 567 L547 620 L185 620 L65 0 L425 0 L439 53 Z " />
<glyph glyph-name="Igrave" unicode="&#xcc;" horiz-adv-x="550" d="M464 712 C411 757 337 837 292 896 L247 848 C300 793 389 723 447 686 L464 712 Z M264 49 L365 571 L515 571 L525 620 L159 620 L149 571 L304 571 L203 49 L52 49 L42 0 L407 0 L419 49 L264 49 Z " />
<glyph glyph-name="Iacute" unicode="&#xcd;" horiz-adv-x="550" d="M249 720 L263 693 C335 729 439 789 502 840 L458 890 C404 835 314 762 249 720 L249 720 Z M264 49 L365 571 L515 571 L525 620 L159 620 L149 571 L304 571 L203 49 L52 49 L42 0 L407 0 L419 49 L264 49 Z " />
<glyph glyph-name="Icircumflex" unicode="&#xce;" horiz-adv-x="550" d="M492 694 L533 727 L400 878 L398 878 L198 731 L226 698 L388 816 L492 694 Z M264 49 L365 571 L515 571 L525 620 L159 620 L149 571 L304 571 L203 49 L52 49 L42 0 L407 0 L419 49 L264 49 Z " />
<glyph glyph-name="Idieresis" unicode="&#xcf;" horiz-adv-x="550" d="M490 707 L529 838 L461 836 L430 705 L490 707 Z M278 704 L317 835 L250 834 L218 703 L278 704 Z M264 49 L365 571 L515 571 L525 620 L159 620 L149 571 L304 571 L203 49 L52 49 L42 0 L407 0 L419 49 L264 49 Z " />
<glyph glyph-name="Eth" unicode="&#xd0;" horiz-adv-x="550" d="M518 382 C518 577 391 656 170 619 L116 338 L40 338 L31 292 L107 292 L50 0 C367 -42 518 153 518 382 L518 382 Z M310 292 L322 338 L176 338 L222 572 C374 590 457 528 457 375 C457 188 348 29 120 49 L167 292 L310 292 Z " />
<glyph glyph-name="Ntilde" unicode="&#xd1;" horiz-adv-x="550" d="M461 751 C413 751 397 861 329 861 C281 861 234 816 184 730 L216 711 C253 772 286 814 316 814 C364 814 380 704 448 704 C497 704 543 754 593 840 L561 859 C524 798 491 751 461 751 L461 751 Z M362 0 L426 0 L546 620 L489 620 L390 102 L385 102 L238 621 L166 619 L47 0 L104 0 L205 531 L210 531 L362 0 Z " />
<glyph glyph-name="Ograve" unicode="&#xd2;" horiz-adv-x="550" d="M478 725 C425 770 351 850 306 909 L261 861 C314 806 403 736 461 699 L478 725 Z M353 632 C186 632 66 424 66 219 C66 66 135 -12 238 -12 C405 -12 526 196 526 401 C526 554 456 632 353 632 L353 632 Z M248 41 C176 41 128 101 128 223 C128 399 218 578 343 578 C415 578 463 518 463 397 C463 221 374 41 248 41 L248 41 Z " />
<glyph glyph-name="Oacute" unicode="&#xd3;" horiz-adv-x="550" d="M263 733 L277 706 C349 742 453 802 516 853 L472 903 C418 848 328 775 263 733 L263 733 Z M353 632 C186 632 66 424 66 219 C66 66 135 -12 238 -12 C405 -12 526 196 526 401 C526 554 456 632 353 632 L353 632 Z M248 41 C176 41 128 101 128 223 C128 399 218 578 343 578 C415 578 463 518 463 397 C463 221 374 41 248 41 L248 41 Z " />
<glyph glyph-name="Ocircumflex" unicode="&#xd4;" horiz-adv-x="550" d="M506 707 L547 740 L414 891 L412 891 L212 744 L240 711 L402 829 L506 707 Z M353 632 C186 632 66 424 66 219 C66 66 135 -12 238 -12 C405 -12 526 196 526 401 C526 554 456 632 353 632 L353 632 Z M248 41 C176 41 128 101 128 223 C128 399 218 578 343 578 C415 578 463 518 463 397 C463 221 374 41 248 41 L248 41 Z " />
<glyph glyph-name="Otilde" unicode="&#xd5;" horiz-adv-x="550" d="M462 763 C414 763 398 873 330 873 C282 873 235 828 185 742 L217 723 C254 784 287 826 317 826 C365 826 381 716 449 716 C498 716 544 766 594 852 L562 871 C525 810 492 763 462 763 L462 763 Z M353 632 C186 632 66 424 66 219 C66 66 135 -12 238 -12 C405 -12 526 196 526 401 C526 554 456 632 353 632 L353 632 Z M248 41 C176 41 128 101 128 223 C128 399 218 578 343 578 C415 578 463 518 463 397 C463 221 374 41 248 41 L248 41 Z " />
<glyph glyph-name="Odieresis" unicode="&#xd6;" horiz-adv-x="550" d="M504 720 L543 851 L475 849 L444 718 L504 720 Z M292 717 L331 848 L264 847 L232 716 L292 717 Z M353 632 C186 632 66 424 66 219 C66 66 135 -12 238 -12 C405 -12 526 196 526 401 C526 554 456 632 353 632 L353 632 Z M248 41 C176 41 128 101 128 223 C128 399 218 578 343 578 C415 578 463 518 463 397 C463 221 374 41 248 41 L248 41 Z " />
<glyph glyph-name="multiply" unicode="&#xd7;" horiz-adv-x="550" d="M403 97 L446 132 L322 286 L498 432 L465 474 L289 328 L165 482 L122 446 L246 292 L70 146 L104 104 L280 250 L403 97 Z " />
<glyph glyph-name="Oslash" unicode="&#xd8;" horiz-adv-x="550" d="M129 231 C129 404 216 580 340 580 C379 580 411 563 432 528 L140 138 C133 164 129 195 129 231 L129 231 Z M252 40 C211 40 178 58 157 94 L451 484 C458 458 462 427 462 390 C462 216 375 40 252 40 L252 40 Z M241 -13 C407 -13 524 192 524 394 C524 454 514 503 496 540 L563 627 L527 653 L471 580 C441 615 399 633 350 633 C186 633 67 429 67 226 C67 167 77 118 94 81 L28 -7 L65 -33 L120 40 C150 5 192 -13 241 -13 L241 -13 Z " />
<glyph glyph-name="Ugrave" unicode="&#xd9;" horiz-adv-x="550" d="M475 712 C422 757 348 837 303 896 L258 848 C311 793 400 723 458 686 L475 712 Z M145 215 L224 620 L163 620 L83 210 C54 64 118 -15 244 -15 C359 -15 438 58 465 198 L547 620 L486 620 L404 197 C383 90 332 41 251 41 C157 41 122 99 145 215 L145 215 Z " />
<glyph glyph-name="Uacute" unicode="&#xda;" horiz-adv-x="550" d="M259 720 L273 693 C345 729 449 789 512 840 L468 890 C414 835 324 762 259 720 L259 720 Z M145 215 L224 620 L163 620 L83 210 C54 64 118 -15 244 -15 C359 -15 438 58 465 198 L547 620 L486 620 L404 197 C383 90 332 41 251 41 C157 41 122 99 145 215 L145 215 Z " />
<glyph glyph-name="Ucircumflex" unicode="&#xdb;" horiz-adv-x="550" d="M503 694 L544 727 L411 878 L409 878 L209 731 L237 698 L399 816 L503 694 Z M145 215 L224 620 L163 620 L83 210 C54 64 118 -15 244 -15 C359 -15 438 58 465 198 L547 620 L486 620 L404 197 C383 90 332 41 251 41 C157 41 122 99 145 215 L145 215 Z " />
<glyph glyph-name="Udieresis" unicode="&#xdc;" horiz-adv-x="550" d="M501 707 L540 838 L472 836 L441 705 L501 707 Z M289 704 L328 835 L261 834 L229 703 L289 704 Z M145 215 L224 620 L163 620 L83 210 C54 64 118 -15 244 -15 C359 -15 438 58 465 198 L547 620 L486 620 L404 197 C383 90 332 41 251 41 C157 41 122 99 145 215 L145 215 Z " />
<glyph glyph-name="Yacute" unicode="&#xdd;" horiz-adv-x="550" d="M254 721 L268 694 C340 730 444 790 507 841 L463 891 C409 836 319 763 254 721 L254 721 Z M259 0 L298 204 L589 620 L522 620 L281 269 L173 621 L110 619 L238 210 L197 0 L259 0 Z " />
<glyph glyph-name="Thorn" unicode="&#xde;" horiz-adv-x="550" d="M120 0 L140 105 C379 125 519 216 519 356 C519 458 433 533 221 519 L241 620 L180 620 L59 0 L120 0 Z M458 347 C458 237 351 165 152 163 L211 465 C383 483 458 429 458 347 L458 347 Z " />
<glyph glyph-name="germandbls" unicode="&#xdf;" horiz-adv-x="550" d="M200 -6 C412 -21 488 51 488 132 C488 194 433 263 342 337 C447 431 500 508 500 580 C500 647 460 699 375 699 C263 699 176 611 147 464 L57 0 L116 0 L206 468 C229 584 284 648 359 648 C413 648 441 614 441 568 C441 502 392 438 269 325 C382 236 429 173 429 122 C429 68 371 33 208 51 L200 -6 Z " />
<glyph glyph-name="agrave" unicode="&#xe0;" horiz-adv-x="550" d="M463 585 C410 630 336 710 291 769 L246 721 C299 666 388 596 446 559 L463 585 Z M187 46 C146 46 116 79 116 156 C116 305 204 443 314 443 C340 443 375 437 413 427 C398 353 368 200 358 147 C306 93 234 46 187 46 L187 46 Z M511 34 L504 66 C402 23 395 44 411 123 L480 474 C430 487 386 494 346 494 C178 494 56 326 56 143 C56 40 100 -10 161 -10 C217 -10 292 39 350 97 C336 -5 372 -48 511 34 L511 34 Z " />
<glyph glyph-name="aacute" unicode="&#xe1;" horiz-adv-x="550" d="M248 593 L262 566 C334 602 438 662 501 713 L457 763 C403 708 313 635 248 593 L248 593 Z M187 46 C146 46 116 79 116 156 C116 305 204 443 314 443 C340 443 375 437 413 427 C398 353 368 200 358 147 C306 93 234 46 187 46 L187 46 Z M511 34 L504 66 C402 23 395 44 411 123 L480 474 C430 487 386 494 346 494 C178 494 56 326 56 143 C56 40 100 -10 161 -10 C217 -10 292 39 350 97 C336 -5 372 -48 511 34 L511 34 Z " />
<glyph glyph-name="acircumflex" unicode="&#xe2;" horiz-adv-x="550" d="M491 567 L532 600 L399 751 L397 751 L197 604 L225 571 L387 689 L491 567 Z M187 46 C146 46 116 79 116 156 C116 305 204 443 314 443 C340 443 375 437 413 427 C398 353 368 200 358 147 C306 93 234 46 187 46 L187 46 Z M511 34 L504 66 C402 23 395 44 411 123 L480 474 C430 487 386 494 346 494 C178 494 56 326 56 143 C56 40 100 -10 161 -10 C217 -10 292 39 350 97 C336 -5 372 -48 511 34 L511 34 Z " />
<glyph glyph-name="atilde" unicode="&#xe3;" horiz-adv-x="550" d="M447 623 C399 623 383 733 315 733 C267 733 220 688 170 602 L202 583 C239 644 272 686 302 686 C350 686 366 576 434 576 C483 576 529 626 579 712 L547 731 C510 670 477 623 447 623 L447 623 Z M187 46 C146 46 116 79 116 156 C116 305 204 443 314 443 C340 443 375 437 413 427 C398 353 368 200 358 147 C306 93 234 46 187 46 L187 46 Z M511 34 L504 66 C402 23 395 44 411 123 L480 474 C430 487 386 494 346 494 C178 494 56 326 56 143 C56 40 100 -10 161 -10 C217 -10 292 39 350 97 C336 -5 372 -48 511 34 L511 34 Z " />
<glyph glyph-name="adieresis" unicode="&#xe4;" horiz-adv-x="550" d="M489 580 L528 711 L460 709 L429 578 L489 580 Z M277 577 L316 708 L249 707 L217 576 L277 577 Z M187 46 C146 46 116 79 116 156 C116 305 204 443 314 443 C340 443 375 437 413 427 C398 353 368 200 358 147 C306 93 234 46 187 46 L187 46 Z M511 34 L504 66 C402 23 395 44 411 123 L480 474 C430 487 386 494 346 494 C178 494 56 326 56 143 C56 40 100 -10 161 -10 C217 -10 292 39 350 97 C336 -5 372 -48 511 34 L511 34 Z " />
<glyph glyph-name="aring" unicode="&#xe5;" horiz-adv-x="550" d="M382 762 C302 762 245 713 245 652 C245 596 296 553 369 553 C448 553 506 602 506 664 C506 720 454 762 382 762 L382 762 Z M377 723 C425 723 460 694 460 659 C460 622 423 592 373 592 C325 592 291 620 291 656 C291 693 328 723 377 723 L377 723 Z M187 46 C146 46 116 79 116 156 C116 305 204 443 314 443 C340 443 375 437 413 427 C398 353 368 200 358 147 C306 93 234 46 187 46 L187 46 Z M511 34 L504 66 C402 23 395 44 411 123 L480 474 C430 487 386 494 346 494 C178 494 56 326 56 143 C56 40 100 -10 161 -10 C217 -10 292 39 350 97 C336 -5 372 -48 511 34 L511 34 Z " />
<glyph glyph-name="ae" unicode="&#xe6;" horiz-adv-x="550" d="M508 55 L502 88 C356 11 307 41 307 148 C307 160 308 172 309 185 C465 205 550 299 550 401 C550 458 519 494 465 494 C431 494 399 479 371 453 C337 478 304 491 267 491 C141 491 41 304 41 121 C41 35 69 -7 114 -7 C165 -7 213 34 255 89 C273 -12 353 -49 508 55 L508 55 Z M450 443 C479 443 494 423 494 390 C494 316 426 239 314 222 C332 331 386 443 450 443 L450 443 Z M138 47 C114 47 101 75 101 131 C101 275 165 442 251 442 C273 442 302 433 332 409 C283 340 252 239 251 141 C212 90 171 47 138 47 L138 47 Z " />
<glyph glyph-name="ccedilla" unicode="&#xe7;" horiz-adv-x="550" d="M343 -182 C349 -86 322 -30 280 -9 C331 -4 389 14 456 47 L446 80 C242 3 136 46 136 183 C136 321 233 443 350 443 C406 443 432 417 434 338 L489 339 C491 447 452 495 364 495 C211 495 77 341 77 174 C77 80 122 13 205 -5 C164 -20 127 -65 95 -143 L129 -154 C162 -85 194 -45 231 -45 C269 -45 295 -85 288 -183 L343 -182 Z " />
<glyph glyph-name="egrave" unicode="&#xe8;" horiz-adv-x="550" d="M458 588 C405 633 331 713 286 772 L241 724 C294 669 383 599 441 562 L458 588 Z M463 54 L454 87 C234 2 127 41 127 179 C127 181 127 183 127 184 C358 201 491 271 491 384 C491 453 440 496 357 496 C191 496 69 324 69 171 C69 7 209 -77 463 54 L463 54 Z M344 445 C399 445 433 416 433 374 C433 285 313 236 130 222 C147 333 226 445 344 445 L344 445 Z " />
<glyph glyph-name="eacute" unicode="&#xe9;" horiz-adv-x="550" d="M242 596 L256 569 C328 605 432 665 495 716 L451 766 C397 711 307 638 242 596 L242 596 Z M463 54 L454 87 C234 2 127 41 127 179 C127 181 127 183 127 184 C358 201 491 271 491 384 C491 453 440 496 357 496 C191 496 69 324 69 171 C69 7 209 -77 463 54 L463 54 Z M344 445 C399 445 433 416 433 374 C433 285 313 236 130 222 C147 333 226 445 344 445 L344 445 Z " />
<glyph glyph-name="ecircumflex" unicode="&#xea;" horiz-adv-x="550" d="M486 570 L527 603 L394 754 L392 754 L192 607 L220 574 L382 692 L486 570 Z M463 54 L454 87 C234 2 127 41 127 179 C127 181 127 183 127 184 C358 201 491 271 491 384 C491 453 440 496 357 496 C191 496 69 324 69 171 C69 7 209 -77 463 54 L463 54 Z M344 445 C399 445 433 416 433 374 C433 285 313 236 130 222 C147 333 226 445 344 445 L344 445 Z " />
<glyph glyph-name="edieresis" unicode="&#xeb;" horiz-adv-x="550" d="M483 583 L522 714 L454 712 L423 581 L483 583 Z M271 580 L310 711 L243 710 L211 579 L271 580 Z M463 54 L454 87 C234 2 127 41 127 179 C127 181 127 183 127 184 C358 201 491 271 491 384 C491 453 440 496 357 496 C191 496 69 324 69 171 C69 7 209 -77 463 54 L463 54 Z M344 445 C399 445 433 416 433 374 C433 285 313 236 130 222 C147 333 226 445 344 445 L344 445 Z " />
<glyph glyph-name="igrave" unicode="&#xec;" horiz-adv-x="550" d="M429 577 C376 622 302 702 257 761 L212 713 C265 658 354 588 412 551 L429 577 Z M467 41 L459 76 C253 18 220 40 244 132 L336 484 L282 485 L77 433 L81 400 L264 430 L184 123 C148 -13 232 -53 467 41 L467 41 Z " />
<glyph glyph-name="iacute" unicode="&#xed;" horiz-adv-x="550" d="M213 585 L227 558 C299 594 403 654 466 705 L422 755 C368 700 278 627 213 585 L213 585 Z M467 41 L459 76 C253 18 220 40 244 132 L336 484 L282 485 L77 433 L81 400 L264 430 L184 123 C148 -13 232 -53 467 41 L467 41 Z " />
<glyph glyph-name="icircumflex" unicode="&#xee;" horiz-adv-x="550" d="M456 559 L497 592 L364 743 L362 743 L162 596 L190 563 L352 681 L456 559 Z M467 41 L459 76 C253 18 220 40 244 132 L336 484 L282 485 L77 433 L81 400 L264 430 L184 123 C148 -13 232 -53 467 41 L467 41 Z " />
<glyph glyph-name="idieresis" unicode="&#xef;" horiz-adv-x="550" d="M454 572 L493 703 L425 701 L394 570 L454 572 Z M242 569 L281 700 L214 699 L182 568 L242 569 Z M467 41 L459 76 C253 18 220 40 244 132 L336 484 L282 485 L77 433 L81 400 L264 430 L184 123 C148 -13 232 -53 467 41 L467 41 Z " />
<glyph glyph-name="eth" unicode="&#xf0;" horiz-adv-x="550" d="M245 -11 C392 -11 497 111 497 309 C497 404 467 492 403 575 L504 603 L494 643 L375 610 C344 644 308 677 266 710 L222 674 C258 647 288 620 314 593 L178 555 L190 515 L344 558 C375 521 397 482 413 443 C378 453 344 457 315 457 C166 457 60 330 60 183 C60 68 132 -11 245 -11 L245 -11 Z M258 39 C175 39 120 103 120 197 C120 308 195 408 298 408 C331 408 381 400 431 377 C436 352 438 325 438 298 C438 148 368 39 258 39 L258 39 Z " />
<glyph glyph-name="ntilde" unicode="&#xf1;" horiz-adv-x="550" d="M422 625 C374 625 358 735 290 735 C242 735 195 690 145 604 L177 585 C214 646 247 688 277 688 C325 688 341 578 409 578 C458 578 504 628 554 714 L522 733 C485 672 452 625 422 625 L422 625 Z M512 33 L501 66 C424 31 409 39 409 70 C409 130 478 306 478 405 C478 455 455 495 395 495 C333 495 258 456 184 380 C190 416 196 464 200 487 L143 483 C120 339 99 231 54 0 L112 0 C130 93 165 265 177 330 C248 404 314 440 361 440 C398 440 416 419 416 379 C416 294 347 124 347 47 C347 -14 399 -36 512 33 L512 33 Z " />
<glyph glyph-name="ograve" unicode="&#xf2;" horiz-adv-x="550" d="M444 588 C391 633 317 713 272 772 L227 724 C280 669 369 599 427 562 L444 588 Z M59 185 C59 57 127 -11 233 -11 C376 -11 491 125 491 299 C491 427 421 496 317 496 C173 496 59 357 59 185 L59 185 Z M431 290 C431 153 354 40 244 40 C164 40 119 97 119 195 C119 330 195 446 306 446 C386 446 431 387 431 290 L431 290 Z " />
<glyph glyph-name="oacute" unicode="&#xf3;" horiz-adv-x="550" d="M228 596 L242 569 C314 605 418 665 481 716 L437 766 C383 711 293 638 228 596 L228 596 Z M59 185 C59 57 127 -11 233 -11 C376 -11 491 125 491 299 C491 427 421 496 317 496 C173 496 59 357 59 185 L59 185 Z M431 290 C431 153 354 40 244 40 C164 40 119 97 119 195 C119 330 195 446 306 446 C386 446 431 387 431 290 L431 290 Z " />
<glyph glyph-name="ocircumflex" unicode="&#xf4;" horiz-adv-x="550" d="M472 570 L513 603 L380 754 L378 754 L178 607 L206 574 L368 692 L472 570 Z M59 185 C59 57 127 -11 233 -11 C376 -11 491 125 491 299 C491 427 421 496 317 496 C173 496 59 357 59 185 L59 185 Z M431 290 C431 153 354 40 244 40 C164 40 119 97 119 195 C119 330 195 446 306 446 C386 446 431 387 431 290 L431 290 Z " />
<glyph glyph-name="otilde" unicode="&#xf5;" horiz-adv-x="550" d="M428 626 C380 626 364 736 296 736 C248 736 201 691 151 605 L183 586 C220 647 253 689 283 689 C331 689 347 579 415 579 C464 579 510 629 560 715 L528 734 C491 673 458 626 428 626 L428 626 Z M59 185 C59 57 127 -11 233 -11 C376 -11 491 125 491 299 C491 427 421 496 317 496 C173 496 59 357 59 185 L59 185 Z M431 290 C431 153 354 40 244 40 C164 40 119 97 119 195 C119 330 195 446 306 446 C386 446 431 387 431 290 L431 290 Z " />
<glyph glyph-name="odieresis" unicode="&#xf6;" horiz-adv-x="550" d="M470 583 L509 714 L441 712 L410 581 L470 583 Z M258 580 L297 711 L230 710 L198 579 L258 580 Z M59 185 C59 57 127 -11 233 -11 C376 -11 491 125 491 299 C491 427 421 496 317 496 C173 496 59 357 59 185 L59 185 Z M431 290 C431 153 354 40 244 40 C164 40 119 97 119 195 C119 330 195 446 306 446 C386 446 431 387 431 290 L431 290 Z " />
<glyph glyph-name="divide" unicode="&#xf7;" horiz-adv-x="550" d="M347 429 L363 511 L289 511 L273 429 L347 429 Z M504 314 L75 314 L65 264 L494 264 L504 314 Z M279 69 L295 150 L222 150 L205 69 L279 69 Z " />
<glyph glyph-name="oslash" unicode="&#xf8;" horiz-adv-x="550" d="M118 194 C118 330 195 446 306 446 C344 446 374 433 396 408 L133 111 C123 133 118 161 118 194 L118 194 Z M244 39 C207 39 177 51 156 74 L418 370 C427 348 431 321 431 290 C431 153 354 39 244 39 L244 39 Z M233 -11 C376 -11 491 125 491 299 C491 347 481 387 463 418 L525 487 L489 514 L435 454 C405 482 365 496 317 496 C173 496 59 357 59 185 C59 135 69 95 88 64 L26 -5 L62 -32 L117 29 C146 2 186 -11 233 -11 L233 -11 Z " />
<glyph glyph-name="ugrave" unicode="&#xf9;" horiz-adv-x="550" d="M455 579 C402 624 328 704 283 763 L238 715 C291 660 380 590 438 553 L455 579 Z M517 34 L508 66 C412 23 407 44 422 123 L493 484 L436 484 L374 167 C302 86 248 45 198 45 C151 45 127 82 150 179 L220 487 L160 483 L90 362 L129 339 L91 173 C62 47 99 -11 171 -11 C231 -11 293 31 363 112 C339 -4 374 -48 517 34 L517 34 Z " />
<glyph glyph-name="uacute" unicode="&#xfa;" horiz-adv-x="550" d="M239 587 L253 560 C325 596 429 656 492 707 L448 757 C394 702 304 629 239 587 L239 587 Z M517 34 L508 66 C412 23 407 44 422 123 L493 484 L436 484 L374 167 C302 86 248 45 198 45 C151 45 127 82 150 179 L220 487 L160 483 L90 362 L129 339 L91 173 C62 47 99 -11 171 -11 C231 -11 293 31 363 112 C339 -4 374 -48 517 34 L517 34 Z " />
<glyph glyph-name="ucircumflex" unicode="&#xfb;" horiz-adv-x="550" d="M483 561 L524 594 L391 745 L389 745 L189 598 L217 565 L379 683 L483 561 Z M517 34 L508 66 C412 23 407 44 422 123 L493 484 L436 484 L374 167 C302 86 248 45 198 45 C151 45 127 82 150 179 L220 487 L160 483 L90 362 L129 339 L91 173 C62 47 99 -11 171 -11 C231 -11 293 31 363 112 C339 -4 374 -48 517 34 L517 34 Z " />
<glyph glyph-name="udieresis" unicode="&#xfc;" horiz-adv-x="550" d="M480 574 L519 705 L451 703 L420 572 L480 574 Z M268 571 L307 702 L240 701 L208 570 L268 571 Z M517 34 L508 66 C412 23 407 44 422 123 L493 484 L436 484 L374 167 C302 86 248 45 198 45 C151 45 127 82 150 179 L220 487 L160 483 L90 362 L129 339 L91 173 C62 47 99 -11 171 -11 C231 -11 293 31 363 112 C339 -4 374 -48 517 34 L517 34 Z " />
<glyph glyph-name="yacute" unicode="&#xfd;" horiz-adv-x="550" d="M237 593 L251 566 C323 602 427 662 490 713 L446 763 C392 708 302 635 237 593 L237 593 Z M413 -91 C437 -43 425 39 425 163 C425 178 425 192 426 206 C473 302 511 440 511 471 C511 485 487 493 470 493 C444 493 386 329 375 199 C316 128 244 79 195 79 C129 79 95 149 216 486 L158 484 C20 113 76 24 167 24 C238 24 318 81 374 147 C375 19 386 -59 360 -86 C339 -106 267 -128 67 -110 L58 -171 C287 -185 385 -148 413 -91 L413 -91 Z " />
<glyph glyph-name="thorn" unicode="&#xfe;" horiz-adv-x="550" d="M234 40 C206 40 168 46 128 58 L182 337 C232 391 306 440 356 440 C399 440 434 401 434 320 C434 175 347 40 234 40 L234 40 Z M83 -171 L116 -1 C148 -7 177 -10 203 -10 C371 -10 492 154 492 334 C492 442 444 496 381 496 C325 496 250 448 193 390 L254 703 L195 698 L26 -176 L83 -171 Z " />
<glyph glyph-name="ydieresis" unicode="&#xff;" horiz-adv-x="550" d="M478 580 L517 711 L449 709 L418 578 L478 580 Z M266 577 L305 708 L238 707 L206 576 L266 577 Z M413 -91 C437 -43 425 39 425 163 C425 178 425 192 426 206 C473 302 511 440 511 471 C511 485 487 493 470 493 C444 493 386 329 375 199 C316 128 244 79 195 79 C129 79 95 149 216 486 L158 484 C20 113 76 24 167 24 C238 24 318 81 374 147 C375 19 386 -59 360 -86 C339 -106 267 -128 67 -110 L58 -171 C287 -185 385 -148 413 -91 L413 -91 Z " />
<glyph glyph-name="Amacron" unicode="&#x100;" horiz-adv-x="550" d="M549 800 L229 800 L219 749 L540 749 L549 800 Z M405 -2 L465 2 C446 210 423 416 398 623 L311 623 C204 416 100 207 2 0 L64 0 C96 67 128 134 161 202 L386 202 C393 133 399 65 405 -2 L405 -2 Z M341 568 L349 568 C361 463 372 356 382 249 L183 249 C235 356 288 462 341 568 L341 568 Z " />
<glyph glyph-name="amacron" unicode="&#x101;" horiz-adv-x="550" d="M538 671 L218 671 L208 620 L529 620 L538 671 Z M187 46 C146 46 116 79 116 156 C116 305 204 443 314 443 C340 443 375 437 413 427 C398 353 368 200 358 147 C306 93 234 46 187 46 L187 46 Z M511 34 L504 66 C402 23 395 44 411 123 L480 474 C430 487 386 494 346 494 C178 494 56 326 56 143 C56 40 100 -10 161 -10 C217 -10 292 39 350 97 C336 -5 372 -48 511 34 L511 34 Z " />
<glyph glyph-name="Abreve" unicode="&#x102;" horiz-adv-x="550" d="M541 868 C483 794 438 752 384 752 C333 752 301 785 266 872 L219 848 C257 749 307 703 372 703 C441 703 509 755 576 845 L541 868 Z M405 -2 L465 2 C446 210 423 416 398 623 L311 623 C204 416 100 207 2 0 L64 0 C96 67 128 134 161 202 L386 202 C393 133 399 65 405 -2 L405 -2 Z M341 568 L349 568 C361 463 372 356 382 249 L183 249 C235 356 288 462 341 568 L341 568 Z " />
<glyph glyph-name="abreve" unicode="&#x103;" horiz-adv-x="550" d="M531 739 C473 665 428 623 374 623 C323 623 291 656 256 743 L209 719 C247 620 297 574 362 574 C431 574 499 626 566 716 L531 739 Z M187 46 C146 46 116 79 116 156 C116 305 204 443 314 443 C340 443 375 437 413 427 C398 353 368 200 358 147 C306 93 234 46 187 46 L187 46 Z M511 34 L504 66 C402 23 395 44 411 123 L480 474 C430 487 386 494 346 494 C178 494 56 326 56 143 C56 40 100 -10 161 -10 C217 -10 292 39 350 97 C336 -5 372 -48 511 34 L511 34 Z " />
<glyph glyph-name="Aogonek" unicode="&#x104;" horiz-adv-x="550" d="M436 -166 L427 -137 C320 -180 278 -162 278 -128 C278 -91 331 -46 465 2 C446 210 423 416 398 623 L311 623 C204 416 100 207 2 0 L64 0 C96 67 128 134 161 202 L386 202 C392 138 398 75 404 13 C275 -42 221 -97 221 -144 C221 -202 296 -240 436 -166 L436 -166 Z M341 568 L349 568 C361 463 372 356 382 249 L183 249 C235 356 288 462 341 568 L341 568 Z " />
<glyph glyph-name="aogonek" unicode="&#x105;" horiz-adv-x="550" d="M478 -166 L470 -136 C362 -179 320 -161 320 -127 C320 -81 374 -32 511 34 L504 66 C402 23 395 44 411 123 L480 474 C430 487 386 494 346 494 C178 494 56 326 56 143 C56 40 100 -10 161 -10 C217 -10 292 39 350 97 C342 41 352 8 386 1 C299 -51 263 -98 263 -143 C263 -201 338 -239 478 -166 L478 -166 Z M187 46 C146 46 116 79 116 156 C116 305 204 443 314 443 C340 443 375 437 413 427 C398 353 368 200 358 147 C306 93 234 46 187 46 L187 46 Z " />
<glyph glyph-name="Cacute" unicode="&#x106;" horiz-adv-x="550" d="M262 733 L276 706 C348 742 452 802 515 853 L471 903 C417 848 327 775 262 733 L262 733 Z M378 633 C205 633 70 433 70 221 C70 12 213 -65 449 22 L455 79 C247 -1 131 50 131 232 C131 402 233 579 366 579 C445 579 457 518 454 408 L512 409 C519 555 489 633 378 633 L378 633 Z " />
<glyph glyph-name="cacute" unicode="&#x107;" horiz-adv-x="550" d="M247 595 L261 568 C333 604 437 664 500 715 L456 765 C402 710 312 637 247 595 L247 595 Z M489 339 C491 447 452 495 364 495 C211 495 77 341 77 174 C77 9 216 -73 456 47 L446 80 C242 3 136 46 136 183 C136 321 233 443 350 443 C406 443 432 417 434 338 L489 339 Z " />
<glyph glyph-name="Cdotaccent" unicode="&#x10a;" horiz-adv-x="550" d="M396 718 L436 849 L367 848 L336 717 L396 718 Z M378 633 C205 633 70 433 70 221 C70 12 213 -65 449 22 L455 79 C247 -1 131 50 131 232 C131 402 233 579 366 579 C445 579 457 518 454 408 L512 409 C519 555 489 633 378 633 L378 633 Z " />
<glyph glyph-name="cdotaccent" unicode="&#x10b;" horiz-adv-x="550" d="M382 580 L422 711 L353 710 L322 579 L382 580 Z M489 339 C491 447 452 495 364 495 C211 495 77 341 77 174 C77 9 216 -73 456 47 L446 80 C242 3 136 46 136 183 C136 321 233 443 350 443 C406 443 432 417 434 338 L489 339 Z " />
<glyph glyph-name="Ccaron" unicode="&#x10c;" horiz-adv-x="550" d="M368 704 L567 851 L539 884 L377 766 L273 888 L231 854 L365 704 L368 704 Z M378 633 C205 633 70 433 70 221 C70 12 213 -65 449 22 L455 79 C247 -1 131 50 131 232 C131 402 233 579 366 579 C445 579 457 518 454 408 L512 409 C519 555 489 633 378 633 L378 633 Z " />
<glyph glyph-name="ccaron" unicode="&#x10d;" horiz-adv-x="550" d="M354 566 L553 713 L525 746 L363 628 L259 750 L217 716 L351 566 L354 566 Z M489 339 C491 447 452 495 364 495 C211 495 77 341 77 174 C77 9 216 -73 456 47 L446 80 C242 3 136 46 136 183 C136 321 233 443 350 443 C406 443 432 417 434 338 L489 339 Z " />
<glyph glyph-name="Dcaron" unicode="&#x10e;" horiz-adv-x="550" d="M380 698 L579 845 L551 878 L389 760 L285 882 L243 848 L377 698 L380 698 Z M518 382 C518 577 391 656 170 619 L50 0 C367 -42 518 153 518 382 L518 382 Z M457 375 C457 188 348 29 120 49 L222 572 C374 590 457 528 457 375 L457 375 Z " />
<glyph glyph-name="dcaron" unicode="&#x10f;" horiz-adv-x="550" d="M628 798 C634 724 633 657 572 564 L598 551 C676 640 699 723 701 802 L628 798 Z M191 46 C148 46 115 85 115 165 C115 309 201 445 310 445 C336 445 374 439 413 428 L357 140 C308 89 239 46 191 46 L191 46 Z M514 35 L506 66 C404 23 397 44 413 126 L527 703 L466 698 L425 487 C394 492 366 495 341 495 C175 495 56 331 56 152 C56 45 103 -10 165 -10 C221 -10 294 35 350 91 C338 -6 377 -46 514 35 L514 35 Z " />
<glyph glyph-name="Dcroat" unicode="&#x110;" horiz-adv-x="550" d="M518 382 C518 577 391 656 170 619 L116 338 L40 338 L31 292 L107 292 L50 0 C367 -42 518 153 518 382 L518 382 Z M310 292 L322 338 L176 338 L222 572 C374 590 457 528 457 375 C457 188 348 29 120 49 L167 292 L310 292 Z " />
<glyph glyph-name="dcroat" unicode="&#x111;" horiz-adv-x="550" d="M191 46 C148 46 115 85 115 165 C115 309 201 445 310 445 C336 445 374 439 413 428 L357 140 C308 89 239 46 191 46 L191 46 Z M514 35 L506 66 C404 23 397 44 413 126 L503 584 L576 584 L584 625 L512 625 L527 703 L466 698 L452 625 L312 625 L304 584 L444 584 L425 487 C394 492 366 495 341 495 C175 495 56 331 56 152 C56 45 103 -10 165 -10 C221 -10 294 35 350 91 C338 -6 377 -46 514 35 L514 35 Z " />
<glyph glyph-name="Emacron" unicode="&#x112;" horiz-adv-x="550" d="M562 798 L242 798 L232 747 L553 747 L562 798 Z M439 53 L137 53 L183 291 L438 291 L447 338 L192 338 L236 567 L537 567 L547 620 L185 620 L65 0 L425 0 L439 53 Z " />
<glyph glyph-name="emacron" unicode="&#x113;" horiz-adv-x="550" d="M533 674 L213 674 L203 623 L524 623 L533 674 Z M463 54 L454 87 C234 2 127 41 127 179 C127 181 127 183 127 184 C358 201 491 271 491 384 C491 453 440 496 357 496 C191 496 69 324 69 171 C69 7 209 -77 463 54 L463 54 Z M344 445 C399 445 433 416 433 374 C433 285 313 236 130 222 C147 333 226 445 344 445 L344 445 Z " />
<glyph glyph-name="Ebreve" unicode="&#x114;" horiz-adv-x="550" d="M555 866 C497 792 452 750 398 750 C347 750 315 783 280 870 L233 846 C271 747 321 701 386 701 C455 701 523 753 590 843 L555 866 Z M439 53 L137 53 L183 291 L438 291 L447 338 L192 338 L236 567 L537 567 L547 620 L185 620 L65 0 L425 0 L439 53 Z " />
<glyph glyph-name="ebreve" unicode="&#x115;" horiz-adv-x="550" d="M525 742 C467 668 422 626 368 626 C317 626 285 659 250 746 L203 722 C241 623 291 577 356 577 C425 577 493 629 560 719 L525 742 Z M463 54 L454 87 C234 2 127 41 127 179 C127 181 127 183 127 184 C358 201 491 271 491 384 C491 453 440 496 357 496 C191 496 69 324 69 171 C69 7 209 -77 463 54 L463 54 Z M344 445 C399 445 433 416 433 374 C433 285 313 236 130 222 C147 333 226 445 344 445 L344 445 Z " />
<glyph glyph-name="Edotaccent" unicode="&#x116;" horiz-adv-x="550" d="M406 705 L446 836 L377 835 L346 704 L406 705 Z M439 53 L137 53 L183 291 L438 291 L447 338 L192 338 L236 567 L537 567 L547 620 L185 620 L65 0 L425 0 L439 53 Z " />
<glyph glyph-name="edotaccent" unicode="&#x117;" horiz-adv-x="550" d="M377 581 L417 712 L348 711 L317 580 L377 581 Z M463 54 L454 87 C234 2 127 41 127 179 C127 181 127 183 127 184 C358 201 491 271 491 384 C491 453 440 496 357 496 C191 496 69 324 69 171 C69 7 209 -77 463 54 L463 54 Z M344 445 C399 445 433 416 433 374 C433 285 313 236 130 222 C147 333 226 445 344 445 L344 445 Z " />
<glyph glyph-name="Eogonek" unicode="&#x118;" horiz-adv-x="550" d="M396 -167 L387 -138 C279 -181 237 -162 237 -128 C237 -91 292 -48 425 0 L439 53 L137 53 L183 291 L438 291 L447 338 L192 338 L236 567 L537 567 L547 620 L185 620 L65 0 L341 0 C228 -50 181 -101 181 -145 C181 -203 255 -241 396 -167 L396 -167 Z " />
<glyph glyph-name="eogonek" unicode="&#x119;" horiz-adv-x="550" d="M389 -166 L381 -137 C273 -180 231 -162 231 -128 C231 -77 307 -13 463 54 L454 87 C234 2 127 41 127 179 C127 181 127 183 127 184 C358 201 491 271 491 384 C491 453 440 496 357 496 C191 496 69 324 69 171 C69 51 143 -26 283 -7 C207 -55 174 -100 174 -144 C174 -202 249 -240 389 -166 L389 -166 Z M344 445 C399 445 433 416 433 374 C433 285 313 236 130 222 C147 333 226 445 344 445 L344 445 Z " />
<glyph glyph-name="Ecaron" unicode="&#x11a;" horiz-adv-x="550" d="M378 691 L577 838 L549 871 L387 753 L283 875 L241 841 L375 691 L378 691 Z M439 53 L137 53 L183 291 L438 291 L447 338 L192 338 L236 567 L537 567 L547 620 L185 620 L65 0 L425 0 L439 53 Z " />
<glyph glyph-name="ecaron" unicode="&#x11b;" horiz-adv-x="550" d="M349 567 L548 714 L520 747 L358 629 L254 751 L212 717 L346 567 L349 567 Z M463 54 L454 87 C234 2 127 41 127 179 C127 181 127 183 127 184 C358 201 491 271 491 384 C491 453 440 496 357 496 C191 496 69 324 69 171 C69 7 209 -77 463 54 L463 54 Z M344 445 C399 445 433 416 433 374 C433 285 313 236 130 222 C147 333 226 445 344 445 L344 445 Z " />
<glyph glyph-name="Gbreve" unicode="&#x11e;" horiz-adv-x="550" d="M537 879 C479 805 434 763 380 763 C329 763 297 796 262 883 L215 859 C253 760 303 714 368 714 C437 714 505 766 572 856 L537 879 Z M398 -109 L479 241 L420 238 L381 62 C220 6 130 64 130 230 C130 400 229 579 358 579 C435 579 448 518 445 408 L502 409 C509 561 473 633 367 633 C205 633 69 434 69 219 C69 30 182 -51 368 7 L342 -111 L398 -109 Z " />
<glyph glyph-name="gbreve" unicode="&#x11f;" horiz-adv-x="550" d="M518 741 C460 667 415 625 361 625 C310 625 278 658 243 745 L196 721 C234 622 284 576 349 576 C418 576 486 628 553 718 L518 741 Z M205 77 C157 77 120 113 120 188 C120 315 203 445 316 445 C347 445 384 435 425 415 C402 357 379 277 369 206 C320 123 260 77 205 77 L205 77 Z M418 -91 C442 -44 418 23 418 158 C418 174 419 194 420 215 C469 317 513 443 513 472 C513 484 490 495 473 495 C467 495 459 486 450 471 C414 486 378 495 342 495 C181 495 62 341 62 176 C62 75 111 21 181 21 C251 21 316 73 364 140 C364 20 390 -58 361 -86 C341 -106 262 -129 56 -111 L50 -170 C285 -185 389 -149 418 -91 L418 -91 Z " />
<glyph glyph-name="Gdotaccent" unicode="&#x120;" horiz-adv-x="550" d="M389 718 L429 849 L360 848 L329 717 L389 718 Z M398 -109 L479 241 L420 238 L381 62 C220 6 130 64 130 230 C130 400 229 579 358 579 C435 579 448 518 445 408 L502 409 C509 561 473 633 367 633 C205 633 69 434 69 219 C69 30 182 -51 368 7 L342 -111 L398 -109 Z " />
<glyph glyph-name="gdotaccent" unicode="&#x121;" horiz-adv-x="550" d="M370 580 L410 711 L341 710 L310 579 L370 580 Z M205 77 C157 77 120 113 120 188 C120 315 203 445 316 445 C347 445 384 435 425 415 C402 357 379 277 369 206 C320 123 260 77 205 77 L205 77 Z M418 -91 C442 -44 418 23 418 158 C418 174 419 194 420 215 C469 317 513 443 513 472 C513 484 490 495 473 495 C467 495 459 486 450 471 C414 486 378 495 342 495 C181 495 62 341 62 176 C62 75 111 21 181 21 C251 21 316 73 364 140 C364 20 390 -58 361 -86 C341 -106 262 -129 56 -111 L50 -170 C285 -185 389 -149 418 -91 L418 -91 Z " />
<glyph glyph-name="Gcommaaccent" unicode="&#x122;" horiz-adv-x="550" d="M398 -109 L479 241 L420 238 L381 62 C220 6 130 64 130 230 C130 400 229 579 358 579 C435 579 448 518 445 408 L502 409 C509 561 473 633 367 633 C205 633 69 434 69 219 C69 30 182 -51 368 7 L342 -111 L398 -109 Z M112 -363 L136 -375 C204 -308 233 -237 232 -173 L153 -176 C165 -233 163 -291 112 -363 L112 -363 Z " />
<glyph glyph-name="gcommaaccent" unicode="&#x123;" horiz-adv-x="550" d="M420 758 L396 770 C328 704 299 632 299 568 L379 571 C367 628 369 686 420 758 L420 758 Z M205 77 C157 77 120 113 120 188 C120 315 203 445 316 445 C347 445 384 435 425 415 C402 357 379 277 369 206 C320 123 260 77 205 77 L205 77 Z M418 -91 C442 -44 418 23 418 158 C418 174 419 194 420 215 C469 317 513 443 513 472 C513 484 490 495 473 495 C467 495 459 486 450 471 C414 486 378 495 342 495 C181 495 62 341 62 176 C62 75 111 21 181 21 C251 21 316 73 364 140 C364 20 390 -58 361 -86 C341 -106 262 -129 56 -111 L50 -170 C285 -185 389 -149 418 -91 L418 -91 Z " />
<glyph glyph-name="Hbar" unicode="&#x126;" horiz-adv-x="550" d="M426 327 L171 327 L195 451 L450 451 L426 327 Z M363 0 L425 0 L512 449 L586 449 L595 494 L521 494 L545 620 L483 620 L458 493 L203 493 L228 620 L166 620 L142 494 L66 494 L57 449 L133 449 L46 0 L108 0 L162 279 L417 279 L363 0 Z " />
<glyph glyph-name="hbar" unicode="&#x127;" horiz-adv-x="550" d="M512 33 L501 66 C424 31 409 39 409 70 C409 130 478 306 478 404 C478 455 455 494 395 494 C333 494 258 454 184 374 L225 584 L365 584 L373 625 L233 625 L248 703 L189 698 L175 625 L100 625 L92 584 L167 584 L54 0 L112 0 L174 319 C246 400 313 439 361 439 C398 439 416 418 416 379 C416 295 347 124 347 47 C347 -14 399 -36 512 33 L512 33 Z " />
<glyph glyph-name="Imacron" unicode="&#x12a;" horiz-adv-x="550" d="M539 798 L219 798 L209 747 L530 747 L539 798 Z M264 49 L365 571 L515 571 L525 620 L159 620 L149 571 L304 571 L203 49 L52 49 L42 0 L407 0 L419 49 L264 49 Z " />
<glyph glyph-name="imacron" unicode="&#x12b;" horiz-adv-x="550" d="M503 663 L183 663 L173 612 L494 612 L503 663 Z M467 41 L459 76 C253 18 220 40 244 132 L336 484 L282 485 L77 433 L81 400 L264 430 L184 123 C148 -13 232 -53 467 41 L467 41 Z " />
<glyph glyph-name="Ibreve" unicode="&#x12c;" horiz-adv-x="550" d="M532 866 C474 792 429 750 375 750 C324 750 292 783 257 870 L210 846 C248 747 298 701 363 701 C432 701 500 753 567 843 L532 866 Z M264 49 L365 571 L515 571 L525 620 L159 620 L149 571 L304 571 L203 49 L52 49 L42 0 L407 0 L419 49 L264 49 Z " />
<glyph glyph-name="ibreve" unicode="&#x12d;" horiz-adv-x="550" d="M496 731 C438 657 393 615 339 615 C288 615 256 648 221 735 L174 711 C212 612 262 566 327 566 C396 566 464 618 531 708 L496 731 Z M467 41 L459 76 C253 18 220 40 244 132 L336 484 L282 485 L77 433 L81 400 L264 430 L184 123 C148 -13 232 -53 467 41 L467 41 Z " />
<glyph glyph-name="Iogonek" unicode="&#x12e;" horiz-adv-x="550" d="M304 -166 L296 -137 C189 -180 146 -162 146 -128 C146 -90 179 -47 261 0 L407 0 L419 49 L264 49 L365 571 L515 571 L525 620 L159 620 L149 571 L304 571 L203 49 L52 49 L42 0 L196 0 C121 -50 89 -99 89 -144 C89 -202 164 -240 304 -166 L304 -166 Z " />
<glyph glyph-name="iogonek" unicode="&#x12f;" horiz-adv-x="550" d="M356 571 L394 702 L326 699 L296 567 L356 571 Z M372 -166 L364 -137 C257 -180 214 -162 214 -128 C214 -88 256 -38 467 41 L459 76 C253 18 220 40 244 132 L336 484 L282 485 L77 433 L81 400 L264 430 L184 123 C161 34 184 -14 276 -10 C188 -56 157 -101 157 -144 C157 -202 232 -240 372 -166 L372 -166 Z " />
<glyph glyph-name="Idotaccent" unicode="&#x130;" horiz-adv-x="550" d="M384 705 L424 836 L355 835 L324 704 L384 705 Z M264 49 L365 571 L515 571 L525 620 L159 620 L149 571 L304 571 L203 49 L52 49 L42 0 L407 0 L419 49 L264 49 Z " />
<glyph glyph-name="dotlessi" unicode="&#x131;" horiz-adv-x="550" d="M467 41 L459 76 C253 18 220 40 244 132 L336 484 L282 485 L77 433 L81 400 L264 430 L184 123 C148 -13 232 -53 467 41 L467 41 Z " />
<glyph glyph-name="Kcommaaccent" unicode="&#x136;" horiz-adv-x="550" d="M408 -5 L474 4 L277 312 L578 620 L509 620 L207 312 L408 -5 Z M179 620 L58 0 L119 0 L240 620 L179 620 Z M171 -264 L195 -276 C263 -209 292 -138 291 -74 L212 -77 C224 -134 222 -192 171 -264 L171 -264 Z " />
<glyph glyph-name="kcommaaccent" unicode="&#x137;" horiz-adv-x="550" d="M418 -5 L486 5 L295 200 C449 276 510 351 510 416 C510 463 478 495 421 495 C357 495 273 453 192 370 L257 703 L197 698 L62 0 L120 0 L181 315 C264 399 341 440 394 440 C426 440 446 423 446 394 C446 349 396 284 222 200 L418 -5 Z M162 -264 L186 -276 C254 -209 283 -138 282 -74 L203 -77 C215 -134 213 -192 162 -264 L162 -264 Z " />
<glyph glyph-name="Lacute" unicode="&#x139;" horiz-adv-x="550" d="M281 720 L295 693 C367 729 471 789 534 840 L490 890 C436 835 346 762 281 720 L281 720 Z M444 0 L456 53 L139 53 L249 620 L187 620 L67 0 L444 0 Z " />
<glyph glyph-name="lacute" unicode="&#x13a;" horiz-adv-x="550" d="M385 803 L399 776 C471 812 575 872 638 923 L594 973 C540 918 450 845 385 803 L385 803 Z M455 65 L441 98 C284 14 199 18 192 159 C437 335 530 491 530 606 C530 669 497 705 441 705 C306 705 132 438 132 168 L132 165 C112 151 81 130 68 122 L86 93 C95 99 116 112 134 124 C152 -32 271 -46 455 65 L455 65 Z M422 646 C453 646 473 624 473 583 C473 495 400 362 191 204 C200 430 330 646 422 646 L422 646 Z " />
<glyph glyph-name="Lcommaaccent" unicode="&#x13b;" horiz-adv-x="550" d="M444 0 L456 53 L139 53 L249 620 L187 620 L67 0 L444 0 Z M162 -259 L186 -271 C254 -204 283 -133 282 -69 L203 -72 C215 -129 213 -187 162 -259 L162 -259 Z " />
<glyph glyph-name="lcommaaccent" unicode="&#x13c;" horiz-adv-x="550" d="M455 65 L441 98 C284 14 199 18 192 159 C437 335 530 491 530 606 C530 669 497 705 441 705 C306 705 132 438 132 168 L132 165 C112 151 81 130 68 122 L86 93 C95 99 116 112 134 124 C152 -32 271 -46 455 65 L455 65 Z M422 646 C453 646 473 624 473 583 C473 495 400 362 191 204 C200 430 330 646 422 646 L422 646 Z M187 -267 L211 -279 C279 -212 308 -141 307 -77 L228 -80 C240 -137 238 -195 187 -267 L187 -267 Z " />
<glyph glyph-name="Lcaron" unicode="&#x13d;" horiz-adv-x="550" d="M481 696 C487 622 486 555 425 462 L451 449 C529 538 552 621 554 700 L481 696 Z M444 0 L456 53 L139 53 L249 620 L187 620 L67 0 L444 0 Z " />
<glyph glyph-name="lcaron" unicode="&#x13e;" horiz-adv-x="550" d="M630 798 C636 724 635 657 574 564 L600 551 C678 640 701 723 703 802 L630 798 Z M455 65 L441 98 C284 14 199 18 192 159 C437 335 530 491 530 606 C530 669 497 705 441 705 C306 705 132 438 132 168 L132 165 C112 151 81 130 68 122 L86 93 C95 99 116 112 134 124 C152 -32 271 -46 455 65 L455 65 Z M422 646 C453 646 473 624 473 583 C473 495 400 362 191 204 C200 430 330 646 422 646 L422 646 Z " />
<glyph glyph-name="Ldot" unicode="&#x13f;" horiz-adv-x="550" d="M444 0 L456 53 L139 53 L249 620 L187 620 L67 0 L444 0 Z M463 269 L485 365 L406 365 L383 269 L463 269 Z " />
<glyph glyph-name="ldot" unicode="&#x140;" horiz-adv-x="550" d="M455 65 L441 98 C284 14 199 18 192 159 C437 335 530 491 530 606 C530 669 497 705 441 705 C306 705 132 438 132 168 L132 165 C112 151 81 130 68 122 L86 93 C95 99 116 112 134 124 C152 -32 271 -46 455 65 L455 65 Z M422 646 C453 646 473 624 473 583 C473 495 400 362 191 204 C200 430 330 646 422 646 L422 646 Z M582 268 L603 363 L526 363 L504 268 L582 268 Z " />
<glyph glyph-name="Lslash" unicode="&#x141;" horiz-adv-x="550" d="M456 0 L468 53 L151 53 L206 338 L387 424 L384 467 L216 388 L261 620 L199 620 L148 355 L54 311 L56 267 L138 306 L79 0 L456 0 Z " />
<glyph glyph-name="lslash" unicode="&#x142;" horiz-adv-x="550" d="M156 721 C156 687 181 658 220 631 L252 670 C216 697 198 714 198 731 C198 783 387 825 645 750 L665 798 C385 877 156 820 156 721 L156 721 Z M455 65 L441 98 C284 14 199 18 192 159 C437 335 530 491 530 606 C530 669 497 705 441 705 C306 705 132 438 132 168 L132 165 C112 151 81 130 68 122 L86 93 C95 99 116 112 134 124 C152 -32 271 -46 455 65 L455 65 Z M422 646 C453 646 473 624 473 583 C473 495 400 362 191 204 C200 430 330 646 422 646 L422 646 Z " />
<glyph glyph-name="Nacute" unicode="&#x143;" horiz-adv-x="550" d="M261 721 L275 694 C347 730 451 790 514 841 L470 891 C416 836 326 763 261 721 L261 721 Z M362 0 L426 0 L546 620 L489 620 L390 102 L385 102 L238 621 L166 619 L47 0 L104 0 L205 531 L210 531 L362 0 Z " />
<glyph glyph-name="nacute" unicode="&#x144;" horiz-adv-x="550" d="M223 595 L237 568 C309 604 413 664 476 715 L432 765 C378 710 288 637 223 595 L223 595 Z M512 33 L501 66 C424 31 409 39 409 70 C409 130 478 306 478 405 C478 455 455 495 395 495 C333 495 258 456 184 380 C190 416 196 464 200 487 L143 483 C120 339 99 231 54 0 L112 0 C130 93 165 265 177 330 C248 404 314 440 361 440 C398 440 416 419 416 379 C416 294 347 124 347 47 C347 -14 399 -36 512 33 L512 33 Z " />
<glyph glyph-name="Ncommaaccent" unicode="&#x145;" horiz-adv-x="550" d="M362 0 L426 0 L546 620 L489 620 L390 102 L385 102 L238 621 L166 619 L47 0 L104 0 L205 531 L210 531 L362 0 Z M142 -259 L166 -271 C234 -204 263 -133 262 -69 L183 -72 C195 -129 193 -187 142 -259 L142 -259 Z " />
<glyph glyph-name="ncommaaccent" unicode="&#x146;" horiz-adv-x="550" d="M512 33 L501 66 C424 31 409 39 409 70 C409 130 478 306 478 405 C478 455 455 495 395 495 C333 495 258 456 184 380 C190 416 196 464 200 487 L143 483 C120 339 99 231 54 0 L112 0 C130 93 165 265 177 330 C248 404 314 440 361 440 C398 440 416 419 416 379 C416 294 347 124 347 47 C347 -14 399 -36 512 33 L512 33 Z M138 -269 L162 -281 C230 -214 259 -143 258 -79 L179 -82 C191 -139 189 -197 138 -269 L138 -269 Z " />
<glyph glyph-name="Ncaron" unicode="&#x147;" horiz-adv-x="550" d="M368 692 L567 839 L539 872 L377 754 L273 876 L231 842 L365 692 L368 692 Z M362 0 L426 0 L546 620 L489 620 L390 102 L385 102 L238 621 L166 619 L47 0 L104 0 L205 531 L210 531 L362 0 Z " />
<glyph glyph-name="ncaron" unicode="&#x148;" horiz-adv-x="550" d="M330 566 L529 713 L501 746 L339 628 L235 750 L193 716 L327 566 L330 566 Z M512 33 L501 66 C424 31 409 39 409 70 C409 130 478 306 478 405 C478 455 455 495 395 495 C333 495 258 456 184 380 C190 416 196 464 200 487 L143 483 C120 339 99 231 54 0 L112 0 C130 93 165 265 177 330 C248 404 314 440 361 440 C398 440 416 419 416 379 C416 294 347 124 347 47 C347 -14 399 -36 512 33 L512 33 Z " />
<glyph glyph-name="Omacron" unicode="&#x14c;" horiz-adv-x="550" d="M553 811 L233 811 L223 760 L544 760 L553 811 Z M353 632 C186 632 66 424 66 219 C66 66 135 -12 238 -12 C405 -12 526 196 526 401 C526 554 456 632 353 632 L353 632 Z M248 41 C176 41 128 101 128 223 C128 399 218 578 343 578 C415 578 463 518 463 397 C463 221 374 41 248 41 L248 41 Z " />
<glyph glyph-name="omacron" unicode="&#x14d;" horiz-adv-x="550" d="M519 674 L199 674 L189 623 L510 623 L519 674 Z M59 185 C59 57 127 -11 233 -11 C376 -11 491 125 491 299 C491 427 421 496 317 496 C173 496 59 357 59 185 L59 185 Z M431 290 C431 153 354 40 244 40 C164 40 119 97 119 195 C119 330 195 446 306 446 C386 446 431 387 431 290 L431 290 Z " />
<glyph glyph-name="Obreve" unicode="&#x14e;" horiz-adv-x="550" d="M546 879 C488 805 443 763 389 763 C338 763 306 796 271 883 L224 859 C262 760 312 714 377 714 C446 714 514 766 581 856 L546 879 Z M353 632 C186 632 66 424 66 219 C66 66 135 -12 238 -12 C405 -12 526 196 526 401 C526 554 456 632 353 632 L353 632 Z M248 41 C176 41 128 101 128 223 C128 399 218 578 343 578 C415 578 463 518 463 397 C463 221 374 41 248 41 L248 41 Z " />
<glyph glyph-name="obreve" unicode="&#x14f;" horiz-adv-x="550" d="M512 742 C454 668 409 626 355 626 C304 626 272 659 237 746 L190 722 C228 623 278 577 343 577 C412 577 480 629 547 719 L512 742 Z M59 185 C59 57 127 -11 233 -11 C376 -11 491 125 491 299 C491 427 421 496 317 496 C173 496 59 357 59 185 L59 185 Z M431 290 C431 153 354 40 244 40 C164 40 119 97 119 195 C119 330 195 446 306 446 C386 446 431 387 431 290 L431 290 Z " />
<glyph glyph-name="Ohungarumlaut" unicode="&#x150;" horiz-adv-x="550" d="M253 706 C312 758 384 833 426 886 L366 919 C333 864 275 781 227 727 L253 706 Z M461 706 C520 757 591 832 633 886 L571 916 C538 859 483 781 434 727 L461 706 Z M353 632 C186 632 66 424 66 219 C66 66 135 -12 238 -12 C405 -12 526 196 526 401 C526 554 456 632 353 632 L353 632 Z M248 41 C176 41 128 101 128 223 C128 399 218 578 343 578 C415 578 463 518 463 397 C463 221 374 41 248 41 L248 41 Z " />
<glyph glyph-name="ohungarumlaut" unicode="&#x151;" horiz-adv-x="550" d="M219 569 C278 621 350 696 392 749 L332 782 C299 727 241 644 193 590 L219 569 Z M427 569 C486 620 557 695 599 749 L537 779 C504 722 449 644 400 590 L427 569 Z M59 185 C59 57 127 -11 233 -11 C376 -11 491 125 491 299 C491 427 421 496 317 496 C173 496 59 357 59 185 L59 185 Z M431 290 C431 153 354 40 244 40 C164 40 119 97 119 195 C119 330 195 446 306 446 C386 446 431 387 431 290 L431 290 Z " />
<glyph glyph-name="OE" unicode="&#x152;" horiz-adv-x="550" d="M120 207 C120 307 164 564 355 568 L255 52 C172 54 120 91 120 207 L120 207 Z M486 52 L313 52 L359 291 L503 291 L512 337 L368 337 L413 568 L583 568 L593 620 L394 620 C122 620 60 337 60 204 C60 43 146 0 267 0 L471 0 L486 52 Z " />
<glyph glyph-name="oe" unicode="&#x153;" horiz-adv-x="550" d="M515 57 L503 86 C373 12 324 48 324 152 C324 163 324 174 325 185 C471 204 556 287 556 395 C556 456 526 494 476 494 C421 494 372 448 337 384 C328 453 296 494 245 494 C132 494 42 316 42 150 C42 42 81 -8 143 -8 C196 -8 243 33 278 94 C293 -13 367 -53 515 57 L515 57 Z M288 338 C288 211 231 41 159 41 C123 41 100 79 100 151 C100 273 163 444 233 444 C270 444 288 405 288 338 L288 338 Z M458 441 C483 441 499 421 499 385 C499 305 433 240 330 223 C346 330 397 441 458 441 L458 441 Z " />
<glyph glyph-name="Racute" unicode="&#x154;" horiz-adv-x="550" d="M247 726 L261 699 C333 735 437 795 500 846 L456 896 C402 841 312 768 247 726 L247 726 Z M420 -5 L487 5 L314 268 C444 328 517 393 517 485 C517 582 422 650 175 619 L55 0 L116 0 L226 570 C381 587 455 547 455 473 C455 398 390 346 239 279 L238 277 L420 -5 Z " />
<glyph glyph-name="racute" unicode="&#x155;" horiz-adv-x="550" d="M266 604 L280 577 C352 613 456 673 519 724 L475 774 C421 719 331 646 266 604 L266 604 Z M508 27 L501 60 C342 4 309 41 485 474 L457 493 C384 461 307 442 247 437 C252 454 255 469 255 482 C255 505 243 518 224 518 C185 518 142 469 142 434 C142 413 158 400 184 394 C156 326 112 262 50 187 L76 164 C137 231 195 318 228 389 C278 388 343 400 407 420 C231 6 303 -63 508 27 L508 27 Z " />
<glyph glyph-name="Rcommaaccent" unicode="&#x156;" horiz-adv-x="550" d="M420 -5 L487 5 L314 268 C444 328 517 393 517 485 C517 582 422 650 175 619 L55 0 L116 0 L226 570 C381 587 455 547 455 473 C455 398 390 346 239 279 L238 277 L420 -5 Z M154 -264 L178 -276 C246 -209 275 -138 274 -74 L195 -77 C207 -134 205 -192 154 -264 L154 -264 Z " />
<glyph glyph-name="rcommaaccent" unicode="&#x157;" horiz-adv-x="550" d="M508 27 L501 60 C342 4 309 41 485 474 L457 493 C384 461 307 442 247 437 C252 454 255 469 255 482 C255 505 243 518 224 518 C185 518 142 469 142 434 C142 413 158 400 184 394 C156 326 112 262 50 187 L76 164 C137 231 195 318 228 389 C278 388 343 400 407 420 C231 6 303 -63 508 27 L508 27 Z M121 -244 L145 -256 C213 -189 242 -118 241 -54 L162 -57 C174 -114 172 -172 121 -244 L121 -244 Z " />
<glyph glyph-name="Rcaron" unicode="&#x158;" horiz-adv-x="550" d="M353 697 L552 844 L524 877 L362 759 L258 881 L216 847 L350 697 L353 697 Z M420 -5 L487 5 L314 268 C444 328 517 393 517 485 C517 582 422 650 175 619 L55 0 L116 0 L226 570 C381 587 455 547 455 473 C455 398 390 346 239 279 L238 277 L420 -5 Z " />
<glyph glyph-name="rcaron" unicode="&#x159;" horiz-adv-x="550" d="M367 575 L566 722 L538 755 L376 637 L272 759 L230 725 L364 575 L367 575 Z M508 27 L501 60 C342 4 309 41 485 474 L457 493 C384 461 307 442 247 437 C252 454 255 469 255 482 C255 505 243 518 224 518 C185 518 142 469 142 434 C142 413 158 400 184 394 C156 326 112 262 50 187 L76 164 C137 231 195 318 228 389 C278 388 343 400 407 420 C231 6 303 -63 508 27 L508 27 Z " />
<glyph glyph-name="Sacute" unicode="&#x15a;" horiz-adv-x="550" d="M257 731 L271 704 C343 740 447 800 510 851 L466 901 C412 846 322 773 257 731 L257 731 Z M506 463 C491 572 439 631 339 631 C219 631 131 545 131 453 C131 308 393 244 393 133 C393 65 306 11 42 77 L29 16 C337 -51 455 41 455 141 C455 279 193 338 193 461 C193 524 247 579 323 579 C396 579 437 541 450 453 L506 463 Z " />
<glyph glyph-name="sacute" unicode="&#x15b;" horiz-adv-x="550" d="M240 628 L254 601 C326 637 430 697 493 748 L449 798 C395 743 305 670 240 628 L240 628 Z M457 121 C457 204 344 298 318 383 C394 472 387 529 341 529 C299 529 252 467 252 413 C252 402 253 391 256 380 C219 336 167 293 76 227 L93 199 C170 248 228 293 272 334 C311 250 398 177 398 116 C398 66 353 28 124 50 L122 -6 C387 -24 457 46 457 121 L457 121 Z " />
<glyph glyph-name="Scedilla" unicode="&#x15e;" horiz-adv-x="550" d="M262 -181 L317 -180 C323 -82 295 -26 252 -6 C396 4 455 70 455 141 C455 279 193 338 193 461 C193 524 247 579 323 579 C396 579 437 541 450 453 L506 463 C491 572 439 631 339 631 C219 631 131 545 131 453 C131 308 393 244 393 133 C393 65 306 11 42 77 L29 16 C83 4 131 -3 173 -5 C134 -23 100 -67 69 -141 L103 -152 C136 -83 168 -43 205 -43 C243 -43 269 -83 262 -181 L262 -181 Z " />
<glyph glyph-name="scedilla" unicode="&#x15f;" horiz-adv-x="550" d="M283 -182 L338 -181 C344 -82 315 -25 271 -6 C415 7 457 63 457 121 C457 204 344 298 318 383 C394 472 387 529 341 529 C299 529 252 467 252 413 C252 402 253 391 256 380 C219 336 167 293 76 227 L93 199 C170 248 228 293 272 334 C311 250 398 177 398 116 C398 66 353 28 124 50 L122 -6 C146 -8 168 -9 189 -9 C152 -28 120 -71 90 -142 L124 -153 C157 -84 189 -44 226 -44 C264 -44 290 -84 283 -182 L283 -182 Z " />
<glyph glyph-name="Scaron" unicode="&#x160;" horiz-adv-x="550" d="M364 702 L563 849 L535 882 L373 764 L269 886 L227 852 L361 702 L364 702 Z M506 463 C491 572 439 631 339 631 C219 631 131 545 131 453 C131 308 393 244 393 133 C393 65 306 11 42 77 L29 16 C337 -51 455 41 455 141 C455 279 193 338 193 461 C193 524 247 579 323 579 C396 579 437 541 450 453 L506 463 Z " />
<glyph glyph-name="scaron" unicode="&#x161;" horiz-adv-x="550" d="M347 599 L546 746 L518 779 L356 661 L252 783 L210 749 L344 599 L347 599 Z M457 121 C457 204 344 298 318 383 C394 472 387 529 341 529 C299 529 252 467 252 413 C252 402 253 391 256 380 C219 336 167 293 76 227 L93 199 C170 248 228 293 272 334 C311 250 398 177 398 116 C398 66 353 28 124 50 L122 -6 C387 -24 457 46 457 121 L457 121 Z " />
<glyph glyph-name="Tcommaaccent" unicode="&#x162;" horiz-adv-x="550" d="M369 567 L570 567 L580 620 L117 620 L107 567 L308 567 L197 0 L259 0 L369 567 Z M133 -259 L157 -271 C225 -204 254 -133 253 -69 L174 -72 C186 -129 184 -187 133 -259 L133 -259 Z " />
<glyph glyph-name="tcommaaccent" unicode="&#x163;" horiz-adv-x="550" d="M455 51 L446 84 C230 2 195 45 222 163 L284 436 L479 436 L488 483 L294 483 L326 624 L280 621 L210 483 L144 483 L132 436 L225 436 L163 160 C127 4 204 -74 455 51 L455 51 Z M150 -270 L174 -282 C242 -215 271 -144 270 -80 L191 -83 C203 -140 201 -198 150 -270 L150 -270 Z " />
<glyph glyph-name="Tcaron" unicode="&#x164;" horiz-adv-x="550" d="M359 691 L558 838 L530 871 L368 753 L264 875 L222 841 L356 691 L359 691 Z M369 567 L570 567 L580 620 L117 620 L107 567 L308 567 L197 0 L259 0 L369 567 Z " />
<glyph glyph-name="tcaron" unicode="&#x165;" horiz-adv-x="550" d="M442 827 C448 753 447 686 386 593 L412 580 C490 669 513 752 515 831 L442 827 Z M455 51 L446 84 C230 2 195 45 222 163 L284 436 L479 436 L488 483 L294 483 L326 624 L280 621 L210 483 L144 483 L132 436 L225 436 L163 160 C127 4 204 -74 455 51 L455 51 Z " />
<glyph glyph-name="Umacron" unicode="&#x16a;" horiz-adv-x="550" d="M550 798 L230 798 L220 747 L541 747 L550 798 Z M145 215 L224 620 L163 620 L83 210 C54 64 118 -15 244 -15 C359 -15 438 58 465 198 L547 620 L486 620 L404 197 C383 90 332 41 251 41 C157 41 122 99 145 215 L145 215 Z " />
<glyph glyph-name="umacron" unicode="&#x16b;" horiz-adv-x="550" d="M530 665 L210 665 L200 614 L521 614 L530 665 Z M517 34 L508 66 C412 23 407 44 422 123 L493 484 L436 484 L374 167 C302 86 248 45 198 45 C151 45 127 82 150 179 L220 487 L160 483 L90 362 L129 339 L91 173 C62 47 99 -11 171 -11 C231 -11 293 31 363 112 C339 -4 374 -48 517 34 L517 34 Z " />
<glyph glyph-name="Ubreve" unicode="&#x16c;" horiz-adv-x="550" d="M543 866 C485 792 440 750 386 750 C335 750 303 783 268 870 L221 846 C259 747 309 701 374 701 C443 701 511 753 578 843 L543 866 Z M145 215 L224 620 L163 620 L83 210 C54 64 118 -15 244 -15 C359 -15 438 58 465 198 L547 620 L486 620 L404 197 C383 90 332 41 251 41 C157 41 122 99 145 215 L145 215 Z " />
<glyph glyph-name="ubreve" unicode="&#x16d;" horiz-adv-x="550" d="M522 733 C464 659 419 617 365 617 C314 617 282 650 247 737 L200 713 C238 614 288 568 353 568 C422 568 490 620 557 710 L522 733 Z M517 34 L508 66 C412 23 407 44 422 123 L493 484 L436 484 L374 167 C302 86 248 45 198 45 C151 45 127 82 150 179 L220 487 L160 483 L90 362 L129 339 L91 173 C62 47 99 -11 171 -11 C231 -11 293 31 363 112 C339 -4 374 -48 517 34 L517 34 Z " />
<glyph glyph-name="Uring" unicode="&#x16e;" horiz-adv-x="550" d="M393 889 C313 889 256 840 256 779 C256 723 307 680 380 680 C459 680 517 729 517 791 C517 847 465 889 393 889 L393 889 Z M388 850 C436 850 471 821 471 786 C471 749 434 719 384 719 C336 719 302 747 302 783 C302 820 339 850 388 850 L388 850 Z M145 215 L224 620 L163 620 L83 210 C54 64 118 -15 244 -15 C359 -15 438 58 465 198 L547 620 L486 620 L404 197 C383 90 332 41 251 41 C157 41 122 99 145 215 L145 215 Z " />
<glyph glyph-name="uring" unicode="&#x16f;" horiz-adv-x="550" d="M373 756 C293 756 236 707 236 646 C236 590 287 547 360 547 C439 547 497 596 497 658 C497 714 445 756 373 756 L373 756 Z M368 717 C416 717 451 688 451 653 C451 616 414 586 364 586 C316 586 282 614 282 650 C282 687 319 717 368 717 L368 717 Z M517 34 L508 66 C412 23 407 44 422 123 L493 484 L436 484 L374 167 C302 86 248 45 198 45 C151 45 127 82 150 179 L220 487 L160 483 L90 362 L129 339 L91 173 C62 47 99 -11 171 -11 C231 -11 293 31 363 112 C339 -4 374 -48 517 34 L517 34 Z " />
<glyph glyph-name="Uhungarumlaut" unicode="&#x170;" horiz-adv-x="550" d="M250 693 C309 745 381 820 423 873 L363 906 C330 851 272 768 224 714 L250 693 Z M458 693 C517 744 588 819 630 873 L568 903 C535 846 480 768 431 714 L458 693 Z M145 215 L224 620 L163 620 L83 210 C54 64 118 -15 244 -15 C359 -15 438 58 465 198 L547 620 L486 620 L404 197 C383 90 332 41 251 41 C157 41 122 99 145 215 L145 215 Z " />
<glyph glyph-name="uhungarumlaut" unicode="&#x171;" horiz-adv-x="550" d="M230 560 C289 612 361 687 403 740 L343 773 C310 718 252 635 204 581 L230 560 Z M438 560 C497 611 568 686 610 740 L548 770 C515 713 460 635 411 581 L438 560 Z M517 34 L508 66 C412 23 407 44 422 123 L493 484 L436 484 L374 167 C302 86 248 45 198 45 C151 45 127 82 150 179 L220 487 L160 483 L90 362 L129 339 L91 173 C62 47 99 -11 171 -11 C231 -11 293 31 363 112 C339 -4 374 -48 517 34 L517 34 Z " />
<glyph glyph-name="Uogonek" unicode="&#x172;" horiz-adv-x="550" d="M328 -166 L319 -137 C212 -180 169 -162 169 -128 C169 -91 216 -53 333 3 C400 35 446 99 465 198 L547 620 L486 620 L404 197 C383 90 332 41 251 41 C157 41 122 99 145 215 L224 620 L163 620 L83 210 C55 68 115 -11 235 -15 C150 -60 113 -104 113 -144 C113 -202 187 -240 328 -166 L328 -166 Z " />
<glyph glyph-name="uogonek" unicode="&#x173;" horiz-adv-x="550" d="M494 -166 L485 -137 C378 -180 336 -162 336 -128 C336 -85 383 -30 517 34 L508 66 C412 23 407 44 422 123 L493 484 L436 484 L374 167 C302 86 248 45 198 45 C151 45 127 82 150 179 L220 487 L160 483 L90 362 L129 339 L91 173 C62 47 99 -11 171 -11 C230 -11 292 32 363 112 C350 49 357 6 392 -2 C313 -51 279 -99 279 -144 C279 -202 353 -240 494 -166 L494 -166 Z " />
<glyph glyph-name="Wcircumflex" unicode="&#x174;" horiz-adv-x="550" d="M506 694 L547 727 L414 878 L412 878 L212 731 L240 698 L402 816 L506 694 Z M332 0 L402 0 C441 117 509 353 573 620 L514 620 C476 455 400 157 375 76 L371 76 L344 438 L303 438 L137 76 L133 76 C139 157 179 455 204 620 L144 620 C105 353 80 117 75 0 L145 0 L306 346 L332 0 Z " />
<glyph glyph-name="wcircumflex" unicode="&#x175;" horiz-adv-x="550" d="M478 558 L519 591 L386 742 L384 742 L184 595 L212 562 L374 680 L478 558 Z M335 0 L390 0 C450 167 498 319 543 484 L480 484 C446 341 411 214 373 80 L369 80 L325 365 L285 365 L133 81 L130 81 C144 212 158 340 178 484 L118 484 C94 304 80 122 76 0 L135 0 L289 284 L335 0 Z " />
<glyph glyph-name="Ycircumflex" unicode="&#x176;" horiz-adv-x="550" d="M497 695 L538 728 L405 879 L403 879 L203 732 L231 699 L393 817 L497 695 Z M259 0 L298 204 L589 620 L522 620 L281 269 L173 621 L110 619 L238 210 L197 0 L259 0 Z " />
<glyph glyph-name="ycircumflex" unicode="&#x177;" horiz-adv-x="550" d="M481 567 L522 600 L389 751 L387 751 L187 604 L215 571 L377 689 L481 567 Z M413 -91 C437 -43 425 39 425 163 C425 178 425 192 426 206 C473 302 511 440 511 471 C511 485 487 493 470 493 C444 493 386 329 375 199 C316 128 244 79 195 79 C129 79 95 149 216 486 L158 484 C20 113 76 24 167 24 C238 24 318 81 374 147 C375 19 386 -59 360 -86 C339 -106 267 -128 67 -110 L58 -171 C287 -185 385 -148 413 -91 L413 -91 Z " />
<glyph glyph-name="Ydieresis" unicode="&#x178;" horiz-adv-x="550" d="M495 708 L534 839 L466 837 L435 706 L495 708 Z M283 705 L322 836 L255 835 L223 704 L283 705 Z M259 0 L298 204 L589 620 L522 620 L281 269 L173 621 L110 619 L238 210 L197 0 L259 0 Z " />
<glyph glyph-name="Zacute" unicode="&#x179;" horiz-adv-x="550" d="M254 720 L268 693 C340 729 444 789 507 840 L463 890 C409 835 319 762 254 720 L254 720 Z M434 0 L443 54 L106 53 L541 568 L550 620 L154 620 L143 566 L471 567 L36 52 L27 0 L434 0 Z " />
<glyph glyph-name="zacute" unicode="&#x17a;" horiz-adv-x="550" d="M229 584 L243 557 C315 593 419 653 482 704 L438 754 C384 699 294 626 229 584 L229 584 Z M424 0 L439 53 L110 51 L505 434 L515 484 L135 484 L121 432 L437 433 L42 51 L33 0 L424 0 Z " />
<glyph glyph-name="Zdotaccent" unicode="&#x17b;" horiz-adv-x="550" d="M389 705 L429 836 L360 835 L329 704 L389 705 Z M434 0 L443 54 L106 53 L541 568 L550 620 L154 620 L143 566 L471 567 L36 52 L27 0 L434 0 Z " />
<glyph glyph-name="zdotaccent" unicode="&#x17c;" horiz-adv-x="550" d="M364 569 L404 700 L335 699 L304 568 L364 569 Z M424 0 L439 53 L110 51 L505 434 L515 484 L135 484 L121 432 L437 433 L42 51 L33 0 L424 0 Z " />
<glyph glyph-name="Zcaron" unicode="&#x17d;" horiz-adv-x="550" d="M361 691 L560 838 L532 871 L370 753 L266 875 L224 841 L358 691 L361 691 Z M434 0 L443 54 L106 53 L541 568 L550 620 L154 620 L143 566 L471 567 L36 52 L27 0 L434 0 Z " />
<glyph glyph-name="zcaron" unicode="&#x17e;" horiz-adv-x="550" d="M336 555 L535 702 L507 735 L345 617 L241 739 L199 705 L333 555 L336 555 Z M424 0 L439 53 L110 51 L505 434 L515 484 L135 484 L121 432 L437 433 L42 51 L33 0 L424 0 Z " />
<glyph glyph-name="Aringacute" unicode="&#x1fa;" horiz-adv-x="550" d="M322 955 L336 928 C408 964 512 1024 575 1075 L531 1125 C477 1070 387 997 322 955 L322 955 Z M392 891 C312 891 255 842 255 781 C255 725 306 682 379 682 C458 682 516 731 516 793 C516 849 464 891 392 891 L392 891 Z M387 852 C435 852 470 823 470 788 C470 751 433 721 383 721 C335 721 301 749 301 785 C301 822 338 852 387 852 L387 852 Z M405 -2 L465 2 C446 210 423 416 398 623 L311 623 C204 416 100 207 2 0 L64 0 C96 67 128 134 161 202 L386 202 C393 133 399 65 405 -2 L405 -2 Z M341 568 L349 568 C361 463 372 356 382 249 L183 249 C235 356 288 462 341 568 L341 568 Z " />
<glyph glyph-name="aringacute" unicode="&#x1fb;" horiz-adv-x="550" d="M312 830 L326 803 C398 839 502 899 565 950 L521 1000 C467 945 377 872 312 830 L312 830 Z M382 762 C302 762 245 713 245 652 C245 596 296 553 369 553 C448 553 506 602 506 664 C506 720 454 762 382 762 L382 762 Z M377 723 C425 723 460 694 460 659 C460 622 423 592 373 592 C325 592 291 620 291 656 C291 693 328 723 377 723 L377 723 Z M187 46 C146 46 116 79 116 156 C116 305 204 443 314 443 C340 443 375 437 413 427 C398 353 368 200 358 147 C306 93 234 46 187 46 L187 46 Z M511 34 L504 66 C402 23 395 44 411 123 L480 474 C430 487 386 494 346 494 C178 494 56 326 56 143 C56 40 100 -10 161 -10 C217 -10 292 39 350 97 C336 -5 372 -48 511 34 L511 34 Z " />
<glyph glyph-name="AEacute" unicode="&#x1fc;" horiz-adv-x="550" d="M363 720 L377 693 C449 729 553 789 616 840 L572 890 C518 835 428 762 363 720 L363 720 Z M348 568 L357 568 L293 240 L176 240 C233 348 290 458 348 568 L348 568 Z M246 0 L475 0 L489 52 L314 52 L360 291 L507 291 L515 337 L369 337 L414 568 L587 568 L597 620 L322 620 C208 413 96 204 -14 0 L50 0 C84 64 117 128 151 193 L284 193 L246 0 Z " />
<glyph glyph-name="aeacute" unicode="&#x1fd;" horiz-adv-x="550" d="M256 586 L270 559 C342 595 446 655 509 706 L465 756 C411 701 321 628 256 586 L256 586 Z M508 55 L502 88 C356 11 307 41 307 148 C307 160 308 172 309 185 C465 205 550 299 550 401 C550 458 519 494 465 494 C431 494 399 479 371 453 C337 478 304 491 267 491 C141 491 41 304 41 121 C41 35 69 -7 114 -7 C165 -7 213 34 255 89 C273 -12 353 -49 508 55 L508 55 Z M450 443 C479 443 494 423 494 390 C494 316 426 239 314 222 C332 331 386 443 450 443 L450 443 Z M138 47 C114 47 101 75 101 131 C101 275 165 442 251 442 C273 442 302 433 332 409 C283 340 252 239 251 141 C212 90 171 47 138 47 L138 47 Z " />
<glyph glyph-name="Oslashacute" unicode="&#x1fe;" horiz-adv-x="550" d="M263 733 L277 706 C349 742 453 802 516 853 L472 903 C418 848 328 775 263 733 L263 733 Z M129 231 C129 404 216 580 340 580 C379 580 411 563 432 528 L140 138 C133 164 129 195 129 231 L129 231 Z M252 40 C211 40 178 58 157 94 L451 484 C458 458 462 427 462 390 C462 216 375 40 252 40 L252 40 Z M241 -13 C407 -13 524 192 524 394 C524 454 514 503 496 540 L563 627 L527 653 L471 580 C441 615 399 633 350 633 C186 633 67 429 67 226 C67 167 77 118 94 81 L28 -7 L65 -33 L120 40 C150 5 192 -13 241 -13 L241 -13 Z " />
<glyph glyph-name="oslashacute" unicode="&#x1ff;" horiz-adv-x="550" d="M229 596 L243 569 C315 605 419 665 482 716 L438 766 C384 711 294 638 229 596 L229 596 Z M118 194 C118 330 195 446 306 446 C344 446 374 433 396 408 L133 111 C123 133 118 161 118 194 L118 194 Z M244 39 C207 39 177 51 156 74 L418 370 C427 348 431 321 431 290 C431 153 354 39 244 39 L244 39 Z M233 -11 C376 -11 491 125 491 299 C491 347 481 387 463 418 L525 487 L489 514 L435 454 C405 482 365 496 317 496 C173 496 59 357 59 185 C59 135 69 95 88 64 L26 -5 L62 -32 L117 29 C146 2 186 -11 233 -11 L233 -11 Z " />
<glyph glyph-name="Scommaaccent" unicode="&#x218;" horiz-adv-x="550" d="M506 463 C491 572 439 631 339 631 C219 631 131 545 131 453 C131 308 393 244 393 133 C393 65 306 11 42 77 L29 16 C337 -51 455 41 455 141 C455 279 193 338 193 461 C193 524 247 579 323 579 C396 579 437 541 450 453 L506 463 Z M118 -266 L142 -278 C210 -211 239 -140 238 -76 L159 -79 C171 -136 169 -194 118 -266 L118 -266 Z " />
<glyph glyph-name="scommaaccent" unicode="&#x219;" horiz-adv-x="550" d="M457 121 C457 204 344 298 318 383 C394 472 387 529 341 529 C299 529 252 467 252 413 C252 402 253 391 256 380 C219 336 167 293 76 227 L93 199 C170 248 228 293 272 334 C311 250 398 177 398 116 C398 66 353 28 124 50 L122 -6 C387 -24 457 46 457 121 L457 121 Z M129 -268 L153 -280 C221 -213 250 -142 249 -78 L170 -81 C182 -138 180 -196 129 -268 L129 -268 Z " />
<glyph glyph-name="schwa" unicode="&#x259;" horiz-adv-x="550" d="M193 -11 C359 -11 481 160 481 313 C481 477 341 561 86 430 L96 398 C316 482 423 443 423 305 L423 301 C192 283 59 214 59 101 C59 32 110 -11 193 -11 L193 -11 Z M206 39 C151 39 117 68 117 111 C117 199 237 249 420 262 C403 151 324 39 206 39 L206 39 Z " />
<glyph glyph-name="circumflex" unicode="&#x2c6;" horiz-adv-x="550" d="M398 558 L439 591 L306 742 L304 742 L104 595 L132 562 L294 680 L398 558 Z " />
<glyph glyph-name="caron" unicode="&#x2c7;" horiz-adv-x="550" d="M265 555 L464 702 L436 735 L274 617 L170 739 L128 705 L262 555 L265 555 Z " />
<glyph glyph-name="breve" unicode="&#x2d8;" horiz-adv-x="550" d="M429 730 C371 656 326 614 272 614 C221 614 189 647 154 734 L107 710 C145 611 195 565 260 565 C329 565 397 617 464 707 L429 730 Z " />
<glyph glyph-name="dotaccent" unicode="&#x2d9;" horiz-adv-x="550" d="M289 569 L329 700 L260 699 L229 568 L289 569 Z " />
<glyph glyph-name="ring" unicode="&#x2da;" horiz-adv-x="550" d="M362 753 C282 753 225 704 225 643 C225 587 276 544 349 544 C428 544 486 593 486 655 C486 711 434 753 362 753 L362 753 Z M357 714 C405 714 440 685 440 650 C440 613 403 583 353 583 C305 583 271 611 271 647 C271 684 308 714 357 714 L357 714 Z " />
<glyph glyph-name="ogonek" unicode="&#x2db;" horiz-adv-x="550" d="M379 27 C220 -32 155 -92 155 -144 C155 -202 229 -240 370 -166 L361 -137 C253 -180 211 -161 211 -127 C211 -90 266 -47 399 1 L379 27 Z " />
<glyph glyph-name="tilde" unicode="&#x2dc;" horiz-adv-x="550" d="M350 614 C302 614 286 724 218 724 C170 724 123 679 73 593 L105 574 C142 635 175 677 205 677 C253 677 269 567 337 567 C386 567 432 617 482 703 L450 722 C413 661 380 614 350 614 L350 614 Z " />
<glyph glyph-name="hungarumlaut" unicode="&#x2dd;" horiz-adv-x="550" d="M157 557 C216 609 288 684 330 737 L270 770 C237 715 179 632 131 578 L157 557 Z M365 557 C424 608 495 683 537 737 L475 767 C442 710 387 632 338 578 L365 557 Z " />
<glyph glyph-name="commaaccent" unicode="&#x326;" horiz-adv-x="550" d="M192 -259 L216 -271 C284 -204 313 -133 312 -69 L233 -72 C245 -129 243 -187 192 -259 L192 -259 Z " />
<glyph glyph-name="Wgrave" unicode="&#x1e80;" horiz-adv-x="550" d="M478 712 C425 757 351 837 306 896 L261 848 C314 793 403 723 461 686 L478 712 Z M332 0 L402 0 C441 117 509 353 573 620 L514 620 C476 455 400 157 375 76 L371 76 L344 438 L303 438 L137 76 L133 76 C139 157 179 455 204 620 L144 620 C105 353 80 117 75 0 L145 0 L306 346 L332 0 Z " />
<glyph glyph-name="wgrave" unicode="&#x1e81;" horiz-adv-x="550" d="M450 576 C397 621 323 701 278 760 L233 712 C286 657 375 587 433 550 L450 576 Z M335 0 L390 0 C450 167 498 319 543 484 L480 484 C446 341 411 214 373 80 L369 80 L325 365 L285 365 L133 81 L130 81 C144 212 158 340 178 484 L118 484 C94 304 80 122 76 0 L135 0 L289 284 L335 0 Z " />
<glyph glyph-name="Wacute" unicode="&#x1e82;" horiz-adv-x="550" d="M262 720 L276 693 C348 729 452 789 515 840 L471 890 C417 835 327 762 262 720 L262 720 Z M332 0 L402 0 C441 117 509 353 573 620 L514 620 C476 455 400 157 375 76 L371 76 L344 438 L303 438 L137 76 L133 76 C139 157 179 455 204 620 L144 620 C105 353 80 117 75 0 L145 0 L306 346 L332 0 Z " />
<glyph glyph-name="wacute" unicode="&#x1e83;" horiz-adv-x="550" d="M234 584 L248 557 C320 593 424 653 487 704 L443 754 C389 699 299 626 234 584 L234 584 Z M335 0 L390 0 C450 167 498 319 543 484 L480 484 C446 341 411 214 373 80 L369 80 L325 365 L285 365 L133 81 L130 81 C144 212 158 340 178 484 L118 484 C94 304 80 122 76 0 L135 0 L289 284 L335 0 Z " />
<glyph glyph-name="Wdieresis" unicode="&#x1e84;" horiz-adv-x="550" d="M503 707 L542 838 L474 836 L443 705 L503 707 Z M291 704 L330 835 L263 834 L231 703 L291 704 Z M332 0 L402 0 C441 117 509 353 573 620 L514 620 C476 455 400 157 375 76 L371 76 L344 438 L303 438 L137 76 L133 76 C139 157 179 455 204 620 L144 620 C105 353 80 117 75 0 L145 0 L306 346 L332 0 Z " />
<glyph glyph-name="wdieresis" unicode="&#x1e85;" horiz-adv-x="550" d="M476 571 L515 702 L447 700 L416 569 L476 571 Z M264 568 L303 699 L236 698 L204 567 L264 568 Z M335 0 L390 0 C450 167 498 319 543 484 L480 484 C446 341 411 214 373 80 L369 80 L325 365 L285 365 L133 81 L130 81 C144 212 158 340 178 484 L118 484 C94 304 80 122 76 0 L135 0 L289 284 L335 0 Z " />
<glyph glyph-name="Ygrave" unicode="&#x1ef2;" horiz-adv-x="550" d="M469 713 C416 758 342 838 297 897 L252 849 C305 794 394 724 452 687 L469 713 Z M259 0 L298 204 L589 620 L522 620 L281 269 L173 621 L110 619 L238 210 L197 0 L259 0 Z " />
<glyph glyph-name="ygrave" unicode="&#x1ef3;" horiz-adv-x="550" d="M453 585 C400 630 326 710 281 769 L236 721 C289 666 378 596 436 559 L453 585 Z M413 -91 C437 -43 425 39 425 163 C425 178 425 192 426 206 C473 302 511 440 511 471 C511 485 487 493 470 493 C444 493 386 329 375 199 C316 128 244 79 195 79 C129 79 95 149 216 486 L158 484 C20 113 76 24 167 24 C238 24 318 81 374 147 C375 19 386 -59 360 -86 C339 -106 267 -128 67 -110 L58 -171 C287 -185 385 -148 413 -91 L413 -91 Z " />
<glyph glyph-name="endash" unicode="&#x2013;" horiz-adv-x="550" d="M487 314 L88 314 L79 266 L479 266 L487 314 Z " />
<glyph glyph-name="emdash" unicode="&#x2014;" horiz-adv-x="550" d="M521 314 L79 314 L71 266 L512 266 L521 314 Z " />
<glyph glyph-name="quoteleft" unicode="&#x2018;" horiz-adv-x="550" d="M428 672 L404 687 C299 601 256 521 251 398 L342 401 C325 520 343 586 428 672 L428 672 Z " />
<glyph glyph-name="quoteright" unicode="&#x2019;" horiz-adv-x="550" d="M226 389 L250 374 C355 461 398 541 403 664 L312 660 C329 542 311 476 226 389 L226 389 Z " />
<glyph glyph-name="quotesinglbase" unicode="&#x201a;" horiz-adv-x="550" d="M120 -171 L144 -186 C249 -100 292 -20 296 103 L206 100 C223 -18 205 -85 120 -171 L120 -171 Z " />
<glyph glyph-name="quotedblleft" unicode="&#x201c;" horiz-adv-x="550" d="M532 672 L508 687 C404 601 362 521 357 399 L447 402 C430 520 448 586 532 672 L532 672 Z M327 672 L303 687 C198 601 155 521 150 398 L240 401 C224 520 242 586 327 672 L327 672 Z " />
<glyph glyph-name="quotedblright" unicode="&#x201d;" horiz-adv-x="550" d="M331 389 L354 374 C460 461 502 541 507 664 L417 660 C434 542 416 476 331 389 L331 389 Z M125 389 L149 374 C253 461 296 540 300 663 L211 660 C227 542 209 476 125 389 L125 389 Z " />
<glyph glyph-name="quotedblbase" unicode="&#x201e;" horiz-adv-x="550" d="M17 -171 L41 -186 C145 -100 188 -20 193 103 L103 99 C119 -19 101 -85 17 -171 L17 -171 Z M223 -171 L247 -186 C352 -100 395 -20 399 103 L310 100 C326 -18 308 -85 223 -171 L223 -171 Z " />
<glyph glyph-name="dagger" unicode="&#x2020;" horiz-adv-x="550" d="M262 122 L343 477 L504 460 L514 508 L353 525 L386 689 L328 695 L296 531 L136 548 L126 499 L287 482 L215 112 L223 105 L262 122 Z " />
<glyph glyph-name="daggerdbl" unicode="&#x2021;" horiz-adv-x="550" d="M253 71 L299 278 L464 261 L473 309 L310 326 L343 477 L504 460 L514 508 L353 525 L386 689 L328 695 L296 531 L136 548 L126 499 L287 482 L257 332 L95 349 L85 300 L248 283 L205 62 L213 55 L253 71 Z " />
<glyph glyph-name="bullet" unicode="&#x2022;" horiz-adv-x="550" d="M393 310 C393 371 351 415 292 415 C231 415 173 362 173 286 C173 225 216 181 272 181 C334 181 393 234 393 310 L393 310 Z " />
<glyph glyph-name="ellipsis" unicode="&#x2026;" horiz-adv-x="550" d="M484 0 L505 101 L421 101 L399 0 L484 0 Z M301 0 L322 101 L238 101 L216 0 L301 0 Z M118 0 L139 101 L55 101 L33 0 L118 0 Z " />
<glyph glyph-name="guilsinglleft" unicode="&#x2039;" horiz-adv-x="550" d="M319 -16 L363 25 L178 240 L459 455 L425 500 L141 277 L125 214 L319 -16 Z " />
<glyph glyph-name="guilsinglright" unicode="&#x203a;" horiz-adv-x="550" d="M119 -14 L402 209 L419 272 L224 502 L180 461 L365 245 L84 31 L119 -14 Z " />
<glyph glyph-name="fraction" unicode="&#x2044;" horiz-adv-x="550" d="M11 -160 L591 725 L546 752 L-35 -134 L11 -160 Z " />
<glyph glyph-name="zero.sup" unicode="&#x2070;" horiz-adv-x="550" d="M163 478 C163 379 213 323 289 323 C398 323 483 445 483 581 C483 681 434 736 358 736 C248 736 163 614 163 478 L163 478 Z M434 576 C434 470 378 366 297 366 C245 366 213 406 213 483 C213 589 268 693 349 693 C402 693 434 653 434 576 L434 576 Z " />
<glyph glyph-name="four.sup" unicode="&#x2074;" horiz-adv-x="550" d="M459 418 L472 460 L417 460 L445 600 L397 596 L371 460 L208 460 C261 536 300 606 341 730 L289 732 C251 612 214 540 160 452 L156 418 L362 418 L346 333 L392 333 L409 418 L459 418 Z " />
<glyph glyph-name="five.sup" unicode="&#x2075;" horiz-adv-x="550" d="M447 456 C447 504 401 550 258 575 L286 685 L471 685 L484 728 L251 728 L205 543 C352 522 398 487 398 450 C398 407 344 363 160 379 L154 333 C370 316 447 388 447 456 L447 456 Z " />
<glyph glyph-name="six.sup" unicode="&#x2076;" horiz-adv-x="550" d="M307 324 C392 324 458 380 458 463 C458 568 330 610 225 527 C245 591 305 660 453 697 L441 739 C238 683 169 567 169 464 C169 369 231 324 307 324 L307 324 Z M315 364 C263 364 217 394 217 472 C217 479 217 486 218 494 C312 569 412 535 412 456 C412 404 375 364 315 364 L315 364 Z " />
<glyph glyph-name="seven.sup" unicode="&#x2077;" horiz-adv-x="550" d="M247 330 C316 450 399 573 496 688 L505 728 L222 728 L213 685 L443 685 L443 682 C345 571 262 452 194 335 L247 330 Z " />
<glyph glyph-name="eight.sup" unicode="&#x2078;" horiz-adv-x="550" d="M436 427 C436 470 392 509 349 545 C386 565 432 588 489 615 L473 643 C412 614 362 589 322 567 C290 595 263 621 263 646 C263 680 305 709 431 681 L447 729 C295 754 216 700 216 641 C216 606 246 574 281 544 C180 484 158 449 158 411 C158 359 210 323 287 323 C373 323 436 370 436 427 L436 427 Z M296 364 C245 364 207 386 207 423 C207 446 222 471 308 521 C349 487 389 455 389 423 C389 390 351 364 296 364 L296 364 Z " />
<glyph glyph-name="nine.sup" unicode="&#x2079;" horiz-adv-x="550" d="M204 322 C407 379 477 494 477 598 C477 692 415 738 338 738 C254 738 188 682 188 599 C188 494 316 452 421 535 C401 471 341 402 193 365 L204 322 Z M233 606 C233 658 270 697 331 697 C382 697 429 668 429 590 C429 583 429 576 428 568 C334 493 233 527 233 606 L233 606 Z " />
<glyph glyph-name="zero.inf" unicode="&#x2080;" horiz-adv-x="550" d="M80 -5 C80 -104 130 -160 206 -160 C315 -160 400 -38 400 98 C400 198 351 253 275 253 C165 253 80 131 80 -5 L80 -5 Z M351 93 C351 -13 295 -117 214 -117 C162 -117 130 -77 130 0 C130 106 185 210 266 210 C319 210 351 170 351 93 L351 93 Z " />
<glyph glyph-name="one.inf" unicode="&#x2081;" horiz-adv-x="550" d="M354 -150 L365 -107 L249 -107 L322 262 L272 258 L260 198 L131 180 L125 143 L251 153 L200 -107 L74 -107 L65 -150 L354 -150 Z " />
<glyph glyph-name="two.inf" unicode="&#x2082;" horiz-adv-x="550" d="M341 -150 L351 -106 L137 -106 C293 -9 382 59 382 144 C382 225 302 266 141 242 L134 197 C278 217 329 187 329 134 C329 61 230 -5 62 -110 L63 -150 L341 -150 Z " />
<glyph glyph-name="three.inf" unicode="&#x2083;" horiz-adv-x="550" d="M363 -41 C363 3 322 44 203 70 L395 202 L400 245 L146 245 L138 202 L338 202 L144 70 L141 47 C272 21 314 -12 314 -47 C314 -84 268 -123 77 -104 L71 -150 C295 -171 363 -102 363 -41 L363 -41 Z " />
<glyph glyph-name="four.inf" unicode="&#x2084;" horiz-adv-x="550" d="M376 -65 L389 -23 L334 -23 L362 117 L314 113 L288 -23 L125 -23 C178 53 217 123 258 247 L206 249 C168 129 131 57 77 -31 L73 -65 L279 -65 L263 -150 L309 -150 L326 -65 L376 -65 Z " />
<glyph glyph-name="five.inf" unicode="&#x2085;" horiz-adv-x="550" d="M364 -27 C364 21 318 67 175 92 L203 202 L388 202 L401 245 L168 245 L122 60 C269 39 315 4 315 -33 C315 -76 261 -120 77 -104 L71 -150 C287 -167 364 -95 364 -27 L364 -27 Z " />
<glyph glyph-name="six.inf" unicode="&#x2086;" horiz-adv-x="550" d="M224 -159 C309 -159 375 -103 375 -20 C375 85 247 127 142 44 C162 108 222 177 370 214 L358 256 C155 200 86 84 86 -19 C86 -114 148 -159 224 -159 L224 -159 Z M232 -119 C180 -119 134 -89 134 -11 C134 -4 134 3 135 11 C229 86 329 52 329 -27 C329 -79 292 -119 232 -119 L232 -119 Z " />
<glyph glyph-name="seven.inf" unicode="&#x2087;" horiz-adv-x="550" d="M164 -153 C233 -33 316 90 413 205 L422 245 L139 245 L130 202 L360 202 L360 199 C262 88 179 -31 111 -148 L164 -153 Z " />
<glyph glyph-name="eight.inf" unicode="&#x2088;" horiz-adv-x="550" d="M353 -56 C353 -13 309 26 266 62 C303 82 349 105 406 132 L390 160 C329 131 279 106 239 84 C207 112 180 138 180 163 C180 197 222 226 348 198 L364 246 C212 271 133 217 133 158 C133 123 163 91 198 61 C97 1 75 -34 75 -72 C75 -124 127 -160 204 -160 C290 -160 353 -113 353 -56 L353 -56 Z M213 -119 C162 -119 124 -97 124 -60 C124 -37 139 -12 225 38 C266 4 306 -28 306 -60 C306 -93 268 -119 213 -119 L213 -119 Z " />
<glyph glyph-name="nine.inf" unicode="&#x2089;" horiz-adv-x="550" d="M121 -161 C324 -104 394 11 394 115 C394 209 332 255 255 255 C171 255 105 199 105 116 C105 11 233 -31 338 52 C318 -12 258 -81 110 -118 L121 -161 Z M150 123 C150 175 187 214 248 214 C299 214 346 185 346 107 C346 100 346 93 345 85 C251 10 150 44 150 123 L150 123 Z " />
<glyph glyph-name="colonmonetary" unicode="&#x20a1;" horiz-adv-x="550" d="M315 98 C286 105 260 114 238 125 L345 512 C372 520 402 526 436 531 L315 98 Z M133 282 C133 372 178 451 299 497 L202 146 C154 179 133 224 133 282 L133 282 Z M265 -74 L312 -74 L341 35 C368 31 396 27 426 24 L447 75 C413 79 382 83 354 89 L478 536 C505 539 535 541 566 542 L571 597 C545 596 520 594 496 592 L524 693 L477 693 L449 586 C417 581 388 575 361 568 L395 693 L348 693 L310 553 C143 495 78 389 78 274 C78 196 111 134 182 91 L136 -74 L183 -74 L223 70 C245 60 271 52 299 45 L265 -74 Z " />
<glyph glyph-name="naira" unicode="&#x20a6;" horiz-adv-x="550" d="M200 521 L205 521 L229 433 L183 433 L200 521 Z M336 227 L293 390 L434 391 L403 227 L336 227 Z M143 226 L175 389 L241 390 L285 227 L143 226 Z M372 94 L348 184 L395 184 L378 94 L372 94 Z M346 0 L406 0 L442 182 L515 182 L525 232 L451 232 L481 385 L555 386 L564 435 L491 434 L527 620 L478 620 L443 434 L281 433 L231 621 L171 619 L135 433 L61 433 L51 383 L125 384 L96 230 L21 229 L12 180 L86 181 L51 0 L100 0 L135 182 L296 183 L346 0 Z " />
<glyph glyph-name="rupee" unicode="&#x20a8;" horiz-adv-x="550" d="M222 -5 L277 5 L217 275 C302 359 343 424 343 506 C343 590 288 637 160 619 L40 0 L93 0 L206 575 C262 576 289 550 289 494 C289 428 253 365 164 279 L164 277 L222 -5 Z M516 118 C516 194 471 279 456 355 C529 460 521 528 480 528 C441 528 398 458 398 382 C398 370 399 358 401 346 C381 315 355 281 318 239 L336 218 C365 245 390 272 412 296 C430 231 461 167 461 112 C461 61 447 28 319 48 L317 -7 C478 -23 516 46 516 118 L516 118 Z " />
<glyph glyph-name="Euro" unicode="&#x20ac;" horiz-adv-x="550" d="M465 32 L458 71 C271 5 172 44 163 202 L383 202 L394 248 L163 248 C164 284 171 321 181 356 L415 356 L426 400 L196 400 C236 501 309 582 396 582 C467 582 485 533 487 452 L544 459 C541 574 504 633 408 633 C292 633 192 534 141 404 L68 404 L58 356 L124 356 C114 321 108 284 106 246 L38 246 L28 198 L105 198 C114 14 240 -70 465 32 L465 32 Z " />
<glyph glyph-name="peso" unicode="&#x20b1;" horiz-adv-x="550" d="M448 431 L195 431 L222 572 C381 586 448 519 448 431 L448 431 Z M160 250 L186 386 L442 386 C417 302 321 249 166 250 L160 250 Z M564 382 L573 432 L505 432 C505 434 505 436 505 438 C505 556 409 649 173 618 L137 432 L57 432 L47 382 L128 382 L54 0 L111 0 L148 191 C339 208 465 275 497 382 L564 382 Z " />
<glyph glyph-name="rupeeindia" unicode="&#x20b9;" horiz-adv-x="550" d="M435 19 C317 131 248 189 163 215 C301 234 395 296 414 378 L510 378 L518 424 L417 424 C412 484 370 541 291 568 L548 568 L562 620 L156 620 L143 569 C290 554 352 492 359 424 L117 424 L108 378 L356 378 C337 310 256 256 90 243 L72 197 C197 160 253 110 384 -13 L435 19 Z " />
<glyph glyph-name="ruble" unicode="&#x20bd;" horiz-adv-x="550" d="M483 459 C483 364 390 324 214 323 L262 571 C418 584 483 539 483 459 L483 459 Z M399 127 L412 173 L185 173 L205 276 C428 286 542 351 542 468 C542 575 447 645 212 618 L155 323 L63 323 L54 274 C84 274 115 274 145 274 L126 175 L33 175 L24 127 L117 127 L92 0 L152 0 L177 127 L399 127 Z " />
<glyph glyph-name="numero" unicode="&#x2116;" horiz-adv-x="550" d="M515 624 C436 624 363 496 363 352 C363 270 392 230 438 230 C517 230 589 357 589 502 C589 583 560 624 515 624 L515 624 Z M200 0 L250 -1 L371 619 L320 620 L233 157 L231 157 L198 620 L144 620 L23 0 L74 0 L166 489 L168 489 L200 0 Z M413 358 C413 458 459 574 503 574 C525 574 539 546 539 496 C539 395 493 279 449 279 C428 279 413 308 413 358 L413 358 Z M515 127 L525 175 L331 175 L321 127 L515 127 Z " />
<glyph glyph-name="published" unicode="&#x2117;" horiz-adv-x="550" d="M518 367 C518 520 431 613 314 613 C169 613 45 470 45 255 C45 100 131 7 248 7 C393 7 518 150 518 367 L518 367 Z M307 576 C405 576 479 495 479 359 C479 177 376 44 255 44 C158 44 84 126 84 263 C84 443 186 576 307 576 L307 576 Z M210 143 L232 257 C339 270 410 318 410 390 C410 451 359 494 231 476 L168 143 L210 143 Z M367 382 C367 332 323 301 240 300 L268 441 C337 446 367 419 367 382 L367 382 Z " />
<glyph glyph-name="servicemark" unicode="&#x2120;" horiz-adv-x="550" d="M395 346 L425 346 L527 567 L530 567 L476 294 L519 294 L582 620 L522 620 L424 405 L422 405 L405 621 L345 619 L282 294 L323 294 L375 567 L378 567 L395 346 Z M280 539 C274 596 251 626 207 626 C153 626 113 585 113 533 C113 459 202 422 202 367 C202 330 166 316 66 347 L59 304 C194 268 244 316 244 371 C244 441 154 477 154 538 C154 569 174 589 199 589 C221 589 235 571 240 533 L280 539 Z " />
<glyph glyph-name="trademark" unicode="&#x2122;" horiz-adv-x="550" d="M297 620 L109 620 L101 580 L176 580 L120 296 L162 296 L218 580 L289 580 L297 620 Z M405 621 L345 619 L282 294 L323 294 L375 567 L378 567 L395 346 L425 346 L527 567 L530 567 L476 294 L519 294 L582 620 L522 620 L424 405 L422 405 L405 621 Z " />
<glyph glyph-name="Omega" unicode="&#x2126;" horiz-adv-x="550" d="M183 5 C160 100 147 185 147 276 C147 460 212 577 321 577 C399 577 444 523 444 426 C444 324 392 183 285 5 L286 0 L459 0 L468 49 L362 49 C458 200 503 334 503 439 C503 559 440 632 330 632 C179 632 92 497 92 292 C92 215 106 135 130 49 L15 49 L6 0 L181 0 L183 5 Z " />
<glyph glyph-name="onethird" unicode="&#x2153;" horiz-adv-x="550" d="M456 425 L467 468 L351 468 L424 837 L374 833 L362 773 L233 755 L227 718 L353 728 L302 468 L176 468 L167 425 L456 425 Z M64 284 L496 284 L505 325 L73 325 L64 284 Z M351 -101 C351 -57 310 -16 191 10 L383 142 L388 185 L134 185 L126 142 L326 142 L132 10 L129 -13 C260 -39 302 -72 302 -107 C302 -144 256 -183 65 -164 L59 -210 C283 -231 351 -162 351 -101 L351 -101 Z " />
<glyph glyph-name="twothirds" unicode="&#x2154;" horiz-adv-x="550" d="M443 425 L453 469 L239 469 C395 566 484 634 484 719 C484 800 404 841 243 817 L236 772 C380 792 431 762 431 709 C431 636 332 570 164 465 L165 425 L443 425 Z M64 284 L496 284 L505 325 L73 325 L64 284 Z M351 -101 C351 -57 310 -16 191 10 L383 142 L388 185 L134 185 L126 142 L326 142 L132 10 L129 -13 C260 -39 302 -72 302 -107 C302 -144 256 -183 65 -164 L59 -210 C283 -231 351 -162 351 -101 L351 -101 Z " />
<glyph glyph-name="onefifth" unicode="&#x2155;" horiz-adv-x="550" d="M456 425 L467 468 L351 468 L424 837 L374 833 L362 773 L233 755 L227 718 L353 728 L302 468 L176 468 L167 425 L456 425 Z M64 284 L496 284 L505 325 L73 325 L64 284 Z M352 -87 C352 -39 306 7 163 32 L191 142 L376 142 L389 185 L156 185 L110 0 C257 -21 303 -56 303 -93 C303 -136 249 -180 65 -164 L59 -210 C275 -227 352 -155 352 -87 L352 -87 Z " />
<glyph glyph-name="twofifths" unicode="&#x2156;" horiz-adv-x="550" d="M443 425 L453 469 L239 469 C395 566 484 634 484 719 C484 800 404 841 243 817 L236 772 C380 792 431 762 431 709 C431 636 332 570 164 465 L165 425 L443 425 Z M64 284 L496 284 L505 325 L73 325 L64 284 Z M352 -87 C352 -39 306 7 163 32 L191 142 L376 142 L389 185 L156 185 L110 0 C257 -21 303 -56 303 -93 C303 -136 249 -180 65 -164 L59 -210 C275 -227 352 -155 352 -87 L352 -87 Z " />
<glyph glyph-name="threefifths" unicode="&#x2157;" horiz-adv-x="550" d="M465 534 C465 578 424 619 305 645 L497 777 L502 820 L248 820 L240 777 L440 777 L246 645 L243 622 C374 596 416 563 416 528 C416 491 370 452 179 471 L173 425 C397 404 465 473 465 534 L465 534 Z M64 284 L496 284 L505 325 L73 325 L64 284 Z M352 -87 C352 -39 306 7 163 32 L191 142 L376 142 L389 185 L156 185 L110 0 C257 -21 303 -56 303 -93 C303 -136 249 -180 65 -164 L59 -210 C275 -227 352 -155 352 -87 L352 -87 Z " />
<glyph glyph-name="fourfifths" unicode="&#x2158;" horiz-adv-x="550" d="M478 510 L491 552 L436 552 L464 692 L416 688 L390 552 L227 552 C280 628 319 698 360 822 L308 824 C270 704 233 632 179 544 L175 510 L381 510 L365 425 L411 425 L428 510 L478 510 Z M64 284 L496 284 L505 325 L73 325 L64 284 Z M352 -87 C352 -39 306 7 163 32 L191 142 L376 142 L389 185 L156 185 L110 0 C257 -21 303 -56 303 -93 C303 -136 249 -180 65 -164 L59 -210 C275 -227 352 -155 352 -87 L352 -87 Z " />
<glyph glyph-name="onesixth" unicode="&#x2159;" horiz-adv-x="550" d="M456 425 L467 468 L351 468 L424 837 L374 833 L362 773 L233 755 L227 718 L353 728 L302 468 L176 468 L167 425 L456 425 Z M64 284 L496 284 L505 325 L73 325 L64 284 Z M212 -219 C297 -219 363 -163 363 -80 C363 25 235 67 130 -16 C150 48 210 117 358 154 L346 196 C143 140 74 24 74 -79 C74 -174 136 -219 212 -219 L212 -219 Z M220 -179 C168 -179 122 -149 122 -71 C122 -64 122 -57 123 -49 C217 26 317 -8 317 -87 C317 -139 280 -179 220 -179 L220 -179 Z " />
<glyph glyph-name="fivesixths" unicode="&#x215a;" horiz-adv-x="550" d="M466 548 C466 596 420 642 277 667 L305 777 L490 777 L503 820 L270 820 L224 635 C371 614 417 579 417 542 C417 499 363 455 179 471 L173 425 C389 408 466 480 466 548 L466 548 Z M64 284 L496 284 L505 325 L73 325 L64 284 Z M212 -219 C297 -219 363 -163 363 -80 C363 25 235 67 130 -16 C150 48 210 117 358 154 L346 196 C143 140 74 24 74 -79 C74 -174 136 -219 212 -219 L212 -219 Z M220 -179 C168 -179 122 -149 122 -71 C122 -64 122 -57 123 -49 C217 26 317 -8 317 -87 C317 -139 280 -179 220 -179 L220 -179 Z " />
<glyph glyph-name="oneeighth" unicode="&#x215b;" horiz-adv-x="550" d="M456 425 L467 468 L351 468 L424 837 L374 833 L362 773 L233 755 L227 718 L353 728 L302 468 L176 468 L167 425 L456 425 Z M64 284 L496 284 L505 325 L73 325 L64 284 Z M341 -116 C341 -73 297 -34 254 2 C291 22 337 45 394 72 L378 100 C317 71 267 46 227 24 C195 52 168 78 168 103 C168 137 210 166 336 138 L352 186 C200 211 121 157 121 98 C121 63 151 31 186 1 C85 -59 63 -94 63 -132 C63 -184 115 -220 192 -220 C278 -220 341 -173 341 -116 L341 -116 Z M201 -179 C150 -179 112 -157 112 -120 C112 -97 127 -72 213 -22 C254 -56 294 -88 294 -120 C294 -153 256 -179 201 -179 L201 -179 Z " />
<glyph glyph-name="threeeighths" unicode="&#x215c;" horiz-adv-x="550" d="M465 534 C465 578 424 619 305 645 L497 777 L502 820 L248 820 L240 777 L440 777 L246 645 L243 622 C374 596 416 563 416 528 C416 491 370 452 179 471 L173 425 C397 404 465 473 465 534 L465 534 Z M64 284 L496 284 L505 325 L73 325 L64 284 Z M341 -116 C341 -73 297 -34 254 2 C291 22 337 45 394 72 L378 100 C317 71 267 46 227 24 C195 52 168 78 168 103 C168 137 210 166 336 138 L352 186 C200 211 121 157 121 98 C121 63 151 31 186 1 C85 -59 63 -94 63 -132 C63 -184 115 -220 192 -220 C278 -220 341 -173 341 -116 L341 -116 Z M201 -179 C150 -179 112 -157 112 -120 C112 -97 127 -72 213 -22 C254 -56 294 -88 294 -120 C294 -153 256 -179 201 -179 L201 -179 Z " />
<glyph glyph-name="fiveeighths" unicode="&#x215d;" horiz-adv-x="550" d="M466 548 C466 596 420 642 277 667 L305 777 L490 777 L503 820 L270 820 L224 635 C371 614 417 579 417 542 C417 499 363 455 179 471 L173 425 C389 408 466 480 466 548 L466 548 Z M64 284 L496 284 L505 325 L73 325 L64 284 Z M341 -116 C341 -73 297 -34 254 2 C291 22 337 45 394 72 L378 100 C317 71 267 46 227 24 C195 52 168 78 168 103 C168 137 210 166 336 138 L352 186 C200 211 121 157 121 98 C121 63 151 31 186 1 C85 -59 63 -94 63 -132 C63 -184 115 -220 192 -220 C278 -220 341 -173 341 -116 L341 -116 Z M201 -179 C150 -179 112 -157 112 -120 C112 -97 127 -72 213 -22 C254 -56 294 -88 294 -120 C294 -153 256 -179 201 -179 L201 -179 Z " />
<glyph glyph-name="seveneighths" unicode="&#x215e;" horiz-adv-x="550" d="M266 422 C335 542 418 665 515 780 L524 820 L241 820 L232 777 L462 777 L462 774 C364 663 281 544 213 427 L266 422 Z M64 284 L496 284 L505 325 L73 325 L64 284 Z M341 -116 C341 -73 297 -34 254 2 C291 22 337 45 394 72 L378 100 C317 71 267 46 227 24 C195 52 168 78 168 103 C168 137 210 166 336 138 L352 186 C200 211 121 157 121 98 C121 63 151 31 186 1 C85 -59 63 -94 63 -132 C63 -184 115 -220 192 -220 C278 -220 341 -173 341 -116 L341 -116 Z M201 -179 C150 -179 112 -157 112 -120 C112 -97 127 -72 213 -22 C254 -56 294 -88 294 -120 C294 -153 256 -179 201 -179 L201 -179 Z " />
<glyph glyph-name="minus" unicode="&#x2212;" horiz-adv-x="550" d="M485 314 L94 314 L84 264 L474 264 L485 314 Z " />
<glyph glyph-name="approxequal" unicode="&#x2248;" horiz-adv-x="550" d="M380 311 C433 311 471 356 527 453 L493 472 C454 410 421 362 388 362 C336 362 310 478 231 478 C178 478 136 431 80 333 L113 314 C153 378 188 427 220 427 C274 427 301 311 380 311 L380 311 Z M340 103 C393 103 431 148 487 245 L453 264 C415 202 381 154 348 154 C297 154 270 270 192 270 C138 270 96 223 40 125 L73 106 C113 170 147 219 180 219 C234 219 261 103 340 103 L340 103 Z " />
<glyph glyph-name="notequal" unicode="&#x2260;" horiz-adv-x="550" d="M454 156 L465 207 L263 207 L360 379 L497 379 L508 430 L389 430 L462 559 L418 574 L337 430 L116 430 L106 379 L308 379 L211 207 L73 207 L63 156 L182 156 L109 26 L152 11 L234 156 L454 156 Z " />
<glyph glyph-name="lessequal" unicode="&#x2264;" horiz-adv-x="550" d="M172 349 L507 536 L489 582 L115 371 L104 321 L410 131 L439 175 L171 341 L172 349 Z M437 70 L46 70 L37 20 L428 20 L437 70 Z " />
<glyph glyph-name="greaterequal" unicode="&#x2265;" horiz-adv-x="550" d="M421 350 L419 342 L84 176 L99 128 L477 317 L486 365 L193 583 L162 540 L421 350 Z M437 70 L46 70 L37 20 L428 20 L437 70 Z " />
<glyph glyph-name="hcoslug" unicode="&#xe10b;" horiz-adv-x="550" d="M500 700 L50 700 L50 -100 L500 -100 L500 700 Z M200 296 C200 279 211 268 228 252 C237 265 242 277 242 289 C242 307 233 318 220 318 C208 318 200 309 200 296 L200 296 Z M249 232 C261 220 270 208 279 197 C294 222 297 240 280 257 C273 250 263 241 249 232 L249 232 Z M210 139 C222 139 231 142 239 148 C218 175 197 197 183 210 C175 202 171 191 171 180 C171 157 188 139 210 139 L210 139 Z M301 173 C320 151 333 142 348 142 C363 142 372 151 380 164 L385 163 C384 119 357 92 325 92 C303 92 286 100 261 126 C240 103 215 92 183 92 C138 92 102 122 102 162 C102 193 123 217 163 230 C147 247 140 260 140 282 C140 314 171 346 222 346 C268 346 293 316 293 290 C293 280 291 272 286 265 C306 265 321 257 323 237 C335 255 349 265 368 265 C389 265 405 250 405 226 C405 203 389 186 368 186 C354 186 342 193 336 205 C324 198 312 188 301 173 L301 173 Z M229 68 L229 60 L239 60 L239 55 L229 55 L229 40 C229 37 230 36 232 36 C234 36 235 37 236 41 L240 40 C238 33 235 30 229 30 C223 30 220 34 220 40 L220 55 L215 55 L215 60 L220 60 L220 67 L229 68 Z M145 46 C145 55 152 61 161 61 C170 61 177 55 177 46 C177 37 170 30 161 30 C152 30 145 36 145 46 L145 46 Z M167 46 C167 54 165 57 161 57 C157 57 155 54 155 46 C155 37 157 34 161 34 C165 34 167 37 167 46 L167 46 Z M299 45 C299 51 297 55 294 55 C289 55 288 50 288 45 C288 39 289 35 294 35 C297 35 299 39 299 45 L299 45 Z M179 36 L183 36 L183 55 L179 55 L179 60 L192 60 L192 54 C194 58 197 61 202 61 C209 61 211 56 211 50 L211 36 L216 36 L216 31 L199 31 L199 36 L202 36 L202 49 C202 52 201 55 198 55 C195 55 192 52 192 47 L192 36 L195 36 L195 31 L179 31 L179 36 Z M108 36 L114 36 L114 67 L108 67 L108 72 L146 72 L146 57 L141 57 C139 65 138 67 132 67 L124 67 L124 53 L127 53 C131 53 131 54 132 59 L137 59 L137 42 L132 42 C131 47 131 48 127 48 L124 48 L124 36 L131 36 L131 31 L108 31 L108 36 Z M241 41 L246 41 C249 37 252 34 255 34 C258 34 259 36 259 37 C259 44 241 40 241 52 C241 56 245 61 252 61 C255 61 258 60 260 57 L261 61 L266 61 L266 51 L261 51 C258 55 256 56 253 56 C251 56 249 55 249 53 C249 48 267 50 267 39 C267 34 264 30 257 30 C252 30 249 32 247 34 L246 31 L241 31 L241 41 Z M279 69 L274 69 L274 74 L288 74 L288 54 C289 58 293 61 297 61 C304 61 309 55 309 46 C309 39 306 30 297 30 C291 30 288 32 286 36 L283 30 L279 30 L279 69 Z M318 24 C321 24 324 26 324 30 C321 37 312 55 312 55 L309 55 L309 60 L327 60 L327 55 L323 55 L330 40 L336 55 L332 55 L332 60 L345 60 L345 55 L341 55 L331 31 C328 24 324 19 318 19 C312 19 309 22 309 26 C309 29 311 31 314 31 C319 31 320 26 318 24 L318 24 Z M363 0 L363 -6 L359 -6 C357 -10 355 -13 352 -16 C354 -18 356 -20 357 -20 C358 -20 359 -19 360 -16 L363 -17 C362 -22 360 -26 354 -26 C350 -26 348 -24 345 -21 C342 -24 338 -26 332 -26 C325 -26 320 -22 320 -16 C320 -10 324 -7 330 -5 C327 -2 325 1 325 5 C325 10 329 16 338 16 C344 16 348 12 348 7 C348 2 345 0 340 -3 C342 -5 346 -10 349 -13 C351 -11 353 -8 354 -6 L349 -6 L349 0 L363 0 Z M235 4 L246 4 L246 8 C243 8 241 10 241 12 C241 14 242 15 242 15 C242 15 241 16 239 16 C237 16 235 14 235 8 L235 4 Z M367 -5 C367 10 376 18 387 18 C392 18 396 16 399 13 L399 17 L405 17 L405 1 L399 1 C396 10 394 13 388 13 C382 13 378 8 378 -4 C378 -15 382 -21 390 -21 C396 -21 399 -15 400 -9 L406 -9 C405 -19 399 -26 388 -26 C375 -26 367 -19 367 -5 L367 -5 Z M338 -1 C340 0 342 3 342 6 C342 9 340 11 337 11 C335 11 333 10 333 7 C333 5 335 2 338 -1 L338 -1 Z M270 -12 C270 -18 272 -21 277 -21 C281 -21 283 -19 284 -15 L289 -15 C288 -21 284 -26 276 -26 C266 -26 260 -20 260 -11 C260 -1 267 5 275 5 C286 5 290 -2 289 -12 L270 -12 Z M200 -12 C200 -18 202 -21 207 -21 C211 -21 213 -19 214 -15 L219 -15 C218 -21 214 -26 206 -26 C196 -26 190 -20 190 -11 C190 -1 197 5 205 5 C216 5 220 -2 219 -12 L200 -12 Z M156 -10 C156 -1 163 5 172 5 C181 5 188 -1 188 -10 C188 -19 181 -26 172 -26 C163 -26 156 -20 156 -10 L156 -10 Z M408 -10 C408 -1 415 5 424 5 C433 5 440 -1 440 -10 C440 -19 433 -26 424 -26 C415 -26 408 -20 408 -10 L408 -10 Z M270 -8 L280 -8 C280 -2 279 1 275 1 C272 1 270 -1 270 -8 L270 -8 Z M200 -8 L210 -8 C210 -2 209 1 205 1 C202 1 200 -1 200 -8 L200 -8 Z M178 -10 C178 -2 176 1 172 1 C168 1 166 -2 166 -10 C166 -19 168 -22 172 -22 C176 -22 178 -19 178 -10 L178 -10 Z M430 -10 C430 -2 428 1 424 1 C420 1 418 -2 418 -10 C418 -19 420 -22 424 -22 C428 -22 430 -19 430 -10 L430 -10 Z M222 -20 L226 -20 L226 -1 L221 -1 L221 4 L226 4 L226 5 C226 15 233 19 239 19 C243 19 245 18 247 17 L255 19 L255 -20 L259 -20 L259 -25 L242 -25 L242 -20 L246 -20 L246 -1 L235 -1 L235 -20 L239 -20 L239 -25 L222 -25 L222 -20 Z M291 -20 L295 -20 L295 -1 L291 -1 L291 4 L304 4 L304 -2 C306 3 309 5 313 5 C317 5 319 3 319 -1 C319 -4 317 -6 314 -6 C312 -6 309 -5 309 -2 L309 -1 C308 -1 305 -4 304 -8 L304 -20 L310 -20 L310 -25 L291 -25 L291 -20 Z M108 -20 L114 -20 L114 11 L108 11 L108 16 L129 16 L129 11 L124 11 L124 -1 L140 -1 L140 11 L135 11 L135 16 L156 16 L156 11 L150 11 L150 -20 L156 -20 L156 -25 L135 -25 L135 -20 L140 -20 L140 -6 L124 -6 L124 -20 L129 -20 L129 -25 L108 -25 L108 -20 Z M342 -18 C340 -16 336 -11 332 -7 C330 -9 329 -11 329 -14 C329 -18 332 -21 336 -21 C338 -21 340 -20 342 -18 L342 -18 Z M453 -20 C453 -23 451 -26 447 -26 C443 -26 441 -23 441 -20 C441 -17 443 -14 447 -14 C451 -14 453 -17 453 -20 L453 -20 Z " />
<glyph glyph-name="check.1" unicode="&#xe10c;" horiz-adv-x="550" d="M575 638 L517 668 C397 485 291 277 206 58 L202 58 L141 356 L86 339 L167 -20 L220 -21 C319 221 438 440 575 638 L575 638 Z " />
<glyph glyph-name="check.2" unicode="&#xe10d;" horiz-adv-x="550" d="M309 -4 L368 4 L281 270 L556 640 L501 670 L262 323 L207 499 L150 483 L220 275 L37 19 L74 0 L238 223 L309 -4 Z " />
</font>
</svg>
