<?xml version="1.0" encoding="UTF-8"?>
<svg xmlns="http://www.w3.org/2000/svg" xmlns:xlink="http://www.w3.org/1999/xlink" version="1.2" >
<font id="Operator Mono Book">
<font-face  font-family="Operator Mono" units-per-em="1000" ascent="800" descent="-200" font-style="normal" font-weight="325" font-stretch="normal" cap-height="620" x-height="490" underline-position="-83" underline-thickness="64" />
<missing-glyph  horiz-adv-x="550" d="M5 -200 L545 -200 L545 800 L5 800 L5 -200 Z M82 750 L468 750 L275 360 L82 750 Z M491 676 L491 -76 L305 300 L491 676 Z M59 -76 L59 676 L245 300 L59 -76 Z M275 240 L468 -150 L82 -150 L275 240 Z " />
<glyph glyph-name="CR" unicode="&#xd;" horiz-adv-x="250" d="" />
<glyph glyph-name="space" unicode="&#x20;" horiz-adv-x="550" d="" />
<glyph glyph-name="exclam" unicode="&#x21;" horiz-adv-x="550" d="M305 234 C307 321 332 585 336 676 L233 676 C235 585 252 321 252 234 L305 234 Z M328 0 L331 110 L217 110 L215 0 L328 0 Z " />
<glyph glyph-name="quotedbl" unicode="&#x22;" horiz-adv-x="550" d="M404 374 L446 631 L443 669 L346 669 L350 374 L404 374 Z M188 374 L229 631 L226 669 L128 669 L133 374 L188 374 Z " />
<glyph glyph-name="numbersign" unicode="&#x23;" horiz-adv-x="550" d="M329 243 L206 243 L220 379 L343 379 L329 243 Z M305 0 L364 0 L381 174 L481 174 L488 243 L388 243 L402 379 L501 379 L509 448 L409 448 L426 620 L367 620 L350 448 L227 448 L244 620 L185 620 L168 448 L69 448 L62 379 L161 379 L147 243 L49 243 L42 174 L140 174 L123 0 L182 0 L199 174 L322 174 L305 0 Z " />
<glyph glyph-name="dollar" unicode="&#x24;" horiz-adv-x="550" d="M175 464 C175 498 209 522 295 523 L267 367 C216 399 175 430 175 464 L175 464 Z M387 165 C387 128 350 101 265 96 L295 263 C346 231 387 200 387 165 L387 165 Z M243 -84 L261 28 C411 41 472 104 472 170 C472 239 391 291 313 339 L347 522 C379 520 416 515 459 508 L468 584 C432 589 400 591 370 592 L392 703 L319 703 L300 591 C150 581 90 521 90 456 C90 388 172 337 250 290 L214 96 C178 97 135 102 86 110 L71 34 C115 28 155 26 191 25 L170 -84 L243 -84 Z " />
<glyph glyph-name="percent" unicode="&#x25;" horiz-adv-x="550" d="M50 498 C50 419 85 373 136 373 C189 373 231 425 231 508 C231 587 196 634 145 634 C91 634 50 582 50 498 L50 498 Z M113 -15 L491 599 L437 631 L59 18 L113 -15 Z M502 123 C502 202 466 249 415 249 C362 249 320 198 320 114 C320 34 356 -12 407 -12 C461 -12 502 40 502 123 L502 123 Z " />
<glyph glyph-name="ampersand" unicode="&#x26;" horiz-adv-x="550" d="M517 38 C476 88 439 131 406 169 C439 228 471 307 493 396 L423 405 C409 337 388 271 365 217 C246 353 191 412 191 464 C191 518 233 564 396 556 L390 632 C177 636 111 545 111 459 C111 416 131 376 171 324 C83 268 38 205 38 130 C38 50 87 -12 182 -12 C246 -12 310 22 361 99 C389 65 420 28 452 -13 L517 38 Z M199 55 C144 55 115 94 115 147 C115 194 143 243 202 285 C234 247 275 201 323 144 C284 83 241 55 199 55 L199 55 Z " />
<glyph glyph-name="quotesingle" unicode="&#x27;" horiz-adv-x="550" d="M300 365 L349 630 L345 669 L240 669 L244 365 L300 365 Z " />
<glyph glyph-name="parenleft" unicode="&#x28;" horiz-adv-x="550" d="M414 725 C198 548 111 401 111 256 C111 114 196 -30 410 -206 L466 -155 C265 4 191 132 191 259 C191 386 264 514 469 674 L414 725 Z " />
<glyph glyph-name="parenright" unicode="&#x29;" horiz-adv-x="550" d="M136 -206 C353 -28 439 119 439 264 C439 405 354 549 140 726 L85 673 C285 515 359 387 359 261 C359 133 286 6 81 -155 L136 -206 Z " />
<glyph glyph-name="asterisk" unicode="&#x2a;" horiz-adv-x="550" d="M366 275 L411 303 L349 444 L496 497 L483 547 L329 532 L324 688 L270 691 L237 539 L90 583 L68 534 L203 455 L116 329 L157 294 L272 396 L366 275 Z " />
<glyph glyph-name="plus" unicode="&#x2b;" horiz-adv-x="550" d="M488 259 L489 327 L312 327 L312 514 L239 514 L239 327 L61 327 L61 259 L239 259 L239 72 L312 72 L312 259 L488 259 Z " />
<glyph glyph-name="comma" unicode="&#x2c;" horiz-adv-x="550" d="M189 -172 L231 -185 C318 -104 360 9 322 122 L210 116 C262 6 255 -94 189 -172 L189 -172 Z " />
<glyph glyph-name="hyphen" unicode="&#x2d;" horiz-adv-x="550" d="M436 327 L119 327 L119 258 L430 258 L436 327 Z " />
<glyph glyph-name="period" unicode="&#x2e;" horiz-adv-x="550" d="M329 0 L335 116 L216 116 L210 0 L329 0 Z " />
<glyph glyph-name="slash" unicode="&#x2f;" horiz-adv-x="550" d="M475 726 L10 -160 L81 -189 L544 694 L475 726 Z " />
<glyph glyph-name="zero" unicode="0" horiz-adv-x="550" d="M268 -12 C407 -12 495 120 495 319 C495 515 421 632 282 632 C143 632 56 501 56 301 C56 106 130 -12 268 -12 L268 -12 Z M134 315 C134 473 182 565 276 565 C347 565 391 507 408 410 L136 268 C135 283 134 299 134 315 L134 315 Z M275 55 C205 55 161 111 143 206 L415 348 C416 334 416 320 416 305 C416 147 370 55 275 55 L275 55 Z " />
<glyph glyph-name="one" unicode="1" horiz-adv-x="550" d="M486 0 L493 69 L340 69 L340 642 L261 635 L261 564 L102 545 L103 486 L261 494 L261 69 L90 69 L90 0 L486 0 Z " />
<glyph glyph-name="two" unicode="2" horiz-adv-x="550" d="M481 0 L481 71 L172 71 C356 220 461 320 461 447 C461 550 381 631 101 628 L94 552 C319 551 381 505 381 428 C381 326 274 227 75 66 L83 0 L481 0 Z " />
<glyph glyph-name="three" unicode="3" horiz-adv-x="550" d="M95 -12 C365 1 475 78 475 182 C475 254 412 318 230 348 L462 550 L457 620 L97 620 L97 549 L379 549 L139 341 L139 302 C332 280 397 230 397 176 C397 115 319 75 90 63 L95 -12 Z " />
<glyph glyph-name="four" unicode="4" horiz-adv-x="550" d="M503 128 L511 199 L435 199 L435 425 L359 416 L359 199 L146 199 C150 256 214 529 236 621 L149 627 C103 442 79 247 82 128 L359 128 L359 0 L435 0 L435 128 L503 128 Z " />
<glyph glyph-name="five" unicode="5" horiz-adv-x="550" d="M471 206 C471 286 403 355 181 378 L192 549 L445 549 L452 620 L124 620 L104 323 C324 306 395 259 395 202 C395 128 316 84 90 63 L95 -12 C356 8 471 94 471 206 L471 206 Z " />
<glyph glyph-name="six" unicode="6" horiz-adv-x="550" d="M275 -11 C387 -11 484 70 484 200 C484 376 293 434 153 313 C174 419 246 503 409 572 L376 642 C165 542 69 403 69 230 C69 73 153 -11 275 -11 L275 -11 Z M282 55 C204 55 146 114 146 239 C146 246 146 253 146 260 C272 360 408 326 408 191 C408 106 352 55 282 55 L282 55 Z " />
<glyph glyph-name="seven" unicode="7" horiz-adv-x="550" d="M232 -5 C295 182 381 371 487 551 L487 620 L87 620 L81 547 L404 547 L407 543 C299 368 212 186 149 4 L232 -5 Z " />
<glyph glyph-name="eight" unicode="8" horiz-adv-x="550" d="M264 -12 C395 -12 480 62 480 155 C480 234 410 281 335 322 C418 362 468 412 468 488 C468 576 388 632 283 632 C153 632 82 551 82 472 C82 400 141 353 209 313 C125 270 71 212 71 137 C71 46 152 -12 264 -12 L264 -12 Z M160 482 C160 527 199 569 276 569 C351 569 392 528 392 473 C392 421 354 379 291 347 C221 384 160 422 160 482 L160 482 Z M275 51 C193 51 149 94 149 155 C149 208 186 254 253 287 C329 245 401 205 401 144 C401 91 352 51 275 51 L275 51 Z " />
<glyph glyph-name="nine" unicode="9" horiz-adv-x="550" d="M174 -22 C385 78 481 217 481 390 C481 548 397 631 276 631 C165 631 67 550 67 420 C67 244 257 186 398 307 C377 201 305 118 140 48 L174 -22 Z M143 430 C143 514 199 565 268 565 C347 565 405 506 405 381 C405 374 405 367 405 360 C279 260 143 294 143 430 L143 430 Z " />
<glyph glyph-name="colon" unicode="&#x3a;" horiz-adv-x="550" d="M338 329 L340 446 L221 446 L220 329 L338 329 Z M330 0 L334 116 L215 116 L211 0 L330 0 Z " />
<glyph glyph-name="semicolon" unicode="&#x3b;" horiz-adv-x="550" d="M340 329 L341 446 L222 446 L221 329 L340 329 Z M195 -172 L237 -185 C324 -104 367 7 329 122 L216 115 C268 5 261 -94 195 -172 L195 -172 Z " />
<glyph glyph-name="less" unicode="&#x3c;" horiz-adv-x="550" d="M415 603 L86 326 L86 257 L418 -22 L464 35 L161 287 L161 297 L460 545 L415 603 Z " />
<glyph glyph-name="equal" unicode="&#x3d;" horiz-adv-x="550" d="M472 442 L78 442 L78 373 L471 373 L472 442 Z M472 220 L78 220 L78 151 L471 151 L472 220 Z " />
<glyph glyph-name="greater" unicode="&#x3e;" horiz-adv-x="550" d="M132 -22 L465 258 L465 327 L138 602 L91 544 L391 297 L391 287 L87 35 L132 -22 Z " />
<glyph glyph-name="question" unicode="&#x3f;" horiz-adv-x="550" d="M85 602 C337 586 397 546 397 499 C397 427 217 372 209 229 L266 228 C280 357 483 408 483 518 C483 597 395 662 93 678 L85 602 Z M285 0 L288 109 L177 109 L175 0 L285 0 Z " />
<glyph glyph-name="at" unicode="&#x40;" horiz-adv-x="550" d="M449 -152 L449 -87 C182 -119 119 19 119 255 C119 496 205 617 313 617 C380 617 411 570 417 479 C296 485 213 407 213 247 C213 132 261 59 328 59 C368 59 395 77 423 110 C424 94 426 75 427 66 L494 74 C492 166 489 253 489 450 C489 600 438 683 322 683 C165 683 50 512 50 245 C50 -15 142 -191 449 -152 L449 -152 Z M354 123 C309 123 286 171 286 261 C286 368 315 430 418 408 L418 156 C400 137 379 123 354 123 L354 123 Z " />
<glyph glyph-name="A" unicode="A" horiz-adv-x="550" d="M430 -3 L514 3 C457 210 398 414 333 622 L217 622 C152 413 93 207 36 0 L119 0 C136 63 152 127 169 190 L378 190 C396 126 413 61 430 -3 L430 -3 Z M270 551 L278 551 C307 452 334 352 361 253 L186 253 C214 352 241 451 270 551 L270 551 Z " />
<glyph glyph-name="B" unicode="B" horiz-adv-x="550" d="M495 177 C495 261 442 307 356 324 C425 348 475 397 475 477 C475 612 327 647 95 620 L95 0 C322 -30 496 18 495 177 L495 177 Z M177 557 C310 572 395 545 395 457 C395 374 338 337 177 342 L177 557 Z M177 64 L177 281 C334 287 413 266 413 172 C413 71 323 44 177 64 L177 64 Z " />
<glyph glyph-name="C" unicode="C" horiz-adv-x="550" d="M479 68 C220 57 152 144 152 311 C152 453 202 545 473 548 L468 628 C164 618 66 470 66 300 C66 114 155 -25 472 -3 L479 68 Z " />
<glyph glyph-name="D" unicode="D" horiz-adv-x="550" d="M501 322 C501 562 387 663 85 621 L85 -1 C363 -43 501 79 501 322 L501 322 Z M417 309 C417 126 341 40 167 66 L167 555 C347 577 417 496 417 309 L417 309 Z " />
<glyph glyph-name="E" unicode="E" horiz-adv-x="550" d="M486 71 L188 71 L188 282 L441 282 L441 345 L188 345 L188 549 L481 549 L481 620 L105 620 L105 0 L478 0 L486 71 Z " />
<glyph glyph-name="F" unicode="F" horiz-adv-x="550" d="M451 270 L451 335 L195 335 L195 549 L492 549 L492 620 L111 620 L111 0 L195 0 L195 270 L451 270 Z " />
<glyph glyph-name="G" unicode="G" horiz-adv-x="550" d="M477 7 C475 87 476 183 476 311 L398 311 C398 219 400 126 401 59 C203 46 139 144 139 309 C139 447 188 549 455 548 L450 628 C146 617 54 471 54 294 C54 77 182 -56 477 7 L477 7 Z " />
<glyph glyph-name="H" unicode="H" horiz-adv-x="550" d="M386 0 L471 0 L471 620 L386 620 L386 346 L164 346 L164 620 L79 620 L79 0 L164 0 L164 282 L386 282 L386 0 Z " />
<glyph glyph-name="I" unicode="I" horiz-adv-x="550" d="M316 554 L470 554 L470 620 L80 620 L80 554 L233 554 L233 66 L80 66 L80 0 L468 0 L474 66 L316 66 L316 554 Z " />
<glyph glyph-name="J" unicode="J" horiz-adv-x="550" d="M126 620 L126 553 L340 553 L340 201 C340 82 308 55 88 64 L88 -10 C342 -17 423 50 423 201 L423 620 L126 620 Z " />
<glyph glyph-name="K" unicode="K" horiz-adv-x="550" d="M428 -6 L519 5 L307 317 L504 620 L415 620 L242 347 L174 347 L174 620 L91 620 L91 0 L174 0 L174 279 L238 279 L428 -6 Z " />
<glyph glyph-name="L" unicode="L" horiz-adv-x="550" d="M490 0 L498 71 L197 71 L197 620 L113 620 L113 0 L490 0 Z " />
<glyph glyph-name="M" unicode="M" horiz-adv-x="550" d="M390 620 C390 620 292 260 278 208 L274 208 C260 260 160 620 160 620 L66 620 L66 0 L142 0 L138 481 L142 481 L246 108 L302 108 L404 481 L408 481 L404 0 L483 0 L483 620 L390 620 Z " />
<glyph glyph-name="N" unicode="N" horiz-adv-x="550" d="M392 0 L471 0 L471 620 L393 620 L396 148 L392 148 L167 620 L80 620 L80 0 L157 0 L154 481 L159 481 L392 0 Z " />
<glyph glyph-name="O" unicode="O" horiz-adv-x="550" d="M264 -15 C411 -15 505 106 504 324 C504 524 425 635 286 635 C139 635 46 515 46 296 C46 97 126 -15 264 -15 L264 -15 Z M272 566 C367 566 419 476 419 306 C419 140 370 54 278 54 C182 54 131 144 131 314 C131 480 179 566 272 566 L272 566 Z " />
<glyph glyph-name="P" unicode="P" horiz-adv-x="550" d="M181 0 L181 200 C373 214 501 282 501 430 C501 582 366 659 98 619 L98 0 L181 0 Z M419 414 C419 302 334 263 181 274 L181 554 C342 575 419 520 419 414 L419 414 Z " />
<glyph glyph-name="Q" unicode="Q" horiz-adv-x="550" d="M447 -135 L471 -66 L319 -10 L319 -9 C434 19 505 135 504 324 C504 524 425 635 286 635 C139 635 46 515 46 296 C46 111 115 1 235 -13 L221 -55 L447 -135 Z M272 566 C369 566 419 476 419 306 C419 140 371 54 278 54 C180 54 131 144 131 314 C131 480 178 566 272 566 L272 566 Z " />
<glyph glyph-name="R" unicode="R" horiz-adv-x="550" d="M428 -10 L517 3 L369 271 C429 314 473 370 473 452 C473 579 377 661 92 619 L92 0 L175 0 L175 226 L302 230 L428 -10 Z M175 555 C326 577 391 524 391 434 C391 371 358 323 310 291 L175 287 L175 555 Z " />
<glyph glyph-name="S" unicode="S" horiz-adv-x="550" d="M86 71 L85 -6 C372 -22 479 79 479 174 C479 322 170 365 170 472 C170 523 227 563 444 548 L439 625 C184 639 85 547 85 459 C85 314 394 276 394 162 C394 103 312 52 86 71 L86 71 Z " />
<glyph glyph-name="T" unicode="T" horiz-adv-x="550" d="M318 549 L509 549 L509 620 L46 620 L39 549 L234 549 L234 0 L318 0 L318 549 Z " />
<glyph glyph-name="U" unicode="U" horiz-adv-x="550" d="M270 -15 C397 -15 474 65 474 204 L474 620 L391 620 L391 191 C391 97 354 57 278 57 C204 57 159 104 159 206 L159 620 L75 620 L75 200 C75 61 148 -15 270 -15 L270 -15 Z " />
<glyph glyph-name="V" unicode="V" horiz-adv-x="550" d="M335 -1 C399 207 457 413 512 620 L429 620 C383 438 334 256 281 74 L272 74 C219 256 169 441 123 623 L38 617 C93 410 152 207 216 -1 L335 -1 Z " />
<glyph glyph-name="W" unicode="W" horiz-adv-x="550" d="M364 0 L451 0 C466 117 487 353 500 620 L422 620 C417 496 401 167 394 106 L391 106 C361 216 331 327 302 436 L252 436 C224 328 199 228 166 106 L162 106 C156 167 138 496 133 620 L51 620 C64 353 84 117 99 0 L187 0 L274 330 L364 0 Z " />
<glyph glyph-name="X" unicode="X" horiz-adv-x="550" d="M421 -3 L512 3 L329 310 L513 620 L423 620 L280 367 L131 623 L40 617 L224 310 L40 0 L129 0 L272 253 L421 -3 Z " />
<glyph glyph-name="Y" unicode="Y" horiz-adv-x="550" d="M318 0 L318 206 L517 620 L431 620 L278 286 L122 622 L33 618 L234 206 L234 0 L318 0 Z " />
<glyph glyph-name="Z" unicode="Z" horiz-adv-x="550" d="M481 0 L488 73 L158 72 L481 549 L481 620 L77 620 L71 547 L392 548 L67 71 L67 0 L481 0 Z " />
<glyph glyph-name="bracketleft" unicode="&#x5b;" horiz-adv-x="550" d="M137 -179 L461 -179 L468 -113 L215 -113 L215 629 L464 629 L464 695 L137 695 L137 -179 Z " />
<glyph glyph-name="backslash" unicode="&#x5c;" horiz-adv-x="550" d="M74 724 L4 694 L468 -181 L542 -159 L74 724 Z " />
<glyph glyph-name="bracketright" unicode="&#x5d;" horiz-adv-x="550" d="M89 -112 L86 -178 L414 -178 L414 695 L88 695 L88 629 L337 629 L337 -112 L89 -112 Z " />
<glyph glyph-name="asciicircum" unicode="&#x5e;" horiz-adv-x="550" d="M438 157 L499 200 L280 496 L264 493 L55 199 L111 157 L271 389 L438 157 Z " />
<glyph glyph-name="underscore" unicode="&#x5f;" horiz-adv-x="550" d="M516 -50 L33 -50 L33 -116 L516 -116 L516 -50 Z " />
<glyph glyph-name="grave" unicode="&#x60;" horiz-adv-x="550" d="M394 588 C339 630 247 714 197 768 L137 701 C199 652 302 587 370 552 L394 588 Z " />
<glyph glyph-name="a" unicode="a" horiz-adv-x="550" d="M248 52 C187 52 147 82 147 134 C147 201 206 240 385 221 C385 173 386 137 387 105 C349 75 297 52 248 52 L248 52 Z M398 -3 L472 2 C468 72 464 141 464 243 C464 432 388 491 105 499 L96 429 C315 421 377 392 384 279 C167 292 67 216 67 115 C67 36 128 -12 217 -12 C294 -12 351 23 391 60 C393 38 397 7 398 -3 L398 -3 Z " />
<glyph glyph-name="b" unicode="b" horiz-adv-x="550" d="M234 -12 C370 -12 494 94 494 267 C494 410 417 501 312 501 C254 501 207 476 171 446 L171 706 L90 699 L90 13 C135 -3 183 -12 234 -12 L234 -12 Z M262 58 C232 58 202 64 171 75 L171 395 C203 419 242 434 280 434 C358 434 414 369 414 247 C414 122 350 58 262 58 L262 58 Z " />
<glyph glyph-name="c" unicode="c" horiz-adv-x="550" d="M80 237 C80 87 163 -24 460 -4 L469 64 C229 53 160 119 160 248 C160 352 209 421 462 420 L456 497 C171 491 80 372 80 237 L80 237 Z " />
<glyph glyph-name="d" unicode="d" horiz-adv-x="550" d="M271 55 C192 55 136 116 136 241 C136 365 206 432 296 432 C322 432 349 427 377 418 C377 281 378 182 380 97 C350 73 312 55 271 55 L271 55 Z M389 -2 L465 2 C460 113 458 268 458 488 L458 706 L377 699 L377 498 C363 500 348 501 333 501 C184 501 56 399 56 220 C56 75 134 -12 240 -12 C300 -12 349 16 384 49 L389 -2 Z " />
<glyph glyph-name="e" unicode="e" horiz-adv-x="550" d="M456 -11 L464 58 C227 64 154 108 146 224 L481 232 C499 394 431 502 297 502 C170 502 66 387 66 238 C66 79 149 -10 456 -11 L456 -11 Z M283 435 C365 435 404 376 405 282 C336 280 202 276 146 274 C152 379 202 435 283 435 L283 435 Z " />
<glyph glyph-name="f" unicode="f" horiz-adv-x="550" d="M472 61 L296 61 L296 416 L482 416 L482 478 L296 478 L296 490 C296 594 321 620 514 629 L508 708 C283 696 215 607 215 478 L82 478 L75 416 L215 416 L215 61 L81 61 L81 0 L465 0 L472 61 Z " />
<glyph glyph-name="g" unicode="g" horiz-adv-x="550" d="M126 -173 C396 -159 463 -55 463 114 C463 171 463 439 462 478 C413 493 367 501 319 501 C179 501 58 403 58 245 C58 116 137 38 243 38 C301 38 348 59 383 86 C381 -53 350 -81 118 -99 L126 -173 Z M273 103 C196 103 138 156 138 264 C138 373 204 432 290 432 C321 432 351 426 383 417 C382 341 383 204 383 137 C351 117 312 103 273 103 L273 103 Z " />
<glyph glyph-name="h" unicode="h" horiz-adv-x="550" d="M291 432 C353 432 390 399 390 305 L390 0 L471 0 L471 332 C471 452 413 501 325 501 C260 501 209 474 169 442 L169 706 L88 699 L88 0 L169 0 L169 392 C206 416 245 432 291 432 L291 432 Z " />
<glyph glyph-name="i" unicode="i" horiz-adv-x="550" d="M332 569 L341 705 L255 705 L249 569 L332 569 Z M514 0 L520 62 L336 62 L336 490 L78 490 L72 433 L255 425 L255 62 L71 62 L71 0 L514 0 Z " />
<glyph glyph-name="j" unicode="j" horiz-adv-x="550" d="M374 569 L379 705 L295 705 L291 569 L374 569 Z M380 49 L380 490 L90 490 L84 433 L299 424 L299 33 C299 -66 267 -90 49 -98 L47 -175 C301 -167 380 -94 380 49 L380 49 Z " />
<glyph glyph-name="k" unicode="k" horiz-adv-x="550" d="M428 -6 L514 6 L326 255 C388 328 447 407 503 486 L420 492 C369 417 316 348 258 280 L182 278 L182 706 L101 699 L101 0 L182 0 L182 218 L255 220 L428 -6 Z " />
<glyph glyph-name="l" unicode="l" horiz-adv-x="550" d="M472 0 L479 62 L319 62 L319 698 L93 698 L86 640 L237 633 L237 62 L78 62 L78 0 L472 0 Z " />
<glyph glyph-name="m" unicode="m" horiz-adv-x="550" d="M202 432 C235 432 248 413 248 363 L248 0 L311 0 L311 394 C311 397 311 400 311 403 C332 422 354 432 376 432 C410 432 423 413 423 362 L423 0 L500 0 L500 391 C500 465 469 501 414 501 C371 501 334 477 307 449 C295 482 269 501 232 501 C191 501 154 477 126 446 L122 492 L51 487 C55 374 57 214 57 0 L133 0 C133 172 131 306 129 395 C153 419 180 432 202 432 L202 432 Z " />
<glyph glyph-name="n" unicode="n" horiz-adv-x="550" d="M291 432 C353 432 390 399 390 305 L390 0 L471 0 L471 332 C471 452 413 501 325 501 C255 501 202 470 161 436 L156 492 L81 487 C86 374 88 214 88 0 L169 0 C169 171 167 300 165 389 C203 415 244 432 291 432 L291 432 Z " />
<glyph glyph-name="o" unicode="o" horiz-adv-x="550" d="M264 -14 C390 -14 495 92 495 254 C495 411 409 503 287 503 C161 503 55 395 55 236 C55 78 143 -14 264 -14 L264 -14 Z M277 53 C194 53 137 123 137 251 C137 371 193 437 273 437 C357 437 414 366 414 239 C414 118 358 53 277 53 L277 53 Z " />
<glyph glyph-name="p" unicode="p" horiz-adv-x="550" d="M255 58 C228 58 202 63 173 73 C172 217 170 312 168 393 C201 418 241 434 280 434 C357 434 414 369 414 247 C414 124 344 58 255 58 L255 58 Z M173 -165 L173 -8 C191 -11 209 -12 226 -12 C371 -12 494 91 494 267 C494 410 416 501 312 501 C251 501 202 474 165 441 L160 492 L86 487 C91 383 92 235 92 -2 L92 -172 L173 -165 Z " />
<glyph glyph-name="q" unicode="q" horiz-adv-x="550" d="M379 -171 L460 -164 L460 476 C416 493 375 501 325 501 C185 501 56 397 56 220 C56 76 133 -13 240 -13 C297 -13 344 13 379 44 L379 -171 Z M270 55 C192 55 136 117 136 240 C136 365 205 432 295 432 C323 432 349 427 379 416 L379 97 C348 73 310 55 270 55 L270 55 Z " />
<glyph glyph-name="r" unicode="r" horiz-adv-x="550" d="M435 0 L442 62 L276 62 C275 176 273 272 272 357 C326 392 397 414 497 422 L493 508 C392 496 317 456 269 406 C268 429 264 480 263 490 L73 490 L67 432 L191 425 C194 327 195 212 197 62 L67 62 L67 0 L435 0 Z " />
<glyph glyph-name="s" unicode="s" horiz-adv-x="550" d="M437 494 C187 513 103 433 103 355 C103 232 377 218 377 131 C377 87 316 51 102 68 L99 -4 C374 -19 461 58 461 138 C461 263 185 285 185 366 C185 406 239 440 440 422 L437 494 Z " />
<glyph glyph-name="t" unicode="t" horiz-adv-x="550" d="M460 -8 L469 60 C305 63 258 85 258 170 L258 427 L458 427 L458 490 L258 490 L258 633 L177 626 L177 490 L84 490 L76 427 L177 427 L177 157 C177 36 248 -11 460 -8 L460 -8 Z " />
<glyph glyph-name="u" unicode="u" horiz-adv-x="550" d="M394 -2 L469 3 C464 116 462 276 462 490 L381 490 C381 318 383 190 385 102 C348 75 307 57 260 57 C199 57 163 89 163 185 L163 493 L82 487 L82 158 C82 37 139 -12 226 -12 C296 -12 348 20 389 54 L394 -2 Z " />
<glyph glyph-name="v" unicode="v" horiz-adv-x="550" d="M281 76 L273 76 C219 215 170 355 125 492 L44 487 C98 324 158 160 224 -4 L326 -4 C392 159 455 326 509 490 L427 490 C383 353 335 214 281 76 L281 76 Z " />
<glyph glyph-name="w" unicode="w" horiz-adv-x="550" d="M368 0 L443 0 C460 116 481 306 492 490 L416 490 C409 350 402 232 394 100 L390 100 C380 132 310 331 302 356 L252 356 C245 332 176 133 166 102 L162 102 C152 234 145 351 138 490 L58 490 C69 306 90 116 108 0 L181 0 L274 274 L368 0 Z " />
<glyph glyph-name="x" unicode="x" horiz-adv-x="550" d="M415 -2 L505 3 L328 246 L507 490 L420 490 L279 291 L133 492 L44 487 L223 244 L43 0 L129 0 L271 198 L415 -2 Z " />
<glyph glyph-name="y" unicode="y" horiz-adv-x="550" d="M70 -178 C236 -158 283 -112 349 61 C413 223 465 369 506 490 L428 490 C402 421 332 200 295 100 L285 100 C230 225 174 367 125 492 L42 487 C91 367 185 140 242 15 L251 13 C217 -67 188 -84 63 -103 L70 -178 Z " />
<glyph glyph-name="z" unicode="z" horiz-adv-x="550" d="M480 0 L486 72 L166 70 L477 422 L477 490 L82 490 L76 418 L384 420 L73 69 L73 0 L480 0 Z " />
<glyph glyph-name="braceleft" unicode="&#x7b;" horiz-adv-x="550" d="M455 -209 L483 -143 C308 -90 232 -51 232 2 C232 60 320 102 320 165 C320 204 289 244 205 265 C290 288 322 329 322 366 C322 422 226 471 226 523 C226 568 304 608 485 659 L459 726 C229 653 148 584 148 515 C149 440 249 397 249 352 C249 322 213 299 88 288 L86 229 C195 222 243 191 243 153 C243 106 151 63 151 -16 C151 -90 229 -136 455 -209 L455 -209 Z " />
<glyph glyph-name="bar" unicode="&#x7c;" horiz-adv-x="550" d="M239 704 L239 -182 L314 -182 L314 710 L239 704 Z " />
<glyph glyph-name="braceright" unicode="&#x7d;" horiz-adv-x="550" d="M93 -208 C323 -135 403 -65 403 3 C403 79 302 122 302 167 C302 196 339 220 463 231 L466 289 C356 296 308 327 308 365 C308 412 401 456 401 534 C401 608 323 654 97 727 L69 661 C244 608 320 570 320 516 C320 458 231 416 231 353 C231 314 263 274 346 254 C262 230 230 189 230 153 C230 96 325 47 325 -4 C325 -49 247 -90 67 -140 L93 -208 Z " />
<glyph glyph-name="asciitilde" unicode="&#x7e;" horiz-adv-x="550" d="M373 196 C435 196 475 263 514 385 L460 406 C432 328 407 270 376 270 C325 270 260 414 179 414 C118 414 73 344 36 225 L90 204 C117 282 142 340 173 340 C225 340 292 196 373 196 L373 196 Z " />
<glyph glyph-name="uni00A0" unicode="&#xa0;" horiz-adv-x="550" d="" />
<glyph glyph-name="exclamdown" unicode="&#xa1;" horiz-adv-x="550" d="M222 620 L220 510 L334 510 L335 620 L222 620 Z M245 387 C243 300 218 36 214 -56 L318 -56 C316 36 298 300 298 387 L245 387 Z " />
<glyph glyph-name="cent" unicode="&#xa2;" horiz-adv-x="550" d="M152 271 C152 334 184 388 303 406 L268 132 C185 160 152 208 152 271 L152 271 Z M444 34 L453 103 C403 105 360 110 324 117 L360 411 C391 412 426 412 466 409 L475 484 C438 486 405 485 374 483 L393 620 L322 620 L305 476 C128 447 76 355 76 261 C76 172 122 99 252 61 L233 -85 L304 -85 L318 46 C355 40 397 36 444 34 L444 34 Z " />
<glyph glyph-name="sterling" unicode="&#xa3;" horiz-adv-x="550" d="M475 70 L211 68 L234 275 L413 275 L419 338 L241 338 C260 514 287 545 481 554 L476 636 C238 619 184 542 161 338 L73 338 L67 275 L154 275 L134 68 L61 67 L61 0 L475 0 L475 70 Z " />
<glyph glyph-name="yen" unicode="&#xa5;" horiz-adv-x="550" d="M483 121 L484 181 L314 181 L313 248 L327 275 L484 275 L484 335 L359 335 L508 620 L426 620 L278 317 L125 622 L38 618 L189 335 L63 335 L63 275 L221 275 L236 247 L235 181 L63 181 L62 121 L235 121 L234 0 L315 0 L314 121 L483 121 Z " />
<glyph glyph-name="section" unicode="&#xa7;" horiz-adv-x="550" d="M136 275 C136 306 176 335 229 355 C315 319 414 293 414 244 C414 213 374 183 322 164 C236 200 136 226 136 275 L136 275 Z M445 46 C445 86 415 115 373 139 C437 167 487 210 487 263 C487 386 188 403 188 480 C188 519 243 567 454 557 L450 628 C196 637 105 547 105 472 C105 432 135 403 176 380 C112 352 63 309 63 257 C63 134 362 115 362 38 C362 -1 305 -48 95 -39 L91 -109 C353 -118 445 -28 445 46 L445 46 Z " />
<glyph glyph-name="dieresis" unicode="&#xa8;" horiz-adv-x="550" d="M427 569 L429 705 L346 705 L345 569 L427 569 Z M207 569 L209 705 L126 705 L125 569 L207 569 Z " />
<glyph glyph-name="copyright" unicode="&#xa9;" horiz-adv-x="550" d="M507 314 C507 501 414 613 284 613 C150 613 43 490 43 306 C43 115 143 7 278 7 C408 7 507 120 507 314 L507 314 Z M92 309 C92 469 173 568 282 568 C386 568 459 471 459 311 C459 144 384 52 282 52 C174 52 92 144 92 309 L92 309 Z M352 197 C259 193 235 234 235 314 C235 379 250 421 349 424 L345 482 C219 473 176 398 176 309 C176 208 218 134 346 143 L352 197 Z " />
<glyph glyph-name="ordfeminine" unicode="&#xaa;" horiz-adv-x="550" d="M253 298 C209 298 180 314 180 354 C180 403 224 432 357 419 C357 384 358 357 359 334 C329 314 290 298 253 298 L253 298 Z M368 253 L429 257 C427 308 424 359 424 438 C424 576 363 619 146 626 L140 565 C299 560 349 542 356 467 C191 475 112 418 112 341 C112 281 163 245 233 245 C288 245 332 268 362 294 C364 279 367 260 368 253 L368 253 Z M109 172 L109 117 L440 117 L440 172 L109 172 Z " />
<glyph glyph-name="guillemotleft" unicode="&#xab;" horiz-adv-x="550" d="M213 -17 L273 30 L105 248 L275 457 L216 506 L47 286 L43 205 L213 -17 Z M452 -17 L512 30 L342 247 L514 457 L455 506 L286 286 L282 205 L452 -17 Z " />
<glyph glyph-name="registered" unicode="&#xae;" horiz-adv-x="550" d="M514 441 C514 586 413 676 277 674 C135 672 37 574 37 428 C37 284 130 195 273 195 C409 195 514 296 514 441 L514 441 Z M469 437 C469 310 384 236 273 236 C162 236 82 307 82 432 C82 556 163 633 276 633 C389 633 469 563 469 437 L469 437 Z M336 320 L386 327 L327 415 C352 432 373 458 373 484 C373 529 322 564 195 547 L195 322 L242 322 L242 402 L286 403 L336 320 Z " />
<glyph glyph-name="macron" unicode="&#xaf;" horiz-adv-x="550" d="M442 674 L108 674 L108 604 L442 604 L442 674 Z " />
<glyph glyph-name="degree" unicode="&#xb0;" horiz-adv-x="550" d="M450 498 C450 607 378 676 281 676 C185 676 100 603 100 490 C100 381 173 313 269 313 C365 313 450 385 450 498 L450 498 Z M384 498 C383 422 336 374 274 374 C210 374 165 426 166 494 C167 567 214 614 276 614 C340 614 385 564 384 498 L384 498 Z " />
<glyph glyph-name="plusminus" unicode="&#xb1;" horiz-adv-x="550" d="M479 62 L480 130 L312 130 L312 297 L481 297 L482 366 L312 366 L312 545 L239 545 L239 366 L68 366 L68 297 L239 297 L239 130 L70 130 L70 62 L479 62 Z " />
<glyph glyph-name="two.sup" unicode="&#xb2;" horiz-adv-x="550" d="M426 325 L426 382 L213 382 C342 471 413 536 413 611 C413 677 352 730 144 729 L139 671 C301 668 347 641 347 594 C347 534 269 475 124 378 L131 325 L426 325 Z " />
<glyph glyph-name="three.sup" unicode="&#xb3;" horiz-adv-x="550" d="M141 314 C348 320 425 373 425 439 C425 486 379 525 250 545 L415 667 L411 720 L142 720 L142 663 L337 665 L337 662 L175 541 L175 508 C311 495 361 468 361 437 C361 402 304 379 136 374 L141 314 Z " />
<glyph glyph-name="acute" unicode="&#xb4;" horiz-adv-x="550" d="M162 594 L185 558 C253 591 361 656 420 709 L355 772 C307 715 220 634 162 594 L162 594 Z " />
<glyph glyph-name="mu" unicode="&#xb5;" horiz-adv-x="550" d="M161 -164 L157 18 C179 -3 208 -12 244 -12 C306 -12 353 19 390 54 L395 -2 L469 3 C464 116 462 276 462 490 L381 490 C381 317 383 189 385 101 C347 74 307 57 260 57 C199 57 163 88 163 175 L163 493 L82 487 L82 -172 L161 -164 Z " />
<glyph glyph-name="paragraph" unicode="&#xb6;" horiz-adv-x="550" d="M401 167 C369 168 340 171 313 177 L313 550 C339 553 369 555 401 553 L401 167 Z M123 362 C123 440 165 507 256 537 L256 193 C171 225 123 286 123 362 L123 362 Z M314 -107 L314 106 C341 103 370 101 401 101 L401 -90 L470 -82 L470 630 C199 632 48 514 48 349 C48 240 120 158 245 121 L245 -116 L314 -107 Z " />
<glyph glyph-name="periodcentered" unicode="&#xb7;" horiz-adv-x="550" d="M334 248 L337 363 L218 363 L215 248 L334 248 Z " />
<glyph glyph-name="cedilla" unicode="&#xb8;" horiz-adv-x="550" d="M229 -12 C295 -51 323 -80 323 -102 C323 -123 289 -138 206 -150 L212 -214 C334 -199 395 -160 395 -110 C395 -68 353 -20 250 30 L229 -12 Z " />
<glyph glyph-name="one.sup" unicode="&#xb9;" horiz-adv-x="550" d="M433 325 L438 380 L324 380 L324 736 L260 731 L260 671 L140 655 L142 607 L260 614 L260 380 L135 380 L135 325 L433 325 Z " />
<glyph glyph-name="ordmasculine" unicode="&#xba;" horiz-adv-x="550" d="M97 430 C97 313 168 245 265 245 C369 245 453 324 453 443 C453 559 382 627 284 627 C182 627 97 548 97 430 L97 430 Z M276 301 C208 301 165 348 165 441 C165 526 206 572 273 572 C342 572 385 525 385 432 C385 347 343 301 276 301 L276 301 Z M442 117 L442 172 L109 172 L109 117 L442 117 Z " />
<glyph glyph-name="guillemotright" unicode="&#xbb;" horiz-adv-x="550" d="M334 -17 L503 203 L508 284 L337 506 L277 459 L447 242 L275 32 L334 -17 Z M96 -17 L265 203 L269 284 L99 506 L39 459 L209 243 L37 32 L96 -17 Z " />
<glyph glyph-name="onequarter" unicode="&#xbc;" horiz-adv-x="550" d="M433 425 L438 480 L324 480 L324 836 L260 831 L260 771 L140 755 L142 707 L260 714 L260 480 L135 480 L135 425 L433 425 Z M61 277 L489 277 L489 332 L61 332 L61 277 Z M445 -130 L450 -75 L393 -76 L394 61 L332 56 L334 -76 L186 -75 C188 -44 234 136 249 187 L179 192 C146 73 129 -53 130 -130 L333 -129 L332 -210 L394 -210 L393 -129 L445 -130 Z " />
<glyph glyph-name="onehalf" unicode="&#xbd;" horiz-adv-x="550" d="M433 425 L438 480 L324 480 L324 836 L260 831 L260 771 L140 755 L142 707 L260 714 L260 480 L135 480 L135 425 L433 425 Z M61 277 L489 277 L489 332 L61 332 L61 277 Z M426 -210 L426 -153 L213 -153 C342 -64 413 1 413 76 C413 142 352 195 144 194 L139 136 C301 133 347 106 347 59 C347 -1 269 -60 124 -157 L131 -210 L426 -210 Z " />
<glyph glyph-name="threequarters" unicode="&#xbe;" horiz-adv-x="550" d="M141 414 C348 420 425 473 425 539 C425 586 379 625 250 645 L415 767 L411 820 L142 820 L142 763 L337 765 L337 762 L175 641 L175 608 C311 595 361 568 361 537 C361 502 304 479 136 474 L141 414 Z M61 277 L489 277 L489 332 L61 332 L61 277 Z M445 -130 L450 -75 L393 -76 L394 61 L332 56 L334 -76 L186 -75 C188 -44 234 136 249 187 L179 192 C146 73 129 -53 130 -130 L333 -129 L332 -210 L394 -210 L393 -129 L445 -130 Z " />
<glyph glyph-name="questiondown" unicode="&#xbf;" horiz-adv-x="550" d="M266 620 L262 511 L372 511 L375 620 L266 620 Z M465 18 C214 34 153 74 153 121 C153 193 333 248 342 391 L285 392 C271 263 67 212 67 102 C67 23 155 -42 457 -58 L465 18 Z " />
<glyph glyph-name="Agrave" unicode="&#xc0;" horiz-adv-x="550" d="M374 718 C319 760 227 844 177 898 L117 831 C179 782 282 717 350 682 L374 718 Z M430 -3 L514 3 C457 210 398 414 333 622 L217 622 C152 413 93 207 36 0 L119 0 C136 63 152 127 169 190 L378 190 C396 126 413 61 430 -3 L430 -3 Z M270 551 L278 551 C307 452 334 352 361 253 L186 253 C214 352 241 451 270 551 L270 551 Z " />
<glyph glyph-name="Aacute" unicode="&#xc1;" horiz-adv-x="550" d="M169 724 L192 688 C260 721 368 786 427 839 L362 902 C314 845 227 764 169 724 L169 724 Z M430 -3 L514 3 C457 210 398 414 333 622 L217 622 C152 413 93 207 36 0 L119 0 C136 63 152 127 169 190 L378 190 C396 126 413 61 430 -3 L430 -3 Z M270 551 L278 551 C307 452 334 352 361 253 L186 253 C214 352 241 451 270 551 L270 551 Z " />
<glyph glyph-name="Acircumflex" unicode="&#xc2;" horiz-adv-x="550" d="M401 690 L452 739 L276 883 L272 883 L96 730 L136 691 L268 804 L401 690 Z M430 -3 L514 3 C457 210 398 414 333 622 L217 622 C152 413 93 207 36 0 L119 0 C136 63 152 127 169 190 L378 190 C396 126 413 61 430 -3 L430 -3 Z M270 551 L278 551 C307 452 334 352 361 253 L186 253 C214 352 241 451 270 551 L270 551 Z " />
<glyph glyph-name="Atilde" unicode="&#xc3;" horiz-adv-x="550" d="M350 697 C400 697 446 751 482 836 L436 856 C409 797 384 763 359 763 C317 763 276 864 212 864 C161 864 115 810 80 725 L125 705 C152 763 177 797 203 797 C245 797 286 697 350 697 L350 697 Z M430 -3 L514 3 C457 210 398 414 333 622 L217 622 C152 413 93 207 36 0 L119 0 C136 63 152 127 169 190 L378 190 C396 126 413 61 430 -3 L430 -3 Z M270 551 L278 551 C307 452 334 352 361 253 L186 253 C214 352 241 451 270 551 L270 551 Z " />
<glyph glyph-name="Adieresis" unicode="&#xc4;" horiz-adv-x="550" d="M426 699 L428 835 L345 835 L344 699 L426 699 Z M206 699 L208 835 L125 835 L124 699 L206 699 Z M430 -3 L514 3 C457 210 398 414 333 622 L217 622 C152 413 93 207 36 0 L119 0 C136 63 152 127 169 190 L378 190 C396 126 413 61 430 -3 L430 -3 Z M270 551 L278 551 C307 452 334 352 361 253 L186 253 C214 352 241 451 270 551 L270 551 Z " />
<glyph glyph-name="Aring" unicode="&#xc5;" horiz-adv-x="550" d="M272 890 C192 890 141 843 141 782 C141 724 195 678 272 678 C352 678 404 724 404 786 C404 842 350 890 272 890 L272 890 Z M430 -3 L514 3 C457 210 398 414 333 622 L217 622 C152 413 93 207 36 0 L119 0 C136 63 152 127 169 190 L378 190 C396 126 413 61 430 -3 L430 -3 Z M270 551 L278 551 C307 452 334 352 361 253 L186 253 C214 352 241 451 270 551 L270 551 Z " />
<glyph glyph-name="AE" unicode="&#xc6;" horiz-adv-x="550" d="M256 549 L262 549 L262 244 L160 244 C192 346 225 449 256 549 L256 549 Z M262 0 L506 0 L512 71 L335 71 L335 282 L481 282 L481 345 L335 345 L335 549 L508 549 L508 620 L207 620 C138 414 68 206 4 0 L85 0 C103 60 122 121 141 182 L262 182 L262 0 Z " />
<glyph glyph-name="Ccedilla" unicode="&#xc7;" horiz-adv-x="550" d="M391 -112 C391 -76 360 -36 288 6 C338 -5 399 -8 472 -3 L479 68 C220 57 152 144 152 311 C152 453 202 545 473 548 L468 628 C164 618 66 470 66 300 C66 171 109 64 241 19 L225 -14 C291 -53 319 -82 319 -104 C319 -125 285 -140 202 -152 L208 -216 C330 -201 391 -162 391 -112 L391 -112 Z " />
<glyph glyph-name="Egrave" unicode="&#xc8;" horiz-adv-x="550" d="M395 718 C340 760 248 844 198 898 L138 831 C200 782 303 717 371 682 L395 718 Z M486 71 L188 71 L188 282 L441 282 L441 345 L188 345 L188 549 L481 549 L481 620 L105 620 L105 0 L478 0 L486 71 Z " />
<glyph glyph-name="Eacute" unicode="&#xc9;" horiz-adv-x="550" d="M189 724 L212 688 C280 721 388 786 447 839 L382 902 C334 845 247 764 189 724 L189 724 Z M486 71 L188 71 L188 282 L441 282 L441 345 L188 345 L188 549 L481 549 L481 620 L105 620 L105 0 L478 0 L486 71 Z " />
<glyph glyph-name="Ecircumflex" unicode="&#xca;" horiz-adv-x="550" d="M421 690 L472 739 L296 883 L292 883 L116 730 L156 691 L288 804 L421 690 Z M486 71 L188 71 L188 282 L441 282 L441 345 L188 345 L188 549 L481 549 L481 620 L105 620 L105 0 L478 0 L486 71 Z " />
<glyph glyph-name="Edieresis" unicode="&#xcb;" horiz-adv-x="550" d="M446 699 L448 835 L365 835 L364 699 L446 699 Z M226 699 L228 835 L145 835 L144 699 L226 699 Z M486 71 L188 71 L188 282 L441 282 L441 345 L188 345 L188 549 L481 549 L481 620 L105 620 L105 0 L478 0 L486 71 Z " />
<glyph glyph-name="Igrave" unicode="&#xcc;" horiz-adv-x="550" d="M378 718 C323 760 231 844 181 898 L121 831 C183 782 286 717 354 682 L378 718 Z M316 554 L470 554 L470 620 L80 620 L80 554 L233 554 L233 66 L80 66 L80 0 L468 0 L474 66 L316 66 L316 554 Z " />
<glyph glyph-name="Iacute" unicode="&#xcd;" horiz-adv-x="550" d="M172 724 L195 688 C263 721 371 786 430 839 L365 902 C317 845 230 764 172 724 L172 724 Z M316 554 L470 554 L470 620 L80 620 L80 554 L233 554 L233 66 L80 66 L80 0 L468 0 L474 66 L316 66 L316 554 Z " />
<glyph glyph-name="Icircumflex" unicode="&#xce;" horiz-adv-x="550" d="M404 690 L455 739 L279 883 L275 883 L99 730 L139 691 L271 804 L404 690 Z M316 554 L470 554 L470 620 L80 620 L80 554 L233 554 L233 66 L80 66 L80 0 L468 0 L474 66 L316 66 L316 554 Z " />
<glyph glyph-name="Idieresis" unicode="&#xcf;" horiz-adv-x="550" d="M429 699 L431 835 L348 835 L347 699 L429 699 Z M209 699 L211 835 L128 835 L127 699 L209 699 Z M316 554 L470 554 L470 620 L80 620 L80 554 L233 554 L233 66 L80 66 L80 0 L468 0 L474 66 L316 66 L316 554 Z " />
<glyph glyph-name="Eth" unicode="&#xd0;" horiz-adv-x="550" d="M501 322 C501 562 387 663 85 621 L85 344 L15 344 L15 285 L85 285 L85 -1 C363 -43 501 79 501 322 L501 322 Z M167 66 L167 285 L295 285 L298 344 L167 344 L167 555 C347 577 417 496 417 309 C417 126 341 40 167 66 L167 66 Z " />
<glyph glyph-name="Ntilde" unicode="&#xd1;" horiz-adv-x="550" d="M351 697 C401 697 447 751 483 836 L437 856 C410 797 385 763 360 763 C318 763 277 864 213 864 C162 864 116 810 81 725 L126 705 C153 763 178 797 204 797 C246 797 287 697 351 697 L351 697 Z M392 0 L471 0 L471 620 L393 620 L396 148 L392 148 L167 620 L80 620 L80 0 L157 0 L154 481 L159 481 L392 0 Z " />
<glyph glyph-name="Ograve" unicode="&#xd2;" horiz-adv-x="550" d="M379 725 C324 767 232 851 182 905 L122 838 C184 789 287 724 355 689 L379 725 Z M264 -15 C411 -15 505 106 504 324 C504 524 425 635 286 635 C139 635 46 515 46 296 C46 97 126 -15 264 -15 L264 -15 Z M272 566 C367 566 419 476 419 306 C419 140 370 54 278 54 C182 54 131 144 131 314 C131 480 179 566 272 566 L272 566 Z " />
<glyph glyph-name="Oacute" unicode="&#xd3;" horiz-adv-x="550" d="M173 731 L196 695 C264 728 372 793 431 846 L366 909 C318 852 231 771 173 731 L173 731 Z M264 -15 C411 -15 505 106 504 324 C504 524 425 635 286 635 C139 635 46 515 46 296 C46 97 126 -15 264 -15 L264 -15 Z M272 566 C367 566 419 476 419 306 C419 140 370 54 278 54 C182 54 131 144 131 314 C131 480 179 566 272 566 L272 566 Z " />
<glyph glyph-name="Ocircumflex" unicode="&#xd4;" horiz-adv-x="550" d="M405 697 L456 746 L280 890 L276 890 L100 737 L140 698 L272 811 L405 697 Z M264 -15 C411 -15 505 106 504 324 C504 524 425 635 286 635 C139 635 46 515 46 296 C46 97 126 -15 264 -15 L264 -15 Z M272 566 C367 566 419 476 419 306 C419 140 370 54 278 54 C182 54 131 144 131 314 C131 480 179 566 272 566 L272 566 Z " />
<glyph glyph-name="Otilde" unicode="&#xd5;" horiz-adv-x="550" d="M355 704 C405 704 451 758 487 843 L441 863 C414 804 389 770 364 770 C322 770 281 871 217 871 C166 871 120 817 85 732 L130 712 C157 770 182 804 208 804 C250 804 291 704 355 704 L355 704 Z M264 -15 C411 -15 505 106 504 324 C504 524 425 635 286 635 C139 635 46 515 46 296 C46 97 126 -15 264 -15 L264 -15 Z M272 566 C367 566 419 476 419 306 C419 140 370 54 278 54 C182 54 131 144 131 314 C131 480 179 566 272 566 L272 566 Z " />
<glyph glyph-name="Odieresis" unicode="&#xd6;" horiz-adv-x="550" d="M430 706 L432 842 L349 842 L348 706 L430 706 Z M210 706 L212 842 L129 842 L128 706 L210 706 Z M264 -15 C411 -15 505 106 504 324 C504 524 425 635 286 635 C139 635 46 515 46 296 C46 97 126 -15 264 -15 L264 -15 Z M272 566 C367 566 419 476 419 306 C419 140 370 54 278 54 C182 54 131 144 131 314 C131 480 179 566 272 566 L272 566 Z " />
<glyph glyph-name="multiply" unicode="&#xd7;" horiz-adv-x="550" d="M422 92 L473 142 L324 293 L469 440 L420 490 L276 343 L129 492 L77 442 L225 292 L81 145 L130 96 L274 242 L422 92 Z " />
<glyph glyph-name="Oslash" unicode="&#xd8;" horiz-adv-x="550" d="M130 314 C130 481 179 566 272 566 C310 566 341 552 365 524 L156 144 C139 187 130 243 130 314 L130 314 Z M278 54 C240 54 208 68 185 96 L394 476 C411 434 420 377 420 306 C420 139 370 54 278 54 L278 54 Z M264 -15 C411 -15 505 106 504 324 C504 425 484 504 446 557 L485 628 L432 656 L403 600 C371 623 332 635 286 635 C139 635 46 515 46 296 C46 194 67 115 106 62 L67 -8 L119 -36 L149 19 C181 -3 219 -15 264 -15 L264 -15 Z " />
<glyph glyph-name="Ugrave" unicode="&#xd9;" horiz-adv-x="550" d="M376 718 C321 760 229 844 179 898 L119 831 C181 782 284 717 352 682 L376 718 Z M270 -15 C397 -15 474 65 474 204 L474 620 L391 620 L391 191 C391 97 354 57 278 57 C204 57 159 104 159 206 L159 620 L75 620 L75 200 C75 61 148 -15 270 -15 L270 -15 Z " />
<glyph glyph-name="Uacute" unicode="&#xda;" horiz-adv-x="550" d="M170 724 L193 688 C261 721 369 786 428 839 L363 902 C315 845 228 764 170 724 L170 724 Z M270 -15 C397 -15 474 65 474 204 L474 620 L391 620 L391 191 C391 97 354 57 278 57 C204 57 159 104 159 206 L159 620 L75 620 L75 200 C75 61 148 -15 270 -15 L270 -15 Z " />
<glyph glyph-name="Ucircumflex" unicode="&#xdb;" horiz-adv-x="550" d="M402 690 L453 739 L277 883 L273 883 L97 730 L137 691 L269 804 L402 690 Z M270 -15 C397 -15 474 65 474 204 L474 620 L391 620 L391 191 C391 97 354 57 278 57 C204 57 159 104 159 206 L159 620 L75 620 L75 200 C75 61 148 -15 270 -15 L270 -15 Z " />
<glyph glyph-name="Udieresis" unicode="&#xdc;" horiz-adv-x="550" d="M427 699 L429 835 L346 835 L345 699 L427 699 Z M207 699 L209 835 L126 835 L125 699 L207 699 Z M270 -15 C397 -15 474 65 474 204 L474 620 L391 620 L391 191 C391 97 354 57 278 57 C204 57 159 104 159 206 L159 620 L75 620 L75 200 C75 61 148 -15 270 -15 L270 -15 Z " />
<glyph glyph-name="Yacute" unicode="&#xdd;" horiz-adv-x="550" d="M173 726 L196 690 C264 723 372 788 431 841 L366 904 C318 847 231 766 173 726 L173 726 Z M318 0 L318 206 L517 620 L431 620 L278 286 L122 622 L33 618 L234 206 L234 0 L318 0 Z " />
<glyph glyph-name="Thorn" unicode="&#xde;" horiz-adv-x="550" d="M182 0 L182 104 C374 117 504 185 504 330 C504 465 392 538 182 522 L182 620 L99 620 L99 0 L182 0 Z M422 314 C422 206 336 168 182 177 L182 450 C340 469 422 416 422 314 L422 314 Z " />
<glyph glyph-name="germandbls" unicode="&#xdf;" horiz-adv-x="550" d="M339 355 C339 410 443 457 443 569 C443 636 397 707 292 707 C157 707 83 603 83 461 L83 0 L163 0 L163 479 C163 583 200 637 274 637 C334 637 362 596 362 552 C362 473 260 422 260 345 C260 235 436 206 436 132 C436 87 387 53 264 67 L261 -6 C453 -17 516 61 516 137 C516 251 339 286 339 355 L339 355 Z " />
<glyph glyph-name="agrave" unicode="&#xe0;" horiz-adv-x="550" d="M374 592 C319 634 227 718 177 772 L117 705 C179 656 282 591 350 556 L374 592 Z M248 52 C187 52 147 82 147 134 C147 201 206 240 385 221 C385 173 386 137 387 105 C349 75 297 52 248 52 L248 52 Z M398 -3 L472 2 C468 72 464 141 464 243 C464 432 388 491 105 499 L96 429 C315 421 377 392 384 279 C167 292 67 216 67 115 C67 36 128 -12 217 -12 C294 -12 351 23 391 60 C393 38 397 7 398 -3 L398 -3 Z " />
<glyph glyph-name="aacute" unicode="&#xe1;" horiz-adv-x="550" d="M168 598 L191 562 C259 595 367 660 426 713 L361 776 C313 719 226 638 168 598 L168 598 Z M248 52 C187 52 147 82 147 134 C147 201 206 240 385 221 C385 173 386 137 387 105 C349 75 297 52 248 52 L248 52 Z M398 -3 L472 2 C468 72 464 141 464 243 C464 432 388 491 105 499 L96 429 C315 421 377 392 384 279 C167 292 67 216 67 115 C67 36 128 -12 217 -12 C294 -12 351 23 391 60 C393 38 397 7 398 -3 L398 -3 Z " />
<glyph glyph-name="acircumflex" unicode="&#xe2;" horiz-adv-x="550" d="M401 564 L452 613 L276 757 L272 757 L96 604 L136 565 L268 678 L401 564 Z M248 52 C187 52 147 82 147 134 C147 201 206 240 385 221 C385 173 386 137 387 105 C349 75 297 52 248 52 L248 52 Z M398 -3 L472 2 C468 72 464 141 464 243 C464 432 388 491 105 499 L96 429 C315 421 377 392 384 279 C167 292 67 216 67 115 C67 36 128 -12 217 -12 C294 -12 351 23 391 60 C393 38 397 7 398 -3 L398 -3 Z " />
<glyph glyph-name="atilde" unicode="&#xe3;" horiz-adv-x="550" d="M350 571 C400 571 446 625 482 710 L436 730 C409 671 384 637 359 637 C317 637 276 738 212 738 C161 738 115 684 80 599 L125 579 C152 637 177 671 203 671 C245 671 286 571 350 571 L350 571 Z M248 52 C187 52 147 82 147 134 C147 201 206 240 385 221 C385 173 386 137 387 105 C349 75 297 52 248 52 L248 52 Z M398 -3 L472 2 C468 72 464 141 464 243 C464 432 388 491 105 499 L96 429 C315 421 377 392 384 279 C167 292 67 216 67 115 C67 36 128 -12 217 -12 C294 -12 351 23 391 60 C393 38 397 7 398 -3 L398 -3 Z " />
<glyph glyph-name="adieresis" unicode="&#xe4;" horiz-adv-x="550" d="M425 573 L427 709 L344 709 L343 573 L425 573 Z M205 573 L207 709 L124 709 L123 573 L205 573 Z M248 52 C187 52 147 82 147 134 C147 201 206 240 385 221 C385 173 386 137 387 105 C349 75 297 52 248 52 L248 52 Z M398 -3 L472 2 C468 72 464 141 464 243 C464 432 388 491 105 499 L96 429 C315 421 377 392 384 279 C167 292 67 216 67 115 C67 36 128 -12 217 -12 C294 -12 351 23 391 60 C393 38 397 7 398 -3 L398 -3 Z " />
<glyph glyph-name="aring" unicode="&#xe5;" horiz-adv-x="550" d="M272 764 C192 764 141 717 141 656 C141 598 195 552 272 552 C352 552 404 598 404 660 C404 716 350 764 272 764 L272 764 Z M248 52 C187 52 147 82 147 134 C147 201 206 240 385 221 C385 173 386 137 387 105 C349 75 297 52 248 52 L248 52 Z M398 -3 L472 2 C468 72 464 141 464 243 C464 432 388 491 105 499 L96 429 C315 421 377 392 384 279 C167 292 67 216 67 115 C67 36 128 -12 217 -12 C294 -12 351 23 391 60 C393 38 397 7 398 -3 L398 -3 Z " />
<glyph glyph-name="ae" unicode="&#xe6;" horiz-adv-x="550" d="M375 429 C422 429 440 377 439 277 L304 275 C307 382 330 429 375 429 L375 429 Z M169 58 C134 58 110 83 110 135 C110 195 150 223 234 223 C234 180 238 142 249 110 C229 79 202 58 169 58 L169 58 Z M497 -6 L504 62 C338 66 305 110 304 224 L513 229 C524 396 480 496 387 496 C333 496 292 465 267 410 C239 468 179 487 61 494 L55 425 C199 416 231 391 234 275 C99 272 34 215 34 116 C34 38 78 -7 140 -7 C199 -7 243 29 269 69 C304 21 372 -5 497 -6 L497 -6 Z " />
<glyph glyph-name="ccedilla" unicode="&#xe7;" horiz-adv-x="550" d="M402 -117 C402 -82 372 -42 301 0 C345 -7 398 -8 460 -4 L469 64 C229 53 160 119 160 248 C160 352 209 421 462 420 L456 497 C171 491 80 372 80 237 C80 131 121 45 250 10 L236 -19 C302 -58 330 -87 330 -109 C330 -130 296 -145 213 -157 L219 -221 C341 -206 402 -167 402 -117 L402 -117 Z " />
<glyph glyph-name="egrave" unicode="&#xe8;" horiz-adv-x="550" d="M386 595 C331 637 239 721 189 775 L129 708 C191 659 294 594 362 559 L386 595 Z M456 -11 L464 58 C227 64 154 108 146 224 L481 232 C499 394 431 502 297 502 C170 502 66 387 66 238 C66 79 149 -10 456 -11 L456 -11 Z M283 435 C365 435 404 376 405 282 C336 280 202 276 146 274 C152 379 202 435 283 435 L283 435 Z " />
<glyph glyph-name="eacute" unicode="&#xe9;" horiz-adv-x="550" d="M180 601 L203 565 C271 598 379 663 438 716 L373 779 C325 722 238 641 180 601 L180 601 Z M456 -11 L464 58 C227 64 154 108 146 224 L481 232 C499 394 431 502 297 502 C170 502 66 387 66 238 C66 79 149 -10 456 -11 L456 -11 Z M283 435 C365 435 404 376 405 282 C336 280 202 276 146 274 C152 379 202 435 283 435 L283 435 Z " />
<glyph glyph-name="ecircumflex" unicode="&#xea;" horiz-adv-x="550" d="M412 567 L463 616 L287 760 L283 760 L107 607 L147 568 L279 681 L412 567 Z M456 -11 L464 58 C227 64 154 108 146 224 L481 232 C499 394 431 502 297 502 C170 502 66 387 66 238 C66 79 149 -10 456 -11 L456 -11 Z M283 435 C365 435 404 376 405 282 C336 280 202 276 146 274 C152 379 202 435 283 435 L283 435 Z " />
<glyph glyph-name="edieresis" unicode="&#xeb;" horiz-adv-x="550" d="M437 576 L439 712 L356 712 L355 576 L437 576 Z M217 576 L219 712 L136 712 L135 576 L217 576 Z M456 -11 L464 58 C227 64 154 108 146 224 L481 232 C499 394 431 502 297 502 C170 502 66 387 66 238 C66 79 149 -10 456 -11 L456 -11 Z M283 435 C365 435 404 376 405 282 C336 280 202 276 146 274 C152 379 202 435 283 435 L283 435 Z " />
<glyph glyph-name="igrave" unicode="&#xec;" horiz-adv-x="550" d="M397 588 C342 630 250 714 200 768 L140 701 C202 652 305 587 373 552 L397 588 Z M514 0 L520 62 L336 62 L336 490 L78 490 L72 433 L255 425 L255 62 L71 62 L71 0 L514 0 Z " />
<glyph glyph-name="iacute" unicode="&#xed;" horiz-adv-x="550" d="M191 594 L214 558 C282 591 390 656 449 709 L384 772 C336 715 249 634 191 594 L191 594 Z M514 0 L520 62 L336 62 L336 490 L78 490 L72 433 L255 425 L255 62 L71 62 L71 0 L514 0 Z " />
<glyph glyph-name="icircumflex" unicode="&#xee;" horiz-adv-x="550" d="M423 560 L474 609 L298 753 L294 753 L118 600 L158 561 L290 674 L423 560 Z M514 0 L520 62 L336 62 L336 490 L78 490 L72 433 L255 425 L255 62 L71 62 L71 0 L514 0 Z " />
<glyph glyph-name="idieresis" unicode="&#xef;" horiz-adv-x="550" d="M448 569 L450 705 L367 705 L366 569 L448 569 Z M228 569 L230 705 L147 705 L146 569 L228 569 Z M514 0 L520 62 L336 62 L336 490 L78 490 L72 433 L255 425 L255 62 L71 62 L71 0 L514 0 Z " />
<glyph glyph-name="eth" unicode="&#xf0;" horiz-adv-x="550" d="M264 -13 C385 -13 491 78 491 251 C491 377 443 488 341 588 L434 635 L415 683 L300 625 C266 653 228 681 185 708 L135 657 C171 635 203 613 231 590 L121 534 L141 487 L272 553 C304 523 330 491 351 459 C203 476 56 391 56 217 C56 74 149 -13 264 -13 L264 -13 Z M275 54 C194 54 136 121 136 227 C136 356 224 433 391 376 C406 334 413 290 413 244 C413 120 358 54 275 54 L275 54 Z " />
<glyph glyph-name="ntilde" unicode="&#xf1;" horiz-adv-x="550" d="M352 579 C402 579 448 633 484 718 L438 738 C411 679 386 645 361 645 C319 645 278 746 214 746 C163 746 117 692 82 607 L127 587 C154 645 179 679 205 679 C247 679 288 579 352 579 L352 579 Z M291 432 C353 432 390 399 390 305 L390 0 L471 0 L471 332 C471 452 413 501 325 501 C255 501 202 470 161 436 L156 492 L81 487 C86 374 88 214 88 0 L169 0 C169 171 167 300 165 389 C203 415 244 432 291 432 L291 432 Z " />
<glyph glyph-name="ograve" unicode="&#xf2;" horiz-adv-x="550" d="M376 593 C321 635 229 719 179 773 L119 706 C181 657 284 592 352 557 L376 593 Z M264 -14 C390 -14 495 92 495 254 C495 411 409 503 287 503 C161 503 55 395 55 236 C55 78 143 -14 264 -14 L264 -14 Z M277 53 C194 53 137 123 137 251 C137 371 193 437 273 437 C357 437 414 366 414 239 C414 118 358 53 277 53 L277 53 Z " />
<glyph glyph-name="oacute" unicode="&#xf3;" horiz-adv-x="550" d="M170 599 L193 563 C261 596 369 661 428 714 L363 777 C315 720 228 639 170 599 L170 599 Z M264 -14 C390 -14 495 92 495 254 C495 411 409 503 287 503 C161 503 55 395 55 236 C55 78 143 -14 264 -14 L264 -14 Z M277 53 C194 53 137 123 137 251 C137 371 193 437 273 437 C357 437 414 366 414 239 C414 118 358 53 277 53 L277 53 Z " />
<glyph glyph-name="ocircumflex" unicode="&#xf4;" horiz-adv-x="550" d="M402 565 L453 614 L277 758 L273 758 L97 605 L137 566 L269 679 L402 565 Z M264 -14 C390 -14 495 92 495 254 C495 411 409 503 287 503 C161 503 55 395 55 236 C55 78 143 -14 264 -14 L264 -14 Z M277 53 C194 53 137 123 137 251 C137 371 193 437 273 437 C357 437 414 366 414 239 C414 118 358 53 277 53 L277 53 Z " />
<glyph glyph-name="otilde" unicode="&#xf5;" horiz-adv-x="550" d="M352 572 C402 572 448 626 484 711 L438 731 C411 672 386 638 361 638 C319 638 278 739 214 739 C163 739 117 685 82 600 L127 580 C154 638 179 672 205 672 C247 672 288 572 352 572 L352 572 Z M264 -14 C390 -14 495 92 495 254 C495 411 409 503 287 503 C161 503 55 395 55 236 C55 78 143 -14 264 -14 L264 -14 Z M277 53 C194 53 137 123 137 251 C137 371 193 437 273 437 C357 437 414 366 414 239 C414 118 358 53 277 53 L277 53 Z " />
<glyph glyph-name="odieresis" unicode="&#xf6;" horiz-adv-x="550" d="M427 574 L429 710 L346 710 L345 574 L427 574 Z M207 574 L209 710 L126 710 L125 574 L207 574 Z M264 -14 C390 -14 495 92 495 254 C495 411 409 503 287 503 C161 503 55 395 55 236 C55 78 143 -14 264 -14 L264 -14 Z M277 53 C194 53 137 123 137 251 C137 371 193 437 273 437 C357 437 414 366 414 239 C414 118 358 53 277 53 L277 53 Z " />
<glyph glyph-name="divide" unicode="&#xf7;" horiz-adv-x="550" d="M319 426 L321 519 L230 519 L229 426 L319 426 Z M489 327 L61 327 L61 259 L488 259 L489 327 Z M319 66 L321 160 L230 160 L229 66 L319 66 Z " />
<glyph glyph-name="oslash" unicode="&#xf8;" horiz-adv-x="550" d="M136 251 C136 372 193 437 273 437 C306 437 335 426 358 405 L163 123 C146 155 136 198 136 251 L136 251 Z M277 52 C245 52 216 62 194 82 L389 364 C406 332 415 290 415 239 C415 117 359 52 277 52 L277 52 Z M264 -14 C390 -14 495 92 495 254 C495 328 476 388 443 430 L485 491 L437 523 L400 470 C368 492 330 503 287 503 C161 503 55 395 55 236 C55 160 75 100 110 57 L68 -2 L116 -34 L152 18 C184 -3 222 -14 264 -14 L264 -14 Z " />
<glyph glyph-name="ugrave" unicode="&#xf9;" horiz-adv-x="550" d="M378 591 C323 633 231 717 181 771 L121 704 C183 655 286 590 354 555 L378 591 Z M394 -2 L469 3 C464 116 462 276 462 490 L381 490 C381 318 383 190 385 102 C348 75 307 57 260 57 C199 57 163 89 163 185 L163 493 L82 487 L82 158 C82 37 139 -12 226 -12 C296 -12 348 20 389 54 L394 -2 Z " />
<glyph glyph-name="uacute" unicode="&#xfa;" horiz-adv-x="550" d="M172 597 L195 561 C263 594 371 659 430 712 L365 775 C317 718 230 637 172 597 L172 597 Z M394 -2 L469 3 C464 116 462 276 462 490 L381 490 C381 318 383 190 385 102 C348 75 307 57 260 57 C199 57 163 89 163 185 L163 493 L82 487 L82 158 C82 37 139 -12 226 -12 C296 -12 348 20 389 54 L394 -2 Z " />
<glyph glyph-name="ucircumflex" unicode="&#xfb;" horiz-adv-x="550" d="M405 563 L456 612 L280 756 L276 756 L100 603 L140 564 L272 677 L405 563 Z M394 -2 L469 3 C464 116 462 276 462 490 L381 490 C381 318 383 190 385 102 C348 75 307 57 260 57 C199 57 163 89 163 185 L163 493 L82 487 L82 158 C82 37 139 -12 226 -12 C296 -12 348 20 389 54 L394 -2 Z " />
<glyph glyph-name="udieresis" unicode="&#xfc;" horiz-adv-x="550" d="M429 572 L431 708 L348 708 L347 572 L429 572 Z M209 572 L211 708 L128 708 L127 572 L209 572 Z M394 -2 L469 3 C464 116 462 276 462 490 L381 490 C381 318 383 190 385 102 C348 75 307 57 260 57 C199 57 163 89 163 185 L163 493 L82 487 L82 158 C82 37 139 -12 226 -12 C296 -12 348 20 389 54 L394 -2 Z " />
<glyph glyph-name="yacute" unicode="&#xfd;" horiz-adv-x="550" d="M177 597 L200 561 C268 594 376 659 435 712 L370 775 C322 718 235 637 177 597 L177 597 Z M70 -178 C236 -158 283 -112 349 61 C413 223 465 369 506 490 L428 490 C402 421 332 200 295 100 L285 100 C230 225 174 367 125 492 L42 487 C91 367 185 140 242 15 L251 13 C217 -67 188 -84 63 -103 L70 -178 Z " />
<glyph glyph-name="thorn" unicode="&#xfe;" horiz-adv-x="550" d="M254 58 C226 58 201 62 171 73 L171 396 C203 419 241 434 280 434 C357 434 414 369 414 247 C414 124 343 58 254 58 L254 58 Z M171 -164 L171 -7 C190 -10 210 -12 229 -12 C370 -12 494 92 494 267 C494 410 415 501 311 501 C254 501 207 477 171 446 L171 706 L91 699 L91 -172 L171 -164 Z " />
<glyph glyph-name="ydieresis" unicode="&#xff;" horiz-adv-x="550" d="M434 572 L436 708 L353 708 L352 572 L434 572 Z M214 572 L216 708 L133 708 L132 572 L214 572 Z M70 -178 C236 -158 283 -112 349 61 C413 223 465 369 506 490 L428 490 C402 421 332 200 295 100 L285 100 C230 225 174 367 125 492 L42 487 C91 367 185 140 242 15 L251 13 C217 -67 188 -84 63 -103 L70 -178 Z " />
<glyph glyph-name="Amacron" unicode="&#x100;" horiz-adv-x="550" d="M441 804 L107 804 L107 734 L441 734 L441 804 Z M430 -3 L514 3 C457 210 398 414 333 622 L217 622 C152 413 93 207 36 0 L119 0 C136 63 152 127 169 190 L378 190 C396 126 413 61 430 -3 L430 -3 Z M270 551 L278 551 C307 452 334 352 361 253 L186 253 C214 352 241 451 270 551 L270 551 Z " />
<glyph glyph-name="amacron" unicode="&#x101;" horiz-adv-x="550" d="M440 678 L106 678 L106 608 L440 608 L440 678 Z M248 52 C187 52 147 82 147 134 C147 201 206 240 385 221 C385 173 386 137 387 105 C349 75 297 52 248 52 L248 52 Z M398 -3 L472 2 C468 72 464 141 464 243 C464 432 388 491 105 499 L96 429 C315 421 377 392 384 279 C167 292 67 216 67 115 C67 36 128 -12 217 -12 C294 -12 351 23 391 60 C393 38 397 7 398 -3 L398 -3 Z " />
<glyph glyph-name="Abreve" unicode="&#x102;" horiz-adv-x="550" d="M273 695 C344 695 410 751 466 843 L418 868 C371 798 332 761 280 761 C231 761 194 792 145 872 L88 839 C142 742 203 695 273 695 L273 695 Z M430 -3 L514 3 C457 210 398 414 333 622 L217 622 C152 413 93 207 36 0 L119 0 C136 63 152 127 169 190 L378 190 C396 126 413 61 430 -3 L430 -3 Z M270 551 L278 551 C307 452 334 352 361 253 L186 253 C214 352 241 451 270 551 L270 551 Z " />
<glyph glyph-name="abreve" unicode="&#x103;" horiz-adv-x="550" d="M273 569 C344 569 410 625 466 717 L418 742 C371 672 332 635 280 635 C231 635 194 666 145 746 L88 713 C142 616 203 569 273 569 L273 569 Z M248 52 C187 52 147 82 147 134 C147 201 206 240 385 221 C385 173 386 137 387 105 C349 75 297 52 248 52 L248 52 Z M398 -3 L472 2 C468 72 464 141 464 243 C464 432 388 491 105 499 L96 429 C315 421 377 392 384 279 C167 292 67 216 67 115 C67 36 128 -12 217 -12 C294 -12 351 23 391 60 C393 38 397 7 398 -3 L398 -3 Z " />
<glyph glyph-name="Aogonek" unicode="&#x104;" horiz-adv-x="550" d="M492 -212 L500 -147 C415 -139 383 -123 383 -99 C383 -75 412 -45 514 3 C457 210 398 414 333 622 L217 622 C152 413 93 207 36 0 L119 0 C136 63 152 127 169 190 L378 190 C395 128 412 66 428 5 C341 -43 307 -81 307 -119 C307 -168 357 -202 492 -212 L492 -212 Z M270 551 L278 551 C307 452 334 352 361 253 L186 253 C214 352 241 451 270 551 L270 551 Z " />
<glyph glyph-name="aogonek" unicode="&#x105;" horiz-adv-x="550" d="M450 -214 L457 -149 C372 -140 340 -124 340 -100 C340 -77 369 -46 472 2 C468 72 464 141 464 243 C464 432 388 491 105 499 L96 429 C315 421 377 392 384 279 C167 292 67 216 67 115 C67 36 126 -12 210 -12 C286 -12 348 34 389 84 C391 63 395 29 397 9 C301 -41 264 -81 264 -121 C264 -169 314 -204 450 -214 L450 -214 Z M242 52 C185 52 147 81 147 134 C147 201 206 240 385 221 C385 181 385 156 386 128 C348 85 293 52 242 52 L242 52 Z " />
<glyph glyph-name="Cacute" unicode="&#x106;" horiz-adv-x="550" d="M207 724 L230 688 C298 721 406 786 465 839 L400 902 C352 845 265 764 207 724 L207 724 Z M479 68 C220 57 152 144 152 311 C152 453 202 545 473 548 L468 628 C164 618 66 470 66 300 C66 114 155 -25 472 -3 L479 68 Z " />
<glyph glyph-name="cacute" unicode="&#x107;" horiz-adv-x="550" d="M196 594 L219 558 C287 591 395 656 454 709 L389 772 C341 715 254 634 196 594 L196 594 Z M80 237 C80 87 163 -24 460 -4 L469 64 C229 53 160 119 160 248 C160 352 209 421 462 420 L456 497 C171 491 80 372 80 237 L80 237 Z " />
<glyph glyph-name="Cdotaccent" unicode="&#x10a;" horiz-adv-x="550" d="M354 699 L359 835 L274 835 L271 699 L354 699 Z M479 68 C220 57 152 144 152 311 C152 453 202 545 473 548 L468 628 C164 618 66 470 66 300 C66 114 155 -25 472 -3 L479 68 Z " />
<glyph glyph-name="cdotaccent" unicode="&#x10b;" horiz-adv-x="550" d="M343 569 L348 705 L263 705 L260 569 L343 569 Z M80 237 C80 87 163 -24 460 -4 L469 64 C229 53 160 119 160 248 C160 352 209 421 462 420 L456 497 C171 491 80 372 80 237 L80 237 Z " />
<glyph glyph-name="Ccaron" unicode="&#x10c;" horiz-adv-x="550" d="M320 685 L496 836 L455 876 L324 764 L191 877 L140 828 L316 685 L320 685 Z M479 68 C220 57 152 144 152 311 C152 453 202 545 473 548 L468 628 C164 618 66 470 66 300 C66 114 155 -25 472 -3 L479 68 Z " />
<glyph glyph-name="ccaron" unicode="&#x10d;" horiz-adv-x="550" d="M309 555 L485 706 L444 746 L313 634 L180 747 L129 698 L305 555 L309 555 Z M80 237 C80 87 163 -24 460 -4 L469 64 C229 53 160 119 160 248 C160 352 209 421 462 420 L456 497 C171 491 80 372 80 237 L80 237 Z " />
<glyph glyph-name="Dcaron" unicode="&#x10e;" horiz-adv-x="550" d="M274 691 L450 842 L409 882 L278 770 L145 883 L94 834 L270 691 L274 691 Z M501 322 C501 562 387 663 85 621 L85 -1 C363 -43 501 79 501 322 L501 322 Z M417 309 C417 126 341 40 167 66 L167 555 C347 577 417 496 417 309 L417 309 Z " />
<glyph glyph-name="dcaron" unicode="&#x10f;" horiz-adv-x="550" d="M525 565 L562 552 C622 641 638 720 627 803 L536 802 C555 727 562 654 525 565 L525 565 Z M271 55 C192 55 136 116 136 241 C136 365 206 432 296 432 C322 432 349 427 377 418 C377 281 378 182 380 97 C350 73 312 55 271 55 L271 55 Z M389 -2 L465 2 C460 113 458 268 458 488 L458 706 L377 699 L377 498 C363 500 348 501 333 501 C184 501 56 399 56 220 C56 75 134 -12 240 -12 C300 -12 349 16 384 49 L389 -2 Z " />
<glyph glyph-name="Dcroat" unicode="&#x110;" horiz-adv-x="550" d="M501 322 C501 562 387 663 85 621 L85 344 L15 344 L15 285 L85 285 L85 -1 C363 -43 501 79 501 322 L501 322 Z M167 66 L167 285 L295 285 L298 344 L167 344 L167 555 C347 577 417 496 417 309 C417 126 341 40 167 66 L167 66 Z " />
<glyph glyph-name="dcroat" unicode="&#x111;" horiz-adv-x="550" d="M271 55 C192 55 136 116 136 241 C136 364 206 431 296 431 C322 431 348 426 376 417 C377 280 378 181 380 96 C349 72 312 55 271 55 L271 55 Z M389 -2 L465 2 C460 113 458 268 458 488 L458 578 L527 578 L527 631 L458 631 L458 703 L376 696 L376 631 L245 631 L245 578 L376 578 L376 496 C362 498 347 499 332 499 C183 499 56 398 56 220 C56 75 134 -12 240 -12 C300 -12 349 16 384 49 L389 -2 Z " />
<glyph glyph-name="Emacron" unicode="&#x112;" horiz-adv-x="550" d="M461 804 L127 804 L127 734 L461 734 L461 804 Z M486 71 L188 71 L188 282 L441 282 L441 345 L188 345 L188 549 L481 549 L481 620 L105 620 L105 0 L478 0 L486 71 Z " />
<glyph glyph-name="emacron" unicode="&#x113;" horiz-adv-x="550" d="M452 681 L118 681 L118 611 L452 611 L452 681 Z M456 -11 L464 58 C227 64 154 108 146 224 L481 232 C499 394 431 502 297 502 C170 502 66 387 66 238 C66 79 149 -10 456 -11 L456 -11 Z M283 435 C365 435 404 376 405 282 C336 280 202 276 146 274 C152 379 202 435 283 435 L283 435 Z " />
<glyph glyph-name="Ebreve" unicode="&#x114;" horiz-adv-x="550" d="M293 695 C364 695 430 751 486 843 L438 868 C391 798 352 761 300 761 C251 761 214 792 165 872 L108 839 C162 742 223 695 293 695 L293 695 Z M486 71 L188 71 L188 282 L441 282 L441 345 L188 345 L188 549 L481 549 L481 620 L105 620 L105 0 L478 0 L486 71 Z " />
<glyph glyph-name="ebreve" unicode="&#x115;" horiz-adv-x="550" d="M284 572 C355 572 421 628 477 720 L429 745 C382 675 343 638 291 638 C242 638 205 669 156 749 L99 716 C153 619 214 572 284 572 L284 572 Z M456 -11 L464 58 C227 64 154 108 146 224 L481 232 C499 394 431 502 297 502 C170 502 66 387 66 238 C66 79 149 -10 456 -11 L456 -11 Z M283 435 C365 435 404 376 405 282 C336 280 202 276 146 274 C152 379 202 435 283 435 L283 435 Z " />
<glyph glyph-name="Edotaccent" unicode="&#x116;" horiz-adv-x="550" d="M336 699 L341 835 L256 835 L253 699 L336 699 Z M486 71 L188 71 L188 282 L441 282 L441 345 L188 345 L188 549 L481 549 L481 620 L105 620 L105 0 L478 0 L486 71 Z " />
<glyph glyph-name="edotaccent" unicode="&#x117;" horiz-adv-x="550" d="M327 576 L332 712 L247 712 L244 576 L327 576 Z M456 -11 L464 58 C227 64 154 108 146 224 L481 232 C499 394 431 502 297 502 C170 502 66 387 66 238 C66 79 149 -10 456 -11 L456 -11 Z M283 435 C365 435 404 376 405 282 C336 280 202 276 146 274 C152 379 202 435 283 435 L283 435 Z " />
<glyph glyph-name="Eogonek" unicode="&#x118;" horiz-adv-x="550" d="M464 -150 C379 -142 347 -126 347 -102 C347 -78 376 -48 478 0 L486 71 L188 71 L188 282 L441 282 L441 345 L188 345 L188 549 L481 549 L481 620 L105 620 L105 0 L389 0 C304 -47 272 -85 272 -122 C272 -171 321 -205 457 -216 L464 -150 Z " />
<glyph glyph-name="eogonek" unicode="&#x119;" horiz-adv-x="550" d="M432 -214 L440 -149 C355 -141 323 -124 323 -100 C323 -78 352 -49 456 -9 L464 58 C227 64 154 108 146 224 L481 232 C499 394 431 502 297 502 C170 502 66 387 66 238 C66 89 144 3 374 -2 C282 -45 247 -84 247 -123 C247 -168 297 -204 432 -214 L432 -214 Z M283 435 C365 435 404 376 405 282 C336 280 202 276 146 274 C152 379 202 435 283 435 L283 435 Z " />
<glyph glyph-name="Ecaron" unicode="&#x11a;" horiz-adv-x="550" d="M302 685 L478 836 L437 876 L306 764 L173 877 L122 828 L298 685 L302 685 Z M486 71 L188 71 L188 282 L441 282 L441 345 L188 345 L188 549 L481 549 L481 620 L105 620 L105 0 L478 0 L486 71 Z " />
<glyph glyph-name="ecaron" unicode="&#x11b;" horiz-adv-x="550" d="M293 562 L469 713 L428 753 L297 641 L164 754 L113 705 L289 562 L293 562 Z M456 -11 L464 58 C227 64 154 108 146 224 L481 232 C499 394 431 502 297 502 C170 502 66 387 66 238 C66 79 149 -10 456 -11 L456 -11 Z M283 435 C365 435 404 376 405 282 C336 280 202 276 146 274 C152 379 202 435 283 435 L283 435 Z " />
<glyph glyph-name="Gbreve" unicode="&#x11e;" horiz-adv-x="550" d="M291 695 C362 695 428 751 484 843 L436 868 C389 798 350 761 298 761 C249 761 212 792 163 872 L106 839 C160 742 221 695 291 695 L291 695 Z M477 7 C475 87 476 183 476 311 L398 311 C398 219 400 126 401 59 C203 46 139 144 139 309 C139 447 188 549 455 548 L450 628 C146 617 54 471 54 294 C54 77 182 -56 477 7 L477 7 Z " />
<glyph glyph-name="gbreve" unicode="&#x11f;" horiz-adv-x="550" d="M286 571 C357 571 423 627 479 719 L431 744 C384 674 345 637 293 637 C244 637 207 668 158 748 L101 715 C155 618 216 571 286 571 L286 571 Z M126 -173 C396 -159 463 -55 463 114 C463 171 463 439 462 478 C413 493 367 501 319 501 C179 501 58 403 58 245 C58 116 137 38 243 38 C301 38 348 59 383 86 C381 -53 350 -81 118 -99 L126 -173 Z M273 103 C196 103 138 156 138 264 C138 373 204 432 290 432 C321 432 351 426 383 417 C382 341 383 204 383 137 C351 117 312 103 273 103 L273 103 Z " />
<glyph glyph-name="Gdotaccent" unicode="&#x120;" horiz-adv-x="550" d="M333 699 L338 835 L253 835 L250 699 L333 699 Z M477 7 C475 87 476 183 476 311 L398 311 C398 219 400 126 401 59 C203 46 139 144 139 309 C139 447 188 549 455 548 L450 628 C146 617 54 471 54 294 C54 77 182 -56 477 7 L477 7 Z " />
<glyph glyph-name="gdotaccent" unicode="&#x121;" horiz-adv-x="550" d="M329 575 L334 711 L249 711 L246 575 L329 575 Z M126 -173 C396 -159 463 -55 463 114 C463 171 463 439 462 478 C413 493 367 501 319 501 C179 501 58 403 58 245 C58 116 137 38 243 38 C301 38 348 59 383 86 C381 -53 350 -81 118 -99 L126 -173 Z M273 103 C196 103 138 156 138 264 C138 373 204 432 290 432 C321 432 351 426 383 417 C382 341 383 204 383 137 C351 117 312 103 273 103 L273 103 Z " />
<glyph glyph-name="Gcommaaccent" unicode="&#x122;" horiz-adv-x="550" d="M477 7 C475 87 476 183 476 311 L398 311 C398 219 400 126 401 59 C203 46 139 144 139 309 C139 447 188 549 455 548 L450 628 C146 617 54 471 54 294 C54 77 182 -56 477 7 L477 7 Z M233 -273 L274 -286 C329 -222 348 -143 339 -76 C334 -76 244 -81 239 -81 C261 -139 266 -203 233 -273 L233 -273 Z " />
<glyph glyph-name="gcommaaccent" unicode="&#x123;" horiz-adv-x="550" d="M342 768 L301 781 C246 717 227 638 236 571 L336 576 C314 634 309 698 342 768 L342 768 Z M126 -173 C396 -159 463 -55 463 114 C463 171 463 439 462 478 C413 493 367 501 319 501 C179 501 58 403 58 245 C58 116 137 38 243 38 C301 38 348 59 383 86 C381 -53 350 -81 118 -99 L126 -173 Z M273 103 C196 103 138 156 138 264 C138 373 204 432 290 432 C321 432 351 426 383 417 C382 341 383 204 383 137 C351 117 312 103 273 103 L273 103 Z " />
<glyph glyph-name="Hbar" unicode="&#x126;" horiz-adv-x="550" d="M386 332 L164 332 L164 446 L386 446 L386 332 Z M386 0 L471 0 L471 444 L541 444 L541 502 L471 502 L471 620 L386 620 L386 500 L164 500 L164 620 L79 620 L79 502 L9 502 L9 444 L79 444 L79 0 L164 0 L164 268 L386 268 L386 0 Z " />
<glyph glyph-name="hbar" unicode="&#x127;" horiz-adv-x="550" d="M291 432 C353 432 390 399 390 305 L390 0 L471 0 L471 332 C471 450 413 499 325 499 C260 499 209 472 169 440 L169 578 L300 578 L300 631 L169 631 L169 706 L88 699 L88 631 L18 631 L18 578 L88 578 L88 0 L169 0 L169 392 C206 416 245 432 291 432 L291 432 Z " />
<glyph glyph-name="Imacron" unicode="&#x12a;" horiz-adv-x="550" d="M444 804 L110 804 L110 734 L444 734 L444 804 Z M316 554 L470 554 L470 620 L80 620 L80 554 L233 554 L233 66 L80 66 L80 0 L468 0 L474 66 L316 66 L316 554 Z " />
<glyph glyph-name="imacron" unicode="&#x12b;" horiz-adv-x="550" d="M463 674 L129 674 L129 604 L463 604 L463 674 Z M514 0 L520 62 L336 62 L336 490 L78 490 L72 433 L255 425 L255 62 L71 62 L71 0 L514 0 Z " />
<glyph glyph-name="Ibreve" unicode="&#x12c;" horiz-adv-x="550" d="M276 695 C347 695 413 751 469 843 L421 868 C374 798 335 761 283 761 C234 761 197 792 148 872 L91 839 C145 742 206 695 276 695 L276 695 Z M316 554 L470 554 L470 620 L80 620 L80 554 L233 554 L233 66 L80 66 L80 0 L468 0 L474 66 L316 66 L316 554 Z " />
<glyph glyph-name="ibreve" unicode="&#x12d;" horiz-adv-x="550" d="M295 565 C366 565 432 621 488 713 L440 738 C393 668 354 631 302 631 C253 631 216 662 167 742 L110 709 C164 612 225 565 295 565 L295 565 Z M514 0 L520 62 L336 62 L336 490 L78 490 L72 433 L255 425 L255 62 L71 62 L71 0 L514 0 Z " />
<glyph glyph-name="Iogonek" unicode="&#x12e;" horiz-adv-x="550" d="M353 -149 C268 -140 236 -124 236 -98 C236 -74 254 -47 312 0 L468 0 L474 66 L316 66 L316 554 L470 554 L470 620 L80 620 L80 554 L233 554 L233 66 L80 66 L80 0 L242 0 C184 -45 160 -81 160 -116 C160 -168 210 -203 345 -214 L353 -149 Z " />
<glyph glyph-name="iogonek" unicode="&#x12f;" horiz-adv-x="550" d="M332 569 L341 705 L255 705 L249 569 L332 569 Z M364 -150 C279 -142 247 -125 247 -99 C247 -76 267 -48 332 0 L514 0 L520 62 L336 62 L336 490 L78 490 L72 433 L255 425 L255 62 L71 62 L71 0 L260 0 C197 -46 171 -83 171 -120 C171 -170 221 -205 356 -216 L364 -150 Z " />
<glyph glyph-name="Idotaccent" unicode="&#x130;" horiz-adv-x="550" d="M319 699 L324 835 L239 835 L236 699 L319 699 Z M316 554 L470 554 L470 620 L80 620 L80 554 L233 554 L233 66 L80 66 L80 0 L468 0 L474 66 L316 66 L316 554 Z " />
<glyph glyph-name="dotlessi" unicode="&#x131;" horiz-adv-x="550" d="M514 0 L520 62 L336 62 L336 490 L78 490 L72 433 L255 425 L255 62 L71 62 L71 0 L514 0 Z " />
<glyph glyph-name="Kcommaaccent" unicode="&#x136;" horiz-adv-x="550" d="M428 -6 L519 5 L307 317 L504 620 L415 620 L242 347 L174 347 L174 620 L91 620 L91 0 L174 0 L174 279 L238 279 L428 -6 Z M216 -270 L257 -283 C312 -219 331 -140 322 -73 C317 -73 227 -78 222 -78 C244 -136 249 -200 216 -270 L216 -270 Z " />
<glyph glyph-name="kcommaaccent" unicode="&#x137;" horiz-adv-x="550" d="M428 -6 L514 6 L326 255 C388 328 447 407 503 486 L420 492 C369 417 316 348 258 280 L182 278 L182 706 L101 699 L101 0 L182 0 L182 218 L255 220 L428 -6 Z M234 -270 L275 -283 C330 -219 349 -140 340 -73 C335 -73 245 -78 240 -78 C262 -136 267 -200 234 -270 L234 -270 Z " />
<glyph glyph-name="Lacute" unicode="&#x139;" horiz-adv-x="550" d="M197 724 L220 688 C288 721 396 786 455 839 L390 902 C342 845 255 764 197 724 L197 724 Z M490 0 L498 71 L197 71 L197 620 L113 620 L113 0 L490 0 Z " />
<glyph glyph-name="lacute" unicode="&#x13a;" horiz-adv-x="550" d="M173 802 L196 766 C264 799 372 864 431 917 L366 980 C318 923 231 842 173 802 L173 802 Z M472 0 L479 62 L319 62 L319 698 L93 698 L86 640 L237 633 L237 62 L78 62 L78 0 L472 0 Z " />
<glyph glyph-name="Lcommaaccent" unicode="&#x13b;" horiz-adv-x="550" d="M490 0 L498 71 L197 71 L197 620 L113 620 L113 0 L490 0 Z M244 -264 L285 -277 C340 -213 359 -134 350 -67 C345 -67 255 -72 250 -72 C272 -130 277 -194 244 -264 L244 -264 Z " />
<glyph glyph-name="lcommaaccent" unicode="&#x13c;" horiz-adv-x="550" d="M472 0 L479 62 L319 62 L319 698 L93 698 L86 640 L237 633 L237 62 L78 62 L78 0 L472 0 Z M220 -264 L261 -277 C316 -213 335 -134 326 -67 C321 -67 231 -72 226 -72 C248 -130 253 -194 220 -264 L220 -264 Z " />
<glyph glyph-name="Lcaron" unicode="&#x13d;" horiz-adv-x="550" d="M368 463 L405 450 C465 539 481 618 470 701 L379 700 C398 625 405 552 368 463 L368 463 Z M490 0 L498 71 L197 71 L197 620 L113 620 L113 0 L490 0 Z " />
<glyph glyph-name="lcaron" unicode="&#x13e;" horiz-adv-x="550" d="M434 565 L471 552 C531 641 547 720 536 803 L445 802 C464 727 471 654 434 565 L434 565 Z M472 0 L479 62 L319 62 L319 698 L93 698 L86 640 L237 633 L237 62 L78 62 L78 0 L472 0 Z " />
<glyph glyph-name="Ldot" unicode="&#x13f;" horiz-adv-x="550" d="M490 0 L498 71 L197 71 L197 620 L113 620 L113 0 L490 0 Z M473 266 L479 374 L387 374 L381 266 L473 266 Z " />
<glyph glyph-name="ldot" unicode="&#x140;" horiz-adv-x="550" d="M472 0 L479 62 L319 62 L319 698 L93 698 L86 640 L237 633 L237 62 L78 62 L78 0 L472 0 Z M596 265 L601 374 L510 374 L504 265 L596 265 Z " />
<glyph glyph-name="Lslash" unicode="&#x141;" horiz-adv-x="550" d="M490 0 L498 71 L197 71 L197 337 L348 415 L334 472 L197 401 L197 620 L113 620 L113 358 L31 316 L45 259 L113 294 L113 0 L490 0 Z " />
<glyph glyph-name="lslash" unicode="&#x142;" horiz-adv-x="550" d="M472 0 L479 62 L319 62 L319 356 L441 419 L428 474 L319 418 L319 698 L93 698 L86 640 L237 633 L237 375 L109 309 L122 254 L237 313 L237 62 L78 62 L78 0 L472 0 Z " />
<glyph glyph-name="Nacute" unicode="&#x143;" horiz-adv-x="550" d="M169 724 L192 688 C260 721 368 786 427 839 L362 902 C314 845 227 764 169 724 L169 724 Z M392 0 L471 0 L471 620 L393 620 L396 148 L392 148 L167 620 L80 620 L80 0 L157 0 L154 481 L159 481 L392 0 Z " />
<glyph glyph-name="nacute" unicode="&#x144;" horiz-adv-x="550" d="M171 606 L194 570 C262 603 370 668 429 721 L364 784 C316 727 229 646 171 606 L171 606 Z M291 432 C353 432 390 399 390 305 L390 0 L471 0 L471 332 C471 452 413 501 325 501 C255 501 202 470 161 436 L156 492 L81 487 C86 374 88 214 88 0 L169 0 C169 171 167 300 165 389 C203 415 244 432 291 432 L291 432 Z " />
<glyph glyph-name="Ncommaaccent" unicode="&#x145;" horiz-adv-x="550" d="M392 0 L471 0 L471 620 L393 620 L396 148 L392 148 L167 620 L80 620 L80 0 L157 0 L154 481 L159 481 L392 0 Z M215 -264 L256 -277 C311 -213 330 -134 321 -67 C316 -67 226 -72 221 -72 C243 -130 248 -194 215 -264 L215 -264 Z " />
<glyph glyph-name="ncommaaccent" unicode="&#x146;" horiz-adv-x="550" d="M291 432 C353 432 390 399 390 305 L390 0 L471 0 L471 332 C471 452 413 501 325 501 C255 501 202 470 161 436 L156 492 L81 487 C86 374 88 214 88 0 L169 0 C169 171 167 300 165 389 C203 415 244 432 291 432 L291 432 Z M232 -264 L273 -277 C328 -213 347 -134 338 -67 C333 -67 243 -72 238 -72 C260 -130 265 -194 232 -264 L232 -264 Z " />
<glyph glyph-name="Ncaron" unicode="&#x147;" horiz-adv-x="550" d="M282 685 L458 836 L417 876 L286 764 L153 877 L102 828 L278 685 L282 685 Z M392 0 L471 0 L471 620 L393 620 L396 148 L392 148 L167 620 L80 620 L80 0 L157 0 L154 481 L159 481 L392 0 Z " />
<glyph glyph-name="ncaron" unicode="&#x148;" horiz-adv-x="550" d="M284 567 L460 718 L419 758 L288 646 L155 759 L104 710 L280 567 L284 567 Z M291 432 C353 432 390 399 390 305 L390 0 L471 0 L471 332 C471 452 413 501 325 501 C255 501 202 470 161 436 L156 492 L81 487 C86 374 88 214 88 0 L169 0 C169 171 167 300 165 389 C203 415 244 432 291 432 L291 432 Z " />
<glyph glyph-name="Omacron" unicode="&#x14c;" horiz-adv-x="550" d="M445 811 L111 811 L111 741 L445 741 L445 811 Z M264 -15 C411 -15 505 106 504 324 C504 524 425 635 286 635 C139 635 46 515 46 296 C46 97 126 -15 264 -15 L264 -15 Z M272 566 C367 566 419 476 419 306 C419 140 370 54 278 54 C182 54 131 144 131 314 C131 480 179 566 272 566 L272 566 Z " />
<glyph glyph-name="omacron" unicode="&#x14d;" horiz-adv-x="550" d="M442 679 L108 679 L108 609 L442 609 L442 679 Z M264 -14 C390 -14 495 92 495 254 C495 411 409 503 287 503 C161 503 55 395 55 236 C55 78 143 -14 264 -14 L264 -14 Z M277 53 C194 53 137 123 137 251 C137 371 193 437 273 437 C357 437 414 366 414 239 C414 118 358 53 277 53 L277 53 Z " />
<glyph glyph-name="Obreve" unicode="&#x14e;" horiz-adv-x="550" d="M277 702 C348 702 414 758 470 850 L422 875 C375 805 336 768 284 768 C235 768 198 799 149 879 L92 846 C146 749 207 702 277 702 L277 702 Z M264 -15 C411 -15 505 106 504 324 C504 524 425 635 286 635 C139 635 46 515 46 296 C46 97 126 -15 264 -15 L264 -15 Z M272 566 C367 566 419 476 419 306 C419 140 370 54 278 54 C182 54 131 144 131 314 C131 480 179 566 272 566 L272 566 Z " />
<glyph glyph-name="obreve" unicode="&#x14f;" horiz-adv-x="550" d="M274 570 C345 570 411 626 467 718 L419 743 C372 673 333 636 281 636 C232 636 195 667 146 747 L89 714 C143 617 204 570 274 570 L274 570 Z M264 -14 C390 -14 495 92 495 254 C495 411 409 503 287 503 C161 503 55 395 55 236 C55 78 143 -14 264 -14 L264 -14 Z M277 53 C194 53 137 123 137 251 C137 371 193 437 273 437 C357 437 414 366 414 239 C414 118 358 53 277 53 L277 53 Z " />
<glyph glyph-name="Ohungarumlaut" unicode="&#x150;" horiz-adv-x="550" d="M130 723 L169 697 C221 749 283 827 317 883 L236 922 C213 864 168 778 130 723 L130 723 Z M338 721 L377 697 C430 749 491 826 526 882 L442 917 C419 858 376 777 338 721 L338 721 Z M264 -15 C411 -15 505 106 504 324 C504 524 425 635 286 635 C139 635 46 515 46 296 C46 97 126 -15 264 -15 L264 -15 Z M272 566 C367 566 419 476 419 306 C419 140 370 54 278 54 C182 54 131 144 131 314 C131 480 179 566 272 566 L272 566 Z " />
<glyph glyph-name="ohungarumlaut" unicode="&#x151;" horiz-adv-x="550" d="M127 591 L166 565 C218 617 280 695 314 751 L233 790 C210 732 165 646 127 591 L127 591 Z M335 589 L374 565 C427 617 488 694 523 750 L439 785 C416 726 373 645 335 589 L335 589 Z M264 -14 C390 -14 495 92 495 254 C495 411 409 503 287 503 C161 503 55 395 55 236 C55 78 143 -14 264 -14 L264 -14 Z M277 53 C194 53 137 123 137 251 C137 371 193 437 273 437 C357 437 414 366 414 239 C414 118 358 53 277 53 L277 53 Z " />
<glyph glyph-name="OE" unicode="&#x152;" horiz-adv-x="550" d="M120 312 C120 478 168 547 270 548 L270 71 C165 71 120 141 120 312 L120 312 Z M510 71 L342 71 L342 282 L479 282 L479 345 L342 345 L342 549 L506 549 L506 620 L294 620 C121 620 37 504 37 298 C37 92 118 0 292 0 L504 0 L510 71 Z " />
<glyph glyph-name="oe" unicode="&#x153;" horiz-adv-x="550" d="M384 431 C430 431 444 377 444 281 L321 276 C324 384 348 431 384 431 L384 431 Z M187 59 C136 59 112 120 112 252 C112 377 139 430 180 430 C224 430 253 363 253 239 C253 118 229 59 187 59 L187 59 Z M500 -6 L508 61 C359 65 325 109 321 226 L514 231 C525 399 489 496 398 496 C352 496 314 467 290 416 C268 469 233 496 187 496 C93 496 32 400 32 233 C32 71 86 -7 171 -7 C223 -7 263 27 287 87 C319 27 382 -5 500 -6 L500 -6 Z " />
<glyph glyph-name="Racute" unicode="&#x154;" horiz-adv-x="550" d="M159 732 L182 696 C250 729 358 794 417 847 L352 910 C304 853 217 772 159 732 L159 732 Z M428 -10 L517 3 L369 271 C429 314 473 370 473 452 C473 579 377 661 92 619 L92 0 L175 0 L175 226 L302 230 L428 -10 Z M175 555 C326 577 391 524 391 434 C391 371 358 323 310 291 L175 287 L175 555 Z " />
<glyph glyph-name="racute" unicode="&#x155;" horiz-adv-x="550" d="M193 602 L216 566 C284 599 392 664 451 717 L386 780 C338 723 251 642 193 602 L193 602 Z M435 0 L442 62 L276 62 C275 176 273 272 272 357 C326 392 397 414 497 422 L493 508 C392 496 317 456 269 406 C268 429 264 480 263 490 L73 490 L67 432 L191 425 C194 327 195 212 197 62 L67 62 L67 0 L435 0 Z " />
<glyph glyph-name="Rcommaaccent" unicode="&#x156;" horiz-adv-x="550" d="M428 -10 L517 3 L369 271 C429 314 473 370 473 452 C473 579 377 661 92 619 L92 0 L175 0 L175 226 L302 230 L428 -10 Z M175 555 C326 577 391 524 391 434 C391 371 358 323 310 291 L175 287 L175 555 Z M240 -274 L281 -287 C336 -223 355 -144 346 -77 C341 -77 251 -82 246 -82 C268 -140 273 -204 240 -274 L240 -274 Z " />
<glyph glyph-name="rcommaaccent" unicode="&#x157;" horiz-adv-x="550" d="M435 0 L442 62 L276 62 C275 176 273 272 272 357 C326 392 397 414 497 422 L493 508 C392 496 317 456 269 406 C268 429 264 480 263 490 L73 490 L67 432 L191 425 C194 327 195 212 197 62 L67 62 L67 0 L435 0 Z M199 -264 L240 -277 C295 -213 314 -134 305 -67 C300 -67 210 -72 205 -72 C227 -130 232 -194 199 -264 L199 -264 Z " />
<glyph glyph-name="Rcaron" unicode="&#x158;" horiz-adv-x="550" d="M272 693 L448 844 L407 884 L276 772 L143 885 L92 836 L268 693 L272 693 Z M428 -10 L517 3 L369 271 C429 314 473 370 473 452 C473 579 377 661 92 619 L92 0 L175 0 L175 226 L302 230 L428 -10 Z M175 555 C326 577 391 524 391 434 C391 371 358 323 310 291 L175 287 L175 555 Z " />
<glyph glyph-name="rcaron" unicode="&#x159;" horiz-adv-x="550" d="M306 563 L482 714 L441 754 L310 642 L177 755 L126 706 L302 563 L306 563 Z M435 0 L442 62 L276 62 C275 176 273 272 272 357 C326 392 397 414 497 422 L493 508 C392 496 317 456 269 406 C268 429 264 480 263 490 L73 490 L67 432 L191 425 C194 327 195 212 197 62 L67 62 L67 0 L435 0 Z " />
<glyph glyph-name="Sacute" unicode="&#x15a;" horiz-adv-x="550" d="M188 728 L211 692 C279 725 387 790 446 843 L381 906 C333 849 246 768 188 728 L188 728 Z M86 71 L85 -6 C372 -22 479 79 479 174 C479 322 170 365 170 472 C170 523 227 563 444 548 L439 625 C184 639 85 547 85 459 C85 314 394 276 394 162 C394 103 312 52 86 71 L86 71 Z " />
<glyph glyph-name="sacute" unicode="&#x15b;" horiz-adv-x="550" d="M173 595 L196 559 C264 592 372 657 431 710 L366 773 C318 716 231 635 173 595 L173 595 Z M437 494 C187 513 103 433 103 355 C103 232 377 218 377 131 C377 87 316 51 102 68 L99 -4 C374 -19 461 58 461 138 C461 263 185 285 185 366 C185 406 239 440 440 422 L437 494 Z " />
<glyph glyph-name="Scedilla" unicode="&#x15e;" horiz-adv-x="550" d="M177 -225 C299 -210 360 -171 360 -121 C360 -84 328 -43 252 0 C415 23 479 100 479 174 C479 322 170 365 170 472 C170 523 227 563 444 548 L439 625 C184 639 85 547 85 459 C85 314 394 276 394 162 C394 103 312 52 86 71 L85 -6 C128 -8 167 -8 203 -6 L194 -23 C260 -62 288 -91 288 -113 C288 -134 254 -149 171 -161 L177 -225 Z " />
<glyph glyph-name="scedilla" unicode="&#x15f;" horiz-adv-x="550" d="M188 -224 C310 -209 371 -170 371 -120 C371 -84 340 -43 265 0 C410 18 461 77 461 138 C461 263 185 285 185 366 C185 406 239 440 440 422 L437 494 C187 513 103 433 103 355 C103 232 377 218 377 131 C377 87 316 51 102 68 L99 -4 C142 -6 180 -6 214 -5 L205 -22 C271 -61 299 -90 299 -112 C299 -133 265 -148 182 -160 L188 -224 Z " />
<glyph glyph-name="Scaron" unicode="&#x160;" horiz-adv-x="550" d="M301 689 L477 840 L436 880 L305 768 L172 881 L121 832 L297 689 L301 689 Z M86 71 L85 -6 C372 -22 479 79 479 174 C479 322 170 365 170 472 C170 523 227 563 444 548 L439 625 C184 639 85 547 85 459 C85 314 394 276 394 162 C394 103 312 52 86 71 L86 71 Z " />
<glyph glyph-name="scaron" unicode="&#x161;" horiz-adv-x="550" d="M286 556 L462 707 L421 747 L290 635 L157 748 L106 699 L282 556 L286 556 Z M437 494 C187 513 103 433 103 355 C103 232 377 218 377 131 C377 87 316 51 102 68 L99 -4 C374 -19 461 58 461 138 C461 263 185 285 185 366 C185 406 239 440 440 422 L437 494 Z " />
<glyph glyph-name="Tcommaaccent" unicode="&#x162;" horiz-adv-x="550" d="M318 549 L509 549 L509 620 L46 620 L39 549 L234 549 L234 0 L318 0 L318 549 Z M214 -264 L255 -277 C310 -213 329 -134 320 -67 C315 -67 225 -72 220 -72 C242 -130 247 -194 214 -264 L214 -264 Z " />
<glyph glyph-name="tcommaaccent" unicode="&#x163;" horiz-adv-x="550" d="M460 -8 L469 60 C305 63 258 85 258 170 L258 427 L458 427 L458 490 L258 490 L258 633 L177 626 L177 490 L84 490 L76 427 L177 427 L177 157 C177 36 248 -11 460 -8 L460 -8 Z M252 -272 L293 -285 C348 -221 367 -142 358 -75 C353 -75 263 -80 258 -80 C280 -138 285 -202 252 -272 L252 -272 Z " />
<glyph glyph-name="Tcaron" unicode="&#x164;" horiz-adv-x="550" d="M280 685 L456 836 L415 876 L284 764 L151 877 L100 828 L276 685 L280 685 Z M318 549 L509 549 L509 620 L46 620 L39 549 L234 549 L234 0 L318 0 L318 549 Z " />
<glyph glyph-name="tcaron" unicode="&#x165;" horiz-adv-x="550" d="M355 593 L392 580 C452 669 468 748 457 831 L366 830 C385 755 392 682 355 593 L355 593 Z M460 -8 L469 60 C305 63 258 85 258 170 L258 427 L458 427 L458 490 L258 490 L258 633 L177 626 L177 490 L84 490 L76 427 L177 427 L177 157 C177 36 248 -11 460 -8 L460 -8 Z " />
<glyph glyph-name="Umacron" unicode="&#x16a;" horiz-adv-x="550" d="M442 804 L108 804 L108 734 L442 734 L442 804 Z M270 -15 C397 -15 474 65 474 204 L474 620 L391 620 L391 191 C391 97 354 57 278 57 C204 57 159 104 159 206 L159 620 L75 620 L75 200 C75 61 148 -15 270 -15 L270 -15 Z " />
<glyph glyph-name="umacron" unicode="&#x16b;" horiz-adv-x="550" d="M444 677 L110 677 L110 607 L444 607 L444 677 Z M394 -2 L469 3 C464 116 462 276 462 490 L381 490 C381 318 383 190 385 102 C348 75 307 57 260 57 C199 57 163 89 163 185 L163 493 L82 487 L82 158 C82 37 139 -12 226 -12 C296 -12 348 20 389 54 L394 -2 Z " />
<glyph glyph-name="Ubreve" unicode="&#x16c;" horiz-adv-x="550" d="M274 695 C345 695 411 751 467 843 L419 868 C372 798 333 761 281 761 C232 761 195 792 146 872 L89 839 C143 742 204 695 274 695 L274 695 Z M270 -15 C397 -15 474 65 474 204 L474 620 L391 620 L391 191 C391 97 354 57 278 57 C204 57 159 104 159 206 L159 620 L75 620 L75 200 C75 61 148 -15 270 -15 L270 -15 Z " />
<glyph glyph-name="ubreve" unicode="&#x16d;" horiz-adv-x="550" d="M277 568 C348 568 414 624 470 716 L422 741 C375 671 336 634 284 634 C235 634 198 665 149 745 L92 712 C146 615 207 568 277 568 L277 568 Z M394 -2 L469 3 C464 116 462 276 462 490 L381 490 C381 318 383 190 385 102 C348 75 307 57 260 57 C199 57 163 89 163 185 L163 493 L82 487 L82 158 C82 37 139 -12 226 -12 C296 -12 348 20 389 54 L394 -2 Z " />
<glyph glyph-name="Uring" unicode="&#x16e;" horiz-adv-x="550" d="M274 890 C194 890 143 843 143 782 C143 724 197 678 274 678 C354 678 406 724 406 786 C406 842 352 890 274 890 L274 890 Z M270 -15 C397 -15 474 65 474 204 L474 620 L391 620 L391 191 C391 97 354 57 278 57 C204 57 159 104 159 206 L159 620 L75 620 L75 200 C75 61 148 -15 270 -15 L270 -15 Z " />
<glyph glyph-name="uring" unicode="&#x16f;" horiz-adv-x="550" d="M276 763 C196 763 145 716 145 655 C145 597 199 551 276 551 C356 551 408 597 408 659 C408 715 354 763 276 763 L276 763 Z M394 -2 L469 3 C464 116 462 276 462 490 L381 490 C381 318 383 190 385 102 C348 75 307 57 260 57 C199 57 163 89 163 185 L163 493 L82 487 L82 158 C82 37 139 -12 226 -12 C296 -12 348 20 389 54 L394 -2 Z " />
<glyph glyph-name="Uhungarumlaut" unicode="&#x170;" horiz-adv-x="550" d="M126 716 L165 690 C217 742 279 820 313 876 L232 915 C209 857 164 771 126 716 L126 716 Z M334 714 L373 690 C426 742 487 819 522 875 L438 910 C415 851 372 770 334 714 L334 714 Z M270 -15 C397 -15 474 65 474 204 L474 620 L391 620 L391 191 C391 97 354 57 278 57 C204 57 159 104 159 206 L159 620 L75 620 L75 200 C75 61 148 -15 270 -15 L270 -15 Z " />
<glyph glyph-name="uhungarumlaut" unicode="&#x171;" horiz-adv-x="550" d="M129 589 L168 563 C220 615 282 693 316 749 L235 788 C212 730 167 644 129 589 L129 589 Z M337 587 L376 563 C429 615 490 692 525 748 L441 783 C418 724 375 643 337 587 L337 587 Z M394 -2 L469 3 C464 116 462 276 462 490 L381 490 C381 318 383 190 385 102 C348 75 307 57 260 57 C199 57 163 89 163 185 L163 493 L82 487 L82 158 C82 37 139 -12 226 -12 C296 -12 348 20 389 54 L394 -2 Z " />
<glyph glyph-name="Uogonek" unicode="&#x172;" horiz-adv-x="550" d="M366 -216 L373 -150 C288 -142 256 -126 256 -100 C256 -73 288 -47 374 9 C445 55 474 110 474 204 L474 620 L391 620 L391 191 C391 97 354 57 278 57 C204 57 159 104 159 206 L159 620 L75 620 L75 200 C75 66 143 -10 265 -16 C202 -55 181 -87 181 -122 C181 -171 230 -205 366 -216 L366 -216 Z " />
<glyph glyph-name="uogonek" unicode="&#x173;" horiz-adv-x="550" d="M447 -213 L455 -148 C370 -139 338 -123 338 -99 C338 -76 367 -45 469 3 C464 116 462 276 462 490 L381 490 C381 333 383 213 385 127 C346 85 305 57 257 57 C198 57 163 89 163 185 L163 493 L82 487 L82 158 C82 37 137 -12 223 -12 C290 -12 347 31 388 78 L393 9 C298 -40 262 -80 262 -120 C262 -168 312 -203 447 -213 L447 -213 Z " />
<glyph glyph-name="Wcircumflex" unicode="&#x174;" horiz-adv-x="550" d="M406 690 L457 739 L281 883 L277 883 L101 730 L141 691 L273 804 L406 690 Z M364 0 L451 0 C466 117 487 353 500 620 L422 620 C417 496 401 167 394 106 L391 106 C361 216 331 327 302 436 L252 436 C224 328 199 228 166 106 L162 106 C156 167 138 496 133 620 L51 620 C64 353 84 117 99 0 L187 0 L274 330 L364 0 Z " />
<glyph glyph-name="wcircumflex" unicode="&#x175;" horiz-adv-x="550" d="M403 560 L454 609 L278 753 L274 753 L98 600 L138 561 L270 674 L403 560 Z M368 0 L443 0 C460 116 481 306 492 490 L416 490 C409 350 402 232 394 100 L390 100 C380 132 310 331 302 356 L252 356 C245 332 176 133 166 102 L162 102 C152 234 145 351 138 490 L58 490 C69 306 90 116 108 0 L181 0 L274 274 L368 0 Z " />
<glyph glyph-name="Ycircumflex" unicode="&#x176;" horiz-adv-x="550" d="M405 692 L456 741 L280 885 L276 885 L100 732 L140 693 L272 806 L405 692 Z M318 0 L318 206 L517 620 L431 620 L278 286 L122 622 L33 618 L234 206 L234 0 L318 0 Z " />
<glyph glyph-name="ycircumflex" unicode="&#x177;" horiz-adv-x="550" d="M409 563 L460 612 L284 756 L280 756 L104 603 L144 564 L276 677 L409 563 Z M70 -178 C236 -158 283 -112 349 61 C413 223 465 369 506 490 L428 490 C402 421 332 200 295 100 L285 100 C230 225 174 367 125 492 L42 487 C91 367 185 140 242 15 L251 13 C217 -67 188 -84 63 -103 L70 -178 Z " />
<glyph glyph-name="Ydieresis" unicode="&#x178;" horiz-adv-x="550" d="M430 701 L432 837 L349 837 L348 701 L430 701 Z M210 701 L212 837 L129 837 L128 701 L210 701 Z M318 0 L318 206 L517 620 L431 620 L278 286 L122 622 L33 618 L234 206 L234 0 L318 0 Z " />
<glyph glyph-name="Zacute" unicode="&#x179;" horiz-adv-x="550" d="M182 724 L205 688 C273 721 381 786 440 839 L375 902 C327 845 240 764 182 724 L182 724 Z M481 0 L488 73 L158 72 L481 549 L481 620 L77 620 L71 547 L392 548 L67 71 L67 0 L481 0 Z " />
<glyph glyph-name="zacute" unicode="&#x17a;" horiz-adv-x="550" d="M179 594 L202 558 C270 591 378 656 437 709 L372 772 C324 715 237 634 179 594 L179 594 Z M480 0 L486 72 L166 70 L477 422 L477 490 L82 490 L76 418 L384 420 L73 69 L73 0 L480 0 Z " />
<glyph glyph-name="Zdotaccent" unicode="&#x17b;" horiz-adv-x="550" d="M329 699 L334 835 L249 835 L246 699 L329 699 Z M481 0 L488 73 L158 72 L481 549 L481 620 L77 620 L71 547 L392 548 L67 71 L67 0 L481 0 Z " />
<glyph glyph-name="zdotaccent" unicode="&#x17c;" horiz-adv-x="550" d="M326 569 L331 705 L246 705 L243 569 L326 569 Z M480 0 L486 72 L166 70 L477 422 L477 490 L82 490 L76 418 L384 420 L73 69 L73 0 L480 0 Z " />
<glyph glyph-name="Zcaron" unicode="&#x17d;" horiz-adv-x="550" d="M295 685 L471 836 L430 876 L299 764 L166 877 L115 828 L291 685 L295 685 Z M481 0 L488 73 L158 72 L481 549 L481 620 L77 620 L71 547 L392 548 L67 71 L67 0 L481 0 Z " />
<glyph glyph-name="zcaron" unicode="&#x17e;" horiz-adv-x="550" d="M292 555 L468 706 L427 746 L296 634 L163 747 L112 698 L288 555 L292 555 Z M480 0 L486 72 L166 70 L477 422 L477 490 L82 490 L76 418 L384 420 L73 69 L73 0 L480 0 Z " />
<glyph glyph-name="Aringacute" unicode="&#x1fa;" horiz-adv-x="550" d="M169 966 L192 930 C260 963 368 1028 427 1081 L362 1144 C314 1087 227 1006 169 966 L169 966 Z M272 890 C192 890 141 843 141 782 C141 724 195 678 272 678 C352 678 404 724 404 786 C404 842 350 890 272 890 L272 890 Z M430 -3 L514 3 C457 210 398 414 333 622 L217 622 C152 413 93 207 36 0 L119 0 C136 63 152 127 169 190 L378 190 C396 126 413 61 430 -3 L430 -3 Z M270 551 L278 551 C307 452 334 352 361 253 L186 253 C214 352 241 451 270 551 L270 551 Z " />
<glyph glyph-name="aringacute" unicode="&#x1fb;" horiz-adv-x="550" d="M168 842 L191 806 C259 839 367 904 426 957 L361 1020 C313 963 226 882 168 842 L168 842 Z M272 764 C192 764 141 717 141 656 C141 598 195 552 272 552 C352 552 404 598 404 660 C404 716 350 764 272 764 L272 764 Z M248 52 C187 52 147 82 147 134 C147 201 206 240 385 221 C385 173 386 137 387 105 C349 75 297 52 248 52 L248 52 Z M398 -3 L472 2 C468 72 464 141 464 243 C464 432 388 491 105 499 L96 429 C315 421 377 392 384 279 C167 292 67 216 67 115 C67 36 128 -12 217 -12 C294 -12 351 23 391 60 C393 38 397 7 398 -3 L398 -3 Z " />
<glyph glyph-name="AEacute" unicode="&#x1fc;" horiz-adv-x="550" d="M214 724 L237 688 C305 721 413 786 472 839 L407 902 C359 845 272 764 214 724 L214 724 Z M256 549 L262 549 L262 244 L160 244 C192 346 225 449 256 549 L256 549 Z M262 0 L506 0 L512 71 L335 71 L335 282 L481 282 L481 345 L335 345 L335 549 L508 549 L508 620 L207 620 C138 414 68 206 4 0 L85 0 C103 60 122 121 141 182 L262 182 L262 0 Z " />
<glyph glyph-name="aeacute" unicode="&#x1fd;" horiz-adv-x="550" d="M170 594 L193 558 C261 591 369 656 428 709 L363 772 C315 715 228 634 170 594 L170 594 Z M375 429 C422 429 440 377 439 277 L304 275 C307 382 330 429 375 429 L375 429 Z M169 58 C134 58 110 83 110 135 C110 195 150 223 234 223 C234 180 238 142 249 110 C229 79 202 58 169 58 L169 58 Z M497 -6 L504 62 C338 66 305 110 304 224 L513 229 C524 396 480 496 387 496 C333 496 292 465 267 410 C239 468 179 487 61 494 L55 425 C199 416 231 391 234 275 C99 272 34 215 34 116 C34 38 78 -7 140 -7 C199 -7 243 29 269 69 C304 21 372 -5 497 -6 L497 -6 Z " />
<glyph glyph-name="Oslashacute" unicode="&#x1fe;" horiz-adv-x="550" d="M170 732 L193 696 C261 729 369 794 428 847 L363 910 C315 853 228 772 170 732 L170 732 Z M130 314 C130 481 179 566 272 566 C310 566 341 552 365 524 L156 144 C139 187 130 243 130 314 L130 314 Z M278 54 C240 54 208 68 185 96 L394 476 C411 434 420 377 420 306 C420 139 370 54 278 54 L278 54 Z M264 -15 C411 -15 505 106 504 324 C504 425 484 504 446 557 L485 628 L432 656 L403 600 C371 623 332 635 286 635 C139 635 46 515 46 296 C46 194 67 115 106 62 L67 -8 L119 -36 L149 19 C181 -3 219 -15 264 -15 L264 -15 Z " />
<glyph glyph-name="oslashacute" unicode="&#x1ff;" horiz-adv-x="550" d="M170 599 L193 563 C261 596 369 661 428 714 L363 777 C315 720 228 639 170 599 L170 599 Z M136 251 C136 372 193 437 273 437 C306 437 335 426 358 405 L163 123 C146 155 136 198 136 251 L136 251 Z M277 52 C245 52 216 62 194 82 L389 364 C406 332 415 290 415 239 C415 117 359 52 277 52 L277 52 Z M264 -14 C390 -14 495 92 495 254 C495 328 476 388 443 430 L485 491 L437 523 L400 470 C368 492 330 503 287 503 C161 503 55 395 55 236 C55 160 75 100 110 57 L68 -2 L116 -34 L152 18 C184 -3 222 -14 264 -14 L264 -14 Z " />
<glyph glyph-name="Scommaaccent" unicode="&#x218;" horiz-adv-x="550" d="M86 71 L85 -6 C372 -22 479 79 479 174 C479 322 170 365 170 472 C170 523 227 563 444 548 L439 625 C184 639 85 547 85 459 C85 314 394 276 394 162 C394 103 312 52 86 71 L86 71 Z M214 -275 L255 -288 C310 -224 329 -145 320 -78 C315 -78 225 -83 220 -83 C242 -141 247 -205 214 -275 L214 -275 Z " />
<glyph glyph-name="scommaaccent" unicode="&#x219;" horiz-adv-x="550" d="M437 494 C187 513 103 433 103 355 C103 232 377 218 377 131 C377 87 316 51 102 68 L99 -4 C374 -19 461 58 461 138 C461 263 185 285 185 366 C185 406 239 440 440 422 L437 494 Z M209 -274 L250 -287 C305 -223 324 -144 315 -77 C310 -77 220 -82 215 -82 C237 -140 242 -204 209 -274 L209 -274 Z " />
<glyph glyph-name="schwa" unicode="&#x259;" horiz-adv-x="550" d="M253 -12 C380 -12 485 103 485 252 C485 411 401 500 95 501 L86 432 C322 426 396 381 404 266 L70 257 C52 96 119 -12 253 -12 L253 -12 Z M268 55 C186 55 146 114 145 208 C214 210 347 214 404 216 C398 111 348 55 268 55 L268 55 Z " />
<glyph glyph-name="circumflex" unicode="&#x2c6;" horiz-adv-x="550" d="M402 560 L453 609 L277 753 L273 753 L97 600 L137 561 L269 674 L402 560 Z " />
<glyph glyph-name="caron" unicode="&#x2c7;" horiz-adv-x="550" d="M277 555 L453 706 L412 746 L281 634 L148 747 L97 698 L273 555 L277 555 Z " />
<glyph glyph-name="breve" unicode="&#x2d8;" horiz-adv-x="550" d="M272 565 C343 565 409 621 465 713 L417 738 C370 668 331 631 279 631 C230 631 193 662 144 742 L87 709 C141 612 202 565 272 565 L272 565 Z " />
<glyph glyph-name="dotaccent" unicode="&#x2d9;" horiz-adv-x="550" d="M314 569 L319 705 L234 705 L231 569 L314 569 Z " />
<glyph glyph-name="ring" unicode="&#x2da;" horiz-adv-x="550" d="M283 760 C203 760 152 713 152 652 C152 594 206 548 283 548 C363 548 415 594 415 656 C415 712 361 760 283 760 L283 760 Z " />
<glyph glyph-name="ogonek" unicode="&#x2db;" horiz-adv-x="550" d="M355 34 C220 -29 171 -76 171 -122 C171 -171 220 -205 356 -216 L363 -150 C278 -142 246 -126 246 -102 C246 -78 275 -48 377 0 L355 34 Z " />
<glyph glyph-name="tilde" unicode="&#x2dc;" horiz-adv-x="550" d="M345 567 C395 567 441 621 477 706 L431 726 C404 667 379 633 354 633 C312 633 271 734 207 734 C156 734 110 680 75 595 L120 575 C147 633 172 667 198 667 C240 667 281 567 345 567 L345 567 Z " />
<glyph glyph-name="hungarumlaut" unicode="&#x2dd;" horiz-adv-x="550" d="M127 586 L166 560 C218 612 280 690 314 746 L233 785 C210 727 165 641 127 586 L127 586 Z M335 584 L374 560 C427 612 488 689 523 745 L439 780 C416 721 373 640 335 584 L335 584 Z " />
<glyph glyph-name="commaaccent" unicode="&#x326;" horiz-adv-x="550" d="M211 -264 L252 -277 C307 -213 326 -134 317 -67 C312 -67 222 -72 217 -72 C239 -130 244 -194 211 -264 L211 -264 Z " />
<glyph glyph-name="Wgrave" unicode="&#x1e80;" horiz-adv-x="550" d="M379 718 C324 760 232 844 182 898 L122 831 C184 782 287 717 355 682 L379 718 Z M364 0 L451 0 C466 117 487 353 500 620 L422 620 C417 496 401 167 394 106 L391 106 C361 216 331 327 302 436 L252 436 C224 328 199 228 166 106 L162 106 C156 167 138 496 133 620 L51 620 C64 353 84 117 99 0 L187 0 L274 330 L364 0 Z " />
<glyph glyph-name="wgrave" unicode="&#x1e81;" horiz-adv-x="550" d="M376 588 C321 630 229 714 179 768 L119 701 C181 652 284 587 352 552 L376 588 Z M368 0 L443 0 C460 116 481 306 492 490 L416 490 C409 350 402 232 394 100 L390 100 C380 132 310 331 302 356 L252 356 C245 332 176 133 166 102 L162 102 C152 234 145 351 138 490 L58 490 C69 306 90 116 108 0 L181 0 L274 274 L368 0 Z " />
<glyph glyph-name="Wacute" unicode="&#x1e82;" horiz-adv-x="550" d="M174 724 L197 688 C265 721 373 786 432 839 L367 902 C319 845 232 764 174 724 L174 724 Z M364 0 L451 0 C466 117 487 353 500 620 L422 620 C417 496 401 167 394 106 L391 106 C361 216 331 327 302 436 L252 436 C224 328 199 228 166 106 L162 106 C156 167 138 496 133 620 L51 620 C64 353 84 117 99 0 L187 0 L274 330 L364 0 Z " />
<glyph glyph-name="wacute" unicode="&#x1e83;" horiz-adv-x="550" d="M170 594 L193 558 C261 591 369 656 428 709 L363 772 C315 715 228 634 170 594 L170 594 Z M368 0 L443 0 C460 116 481 306 492 490 L416 490 C409 350 402 232 394 100 L390 100 C380 132 310 331 302 356 L252 356 C245 332 176 133 166 102 L162 102 C152 234 145 351 138 490 L58 490 C69 306 90 116 108 0 L181 0 L274 274 L368 0 Z " />
<glyph glyph-name="Wdieresis" unicode="&#x1e84;" horiz-adv-x="550" d="M431 699 L433 835 L350 835 L349 699 L431 699 Z M211 699 L213 835 L130 835 L129 699 L211 699 Z M364 0 L451 0 C466 117 487 353 500 620 L422 620 C417 496 401 167 394 106 L391 106 C361 216 331 327 302 436 L252 436 C224 328 199 228 166 106 L162 106 C156 167 138 496 133 620 L51 620 C64 353 84 117 99 0 L187 0 L274 330 L364 0 Z " />
<glyph glyph-name="wdieresis" unicode="&#x1e85;" horiz-adv-x="550" d="M427 569 L429 705 L346 705 L345 569 L427 569 Z M207 569 L209 705 L126 705 L125 569 L207 569 Z M368 0 L443 0 C460 116 481 306 492 490 L416 490 C409 350 402 232 394 100 L390 100 C380 132 310 331 302 356 L252 356 C245 332 176 133 166 102 L162 102 C152 234 145 351 138 490 L58 490 C69 306 90 116 108 0 L181 0 L274 274 L368 0 Z " />
<glyph glyph-name="Ygrave" unicode="&#x1ef2;" horiz-adv-x="550" d="M378 720 C323 762 231 846 181 900 L121 833 C183 784 286 719 354 684 L378 720 Z M318 0 L318 206 L517 620 L431 620 L278 286 L122 622 L33 618 L234 206 L234 0 L318 0 Z " />
<glyph glyph-name="ygrave" unicode="&#x1ef3;" horiz-adv-x="550" d="M382 591 C327 633 235 717 185 771 L125 704 C187 655 290 590 358 555 L382 591 Z M70 -178 C236 -158 283 -112 349 61 C413 223 465 369 506 490 L428 490 C402 421 332 200 295 100 L285 100 C230 225 174 367 125 492 L42 487 C91 367 185 140 242 15 L251 13 C217 -67 188 -84 63 -103 L70 -178 Z " />
<glyph glyph-name="endash" unicode="&#x2013;" horiz-adv-x="550" d="M481 324 L74 324 L74 262 L474 262 L481 324 Z " />
<glyph glyph-name="emdash" unicode="&#x2014;" horiz-adv-x="550" d="M499 324 L55 324 L55 262 L494 262 L499 324 Z " />
<glyph glyph-name="quoteleft" unicode="&#x2018;" horiz-adv-x="550" d="M357 676 L314 690 C228 607 187 495 226 380 L335 388 C285 498 293 598 357 676 L357 676 Z " />
<glyph glyph-name="quoteright" unicode="&#x2019;" horiz-adv-x="550" d="M207 374 L250 360 C336 442 376 555 338 670 L228 662 C278 551 270 452 207 374 L207 374 Z " />
<glyph glyph-name="quotesinglbase" unicode="&#x201a;" horiz-adv-x="550" d="M201 -172 L244 -185 C330 -102 372 10 334 122 L223 116 C273 8 267 -93 201 -172 L201 -172 Z " />
<glyph glyph-name="quotedblleft" unicode="&#x201c;" horiz-adv-x="550" d="M457 676 L417 690 C332 605 300 493 334 380 L442 388 C394 497 397 597 457 676 L457 676 Z M246 676 L206 690 C120 606 87 494 119 380 L226 388 C181 496 185 597 246 676 L246 676 Z " />
<glyph glyph-name="quotedblright" unicode="&#x201d;" horiz-adv-x="550" d="M104 373 L145 360 C229 444 261 557 228 669 L120 662 C167 553 164 452 104 373 L104 373 Z M316 374 L356 360 C442 443 475 556 444 669 L336 662 C382 554 377 453 316 374 L316 374 Z " />
<glyph glyph-name="quotedblbase" unicode="&#x201e;" horiz-adv-x="550" d="M101 -172 L141 -186 C226 -102 258 11 226 122 L116 116 C164 7 161 -93 101 -172 L101 -172 Z M312 -172 L352 -185 C439 -103 472 9 442 122 L332 116 C378 8 375 -93 312 -172 L312 -172 Z " />
<glyph glyph-name="dagger" unicode="&#x2020;" horiz-adv-x="550" d="M298 127 L314 471 L486 469 L490 533 L315 536 L317 695 L238 696 L238 537 L70 540 L67 475 L238 473 L237 108 L250 101 L298 127 Z " />
<glyph glyph-name="daggerdbl" unicode="&#x2021;" horiz-adv-x="550" d="M299 75 L306 273 L480 270 L484 332 L309 335 L314 474 L486 471 L490 533 L315 536 L317 695 L238 696 L238 537 L70 540 L67 478 L238 475 L238 336 L64 339 L60 277 L238 274 L238 57 L250 50 L299 75 Z " />
<glyph glyph-name="bullet" unicode="&#x2022;" horiz-adv-x="550" d="M404 300 C404 373 350 424 276 424 C204 424 145 374 145 297 C145 223 200 172 274 172 C347 172 404 222 404 300 L404 300 Z " />
<glyph glyph-name="ellipsis" unicode="&#x2026;" horiz-adv-x="550" d="M504 0 L509 120 L411 120 L406 0 L504 0 Z M321 0 L326 120 L228 120 L223 0 L321 0 Z M138 0 L143 120 L45 120 L40 0 L138 0 Z " />
<glyph glyph-name="guilsinglleft" unicode="&#x2039;" horiz-adv-x="550" d="M369 -17 L423 39 L191 246 L429 451 L375 507 L131 286 L126 205 L369 -17 Z " />
<glyph glyph-name="guilsinglright" unicode="&#x203a;" horiz-adv-x="550" d="M176 -17 L420 204 L425 286 L182 507 L128 451 L360 244 L122 40 L176 -17 Z " />
<glyph glyph-name="fraction" unicode="&#x2044;" horiz-adv-x="550" d="M103 -160 L509 725 L440 754 L34 -131 L103 -160 Z " />
<glyph glyph-name="zero.sup" unicode="&#x2070;" horiz-adv-x="550" d="M269 315 C373 315 441 402 441 528 C441 652 383 729 280 729 C176 729 109 642 109 516 C109 391 167 315 269 315 L269 315 Z M274 674 C340 674 375 616 375 518 C375 425 342 370 276 370 C210 370 175 428 175 526 C175 619 207 674 274 674 L274 674 Z " />
<glyph glyph-name="four.sup" unicode="&#x2074;" horiz-adv-x="550" d="M445 405 L450 460 L393 459 L394 596 L332 591 L334 459 L186 460 C188 491 234 671 249 722 L179 727 C146 608 129 482 130 405 L333 406 L332 325 L394 325 L393 406 L445 405 Z " />
<glyph glyph-name="five.sup" unicode="&#x2075;" horiz-adv-x="550" d="M422 454 C422 508 371 553 208 568 L216 663 L404 663 L410 720 L162 720 L147 522 C306 511 360 486 360 453 C360 411 301 386 137 375 L141 314 C335 327 422 382 422 454 L422 454 Z " />
<glyph glyph-name="six.sup" unicode="&#x2076;" horiz-adv-x="550" d="M275 316 C359 316 430 371 430 453 C430 571 285 603 186 521 C199 589 251 636 376 681 L353 736 C196 679 121 588 121 475 C121 371 184 316 275 316 L275 316 Z M281 369 C225 369 183 406 183 483 L183 487 C272 546 368 526 368 448 C368 399 330 369 281 369 L281 369 Z " />
<glyph glyph-name="seven.sup" unicode="&#x2077;" horiz-adv-x="550" d="M248 318 C293 436 356 552 432 664 L432 720 L136 720 L131 662 L363 662 L365 659 C287 549 225 439 180 326 L248 318 Z " />
<glyph glyph-name="eight.sup" unicode="&#x2078;" horiz-adv-x="550" d="M267 315 C366 315 428 366 428 424 C428 472 379 502 326 528 C386 554 420 586 420 633 C420 691 360 729 281 729 C183 729 130 674 130 623 C130 577 173 547 221 521 C160 496 123 461 123 414 C123 355 179 315 267 315 L267 315 Z M196 628 C196 655 224 679 276 679 C328 679 358 655 358 622 C358 591 330 566 286 548 C238 571 196 594 196 628 L196 628 Z M274 365 C218 365 187 391 187 426 C187 457 214 483 261 502 C313 477 361 454 361 420 C361 389 328 365 274 365 L274 365 Z " />
<glyph glyph-name="nine.sup" unicode="&#x2079;" horiz-adv-x="550" d="M197 308 C354 365 429 455 429 568 C429 672 365 728 275 728 C191 728 120 672 120 590 C120 472 265 441 363 522 C350 453 298 407 173 363 L197 308 Z M181 595 C181 644 221 675 269 675 C325 675 366 638 366 561 L366 557 C278 497 181 517 181 595 L181 595 Z " />
<glyph glyph-name="zero.inf" unicode="&#x2080;" horiz-adv-x="550" d="M269 -160 C373 -160 441 -73 441 53 C441 177 383 254 280 254 C176 254 109 167 109 41 C109 -84 167 -160 269 -160 L269 -160 Z M274 199 C340 199 375 141 375 43 C375 -50 342 -105 276 -105 C210 -105 175 -47 175 51 C175 144 207 199 274 199 L274 199 Z " />
<glyph glyph-name="one.inf" unicode="&#x2081;" horiz-adv-x="550" d="M433 -150 L438 -95 L324 -95 L324 261 L260 256 L260 196 L140 180 L142 132 L260 139 L260 -95 L135 -95 L135 -150 L433 -150 Z " />
<glyph glyph-name="two.inf" unicode="&#x2082;" horiz-adv-x="550" d="M426 -150 L426 -93 L213 -93 C342 -4 413 61 413 136 C413 202 352 255 144 254 L139 196 C301 193 347 166 347 119 C347 59 269 0 124 -97 L131 -150 L426 -150 Z " />
<glyph glyph-name="three.inf" unicode="&#x2083;" horiz-adv-x="550" d="M141 -161 C348 -155 425 -102 425 -36 C425 11 379 50 250 70 L415 192 L411 245 L142 245 L142 188 L337 190 L337 187 L175 66 L175 33 C311 20 361 -7 361 -38 C361 -73 304 -96 136 -101 L141 -161 Z " />
<glyph glyph-name="four.inf" unicode="&#x2084;" horiz-adv-x="550" d="M445 -70 L450 -15 L393 -16 L394 121 L332 116 L334 -16 L186 -15 C188 16 234 196 249 247 L179 252 C146 133 129 7 130 -70 L333 -69 L332 -150 L394 -150 L393 -69 L445 -70 Z " />
<glyph glyph-name="five.inf" unicode="&#x2085;" horiz-adv-x="550" d="M422 -21 C422 33 371 78 208 93 L216 188 L404 188 L410 245 L162 245 L147 47 C306 36 360 11 360 -22 C360 -64 301 -89 137 -100 L141 -161 C335 -148 422 -93 422 -21 L422 -21 Z " />
<glyph glyph-name="six.inf" unicode="&#x2086;" horiz-adv-x="550" d="M275 -159 C359 -159 430 -104 430 -22 C430 96 285 128 186 46 C199 114 251 161 376 206 L353 261 C196 204 121 113 121 0 C121 -104 184 -159 275 -159 L275 -159 Z M281 -106 C225 -106 183 -69 183 8 L183 12 C272 71 368 51 368 -27 C368 -76 330 -106 281 -106 L281 -106 Z " />
<glyph glyph-name="seven.inf" unicode="&#x2087;" horiz-adv-x="550" d="M248 -157 C293 -39 356 77 432 189 L432 245 L136 245 L131 187 L363 187 L365 184 C287 74 225 -36 180 -149 L248 -157 Z " />
<glyph glyph-name="eight.inf" unicode="&#x2088;" horiz-adv-x="550" d="M267 -160 C366 -160 428 -109 428 -51 C428 -3 379 27 326 53 C386 79 420 111 420 158 C420 216 360 254 281 254 C183 254 130 199 130 148 C130 102 173 72 221 46 C160 21 123 -14 123 -61 C123 -120 179 -160 267 -160 L267 -160 Z M196 153 C196 180 224 204 276 204 C328 204 358 180 358 147 C358 116 330 91 286 73 C238 96 196 119 196 153 L196 153 Z M274 -110 C218 -110 187 -84 187 -49 C187 -18 214 8 261 27 C313 2 361 -21 361 -55 C361 -86 328 -110 274 -110 L274 -110 Z " />
<glyph glyph-name="nine.inf" unicode="&#x2089;" horiz-adv-x="550" d="M197 -167 C354 -110 429 -20 429 93 C429 197 365 253 275 253 C191 253 120 197 120 115 C120 -3 265 -34 363 47 C350 -22 298 -68 173 -112 L197 -167 Z M181 120 C181 169 221 200 269 200 C325 200 366 163 366 86 L366 82 C278 22 181 42 181 120 L181 120 Z " />
<glyph glyph-name="colonmonetary" unicode="&#x20a1;" horiz-adv-x="550" d="M334 111 C306 117 281 124 259 133 L292 496 C314 503 340 509 369 513 L334 111 Z M137 312 C137 386 165 442 242 478 L214 155 C160 189 137 239 137 312 L137 312 Z M313 -74 L371 -74 L380 31 C406 27 435 24 465 22 L479 92 C443 95 410 99 380 103 L417 519 C443 521 471 523 502 524 L498 598 C474 597 451 596 430 593 L439 693 L381 693 L371 586 C345 582 321 576 298 570 L309 693 L251 693 L239 550 C110 496 64 404 64 299 C64 196 105 126 197 81 L182 -74 L241 -74 L253 59 C274 52 298 46 323 41 L313 -74 Z " />
<glyph glyph-name="naira" unicode="&#x20a6;" horiz-adv-x="550" d="M162 476 L167 476 L285 224 L163 224 L162 476 Z M393 135 L276 388 L397 388 L398 135 L393 135 Z M390 0 L462 0 L462 169 L530 169 L530 234 L462 234 L462 377 L530 377 L530 443 L462 443 L462 620 L396 620 L397 443 L250 443 L168 620 L96 620 L96 443 L27 443 L27 377 L96 377 L96 234 L27 234 L27 169 L96 169 L96 0 L163 0 L163 169 L311 169 L390 0 Z " />
<glyph glyph-name="rupee" unicode="&#x20a8;" horiz-adv-x="550" d="M247 -4 L315 6 L240 274 C273 315 297 372 297 453 C297 579 241 655 69 619 L69 0 L139 0 L139 233 L183 235 L247 -4 Z M139 557 C201 571 227 530 227 439 C227 375 213 326 192 292 L139 290 L139 557 Z M512 496 C384 508 335 436 335 369 C335 259 454 209 454 125 C454 85 428 52 337 61 L339 -6 C479 -17 524 58 524 128 C524 239 403 293 403 371 C403 409 425 439 514 429 L512 496 Z " />
<glyph glyph-name="Euro" unicode="&#x20ac;" horiz-adv-x="550" d="M485 47 C315 72 241 120 214 202 L425 202 L428 257 L202 257 C200 274 199 292 199 312 C199 326 199 340 200 353 L429 353 L432 409 L209 409 C231 494 299 537 478 564 L465 642 C252 602 164 524 135 414 L61 414 L61 353 L125 353 C124 338 123 323 123 308 C123 290 124 272 126 255 L62 255 L62 194 L137 194 C169 77 265 3 474 -21 L485 47 Z " />
<glyph glyph-name="peso" unicode="&#x20b1;" horiz-adv-x="550" d="M177 433 L177 558 C308 577 382 526 394 433 L177 433 Z M177 254 L177 374 L394 374 C380 280 303 246 177 254 L177 254 Z M534 368 L534 435 L471 435 C463 581 336 660 101 619 L101 435 L26 435 L26 368 L101 368 L101 0 L177 0 L177 182 C332 193 442 251 466 368 L534 368 Z " />
<glyph glyph-name="rupeeindia" unicode="&#x20b9;" horiz-adv-x="550" d="M479 29 C343 135 269 189 188 215 C303 239 374 296 391 365 L484 365 L484 423 L393 423 C384 478 346 524 282 551 L485 551 L490 620 L87 620 L82 553 C234 537 301 486 315 423 L84 423 L84 365 L315 365 C300 302 236 257 93 246 L79 186 C206 150 263 107 415 -15 L479 29 Z " />
<glyph glyph-name="ruble" unicode="&#x20bd;" horiz-adv-x="550" d="M424 449 C424 358 356 332 206 330 L206 557 C347 571 424 533 424 449 L424 449 Z M415 120 L422 179 L206 179 L206 270 C396 279 503 333 503 458 C503 595 370 651 127 619 L127 329 L43 329 L43 268 L127 268 L127 182 L43 182 L43 120 L127 120 L127 0 L206 0 L206 120 L415 120 Z " />
<glyph glyph-name="numero" unicode="&#x2116;" horiz-adv-x="550" d="M411 220 C478 220 528 297 528 432 C528 562 488 625 427 625 C361 625 311 547 311 413 C311 282 352 220 411 220 L411 220 Z M214 0 L277 -1 L277 619 L210 620 L215 208 L213 208 L106 620 L39 620 L39 0 L106 0 L101 442 L104 442 L214 0 Z M422 281 C394 281 374 332 374 426 C374 513 391 563 417 563 C444 563 465 512 465 419 C465 331 448 281 422 281 L422 281 Z M520 111 L520 170 L318 170 L318 111 L520 111 Z " />
<glyph glyph-name="published" unicode="&#x2117;" horiz-adv-x="550" d="M42 304 C42 118 132 7 266 7 C396 7 508 123 508 314 C508 505 403 613 272 613 C140 613 42 489 42 304 L42 304 Z M90 306 C90 467 163 568 270 568 C372 568 460 475 460 311 C460 145 373 52 267 52 C164 52 90 147 90 306 L90 306 Z M254 143 L254 234 C326 244 378 290 378 359 C378 445 319 483 200 466 L200 143 L254 143 Z " />
<glyph glyph-name="servicemark" unicode="&#x2120;" horiz-adv-x="550" d="M366 345 L395 345 L448 544 L451 544 L450 291 L502 291 L502 620 L438 620 L383 420 L381 420 L322 620 L259 620 L259 291 L309 291 L308 544 L311 544 L366 345 Z M37 338 L37 289 C161 287 210 336 210 384 C210 459 88 488 88 537 C88 561 114 578 194 575 L191 624 C79 628 36 576 36 532 C36 458 157 430 157 381 C157 356 126 334 37 338 L37 338 Z " />
<glyph glyph-name="trademark" unicode="&#x2122;" horiz-adv-x="550" d="M147 573 L216 573 L216 620 L23 620 L20 573 L96 573 L96 292 L147 292 L147 573 Z M366 345 L395 345 L448 544 L451 544 L450 291 L502 291 L502 620 L438 620 L383 420 L381 420 L322 620 L259 620 L259 291 L309 291 L308 544 L311 544 L366 345 Z " />
<glyph glyph-name="Omega" unicode="&#x2126;" horiz-adv-x="550" d="M229 5 C174 151 148 272 148 364 C148 487 193 559 275 559 C357 559 401 487 401 362 C401 270 377 149 322 5 L324 0 L505 0 L505 66 L406 66 C457 184 481 289 481 378 C481 531 410 634 279 634 C146 634 71 530 71 376 C71 288 94 183 144 66 L46 66 L46 0 L227 0 L229 5 Z " />
<glyph glyph-name="onethird" unicode="&#x2153;" horiz-adv-x="550" d="M433 425 L438 480 L324 480 L324 836 L260 831 L260 771 L140 755 L142 707 L260 714 L260 480 L135 480 L135 425 L433 425 Z M61 277 L489 277 L489 332 L61 332 L61 277 Z M141 -221 C348 -215 425 -162 425 -96 C425 -49 379 -10 250 10 L415 132 L411 185 L142 185 L142 128 L337 130 L337 127 L175 6 L175 -27 C311 -40 361 -67 361 -98 C361 -133 304 -156 136 -161 L141 -221 Z " />
<glyph glyph-name="twothirds" unicode="&#x2154;" horiz-adv-x="550" d="M426 425 L426 482 L213 482 C342 571 413 636 413 711 C413 777 352 830 144 829 L139 771 C301 768 347 741 347 694 C347 634 269 575 124 478 L131 425 L426 425 Z M61 277 L489 277 L489 332 L61 332 L61 277 Z M141 -221 C348 -215 425 -162 425 -96 C425 -49 379 -10 250 10 L415 132 L411 185 L142 185 L142 128 L337 130 L337 127 L175 6 L175 -27 C311 -40 361 -67 361 -98 C361 -133 304 -156 136 -161 L141 -221 Z " />
<glyph glyph-name="onefifth" unicode="&#x2155;" horiz-adv-x="550" d="M433 425 L438 480 L324 480 L324 836 L260 831 L260 771 L140 755 L142 707 L260 714 L260 480 L135 480 L135 425 L433 425 Z M61 277 L489 277 L489 332 L61 332 L61 277 Z M422 -81 C422 -27 371 18 208 33 L216 128 L404 128 L410 185 L162 185 L147 -13 C306 -24 360 -49 360 -82 C360 -124 301 -149 137 -160 L141 -221 C335 -208 422 -153 422 -81 L422 -81 Z " />
<glyph glyph-name="twofifths" unicode="&#x2156;" horiz-adv-x="550" d="M426 425 L426 482 L213 482 C342 571 413 636 413 711 C413 777 352 830 144 829 L139 771 C301 768 347 741 347 694 C347 634 269 575 124 478 L131 425 L426 425 Z M61 277 L489 277 L489 332 L61 332 L61 277 Z M422 -81 C422 -27 371 18 208 33 L216 128 L404 128 L410 185 L162 185 L147 -13 C306 -24 360 -49 360 -82 C360 -124 301 -149 137 -160 L141 -221 C335 -208 422 -153 422 -81 L422 -81 Z " />
<glyph glyph-name="threefifths" unicode="&#x2157;" horiz-adv-x="550" d="M141 414 C348 420 425 473 425 539 C425 586 379 625 250 645 L415 767 L411 820 L142 820 L142 763 L337 765 L337 762 L175 641 L175 608 C311 595 361 568 361 537 C361 502 304 479 136 474 L141 414 Z M61 277 L489 277 L489 332 L61 332 L61 277 Z M422 -81 C422 -27 371 18 208 33 L216 128 L404 128 L410 185 L162 185 L147 -13 C306 -24 360 -49 360 -82 C360 -124 301 -149 137 -160 L141 -221 C335 -208 422 -153 422 -81 L422 -81 Z " />
<glyph glyph-name="fourfifths" unicode="&#x2158;" horiz-adv-x="550" d="M445 505 L450 560 L393 559 L394 696 L332 691 L334 559 L186 560 C188 591 234 771 249 822 L179 827 C146 708 129 582 130 505 L333 506 L332 425 L394 425 L393 506 L445 505 Z M61 277 L489 277 L489 332 L61 332 L61 277 Z M422 -81 C422 -27 371 18 208 33 L216 128 L404 128 L410 185 L162 185 L147 -13 C306 -24 360 -49 360 -82 C360 -124 301 -149 137 -160 L141 -221 C335 -208 422 -153 422 -81 L422 -81 Z " />
<glyph glyph-name="onesixth" unicode="&#x2159;" horiz-adv-x="550" d="M433 425 L438 480 L324 480 L324 836 L260 831 L260 771 L140 755 L142 707 L260 714 L260 480 L135 480 L135 425 L433 425 Z M61 277 L489 277 L489 332 L61 332 L61 277 Z M275 -219 C359 -219 430 -164 430 -82 C430 36 285 68 186 -14 C199 54 251 101 376 146 L353 201 C196 144 121 53 121 -60 C121 -164 184 -219 275 -219 L275 -219 Z M281 -166 C225 -166 183 -129 183 -52 L183 -48 C272 11 368 -9 368 -87 C368 -136 330 -166 281 -166 L281 -166 Z " />
<glyph glyph-name="fivesixths" unicode="&#x215a;" horiz-adv-x="550" d="M422 554 C422 608 371 653 208 668 L216 763 L404 763 L410 820 L162 820 L147 622 C306 611 360 586 360 553 C360 511 301 486 137 475 L141 414 C335 427 422 482 422 554 L422 554 Z M61 277 L489 277 L489 332 L61 332 L61 277 Z M275 -219 C359 -219 430 -164 430 -82 C430 36 285 68 186 -14 C199 54 251 101 376 146 L353 201 C196 144 121 53 121 -60 C121 -164 184 -219 275 -219 L275 -219 Z M281 -166 C225 -166 183 -129 183 -52 L183 -48 C272 11 368 -9 368 -87 C368 -136 330 -166 281 -166 L281 -166 Z " />
<glyph glyph-name="oneeighth" unicode="&#x215b;" horiz-adv-x="550" d="M433 425 L438 480 L324 480 L324 836 L260 831 L260 771 L140 755 L142 707 L260 714 L260 480 L135 480 L135 425 L433 425 Z M61 277 L489 277 L489 332 L61 332 L61 277 Z M267 -220 C366 -220 428 -169 428 -111 C428 -63 379 -33 326 -7 C386 19 420 51 420 98 C420 156 360 194 281 194 C183 194 130 139 130 88 C130 42 173 12 221 -14 C160 -39 123 -74 123 -121 C123 -180 179 -220 267 -220 L267 -220 Z M196 93 C196 120 224 144 276 144 C328 144 358 120 358 87 C358 56 330 31 286 13 C238 36 196 59 196 93 L196 93 Z M274 -170 C218 -170 187 -144 187 -109 C187 -78 214 -52 261 -33 C313 -58 361 -81 361 -115 C361 -146 328 -170 274 -170 L274 -170 Z " />
<glyph glyph-name="threeeighths" unicode="&#x215c;" horiz-adv-x="550" d="M141 414 C348 420 425 473 425 539 C425 586 379 625 250 645 L415 767 L411 820 L142 820 L142 763 L337 765 L337 762 L175 641 L175 608 C311 595 361 568 361 537 C361 502 304 479 136 474 L141 414 Z M61 277 L489 277 L489 332 L61 332 L61 277 Z M267 -220 C366 -220 428 -169 428 -111 C428 -63 379 -33 326 -7 C386 19 420 51 420 98 C420 156 360 194 281 194 C183 194 130 139 130 88 C130 42 173 12 221 -14 C160 -39 123 -74 123 -121 C123 -180 179 -220 267 -220 L267 -220 Z M196 93 C196 120 224 144 276 144 C328 144 358 120 358 87 C358 56 330 31 286 13 C238 36 196 59 196 93 L196 93 Z M274 -170 C218 -170 187 -144 187 -109 C187 -78 214 -52 261 -33 C313 -58 361 -81 361 -115 C361 -146 328 -170 274 -170 L274 -170 Z " />
<glyph glyph-name="fiveeighths" unicode="&#x215d;" horiz-adv-x="550" d="M422 554 C422 608 371 653 208 668 L216 763 L404 763 L410 820 L162 820 L147 622 C306 611 360 586 360 553 C360 511 301 486 137 475 L141 414 C335 427 422 482 422 554 L422 554 Z M61 277 L489 277 L489 332 L61 332 L61 277 Z M267 -220 C366 -220 428 -169 428 -111 C428 -63 379 -33 326 -7 C386 19 420 51 420 98 C420 156 360 194 281 194 C183 194 130 139 130 88 C130 42 173 12 221 -14 C160 -39 123 -74 123 -121 C123 -180 179 -220 267 -220 L267 -220 Z M196 93 C196 120 224 144 276 144 C328 144 358 120 358 87 C358 56 330 31 286 13 C238 36 196 59 196 93 L196 93 Z M274 -170 C218 -170 187 -144 187 -109 C187 -78 214 -52 261 -33 C313 -58 361 -81 361 -115 C361 -146 328 -170 274 -170 L274 -170 Z " />
<glyph glyph-name="seveneighths" unicode="&#x215e;" horiz-adv-x="550" d="M248 418 C293 536 356 652 432 764 L432 820 L136 820 L131 762 L363 762 L365 759 C287 649 225 539 180 426 L248 418 Z M61 277 L489 277 L489 332 L61 332 L61 277 Z M267 -220 C366 -220 428 -169 428 -111 C428 -63 379 -33 326 -7 C386 19 420 51 420 98 C420 156 360 194 281 194 C183 194 130 139 130 88 C130 42 173 12 221 -14 C160 -39 123 -74 123 -121 C123 -180 179 -220 267 -220 L267 -220 Z M196 93 C196 120 224 144 276 144 C328 144 358 120 358 87 C358 56 330 31 286 13 C238 36 196 59 196 93 L196 93 Z M274 -170 C218 -170 187 -144 187 -109 C187 -78 214 -52 261 -33 C313 -58 361 -81 361 -115 C361 -146 328 -170 274 -170 L274 -170 Z " />
<glyph glyph-name="minus" unicode="&#x2212;" horiz-adv-x="550" d="M472 327 L78 327 L78 259 L471 259 L472 327 Z " />
<glyph glyph-name="approxequal" unicode="&#x2248;" horiz-adv-x="550" d="M362 313 C419 313 454 363 492 463 L441 484 C416 425 393 381 364 381 C316 381 269 489 191 489 C133 489 92 436 54 334 L104 314 C131 375 154 420 184 420 C234 420 283 313 362 313 L362 313 Z M362 100 C419 100 454 150 492 250 L442 271 C416 212 393 168 364 168 C316 168 269 276 191 276 C133 276 92 223 54 121 L105 101 C131 162 155 207 185 207 C234 207 283 100 362 100 L362 100 Z " />
<glyph glyph-name="notequal" unicode="&#x2260;" horiz-adv-x="550" d="M471 151 L472 220 L281 220 L338 373 L471 373 L472 442 L363 442 L409 566 L347 585 L295 442 L78 442 L78 373 L269 373 L213 220 L78 220 L78 151 L188 151 L142 26 L203 7 L256 151 L471 151 Z " />
<glyph glyph-name="lessequal" unicode="&#x2264;" horiz-adv-x="550" d="M167 358 L456 533 L422 594 L85 383 L83 318 L429 134 L457 198 L167 350 L167 358 Z M475 84 L75 84 L75 15 L475 15 L475 84 Z " />
<glyph glyph-name="greaterequal" unicode="&#x2265;" horiz-adv-x="550" d="M383 358 L383 350 L94 198 L121 134 L467 318 L466 383 L128 594 L95 533 L383 358 Z M75 84 L75 15 L475 15 L475 84 L75 84 Z " />
<glyph glyph-name="hcoslug" unicode="&#xe10b;" horiz-adv-x="550" d="M500 700 L50 700 L50 -100 L500 -100 L500 700 Z M200 296 C200 279 211 268 228 252 C237 265 242 277 242 289 C242 307 233 318 220 318 C208 318 200 309 200 296 L200 296 Z M249 232 C261 220 270 208 279 197 C294 222 297 240 280 257 C273 250 263 241 249 232 L249 232 Z M210 139 C222 139 231 142 239 148 C218 175 197 197 183 210 C175 202 171 191 171 180 C171 157 188 139 210 139 L210 139 Z M301 173 C320 151 333 142 348 142 C363 142 372 151 380 164 L385 163 C384 119 357 92 325 92 C303 92 286 100 261 126 C240 103 215 92 183 92 C138 92 102 122 102 162 C102 193 123 217 163 230 C147 247 140 260 140 282 C140 314 171 346 222 346 C268 346 293 316 293 290 C293 280 291 272 286 265 C306 265 321 257 323 237 C335 255 349 265 368 265 C389 265 405 250 405 226 C405 203 389 186 368 186 C354 186 342 193 336 205 C324 198 312 188 301 173 L301 173 Z M229 68 L229 60 L239 60 L239 55 L229 55 L229 40 C229 37 230 36 232 36 C234 36 235 37 236 41 L240 40 C238 33 235 30 229 30 C223 30 220 34 220 40 L220 55 L215 55 L215 60 L220 60 L220 67 L229 68 Z M145 46 C145 55 152 61 161 61 C170 61 177 55 177 46 C177 37 170 30 161 30 C152 30 145 36 145 46 L145 46 Z M167 46 C167 54 165 57 161 57 C157 57 155 54 155 46 C155 37 157 34 161 34 C165 34 167 37 167 46 L167 46 Z M299 45 C299 51 297 55 294 55 C289 55 288 50 288 45 C288 39 289 35 294 35 C297 35 299 39 299 45 L299 45 Z M179 36 L183 36 L183 55 L179 55 L179 60 L192 60 L192 54 C194 58 197 61 202 61 C209 61 211 56 211 50 L211 36 L216 36 L216 31 L199 31 L199 36 L202 36 L202 49 C202 52 201 55 198 55 C195 55 192 52 192 47 L192 36 L195 36 L195 31 L179 31 L179 36 Z M108 36 L114 36 L114 67 L108 67 L108 72 L146 72 L146 57 L141 57 C139 65 138 67 132 67 L124 67 L124 53 L127 53 C131 53 131 54 132 59 L137 59 L137 42 L132 42 C131 47 131 48 127 48 L124 48 L124 36 L131 36 L131 31 L108 31 L108 36 Z M241 41 L246 41 C249 37 252 34 255 34 C258 34 259 36 259 37 C259 44 241 40 241 52 C241 56 245 61 252 61 C255 61 258 60 260 57 L261 61 L266 61 L266 51 L261 51 C258 55 256 56 253 56 C251 56 249 55 249 53 C249 48 267 50 267 39 C267 34 264 30 257 30 C252 30 249 32 247 34 L246 31 L241 31 L241 41 Z M279 69 L274 69 L274 74 L288 74 L288 54 C289 58 293 61 297 61 C304 61 309 55 309 46 C309 39 306 30 297 30 C291 30 288 32 286 36 L283 30 L279 30 L279 69 Z M318 24 C321 24 324 26 324 30 C321 37 312 55 312 55 L309 55 L309 60 L327 60 L327 55 L323 55 L330 40 L336 55 L332 55 L332 60 L345 60 L345 55 L341 55 L331 31 C328 24 324 19 318 19 C312 19 309 22 309 26 C309 29 311 31 314 31 C319 31 320 26 318 24 L318 24 Z M363 0 L363 -6 L359 -6 C357 -10 355 -13 352 -16 C354 -18 356 -20 357 -20 C358 -20 359 -19 360 -16 L363 -17 C362 -22 360 -26 354 -26 C350 -26 348 -24 345 -21 C342 -24 338 -26 332 -26 C325 -26 320 -22 320 -16 C320 -10 324 -7 330 -5 C327 -2 325 1 325 5 C325 10 329 16 338 16 C344 16 348 12 348 7 C348 2 345 0 340 -3 C342 -5 346 -10 349 -13 C351 -11 353 -8 354 -6 L349 -6 L349 0 L363 0 Z M235 4 L246 4 L246 8 C243 8 241 10 241 12 C241 14 242 15 242 15 C242 15 241 16 239 16 C237 16 235 14 235 8 L235 4 Z M367 -5 C367 10 376 18 387 18 C392 18 396 16 399 13 L399 17 L405 17 L405 1 L399 1 C396 10 394 13 388 13 C382 13 378 8 378 -4 C378 -15 382 -21 390 -21 C396 -21 399 -15 400 -9 L406 -9 C405 -19 399 -26 388 -26 C375 -26 367 -19 367 -5 L367 -5 Z M338 -1 C340 0 342 3 342 6 C342 9 340 11 337 11 C335 11 333 10 333 7 C333 5 335 2 338 -1 L338 -1 Z M270 -12 C270 -18 272 -21 277 -21 C281 -21 283 -19 284 -15 L289 -15 C288 -21 284 -26 276 -26 C266 -26 260 -20 260 -11 C260 -1 267 5 275 5 C286 5 290 -2 289 -12 L270 -12 Z M200 -12 C200 -18 202 -21 207 -21 C211 -21 213 -19 214 -15 L219 -15 C218 -21 214 -26 206 -26 C196 -26 190 -20 190 -11 C190 -1 197 5 205 5 C216 5 220 -2 219 -12 L200 -12 Z M156 -10 C156 -1 163 5 172 5 C181 5 188 -1 188 -10 C188 -19 181 -26 172 -26 C163 -26 156 -20 156 -10 L156 -10 Z M408 -10 C408 -1 415 5 424 5 C433 5 440 -1 440 -10 C440 -19 433 -26 424 -26 C415 -26 408 -20 408 -10 L408 -10 Z M270 -8 L280 -8 C280 -2 279 1 275 1 C272 1 270 -1 270 -8 L270 -8 Z M200 -8 L210 -8 C210 -2 209 1 205 1 C202 1 200 -1 200 -8 L200 -8 Z M178 -10 C178 -2 176 1 172 1 C168 1 166 -2 166 -10 C166 -19 168 -22 172 -22 C176 -22 178 -19 178 -10 L178 -10 Z M430 -10 C430 -2 428 1 424 1 C420 1 418 -2 418 -10 C418 -19 420 -22 424 -22 C428 -22 430 -19 430 -10 L430 -10 Z M222 -20 L226 -20 L226 -1 L221 -1 L221 4 L226 4 L226 5 C226 15 233 19 239 19 C243 19 245 18 247 17 L255 19 L255 -20 L259 -20 L259 -25 L242 -25 L242 -20 L246 -20 L246 -1 L235 -1 L235 -20 L239 -20 L239 -25 L222 -25 L222 -20 Z M291 -20 L295 -20 L295 -1 L291 -1 L291 4 L304 4 L304 -2 C306 3 309 5 313 5 C317 5 319 3 319 -1 C319 -4 317 -6 314 -6 C312 -6 309 -5 309 -2 L309 -1 C308 -1 305 -4 304 -8 L304 -20 L310 -20 L310 -25 L291 -25 L291 -20 Z M108 -20 L114 -20 L114 11 L108 11 L108 16 L129 16 L129 11 L124 11 L124 -1 L140 -1 L140 11 L135 11 L135 16 L156 16 L156 11 L150 11 L150 -20 L156 -20 L156 -25 L135 -25 L135 -20 L140 -20 L140 -6 L124 -6 L124 -20 L129 -20 L129 -25 L108 -25 L108 -20 Z M342 -18 C340 -16 336 -11 332 -7 C330 -9 329 -11 329 -14 C329 -18 332 -21 336 -21 C338 -21 340 -20 342 -18 L342 -18 Z M453 -20 C453 -23 451 -26 447 -26 C443 -26 441 -23 441 -20 C441 -17 443 -14 447 -14 C451 -14 453 -17 453 -20 L453 -20 Z " />
<glyph glyph-name="check.1" unicode="&#xe10c;" horiz-adv-x="550" d="M509 657 L427 683 C358 507 299 304 254 85 L250 85 L139 355 L69 324 L219 -25 L290 -19 C348 224 421 450 509 657 L509 657 Z " />
<glyph glyph-name="check.2" unicode="&#xe10d;" horiz-adv-x="550" d="M354 -7 L432 11 L297 272 L493 655 L413 686 L254 334 L170 506 L95 479 L211 262 L87 6 L139 -12 L251 206 L354 -7 Z " />
</font>
</svg>
