<?xml version="1.0" encoding="UTF-8"?>
<svg xmlns="http://www.w3.org/2000/svg" xmlns:xlink="http://www.w3.org/1999/xlink" version="1.2" >
<font id="Operator Mono Book Italic">
<font-face  font-family="Operator Mono" units-per-em="1000" ascent="800" descent="-200" font-style="italic" font-weight="325" font-stretch="normal" slope="-11" cap-height="620" x-height="490" underline-position="-83" underline-thickness="64" />
<missing-glyph  horiz-adv-x="550" d="M8 -200 L548 -200 L533 800 L-7 800 L8 -200 Z M70 750 L457 750 L269 360 L70 750 Z M481 676 L492 -76 L301 300 L481 676 Z M60 -76 L49 676 L240 300 L60 -76 Z M271 240 L471 -150 L84 -150 L271 240 Z " />
<glyph glyph-name="CR" unicode="&#xd;" horiz-adv-x="250" d="" />
<glyph glyph-name="space" unicode="&#x20;" horiz-adv-x="550" d="" />
<glyph glyph-name="exclam" unicode="&#x21;" horiz-adv-x="550" d="M295 233 C314 322 387 583 409 676 L307 676 C291 583 260 322 243 233 L295 233 Z M272 0 L294 110 L187 110 L164 0 L272 0 Z " />
<glyph glyph-name="quotedbl" unicode="&#x22;" horiz-adv-x="550" d="M426 384 L511 633 L515 669 L419 669 L371 384 L426 384 Z M213 384 L298 633 L302 669 L206 669 L158 384 L213 384 Z " />
<glyph glyph-name="numbersign" unicode="&#x23;" horiz-adv-x="550" d="M206 233 L241 377 L366 398 L331 253 L206 233 Z M148 -11 L190 164 L315 184 L273 7 L330 14 L373 193 L476 210 L491 279 L389 263 L424 407 L527 424 L541 492 L440 476 L481 646 L423 639 L382 466 L257 446 L299 621 L241 614 L199 437 L96 420 L82 351 L182 367 L148 223 L46 207 L31 138 L131 154 L90 -18 L148 -11 Z " />
<glyph glyph-name="dollar" unicode="&#x24;" horiz-adv-x="550" d="M203 473 C203 505 240 532 331 528 L282 365 C238 405 203 441 203 473 L203 473 Z M381 150 C381 116 341 89 249 90 L299 258 C345 219 381 183 381 150 L381 150 Z M208 -81 L236 25 C394 26 455 88 455 149 C455 212 388 273 323 329 L383 523 C418 518 459 509 507 496 L521 568 C481 577 444 584 411 588 L448 700 L376 700 L343 593 C189 595 129 533 129 470 C129 408 194 349 257 294 L196 94 C156 98 108 107 53 121 L37 48 C86 38 130 31 169 28 L137 -80 L208 -81 Z " />
<glyph glyph-name="percent" unicode="&#x25;" horiz-adv-x="550" d="M222 633 C169 633 116 560 116 473 C116 411 145 376 183 376 C236 376 289 448 289 536 C289 597 260 633 222 633 L222 633 Z M551 589 L505 627 L53 31 L98 -7 L551 589 Z M382 -13 C435 -13 488 63 488 147 C488 209 459 244 421 244 C368 244 315 167 315 82 C315 22 344 -13 382 -13 L382 -13 Z " />
<glyph glyph-name="ampersand" unicode="&#x26;" horiz-adv-x="550" d="M459 -19 L522 32 C475 79 435 124 403 170 C443 220 483 280 523 350 L457 374 C427 315 397 265 367 223 C330 286 308 349 300 414 C360 474 395 539 395 588 C395 621 373 640 341 640 C290 640 227 543 227 436 C227 434 227 431 227 429 C99 320 19 211 19 111 C19 36 60 -10 134 -10 C198 -10 273 31 350 109 C381 66 418 23 459 -19 L459 -19 Z M157 61 C119 61 95 85 95 128 C95 197 153 277 235 357 C247 291 275 225 316 159 C255 92 199 61 157 61 L157 61 Z " />
<glyph glyph-name="quotesingle" unicode="&#x27;" horiz-adv-x="550" d="M320 384 L409 633 L412 669 L313 669 L264 384 L320 384 Z " />
<glyph glyph-name="parenleft" unicode="&#x28;" horiz-adv-x="550" d="M491 716 C223 535 117 382 117 215 C117 92 178 -41 325 -203 L386 -158 C249 -13 194 105 194 216 C194 363 278 497 533 662 L491 716 Z " />
<glyph glyph-name="parenright" unicode="&#x29;" horiz-adv-x="550" d="M52 -212 C320 -31 426 122 426 289 C426 412 365 545 218 707 L157 662 C295 517 350 399 350 288 C350 141 265 7 10 -158 L52 -212 Z " />
<glyph glyph-name="asterisk" unicode="&#x2a;" horiz-adv-x="550" d="M363 263 L409 281 L374 433 L530 458 L528 507 L372 522 L395 678 L346 691 L282 546 L144 617 L116 576 L235 471 L125 361 L156 322 L291 401 L363 263 Z " />
<glyph glyph-name="plus" unicode="&#x2b;" horiz-adv-x="550" d="M495 259 L509 326 L327 326 L363 513 L292 513 L256 326 L74 326 L61 259 L243 259 L206 71 L277 71 L314 259 L495 259 Z " />
<glyph glyph-name="comma" unicode="&#x2c;" horiz-adv-x="550" d="M115 -157 L147 -176 C254 -87 303 -4 306 120 L197 117 C210 1 194 -70 115 -157 L115 -157 Z " />
<glyph glyph-name="hyphen" unicode="&#x2d;" horiz-adv-x="550" d="M433 327 L136 327 L123 259 L421 259 L433 327 Z " />
<glyph glyph-name="period" unicode="&#x2e;" horiz-adv-x="550" d="M285 0 L308 116 L198 116 L176 0 L285 0 Z " />
<glyph glyph-name="slash" unicode="&#x2f;" horiz-adv-x="550" d="M550 718 L-63 -162 L7 -182 L613 689 L550 718 Z " />
<glyph glyph-name="zero" unicode="0" horiz-adv-x="550" d="M60 218 C60 65 129 -12 233 -12 C394 -12 516 186 516 403 C516 554 446 632 342 632 C182 632 60 435 60 218 L60 218 Z M328 566 C391 566 431 518 437 421 L139 267 C151 419 226 566 328 566 L328 566 Z M248 54 C184 54 144 103 139 201 L437 356 C426 203 351 54 248 54 L248 54 Z " />
<glyph glyph-name="one" unicode="1" horiz-adv-x="550" d="M441 0 L460 67 L309 67 L420 645 L343 639 L328 563 L167 544 L158 487 L315 494 L232 67 L66 67 L52 0 L441 0 Z " />
<glyph glyph-name="two" unicode="2" horiz-adv-x="550" d="M437 0 L451 69 L150 69 C373 220 499 326 499 463 C499 591 384 651 161 616 L149 541 C350 572 420 526 420 443 C420 329 282 225 42 62 L43 0 L437 0 Z " />
<glyph glyph-name="three" unicode="3" horiz-adv-x="550" d="M471 172 C471 239 415 304 251 348 L521 554 L529 620 L169 620 L156 551 L434 551 L161 345 L156 308 C335 265 396 214 396 160 C396 103 332 44 63 75 L54 0 C370 -29 471 78 471 172 L471 172 Z " />
<glyph glyph-name="four" unicode="4" horiz-adv-x="550" d="M481 131 L502 200 L428 200 L470 419 L397 412 L355 200 L131 200 C208 318 265 428 329 622 L246 627 C188 436 134 320 54 183 L50 131 L342 131 L316 0 L389 0 L414 131 L481 131 Z " />
<glyph glyph-name="five" unicode="5" horiz-adv-x="550" d="M470 197 C470 271 408 341 213 380 L253 551 L509 551 L529 620 L198 620 L129 330 C330 296 395 243 395 183 C395 117 319 49 62 75 L52 0 C358 -26 470 91 470 197 L470 197 Z " />
<glyph glyph-name="six" unicode="6" horiz-adv-x="550" d="M255 -11 C379 -11 479 81 479 213 C479 377 307 437 157 307 C188 405 276 510 483 570 L466 640 C171 547 69 360 69 198 C69 57 148 -11 255 -11 L255 -11 Z M270 53 C202 53 143 96 143 215 C143 227 144 240 145 253 C277 368 407 321 407 202 C407 118 353 53 270 53 L270 53 Z " />
<glyph glyph-name="seven" unicode="7" horiz-adv-x="550" d="M183 -5 C283 183 404 375 545 556 L559 620 L156 620 L141 549 L459 549 L459 545 C319 369 201 187 103 3 L183 -5 Z " />
<glyph glyph-name="eight" unicode="8" horiz-adv-x="550" d="M450 148 C450 214 391 275 331 332 C384 363 449 400 530 443 L505 491 C419 445 348 405 291 370 C247 412 212 452 212 490 C212 543 270 586 445 546 L467 622 C254 654 138 572 138 479 C138 425 179 376 226 329 C83 235 51 181 51 122 C51 42 123 -12 232 -12 C358 -12 450 62 450 148 L450 148 Z M250 52 C181 52 127 83 127 139 C127 175 147 213 267 291 C323 240 377 191 377 142 C377 92 323 52 250 52 L250 52 Z " />
<glyph glyph-name="nine" unicode="9" horiz-adv-x="550" d="M110 -19 C404 75 507 261 507 424 C507 565 428 633 321 633 C198 633 97 541 97 409 C97 244 268 185 418 314 C387 216 298 112 92 52 L110 -19 Z M169 420 C169 503 222 568 306 568 C374 568 432 526 432 406 C432 394 431 381 430 368 C298 254 169 300 169 420 L169 420 Z " />
<glyph glyph-name="colon" unicode="&#x3a;" horiz-adv-x="550" d="M351 330 L374 446 L264 446 L241 330 L351 330 Z M282 0 L305 116 L195 116 L172 0 L282 0 Z " />
<glyph glyph-name="semicolon" unicode="&#x3b;" horiz-adv-x="550" d="M351 330 L374 446 L264 446 L241 330 L351 330 Z M114 -158 L146 -176 C254 -86 301 -3 306 118 L198 115 C209 -1 192 -71 114 -158 L114 -158 Z " />
<glyph glyph-name="less" unicode="&#x3c;" horiz-adv-x="550" d="M478 599 L100 336 L88 269 L367 -19 L421 34 L166 291 L168 301 L512 538 L478 599 Z " />
<glyph glyph-name="equal" unicode="&#x3d;" horiz-adv-x="550" d="M514 440 L114 440 L101 374 L500 374 L514 440 Z M471 218 L71 218 L58 152 L457 152 L471 218 Z " />
<glyph glyph-name="greater" unicode="&#x3e;" horiz-adv-x="550" d="M97 -19 L475 244 L487 312 L208 599 L154 546 L409 289 L407 280 L63 42 L97 -19 Z " />
<glyph glyph-name="question" unicode="&#x3f;" horiz-adv-x="550" d="M140 600 C330 578 427 548 427 475 C427 418 369 364 193 273 L218 230 C433 338 516 419 516 503 C516 598 400 653 156 679 L140 600 Z M225 0 L247 109 L140 109 L118 0 L225 0 Z " />
<glyph glyph-name="at" unicode="&#x40;" horiz-adv-x="550" d="M407 -142 L416 -79 C195 -129 115 -48 115 129 C115 381 253 622 399 622 C471 622 496 570 482 475 C464 478 447 479 433 479 C306 479 226 326 226 184 C226 98 256 58 299 58 C334 58 377 83 413 117 L408 65 L475 64 C483 120 493 182 503 232 L544 432 C577 595 533 683 413 683 C209 683 49 406 49 124 C49 -86 150 -197 407 -142 L407 -142 Z M334 125 C312 125 294 146 294 198 C294 298 349 419 406 419 C422 419 446 414 469 406 L420 166 C391 141 356 125 334 125 L334 125 Z " />
<glyph glyph-name="A" unicode="A" horiz-adv-x="550" d="M390 -3 L470 3 C453 210 433 416 411 622 L297 622 C193 415 92 207 -3 0 L79 0 C107 63 136 126 165 189 L376 189 C381 125 385 61 390 -3 L390 -3 Z M337 551 L344 551 C354 452 363 351 371 251 L194 251 C241 351 288 452 337 551 L337 551 Z " />
<glyph glyph-name="B" unicode="B" horiz-adv-x="550" d="M488 188 C488 253 437 304 359 320 C459 351 519 415 519 491 C519 586 416 654 170 618 L50 0 C371 -38 488 76 488 188 L488 188 Z M440 473 C440 404 368 342 195 334 L239 559 C375 574 440 535 440 473 L440 473 Z M409 182 C409 106 327 45 144 66 L186 285 C344 295 409 250 409 182 L409 182 Z " />
<glyph glyph-name="C" unicode="C" horiz-adv-x="550" d="M377 633 C203 633 65 435 65 223 C65 14 208 -65 452 22 L460 95 C254 19 146 67 146 237 C146 393 238 561 361 561 C432 561 443 507 441 401 L517 402 C524 554 491 633 377 633 L377 633 Z " />
<glyph glyph-name="D" unicode="D" horiz-adv-x="550" d="M522 384 C522 578 396 657 163 618 L43 0 C375 -43 522 156 522 384 L522 384 Z M441 375 C441 199 342 47 136 64 L232 557 C369 572 441 514 441 375 L441 375 Z " />
<glyph glyph-name="E" unicode="E" horiz-adv-x="550" d="M443 69 L152 69 L194 283 L438 283 L450 344 L206 344 L246 551 L534 551 L548 620 L178 620 L58 0 L425 0 L443 69 Z " />
<glyph glyph-name="F" unicode="F" horiz-adv-x="550" d="M447 268 L459 331 L205 331 L248 550 L548 550 L560 620 L180 620 L60 0 L141 0 L193 268 L447 268 Z " />
<glyph glyph-name="G" unicode="G" horiz-adv-x="550" d="M403 -109 L486 243 L409 240 L372 76 C225 27 146 81 146 232 C146 391 235 561 354 561 C422 561 435 506 432 402 L508 402 C515 559 477 633 367 633 C202 633 64 434 64 219 C64 36 173 -47 356 4 L330 -110 L403 -109 Z " />
<glyph glyph-name="H" unicode="H" horiz-adv-x="550" d="M349 0 L431 0 L551 620 L469 620 L416 346 L188 346 L241 620 L160 620 L40 0 L121 0 L176 282 L404 282 L349 0 Z " />
<glyph glyph-name="I" unicode="I" horiz-adv-x="550" d="M277 65 L372 555 L517 555 L529 620 L154 620 L141 555 L291 555 L196 65 L49 65 L36 0 L412 0 L427 65 L277 65 Z " />
<glyph glyph-name="J" unicode="J" horiz-adv-x="550" d="M353 50 C380 77 394 111 426 282 L492 620 L207 620 L193 555 L398 555 L343 273 C317 143 308 112 289 93 C262 65 207 61 53 63 L40 -11 C227 -12 311 8 353 50 L353 50 Z " />
<glyph glyph-name="K" unicode="K" horiz-adv-x="550" d="M394 -6 L480 5 L302 311 L583 620 L495 620 L213 312 L394 -6 Z M170 620 L49 0 L130 0 L251 620 L170 620 Z " />
<glyph glyph-name="L" unicode="L" horiz-adv-x="550" d="M446 0 L461 70 L157 70 L263 620 L181 620 L61 0 L446 0 Z " />
<glyph glyph-name="M" unicode="M" horiz-adv-x="550" d="M245 622 L152 618 L33 0 L107 0 L198 488 L201 488 L229 108 L282 108 L462 488 L466 488 L368 0 L446 0 L565 620 L469 620 L277 209 L274 209 L245 622 Z " />
<glyph glyph-name="N" unicode="N" horiz-adv-x="550" d="M355 0 L432 0 L553 620 L477 620 L386 141 L381 141 L245 621 L160 619 L40 0 L116 0 L208 489 L213 489 L355 0 Z " />
<glyph glyph-name="O" unicode="O" horiz-adv-x="550" d="M350 632 C181 632 60 428 60 220 C60 63 134 -12 240 -12 C409 -12 530 191 530 399 C530 556 456 632 350 632 L350 632 Z M251 58 C186 58 144 112 144 225 C144 391 224 562 339 562 C404 562 446 508 446 395 C446 229 366 58 251 58 L251 58 Z " />
<glyph glyph-name="P" unicode="P" horiz-adv-x="550" d="M133 0 L172 199 C405 221 541 316 541 457 C541 572 436 653 172 617 L52 0 L133 0 Z M462 444 C462 342 365 271 186 274 L241 554 C392 571 462 522 462 444 L462 444 Z " />
<glyph glyph-name="Q" unicode="Q" horiz-adv-x="550" d="M415 -138 L449 -72 L238 21 C404 104 533 256 533 424 C533 548 469 633 344 633 C137 633 9 386 108 111 L177 137 C109 388 200 564 330 564 C407 564 450 513 450 419 C450 269 327 117 150 46 L130 -12 L415 -138 Z " />
<glyph glyph-name="R" unicode="R" horiz-adv-x="550" d="M401 -6 L489 6 L333 266 C450 323 520 390 520 481 C520 580 426 652 168 618 L48 0 L128 0 L236 554 C372 570 439 534 439 465 C439 395 381 343 239 280 L238 277 L401 -6 Z " />
<glyph glyph-name="S" unicode="S" horiz-adv-x="550" d="M512 460 C496 571 443 631 340 631 C213 631 123 544 123 449 C123 304 378 240 378 138 C378 77 295 30 45 94 L29 14 C340 -52 461 44 461 145 C461 284 205 344 205 459 C205 515 253 563 321 563 C388 563 426 528 440 446 L512 460 Z " />
<glyph glyph-name="T" unicode="T" horiz-adv-x="550" d="M375 550 L567 550 L580 620 L115 620 L102 550 L294 550 L187 0 L268 0 L375 550 Z " />
<glyph glyph-name="U" unicode="U" horiz-adv-x="550" d="M160 221 L237 620 L156 620 L78 220 C48 62 115 -14 244 -14 C361 -14 443 55 471 202 L553 620 L472 620 L390 200 C371 102 325 57 253 57 C172 57 137 107 160 221 L160 221 Z " />
<glyph glyph-name="V" unicode="V" horiz-adv-x="550" d="M284 0 C391 207 494 414 589 620 L508 620 C425 438 336 256 245 74 L237 74 C219 256 201 442 189 623 L109 617 C124 411 144 207 170 0 L284 0 Z " />
<glyph glyph-name="W" unicode="W" horiz-adv-x="550" d="M324 0 L410 0 C449 117 516 353 580 620 L502 620 C473 495 393 167 374 105 L371 105 L348 436 L299 436 L148 105 L144 105 C149 167 196 495 215 620 L135 620 C96 354 72 118 67 0 L152 0 L301 327 L324 0 Z " />
<glyph glyph-name="X" unicode="X" horiz-adv-x="550" d="M383 -3 L467 3 L339 305 L587 620 L498 620 L306 364 L200 623 L118 617 L246 315 L-1 0 L86 0 L279 255 L383 -3 Z " />
<glyph glyph-name="Y" unicode="Y" horiz-adv-x="550" d="M269 0 L308 203 L594 620 L507 620 L285 286 L188 622 L105 618 L228 209 L188 0 L269 0 Z " />
<glyph glyph-name="Z" unicode="Z" horiz-adv-x="550" d="M437 0 L450 71 L129 70 L540 551 L552 620 L149 620 L135 549 L449 550 L35 69 L23 0 L437 0 Z " />
<glyph glyph-name="bracketleft" unicode="&#x5b;" horiz-adv-x="550" d="M61 -179 L372 -179 L385 -115 L151 -115 L296 630 L529 630 L542 694 L231 694 L61 -179 Z " />
<glyph glyph-name="backslash" unicode="&#x5c;" horiz-adv-x="550" d="M172 718 L107 697 L383 -186 L449 -166 L172 718 Z " />
<glyph glyph-name="bracketright" unicode="&#x5d;" horiz-adv-x="550" d="M486 695 L175 695 L163 631 L396 631 L252 -114 L19 -114 L6 -178 L316 -178 L486 695 Z " />
<glyph glyph-name="asciicircum" unicode="&#x5e;" horiz-adv-x="550" d="M434 158 L499 199 L320 496 L303 493 L48 199 L98 156 L298 391 L434 158 Z " />
<glyph glyph-name="underscore" unicode="&#x5f;" horiz-adv-x="550" d="M465 -50 L-21 -50 L-33 -112 L453 -112 L465 -50 Z " />
<glyph glyph-name="grave" unicode="&#x60;" horiz-adv-x="550" d="M387 585 C330 629 250 708 200 767 L147 705 C205 652 304 585 367 552 L387 585 Z " />
<glyph glyph-name="a" unicode="a" horiz-adv-x="550" d="M193 63 C157 63 129 92 129 161 C129 298 208 433 306 433 C329 433 364 428 400 417 C385 341 358 204 348 153 C299 104 235 63 193 63 L193 63 Z M513 37 L505 77 C411 42 405 58 419 127 L488 479 C437 493 390 500 348 500 C171 500 50 326 50 143 C50 40 94 -10 154 -10 C210 -10 281 37 340 95 C328 -8 367 -49 513 37 L513 37 Z " />
<glyph glyph-name="b" unicode="b" horiz-adv-x="550" d="M201 -10 C378 -10 499 158 499 338 C499 448 452 502 388 502 C333 502 263 456 205 401 L264 703 L187 697 L54 14 C102 0 157 -10 201 -10 L201 -10 Z M242 56 C217 56 181 62 142 73 L193 337 C241 387 306 430 351 430 C389 430 421 396 421 319 C421 186 341 56 242 56 L242 56 Z " />
<glyph glyph-name="c" unicode="c" horiz-adv-x="550" d="M493 334 C498 452 456 501 364 501 C206 501 70 347 70 176 C70 13 206 -76 459 47 L449 89 C240 23 148 61 148 189 C148 319 236 434 344 434 C397 434 420 408 421 334 L493 334 Z " />
<glyph glyph-name="d" unicode="d" horiz-adv-x="550" d="M197 63 C158 63 128 98 128 172 C128 304 207 436 304 436 C327 436 363 430 401 419 L348 149 C302 101 241 63 197 63 L197 63 Z M517 38 L508 77 C413 41 407 57 421 129 L533 703 L455 697 L416 495 C389 499 365 501 343 501 C169 501 50 332 50 152 C50 44 97 -10 159 -10 C214 -10 284 34 340 90 C330 -9 371 -47 517 38 L517 38 Z " />
<glyph glyph-name="e" unicode="e" horiz-adv-x="550" d="M470 56 L460 97 C233 22 138 55 138 184 L138 185 C368 202 497 271 497 385 C497 457 444 502 358 502 C189 502 62 329 62 174 C62 10 204 -80 470 56 L470 56 Z M339 437 C390 437 422 410 422 370 C422 288 312 243 142 231 C159 335 233 437 339 437 L339 437 Z " />
<glyph glyph-name="f" unicode="f" horiz-adv-x="550" d="M403 2 C403 79 352 168 232 259 L483 255 L495 319 L199 319 C257 486 357 623 445 623 C506 623 516 556 439 465 L472 448 C603 584 583 705 474 705 C341 705 198 527 125 319 L79 319 L68 272 L105 256 C86 187 75 117 75 50 C75 -108 142 -179 227 -179 C318 -179 403 -105 403 2 L403 2 Z M255 -115 C199 -115 151 -72 151 55 C151 113 159 174 174 234 C296 147 348 62 348 -13 C348 -76 306 -115 255 -115 L255 -115 Z " />
<glyph glyph-name="g" unicode="g" horiz-adv-x="550" d="M211 96 C167 96 134 128 134 197 C134 312 207 436 307 436 C334 436 370 427 409 407 C386 349 364 271 355 200 C311 133 259 96 211 96 L211 96 Z M422 -82 C447 -32 422 38 422 168 C422 181 423 197 424 214 C476 315 521 439 521 474 C521 489 489 502 469 502 C462 502 453 493 443 477 C409 493 375 501 339 501 C174 501 56 343 56 178 C56 75 107 24 175 24 C240 24 303 70 352 131 C354 28 376 -46 351 -70 C331 -91 247 -110 53 -94 L45 -170 C282 -184 391 -144 422 -82 L422 -82 Z " />
<glyph glyph-name="h" unicode="h" horiz-adv-x="550" d="M514 36 L503 77 C431 48 418 55 418 82 C418 139 485 309 485 408 C485 460 462 501 399 501 C338 501 269 464 199 389 L260 703 L182 697 L47 0 L123 0 L186 323 C251 393 309 428 352 428 C386 428 402 408 402 371 C402 291 337 127 337 50 C337 -16 394 -38 514 36 L514 36 Z " />
<glyph glyph-name="i" unicode="i" horiz-adv-x="550" d="M370 574 L410 708 L320 703 L289 570 L370 574 Z M473 44 L464 87 C262 36 236 55 259 145 L349 489 L280 490 L74 439 L79 397 L256 421 L180 132 C142 -11 226 -57 473 44 L473 44 Z " />
<glyph glyph-name="j" unicode="j" horiz-adv-x="550" d="M430 574 L471 709 L381 705 L348 570 L430 574 Z M2 -173 C197 -172 256 -160 293 -123 C360 -57 296 104 409 490 L338 491 L119 446 L126 405 L315 423 C232 100 276 -41 238 -79 C219 -98 194 -101 7 -97 L2 -173 Z " />
<glyph glyph-name="k" unicode="k" horiz-adv-x="550" d="M403 -6 L492 6 L315 201 C460 279 516 354 516 419 C516 468 483 501 425 501 C362 501 282 461 205 383 L267 703 L189 697 L54 0 L131 0 L192 315 C266 390 335 429 384 429 C414 429 432 414 432 387 C432 345 385 282 223 198 L403 -6 Z " />
<glyph glyph-name="l" unicode="l" horiz-adv-x="550" d="M463 65 L448 105 C296 32 216 36 205 162 C437 328 533 483 533 602 C533 668 498 706 439 706 C298 706 125 450 125 178 C125 174 125 169 125 165 C103 150 70 129 61 123 L82 87 C88 91 110 105 130 117 C154 -32 277 -46 463 65 L463 65 Z M412 629 C440 629 459 609 459 569 C459 487 390 362 204 216 C212 435 328 629 412 629 L412 629 Z " />
<glyph glyph-name="m" unicode="m" horiz-adv-x="550" d="M526 21 L516 62 C474 46 463 49 463 68 C463 121 535 338 535 431 C535 477 514 501 477 501 C440 501 394 474 346 421 C349 473 329 501 291 501 C258 501 217 477 173 428 C177 450 181 479 182 492 L111 487 C87 343 66 233 20 0 L95 0 C111 81 146 261 166 371 C202 408 233 426 255 426 C283 426 285 396 275 346 L207 0 L268 0 L340 370 C376 408 408 426 430 426 C448 426 455 413 455 392 C455 320 387 104 387 37 C387 -16 429 -27 526 21 L526 21 Z " />
<glyph glyph-name="n" unicode="n" horiz-adv-x="550" d="M514 36 L503 77 C431 48 418 55 418 82 C418 139 485 309 485 408 C485 460 462 501 399 501 C338 501 267 463 197 390 C202 428 209 476 212 493 L136 488 C114 343 92 233 47 0 L123 0 C137 69 177 268 188 330 C252 395 310 428 352 428 C386 428 402 408 402 371 C402 290 337 127 337 50 C337 -16 394 -38 514 36 L514 36 Z " />
<glyph glyph-name="o" unicode="o" horiz-adv-x="550" d="M54 188 C54 59 124 -11 233 -11 C381 -11 497 128 497 302 C497 431 425 502 317 502 C168 502 54 360 54 188 L54 188 Z M417 291 C417 164 347 54 246 54 C174 54 133 107 133 199 C133 325 202 437 304 437 C376 437 417 383 417 291 L417 291 Z " />
<glyph glyph-name="p" unicode="p" horiz-adv-x="550" d="M241 55 C217 55 181 61 142 72 C163 180 183 288 192 336 C240 385 306 428 351 428 C390 428 421 393 421 318 C421 186 342 55 241 55 L241 55 Z M95 -170 C103 -131 114 -70 127 -4 C154 -9 179 -11 202 -11 C378 -11 498 158 498 338 C498 447 450 502 388 502 C331 502 259 454 201 396 C207 431 214 478 216 493 L141 488 C116 326 81 151 18 -176 L95 -170 Z " />
<glyph glyph-name="q" unicode="q" horiz-adv-x="550" d="M502 -132 L493 -91 C390 -123 383 -115 394 -54 L499 476 C453 490 397 501 353 501 C173 501 52 334 52 153 C52 44 102 -10 166 -10 C221 -10 289 31 345 84 L315 -75 C294 -188 343 -215 502 -132 L502 -132 Z M202 62 C162 62 129 97 129 172 C129 305 206 436 308 436 C334 436 372 430 410 419 L357 146 C309 100 247 62 202 62 L202 62 Z " />
<glyph glyph-name="r" unicode="r" horiz-adv-x="550" d="M507 29 L500 71 C350 22 320 52 494 476 L457 497 C393 468 319 448 258 441 C262 455 264 468 264 480 C264 508 249 524 226 524 C178 524 128 469 128 428 C128 404 147 389 177 382 C148 319 105 259 44 186 L75 157 C140 226 199 307 233 377 C280 378 336 388 391 404 C220 6 291 -67 507 29 L507 29 Z " />
<glyph glyph-name="s" unicode="s" horiz-adv-x="550" d="M463 130 C463 213 358 300 327 378 C409 471 396 531 340 531 C290 531 236 473 236 413 C236 398 238 384 242 370 C208 333 156 292 72 234 L93 198 C165 241 222 282 265 319 C309 244 386 179 386 125 C386 78 337 47 121 65 L119 -7 C390 -21 463 52 463 130 L463 130 Z " />
<glyph glyph-name="t" unicode="t" horiz-adv-x="550" d="M459 52 L451 93 C242 22 208 60 233 169 L291 427 L482 427 L494 488 L305 488 L337 631 L277 626 L200 488 L137 488 L121 427 L214 427 L156 165 C119 5 204 -77 459 52 L459 52 Z " />
<glyph glyph-name="u" unicode="u" horiz-adv-x="550" d="M519 37 L510 77 C421 41 416 58 430 127 L501 490 L425 490 L363 171 C301 99 250 63 205 63 C162 63 143 96 162 181 L232 493 L154 488 L79 365 L122 339 L85 173 C56 47 93 -11 166 -11 C225 -11 284 28 350 104 C332 -10 373 -48 519 37 L519 37 Z " />
<glyph glyph-name="v" unicode="v" horiz-adv-x="550" d="M246 77 L238 77 C212 216 189 355 170 492 L92 487 C114 325 143 160 176 -4 L275 -4 C370 157 466 329 552 490 L470 490 C398 353 325 215 246 77 L246 77 Z " />
<glyph glyph-name="w" unicode="w" horiz-adv-x="550" d="M324 0 L398 0 C461 180 507 327 551 489 L469 489 C438 352 408 235 372 98 L368 98 L330 366 L281 366 L141 99 L138 99 C155 232 169 350 191 489 L112 489 C87 306 71 117 67 0 L143 0 L284 264 L324 0 Z " />
<glyph glyph-name="x" unicode="x" horiz-adv-x="550" d="M366 -2 L452 3 L323 246 L548 490 L463 490 L285 291 L178 492 L93 487 L222 245 L-3 0 L82 0 L261 199 L366 -2 Z " />
<glyph glyph-name="y" unicode="y" horiz-adv-x="550" d="M419 -82 C446 -29 430 62 430 176 C430 186 430 195 431 204 C481 302 519 436 519 473 C519 489 486 499 465 499 C435 499 373 335 364 199 C309 137 246 98 203 98 C142 98 111 163 229 491 L153 489 C14 118 70 27 163 27 C232 27 307 77 363 138 C365 28 376 -46 352 -71 C331 -91 253 -109 65 -93 L54 -171 C286 -183 388 -144 419 -82 L419 -82 Z " />
<glyph glyph-name="z" unicode="z" horiz-adv-x="550" d="M426 0 L445 69 L134 67 L506 424 L519 490 L135 490 L116 421 L416 423 L44 66 L31 0 L426 0 Z " />
<glyph glyph-name="braceleft" unicode="&#x7b;" horiz-adv-x="550" d="M365 -207 L399 -147 C253 -84 189 -42 189 5 C189 70 305 106 305 179 C305 213 282 245 215 265 C306 287 343 334 343 374 C343 423 277 483 277 528 C277 577 356 618 550 656 L536 723 C286 663 204 589 204 518 C204 456 270 402 270 361 C270 330 235 300 107 292 L96 236 C188 225 230 201 230 167 C230 113 109 78 109 -10 C109 -74 181 -126 365 -207 L365 -207 Z " />
<glyph glyph-name="bar" unicode="&#x7c;" horiz-adv-x="550" d="M325 705 L152 -181 L226 -181 L399 707 L325 705 Z " />
<glyph glyph-name="braceright" unicode="&#x7d;" horiz-adv-x="550" d="M11 -207 C262 -147 344 -73 344 -1 C344 61 277 115 277 155 C277 187 313 217 441 224 L452 281 C359 291 318 316 318 350 C318 404 438 439 438 526 C438 591 367 642 182 724 L149 664 C295 601 359 559 359 512 C359 446 242 410 242 337 C242 304 265 272 333 252 C241 230 205 183 205 142 C205 93 270 33 270 -11 C270 -61 191 -101 -3 -139 L11 -207 Z " />
<glyph glyph-name="asciitilde" unicode="&#x7e;" horiz-adv-x="550" d="M375 197 C435 197 486 262 540 383 L489 406 C454 327 416 270 384 270 C332 270 290 413 206 413 C145 413 90 345 39 226 L89 204 C123 283 160 340 193 340 C246 340 291 197 375 197 L375 197 Z " />
<glyph glyph-name="uni00A0" unicode="&#xa0;" horiz-adv-x="550" d="" />
<glyph glyph-name="exclamdown" unicode="&#xa1;" horiz-adv-x="550" d="M293 620 L270 510 L378 510 L401 620 L293 620 Z M270 387 C251 298 178 37 156 -56 L258 -56 C275 37 305 298 323 387 L270 387 Z " />
<glyph glyph-name="cent" unicode="&#xa2;" horiz-adv-x="550" d="M153 257 C153 325 192 383 317 402 L255 132 C180 160 153 204 153 257 L153 257 Z M423 31 L436 101 C387 104 345 109 310 116 L376 408 C409 409 447 409 489 406 L503 482 C465 485 429 485 397 483 L428 620 L357 620 L327 476 C146 446 79 341 79 243 C79 164 127 99 232 62 L198 -85 L269 -85 L297 45 C334 38 376 33 423 31 L423 31 Z " />
<glyph glyph-name="sterling" unicode="&#xa3;" horiz-adv-x="550" d="M492 132 L457 151 C397 31 340 62 191 95 C210 143 219 200 226 258 L412 258 L423 318 L233 318 C240 375 249 430 270 472 C296 523 336 561 386 561 C429 561 456 534 456 441 L532 445 C535 568 496 634 404 634 C313 634 240 564 203 491 C175 435 166 378 158 318 L83 318 L71 258 L151 258 C145 209 137 158 119 105 C-22 110 -53 -13 49 -13 C87 -13 124 3 152 33 C348 -15 424 -56 492 132 L492 132 Z " />
<glyph glyph-name="yen" unicode="&#xa5;" horiz-adv-x="550" d="M460 121 L473 181 L300 181 L310 236 L339 275 L491 275 L502 335 L382 335 L587 620 L504 620 L291 310 L189 622 L110 618 L206 335 L80 335 L69 275 L226 275 L237 242 L225 181 L50 181 L39 121 L213 121 L189 0 L266 0 L289 121 L460 121 Z " />
<glyph glyph-name="section" unicode="&#xa7;" horiz-adv-x="550" d="M142 252 C142 297 206 327 277 340 C343 302 414 274 414 232 C414 200 371 173 270 150 C205 181 142 210 142 252 L142 252 Z M414 15 C414 61 375 93 326 121 C432 150 488 187 488 244 C488 356 242 387 242 486 C242 530 284 566 343 566 C400 566 432 536 442 464 L512 478 C499 578 455 632 362 631 C246 631 162 555 162 476 C162 431 190 398 228 370 C139 351 69 308 69 239 C69 118 334 89 334 9 C334 -37 260 -71 35 -12 L18 -87 C301 -147 414 -67 414 15 L414 15 Z " />
<glyph glyph-name="dieresis" unicode="&#xa8;" horiz-adv-x="550" d="M418 573 L458 706 L368 704 L337 572 L418 573 Z M203 571 L243 703 L154 702 L122 570 L203 571 Z " />
<glyph glyph-name="copyright" unicode="&#xa9;" horiz-adv-x="550" d="M316 613 C167 613 43 467 43 255 C43 98 132 7 252 7 C406 7 521 155 521 367 C521 523 435 613 316 613 L316 613 Z M309 568 C402 568 472 494 472 357 C472 183 382 52 259 52 C165 52 92 128 92 264 C92 439 190 568 309 568 L309 568 Z M316 481 C232 481 166 376 166 263 C166 161 229 114 346 158 L354 208 C264 176 220 197 220 274 C220 350 257 429 307 429 C333 429 340 404 339 361 L387 362 C390 439 370 481 316 481 L316 481 Z " />
<glyph glyph-name="ordfeminine" unicode="&#xaa;" horiz-adv-x="550" d="M236 304 C207 304 181 331 181 382 C181 480 245 573 326 573 C344 573 369 569 395 563 C383 506 364 410 356 370 C320 335 270 304 236 304 L236 304 Z M488 277 L481 307 C411 284 407 299 418 351 L470 611 C425 621 386 626 351 626 C212 626 115 499 115 365 C115 287 153 245 205 245 C248 245 303 278 348 318 C341 247 379 219 488 277 L488 277 Z M89 172 L79 117 L441 117 L452 172 L89 172 Z " />
<glyph glyph-name="guillemotleft" unicode="&#xab;" horiz-adv-x="550" d="M176 -12 L241 30 L108 243 L324 455 L273 504 L63 287 L45 206 L176 -12 Z M412 -12 L476 28 L346 244 L563 453 L514 503 L302 290 L282 208 L412 -12 Z " />
<glyph glyph-name="registered" unicode="&#xae;" horiz-adv-x="550" d="M327 674 C186 674 85 564 85 408 C85 276 167 195 296 195 C437 195 538 305 538 461 C538 593 456 674 327 674 L327 674 Z M326 633 C425 633 493 569 493 456 C493 321 409 236 297 236 C198 236 130 300 130 414 C130 548 214 633 326 633 L326 633 Z M351 321 L402 327 L338 418 C390 440 409 466 409 494 C409 534 371 565 255 549 L211 324 L257 324 L273 405 L292 408 L351 321 Z " />
<glyph glyph-name="macron" unicode="&#xaf;" horiz-adv-x="550" d="M449 673 L119 673 L106 607 L436 607 L449 673 Z " />
<glyph glyph-name="degree" unicode="&#xb0;" horiz-adv-x="550" d="M339 675 C240 675 147 596 147 477 C147 377 212 314 303 314 C403 314 497 392 497 511 C497 611 431 675 339 675 L339 675 Z M312 374 C250 374 211 420 211 483 C211 561 264 615 331 615 C393 615 433 568 433 505 C433 427 379 374 312 374 L312 374 Z " />
<glyph glyph-name="plusminus" unicode="&#xb1;" horiz-adv-x="550" d="M448 62 L460 127 L288 127 L322 298 L495 298 L508 364 L335 364 L370 545 L298 545 L263 364 L90 364 L76 298 L250 298 L216 127 L46 127 L33 62 L448 62 Z " />
<glyph glyph-name="two.sup" unicode="&#xb2;" horiz-adv-x="550" d="M428 331 L440 386 L237 386 C386 477 469 543 469 625 C469 706 386 748 220 723 L211 667 C353 686 401 659 401 610 C401 543 304 479 143 381 L144 331 L428 331 Z " />
<glyph glyph-name="three.sup" unicode="&#xb3;" horiz-adv-x="550" d="M449 443 C449 486 409 526 298 552 L479 672 L485 726 L226 726 L215 672 L407 672 L223 550 L219 523 C342 499 386 468 386 437 C386 404 341 370 158 388 L151 331 C376 309 449 379 449 443 L449 443 Z " />
<glyph glyph-name="acute" unicode="&#xb4;" horiz-adv-x="550" d="M161 593 L177 558 C252 590 365 648 432 699 L377 762 C320 706 226 632 161 593 L161 593 Z " />
<glyph glyph-name="mu" unicode="&#xb5;" horiz-adv-x="550" d="M94 -170 L124 7 C138 -5 156 -10 178 -10 C235 -10 289 29 350 105 C331 -9 372 -48 519 37 L510 77 C421 41 416 58 430 127 L501 490 L425 490 L363 171 C301 99 250 63 205 63 C162 63 146 96 161 174 L223 493 L145 487 L17 -176 L94 -170 Z " />
<glyph glyph-name="paragraph" unicode="&#xb6;" horiz-adv-x="550" d="M392 164 C360 166 332 172 307 179 L379 549 C406 551 435 551 467 547 L392 164 Z M151 350 C151 438 206 515 322 541 L256 198 C187 231 151 284 151 350 L151 350 Z M252 -108 L294 109 C320 103 348 99 379 97 L342 -90 L411 -82 L549 622 C251 644 76 511 76 336 C76 241 131 168 231 128 L184 -116 L252 -108 Z " />
<glyph glyph-name="periodcentered" unicode="&#xb7;" horiz-adv-x="550" d="M326 248 L348 364 L233 364 L210 248 L326 248 Z " />
<glyph glyph-name="cedilla" unicode="&#xb8;" horiz-adv-x="550" d="M146 -147 C178 -82 209 -43 242 -43 C276 -43 298 -80 292 -175 L362 -173 C370 -44 318 15 251 15 C194 15 146 -32 104 -134 L146 -147 Z " />
<glyph glyph-name="one.sup" unicode="&#xb9;" horiz-adv-x="550" d="M439 331 L452 385 L340 385 L411 743 L347 737 L335 677 L211 661 L203 614 L324 621 L278 385 L155 385 L144 331 L439 331 Z " />
<glyph glyph-name="ordmasculine" unicode="&#xba;" horiz-adv-x="550" d="M489 474 C489 569 433 627 345 627 C226 627 134 521 134 399 C134 304 190 245 278 245 C397 245 489 352 489 474 L489 474 Z M200 407 C200 497 254 575 334 575 C389 575 424 533 424 466 C424 375 369 299 290 299 C234 299 200 340 200 407 L200 407 Z M92 172 L82 117 L417 117 L427 172 L92 172 Z " />
<glyph glyph-name="guillemotright" unicode="&#xbb;" horiz-adv-x="550" d="M297 -12 L508 206 L525 287 L394 504 L329 463 L462 250 L247 37 L297 -12 Z M57 -10 L269 203 L288 284 L159 504 L94 464 L225 250 L7 40 L57 -10 Z " />
<glyph glyph-name="onequarter" unicode="&#xbc;" horiz-adv-x="550" d="M457 425 L470 479 L358 479 L429 837 L365 831 L353 771 L229 755 L221 708 L342 715 L296 479 L173 479 L162 425 L457 425 Z M61 279 L495 279 L505 331 L72 331 L61 279 Z M367 -129 L383 -76 L330 -76 L356 58 L296 53 L271 -76 L125 -76 C176 -3 213 66 253 186 L186 189 C150 72 114 1 62 -86 L57 -129 L261 -129 L245 -210 L304 -210 L320 -129 L367 -129 Z " />
<glyph glyph-name="onehalf" unicode="&#xbd;" horiz-adv-x="550" d="M457 425 L470 479 L358 479 L429 837 L365 831 L353 771 L229 755 L221 708 L342 715 L296 479 L173 479 L162 425 L457 425 Z M61 279 L495 279 L505 331 L72 331 L61 279 Z M334 -210 L346 -155 L143 -155 C292 -64 375 2 375 84 C375 165 292 207 126 182 L117 126 C259 145 307 118 307 69 C307 2 210 -62 49 -160 L50 -210 L334 -210 Z " />
<glyph glyph-name="threequarters" unicode="&#xbe;" horiz-adv-x="550" d="M467 537 C467 580 427 620 316 646 L497 766 L503 820 L244 820 L233 766 L425 766 L241 644 L237 617 C360 593 404 562 404 531 C404 498 359 464 176 482 L169 425 C394 403 467 473 467 537 L467 537 Z M61 279 L495 279 L505 331 L72 331 L61 279 Z M367 -129 L383 -76 L330 -76 L356 58 L296 53 L271 -76 L125 -76 C176 -3 213 66 253 186 L186 189 C150 72 114 1 62 -86 L57 -129 L261 -129 L245 -210 L304 -210 L320 -129 L367 -129 Z " />
<glyph glyph-name="questiondown" unicode="&#xbf;" horiz-adv-x="550" d="M350 620 L327 511 L434 511 L457 620 L350 620 Z M435 20 C246 42 148 72 148 145 C148 202 206 256 383 347 L358 390 C143 282 60 201 60 117 C60 22 175 -33 418 -59 L435 20 Z " />
<glyph glyph-name="Agrave" unicode="&#xc0;" horiz-adv-x="550" d="M489 717 C432 761 352 840 302 899 L249 837 C307 784 406 717 469 684 L489 717 Z M390 -3 L470 3 C453 210 433 416 411 622 L297 622 C193 415 92 207 -3 0 L79 0 C107 63 136 126 165 189 L376 189 C381 125 385 61 390 -3 L390 -3 Z M337 551 L344 551 C354 452 363 351 371 251 L194 251 C241 351 288 452 337 551 L337 551 Z " />
<glyph glyph-name="Aacute" unicode="&#xc1;" horiz-adv-x="550" d="M248 725 L264 690 C339 722 452 780 519 831 L464 894 C407 838 313 764 248 725 L248 725 Z M390 -3 L470 3 C453 210 433 416 411 622 L297 622 C193 415 92 207 -3 0 L79 0 C107 63 136 126 165 189 L376 189 C381 125 385 61 390 -3 L390 -3 Z M337 551 L344 551 C354 452 363 351 371 251 L194 251 C241 351 288 452 337 551 L337 551 Z " />
<glyph glyph-name="Acircumflex" unicode="&#xc2;" horiz-adv-x="550" d="M496 690 L550 732 L411 882 L407 882 L202 735 L237 694 L395 805 L496 690 Z M390 -3 L470 3 C453 210 433 416 411 622 L297 622 C193 415 92 207 -3 0 L79 0 C107 63 136 126 165 189 L376 189 C381 125 385 61 390 -3 L390 -3 Z M337 551 L344 551 C354 452 363 351 371 251 L194 251 C241 351 288 452 337 551 L337 551 Z " />
<glyph glyph-name="Atilde" unicode="&#xc3;" horiz-adv-x="550" d="M459 760 C416 760 393 863 326 863 C276 863 225 815 176 730 L216 707 C253 765 283 802 310 802 C353 802 376 700 443 700 C494 700 544 752 593 836 L553 860 C517 802 486 760 459 760 L459 760 Z M390 -3 L470 3 C453 210 433 416 411 622 L297 622 C193 415 92 207 -3 0 L79 0 C107 63 136 126 165 189 L376 189 C381 125 385 61 390 -3 L390 -3 Z M337 551 L344 551 C354 452 363 351 371 251 L194 251 C241 351 288 452 337 551 L337 551 Z " />
<glyph glyph-name="Adieresis" unicode="&#xc4;" horiz-adv-x="550" d="M510 705 L550 838 L460 836 L429 704 L510 705 Z M295 703 L335 835 L246 834 L214 702 L295 703 Z M390 -3 L470 3 C453 210 433 416 411 622 L297 622 C193 415 92 207 -3 0 L79 0 C107 63 136 126 165 189 L376 189 C381 125 385 61 390 -3 L390 -3 Z M337 551 L344 551 C354 452 363 351 371 251 L194 251 C241 351 288 452 337 551 L337 551 Z " />
<glyph glyph-name="Aring" unicode="&#xc5;" horiz-adv-x="550" d="M393 889 C312 889 253 839 253 778 C253 723 304 679 378 679 C459 679 518 731 518 791 C518 845 467 889 393 889 L393 889 Z M390 -3 L470 3 C453 210 433 416 411 622 L297 622 C193 415 92 207 -3 0 L79 0 C107 63 136 126 165 189 L376 189 C381 125 385 61 390 -3 L390 -3 Z M337 551 L344 551 C354 452 363 351 371 251 L194 251 C241 351 288 452 337 551 L337 551 Z " />
<glyph glyph-name="AE" unicode="&#xc6;" horiz-adv-x="550" d="M339 552 L348 552 L288 243 L183 243 C235 346 287 449 339 552 L339 552 Z M241 0 L477 0 L495 68 L325 68 L368 285 L506 285 L517 342 L379 342 L420 552 L586 552 L599 620 L305 620 C195 413 86 205 -21 0 L61 0 C92 61 122 122 153 183 L276 183 L241 0 Z " />
<glyph glyph-name="Ccedilla" unicode="&#xc7;" horiz-adv-x="550" d="M352 -181 C357 -94 335 -39 300 -12 C345 -9 396 2 452 22 L460 95 C254 19 146 67 146 237 C146 393 238 561 361 561 C432 561 443 507 441 401 L517 402 C524 554 491 633 377 633 C203 633 65 435 65 223 C65 102 113 25 200 -2 C160 -20 125 -66 94 -142 L136 -155 C168 -90 199 -51 232 -51 C266 -51 288 -88 282 -183 L352 -181 Z " />
<glyph glyph-name="Egrave" unicode="&#xc8;" horiz-adv-x="550" d="M500 715 C443 759 363 838 313 897 L260 835 C318 782 417 715 480 682 L500 715 Z M443 69 L152 69 L194 283 L438 283 L450 344 L206 344 L246 551 L534 551 L548 620 L178 620 L58 0 L425 0 L443 69 Z " />
<glyph glyph-name="Eacute" unicode="&#xc9;" horiz-adv-x="550" d="M259 723 L275 688 C350 720 463 778 530 829 L475 892 C418 836 324 762 259 723 L259 723 Z M443 69 L152 69 L194 283 L438 283 L450 344 L206 344 L246 551 L534 551 L548 620 L178 620 L58 0 L425 0 L443 69 Z " />
<glyph glyph-name="Ecircumflex" unicode="&#xca;" horiz-adv-x="550" d="M506 688 L560 730 L421 880 L417 880 L212 733 L247 692 L405 803 L506 688 Z M443 69 L152 69 L194 283 L438 283 L450 344 L206 344 L246 551 L534 551 L548 620 L178 620 L58 0 L425 0 L443 69 Z " />
<glyph glyph-name="Edieresis" unicode="&#xcb;" horiz-adv-x="550" d="M521 703 L561 836 L471 834 L440 702 L521 703 Z M306 701 L346 833 L257 832 L225 700 L306 701 Z M443 69 L152 69 L194 283 L438 283 L450 344 L206 344 L246 551 L534 551 L548 620 L178 620 L58 0 L425 0 L443 69 Z " />
<glyph glyph-name="Igrave" unicode="&#xcc;" horiz-adv-x="550" d="M480 715 C423 759 343 838 293 897 L240 835 C298 782 397 715 460 682 L480 715 Z M277 65 L372 555 L517 555 L529 620 L154 620 L141 555 L291 555 L196 65 L49 65 L36 0 L412 0 L427 65 L277 65 Z " />
<glyph glyph-name="Iacute" unicode="&#xcd;" horiz-adv-x="550" d="M239 723 L255 688 C330 720 443 778 510 829 L455 892 C398 836 304 762 239 723 L239 723 Z M277 65 L372 555 L517 555 L529 620 L154 620 L141 555 L291 555 L196 65 L49 65 L36 0 L412 0 L427 65 L277 65 Z " />
<glyph glyph-name="Icircumflex" unicode="&#xce;" horiz-adv-x="550" d="M486 688 L540 730 L401 880 L397 880 L192 733 L227 692 L385 803 L486 688 Z M277 65 L372 555 L517 555 L529 620 L154 620 L141 555 L291 555 L196 65 L49 65 L36 0 L412 0 L427 65 L277 65 Z " />
<glyph glyph-name="Idieresis" unicode="&#xcf;" horiz-adv-x="550" d="M501 703 L541 836 L451 834 L420 702 L501 703 Z M286 701 L326 833 L237 832 L205 700 L286 701 Z M277 65 L372 555 L517 555 L529 620 L154 620 L141 555 L291 555 L196 65 L49 65 L36 0 L412 0 L427 65 L277 65 Z " />
<glyph glyph-name="Eth" unicode="&#xd0;" horiz-adv-x="550" d="M522 384 C522 578 396 657 163 618 L110 343 L39 343 L28 285 L98 285 L43 0 C375 -43 522 156 522 384 L522 384 Z M308 285 L322 343 L190 343 L232 557 C369 572 441 514 441 375 C441 199 342 47 136 64 L179 285 L308 285 Z " />
<glyph glyph-name="Ntilde" unicode="&#xd1;" horiz-adv-x="550" d="M462 760 C419 760 396 863 329 863 C279 863 228 815 179 730 L219 707 C256 765 286 802 313 802 C356 802 379 700 446 700 C497 700 547 752 596 836 L556 860 C520 802 489 760 462 760 L462 760 Z M355 0 L432 0 L553 620 L477 620 L386 141 L381 141 L245 621 L160 619 L40 0 L116 0 L208 489 L213 489 L355 0 Z " />
<glyph glyph-name="Ograve" unicode="&#xd2;" horiz-adv-x="550" d="M494 729 C437 773 357 852 307 911 L254 849 C312 796 411 729 474 696 L494 729 Z M350 632 C181 632 60 428 60 220 C60 63 134 -12 240 -12 C409 -12 530 191 530 399 C530 556 456 632 350 632 L350 632 Z M251 58 C186 58 144 112 144 225 C144 391 224 562 339 562 C404 562 446 508 446 395 C446 229 366 58 251 58 L251 58 Z " />
<glyph glyph-name="Oacute" unicode="&#xd3;" horiz-adv-x="550" d="M253 737 L269 702 C344 734 457 792 524 843 L469 906 C412 850 318 776 253 737 L253 737 Z M350 632 C181 632 60 428 60 220 C60 63 134 -12 240 -12 C409 -12 530 191 530 399 C530 556 456 632 350 632 L350 632 Z M251 58 C186 58 144 112 144 225 C144 391 224 562 339 562 C404 562 446 508 446 395 C446 229 366 58 251 58 L251 58 Z " />
<glyph glyph-name="Ocircumflex" unicode="&#xd4;" horiz-adv-x="550" d="M500 702 L554 744 L415 894 L411 894 L206 747 L241 706 L399 817 L500 702 Z M350 632 C181 632 60 428 60 220 C60 63 134 -12 240 -12 C409 -12 530 191 530 399 C530 556 456 632 350 632 L350 632 Z M251 58 C186 58 144 112 144 225 C144 391 224 562 339 562 C404 562 446 508 446 395 C446 229 366 58 251 58 L251 58 Z " />
<glyph glyph-name="Otilde" unicode="&#xd5;" horiz-adv-x="550" d="M463 772 C420 772 397 875 330 875 C280 875 229 827 180 742 L220 719 C257 777 287 814 314 814 C357 814 380 712 447 712 C498 712 548 764 597 848 L557 872 C521 814 490 772 463 772 L463 772 Z M350 632 C181 632 60 428 60 220 C60 63 134 -12 240 -12 C409 -12 530 191 530 399 C530 556 456 632 350 632 L350 632 Z M251 58 C186 58 144 112 144 225 C144 391 224 562 339 562 C404 562 446 508 446 395 C446 229 366 58 251 58 L251 58 Z " />
<glyph glyph-name="Odieresis" unicode="&#xd6;" horiz-adv-x="550" d="M515 717 L555 850 L465 848 L434 716 L515 717 Z M300 715 L340 847 L251 846 L219 714 L300 715 Z M350 632 C181 632 60 428 60 220 C60 63 134 -12 240 -12 C409 -12 530 191 530 399 C530 556 456 632 350 632 L350 632 Z M251 58 C186 58 144 112 144 225 C144 391 224 562 339 562 C404 562 446 508 446 395 C446 229 366 58 251 58 L251 58 Z " />
<glyph glyph-name="multiply" unicode="&#xd7;" horiz-adv-x="550" d="M398 92 L455 139 L335 289 L506 431 L463 486 L291 343 L170 494 L113 446 L234 295 L62 152 L106 98 L278 241 L398 92 Z " />
<glyph glyph-name="Oslash" unicode="&#xd8;" horiz-adv-x="550" d="M145 231 C145 397 223 564 335 564 C370 564 399 549 418 517 L152 158 C147 179 145 203 145 231 L145 231 Z M255 56 C218 56 190 72 171 104 L438 465 C443 443 445 418 445 390 C445 223 368 56 255 56 L255 56 Z M243 -13 C410 -13 528 186 528 392 C528 452 518 501 500 539 L565 625 L518 657 L466 587 C435 618 395 633 347 633 C181 633 62 435 62 228 C62 168 72 120 90 83 L24 -5 L72 -37 L124 33 C155 2 195 -13 243 -13 L243 -13 Z " />
<glyph glyph-name="Ugrave" unicode="&#xd9;" horiz-adv-x="550" d="M490 715 C433 759 353 838 303 897 L250 835 C308 782 407 715 470 682 L490 715 Z M160 221 L237 620 L156 620 L78 220 C48 62 115 -14 244 -14 C361 -14 443 55 471 202 L553 620 L472 620 L390 200 C371 102 325 57 253 57 C172 57 137 107 160 221 L160 221 Z " />
<glyph glyph-name="Uacute" unicode="&#xda;" horiz-adv-x="550" d="M249 723 L265 688 C340 720 453 778 520 829 L465 892 C408 836 314 762 249 723 L249 723 Z M160 221 L237 620 L156 620 L78 220 C48 62 115 -14 244 -14 C361 -14 443 55 471 202 L553 620 L472 620 L390 200 C371 102 325 57 253 57 C172 57 137 107 160 221 L160 221 Z " />
<glyph glyph-name="Ucircumflex" unicode="&#xdb;" horiz-adv-x="550" d="M496 688 L550 730 L411 880 L407 880 L202 733 L237 692 L395 803 L496 688 Z M160 221 L237 620 L156 620 L78 220 C48 62 115 -14 244 -14 C361 -14 443 55 471 202 L553 620 L472 620 L390 200 C371 102 325 57 253 57 C172 57 137 107 160 221 L160 221 Z " />
<glyph glyph-name="Udieresis" unicode="&#xdc;" horiz-adv-x="550" d="M511 703 L551 836 L461 834 L430 702 L511 703 Z M296 701 L336 833 L247 832 L215 700 L296 701 Z M160 221 L237 620 L156 620 L78 220 C48 62 115 -14 244 -14 C361 -14 443 55 471 202 L553 620 L472 620 L390 200 C371 102 325 57 253 57 C172 57 137 107 160 221 L160 221 Z " />
<glyph glyph-name="Yacute" unicode="&#xdd;" horiz-adv-x="550" d="M244 725 L260 690 C335 722 448 780 515 831 L460 894 C403 838 309 764 244 725 L244 725 Z M269 0 L308 203 L594 620 L507 620 L285 286 L188 622 L105 618 L228 209 L188 0 L269 0 Z " />
<glyph glyph-name="Thorn" unicode="&#xde;" horiz-adv-x="550" d="M133 0 L152 100 C385 121 522 216 522 358 C522 460 439 535 236 526 L254 620 L173 620 L52 0 L133 0 Z M442 345 C442 242 346 173 167 174 L222 455 C373 471 442 422 442 345 L442 345 Z " />
<glyph glyph-name="germandbls" unicode="&#xdf;" horiz-adv-x="550" d="M205 -7 C419 -19 494 55 494 138 C494 201 442 269 358 340 C455 430 507 505 507 580 C507 646 466 701 376 701 C257 701 167 610 138 461 L48 0 L126 0 L217 466 C238 577 288 635 354 635 C403 635 428 604 428 561 C428 498 381 436 265 324 C372 236 416 175 416 127 C416 77 362 50 214 66 L205 -7 Z " />
<glyph glyph-name="agrave" unicode="&#xe0;" horiz-adv-x="550" d="M481 595 C424 639 344 718 294 777 L241 715 C299 662 398 595 461 562 L481 595 Z M193 63 C157 63 129 92 129 161 C129 298 208 433 306 433 C329 433 364 428 400 417 C385 341 358 204 348 153 C299 104 235 63 193 63 L193 63 Z M513 37 L505 77 C411 42 405 58 419 127 L488 479 C437 493 390 500 348 500 C171 500 50 326 50 143 C50 40 94 -10 154 -10 C210 -10 281 37 340 95 C328 -8 367 -49 513 37 L513 37 Z " />
<glyph glyph-name="aacute" unicode="&#xe1;" horiz-adv-x="550" d="M240 603 L256 568 C331 600 444 658 511 709 L456 772 C399 716 305 642 240 603 L240 603 Z M193 63 C157 63 129 92 129 161 C129 298 208 433 306 433 C329 433 364 428 400 417 C385 341 358 204 348 153 C299 104 235 63 193 63 L193 63 Z M513 37 L505 77 C411 42 405 58 419 127 L488 479 C437 493 390 500 348 500 C171 500 50 326 50 143 C50 40 94 -10 154 -10 C210 -10 281 37 340 95 C328 -8 367 -49 513 37 L513 37 Z " />
<glyph glyph-name="acircumflex" unicode="&#xe2;" horiz-adv-x="550" d="M487 568 L541 610 L402 760 L398 760 L193 613 L228 572 L386 683 L487 568 Z M193 63 C157 63 129 92 129 161 C129 298 208 433 306 433 C329 433 364 428 400 417 C385 341 358 204 348 153 C299 104 235 63 193 63 L193 63 Z M513 37 L505 77 C411 42 405 58 419 127 L488 479 C437 493 390 500 348 500 C171 500 50 326 50 143 C50 40 94 -10 154 -10 C210 -10 281 37 340 95 C328 -8 367 -49 513 37 L513 37 Z " />
<glyph glyph-name="atilde" unicode="&#xe3;" horiz-adv-x="550" d="M451 638 C408 638 385 741 318 741 C268 741 217 693 168 608 L208 585 C245 643 275 680 302 680 C345 680 368 578 435 578 C486 578 536 630 585 714 L545 738 C509 680 478 638 451 638 L451 638 Z M193 63 C157 63 129 92 129 161 C129 298 208 433 306 433 C329 433 364 428 400 417 C385 341 358 204 348 153 C299 104 235 63 193 63 L193 63 Z M513 37 L505 77 C411 42 405 58 419 127 L488 479 C437 493 390 500 348 500 C171 500 50 326 50 143 C50 40 94 -10 154 -10 C210 -10 281 37 340 95 C328 -8 367 -49 513 37 L513 37 Z " />
<glyph glyph-name="adieresis" unicode="&#xe4;" horiz-adv-x="550" d="M502 583 L542 716 L452 714 L421 582 L502 583 Z M287 581 L327 713 L238 712 L206 580 L287 581 Z M193 63 C157 63 129 92 129 161 C129 298 208 433 306 433 C329 433 364 428 400 417 C385 341 358 204 348 153 C299 104 235 63 193 63 L193 63 Z M513 37 L505 77 C411 42 405 58 419 127 L488 479 C437 493 390 500 348 500 C171 500 50 326 50 143 C50 40 94 -10 154 -10 C210 -10 281 37 340 95 C328 -8 367 -49 513 37 L513 37 Z " />
<glyph glyph-name="aring" unicode="&#xe5;" horiz-adv-x="550" d="M384 767 C303 767 244 717 244 656 C244 601 295 557 369 557 C450 557 509 609 509 669 C509 723 458 767 384 767 L384 767 Z M193 63 C157 63 129 92 129 161 C129 298 208 433 306 433 C329 433 364 428 400 417 C385 341 358 204 348 153 C299 104 235 63 193 63 L193 63 Z M513 37 L505 77 C411 42 405 58 419 127 L488 479 C437 493 390 500 348 500 C171 500 50 326 50 143 C50 40 94 -10 154 -10 C210 -10 281 37 340 95 C328 -8 367 -49 513 37 L513 37 Z " />
<glyph glyph-name="ae" unicode="&#xe6;" horiz-adv-x="550" d="M445 434 C471 434 483 417 483 387 C483 326 430 251 324 232 C342 334 390 434 445 434 L445 434 Z M147 64 C124 64 112 90 112 142 C112 277 171 433 248 433 C268 433 292 427 320 406 C273 337 243 240 243 142 C210 98 177 64 147 64 L147 64 Z M514 57 L506 98 C363 30 317 56 317 154 C317 165 317 176 318 187 C478 209 556 302 556 401 C556 460 524 499 465 499 C431 499 399 485 371 462 C337 484 301 496 264 496 C134 496 33 307 33 123 C33 35 62 -7 110 -7 C160 -7 207 31 249 82 C271 -13 355 -48 514 57 L514 57 Z " />
<glyph glyph-name="ccedilla" unicode="&#xe7;" horiz-adv-x="550" d="M349 -184 C355 -89 328 -32 287 -8 C336 -2 394 15 459 47 L449 89 C240 23 148 61 148 189 C148 319 236 434 344 434 C397 434 420 408 421 334 L493 334 C498 452 456 501 364 501 C206 501 70 347 70 176 C70 84 114 15 198 -5 C158 -22 123 -68 91 -145 L133 -158 C165 -93 196 -54 229 -54 C263 -54 285 -91 279 -186 L349 -184 Z " />
<glyph glyph-name="egrave" unicode="&#xe8;" horiz-adv-x="550" d="M474 597 C417 641 337 720 287 779 L234 717 C292 664 391 597 454 564 L474 597 Z M470 56 L460 97 C233 22 138 55 138 184 L138 185 C368 202 497 271 497 385 C497 457 444 502 358 502 C189 502 62 329 62 174 C62 10 204 -80 470 56 L470 56 Z M339 437 C390 437 422 410 422 370 C422 288 312 243 142 231 C159 335 233 437 339 437 L339 437 Z " />
<glyph glyph-name="eacute" unicode="&#xe9;" horiz-adv-x="550" d="M233 605 L249 570 C324 602 437 660 504 711 L449 774 C392 718 298 644 233 605 L233 605 Z M470 56 L460 97 C233 22 138 55 138 184 L138 185 C368 202 497 271 497 385 C497 457 444 502 358 502 C189 502 62 329 62 174 C62 10 204 -80 470 56 L470 56 Z M339 437 C390 437 422 410 422 370 C422 288 312 243 142 231 C159 335 233 437 339 437 L339 437 Z " />
<glyph glyph-name="ecircumflex" unicode="&#xea;" horiz-adv-x="550" d="M481 570 L535 612 L396 762 L392 762 L187 615 L222 574 L380 685 L481 570 Z M470 56 L460 97 C233 22 138 55 138 184 L138 185 C368 202 497 271 497 385 C497 457 444 502 358 502 C189 502 62 329 62 174 C62 10 204 -80 470 56 L470 56 Z M339 437 C390 437 422 410 422 370 C422 288 312 243 142 231 C159 335 233 437 339 437 L339 437 Z " />
<glyph glyph-name="edieresis" unicode="&#xeb;" horiz-adv-x="550" d="M495 585 L535 718 L445 716 L414 584 L495 585 Z M280 583 L320 715 L231 714 L199 582 L280 583 Z M470 56 L460 97 C233 22 138 55 138 184 L138 185 C368 202 497 271 497 385 C497 457 444 502 358 502 C189 502 62 329 62 174 C62 10 204 -80 470 56 L470 56 Z M339 437 C390 437 422 410 422 370 C422 288 312 243 142 231 C159 335 233 437 339 437 L339 437 Z " />
<glyph glyph-name="igrave" unicode="&#xec;" horiz-adv-x="550" d="M449 586 C392 630 312 709 262 768 L209 706 C267 653 366 586 429 553 L449 586 Z M473 44 L464 87 C262 36 236 55 259 145 L349 489 L280 490 L74 439 L79 397 L256 421 L180 132 C142 -11 226 -57 473 44 L473 44 Z " />
<glyph glyph-name="iacute" unicode="&#xed;" horiz-adv-x="550" d="M208 594 L224 559 C299 591 412 649 479 700 L424 763 C367 707 273 633 208 594 L208 594 Z M473 44 L464 87 C262 36 236 55 259 145 L349 489 L280 490 L74 439 L79 397 L256 421 L180 132 C142 -11 226 -57 473 44 L473 44 Z " />
<glyph glyph-name="icircumflex" unicode="&#xee;" horiz-adv-x="550" d="M456 559 L510 601 L371 751 L367 751 L162 604 L197 563 L355 674 L456 559 Z M473 44 L464 87 C262 36 236 55 259 145 L349 489 L280 490 L74 439 L79 397 L256 421 L180 132 C142 -11 226 -57 473 44 L473 44 Z " />
<glyph glyph-name="idieresis" unicode="&#xef;" horiz-adv-x="550" d="M470 574 L510 707 L420 705 L389 573 L470 574 Z M255 572 L295 704 L206 703 L174 571 L255 572 Z M473 44 L464 87 C262 36 236 55 259 145 L349 489 L280 490 L74 439 L79 397 L256 421 L180 132 C142 -11 226 -57 473 44 L473 44 Z " />
<glyph glyph-name="eth" unicode="&#xf0;" horiz-adv-x="550" d="M242 -12 C392 -12 500 114 500 311 C500 405 471 491 412 572 L507 598 L495 647 L378 614 C349 648 315 680 275 712 L216 668 C248 643 276 618 300 592 L173 557 L187 509 L336 550 C362 517 381 484 395 449 C368 456 341 459 317 459 C166 459 55 331 55 182 C55 67 128 -12 242 -12 L242 -12 Z M257 52 C183 52 134 111 134 199 C134 302 202 395 296 395 C325 395 371 387 418 368 C421 346 423 323 423 300 C423 158 359 52 257 52 L257 52 Z " />
<glyph glyph-name="ntilde" unicode="&#xf1;" horiz-adv-x="550" d="M426 639 C383 639 360 742 293 742 C243 742 192 694 143 609 L183 586 C220 644 250 681 277 681 C320 681 343 579 410 579 C461 579 511 631 560 715 L520 739 C484 681 453 639 426 639 L426 639 Z M514 36 L503 77 C431 48 418 55 418 82 C418 139 485 309 485 408 C485 460 462 501 399 501 C338 501 267 463 197 390 C202 428 209 476 212 493 L136 488 C114 343 92 233 47 0 L123 0 C137 69 177 268 188 330 C252 395 310 428 352 428 C386 428 402 408 402 371 C402 290 337 127 337 50 C337 -16 394 -38 514 36 L514 36 Z " />
<glyph glyph-name="ograve" unicode="&#xf2;" horiz-adv-x="550" d="M461 597 C404 641 324 720 274 779 L221 717 C279 664 378 597 441 564 L461 597 Z M54 188 C54 59 124 -11 233 -11 C381 -11 497 128 497 302 C497 431 425 502 317 502 C168 502 54 360 54 188 L54 188 Z M417 291 C417 164 347 54 246 54 C174 54 133 107 133 199 C133 325 202 437 304 437 C376 437 417 383 417 291 L417 291 Z " />
<glyph glyph-name="oacute" unicode="&#xf3;" horiz-adv-x="550" d="M220 605 L236 570 C311 602 424 660 491 711 L436 774 C379 718 285 644 220 605 L220 605 Z M54 188 C54 59 124 -11 233 -11 C381 -11 497 128 497 302 C497 431 425 502 317 502 C168 502 54 360 54 188 L54 188 Z M417 291 C417 164 347 54 246 54 C174 54 133 107 133 199 C133 325 202 437 304 437 C376 437 417 383 417 291 L417 291 Z " />
<glyph glyph-name="ocircumflex" unicode="&#xf4;" horiz-adv-x="550" d="M467 570 L521 612 L382 762 L378 762 L173 615 L208 574 L366 685 L467 570 Z M54 188 C54 59 124 -11 233 -11 C381 -11 497 128 497 302 C497 431 425 502 317 502 C168 502 54 360 54 188 L54 188 Z M417 291 C417 164 347 54 246 54 C174 54 133 107 133 199 C133 325 202 437 304 437 C376 437 417 383 417 291 L417 291 Z " />
<glyph glyph-name="otilde" unicode="&#xf5;" horiz-adv-x="550" d="M431 640 C388 640 365 743 298 743 C248 743 197 695 148 610 L188 587 C225 645 255 682 282 682 C325 682 348 580 415 580 C466 580 516 632 565 716 L525 740 C489 682 458 640 431 640 L431 640 Z M54 188 C54 59 124 -11 233 -11 C381 -11 497 128 497 302 C497 431 425 502 317 502 C168 502 54 360 54 188 L54 188 Z M417 291 C417 164 347 54 246 54 C174 54 133 107 133 199 C133 325 202 437 304 437 C376 437 417 383 417 291 L417 291 Z " />
<glyph glyph-name="odieresis" unicode="&#xf6;" horiz-adv-x="550" d="M482 585 L522 718 L432 716 L401 584 L482 585 Z M267 583 L307 715 L218 714 L186 582 L267 583 Z M54 188 C54 59 124 -11 233 -11 C381 -11 497 128 497 302 C497 431 425 502 317 502 C168 502 54 360 54 188 L54 188 Z M417 291 C417 164 347 54 246 54 C174 54 133 107 133 199 C133 325 202 437 304 437 C376 437 417 383 417 291 L417 291 Z " />
<glyph glyph-name="divide" unicode="&#xf7;" horiz-adv-x="550" d="M354 427 L373 520 L283 520 L264 427 L354 427 Z M509 326 L74 326 L61 259 L495 259 L509 326 Z M286 66 L304 159 L215 159 L196 66 L286 66 Z " />
<glyph glyph-name="oslash" unicode="&#xf8;" horiz-adv-x="550" d="M132 199 C132 326 202 438 304 438 C338 438 365 426 385 403 L142 130 C135 150 132 173 132 199 L132 199 Z M246 53 C213 53 187 64 168 85 L409 357 C415 338 418 316 418 292 C418 163 347 53 246 53 L246 53 Z M233 -11 C381 -11 497 128 497 302 C497 349 488 388 470 419 L534 489 L489 523 L435 463 C404 489 364 502 317 502 C168 502 54 360 54 188 C54 140 64 100 82 68 L18 -1 L63 -35 L118 26 C148 2 187 -11 233 -11 L233 -11 Z " />
<glyph glyph-name="ugrave" unicode="&#xf9;" horiz-adv-x="550" d="M472 588 C415 632 335 711 285 770 L232 708 C290 655 389 588 452 555 L472 588 Z M519 37 L510 77 C421 41 416 58 430 127 L501 490 L425 490 L363 171 C301 99 250 63 205 63 C162 63 143 96 162 181 L232 493 L154 488 L79 365 L122 339 L85 173 C56 47 93 -11 166 -11 C225 -11 284 28 350 104 C332 -10 373 -48 519 37 L519 37 Z " />
<glyph glyph-name="uacute" unicode="&#xfa;" horiz-adv-x="550" d="M231 596 L247 561 C322 593 435 651 502 702 L447 765 C390 709 296 635 231 596 L231 596 Z M519 37 L510 77 C421 41 416 58 430 127 L501 490 L425 490 L363 171 C301 99 250 63 205 63 C162 63 143 96 162 181 L232 493 L154 488 L79 365 L122 339 L85 173 C56 47 93 -11 166 -11 C225 -11 284 28 350 104 C332 -10 373 -48 519 37 L519 37 Z " />
<glyph glyph-name="ucircumflex" unicode="&#xfb;" horiz-adv-x="550" d="M479 561 L533 603 L394 753 L390 753 L185 606 L220 565 L378 676 L479 561 Z M519 37 L510 77 C421 41 416 58 430 127 L501 490 L425 490 L363 171 C301 99 250 63 205 63 C162 63 143 96 162 181 L232 493 L154 488 L79 365 L122 339 L85 173 C56 47 93 -11 166 -11 C225 -11 284 28 350 104 C332 -10 373 -48 519 37 L519 37 Z " />
<glyph glyph-name="udieresis" unicode="&#xfc;" horiz-adv-x="550" d="M493 576 L533 709 L443 707 L412 575 L493 576 Z M278 574 L318 706 L229 705 L197 573 L278 574 Z M519 37 L510 77 C421 41 416 58 430 127 L501 490 L425 490 L363 171 C301 99 250 63 205 63 C162 63 143 96 162 181 L232 493 L154 488 L79 365 L122 339 L85 173 C56 47 93 -11 166 -11 C225 -11 284 28 350 104 C332 -10 373 -48 519 37 L519 37 Z " />
<glyph glyph-name="yacute" unicode="&#xfd;" horiz-adv-x="550" d="M228 602 L244 567 C319 599 432 657 499 708 L444 771 C387 715 293 641 228 602 L228 602 Z M419 -82 C446 -29 430 62 430 176 C430 186 430 195 431 204 C481 302 519 436 519 473 C519 489 486 499 465 499 C435 499 373 335 364 199 C309 137 246 98 203 98 C142 98 111 163 229 491 L153 489 C14 118 70 27 163 27 C232 27 307 77 363 138 C365 28 376 -46 352 -71 C331 -91 253 -109 65 -93 L54 -171 C286 -183 388 -144 419 -82 L419 -82 Z " />
<glyph glyph-name="thorn" unicode="&#xfe;" horiz-adv-x="550" d="M241 55 C217 55 181 61 142 72 L194 338 C242 387 307 428 351 428 C390 428 421 393 421 318 C421 186 342 55 241 55 L241 55 Z M95 -170 L127 -4 C155 -9 179 -11 202 -11 C378 -11 498 158 498 338 C498 447 450 502 388 502 C333 502 263 456 206 401 L265 703 L188 697 L18 -176 L95 -170 Z " />
<glyph glyph-name="ydieresis" unicode="&#xff;" horiz-adv-x="550" d="M490 582 L530 715 L440 713 L409 581 L490 582 Z M275 580 L315 712 L226 711 L194 579 L275 580 Z M419 -82 C446 -29 430 62 430 176 C430 186 430 195 431 204 C481 302 519 436 519 473 C519 489 486 499 465 499 C435 499 373 335 364 199 C309 137 246 98 203 98 C142 98 111 163 229 491 L153 489 C14 118 70 27 163 27 C232 27 307 77 363 138 C365 28 376 -46 352 -71 C331 -91 253 -109 65 -93 L54 -171 C286 -183 388 -144 419 -82 L419 -82 Z " />
<glyph glyph-name="Amacron" unicode="&#x100;" horiz-adv-x="550" d="M555 805 L225 805 L212 739 L542 739 L555 805 Z M390 -3 L470 3 C453 210 433 416 411 622 L297 622 C193 415 92 207 -3 0 L79 0 C107 63 136 126 165 189 L376 189 C381 125 385 61 390 -3 L390 -3 Z M337 551 L344 551 C354 452 363 351 371 251 L194 251 C241 351 288 452 337 551 L337 551 Z " />
<glyph glyph-name="amacron" unicode="&#x101;" horiz-adv-x="550" d="M546 683 L216 683 L203 617 L533 617 L546 683 Z M193 63 C157 63 129 92 129 161 C129 298 208 433 306 433 C329 433 364 428 400 417 C385 341 358 204 348 153 C299 104 235 63 193 63 L193 63 Z M513 37 L505 77 C411 42 405 58 419 127 L488 479 C437 493 390 500 348 500 C171 500 50 326 50 143 C50 40 94 -10 154 -10 C210 -10 281 37 340 95 C328 -8 367 -49 513 37 L513 37 Z " />
<glyph glyph-name="Abreve" unicode="&#x102;" horiz-adv-x="550" d="M537 869 C481 800 438 760 386 760 C337 760 305 792 271 874 L211 843 C249 744 302 697 370 697 C441 697 513 750 582 841 L537 869 Z M390 -3 L470 3 C453 210 433 416 411 622 L297 622 C193 415 92 207 -3 0 L79 0 C107 63 136 126 165 189 L376 189 C381 125 385 61 390 -3 L390 -3 Z M337 551 L344 551 C354 452 363 351 371 251 L194 251 C241 351 288 452 337 551 L337 551 Z " />
<glyph glyph-name="abreve" unicode="&#x103;" horiz-adv-x="550" d="M529 747 C473 678 430 638 378 638 C329 638 297 670 263 752 L203 721 C241 622 294 575 362 575 C433 575 505 628 574 719 L529 747 Z M193 63 C157 63 129 92 129 161 C129 298 208 433 306 433 C329 433 364 428 400 417 C385 341 358 204 348 153 C299 104 235 63 193 63 L193 63 Z M513 37 L505 77 C411 42 405 58 419 127 L488 479 C437 493 390 500 348 500 C171 500 50 326 50 143 C50 40 94 -10 154 -10 C210 -10 281 37 340 95 C328 -8 367 -49 513 37 L513 37 Z " />
<glyph glyph-name="Aogonek" unicode="&#x104;" horiz-adv-x="550" d="M440 -167 L430 -130 C327 -169 286 -152 286 -119 C286 -84 338 -40 470 3 C453 210 433 416 411 622 L297 622 C193 415 92 207 -3 0 L79 0 C107 63 136 126 165 189 L376 189 C380 130 385 72 389 13 C264 -39 212 -94 213 -141 C213 -203 292 -243 440 -167 L440 -167 Z M337 551 L344 551 C354 452 363 351 371 251 L194 251 C241 351 288 452 337 551 L337 551 Z " />
<glyph glyph-name="aogonek" unicode="&#x105;" horiz-adv-x="550" d="M473 -167 L464 -129 C360 -168 319 -152 319 -118 C319 -76 372 -27 513 37 L505 77 C411 42 405 58 419 127 L488 479 C437 493 390 500 348 500 C171 500 50 326 50 143 C50 40 94 -10 154 -10 C210 -10 281 37 340 95 C334 44 343 14 371 4 C282 -48 246 -96 246 -141 C246 -201 325 -242 473 -167 L473 -167 Z M193 63 C157 63 129 92 129 161 C129 298 208 433 306 433 C329 433 364 428 400 417 C385 341 358 204 348 153 C299 104 235 63 193 63 L193 63 Z " />
<glyph glyph-name="Cacute" unicode="&#x106;" horiz-adv-x="550" d="M255 736 L271 701 C346 733 459 791 526 842 L471 905 C414 849 320 775 255 736 L255 736 Z M377 633 C203 633 65 435 65 223 C65 14 208 -65 452 22 L460 95 C254 19 146 67 146 237 C146 393 238 561 361 561 C432 561 443 507 441 401 L517 402 C524 554 491 633 377 633 L377 633 Z " />
<glyph glyph-name="cacute" unicode="&#x107;" horiz-adv-x="550" d="M236 604 L252 569 C327 601 440 659 507 710 L452 773 C395 717 301 643 236 604 L236 604 Z M493 334 C498 452 456 501 364 501 C206 501 70 347 70 176 C70 13 206 -76 459 47 L449 89 C240 23 148 61 148 189 C148 319 236 434 344 434 C397 434 420 408 421 334 L493 334 Z " />
<glyph glyph-name="Cdotaccent" unicode="&#x10a;" horiz-adv-x="550" d="M409 715 L450 847 L359 846 L327 714 L409 715 Z M377 633 C203 633 65 435 65 223 C65 14 208 -65 452 22 L460 95 C254 19 146 67 146 237 C146 393 238 561 361 561 C432 561 443 507 441 401 L517 402 C524 554 491 633 377 633 L377 633 Z " />
<glyph glyph-name="cdotaccent" unicode="&#x10b;" horiz-adv-x="550" d="M390 583 L431 715 L340 714 L308 582 L390 583 Z M493 334 C498 452 456 501 364 501 C206 501 70 347 70 176 C70 13 206 -76 459 47 L449 89 C240 23 148 61 148 189 C148 319 236 434 344 434 C397 434 420 408 421 334 L493 334 Z " />
<glyph glyph-name="Ccaron" unicode="&#x10c;" horiz-adv-x="550" d="M371 698 L576 844 L540 886 L383 774 L281 890 L227 848 L367 698 L371 698 Z M377 633 C203 633 65 435 65 223 C65 14 208 -65 452 22 L460 95 C254 19 146 67 146 237 C146 393 238 561 361 561 C432 561 443 507 441 401 L517 402 C524 554 491 633 377 633 L377 633 Z " />
<glyph glyph-name="ccaron" unicode="&#x10d;" horiz-adv-x="550" d="M352 566 L557 712 L521 754 L364 642 L262 758 L208 716 L348 566 L352 566 Z M493 334 C498 452 456 501 364 501 C206 501 70 347 70 176 C70 13 206 -76 459 47 L449 89 C240 23 148 61 148 189 C148 319 236 434 344 434 C397 434 420 408 421 334 L493 334 Z " />
<glyph glyph-name="Dcaron" unicode="&#x10e;" horiz-adv-x="550" d="M372 693 L577 839 L541 881 L384 769 L282 885 L228 843 L368 693 L372 693 Z M522 384 C522 578 396 657 163 618 L43 0 C375 -43 522 156 522 384 L522 384 Z M441 375 C441 199 342 47 136 64 L232 557 C369 572 441 514 441 375 L441 375 Z " />
<glyph glyph-name="dcaron" unicode="&#x10f;" horiz-adv-x="550" d="M627 798 C631 723 628 654 575 564 L609 549 C684 636 712 717 717 803 L627 798 Z M197 63 C158 63 128 98 128 172 C128 304 207 436 304 436 C327 436 363 430 401 419 L348 149 C302 101 241 63 197 63 L197 63 Z M517 38 L508 77 C413 41 407 57 421 129 L533 703 L455 697 L416 495 C389 499 365 501 343 501 C169 501 50 332 50 152 C50 44 97 -10 159 -10 C214 -10 284 34 340 90 C330 -9 371 -47 517 38 L517 38 Z " />
<glyph glyph-name="Dcroat" unicode="&#x110;" horiz-adv-x="550" d="M522 384 C522 578 396 657 163 618 L110 343 L39 343 L28 285 L98 285 L43 0 C375 -43 522 156 522 384 L522 384 Z M308 285 L322 343 L190 343 L232 557 C369 572 441 514 441 375 C441 199 342 47 136 64 L179 285 L308 285 Z " />
<glyph glyph-name="dcroat" unicode="&#x111;" horiz-adv-x="550" d="M197 63 C158 63 128 98 128 172 C128 304 207 436 304 436 C327 436 363 430 401 419 L348 149 C302 101 241 63 197 63 L197 63 Z M517 38 L508 77 C413 41 407 57 421 129 L509 578 L578 578 L588 631 L519 631 L533 703 L455 697 L442 631 L307 631 L296 579 L432 579 L416 495 C389 499 365 501 343 501 C169 501 50 332 50 152 C50 44 97 -10 159 -10 C214 -10 284 34 340 90 C330 -9 371 -47 517 38 L517 38 Z " />
<glyph glyph-name="Emacron" unicode="&#x112;" horiz-adv-x="550" d="M565 803 L235 803 L222 737 L552 737 L565 803 Z M443 69 L152 69 L194 283 L438 283 L450 344 L206 344 L246 551 L534 551 L548 620 L178 620 L58 0 L425 0 L443 69 Z " />
<glyph glyph-name="emacron" unicode="&#x113;" horiz-adv-x="550" d="M540 685 L210 685 L197 619 L527 619 L540 685 Z M470 56 L460 97 C233 22 138 55 138 184 L138 185 C368 202 497 271 497 385 C497 457 444 502 358 502 C189 502 62 329 62 174 C62 10 204 -80 470 56 L470 56 Z M339 437 C390 437 422 410 422 370 C422 288 312 243 142 231 C159 335 233 437 339 437 L339 437 Z " />
<glyph glyph-name="Ebreve" unicode="&#x114;" horiz-adv-x="550" d="M548 867 C492 798 449 758 397 758 C348 758 316 790 282 872 L222 841 C260 742 313 695 381 695 C452 695 524 748 593 839 L548 867 Z M443 69 L152 69 L194 283 L438 283 L450 344 L206 344 L246 551 L534 551 L548 620 L178 620 L58 0 L425 0 L443 69 Z " />
<glyph glyph-name="ebreve" unicode="&#x115;" horiz-adv-x="550" d="M522 749 C466 680 423 640 371 640 C322 640 290 672 256 754 L196 723 C234 624 287 577 355 577 C426 577 498 630 567 721 L522 749 Z M470 56 L460 97 C233 22 138 55 138 184 L138 185 C368 202 497 271 497 385 C497 457 444 502 358 502 C189 502 62 329 62 174 C62 10 204 -80 470 56 L470 56 Z M339 437 C390 437 422 410 422 370 C422 288 312 243 142 231 C159 335 233 437 339 437 L339 437 Z " />
<glyph glyph-name="Edotaccent" unicode="&#x116;" horiz-adv-x="550" d="M413 702 L454 834 L363 833 L331 701 L413 702 Z M443 69 L152 69 L194 283 L438 283 L450 344 L206 344 L246 551 L534 551 L548 620 L178 620 L58 0 L425 0 L443 69 Z " />
<glyph glyph-name="edotaccent" unicode="&#x117;" horiz-adv-x="550" d="M388 584 L429 716 L338 715 L306 583 L388 584 Z M470 56 L460 97 C233 22 138 55 138 184 L138 185 C368 202 497 271 497 385 C497 457 444 502 358 502 C189 502 62 329 62 174 C62 10 204 -80 470 56 L470 56 Z M339 437 C390 437 422 410 422 370 C422 288 312 243 142 231 C159 335 233 437 339 437 L339 437 Z " />
<glyph glyph-name="Eogonek" unicode="&#x118;" horiz-adv-x="550" d="M395 -168 L385 -131 C281 -170 240 -152 240 -119 C240 -85 293 -43 425 0 L443 69 L152 69 L194 283 L438 283 L450 344 L206 344 L246 551 L534 551 L548 620 L178 620 L58 0 L320 0 C212 -48 167 -98 167 -142 C167 -203 246 -244 395 -168 L395 -168 Z " />
<glyph glyph-name="eogonek" unicode="&#x119;" horiz-adv-x="550" d="M401 -167 L391 -130 C287 -169 246 -152 246 -119 C246 -69 332 -6 470 56 L460 97 C233 22 138 55 138 184 L138 185 C368 202 497 271 497 385 C497 457 444 502 358 502 C189 502 62 329 62 174 C62 55 137 -26 280 -8 C206 -53 174 -98 174 -141 C174 -202 252 -243 401 -167 L401 -167 Z M339 437 C390 437 422 410 422 370 C422 288 312 243 142 231 C159 335 233 437 339 437 L339 437 Z " />
<glyph glyph-name="Ecaron" unicode="&#x11a;" horiz-adv-x="550" d="M375 685 L580 831 L544 873 L387 761 L285 877 L231 835 L371 685 L375 685 Z M443 69 L152 69 L194 283 L438 283 L450 344 L206 344 L246 551 L534 551 L548 620 L178 620 L58 0 L425 0 L443 69 Z " />
<glyph glyph-name="ecaron" unicode="&#x11b;" horiz-adv-x="550" d="M350 567 L555 713 L519 755 L362 643 L260 759 L206 717 L346 567 L350 567 Z M470 56 L460 97 C233 22 138 55 138 184 L138 185 C368 202 497 271 497 385 C497 457 444 502 358 502 C189 502 62 329 62 174 C62 10 204 -80 470 56 L470 56 Z M339 437 C390 437 422 410 422 370 C422 288 312 243 142 231 C159 335 233 437 339 437 L339 437 Z " />
<glyph glyph-name="Gbreve" unicode="&#x11e;" horiz-adv-x="550" d="M537 880 C481 811 438 771 386 771 C337 771 305 803 271 885 L211 854 C249 755 302 708 370 708 C441 708 513 761 582 852 L537 880 Z M403 -109 L486 243 L409 240 L372 76 C225 27 146 81 146 232 C146 391 235 561 354 561 C422 561 435 506 432 402 L508 402 C515 559 477 633 367 633 C202 633 64 434 64 219 C64 36 173 -47 356 4 L330 -110 L403 -109 Z " />
<glyph glyph-name="gbreve" unicode="&#x11f;" horiz-adv-x="550" d="M519 750 C463 681 420 641 368 641 C319 641 287 673 253 755 L193 724 C231 625 284 578 352 578 C423 578 495 631 564 722 L519 750 Z M211 96 C167 96 134 128 134 197 C134 312 207 436 307 436 C334 436 370 427 409 407 C386 349 364 271 355 200 C311 133 259 96 211 96 L211 96 Z M422 -82 C447 -32 422 38 422 168 C422 181 423 197 424 214 C476 315 521 439 521 474 C521 489 489 502 469 502 C462 502 453 493 443 477 C409 493 375 501 339 501 C174 501 56 343 56 178 C56 75 107 24 175 24 C240 24 303 70 352 131 C354 28 376 -46 351 -70 C331 -91 247 -110 53 -94 L45 -170 C282 -184 391 -144 422 -82 L422 -82 Z " />
<glyph glyph-name="Gdotaccent" unicode="&#x120;" horiz-adv-x="550" d="M402 715 L443 847 L352 846 L320 714 L402 715 Z M403 -109 L486 243 L409 240 L372 76 C225 27 146 81 146 232 C146 391 235 561 354 561 C422 561 435 506 432 402 L508 402 C515 559 477 633 367 633 C202 633 64 434 64 219 C64 36 173 -47 356 4 L330 -110 L403 -109 Z " />
<glyph glyph-name="gdotaccent" unicode="&#x121;" horiz-adv-x="550" d="M385 585 L426 717 L335 716 L303 584 L385 585 Z M211 96 C167 96 134 128 134 197 C134 312 207 436 307 436 C334 436 370 427 409 407 C386 349 364 271 355 200 C311 133 259 96 211 96 L211 96 Z M422 -82 C447 -32 422 38 422 168 C422 181 423 197 424 214 C476 315 521 439 521 474 C521 489 489 502 469 502 C462 502 453 493 443 477 C409 493 375 501 339 501 C174 501 56 343 56 178 C56 75 107 24 175 24 C240 24 303 70 352 131 C354 28 376 -46 351 -70 C331 -91 247 -110 53 -94 L45 -170 C282 -184 391 -144 422 -82 L422 -82 Z " />
<glyph glyph-name="Gcommaaccent" unicode="&#x122;" horiz-adv-x="550" d="M403 -109 L486 243 L409 240 L372 76 C225 27 146 81 146 232 C146 391 235 561 354 561 C422 561 435 506 432 402 L508 402 C515 559 477 633 367 633 C202 633 64 434 64 219 C64 36 173 -47 356 4 L330 -110 L403 -109 Z M109 -355 L140 -371 C210 -308 246 -234 249 -164 L147 -167 C157 -225 153 -287 109 -355 L109 -355 Z " />
<glyph glyph-name="gcommaaccent" unicode="&#x123;" horiz-adv-x="550" d="M426 766 L394 781 C324 719 289 644 286 575 L387 577 C377 635 381 697 426 766 L426 766 Z M211 96 C167 96 134 128 134 197 C134 312 207 436 307 436 C334 436 370 427 409 407 C386 349 364 271 355 200 C311 133 259 96 211 96 L211 96 Z M422 -82 C447 -32 422 38 422 168 C422 181 423 197 424 214 C476 315 521 439 521 474 C521 489 489 502 469 502 C462 502 453 493 443 477 C409 493 375 501 339 501 C174 501 56 343 56 178 C56 75 107 24 175 24 C240 24 303 70 352 131 C354 28 376 -46 351 -70 C331 -91 247 -110 53 -94 L45 -170 C282 -184 391 -144 422 -82 L422 -82 Z " />
<glyph glyph-name="Hbar" unicode="&#x126;" horiz-adv-x="550" d="M413 332 L185 332 L207 446 L435 446 L413 332 Z M349 0 L431 0 L517 444 L587 444 L598 502 L528 502 L551 620 L469 620 L446 499 L218 499 L241 620 L160 620 L137 502 L66 502 L54 444 L126 444 L40 0 L121 0 L173 268 L401 268 L349 0 Z " />
<glyph glyph-name="hbar" unicode="&#x127;" horiz-adv-x="550" d="M514 36 L503 77 C431 48 418 55 418 82 C418 139 485 308 485 406 C485 458 462 500 399 500 C338 500 269 462 199 388 L236 579 L371 579 L381 631 L246 631 L260 703 L182 697 L169 631 L98 631 L88 578 L159 578 L47 0 L123 0 L186 322 C250 391 309 426 352 426 C386 426 402 406 402 370 C402 290 337 127 337 50 C337 -16 394 -38 514 36 L514 36 Z " />
<glyph glyph-name="Imacron" unicode="&#x12a;" horiz-adv-x="550" d="M545 803 L215 803 L202 737 L532 737 L545 803 Z M277 65 L372 555 L517 555 L529 620 L154 620 L141 555 L291 555 L196 65 L49 65 L36 0 L412 0 L427 65 L277 65 Z " />
<glyph glyph-name="imacron" unicode="&#x12b;" horiz-adv-x="550" d="M515 674 L185 674 L172 608 L502 608 L515 674 Z M473 44 L464 87 C262 36 236 55 259 145 L349 489 L280 490 L74 439 L79 397 L256 421 L180 132 C142 -11 226 -57 473 44 L473 44 Z " />
<glyph glyph-name="Ibreve" unicode="&#x12c;" horiz-adv-x="550" d="M528 867 C472 798 429 758 377 758 C328 758 296 790 262 872 L202 841 C240 742 293 695 361 695 C432 695 504 748 573 839 L528 867 Z M277 65 L372 555 L517 555 L529 620 L154 620 L141 555 L291 555 L196 65 L49 65 L36 0 L412 0 L427 65 L277 65 Z " />
<glyph glyph-name="ibreve" unicode="&#x12d;" horiz-adv-x="550" d="M497 738 C441 669 398 629 346 629 C297 629 265 661 231 743 L171 712 C209 613 262 566 330 566 C401 566 473 619 542 710 L497 738 Z M473 44 L464 87 C262 36 236 55 259 145 L349 489 L280 490 L74 439 L79 397 L256 421 L180 132 C142 -11 226 -57 473 44 L473 44 Z " />
<glyph glyph-name="Iogonek" unicode="&#x12e;" horiz-adv-x="550" d="M310 -167 L300 -130 C197 -169 155 -152 155 -119 C155 -84 189 -43 272 0 L412 0 L427 65 L277 65 L372 555 L517 555 L529 620 L154 620 L141 555 L291 555 L196 65 L49 65 L36 0 L189 0 C114 -48 83 -96 83 -141 C83 -202 161 -243 310 -167 L310 -167 Z " />
<glyph glyph-name="iogonek" unicode="&#x12f;" horiz-adv-x="550" d="M370 574 L410 708 L320 703 L289 570 L370 574 Z M388 -167 L378 -130 C274 -169 233 -152 233 -119 C233 -78 280 -31 473 44 L464 87 C262 36 236 55 259 145 L349 489 L280 490 L74 439 L79 397 L256 421 L180 132 C155 40 179 -13 271 -10 C190 -55 160 -99 160 -141 C160 -202 239 -243 388 -167 L388 -167 Z " />
<glyph glyph-name="Idotaccent" unicode="&#x130;" horiz-adv-x="550" d="M393 702 L434 834 L343 833 L311 701 L393 702 Z M277 65 L372 555 L517 555 L529 620 L154 620 L141 555 L291 555 L196 65 L49 65 L36 0 L412 0 L427 65 L277 65 Z " />
<glyph glyph-name="dotlessi" unicode="&#x131;" horiz-adv-x="550" d="M473 44 L464 87 C262 36 236 55 259 145 L349 489 L280 490 L74 439 L79 397 L256 421 L180 132 C142 -11 226 -57 473 44 L473 44 Z " />
<glyph glyph-name="Kcommaaccent" unicode="&#x136;" horiz-adv-x="550" d="M394 -6 L480 5 L302 311 L583 620 L495 620 L213 312 L394 -6 Z M170 620 L49 0 L130 0 L251 620 L170 620 Z M161 -265 L192 -281 C262 -218 298 -144 301 -74 L199 -77 C209 -135 205 -197 161 -265 L161 -265 Z " />
<glyph glyph-name="kcommaaccent" unicode="&#x137;" horiz-adv-x="550" d="M403 -6 L492 6 L315 201 C460 279 516 354 516 419 C516 468 483 501 425 501 C362 501 282 461 205 383 L267 703 L189 697 L54 0 L131 0 L192 315 C266 390 335 429 384 429 C414 429 432 414 432 387 C432 345 385 282 223 198 L403 -6 Z M156 -265 L187 -281 C257 -218 293 -144 296 -74 L194 -77 C204 -135 200 -197 156 -265 L156 -265 Z " />
<glyph glyph-name="Lacute" unicode="&#x139;" horiz-adv-x="550" d="M269 723 L285 688 C360 720 473 778 540 829 L485 892 C428 836 334 762 269 723 L269 723 Z M446 0 L461 70 L157 70 L263 620 L181 620 L61 0 L446 0 Z " />
<glyph glyph-name="lacute" unicode="&#x13a;" horiz-adv-x="550" d="M373 806 L389 771 C464 803 577 861 644 912 L589 975 C532 919 438 845 373 806 L373 806 Z M463 65 L448 105 C296 32 216 36 205 162 C437 328 533 483 533 602 C533 668 498 706 439 706 C298 706 125 450 125 178 C125 174 125 169 125 165 C103 150 70 129 61 123 L82 87 C88 91 110 105 130 117 C154 -32 277 -46 463 65 L463 65 Z M412 629 C440 629 459 609 459 569 C459 487 390 362 204 216 C212 435 328 629 412 629 L412 629 Z " />
<glyph glyph-name="Lcommaaccent" unicode="&#x13b;" horiz-adv-x="550" d="M446 0 L461 70 L157 70 L263 620 L181 620 L61 0 L446 0 Z M152 -259 L183 -275 C253 -212 289 -138 292 -68 L190 -71 C200 -129 196 -191 152 -259 L152 -259 Z " />
<glyph glyph-name="lcommaaccent" unicode="&#x13c;" horiz-adv-x="550" d="M463 65 L448 105 C296 32 216 36 205 162 C437 328 533 483 533 602 C533 668 498 706 439 706 C298 706 125 450 125 178 C125 174 125 169 125 165 C103 150 70 129 61 123 L82 87 C88 91 110 105 130 117 C154 -32 277 -46 463 65 L463 65 Z M412 629 C440 629 459 609 459 569 C459 487 390 362 204 216 C212 435 328 629 412 629 L412 629 Z M170 -267 L201 -283 C271 -220 307 -146 310 -76 L208 -79 C218 -137 214 -199 170 -267 L170 -267 Z " />
<glyph glyph-name="Lcaron" unicode="&#x13d;" horiz-adv-x="550" d="M474 695 C478 620 475 551 422 461 L456 446 C531 533 559 614 564 700 L474 695 Z M446 0 L461 70 L157 70 L263 620 L181 620 L61 0 L446 0 Z " />
<glyph glyph-name="lcaron" unicode="&#x13e;" horiz-adv-x="550" d="M625 798 C629 723 626 654 573 564 L607 549 C682 636 710 717 715 803 L625 798 Z M463 65 L448 105 C296 32 216 36 205 162 C437 328 533 483 533 602 C533 668 498 706 439 706 C298 706 125 450 125 178 C125 174 125 169 125 165 C103 150 70 129 61 123 L82 87 C88 91 110 105 130 117 C154 -32 277 -46 463 65 L463 65 Z M412 629 C440 629 459 609 459 569 C459 487 390 362 204 216 C212 435 328 629 412 629 L412 629 Z " />
<glyph glyph-name="Ldot" unicode="&#x13f;" horiz-adv-x="550" d="M446 0 L461 70 L157 70 L263 620 L181 620 L61 0 L446 0 Z M472 266 L498 374 L406 374 L380 266 L472 266 Z " />
<glyph glyph-name="ldot" unicode="&#x140;" horiz-adv-x="550" d="M463 65 L448 105 C296 32 216 36 205 162 C437 328 533 483 533 602 C533 668 498 706 439 706 C298 706 125 450 125 178 C125 174 125 169 125 165 C103 150 70 129 61 123 L82 87 C88 91 110 105 130 117 C154 -32 277 -46 463 65 L463 65 Z M412 629 C440 629 459 609 459 569 C459 487 390 362 204 216 C212 435 328 629 412 629 L412 629 Z M586 263 L610 371 L522 371 L498 263 L586 263 Z " />
<glyph glyph-name="Lslash" unicode="&#x141;" horiz-adv-x="550" d="M460 0 L475 70 L171 70 L223 338 L390 416 L387 472 L235 400 L277 620 L195 620 L144 358 L54 315 L56 260 L132 296 L75 0 L460 0 Z " />
<glyph glyph-name="lslash" unicode="&#x142;" horiz-adv-x="550" d="M142 719 C142 681 168 651 207 622 L249 672 C214 699 196 715 196 732 C196 782 384 817 639 743 L665 806 C373 885 142 828 142 719 L142 719 Z M463 65 L448 105 C296 32 216 36 205 162 C437 328 533 483 533 602 C533 668 498 706 439 706 C298 706 125 450 125 178 C125 174 125 169 125 165 C103 150 70 129 61 123 L82 87 C88 91 110 105 130 117 C154 -32 277 -46 463 65 L463 65 Z M412 629 C440 629 459 609 459 569 C459 487 390 362 204 216 C212 435 328 629 412 629 L412 629 Z " />
<glyph glyph-name="Nacute" unicode="&#x143;" horiz-adv-x="550" d="M251 725 L267 690 C342 722 455 780 522 831 L467 894 C410 838 316 764 251 725 L251 725 Z M355 0 L432 0 L553 620 L477 620 L386 141 L381 141 L245 621 L160 619 L40 0 L116 0 L208 489 L213 489 L355 0 Z " />
<glyph glyph-name="nacute" unicode="&#x144;" horiz-adv-x="550" d="M215 604 L231 569 C306 601 419 659 486 710 L431 773 C374 717 280 643 215 604 L215 604 Z M514 36 L503 77 C431 48 418 55 418 82 C418 139 485 309 485 408 C485 460 462 501 399 501 C338 501 267 463 197 390 C202 428 209 476 212 493 L136 488 C114 343 92 233 47 0 L123 0 C137 69 177 268 188 330 C252 395 310 428 352 428 C386 428 402 408 402 371 C402 290 337 127 337 50 C337 -16 394 -38 514 36 L514 36 Z " />
<glyph glyph-name="Ncommaaccent" unicode="&#x145;" horiz-adv-x="550" d="M355 0 L432 0 L553 620 L477 620 L386 141 L381 141 L245 621 L160 619 L40 0 L116 0 L208 489 L213 489 L355 0 Z M134 -259 L165 -275 C235 -212 271 -138 274 -68 L172 -71 C182 -129 178 -191 134 -259 L134 -259 Z " />
<glyph glyph-name="ncommaaccent" unicode="&#x146;" horiz-adv-x="550" d="M514 36 L503 77 C431 48 418 55 418 82 C418 139 485 309 485 408 C485 460 462 501 399 501 C338 501 267 463 197 390 C202 428 209 476 212 493 L136 488 C114 343 92 233 47 0 L123 0 C137 69 177 268 188 330 C252 395 310 428 352 428 C386 428 402 408 402 371 C402 290 337 127 337 50 C337 -16 394 -38 514 36 L514 36 Z M131 -269 L162 -285 C232 -222 268 -148 271 -78 L169 -81 C179 -139 175 -201 131 -269 L131 -269 Z " />
<glyph glyph-name="Ncaron" unicode="&#x147;" horiz-adv-x="550" d="M367 687 L572 833 L536 875 L379 763 L277 879 L223 837 L363 687 L367 687 Z M355 0 L432 0 L553 620 L477 620 L386 141 L381 141 L245 621 L160 619 L40 0 L116 0 L208 489 L213 489 L355 0 Z " />
<glyph glyph-name="ncaron" unicode="&#x148;" horiz-adv-x="550" d="M331 566 L536 712 L500 754 L343 642 L241 758 L187 716 L327 566 L331 566 Z M514 36 L503 77 C431 48 418 55 418 82 C418 139 485 309 485 408 C485 460 462 501 399 501 C338 501 267 463 197 390 C202 428 209 476 212 493 L136 488 C114 343 92 233 47 0 L123 0 C137 69 177 268 188 330 C252 395 310 428 352 428 C386 428 402 408 402 371 C402 290 337 127 337 50 C337 -16 394 -38 514 36 L514 36 Z " />
<glyph glyph-name="Omacron" unicode="&#x14c;" horiz-adv-x="550" d="M559 817 L229 817 L216 751 L546 751 L559 817 Z M350 632 C181 632 60 428 60 220 C60 63 134 -12 240 -12 C409 -12 530 191 530 399 C530 556 456 632 350 632 L350 632 Z M251 58 C186 58 144 112 144 225 C144 391 224 562 339 562 C404 562 446 508 446 395 C446 229 366 58 251 58 L251 58 Z " />
<glyph glyph-name="omacron" unicode="&#x14d;" horiz-adv-x="550" d="M526 685 L196 685 L183 619 L513 619 L526 685 Z M54 188 C54 59 124 -11 233 -11 C381 -11 497 128 497 302 C497 431 425 502 317 502 C168 502 54 360 54 188 L54 188 Z M417 291 C417 164 347 54 246 54 C174 54 133 107 133 199 C133 325 202 437 304 437 C376 437 417 383 417 291 L417 291 Z " />
<glyph glyph-name="Obreve" unicode="&#x14e;" horiz-adv-x="550" d="M541 881 C485 812 442 772 390 772 C341 772 309 804 275 886 L215 855 C253 756 306 709 374 709 C445 709 517 762 586 853 L541 881 Z M350 632 C181 632 60 428 60 220 C60 63 134 -12 240 -12 C409 -12 530 191 530 399 C530 556 456 632 350 632 L350 632 Z M251 58 C186 58 144 112 144 225 C144 391 224 562 339 562 C404 562 446 508 446 395 C446 229 366 58 251 58 L251 58 Z " />
<glyph glyph-name="obreve" unicode="&#x14f;" horiz-adv-x="550" d="M508 749 C452 680 409 640 357 640 C308 640 276 672 242 754 L182 723 C220 624 273 577 341 577 C412 577 484 630 553 721 L508 749 Z M54 188 C54 59 124 -11 233 -11 C381 -11 497 128 497 302 C497 431 425 502 317 502 C168 502 54 360 54 188 L54 188 Z M417 291 C417 164 347 54 246 54 C174 54 133 107 133 199 C133 325 202 437 304 437 C376 437 417 383 417 291 L417 291 Z " />
<glyph glyph-name="Ohungarumlaut" unicode="&#x150;" horiz-adv-x="550" d="M254 703 C315 754 390 830 433 883 L357 924 C324 868 267 784 220 730 L254 703 Z M464 703 C525 753 598 828 641 882 L563 919 C531 862 476 784 429 730 L464 703 Z M350 632 C181 632 60 428 60 220 C60 63 134 -12 240 -12 C409 -12 530 191 530 399 C530 556 456 632 350 632 L350 632 Z M251 58 C186 58 144 112 144 225 C144 391 224 562 339 562 C404 562 446 508 446 395 C446 229 366 58 251 58 L251 58 Z " />
<glyph glyph-name="ohungarumlaut" unicode="&#x151;" horiz-adv-x="550" d="M221 571 C282 622 357 698 400 751 L324 792 C291 736 234 652 187 598 L221 571 Z M431 571 C492 621 565 696 608 750 L530 787 C498 730 443 652 396 598 L431 571 Z M54 188 C54 59 124 -11 233 -11 C381 -11 497 128 497 302 C497 431 425 502 317 502 C168 502 54 360 54 188 L54 188 Z M417 291 C417 164 347 54 246 54 C174 54 133 107 133 199 C133 325 202 437 304 437 C376 437 417 383 417 291 L417 291 Z " />
<glyph glyph-name="OE" unicode="&#x152;" horiz-adv-x="550" d="M134 210 C134 309 177 548 345 552 L251 68 C176 70 134 110 134 210 L134 210 Z M492 68 L324 68 L366 285 L502 285 L514 342 L377 342 L418 552 L583 552 L595 620 L394 620 C121 620 53 350 53 207 C53 47 139 0 265 0 L473 0 L492 68 Z " />
<glyph glyph-name="oe" unicode="&#x153;" horiz-adv-x="550" d="M280 346 C280 232 228 54 161 54 C130 54 110 87 110 149 C110 260 168 436 233 436 C265 436 280 403 280 346 L280 346 Z M453 433 C475 433 489 415 489 383 C489 315 435 250 338 233 C354 333 399 433 453 433 L453 433 Z M519 59 L507 96 C377 31 331 60 331 156 C331 166 331 176 332 186 C482 207 562 292 562 396 C562 461 529 499 476 499 C424 499 377 460 341 402 C329 463 297 499 246 499 C127 499 35 318 35 151 C35 44 76 -9 141 -9 C192 -9 238 28 274 84 C294 -15 371 -50 519 59 L519 59 Z " />
<glyph glyph-name="Racute" unicode="&#x154;" horiz-adv-x="550" d="M236 730 L252 695 C327 727 440 785 507 836 L452 899 C395 843 301 769 236 730 L236 730 Z M401 -6 L489 6 L333 266 C450 323 520 390 520 481 C520 580 426 652 168 618 L48 0 L128 0 L236 554 C372 570 439 534 439 465 C439 395 381 343 239 280 L238 277 L401 -6 Z " />
<glyph glyph-name="racute" unicode="&#x155;" horiz-adv-x="550" d="M260 612 L276 577 C351 609 464 667 531 718 L476 781 C419 725 325 651 260 612 L260 612 Z M507 29 L500 71 C350 22 320 52 494 476 L457 497 C393 468 319 448 258 441 C262 455 264 468 264 480 C264 508 249 524 226 524 C178 524 128 469 128 428 C128 404 147 389 177 382 C148 319 105 259 44 186 L75 157 C140 226 199 307 233 377 C280 378 336 388 391 404 C220 6 291 -67 507 29 L507 29 Z " />
<glyph glyph-name="Rcommaaccent" unicode="&#x156;" horiz-adv-x="550" d="M401 -6 L489 6 L333 266 C450 323 520 390 520 481 C520 580 426 652 168 618 L48 0 L128 0 L236 554 C372 570 439 534 439 465 C439 395 381 343 239 280 L238 277 L401 -6 Z M145 -265 L176 -281 C246 -218 282 -144 285 -74 L183 -77 C193 -135 189 -197 145 -265 L145 -265 Z " />
<glyph glyph-name="rcommaaccent" unicode="&#x157;" horiz-adv-x="550" d="M507 29 L500 71 C350 22 320 52 494 476 L457 497 C393 468 319 448 258 441 C262 455 264 468 264 480 C264 508 249 524 226 524 C178 524 128 469 128 428 C128 404 147 389 177 382 C148 319 105 259 44 186 L75 157 C140 226 199 307 233 377 C280 378 336 388 391 404 C220 6 291 -67 507 29 L507 29 Z M113 -248 L144 -264 C214 -201 250 -127 253 -57 L151 -60 C161 -118 157 -180 113 -248 L113 -248 Z " />
<glyph glyph-name="Rcaron" unicode="&#x158;" horiz-adv-x="550" d="M352 692 L557 838 L521 880 L364 768 L262 884 L208 842 L348 692 L352 692 Z M401 -6 L489 6 L333 266 C450 323 520 390 520 481 C520 580 426 652 168 618 L48 0 L128 0 L236 554 C372 570 439 534 439 465 C439 395 381 343 239 280 L238 277 L401 -6 Z " />
<glyph glyph-name="rcaron" unicode="&#x159;" horiz-adv-x="550" d="M365 574 L570 720 L534 762 L377 650 L275 766 L221 724 L361 574 L365 574 Z M507 29 L500 71 C350 22 320 52 494 476 L457 497 C393 468 319 448 258 441 C262 455 264 468 264 480 C264 508 249 524 226 524 C178 524 128 469 128 428 C128 404 147 389 177 382 C148 319 105 259 44 186 L75 157 C140 226 199 307 233 377 C280 378 336 388 391 404 C220 6 291 -67 507 29 L507 29 Z " />
<glyph glyph-name="Sacute" unicode="&#x15a;" horiz-adv-x="550" d="M252 735 L268 700 C343 732 456 790 523 841 L468 904 C411 848 317 774 252 735 L252 735 Z M512 460 C496 571 443 631 340 631 C213 631 123 544 123 449 C123 304 378 240 378 138 C378 77 295 30 45 94 L29 14 C340 -52 461 44 461 145 C461 284 205 344 205 459 C205 515 253 563 321 563 C388 563 426 528 440 446 L512 460 Z " />
<glyph glyph-name="sacute" unicode="&#x15b;" horiz-adv-x="550" d="M231 634 L247 599 C322 631 435 689 502 740 L447 803 C390 747 296 673 231 634 L231 634 Z M463 130 C463 213 358 300 327 378 C409 471 396 531 340 531 C290 531 236 473 236 413 C236 398 238 384 242 370 C208 333 156 292 72 234 L93 198 C165 241 222 282 265 319 C309 244 386 179 386 125 C386 78 337 47 121 65 L119 -7 C390 -21 463 52 463 130 L463 130 Z " />
<glyph glyph-name="Scedilla" unicode="&#x15e;" horiz-adv-x="550" d="M255 -184 L325 -182 C331 -86 304 -29 262 -6 C402 7 461 75 461 145 C461 284 205 344 205 459 C205 515 253 563 321 563 C388 563 426 528 440 446 L512 460 C496 571 443 631 340 631 C213 631 123 544 123 449 C123 304 378 240 378 138 C378 77 295 30 45 94 L29 14 C80 3 126 -3 167 -6 C130 -26 97 -71 67 -143 L109 -156 C141 -91 172 -52 205 -52 C239 -52 261 -89 255 -184 L255 -184 Z " />
<glyph glyph-name="scedilla" unicode="&#x15f;" horiz-adv-x="550" d="M279 -184 L349 -182 C355 -82 326 -24 281 -3 C421 14 463 71 463 130 C463 213 358 300 327 378 C409 471 396 531 340 531 C290 531 236 473 236 413 C236 398 238 384 242 370 C208 333 156 292 72 234 L93 198 C165 241 222 282 265 319 C309 244 386 179 386 125 C386 78 337 47 121 65 L119 -7 C143 -8 165 -9 186 -9 C151 -30 120 -74 91 -143 L133 -156 C165 -91 196 -52 229 -52 C263 -52 285 -89 279 -184 L279 -184 Z " />
<glyph glyph-name="Scaron" unicode="&#x160;" horiz-adv-x="550" d="M368 697 L573 843 L537 885 L380 773 L278 889 L224 847 L364 697 L368 697 Z M512 460 C496 571 443 631 340 631 C213 631 123 544 123 449 C123 304 378 240 378 138 C378 77 295 30 45 94 L29 14 C340 -52 461 44 461 145 C461 284 205 344 205 459 C205 515 253 563 321 563 C388 563 426 528 440 446 L512 460 Z " />
<glyph glyph-name="scaron" unicode="&#x161;" horiz-adv-x="550" d="M347 596 L552 742 L516 784 L359 672 L257 788 L203 746 L343 596 L347 596 Z M463 130 C463 213 358 300 327 378 C409 471 396 531 340 531 C290 531 236 473 236 413 C236 398 238 384 242 370 C208 333 156 292 72 234 L93 198 C165 241 222 282 265 319 C309 244 386 179 386 125 C386 78 337 47 121 65 L119 -7 C390 -21 463 52 463 130 L463 130 Z " />
<glyph glyph-name="Tcommaaccent" unicode="&#x162;" horiz-adv-x="550" d="M375 550 L567 550 L580 620 L115 620 L102 550 L294 550 L187 0 L268 0 L375 550 Z M125 -259 L156 -275 C226 -212 262 -138 265 -68 L163 -71 C173 -129 169 -191 125 -259 L125 -259 Z " />
<glyph glyph-name="tcommaaccent" unicode="&#x163;" horiz-adv-x="550" d="M459 52 L451 93 C242 22 208 60 233 169 L291 427 L482 427 L494 488 L305 488 L337 631 L277 626 L200 488 L137 488 L121 427 L214 427 L156 165 C119 5 204 -77 459 52 L459 52 Z M139 -271 L170 -287 C240 -224 276 -150 279 -80 L177 -83 C187 -141 183 -203 139 -271 L139 -271 Z " />
<glyph glyph-name="Tcaron" unicode="&#x164;" horiz-adv-x="550" d="M358 685 L563 831 L527 873 L370 761 L268 877 L214 835 L354 685 L358 685 Z M375 550 L567 550 L580 620 L115 620 L102 550 L294 550 L187 0 L268 0 L375 550 Z " />
<glyph glyph-name="tcaron" unicode="&#x165;" horiz-adv-x="550" d="M444 829 C448 754 445 685 392 595 L426 580 C501 667 529 748 534 834 L444 829 Z M459 52 L451 93 C242 22 208 60 233 169 L291 427 L482 427 L494 488 L305 488 L337 631 L277 626 L200 488 L137 488 L121 427 L214 427 L156 165 C119 5 204 -77 459 52 L459 52 Z " />
<glyph glyph-name="Umacron" unicode="&#x16a;" horiz-adv-x="550" d="M555 803 L225 803 L212 737 L542 737 L555 803 Z M160 221 L237 620 L156 620 L78 220 C48 62 115 -14 244 -14 C361 -14 443 55 471 202 L553 620 L472 620 L390 200 C371 102 325 57 253 57 C172 57 137 107 160 221 L160 221 Z " />
<glyph glyph-name="umacron" unicode="&#x16b;" horiz-adv-x="550" d="M538 676 L208 676 L195 610 L525 610 L538 676 Z M519 37 L510 77 C421 41 416 58 430 127 L501 490 L425 490 L363 171 C301 99 250 63 205 63 C162 63 143 96 162 181 L232 493 L154 488 L79 365 L122 339 L85 173 C56 47 93 -11 166 -11 C225 -11 284 28 350 104 C332 -10 373 -48 519 37 L519 37 Z " />
<glyph glyph-name="Ubreve" unicode="&#x16c;" horiz-adv-x="550" d="M538 867 C482 798 439 758 387 758 C338 758 306 790 272 872 L212 841 C250 742 303 695 371 695 C442 695 514 748 583 839 L538 867 Z M160 221 L237 620 L156 620 L78 220 C48 62 115 -14 244 -14 C361 -14 443 55 471 202 L553 620 L472 620 L390 200 C371 102 325 57 253 57 C172 57 137 107 160 221 L160 221 Z " />
<glyph glyph-name="ubreve" unicode="&#x16d;" horiz-adv-x="550" d="M520 740 C464 671 421 631 369 631 C320 631 288 663 254 745 L194 714 C232 615 285 568 353 568 C424 568 496 621 565 712 L520 740 Z M519 37 L510 77 C421 41 416 58 430 127 L501 490 L425 490 L363 171 C301 99 250 63 205 63 C162 63 143 96 162 181 L232 493 L154 488 L79 365 L122 339 L85 173 C56 47 93 -11 166 -11 C225 -11 284 28 350 104 C332 -10 373 -48 519 37 L519 37 Z " />
<glyph glyph-name="Uring" unicode="&#x16e;" horiz-adv-x="550" d="M394 887 C313 887 254 837 254 776 C254 721 305 677 379 677 C460 677 519 729 519 789 C519 843 468 887 394 887 L394 887 Z M160 221 L237 620 L156 620 L78 220 C48 62 115 -14 244 -14 C361 -14 443 55 471 202 L553 620 L472 620 L390 200 C371 102 325 57 253 57 C172 57 137 107 160 221 L160 221 Z " />
<glyph glyph-name="uring" unicode="&#x16f;" horiz-adv-x="550" d="M376 760 C295 760 236 710 236 649 C236 594 287 550 361 550 C442 550 501 602 501 662 C501 716 450 760 376 760 L376 760 Z M519 37 L510 77 C421 41 416 58 430 127 L501 490 L425 490 L363 171 C301 99 250 63 205 63 C162 63 143 96 162 181 L232 493 L154 488 L79 365 L122 339 L85 173 C56 47 93 -11 166 -11 C225 -11 284 28 350 104 C332 -10 373 -48 519 37 L519 37 Z " />
<glyph glyph-name="Uhungarumlaut" unicode="&#x170;" horiz-adv-x="550" d="M251 689 C312 740 387 816 430 869 L354 910 C321 854 264 770 217 716 L251 689 Z M461 689 C522 739 595 814 638 868 L560 905 C528 848 473 770 426 716 L461 689 Z M160 221 L237 620 L156 620 L78 220 C48 62 115 -14 244 -14 C361 -14 443 55 471 202 L553 620 L472 620 L390 200 C371 102 325 57 253 57 C172 57 137 107 160 221 L160 221 Z " />
<glyph glyph-name="uhungarumlaut" unicode="&#x171;" horiz-adv-x="550" d="M233 562 C294 613 369 689 412 742 L336 783 C303 727 246 643 199 589 L233 562 Z M443 562 C504 612 577 687 620 741 L542 778 C510 721 455 643 408 589 L443 562 Z M519 37 L510 77 C421 41 416 58 430 127 L501 490 L425 490 L363 171 C301 99 250 63 205 63 C162 63 143 96 162 181 L232 493 L154 488 L79 365 L122 339 L85 173 C56 47 93 -11 166 -11 C225 -11 284 28 350 104 C332 -10 373 -48 519 37 L519 37 Z " />
<glyph glyph-name="Uogonek" unicode="&#x172;" horiz-adv-x="550" d="M337 -167 L327 -130 C224 -169 183 -152 183 -119 C183 -84 227 -50 343 7 C408 39 452 102 471 202 L553 620 L472 620 L390 200 C371 102 325 57 253 57 C172 57 137 107 160 221 L237 620 L156 620 L78 220 C49 68 110 -8 229 -14 C148 -57 110 -101 110 -141 C110 -203 189 -243 337 -167 L337 -167 Z " />
<glyph glyph-name="uogonek" unicode="&#x173;" horiz-adv-x="550" d="M488 -167 L478 -130 C375 -169 334 -152 334 -119 C334 -79 376 -28 519 37 L510 77 C421 41 416 58 430 127 L501 490 L425 490 L363 171 C301 99 250 63 205 63 C162 63 143 96 162 181 L232 493 L154 488 L79 365 L122 339 L85 173 C56 47 93 -11 166 -11 C222 -11 283 29 350 104 C341 47 350 13 380 2 C296 -46 261 -96 261 -141 C261 -202 339 -243 488 -167 L488 -167 Z " />
<glyph glyph-name="Wcircumflex" unicode="&#x174;" horiz-adv-x="550" d="M499 688 L553 730 L414 880 L410 880 L205 733 L240 692 L398 803 L499 688 Z M324 0 L410 0 C449 117 516 353 580 620 L502 620 C473 495 393 167 374 105 L371 105 L348 436 L299 436 L148 105 L144 105 C149 167 196 495 215 620 L135 620 C96 354 72 118 67 0 L152 0 L301 327 L324 0 Z " />
<glyph glyph-name="wcircumflex" unicode="&#x175;" horiz-adv-x="550" d="M473 557 L527 599 L388 749 L384 749 L179 602 L214 561 L372 672 L473 557 Z M324 0 L398 0 C461 180 507 327 551 489 L469 489 C438 352 408 235 372 98 L368 98 L330 366 L281 366 L141 99 L138 99 C155 232 169 350 191 489 L112 489 C87 306 71 117 67 0 L143 0 L284 264 L324 0 Z " />
<glyph glyph-name="Ycircumflex" unicode="&#x176;" horiz-adv-x="550" d="M492 690 L546 732 L407 882 L403 882 L198 735 L233 694 L391 805 L492 690 Z M269 0 L308 203 L594 620 L507 620 L285 286 L188 622 L105 618 L228 209 L188 0 L269 0 Z " />
<glyph glyph-name="ycircumflex" unicode="&#x177;" horiz-adv-x="550" d="M475 567 L529 609 L390 759 L386 759 L181 612 L216 571 L374 682 L475 567 Z M419 -82 C446 -29 430 62 430 176 C430 186 430 195 431 204 C481 302 519 436 519 473 C519 489 486 499 465 499 C435 499 373 335 364 199 C309 137 246 98 203 98 C142 98 111 163 229 491 L153 489 C14 118 70 27 163 27 C232 27 307 77 363 138 C365 28 376 -46 352 -71 C331 -91 253 -109 65 -93 L54 -171 C286 -183 388 -144 419 -82 L419 -82 Z " />
<glyph glyph-name="Ydieresis" unicode="&#x178;" horiz-adv-x="550" d="M506 705 L546 838 L456 836 L425 704 L506 705 Z M291 703 L331 835 L242 834 L210 702 L291 703 Z M269 0 L308 203 L594 620 L507 620 L285 286 L188 622 L105 618 L228 209 L188 0 L269 0 Z " />
<glyph glyph-name="Zacute" unicode="&#x179;" horiz-adv-x="550" d="M244 723 L260 688 C335 720 448 778 515 829 L460 892 C403 836 309 762 244 723 L244 723 Z M437 0 L450 71 L129 70 L540 551 L552 620 L149 620 L135 549 L449 550 L35 69 L23 0 L437 0 Z " />
<glyph glyph-name="zacute" unicode="&#x17a;" horiz-adv-x="550" d="M221 593 L237 558 C312 590 425 648 492 699 L437 762 C380 706 286 632 221 593 L221 593 Z M426 0 L445 69 L134 67 L506 424 L519 490 L135 490 L116 421 L416 423 L44 66 L31 0 L426 0 Z " />
<glyph glyph-name="Zdotaccent" unicode="&#x17b;" horiz-adv-x="550" d="M399 702 L440 834 L349 833 L317 701 L399 702 Z M437 0 L450 71 L129 70 L540 551 L552 620 L149 620 L135 549 L449 550 L35 69 L23 0 L437 0 Z " />
<glyph glyph-name="zdotaccent" unicode="&#x17c;" horiz-adv-x="550" d="M376 572 L417 704 L326 703 L294 571 L376 572 Z M426 0 L445 69 L134 67 L506 424 L519 490 L135 490 L116 421 L416 423 L44 66 L31 0 L426 0 Z " />
<glyph glyph-name="Zcaron" unicode="&#x17d;" horiz-adv-x="550" d="M360 685 L565 831 L529 873 L372 761 L270 877 L216 835 L356 685 L360 685 Z M437 0 L450 71 L129 70 L540 551 L552 620 L149 620 L135 549 L449 550 L35 69 L23 0 L437 0 Z " />
<glyph glyph-name="zcaron" unicode="&#x17e;" horiz-adv-x="550" d="M337 555 L542 701 L506 743 L349 631 L247 747 L193 705 L333 555 L337 555 Z M426 0 L445 69 L134 67 L506 424 L519 490 L135 490 L116 421 L416 423 L44 66 L31 0 L426 0 Z " />
<glyph glyph-name="Aringacute" unicode="&#x1fa;" horiz-adv-x="550" d="M308 961 L324 926 C399 958 512 1016 579 1067 L524 1130 C467 1074 373 1000 308 961 L308 961 Z M393 889 C312 889 253 839 253 778 C253 723 304 679 378 679 C459 679 518 731 518 791 C518 845 467 889 393 889 L393 889 Z M390 -3 L470 3 C453 210 433 416 411 622 L297 622 C193 415 92 207 -3 0 L79 0 C107 63 136 126 165 189 L376 189 C381 125 385 61 390 -3 L390 -3 Z M337 551 L344 551 C354 452 363 351 371 251 L194 251 C241 351 288 452 337 551 L337 551 Z " />
<glyph glyph-name="aringacute" unicode="&#x1fb;" horiz-adv-x="550" d="M300 841 L316 806 C391 838 504 896 571 947 L516 1010 C459 954 365 880 300 841 L300 841 Z M384 767 C303 767 244 717 244 656 C244 601 295 557 369 557 C450 557 509 609 509 669 C509 723 458 767 384 767 L384 767 Z M193 63 C157 63 129 92 129 161 C129 298 208 433 306 433 C329 433 364 428 400 417 C385 341 358 204 348 153 C299 104 235 63 193 63 L193 63 Z M513 37 L505 77 C411 42 405 58 419 127 L488 479 C437 493 390 500 348 500 C171 500 50 326 50 143 C50 40 94 -10 154 -10 C210 -10 281 37 340 95 C328 -8 367 -49 513 37 L513 37 Z " />
<glyph glyph-name="AEacute" unicode="&#x1fc;" horiz-adv-x="550" d="M340 723 L356 688 C431 720 544 778 611 829 L556 892 C499 836 405 762 340 723 L340 723 Z M339 552 L348 552 L288 243 L183 243 C235 346 287 449 339 552 L339 552 Z M241 0 L477 0 L495 68 L325 68 L368 285 L506 285 L517 342 L379 342 L420 552 L586 552 L599 620 L305 620 C195 413 86 205 -21 0 L61 0 C92 61 122 122 153 183 L276 183 L241 0 Z " />
<glyph glyph-name="aeacute" unicode="&#x1fd;" horiz-adv-x="550" d="M245 597 L261 562 C336 594 449 652 516 703 L461 766 C404 710 310 636 245 597 L245 597 Z M445 434 C471 434 483 417 483 387 C483 326 430 251 324 232 C342 334 390 434 445 434 L445 434 Z M147 64 C124 64 112 90 112 142 C112 277 171 433 248 433 C268 433 292 427 320 406 C273 337 243 240 243 142 C210 98 177 64 147 64 L147 64 Z M514 57 L506 98 C363 30 317 56 317 154 C317 165 317 176 318 187 C478 209 556 302 556 401 C556 460 524 499 465 499 C431 499 399 485 371 462 C337 484 301 496 264 496 C134 496 33 307 33 123 C33 35 62 -7 110 -7 C160 -7 207 31 249 82 C271 -13 355 -48 514 57 L514 57 Z " />
<glyph glyph-name="Oslashacute" unicode="&#x1fe;" horiz-adv-x="550" d="M252 737 L268 702 C343 734 456 792 523 843 L468 906 C411 850 317 776 252 737 L252 737 Z M145 231 C145 397 223 564 335 564 C370 564 399 549 418 517 L152 158 C147 179 145 203 145 231 L145 231 Z M255 56 C218 56 190 72 171 104 L438 465 C443 443 445 418 445 390 C445 223 368 56 255 56 L255 56 Z M243 -13 C410 -13 528 186 528 392 C528 452 518 501 500 539 L565 625 L518 657 L466 587 C435 618 395 633 347 633 C181 633 62 435 62 228 C62 168 72 120 90 83 L24 -5 L72 -37 L124 33 C155 2 195 -13 243 -13 L243 -13 Z " />
<glyph glyph-name="oslashacute" unicode="&#x1ff;" horiz-adv-x="550" d="M220 605 L236 570 C311 602 424 660 491 711 L436 774 C379 718 285 644 220 605 L220 605 Z M132 199 C132 326 202 438 304 438 C338 438 365 426 385 403 L142 130 C135 150 132 173 132 199 L132 199 Z M246 53 C213 53 187 64 168 85 L409 357 C415 338 418 316 418 292 C418 163 347 53 246 53 L246 53 Z M233 -11 C381 -11 497 128 497 302 C497 349 488 388 470 419 L534 489 L489 523 L435 463 C404 489 364 502 317 502 C168 502 54 360 54 188 C54 140 64 100 82 68 L18 -1 L63 -35 L118 26 C148 2 187 -11 233 -11 L233 -11 Z " />
<glyph glyph-name="Scommaaccent" unicode="&#x218;" horiz-adv-x="550" d="M512 460 C496 571 443 631 340 631 C213 631 123 544 123 449 C123 304 378 240 378 138 C378 77 295 30 45 94 L29 14 C340 -52 461 44 461 145 C461 284 205 344 205 459 C205 515 253 563 321 563 C388 563 426 528 440 446 L512 460 Z M115 -267 L146 -283 C216 -220 252 -146 255 -76 L153 -79 C163 -137 159 -199 115 -267 L115 -267 Z " />
<glyph glyph-name="scommaaccent" unicode="&#x219;" horiz-adv-x="550" d="M463 130 C463 213 358 300 327 378 C409 471 396 531 340 531 C290 531 236 473 236 413 C236 398 238 384 242 370 C208 333 156 292 72 234 L93 198 C165 241 222 282 265 319 C309 244 386 179 386 125 C386 78 337 47 121 65 L119 -7 C390 -21 463 52 463 130 L463 130 Z M121 -268 L152 -284 C222 -221 258 -147 261 -77 L159 -80 C169 -138 165 -200 121 -268 L121 -268 Z " />
<glyph glyph-name="schwa" unicode="&#x259;" horiz-adv-x="550" d="M192 -12 C361 -12 487 161 487 316 C487 480 345 570 80 435 L90 393 C317 468 411 435 411 306 C182 289 53 219 53 105 C53 33 106 -12 192 -12 L192 -12 Z M211 53 C160 53 128 81 128 120 C128 202 238 247 407 259 C390 156 317 53 211 53 L211 53 Z " />
<glyph glyph-name="circumflex" unicode="&#x2c6;" horiz-adv-x="550" d="M396 558 L450 600 L311 750 L307 750 L102 603 L137 562 L295 673 L396 558 Z " />
<glyph glyph-name="caron" unicode="&#x2c7;" horiz-adv-x="550" d="M269 555 L474 701 L438 743 L281 631 L179 747 L125 705 L265 555 L269 555 Z " />
<glyph glyph-name="breve" unicode="&#x2d8;" horiz-adv-x="550" d="M430 737 C374 668 331 628 279 628 C230 628 198 660 164 742 L104 711 C142 612 195 565 263 565 C334 565 406 618 475 709 L430 737 Z " />
<glyph glyph-name="dotaccent" unicode="&#x2d9;" horiz-adv-x="550" d="M301 572 L342 704 L251 703 L219 571 L301 572 Z " />
<glyph glyph-name="ring" unicode="&#x2da;" horiz-adv-x="550" d="M349 757 C268 757 209 707 209 646 C209 591 260 547 334 547 C415 547 474 599 474 659 C474 713 423 757 349 757 L349 757 Z " />
<glyph glyph-name="ogonek" unicode="&#x2db;" horiz-adv-x="550" d="M376 33 C209 -25 142 -87 142 -141 C142 -202 221 -243 370 -167 L360 -130 C256 -169 215 -151 215 -118 C215 -84 268 -42 400 1 L376 33 Z " />
<glyph glyph-name="tilde" unicode="&#x2dc;" horiz-adv-x="550" d="M355 628 C312 628 289 731 222 731 C172 731 121 683 72 598 L112 575 C149 633 179 670 206 670 C249 670 272 568 339 568 C390 568 440 620 489 704 L449 728 C413 670 382 628 355 628 L355 628 Z " />
<glyph glyph-name="hungarumlaut" unicode="&#x2dd;" horiz-adv-x="550" d="M165 559 C226 610 301 686 344 739 L268 780 C235 724 178 640 131 586 L165 559 Z M375 559 C436 609 509 684 552 738 L474 775 C442 718 387 640 340 586 L375 559 Z " />
<glyph glyph-name="commaaccent" unicode="&#x326;" horiz-adv-x="550" d="M183 -259 L214 -275 C284 -212 320 -138 323 -68 L221 -71 C231 -129 227 -191 183 -259 L183 -259 Z " />
<glyph glyph-name="Wgrave" unicode="&#x1e80;" horiz-adv-x="550" d="M493 715 C436 759 356 838 306 897 L253 835 C311 782 410 715 473 682 L493 715 Z M324 0 L410 0 C449 117 516 353 580 620 L502 620 C473 495 393 167 374 105 L371 105 L348 436 L299 436 L148 105 L144 105 C149 167 196 495 215 620 L135 620 C96 354 72 118 67 0 L152 0 L301 327 L324 0 Z " />
<glyph glyph-name="wgrave" unicode="&#x1e81;" horiz-adv-x="550" d="M467 584 C410 628 330 707 280 766 L227 704 C285 651 384 584 447 551 L467 584 Z M324 0 L398 0 C461 180 507 327 551 489 L469 489 C438 352 408 235 372 98 L368 98 L330 366 L281 366 L141 99 L138 99 C155 232 169 350 191 489 L112 489 C87 306 71 117 67 0 L143 0 L284 264 L324 0 Z " />
<glyph glyph-name="Wacute" unicode="&#x1e82;" horiz-adv-x="550" d="M252 723 L268 688 C343 720 456 778 523 829 L468 892 C411 836 317 762 252 723 L252 723 Z M324 0 L410 0 C449 117 516 353 580 620 L502 620 C473 495 393 167 374 105 L371 105 L348 436 L299 436 L148 105 L144 105 C149 167 196 495 215 620 L135 620 C96 354 72 118 67 0 L152 0 L301 327 L324 0 Z " />
<glyph glyph-name="wacute" unicode="&#x1e83;" horiz-adv-x="550" d="M226 592 L242 557 C317 589 430 647 497 698 L442 761 C385 705 291 631 226 592 L226 592 Z M324 0 L398 0 C461 180 507 327 551 489 L469 489 C438 352 408 235 372 98 L368 98 L330 366 L281 366 L141 99 L138 99 C155 232 169 350 191 489 L112 489 C87 306 71 117 67 0 L143 0 L284 264 L324 0 Z " />
<glyph glyph-name="Wdieresis" unicode="&#x1e84;" horiz-adv-x="550" d="M514 703 L554 836 L464 834 L433 702 L514 703 Z M299 701 L339 833 L250 832 L218 700 L299 701 Z M324 0 L410 0 C449 117 516 353 580 620 L502 620 C473 495 393 167 374 105 L371 105 L348 436 L299 436 L148 105 L144 105 C149 167 196 495 215 620 L135 620 C96 354 72 118 67 0 L152 0 L301 327 L324 0 Z " />
<glyph glyph-name="wdieresis" unicode="&#x1e85;" horiz-adv-x="550" d="M488 572 L528 705 L438 703 L407 571 L488 572 Z M273 570 L313 702 L224 701 L192 569 L273 570 Z M324 0 L398 0 C461 180 507 327 551 489 L469 489 C438 352 408 235 372 98 L368 98 L330 366 L281 366 L141 99 L138 99 C155 232 169 350 191 489 L112 489 C87 306 71 117 67 0 L143 0 L284 264 L324 0 Z " />
<glyph glyph-name="Ygrave" unicode="&#x1ef2;" horiz-adv-x="550" d="M485 717 C428 761 348 840 298 899 L245 837 C303 784 402 717 465 684 L485 717 Z M269 0 L308 203 L594 620 L507 620 L285 286 L188 622 L105 618 L228 209 L188 0 L269 0 Z " />
<glyph glyph-name="ygrave" unicode="&#x1ef3;" horiz-adv-x="550" d="M469 594 C412 638 332 717 282 776 L229 714 C287 661 386 594 449 561 L469 594 Z M419 -82 C446 -29 430 62 430 176 C430 186 430 195 431 204 C481 302 519 436 519 473 C519 489 486 499 465 499 C435 499 373 335 364 199 C309 137 246 98 203 98 C142 98 111 163 229 491 L153 489 C14 118 70 27 163 27 C232 27 307 77 363 138 C365 28 376 -46 352 -71 C331 -91 253 -109 65 -93 L54 -171 C286 -183 388 -144 419 -82 L419 -82 Z " />
<glyph glyph-name="endash" unicode="&#x2013;" horiz-adv-x="550" d="M491 324 L88 324 L76 262 L479 262 L491 324 Z " />
<glyph glyph-name="emdash" unicode="&#x2014;" horiz-adv-x="550" d="M523 324 L80 324 L68 262 L511 262 L523 324 Z " />
<glyph glyph-name="quoteleft" unicode="&#x2018;" horiz-adv-x="550" d="M432 669 L400 688 C293 601 245 516 240 392 L350 396 C336 512 352 582 432 669 L432 669 Z " />
<glyph glyph-name="quoteright" unicode="&#x2019;" horiz-adv-x="550" d="M221 390 L253 371 C360 459 408 543 412 667 L303 663 C317 547 300 477 221 390 L221 390 Z " />
<glyph glyph-name="quotesinglbase" unicode="&#x201a;" horiz-adv-x="550" d="M120 -156 L152 -176 C259 -88 307 -4 312 120 L202 117 C216 1 200 -70 120 -156 L120 -156 Z " />
<glyph glyph-name="quotedblleft" unicode="&#x201c;" horiz-adv-x="550" d="M541 669 L510 688 C406 601 357 517 353 393 L461 397 C448 513 464 582 541 669 L541 669 Z M328 669 L296 688 C190 601 141 516 137 392 L245 396 C232 512 249 582 328 669 L328 669 Z " />
<glyph glyph-name="quotedblright" unicode="&#x201d;" horiz-adv-x="550" d="M330 390 L361 371 C468 459 516 543 521 667 L413 663 C426 547 409 477 330 390 L330 390 Z M116 390 L147 371 C252 459 300 542 305 666 L197 663 C210 547 193 477 116 390 L116 390 Z " />
<glyph glyph-name="quotedblbase" unicode="&#x201e;" horiz-adv-x="550" d="M227 -156 L258 -176 C365 -88 414 -4 418 120 L310 117 C323 1 306 -70 227 -156 L227 -156 Z M14 -156 L45 -176 C149 -88 198 -5 202 119 L94 116 C108 0 91 -70 14 -156 L14 -156 Z " />
<glyph glyph-name="dagger" unicode="&#x2020;" horiz-adv-x="550" d="M270 126 L352 468 L507 453 L520 515 L366 531 L399 689 L324 697 L292 539 L135 555 L122 491 L279 475 L206 114 L217 106 L270 126 Z " />
<glyph glyph-name="daggerdbl" unicode="&#x2021;" horiz-adv-x="550" d="M260 76 L306 269 L467 253 L480 316 L320 332 L352 468 L507 453 L520 515 L366 531 L399 689 L324 697 L292 539 L135 555 L122 491 L279 475 L252 339 L95 355 L82 292 L239 276 L196 64 L206 55 L260 76 Z " />
<glyph glyph-name="bullet" unicode="&#x2022;" horiz-adv-x="550" d="M402 312 C402 378 357 424 292 424 C226 424 163 368 163 284 C163 219 210 172 271 172 C338 172 402 229 402 312 L402 312 Z " />
<glyph glyph-name="ellipsis" unicode="&#x2026;" horiz-adv-x="550" d="M481 0 L507 119 L411 119 L385 0 L481 0 Z M298 0 L324 119 L228 119 L202 0 L298 0 Z M115 0 L141 119 L45 119 L19 0 L115 0 Z " />
<glyph glyph-name="guilsinglleft" unicode="&#x2039;" horiz-adv-x="550" d="M311 -18 L368 35 L188 243 L462 447 L417 508 L139 290 L118 208 L311 -18 Z " />
<glyph glyph-name="guilsinglright" unicode="&#x203a;" horiz-adv-x="550" d="M127 -16 L405 202 L425 283 L233 510 L176 456 L356 248 L82 44 L127 -16 Z " />
<glyph glyph-name="fraction" unicode="&#x2044;" horiz-adv-x="550" d="M20 -160 L598 720 L537 754 L-42 -126 L20 -160 Z " />
<glyph glyph-name="zero.sup" unicode="&#x2070;" horiz-adv-x="550" d="M158 478 C158 378 210 321 288 321 C399 321 487 442 487 577 C487 678 436 735 357 735 C246 735 158 614 158 478 L158 478 Z M424 572 C424 473 372 375 297 375 C250 375 221 412 221 483 C221 582 272 681 347 681 C395 681 424 644 424 572 L424 572 Z " />
<glyph glyph-name="four.sup" unicode="&#x2074;" horiz-adv-x="550" d="M461 412 L477 465 L424 465 L450 599 L390 594 L365 465 L219 465 C270 538 307 607 347 727 L280 730 C244 613 208 542 156 455 L151 412 L355 412 L339 331 L398 331 L414 412 L461 412 Z " />
<glyph glyph-name="five.sup" unicode="&#x2075;" horiz-adv-x="550" d="M451 457 C451 506 406 550 267 574 L291 672 L472 672 L488 726 L246 726 L200 535 C343 515 389 485 389 450 C389 412 337 373 158 388 L151 330 C372 314 451 386 451 457 L451 457 Z " />
<glyph glyph-name="six.sup" unicode="&#x2076;" horiz-adv-x="550" d="M305 322 C393 322 462 379 462 463 C462 566 340 607 234 529 C255 589 314 652 456 685 L442 738 C236 684 164 568 164 462 C164 368 226 322 305 322 L305 322 Z M315 371 C268 371 225 398 225 471 C225 477 225 484 226 491 C315 557 403 526 403 455 C403 408 370 371 315 371 L315 371 Z " />
<glyph glyph-name="seven.sup" unicode="&#x2077;" horiz-adv-x="550" d="M255 327 C322 444 402 563 497 674 L508 727 L218 727 L205 672 L428 672 L429 669 C333 561 253 447 187 334 L255 327 Z " />
<glyph glyph-name="eight.sup" unicode="&#x2078;" horiz-adv-x="550" d="M442 428 C442 470 401 508 359 542 C394 560 438 581 492 606 L473 642 C413 615 365 591 325 570 C294 595 270 619 270 641 C270 672 309 697 430 669 L451 729 C293 753 211 696 211 635 C211 601 239 570 273 541 C175 484 154 449 154 411 C154 357 206 321 286 321 C377 321 442 369 442 428 L442 428 Z M298 371 C251 371 215 391 215 425 C215 446 229 469 307 514 C346 482 383 453 383 424 C383 395 348 371 298 371 L298 371 Z " />
<glyph glyph-name="nine.sup" unicode="&#x2079;" horiz-adv-x="550" d="M202 319 C408 374 480 489 480 596 C480 690 418 736 338 736 C251 736 182 678 182 594 C182 490 305 450 410 529 C389 468 331 405 188 372 L202 319 Z M241 602 C241 649 273 686 329 686 C376 686 419 659 419 586 C419 580 419 573 418 566 C329 500 241 532 241 602 L241 602 Z " />
<glyph glyph-name="zero.inf" unicode="&#x2080;" horiz-adv-x="550" d="M76 -3 C76 -103 128 -160 206 -160 C317 -160 405 -39 405 96 C405 197 354 254 275 254 C164 254 76 133 76 -3 L76 -3 Z M342 91 C342 -8 290 -106 215 -106 C168 -106 139 -69 139 2 C139 101 190 200 265 200 C313 200 342 163 342 91 L342 91 Z " />
<glyph glyph-name="one.inf" unicode="&#x2081;" horiz-adv-x="550" d="M357 -150 L370 -96 L258 -96 L329 262 L265 256 L253 196 L129 180 L121 133 L242 140 L196 -96 L73 -96 L62 -150 L357 -150 Z " />
<glyph glyph-name="two.inf" unicode="&#x2082;" horiz-adv-x="550" d="M346 -150 L358 -95 L155 -95 C304 -4 387 62 387 144 C387 225 304 267 138 242 L129 186 C271 205 319 178 319 129 C319 62 222 -2 61 -100 L62 -150 L346 -150 Z " />
<glyph glyph-name="three.inf" unicode="&#x2083;" horiz-adv-x="550" d="M367 -38 C367 5 327 45 216 71 L397 191 L403 245 L144 245 L133 191 L325 191 L141 69 L137 42 C260 18 304 -13 304 -44 C304 -77 259 -111 76 -93 L69 -150 C294 -172 367 -102 367 -38 L367 -38 Z " />
<glyph glyph-name="four.inf" unicode="&#x2084;" horiz-adv-x="550" d="M379 -69 L395 -16 L342 -16 L368 118 L308 113 L283 -16 L137 -16 C188 57 225 126 265 246 L198 249 C162 132 126 61 74 -26 L69 -69 L273 -69 L257 -150 L316 -150 L332 -69 L379 -69 Z " />
<glyph glyph-name="five.inf" unicode="&#x2085;" horiz-adv-x="550" d="M369 -24 C369 25 324 69 185 93 L209 191 L390 191 L406 245 L164 245 L118 54 C261 34 307 4 307 -31 C307 -69 255 -108 76 -93 L69 -151 C290 -167 369 -95 369 -24 L369 -24 Z " />
<glyph glyph-name="six.inf" unicode="&#x2086;" horiz-adv-x="550" d="M223 -159 C311 -159 380 -102 380 -18 C380 85 258 126 152 48 C173 108 232 171 374 204 L360 257 C154 203 82 87 82 -19 C82 -113 144 -159 223 -159 L223 -159 Z M233 -110 C186 -110 143 -83 143 -10 C143 -4 143 3 144 10 C233 76 321 45 321 -26 C321 -73 288 -110 233 -110 L233 -110 Z " />
<glyph glyph-name="seven.inf" unicode="&#x2087;" horiz-adv-x="550" d="M173 -154 C240 -37 320 82 415 193 L426 246 L136 246 L123 191 L346 191 L347 188 C251 80 171 -34 105 -147 L173 -154 Z " />
<glyph glyph-name="eight.inf" unicode="&#x2088;" horiz-adv-x="550" d="M360 -53 C360 -11 319 27 277 61 C312 79 356 100 410 125 L391 161 C331 134 283 110 243 89 C212 114 188 138 188 160 C188 191 227 216 348 188 L369 248 C211 272 129 215 129 154 C129 120 157 89 191 60 C93 3 72 -32 72 -70 C72 -124 124 -160 204 -160 C295 -160 360 -112 360 -53 L360 -53 Z M216 -110 C169 -110 133 -90 133 -56 C133 -35 147 -12 225 33 C264 1 301 -28 301 -57 C301 -86 266 -110 216 -110 L216 -110 Z " />
<glyph glyph-name="nine.inf" unicode="&#x2089;" horiz-adv-x="550" d="M120 -162 C326 -107 398 8 398 115 C398 209 336 255 256 255 C169 255 100 197 100 113 C100 9 223 -31 328 48 C307 -13 249 -76 106 -109 L120 -162 Z M159 121 C159 168 191 205 247 205 C294 205 337 178 337 105 C337 99 337 92 336 85 C247 19 159 51 159 121 L159 121 Z " />
<glyph glyph-name="colonmonetary" unicode="&#x20a1;" horiz-adv-x="550" d="M316 114 C289 121 265 129 245 138 L344 498 C368 505 396 511 426 515 L316 114 Z M142 284 C142 364 179 436 288 480 L201 163 C161 193 142 232 142 284 L142 284 Z M260 -74 L319 -74 L348 33 C371 29 397 26 424 23 L452 90 C420 94 391 98 364 103 L478 521 C505 524 533 525 563 526 L571 598 C547 597 524 596 501 593 L529 693 L471 693 L443 587 C415 582 388 577 364 571 L397 693 L339 693 L301 553 C131 494 70 385 70 272 C70 193 104 133 175 91 L128 -74 L187 -74 L225 66 C246 58 269 51 294 45 L260 -74 Z " />
<glyph glyph-name="naira" unicode="&#x20a6;" horiz-adv-x="550" d="M203 494 L208 494 L277 231 L152 229 L203 494 Z M368 122 L301 385 L425 386 L375 122 L368 122 Z M108 0 L142 176 L291 176 L337 0 L410 0 L444 175 L515 175 L527 239 L457 239 L483 376 L553 377 L566 441 L496 439 L531 620 L469 620 L435 440 L287 439 L241 621 L165 618 L130 437 L59 437 L47 373 L118 374 L91 236 L20 235 L8 172 L79 173 L45 0 L108 0 Z " />
<glyph glyph-name="rupee" unicode="&#x20a8;" horiz-adv-x="550" d="M209 -5 L276 6 L225 275 C300 350 344 422 344 505 C344 592 288 639 152 620 L32 0 L96 0 L207 561 C255 563 278 539 278 490 C278 426 242 360 161 279 L161 276 L209 -5 Z M521 129 C521 204 481 283 464 352 C542 458 533 530 482 530 C434 530 390 460 390 381 C390 366 392 351 394 336 C374 310 349 281 315 246 L335 219 C362 242 386 264 407 285 C424 226 450 170 450 122 C450 73 435 44 312 62 L311 -7 C486 -21 521 55 521 129 L521 129 Z " />
<glyph glyph-name="Euro" unicode="&#x20ac;" horiz-adv-x="550" d="M472 34 L464 83 C280 24 192 58 180 198 L392 198 L406 253 L180 253 C181 285 187 317 195 349 L425 349 L439 403 L214 403 C251 494 317 566 394 566 C457 566 474 525 478 452 L551 463 C546 577 505 633 411 633 C295 633 193 537 141 408 L70 408 L57 349 L121 349 C113 317 107 284 105 251 L40 251 L28 191 L105 191 C116 14 240 -72 472 34 L472 34 Z " />
<glyph glyph-name="peso" unicode="&#x20b1;" horiz-adv-x="550" d="M439 434 L206 434 L231 558 C369 572 435 513 439 434 L439 434 Z M172 257 L195 377 L431 377 C405 301 315 253 172 257 L172 257 Z M563 372 L575 437 L512 437 C512 557 411 651 166 618 L131 437 L56 437 L43 372 L119 372 L47 0 L122 0 L158 183 C342 201 466 268 502 372 L563 372 Z " />
<glyph glyph-name="rupeeindia" unicode="&#x20b9;" horiz-adv-x="550" d="M439 28 C320 134 255 187 176 212 C305 232 392 290 414 365 L503 365 L513 423 L419 423 C412 476 376 526 308 552 L540 552 L558 620 L152 620 L135 553 C276 539 334 485 344 423 L113 423 L102 365 L338 365 C317 305 242 256 87 245 L63 186 C188 150 239 106 374 -15 L439 28 Z " />
<glyph glyph-name="ruble" unicode="&#x20bd;" horiz-adv-x="550" d="M470 456 C470 370 389 331 226 330 L270 559 C410 571 470 529 470 456 L470 456 Z M162 0 L185 121 L397 121 L414 179 L197 179 L214 270 C439 284 546 355 546 468 C546 577 447 647 204 618 L149 330 L63 330 L52 268 C81 268 109 268 137 268 L120 181 L34 181 L22 120 L108 120 L85 0 L162 0 Z " />
<glyph glyph-name="numero" unicode="&#x2116;" horiz-adv-x="550" d="M514 624 C430 624 359 490 359 344 C359 259 388 220 436 220 C520 220 592 355 592 500 C592 585 562 624 514 624 L514 624 Z M192 0 L251 -1 L371 619 L306 620 L230 207 L228 207 L198 620 L135 620 L14 0 L80 0 L161 443 L163 443 L192 0 Z M419 349 C419 440 462 563 501 563 C519 563 531 539 531 496 C531 404 488 282 449 282 C431 282 419 306 419 349 L419 349 Z M515 112 L527 170 L326 170 L314 112 L515 112 Z " />
<glyph glyph-name="published" unicode="&#x2117;" horiz-adv-x="550" d="M43 252 C43 98 129 7 247 7 C397 7 522 154 522 371 C522 523 435 613 316 613 C167 613 43 466 43 252 L43 252 Z M92 261 C92 438 190 568 309 568 C402 568 473 494 473 363 C473 184 374 52 254 52 C162 52 92 127 92 261 L92 261 Z M219 147 L239 252 C343 265 409 313 409 383 C409 446 359 489 229 470 L167 147 L219 147 Z " />
<glyph glyph-name="servicemark" unicode="&#x2120;" horiz-adv-x="550" d="M395 345 L423 345 L517 546 L519 546 L469 291 L521 291 L585 620 L520 620 L426 418 L424 418 L405 621 L341 619 L277 291 L327 291 L376 546 L378 546 L395 345 Z M280 539 C274 597 249 628 203 628 C144 628 102 584 102 531 C102 456 192 420 192 368 C192 334 158 323 62 353 L52 300 C192 265 245 315 245 372 C245 443 155 479 155 538 C155 565 172 582 194 582 C215 582 227 565 232 531 L280 539 Z " />
<glyph glyph-name="trademark" unicode="&#x2122;" horiz-adv-x="550" d="M299 620 L104 620 L95 573 L169 573 L114 292 L165 292 L220 573 L289 573 L299 620 Z M405 621 L341 619 L277 291 L327 291 L376 546 L378 546 L395 345 L423 345 L517 546 L519 546 L469 291 L521 291 L585 620 L520 620 L426 418 L424 418 L405 621 Z " />
<glyph glyph-name="Omega" unicode="&#x2126;" horiz-adv-x="550" d="M188 5 C170 89 159 160 159 265 C159 440 216 561 320 561 C390 561 430 512 430 423 C430 323 382 188 279 5 L280 0 L460 0 L472 65 L376 65 C466 210 509 335 509 437 C509 558 446 632 333 632 C172 632 88 490 88 288 C88 214 100 142 119 65 L17 65 L4 0 L185 0 L188 5 Z " />
<glyph glyph-name="onethird" unicode="&#x2153;" horiz-adv-x="550" d="M457 425 L470 479 L358 479 L429 837 L365 831 L353 771 L229 755 L221 708 L342 715 L296 479 L173 479 L162 425 L457 425 Z M61 279 L495 279 L505 331 L72 331 L61 279 Z M355 -98 C355 -55 315 -15 204 11 L385 131 L391 185 L132 185 L121 131 L313 131 L129 9 L125 -18 C248 -42 292 -73 292 -104 C292 -137 247 -171 64 -153 L57 -210 C282 -232 355 -162 355 -98 L355 -98 Z " />
<glyph glyph-name="twothirds" unicode="&#x2154;" horiz-adv-x="550" d="M446 425 L458 480 L255 480 C404 571 487 637 487 719 C487 800 404 842 238 817 L229 761 C371 780 419 753 419 704 C419 637 322 573 161 475 L162 425 L446 425 Z M61 279 L495 279 L505 331 L72 331 L61 279 Z M355 -98 C355 -55 315 -15 204 11 L385 131 L391 185 L132 185 L121 131 L313 131 L129 9 L125 -18 C248 -42 292 -73 292 -104 C292 -137 247 -171 64 -153 L57 -210 C282 -232 355 -162 355 -98 L355 -98 Z " />
<glyph glyph-name="onefifth" unicode="&#x2155;" horiz-adv-x="550" d="M457 425 L470 479 L358 479 L429 837 L365 831 L353 771 L229 755 L221 708 L342 715 L296 479 L173 479 L162 425 L457 425 Z M61 279 L495 279 L505 331 L72 331 L61 279 Z M357 -84 C357 -35 312 9 173 33 L197 131 L378 131 L394 185 L152 185 L106 -6 C249 -26 295 -56 295 -91 C295 -129 243 -168 64 -153 L57 -211 C278 -227 357 -155 357 -84 L357 -84 Z " />
<glyph glyph-name="twofifths" unicode="&#x2156;" horiz-adv-x="550" d="M446 425 L458 480 L255 480 C404 571 487 637 487 719 C487 800 404 842 238 817 L229 761 C371 780 419 753 419 704 C419 637 322 573 161 475 L162 425 L446 425 Z M61 279 L495 279 L505 331 L72 331 L61 279 Z M357 -84 C357 -35 312 9 173 33 L197 131 L378 131 L394 185 L152 185 L106 -6 C249 -26 295 -56 295 -91 C295 -129 243 -168 64 -153 L57 -211 C278 -227 357 -155 357 -84 L357 -84 Z " />
<glyph glyph-name="threefifths" unicode="&#x2157;" horiz-adv-x="550" d="M467 537 C467 580 427 620 316 646 L497 766 L503 820 L244 820 L233 766 L425 766 L241 644 L237 617 C360 593 404 562 404 531 C404 498 359 464 176 482 L169 425 C394 403 467 473 467 537 L467 537 Z M61 279 L495 279 L505 331 L72 331 L61 279 Z M357 -84 C357 -35 312 9 173 33 L197 131 L378 131 L394 185 L152 185 L106 -6 C249 -26 295 -56 295 -91 C295 -129 243 -168 64 -153 L57 -211 C278 -227 357 -155 357 -84 L357 -84 Z " />
<glyph glyph-name="fourfifths" unicode="&#x2158;" horiz-adv-x="550" d="M479 506 L495 559 L442 559 L468 693 L408 688 L383 559 L237 559 C288 632 325 701 365 821 L298 824 C262 707 226 636 174 549 L169 506 L373 506 L357 425 L416 425 L432 506 L479 506 Z M61 279 L495 279 L505 331 L72 331 L61 279 Z M357 -84 C357 -35 312 9 173 33 L197 131 L378 131 L394 185 L152 185 L106 -6 C249 -26 295 -56 295 -91 C295 -129 243 -168 64 -153 L57 -211 C278 -227 357 -155 357 -84 L357 -84 Z " />
<glyph glyph-name="onesixth" unicode="&#x2159;" horiz-adv-x="550" d="M457 425 L470 479 L358 479 L429 837 L365 831 L353 771 L229 755 L221 708 L342 715 L296 479 L173 479 L162 425 L457 425 Z M61 279 L495 279 L505 331 L72 331 L61 279 Z M211 -219 C299 -219 368 -162 368 -78 C368 25 246 66 140 -12 C161 48 220 111 362 144 L348 197 C142 143 70 27 70 -79 C70 -173 132 -219 211 -219 L211 -219 Z M221 -170 C174 -170 131 -143 131 -70 C131 -64 131 -57 132 -50 C221 16 309 -15 309 -86 C309 -133 276 -170 221 -170 L221 -170 Z " />
<glyph glyph-name="fivesixths" unicode="&#x215a;" horiz-adv-x="550" d="M469 551 C469 600 424 644 285 668 L309 766 L490 766 L506 820 L264 820 L218 629 C361 609 407 579 407 544 C407 506 355 467 176 482 L169 424 C390 408 469 480 469 551 L469 551 Z M61 279 L495 279 L505 331 L72 331 L61 279 Z M211 -219 C299 -219 368 -162 368 -78 C368 25 246 66 140 -12 C161 48 220 111 362 144 L348 197 C142 143 70 27 70 -79 C70 -173 132 -219 211 -219 L211 -219 Z M221 -170 C174 -170 131 -143 131 -70 C131 -64 131 -57 132 -50 C221 16 309 -15 309 -86 C309 -133 276 -170 221 -170 L221 -170 Z " />
<glyph glyph-name="oneeighth" unicode="&#x215b;" horiz-adv-x="550" d="M457 425 L470 479 L358 479 L429 837 L365 831 L353 771 L229 755 L221 708 L342 715 L296 479 L173 479 L162 425 L457 425 Z M61 279 L495 279 L505 331 L72 331 L61 279 Z M348 -113 C348 -71 307 -33 265 1 C300 19 344 40 398 65 L379 101 C319 74 271 50 231 29 C200 54 176 78 176 100 C176 131 215 156 336 128 L357 188 C199 212 117 155 117 94 C117 60 145 29 179 0 C81 -57 60 -92 60 -130 C60 -184 112 -220 192 -220 C283 -220 348 -172 348 -113 L348 -113 Z M204 -170 C157 -170 121 -150 121 -116 C121 -95 135 -72 213 -27 C252 -59 289 -88 289 -117 C289 -146 254 -170 204 -170 L204 -170 Z " />
<glyph glyph-name="threeeighths" unicode="&#x215c;" horiz-adv-x="550" d="M467 537 C467 580 427 620 316 646 L497 766 L503 820 L244 820 L233 766 L425 766 L241 644 L237 617 C360 593 404 562 404 531 C404 498 359 464 176 482 L169 425 C394 403 467 473 467 537 L467 537 Z M61 279 L495 279 L505 331 L72 331 L61 279 Z M348 -113 C348 -71 307 -33 265 1 C300 19 344 40 398 65 L379 101 C319 74 271 50 231 29 C200 54 176 78 176 100 C176 131 215 156 336 128 L357 188 C199 212 117 155 117 94 C117 60 145 29 179 0 C81 -57 60 -92 60 -130 C60 -184 112 -220 192 -220 C283 -220 348 -172 348 -113 L348 -113 Z M204 -170 C157 -170 121 -150 121 -116 C121 -95 135 -72 213 -27 C252 -59 289 -88 289 -117 C289 -146 254 -170 204 -170 L204 -170 Z " />
<glyph glyph-name="fiveeighths" unicode="&#x215d;" horiz-adv-x="550" d="M469 551 C469 600 424 644 285 668 L309 766 L490 766 L506 820 L264 820 L218 629 C361 609 407 579 407 544 C407 506 355 467 176 482 L169 424 C390 408 469 480 469 551 L469 551 Z M61 279 L495 279 L505 331 L72 331 L61 279 Z M348 -113 C348 -71 307 -33 265 1 C300 19 344 40 398 65 L379 101 C319 74 271 50 231 29 C200 54 176 78 176 100 C176 131 215 156 336 128 L357 188 C199 212 117 155 117 94 C117 60 145 29 179 0 C81 -57 60 -92 60 -130 C60 -184 112 -220 192 -220 C283 -220 348 -172 348 -113 L348 -113 Z M204 -170 C157 -170 121 -150 121 -116 C121 -95 135 -72 213 -27 C252 -59 289 -88 289 -117 C289 -146 254 -170 204 -170 L204 -170 Z " />
<glyph glyph-name="seveneighths" unicode="&#x215e;" horiz-adv-x="550" d="M273 421 C340 538 420 657 515 768 L526 821 L236 821 L223 766 L446 766 L447 763 C351 655 271 541 205 428 L273 421 Z M61 279 L495 279 L505 331 L72 331 L61 279 Z M348 -113 C348 -71 307 -33 265 1 C300 19 344 40 398 65 L379 101 C319 74 271 50 231 29 C200 54 176 78 176 100 C176 131 215 156 336 128 L357 188 C199 212 117 155 117 94 C117 60 145 29 179 0 C81 -57 60 -92 60 -130 C60 -184 112 -220 192 -220 C283 -220 348 -172 348 -113 L348 -113 Z M204 -170 C157 -170 121 -150 121 -116 C121 -95 135 -72 213 -27 C252 -59 289 -88 289 -117 C289 -146 254 -170 204 -170 L204 -170 Z " />
<glyph glyph-name="minus" unicode="&#x2212;" horiz-adv-x="550" d="M491 326 L92 326 L78 259 L477 259 L491 326 Z " />
<glyph glyph-name="approxequal" unicode="&#x2248;" horiz-adv-x="550" d="M378 313 C435 313 474 359 531 459 L487 483 C450 424 419 380 390 380 C342 380 314 488 235 488 C178 488 133 439 75 338 L119 314 C158 375 190 421 220 421 C270 421 299 313 378 313 L378 313 Z M337 100 C394 100 433 146 490 246 L446 270 C409 211 379 167 349 167 C301 167 273 275 195 275 C137 275 91 226 34 125 L78 101 C117 163 149 208 178 208 C229 208 258 100 337 100 L337 100 Z " />
<glyph glyph-name="notequal" unicode="&#x2260;" horiz-adv-x="550" d="M457 152 L471 218 L276 218 L364 374 L500 374 L514 440 L401 440 L471 565 L414 585 L333 440 L114 440 L101 374 L295 374 L208 218 L71 218 L58 152 L171 152 L100 26 L157 7 L239 152 L457 152 Z " />
<glyph glyph-name="lessequal" unicode="&#x2264;" horiz-adv-x="550" d="M189 356 L512 531 L489 593 L112 384 L98 320 L410 136 L448 195 L187 348 L189 356 Z M443 82 L44 82 L32 15 L431 15 L443 82 Z " />
<glyph glyph-name="greaterequal" unicode="&#x2265;" horiz-adv-x="550" d="M406 358 L405 351 L83 197 L100 134 L482 318 L493 379 L196 593 L154 536 L406 358 Z M443 82 L44 82 L32 15 L431 15 L443 82 Z " />
<glyph glyph-name="hcoslug" unicode="&#xe10b;" horiz-adv-x="550" d="M500 700 L50 700 L50 -100 L500 -100 L500 700 Z M200 296 C200 279 211 268 228 252 C237 265 242 277 242 289 C242 307 233 318 220 318 C208 318 200 309 200 296 L200 296 Z M249 232 C261 220 270 208 279 197 C294 222 297 240 280 257 C273 250 263 241 249 232 L249 232 Z M210 139 C222 139 231 142 239 148 C218 175 197 197 183 210 C175 202 171 191 171 180 C171 157 188 139 210 139 L210 139 Z M301 173 C320 151 333 142 348 142 C363 142 372 151 380 164 L385 163 C384 119 357 92 325 92 C303 92 286 100 261 126 C240 103 215 92 183 92 C138 92 102 122 102 162 C102 193 123 217 163 230 C147 247 140 260 140 282 C140 314 171 346 222 346 C268 346 293 316 293 290 C293 280 291 272 286 265 C306 265 321 257 323 237 C335 255 349 265 368 265 C389 265 405 250 405 226 C405 203 389 186 368 186 C354 186 342 193 336 205 C324 198 312 188 301 173 L301 173 Z M229 68 L229 60 L239 60 L239 55 L229 55 L229 40 C229 37 230 36 232 36 C234 36 235 37 236 41 L240 40 C238 33 235 30 229 30 C223 30 220 34 220 40 L220 55 L215 55 L215 60 L220 60 L220 67 L229 68 Z M145 46 C145 55 152 61 161 61 C170 61 177 55 177 46 C177 37 170 30 161 30 C152 30 145 36 145 46 L145 46 Z M167 46 C167 54 165 57 161 57 C157 57 155 54 155 46 C155 37 157 34 161 34 C165 34 167 37 167 46 L167 46 Z M299 45 C299 51 297 55 294 55 C289 55 288 50 288 45 C288 39 289 35 294 35 C297 35 299 39 299 45 L299 45 Z M179 36 L183 36 L183 55 L179 55 L179 60 L192 60 L192 54 C194 58 197 61 202 61 C209 61 211 56 211 50 L211 36 L216 36 L216 31 L199 31 L199 36 L202 36 L202 49 C202 52 201 55 198 55 C195 55 192 52 192 47 L192 36 L195 36 L195 31 L179 31 L179 36 Z M108 36 L114 36 L114 67 L108 67 L108 72 L146 72 L146 57 L141 57 C139 65 138 67 132 67 L124 67 L124 53 L127 53 C131 53 131 54 132 59 L137 59 L137 42 L132 42 C131 47 131 48 127 48 L124 48 L124 36 L131 36 L131 31 L108 31 L108 36 Z M241 41 L246 41 C249 37 252 34 255 34 C258 34 259 36 259 37 C259 44 241 40 241 52 C241 56 245 61 252 61 C255 61 258 60 260 57 L261 61 L266 61 L266 51 L261 51 C258 55 256 56 253 56 C251 56 249 55 249 53 C249 48 267 50 267 39 C267 34 264 30 257 30 C252 30 249 32 247 34 L246 31 L241 31 L241 41 Z M279 69 L274 69 L274 74 L288 74 L288 54 C289 58 293 61 297 61 C304 61 309 55 309 46 C309 39 306 30 297 30 C291 30 288 32 286 36 L283 30 L279 30 L279 69 Z M318 24 C321 24 324 26 324 30 C321 37 312 55 312 55 L309 55 L309 60 L327 60 L327 55 L323 55 L330 40 L336 55 L332 55 L332 60 L345 60 L345 55 L341 55 L331 31 C328 24 324 19 318 19 C312 19 309 22 309 26 C309 29 311 31 314 31 C319 31 320 26 318 24 L318 24 Z M363 0 L363 -6 L359 -6 C357 -10 355 -13 352 -16 C354 -18 356 -20 357 -20 C358 -20 359 -19 360 -16 L363 -17 C362 -22 360 -26 354 -26 C350 -26 348 -24 345 -21 C342 -24 338 -26 332 -26 C325 -26 320 -22 320 -16 C320 -10 324 -7 330 -5 C327 -2 325 1 325 5 C325 10 329 16 338 16 C344 16 348 12 348 7 C348 2 345 0 340 -3 C342 -5 346 -10 349 -13 C351 -11 353 -8 354 -6 L349 -6 L349 0 L363 0 Z M235 4 L246 4 L246 8 C243 8 241 10 241 12 C241 14 242 15 242 15 C242 15 241 16 239 16 C237 16 235 14 235 8 L235 4 Z M367 -5 C367 10 376 18 387 18 C392 18 396 16 399 13 L399 17 L405 17 L405 1 L399 1 C396 10 394 13 388 13 C382 13 378 8 378 -4 C378 -15 382 -21 390 -21 C396 -21 399 -15 400 -9 L406 -9 C405 -19 399 -26 388 -26 C375 -26 367 -19 367 -5 L367 -5 Z M338 -1 C340 0 342 3 342 6 C342 9 340 11 337 11 C335 11 333 10 333 7 C333 5 335 2 338 -1 L338 -1 Z M270 -12 C270 -18 272 -21 277 -21 C281 -21 283 -19 284 -15 L289 -15 C288 -21 284 -26 276 -26 C266 -26 260 -20 260 -11 C260 -1 267 5 275 5 C286 5 290 -2 289 -12 L270 -12 Z M200 -12 C200 -18 202 -21 207 -21 C211 -21 213 -19 214 -15 L219 -15 C218 -21 214 -26 206 -26 C196 -26 190 -20 190 -11 C190 -1 197 5 205 5 C216 5 220 -2 219 -12 L200 -12 Z M156 -10 C156 -1 163 5 172 5 C181 5 188 -1 188 -10 C188 -19 181 -26 172 -26 C163 -26 156 -20 156 -10 L156 -10 Z M408 -10 C408 -1 415 5 424 5 C433 5 440 -1 440 -10 C440 -19 433 -26 424 -26 C415 -26 408 -20 408 -10 L408 -10 Z M270 -8 L280 -8 C280 -2 279 1 275 1 C272 1 270 -1 270 -8 L270 -8 Z M200 -8 L210 -8 C210 -2 209 1 205 1 C202 1 200 -1 200 -8 L200 -8 Z M178 -10 C178 -2 176 1 172 1 C168 1 166 -2 166 -10 C166 -19 168 -22 172 -22 C176 -22 178 -19 178 -10 L178 -10 Z M430 -10 C430 -2 428 1 424 1 C420 1 418 -2 418 -10 C418 -19 420 -22 424 -22 C428 -22 430 -19 430 -10 L430 -10 Z M222 -20 L226 -20 L226 -1 L221 -1 L221 4 L226 4 L226 5 C226 15 233 19 239 19 C243 19 245 18 247 17 L255 19 L255 -20 L259 -20 L259 -25 L242 -25 L242 -20 L246 -20 L246 -1 L235 -1 L235 -20 L239 -20 L239 -25 L222 -25 L222 -20 Z M291 -20 L295 -20 L295 -1 L291 -1 L291 4 L304 4 L304 -2 C306 3 309 5 313 5 C317 5 319 3 319 -1 C319 -4 317 -6 314 -6 C312 -6 309 -5 309 -2 L309 -1 C308 -1 305 -4 304 -8 L304 -20 L310 -20 L310 -25 L291 -25 L291 -20 Z M108 -20 L114 -20 L114 11 L108 11 L108 16 L129 16 L129 11 L124 11 L124 -1 L140 -1 L140 11 L135 11 L135 16 L156 16 L156 11 L150 11 L150 -20 L156 -20 L156 -25 L135 -25 L135 -20 L140 -20 L140 -6 L124 -6 L124 -20 L129 -20 L129 -25 L108 -25 L108 -20 Z M342 -18 C340 -16 336 -11 332 -7 C330 -9 329 -11 329 -14 C329 -18 332 -21 336 -21 C338 -21 340 -20 342 -18 L342 -18 Z M453 -20 C453 -23 451 -26 447 -26 C443 -26 441 -23 441 -20 C441 -17 443 -14 447 -14 C451 -14 453 -17 453 -20 L453 -20 Z " />
<glyph glyph-name="check.1" unicode="&#xe10c;" horiz-adv-x="550" d="M579 636 L503 672 C389 498 290 295 211 84 L207 84 L148 365 L76 343 L160 -18 L229 -19 C327 223 445 438 579 636 L579 636 Z " />
<glyph glyph-name="check.2" unicode="&#xe10d;" horiz-adv-x="550" d="M298 -5 L376 5 L289 268 L563 637 L490 674 L263 337 L211 509 L135 488 L208 273 L29 20 L78 -3 L232 207 L298 -5 Z " />
</font>
</svg>
