<?xml version="1.0" encoding="UTF-8"?>
<svg xmlns="http://www.w3.org/2000/svg" xmlns:xlink="http://www.w3.org/1999/xlink" version="1.2" >
<font id="Operator Mono Bold">
<font-face  font-family="Operator Mono" units-per-em="1000" ascent="800" descent="-200" font-style="normal" font-weight="400" font-stretch="normal" cap-height="620" x-height="506" underline-position="-107" underline-thickness="110" />
<missing-glyph  horiz-adv-x="550" d="M5 -200 L545 -200 L545 800 L5 800 L5 -200 Z M82 750 L468 750 L275 360 L82 750 Z M491 676 L491 -76 L305 300 L491 676 Z M59 -76 L59 676 L245 300 L59 -76 Z M275 240 L468 -150 L82 -150 L275 240 Z " />
<glyph glyph-name="CR" unicode="&#xd;" horiz-adv-x="250" d="" />
<glyph glyph-name="space" unicode="&#x20;" horiz-adv-x="550" d="" />
<glyph glyph-name="exclam" unicode="&#x21;" horiz-adv-x="550" d="M323 256 L373 678 L191 678 L228 256 L323 256 Z M355 0 L359 152 L185 152 L181 0 L355 0 Z " />
<glyph glyph-name="quotedbl" unicode="&#x22;" horiz-adv-x="550" d="M430 372 L483 628 L480 678 L325 678 L330 372 L430 372 Z M201 372 L254 628 L252 678 L96 678 L101 372 L201 372 Z " />
<glyph glyph-name="numbersign" unicode="&#x23;" horiz-adv-x="550" d="M313 265 L228 265 L237 357 L322 357 L313 265 Z M286 0 L381 0 L396 148 L483 148 L495 265 L408 265 L417 357 L503 357 L516 474 L428 474 L443 620 L348 620 L333 474 L248 474 L263 620 L168 620 L153 474 L68 474 L56 357 L142 357 L133 265 L48 265 L35 148 L121 148 L106 0 L201 0 L216 148 L301 148 L286 0 Z " />
<glyph glyph-name="dollar" unicode="&#x24;" horiz-adv-x="550" d="M271 -74 L290 39 C435 55 490 112 490 180 C490 327 214 382 214 442 C214 475 287 486 466 435 L484 574 C447 579 414 582 383 584 L405 693 L280 694 L261 582 C115 568 60 506 60 437 C60 294 336 245 336 182 C336 146 260 137 69 182 L43 43 C89 38 131 35 169 35 L146 -73 L271 -74 Z " />
<glyph glyph-name="percent" unicode="&#x25;" horiz-adv-x="550" d="M114 -14 L522 578 L436 634 L28 42 L114 -14 Z M31 491 C31 408 71 359 126 359 C187 359 235 414 235 501 C235 584 195 634 140 634 C80 634 31 578 31 491 L31 491 Z M519 128 C519 211 479 261 424 261 C364 261 315 205 315 118 C315 35 355 -14 410 -14 C471 -14 519 41 519 128 L519 128 Z " />
<glyph glyph-name="ampersand" unicode="&#x26;" horiz-adv-x="550" d="M536 72 C499 121 466 164 436 201 C465 255 495 325 514 393 L396 407 C389 372 378 329 365 289 C286 383 247 425 247 455 C247 495 274 511 394 506 L385 634 C170 638 103 546 103 454 C103 415 121 379 153 332 C68 279 22 221 22 137 C22 50 75 -14 184 -14 C247 -14 308 13 354 75 C375 48 396 18 419 -14 L536 72 Z M216 100 C176 100 156 130 156 168 C156 203 172 235 205 265 C231 233 261 196 295 153 C271 117 246 100 216 100 L216 100 Z " />
<glyph glyph-name="quotesingle" unicode="&#x27;" horiz-adv-x="550" d="M316 372 L381 628 L378 678 L214 678 L217 372 L316 372 Z " />
<glyph glyph-name="parenleft" unicode="&#x28;" horiz-adv-x="550" d="M383 735 C174 550 93 405 93 259 C93 116 172 -26 378 -210 L477 -124 C293 31 233 147 233 265 C233 381 289 492 479 651 L383 735 Z " />
<glyph glyph-name="parenright" unicode="&#x29;" horiz-adv-x="550" d="M168 -210 C377 -25 458 121 458 266 C458 409 378 551 172 735 L74 649 C258 494 317 378 317 260 C317 144 261 33 71 -126 L168 -210 Z " />
<glyph glyph-name="asterisk" unicode="&#x2a;" horiz-adv-x="550" d="M360 213 L442 263 L389 400 L526 459 L504 551 L357 541 L345 690 L248 697 L211 553 L69 590 L31 501 L156 419 L79 296 L151 232 L266 325 L360 213 Z " />
<glyph glyph-name="plus" unicode="&#x2b;" horiz-adv-x="550" d="M497 243 L497 362 L339 362 L339 530 L212 530 L212 362 L53 362 L53 243 L212 243 L212 74 L339 74 L339 243 L497 243 Z " />
<glyph glyph-name="comma" unicode="&#x2c;" horiz-adv-x="550" d="M166 -137 L242 -158 C330 -82 405 66 351 176 L178 169 C228 68 215 -69 166 -137 L166 -137 Z " />
<glyph glyph-name="hyphen" unicode="&#x2d;" horiz-adv-x="550" d="M441 363 L116 363 L116 242 L429 242 L441 363 Z " />
<glyph glyph-name="period" unicode="&#x2e;" horiz-adv-x="550" d="M355 0 L363 165 L177 165 L168 0 L355 0 Z " />
<glyph glyph-name="slash" unicode="&#x2f;" horiz-adv-x="550" d="M444 755 L-7 -154 L115 -212 L566 697 L444 755 Z " />
<glyph glyph-name="zero" unicode="0" horiz-adv-x="550" d="M267 -14 C416 -14 508 120 508 321 C508 516 436 634 283 634 C134 634 42 500 42 299 C42 104 114 -14 267 -14 L267 -14 Z M176 324 C176 450 206 520 273 520 C320 520 350 478 364 409 L176 312 C176 315 176 320 176 324 L176 324 Z M277 100 C231 100 201 140 187 207 L374 303 C374 301 374 299 374 296 C374 170 344 100 277 100 L277 100 Z " />
<glyph glyph-name="one" unicode="1" horiz-adv-x="550" d="M506 0 L517 118 L370 118 L370 638 L234 627 L234 553 L86 539 L89 436 L234 436 L234 118 L69 118 L69 0 L506 0 Z " />
<glyph glyph-name="two" unicode="2" horiz-adv-x="550" d="M485 0 L485 121 L236 121 C383 233 473 317 473 440 C473 544 386 631 94 628 L82 497 C275 492 332 466 332 401 C332 320 237 238 63 111 L77 0 L485 0 Z " />
<glyph glyph-name="three" unicode="3" horiz-adv-x="550" d="M88 -14 C364 0 484 82 484 191 C484 260 427 321 279 352 L468 498 L458 620 L90 620 L90 498 L324 498 L124 342 L124 280 C287 259 347 218 347 182 C347 144 289 127 79 114 L88 -14 Z " />
<glyph glyph-name="four" unicode="4" horiz-adv-x="550" d="M507 106 L518 227 L452 227 L452 436 L322 422 L322 227 L175 227 L274 617 L123 626 C79 448 58 244 64 106 L322 106 L322 0 L452 0 L452 106 L507 106 Z " />
<glyph glyph-name="five" unicode="5" horiz-adv-x="550" d="M483 213 C483 291 423 361 224 391 L230 498 L454 497 L465 620 L112 620 L93 302 C280 279 351 246 351 203 C351 151 286 132 76 115 L84 -15 C364 2 483 96 483 213 L483 213 Z " />
<glyph glyph-name="six" unicode="6" horiz-adv-x="550" d="M273 -14 C394 -14 499 68 499 202 C499 361 339 427 199 345 C224 414 288 468 438 525 L380 642 C153 544 53 406 53 232 C53 72 141 -14 273 -14 L273 -14 Z M286 96 C230 96 185 140 185 246 C185 252 185 258 185 263 C294 311 368 277 368 190 C368 127 335 96 286 96 L286 96 Z " />
<glyph glyph-name="seven" unicode="7" horiz-adv-x="550" d="M265 -9 C322 161 401 335 498 498 L498 620 L79 620 L69 494 L355 494 L358 488 C260 330 179 170 122 6 L265 -9 Z " />
<glyph glyph-name="eight" unicode="8" horiz-adv-x="550" d="M264 -14 C409 -14 497 66 497 167 C497 242 440 289 375 327 C444 364 484 411 484 482 C484 575 395 634 282 634 C139 634 63 546 63 459 C63 392 111 345 169 307 C98 267 55 214 55 144 C55 48 144 -14 264 -14 L264 -14 Z M198 475 C198 503 224 528 274 528 C330 528 353 497 353 456 C353 424 334 392 303 368 C246 399 198 430 198 475 L198 475 Z M277 92 C214 92 188 126 188 172 C188 208 207 241 239 266 C303 229 361 196 361 150 C361 117 328 92 277 92 L277 92 Z " />
<glyph glyph-name="nine" unicode="9" horiz-adv-x="550" d="M170 -22 C397 76 497 214 497 388 C497 549 409 634 277 634 C156 634 51 552 51 418 C51 259 211 194 351 275 C326 206 262 153 112 95 L170 -22 Z M182 431 C182 493 215 524 264 524 C320 524 365 480 365 374 C365 368 365 362 365 357 C256 310 182 343 182 431 L182 431 Z " />
<glyph glyph-name="colon" unicode="&#x3a;" horiz-adv-x="550" d="M372 312 L375 477 L188 477 L186 312 L372 312 Z M364 0 L370 165 L183 165 L177 0 L364 0 Z " />
<glyph glyph-name="semicolon" unicode="&#x3b;" horiz-adv-x="550" d="M374 312 L377 477 L190 477 L187 312 L374 312 Z M170 -136 L246 -158 C334 -82 411 62 358 174 L182 167 C232 67 219 -69 170 -136 L170 -136 Z " />
<glyph glyph-name="less" unicode="&#x3c;" horiz-adv-x="550" d="M406 625 L73 357 L73 240 L401 -26 L480 76 L200 293 L200 305 L481 524 L406 625 Z " />
<glyph glyph-name="equal" unicode="&#x3d;" horiz-adv-x="550" d="M485 474 L65 474 L65 355 L485 355 L485 474 Z M485 256 L65 256 L65 137 L485 137 L485 256 Z " />
<glyph glyph-name="greater" unicode="&#x3e;" horiz-adv-x="550" d="M148 -27 L481 241 L481 358 L153 624 L74 522 L354 305 L354 293 L73 74 L148 -27 Z " />
<glyph glyph-name="question" unicode="&#x3f;" horiz-adv-x="550" d="M80 547 C302 530 338 508 338 478 C338 430 198 392 192 245 L294 242 C307 369 492 402 492 516 C492 599 405 667 94 680 L80 547 Z M321 0 L324 150 L153 150 L149 0 L321 0 Z " />
<glyph glyph-name="at" unicode="&#x40;" horiz-adv-x="550" d="M457 -151 L456 -42 C196 -72 141 39 141 259 C141 482 231 575 317 575 C362 575 382 545 387 482 C281 472 195 412 195 244 C194 134 242 59 307 59 C343 59 369 74 395 108 L400 63 L516 76 C514 150 510 238 510 457 C510 607 455 687 331 687 C154 687 24 512 24 241 C24 -21 126 -193 457 -151 L457 -151 Z M357 166 C331 166 320 198 320 267 C320 335 328 375 389 364 L389 181 C379 171 369 166 357 166 L357 166 Z " />
<glyph glyph-name="A" unicode="A" horiz-adv-x="550" d="M385 -5 L534 5 C485 211 435 414 377 620 L174 620 C116 414 66 206 17 0 L164 0 C174 51 185 102 196 154 L353 154 C364 100 375 47 385 -5 L385 -5 Z M270 502 L279 502 C296 423 314 341 331 260 L218 260 C235 341 252 423 270 502 L270 502 Z " />
<glyph glyph-name="B" unicode="B" horiz-adv-x="550" d="M511 189 C511 261 478 306 407 332 C460 364 492 411 492 473 C492 619 328 647 74 620 L74 0 C326 -31 511 20 511 189 L511 189 Z M218 511 C306 521 351 496 351 437 C351 376 321 353 218 357 L218 511 Z M218 109 L218 259 C315 266 367 253 367 185 C367 116 325 94 218 109 L218 109 Z " />
<glyph glyph-name="C" unicode="C" horiz-adv-x="550" d="M489 120 C274 108 209 162 209 321 C209 449 243 502 483 490 L475 630 C163 628 56 477 56 302 C56 112 153 -34 477 -4 L489 120 Z " />
<glyph glyph-name="D" unicode="D" horiz-adv-x="550" d="M516 321 C516 567 401 662 65 620 L65 0 C386 -42 516 82 516 321 L516 321 Z M367 302 C367 153 339 97 209 115 L209 508 C336 521 367 446 367 302 L367 302 Z " />
<glyph glyph-name="E" unicode="E" horiz-adv-x="550" d="M493 121 L235 121 L235 258 L447 258 L447 364 L235 364 L235 499 L486 499 L486 620 L88 620 L88 0 L482 0 L493 121 Z " />
<glyph glyph-name="F" unicode="F" horiz-adv-x="550" d="M456 241 L456 354 L240 354 L240 498 L496 498 L496 620 L92 620 L92 0 L240 0 L240 241 L456 241 Z " />
<glyph glyph-name="G" unicode="G" horiz-adv-x="550" d="M493 9 C493 90 492 183 492 310 L359 310 C360 248 363 163 366 105 C242 111 194 180 194 316 C194 433 224 509 465 490 L456 630 C142 623 44 477 44 293 C44 64 196 -57 493 9 L493 9 Z " />
<glyph glyph-name="H" unicode="H" horiz-adv-x="550" d="M342 0 L493 0 L493 620 L342 620 L342 368 L208 368 L208 620 L58 620 L58 0 L208 0 L208 256 L342 256 L342 0 Z " />
<glyph glyph-name="I" unicode="I" horiz-adv-x="550" d="M350 507 L482 507 L482 620 L71 620 L71 507 L203 507 L203 113 L71 113 L71 0 L478 0 L488 113 L350 113 L350 507 Z " />
<glyph glyph-name="J" unicode="J" horiz-adv-x="550" d="M107 620 L107 504 L301 504 L301 218 C301 122 291 106 71 117 L71 -9 C353 -16 449 52 449 220 L449 620 L107 620 Z " />
<glyph glyph-name="K" unicode="K" horiz-adv-x="550" d="M379 -9 L538 9 L369 321 L523 620 L368 620 L251 375 L211 375 L211 620 L64 620 L64 0 L211 0 L211 253 L246 253 L379 -9 Z " />
<glyph glyph-name="L" unicode="L" horiz-adv-x="550" d="M488 0 L500 122 L242 122 L242 620 L94 620 L94 0 L488 0 Z " />
<glyph glyph-name="M" unicode="M" horiz-adv-x="550" d="M369 620 L278 296 L274 296 L182 620 L52 620 L52 0 L182 0 L174 346 L178 346 L237 138 L308 138 L367 346 L371 346 L363 0 L498 0 L498 620 L369 620 Z " />
<glyph glyph-name="N" unicode="N" horiz-adv-x="550" d="M373 0 L492 0 L492 620 L357 620 L363 275 L359 275 L187 620 L59 620 L59 0 L194 0 L188 345 L193 345 L373 0 Z " />
<glyph glyph-name="O" unicode="O" horiz-adv-x="550" d="M258 -16 C415 -16 515 105 515 332 C515 529 436 636 292 636 C135 636 35 515 35 288 C35 91 114 -16 258 -16 L258 -16 Z M270 516 C330 516 363 445 363 299 C363 164 340 104 280 104 C220 104 187 175 187 321 C187 456 210 516 270 516 L270 516 Z " />
<glyph glyph-name="P" unicode="P" horiz-adv-x="550" d="M221 0 L221 171 C393 196 518 270 518 423 C518 586 377 657 75 620 L75 0 L221 0 Z M375 393 C375 301 324 275 221 290 L221 507 C323 516 375 478 375 393 L375 393 Z " />
<glyph glyph-name="Q" unicode="Q" horiz-adv-x="550" d="M440 -155 L480 -37 L366 -1 L366 7 C459 52 515 163 515 332 C515 529 436 636 292 636 C135 636 35 515 35 288 C35 110 99 6 218 -13 L195 -80 L440 -155 Z M270 516 C334 516 363 445 363 299 C363 164 344 104 280 104 C216 104 187 175 187 321 C187 456 206 516 270 516 L270 516 Z " />
<glyph glyph-name="R" unicode="R" horiz-adv-x="550" d="M383 -9 L541 9 L397 277 C454 318 494 369 494 445 C494 575 398 657 69 620 L69 0 L214 0 L214 200 L283 202 L383 -9 Z M214 508 C304 518 350 485 350 412 C350 367 329 329 294 304 L214 302 L214 508 Z " />
<glyph glyph-name="S" unicode="S" horiz-adv-x="550" d="M75 122 L75 -8 C386 -16 493 89 493 191 C493 338 224 378 224 456 C224 494 267 509 453 496 L445 626 C185 639 70 535 70 437 C70 295 339 262 339 174 C339 130 270 109 75 122 L75 122 Z " />
<glyph glyph-name="T" unicode="T" horiz-adv-x="550" d="M350 498 L514 498 L514 620 L42 620 L32 498 L202 498 L202 0 L350 0 L350 498 Z " />
<glyph glyph-name="U" unicode="U" horiz-adv-x="550" d="M270 -16 C408 -16 495 78 495 226 L495 620 L348 620 L348 198 C348 133 327 110 279 110 C232 110 203 141 203 215 L203 620 L56 620 L56 213 C56 67 136 -16 270 -16 L270 -16 Z " />
<glyph glyph-name="V" unicode="V" horiz-adv-x="550" d="M377 0 C435 206 485 414 531 620 L384 620 C353 461 319 292 282 133 L273 133 C235 293 200 465 169 625 L19 615 C65 409 116 206 174 0 L377 0 Z " />
<glyph glyph-name="W" unicode="W" horiz-adv-x="550" d="M342 0 L479 0 C492 117 512 353 525 620 L388 620 L380 197 L376 197 C353 289 339 341 314 432 L241 432 C218 341 208 290 186 197 L182 197 L167 620 L26 620 C39 353 58 117 71 0 L204 0 L271 267 L342 0 Z " />
<glyph glyph-name="X" unicode="X" horiz-adv-x="550" d="M372 -3 L535 3 L368 308 L536 620 L379 620 L283 414 L179 623 L17 617 L184 310 L18 0 L174 0 L270 203 L372 -3 Z " />
<glyph glyph-name="Y" unicode="Y" horiz-adv-x="550" d="M350 0 L350 207 L543 620 L392 620 L280 344 L162 623 L7 617 L202 204 L202 0 L350 0 Z " />
<glyph glyph-name="Z" unicode="Z" horiz-adv-x="550" d="M490 0 L500 127 L221 124 L490 497 L490 620 L68 620 L59 493 L330 496 L59 123 L59 0 L490 0 Z " />
<glyph glyph-name="bracketleft" unicode="&#x5b;" horiz-adv-x="550" d="M120 -180 L459 -180 L472 -68 L256 -68 L256 590 L465 590 L465 702 L120 702 L120 -180 Z " />
<glyph glyph-name="backslash" unicode="&#x5c;" horiz-adv-x="550" d="M102 748 L-22 696 L432 -190 L563 -151 L102 748 Z " />
<glyph glyph-name="bracketright" unicode="&#x5d;" horiz-adv-x="550" d="M91 -68 L81 -180 L431 -180 L431 702 L87 702 L87 590 L295 590 L295 -68 L91 -68 Z " />
<glyph glyph-name="asciicircum" unicode="&#x5e;" horiz-adv-x="550" d="M411 137 L515 209 L286 510 L262 507 L43 208 L137 137 L271 329 L411 137 Z " />
<glyph glyph-name="underscore" unicode="&#x5f;" horiz-adv-x="550" d="M520 -50 L30 -50 L30 -165 L520 -165 L520 -50 Z " />
<glyph glyph-name="grave" unicode="&#x60;" horiz-adv-x="550" d="M437 620 C383 659 273 745 211 800 L120 687 C198 640 324 584 399 559 L437 620 Z " />
<glyph glyph-name="a" unicode="a" horiz-adv-x="550" d="M259 94 C217 94 192 116 192 153 C192 196 215 222 344 208 C345 175 345 146 347 121 C318 104 286 94 259 94 L259 94 Z M363 -4 L494 3 C489 71 483 159 483 250 C483 451 410 516 92 517 L79 398 C287 393 336 375 343 298 C138 302 51 218 51 119 C51 37 112 -13 201 -13 C268 -13 317 17 353 53 L363 -4 Z " />
<glyph glyph-name="b" unicode="b" horiz-adv-x="550" d="M223 -14 C375 -14 508 97 508 281 C508 427 433 520 328 520 C279 520 239 499 208 470 L208 715 L66 703 L66 14 C114 -5 164 -14 223 -14 L223 -14 Z M274 108 C249 108 229 112 208 119 L208 385 C228 398 249 405 269 405 C328 405 367 354 367 246 C367 146 338 108 274 108 L274 108 Z " />
<glyph glyph-name="c" unicode="c" horiz-adv-x="550" d="M64 244 C64 86 146 -36 469 -4 L483 113 C275 98 205 136 205 263 C205 350 230 394 476 379 L467 513 C156 517 64 388 64 244 L64 244 Z " />
<glyph glyph-name="d" unicode="d" horiz-adv-x="550" d="M282 102 C223 102 183 148 183 260 C183 354 218 399 279 399 C297 399 318 395 340 388 C341 282 342 191 344 122 C326 109 308 102 282 102 L282 102 Z M359 -3 L490 4 C484 112 482 264 482 511 L482 715 L340 703 L340 520 C173 520 42 413 42 225 C42 74 117 -14 222 -14 C277 -14 320 13 352 46 L359 -3 Z " />
<glyph glyph-name="e" unicode="e" horiz-adv-x="550" d="M472 -12 L485 105 C283 108 208 131 192 215 L497 223 C515 408 448 520 303 520 C168 520 49 400 49 242 C49 77 134 -21 472 -12 L472 -12 Z M277 405 C334 405 357 368 360 302 C308 301 235 298 189 297 C194 377 223 405 277 405 L277 405 Z " />
<glyph glyph-name="f" unicode="f" horiz-adv-x="550" d="M470 106 L330 106 L330 368 L481 368 L481 475 L330 475 L330 500 C330 573 342 579 515 583 L506 720 C266 708 188 605 188 479 L188 475 L78 475 L66 368 L188 368 L188 106 L72 106 L72 0 L458 0 L470 106 Z " />
<glyph glyph-name="g" unicode="g" horiz-adv-x="550" d="M119 -178 C416 -163 484 -38 484 156 C484 263 483 422 481 494 C429 510 375 519 323 519 C168 519 44 415 44 257 C44 131 123 51 226 51 C274 51 312 66 342 87 C339 -26 315 -33 106 -51 L119 -178 Z M282 160 C228 160 184 200 184 290 C184 364 216 400 271 400 C294 400 317 396 342 389 C342 316 342 225 342 170 C322 163 302 160 282 160 L282 160 Z " />
<glyph glyph-name="h" unicode="h" horiz-adv-x="550" d="M281 399 C322 399 349 376 349 295 L349 0 L491 0 L491 346 C491 469 437 520 351 520 C290 520 244 495 207 464 L207 715 L65 703 L65 0 L207 0 L207 378 C229 391 253 399 281 399 L281 399 Z " />
<glyph glyph-name="i" unicode="i" horiz-adv-x="550" d="M369 576 L378 721 L229 721 L220 576 L369 576 Z M521 0 L533 106 L370 106 L370 506 L71 506 L60 405 L227 397 L227 106 L64 106 L64 0 L521 0 Z " />
<glyph glyph-name="j" unicode="j" horiz-adv-x="550" d="M408 576 L413 721 L264 721 L259 576 L408 576 Z M412 75 L412 506 L87 506 L76 405 L270 394 L270 44 C270 -32 255 -39 63 -43 L58 -175 C321 -172 412 -77 412 75 L412 75 Z " />
<glyph glyph-name="k" unicode="k" horiz-adv-x="550" d="M383 -9 L535 9 L378 273 C429 346 476 424 520 499 L374 509 C338 438 301 372 258 309 L216 308 L216 715 L74 703 L74 0 L216 0 L216 207 L261 209 L383 -9 Z " />
<glyph glyph-name="l" unicode="l" horiz-adv-x="550" d="M488 0 L500 106 L351 106 L351 701 L74 701 L62 599 L208 591 L208 106 L60 106 L60 0 L488 0 Z " />
<glyph glyph-name="m" unicode="m" horiz-adv-x="550" d="M205 399 C221 399 231 389 231 355 L231 0 L325 0 L325 385 C334 394 344 399 358 399 C376 399 387 389 387 355 L387 0 L517 0 L517 402 C517 478 492 520 432 520 C387 520 354 496 328 466 C319 499 297 520 258 520 C218 520 185 498 159 468 L155 509 L34 502 C38 389 38 234 38 0 L168 0 C168 155 167 287 166 384 C178 393 190 399 205 399 L205 399 Z " />
<glyph glyph-name="n" unicode="n" horiz-adv-x="550" d="M281 399 C322 399 349 376 349 295 L349 0 L491 0 L491 346 C491 469 437 520 351 520 C283 520 234 489 196 453 L189 509 L57 502 C64 389 66 234 66 0 L208 0 C208 150 206 279 204 375 C227 390 252 399 281 399 L281 399 Z " />
<glyph glyph-name="o" unicode="o" horiz-adv-x="550" d="M255 -16 C394 -16 510 96 510 267 C510 433 423 522 296 522 C156 522 41 404 41 239 C41 73 128 -16 255 -16 L255 -16 Z M281 98 C220 98 186 152 186 265 C186 363 218 408 271 408 C331 408 366 354 366 242 C366 143 334 98 281 98 L281 98 Z " />
<glyph glyph-name="p" unicode="p" horiz-adv-x="550" d="M256 108 C237 108 223 111 209 117 C208 232 206 319 205 383 C226 397 248 405 269 405 C326 405 367 354 367 246 C367 151 320 108 256 108 L256 108 Z M209 -164 L209 -14 C376 -14 508 93 508 281 C508 427 432 520 328 520 C274 520 230 494 198 460 L192 509 L62 502 C67 407 68 273 68 -5 L68 -176 L209 -164 Z " />
<glyph glyph-name="q" unicode="q" horiz-adv-x="550" d="M342 -176 L484 -164 L484 492 C436 511 387 520 329 520 C176 520 42 409 42 224 C42 78 116 -15 223 -15 C272 -15 311 6 342 34 L342 -176 Z M281 101 C221 101 183 152 183 259 C183 354 217 398 276 398 C298 398 319 394 342 387 L342 120 C323 108 304 101 281 101 L281 101 Z " />
<glyph glyph-name="r" unicode="r" horiz-adv-x="550" d="M443 0 L455 106 L317 106 C315 203 314 275 313 340 C371 361 436 373 509 376 L504 527 C416 514 349 472 306 418 L296 506 L72 506 L61 405 L173 397 C175 318 176 227 177 106 L65 106 L65 0 L443 0 Z " />
<glyph glyph-name="s" unicode="s" horiz-adv-x="550" d="M449 513 C178 529 77 445 77 351 C77 223 335 202 335 147 C335 113 274 104 91 113 L86 -7 C386 -17 484 59 484 152 C484 278 224 313 224 365 C224 397 285 406 454 392 L449 513 Z " />
<glyph glyph-name="t" unicode="t" horiz-adv-x="550" d="M466 -7 L481 109 C342 112 295 126 295 197 L295 399 L471 399 L471 506 L295 506 L295 651 L154 638 L154 506 L64 506 L52 399 L154 399 L154 175 C154 40 229 -13 466 -7 L466 -7 Z " />
<glyph glyph-name="u" unicode="u" horiz-adv-x="550" d="M362 -3 L494 4 C487 118 485 272 485 506 L343 506 C343 355 344 226 346 131 C323 116 299 107 270 107 C229 107 202 130 202 212 L202 510 L60 502 L60 160 C60 37 113 -14 200 -14 C268 -14 317 17 355 53 L362 -3 Z " />
<glyph glyph-name="v" unicode="v" horiz-adv-x="550" d="M282 141 L274 141 C236 263 200 391 167 511 L25 501 C73 335 131 163 190 -4 L359 -4 C418 163 479 339 527 506 L384 506 C353 387 319 262 282 141 L282 141 Z " />
<glyph glyph-name="w" unicode="w" horiz-adv-x="550" d="M338 0 L463 0 C478 99 503 312 511 506 L379 506 C379 382 378 296 377 160 L373 160 C357 217 332 294 317 342 L238 342 C224 295 200 220 184 163 L180 163 C178 299 176 383 175 506 L39 506 C46 312 69 99 85 0 L207 0 L270 219 L338 0 Z " />
<glyph glyph-name="x" unicode="x" horiz-adv-x="550" d="M369 -2 L531 3 L368 254 L529 506 L379 506 L282 338 L180 509 L20 503 L182 253 L21 0 L171 0 L268 167 L369 -2 Z " />
<glyph glyph-name="y" unicode="y" horiz-adv-x="550" d="M71 -177 C265 -164 323 -116 401 113 C448 248 494 401 524 506 L387 506 L296 164 L286 164 C249 259 201 417 168 511 L23 501 C50 424 164 120 199 36 L229 22 C204 -30 169 -36 60 -50 L71 -177 Z " />
<glyph glyph-name="z" unicode="z" horiz-adv-x="550" d="M484 0 L495 126 L226 121 L484 388 L484 506 L71 506 L60 381 L322 385 L62 119 L62 0 L484 0 Z " />
<glyph glyph-name="braceleft" unicode="&#x7b;" horiz-adv-x="550" d="M439 -216 L486 -105 C339 -62 267 -28 267 18 C267 66 350 106 350 170 C350 210 320 249 238 272 C318 299 348 341 348 378 C348 435 261 482 261 522 C261 557 333 586 488 627 L443 740 C202 664 123 588 124 513 C125 435 222 396 222 359 C222 335 190 323 86 311 L81 212 C169 203 214 181 214 149 C214 107 125 64 125 -16 C125 -94 200 -140 439 -216 L439 -216 Z " />
<glyph glyph-name="bar" unicode="&#x7c;" horiz-adv-x="550" d="M208 715 L208 -184 L342 -184 L342 726 L208 715 Z " />
<glyph glyph-name="braceright" unicode="&#x7d;" horiz-adv-x="550" d="M109 -215 C350 -139 429 -63 428 12 C427 90 330 129 330 166 C330 190 362 202 466 214 L471 313 C383 322 338 344 338 376 C338 418 427 461 427 541 C427 619 352 665 113 741 L66 630 C213 587 285 553 285 507 C285 459 202 419 202 355 C202 315 232 276 314 253 C234 226 204 184 204 147 C204 90 291 43 291 3 C291 -32 219 -61 64 -102 L109 -215 Z " />
<glyph glyph-name="asciitilde" unicode="&#x7e;" horiz-adv-x="550" d="M371 182 C442 182 489 261 527 389 L439 423 C414 355 395 311 376 311 C339 311 261 428 183 428 C113 428 59 344 23 221 L111 187 C134 255 154 299 174 299 C211 299 293 182 371 182 L371 182 Z " />
<glyph glyph-name="uni00A0" unicode="&#xa0;" horiz-adv-x="550" d="" />
<glyph glyph-name="exclamdown" unicode="&#xa1;" horiz-adv-x="550" d="M195 621 L192 469 L366 469 L369 621 L195 621 Z M227 365 L177 -57 L360 -57 L322 365 L227 365 Z " />
<glyph glyph-name="cent" unicode="&#xa2;" horiz-adv-x="550" d="M196 282 C196 322 214 357 289 369 L264 183 C218 204 196 237 196 282 L196 282 Z M454 27 L469 145 C425 147 387 151 354 157 L381 372 C408 371 439 369 475 364 L491 495 C460 497 431 498 405 497 L422 620 L300 620 L286 487 C109 456 61 359 61 267 C61 176 108 102 235 61 L214 -83 L336 -83 L348 36 C380 32 415 29 454 27 L454 27 Z " />
<glyph glyph-name="sterling" unicode="&#xa3;" horiz-adv-x="550" d="M482 119 L249 117 L265 254 L417 254 L427 357 L278 357 C295 489 318 496 489 494 L482 635 C226 623 162 547 139 357 L71 357 L61 254 L128 254 L115 116 L57 116 L57 0 L482 0 L482 119 Z " />
<glyph glyph-name="yen" unicode="&#xa5;" horiz-adv-x="550" d="M494 124 L495 223 L343 223 L368 279 L495 279 L495 378 L414 378 L524 620 L382 620 L278 344 L169 623 L20 617 L131 378 L51 378 L51 279 L177 279 L203 223 L51 223 L50 124 L204 124 L203 0 L342 0 L341 124 L494 124 Z " />
<glyph glyph-name="section" unicode="&#xa7;" horiz-adv-x="550" d="M168 264 C168 285 199 306 244 322 C314 297 382 280 382 253 C382 231 351 210 307 195 C236 220 168 237 168 264 L168 264 Z M468 61 C468 104 436 135 392 159 C457 188 508 231 508 287 C508 403 229 422 229 468 C229 488 272 526 465 511 L459 630 C180 643 83 535 83 455 C83 412 115 381 158 358 C93 329 42 287 42 231 C42 115 321 93 321 48 C321 28 277 -10 85 5 L81 -114 C371 -127 468 -19 468 61 L468 61 Z " />
<glyph glyph-name="dieresis" unicode="&#xa8;" horiz-adv-x="550" d="M459 576 L463 721 L319 721 L316 576 L459 576 Z M235 576 L238 721 L94 721 L91 576 L235 576 Z " />
<glyph glyph-name="copyright" unicode="&#xa9;" horiz-adv-x="550" d="M518 314 C518 500 423 613 285 613 C142 613 32 491 32 306 C32 109 135 7 279 7 C416 7 518 120 518 314 L518 314 Z M109 310 C109 463 180 542 283 542 C380 542 442 460 442 310 C442 148 382 78 283 78 C183 78 109 149 109 310 L109 310 Z M358 244 C285 243 265 261 265 320 C265 357 277 372 355 370 L349 463 C214 456 172 389 172 310 C172 220 214 151 350 160 L358 244 Z " />
<glyph glyph-name="ordfeminine" unicode="&#xaa;" horiz-adv-x="550" d="M265 329 C235 329 219 338 219 366 C219 395 232 410 321 402 C321 380 322 360 323 344 C303 334 282 329 265 329 L265 329 Z M337 251 L443 256 C440 305 435 368 435 439 C435 579 377 626 136 627 L126 528 C270 525 310 517 318 474 C168 473 103 413 103 342 C103 282 154 244 226 244 C272 244 305 260 331 282 L337 251 Z M98 189 L98 98 L452 98 L452 189 L98 189 Z " />
<glyph glyph-name="guillemotleft" unicode="&#xab;" horiz-adv-x="550" d="M184 -21 L284 60 L128 258 L289 447 L189 529 L26 321 L20 183 L184 -21 Z M435 -21 L535 60 L376 255 L540 447 L440 529 L277 321 L271 183 L435 -21 Z " />
<glyph glyph-name="registered" unicode="&#xae;" horiz-adv-x="550" d="M527 439 C527 590 420 687 276 685 C126 683 23 579 23 425 C23 274 121 179 272 179 C416 179 527 285 527 439 L527 439 Z M455 432 C455 313 382 245 274 245 C167 245 94 313 94 432 C94 550 167 619 274 619 C382 619 455 550 455 432 L455 432 Z M315 316 L397 323 L336 411 C361 430 379 455 379 479 C379 515 343 562 181 542 L181 319 L256 319 L256 395 L267 395 L315 316 Z " />
<glyph glyph-name="macron" unicode="&#xaf;" horiz-adv-x="550" d="M455 709 L95 709 L95 588 L455 588 L455 709 Z " />
<glyph glyph-name="degree" unicode="&#xb0;" horiz-adv-x="550" d="M471 492 C471 613 390 688 282 688 C174 688 79 608 79 484 C79 363 161 288 268 288 C376 288 471 368 471 492 L471 492 Z M359 489 C359 429 323 392 276 392 C226 392 191 433 191 488 C191 546 226 583 274 583 C323 583 359 543 359 489 L359 489 Z " />
<glyph glyph-name="plusminus" unicode="&#xb1;" horiz-adv-x="550" d="M491 35 L491 154 L339 154 L339 292 L491 292 L491 411 L339 411 L339 572 L212 572 L212 411 L59 411 L59 292 L212 292 L212 154 L59 154 L59 35 L491 35 Z " />
<glyph glyph-name="two.sup" unicode="&#xb2;" horiz-adv-x="550" d="M435 325 L435 418 L263 418 C368 484 425 540 425 606 C425 675 357 730 133 730 L125 633 C270 627 313 612 313 576 C313 531 242 484 110 410 L121 325 L435 325 Z " />
<glyph glyph-name="three.sup" unicode="&#xb3;" horiz-adv-x="550" d="M131 313 C356 316 437 375 437 443 C437 488 395 525 286 545 L426 634 L418 720 L132 720 L132 627 L297 629 L297 625 L163 542 L163 488 C277 478 330 462 330 443 C330 423 283 414 123 410 L131 313 Z " />
<glyph glyph-name="acute" unicode="&#xb4;" horiz-adv-x="550" d="M125 622 L159 560 C236 581 370 639 443 693 L343 798 C284 737 183 658 125 622 L125 622 Z " />
<glyph glyph-name="mu" unicode="&#xb5;" horiz-adv-x="550" d="M198 -164 L195 -5 C208 -11 222 -13 238 -13 C290 -13 328 17 358 53 L365 -3 L494 4 C487 118 485 272 485 506 L343 506 C343 355 344 225 346 130 C323 115 298 106 269 106 C228 106 202 125 202 194 L202 510 L60 502 L60 -176 L198 -164 Z " />
<glyph glyph-name="paragraph" unicode="&#xb6;" horiz-adv-x="550" d="M376 191 C354 191 334 194 315 197 L315 505 C333 506 354 505 376 502 L376 191 Z M164 356 C164 410 182 460 233 486 L234 229 C188 259 164 304 164 356 L164 356 Z M319 -105 L319 82 C337 81 356 80 376 80 L376 -96 L491 -84 L491 632 C185 633 37 518 37 336 C37 230 95 147 206 106 L206 -117 L319 -105 Z " />
<glyph glyph-name="periodcentered" unicode="&#xb7;" horiz-adv-x="550" d="M368 217 L369 382 L182 382 L181 217 L368 217 Z " />
<glyph glyph-name="cedilla" unicode="&#xb8;" horiz-adv-x="550" d="M213 -30 C267 -53 296 -73 296 -91 C296 -107 267 -117 194 -124 L202 -231 C350 -220 424 -169 424 -110 C424 -64 380 -12 241 35 L213 -30 Z " />
<glyph glyph-name="one.sup" unicode="&#xb9;" horiz-adv-x="550" d="M439 325 L448 416 L345 416 L345 734 L238 725 L238 667 L132 656 L135 575 L238 575 L238 416 L126 416 L126 325 L439 325 Z " />
<glyph glyph-name="ordmasculine" unicode="&#xba;" horiz-adv-x="550" d="M85 426 C85 308 154 244 257 244 C371 244 464 326 464 447 C464 562 393 628 291 628 C180 628 85 545 85 426 L85 426 Z M278 336 C227 336 200 367 200 445 C200 507 221 536 271 536 C323 536 348 505 348 428 C348 365 327 336 278 336 L278 336 Z M452 98 L452 189 L97 189 L97 98 L452 98 Z " />
<glyph glyph-name="guillemotright" unicode="&#xbb;" horiz-adv-x="550" d="M361 -21 L524 187 L530 325 L366 529 L266 448 L425 253 L261 61 L361 -21 Z M110 -21 L273 187 L279 325 L115 529 L15 448 L174 253 L10 61 L110 -21 Z " />
<glyph glyph-name="onequarter" unicode="&#xbc;" horiz-adv-x="550" d="M439 425 L448 516 L345 516 L345 834 L238 825 L238 767 L132 756 L135 675 L238 675 L238 516 L126 516 L126 425 L439 425 Z M59 260 L491 260 L491 350 L59 350 L59 260 Z M451 -143 L459 -53 L409 -54 L410 66 L306 57 L307 -54 L207 -53 L275 183 L155 190 C124 77 108 -54 113 -143 L307 -141 L306 -210 L410 -210 L409 -142 L451 -143 Z " />
<glyph glyph-name="onehalf" unicode="&#xbd;" horiz-adv-x="550" d="M439 425 L448 516 L345 516 L345 834 L238 825 L238 767 L132 756 L135 675 L238 675 L238 516 L126 516 L126 425 L439 425 Z M59 260 L491 260 L491 350 L59 350 L59 260 Z M435 -210 L435 -117 L263 -117 C368 -51 425 5 425 71 C425 140 357 195 133 195 L125 98 C270 92 313 77 313 41 C313 -4 242 -51 110 -125 L121 -210 L435 -210 Z " />
<glyph glyph-name="threequarters" unicode="&#xbe;" horiz-adv-x="550" d="M131 413 C356 416 437 475 437 543 C437 588 395 625 286 645 L426 734 L418 820 L132 820 L132 727 L297 729 L297 725 L163 642 L163 588 C277 578 330 562 330 543 C330 523 283 514 123 510 L131 413 Z M59 260 L491 260 L491 350 L59 350 L59 260 Z M451 -143 L459 -53 L409 -54 L410 66 L306 57 L307 -54 L207 -53 L275 183 L155 190 C124 77 108 -54 113 -143 L307 -141 L306 -210 L410 -210 L409 -142 L451 -143 Z " />
<glyph glyph-name="questiondown" unicode="&#xbf;" horiz-adv-x="550" d="M230 620 L226 470 L397 470 L401 620 L230 620 Z M471 73 C248 90 213 112 213 142 C213 190 353 228 359 375 L257 378 C243 251 58 218 58 104 C58 21 145 -47 456 -60 L471 73 Z " />
<glyph glyph-name="Agrave" unicode="&#xc0;" horiz-adv-x="550" d="M398 734 C344 773 234 859 172 914 L81 801 C159 754 285 698 360 673 L398 734 Z M385 -5 L534 5 C485 211 435 414 377 620 L174 620 C116 414 66 206 17 0 L164 0 C174 51 185 102 196 154 L353 154 C364 100 375 47 385 -5 L385 -5 Z M270 502 L279 502 C296 423 314 341 331 260 L218 260 C235 341 252 423 270 502 L270 502 Z " />
<glyph glyph-name="Aacute" unicode="&#xc1;" horiz-adv-x="550" d="M141 736 L175 674 C252 695 386 753 459 807 L359 912 C300 851 199 772 141 736 L141 736 Z M385 -5 L534 5 C485 211 435 414 377 620 L174 620 C116 414 66 206 17 0 L164 0 C174 51 185 102 196 154 L353 154 C364 100 375 47 385 -5 L385 -5 Z M270 502 L279 502 C296 423 314 341 331 260 L218 260 C235 341 252 423 270 502 L270 502 Z " />
<glyph glyph-name="Acircumflex" unicode="&#xc2;" horiz-adv-x="550" d="M381 675 L467 757 L275 894 L265 894 L78 741 L144 676 L259 767 L381 675 Z M385 -5 L534 5 C485 211 435 414 377 620 L174 620 C116 414 66 206 17 0 L164 0 C174 51 185 102 196 154 L353 154 C364 100 375 47 385 -5 L385 -5 Z M270 502 L279 502 C296 423 314 341 331 260 L218 260 C235 341 252 423 270 502 L270 502 Z " />
<glyph glyph-name="Atilde" unicode="&#xc3;" horiz-adv-x="550" d="M349 683 C407 683 460 746 496 827 L425 861 C398 811 378 796 365 796 C332 796 278 868 214 868 C156 868 103 805 67 725 L138 691 C164 739 184 755 197 755 C231 755 285 683 349 683 L349 683 Z M385 -5 L534 5 C485 211 435 414 377 620 L174 620 C116 414 66 206 17 0 L164 0 C174 51 185 102 196 154 L353 154 C364 100 375 47 385 -5 L385 -5 Z M270 502 L279 502 C296 423 314 341 331 260 L218 260 C235 341 252 423 270 502 L270 502 Z " />
<glyph glyph-name="Adieresis" unicode="&#xc4;" horiz-adv-x="550" d="M457 690 L461 835 L317 835 L314 690 L457 690 Z M233 690 L236 835 L92 835 L89 690 L233 690 Z M385 -5 L534 5 C485 211 435 414 377 620 L174 620 C116 414 66 206 17 0 L164 0 C174 51 185 102 196 154 L353 154 C364 100 375 47 385 -5 L385 -5 Z M270 502 L279 502 C296 423 314 341 331 260 L218 260 C235 341 252 423 270 502 L270 502 Z " />
<glyph glyph-name="Aring" unicode="&#xc5;" horiz-adv-x="550" d="M272 891 C188 891 136 842 136 778 C136 717 190 669 272 669 C356 669 409 717 409 782 C409 841 354 891 272 891 L272 891 Z M385 -5 L534 5 C485 211 435 414 377 620 L174 620 C116 414 66 206 17 0 L164 0 C174 51 185 102 196 154 L353 154 C364 100 375 47 385 -5 L385 -5 Z M270 502 L279 502 C296 423 314 341 331 260 L218 260 C235 341 252 423 270 502 L270 502 Z " />
<glyph glyph-name="AE" unicode="&#xc6;" horiz-adv-x="550" d="M249 499 L254 499 L254 254 L191 254 C211 336 231 417 249 499 L249 499 Z M254 0 L521 0 L529 121 L372 121 L372 258 L491 258 L491 364 L372 364 L372 499 L523 499 L523 620 L163 620 C107 416 42 205 -9 0 L128 0 C140 49 152 99 164 148 L254 148 L254 0 Z " />
<glyph glyph-name="Ccedilla" unicode="&#xc7;" horiz-adv-x="550" d="M418 -116 C418 -80 391 -41 313 -3 C360 -9 414 -10 477 -4 L489 120 C274 108 209 162 209 321 C209 449 243 502 483 490 L475 630 C163 628 56 477 56 302 C56 173 101 65 230 17 L207 -36 C261 -59 290 -79 290 -97 C290 -113 261 -123 188 -130 L196 -237 C344 -226 418 -175 418 -116 L418 -116 Z " />
<glyph glyph-name="Egrave" unicode="&#xc8;" horiz-adv-x="550" d="M408 734 C354 773 244 859 182 914 L91 801 C169 754 295 698 370 673 L408 734 Z M493 121 L235 121 L235 258 L447 258 L447 364 L235 364 L235 499 L486 499 L486 620 L88 620 L88 0 L482 0 L493 121 Z " />
<glyph glyph-name="Eacute" unicode="&#xc9;" horiz-adv-x="550" d="M151 736 L185 674 C262 695 396 753 469 807 L369 912 C310 851 209 772 151 736 L151 736 Z M493 121 L235 121 L235 258 L447 258 L447 364 L235 364 L235 499 L486 499 L486 620 L88 620 L88 0 L482 0 L493 121 Z " />
<glyph glyph-name="Ecircumflex" unicode="&#xca;" horiz-adv-x="550" d="M392 675 L478 757 L286 894 L276 894 L89 741 L155 676 L270 767 L392 675 Z M493 121 L235 121 L235 258 L447 258 L447 364 L235 364 L235 499 L486 499 L486 620 L88 620 L88 0 L482 0 L493 121 Z " />
<glyph glyph-name="Edieresis" unicode="&#xcb;" horiz-adv-x="550" d="M467 690 L471 835 L327 835 L324 690 L467 690 Z M243 690 L246 835 L102 835 L99 690 L243 690 Z M493 121 L235 121 L235 258 L447 258 L447 364 L235 364 L235 499 L486 499 L486 620 L88 620 L88 0 L482 0 L493 121 Z " />
<glyph glyph-name="Igrave" unicode="&#xcc;" horiz-adv-x="550" d="M404 734 C350 773 240 859 178 914 L87 801 C165 754 291 698 366 673 L404 734 Z M350 507 L482 507 L482 620 L71 620 L71 507 L203 507 L203 113 L71 113 L71 0 L478 0 L488 113 L350 113 L350 507 Z " />
<glyph glyph-name="Iacute" unicode="&#xcd;" horiz-adv-x="550" d="M148 736 L182 674 C259 695 393 753 466 807 L366 912 C307 851 206 772 148 736 L148 736 Z M350 507 L482 507 L482 620 L71 620 L71 507 L203 507 L203 113 L71 113 L71 0 L478 0 L488 113 L350 113 L350 507 Z " />
<glyph glyph-name="Icircumflex" unicode="&#xce;" horiz-adv-x="550" d="M388 675 L474 757 L282 894 L272 894 L85 741 L151 676 L266 767 L388 675 Z M350 507 L482 507 L482 620 L71 620 L71 507 L203 507 L203 113 L71 113 L71 0 L478 0 L488 113 L350 113 L350 507 Z " />
<glyph glyph-name="Idieresis" unicode="&#xcf;" horiz-adv-x="550" d="M464 690 L468 835 L324 835 L321 690 L464 690 Z M240 690 L243 835 L99 835 L96 690 L240 690 Z M350 507 L482 507 L482 620 L71 620 L71 507 L203 507 L203 113 L71 113 L71 0 L478 0 L488 113 L350 113 L350 507 Z " />
<glyph glyph-name="Eth" unicode="&#xd0;" horiz-adv-x="550" d="M516 321 C516 567 401 662 65 620 L65 361 L10 361 L10 263 L65 263 L65 0 C386 -42 516 82 516 321 L516 321 Z M209 115 L209 263 L291 263 L297 361 L209 361 L209 508 C336 521 367 446 367 302 C367 153 339 97 209 115 L209 115 Z " />
<glyph glyph-name="Ntilde" unicode="&#xd1;" horiz-adv-x="550" d="M354 683 C412 683 465 746 501 827 L430 861 C403 811 383 796 370 796 C337 796 283 868 219 868 C161 868 108 805 72 725 L143 691 C169 739 189 755 202 755 C236 755 290 683 354 683 L354 683 Z M373 0 L492 0 L492 620 L357 620 L363 275 L359 275 L187 620 L59 620 L59 0 L194 0 L188 345 L193 345 L373 0 Z " />
<glyph glyph-name="Ograve" unicode="&#xd2;" horiz-adv-x="550" d="M405 741 C351 780 241 866 179 921 L88 808 C166 761 292 705 367 680 L405 741 Z M258 -16 C415 -16 515 105 515 332 C515 529 436 636 292 636 C135 636 35 515 35 288 C35 91 114 -16 258 -16 L258 -16 Z M270 516 C330 516 363 445 363 299 C363 164 340 104 280 104 C220 104 187 175 187 321 C187 456 210 516 270 516 L270 516 Z " />
<glyph glyph-name="Oacute" unicode="&#xd3;" horiz-adv-x="550" d="M148 743 L182 681 C259 702 393 760 466 814 L366 919 C307 858 206 779 148 743 L148 743 Z M258 -16 C415 -16 515 105 515 332 C515 529 436 636 292 636 C135 636 35 515 35 288 C35 91 114 -16 258 -16 L258 -16 Z M270 516 C330 516 363 445 363 299 C363 164 340 104 280 104 C220 104 187 175 187 321 C187 456 210 516 270 516 L270 516 Z " />
<glyph glyph-name="Ocircumflex" unicode="&#xd4;" horiz-adv-x="550" d="M389 682 L475 764 L283 901 L273 901 L86 748 L152 683 L267 774 L389 682 Z M258 -16 C415 -16 515 105 515 332 C515 529 436 636 292 636 C135 636 35 515 35 288 C35 91 114 -16 258 -16 L258 -16 Z M270 516 C330 516 363 445 363 299 C363 164 340 104 280 104 C220 104 187 175 187 321 C187 456 210 516 270 516 L270 516 Z " />
<glyph glyph-name="Otilde" unicode="&#xd5;" horiz-adv-x="550" d="M356 690 C414 690 467 753 503 834 L432 868 C405 818 385 803 372 803 C339 803 285 875 221 875 C163 875 110 812 74 732 L145 698 C171 746 191 762 204 762 C238 762 292 690 356 690 L356 690 Z M258 -16 C415 -16 515 105 515 332 C515 529 436 636 292 636 C135 636 35 515 35 288 C35 91 114 -16 258 -16 L258 -16 Z M270 516 C330 516 363 445 363 299 C363 164 340 104 280 104 C220 104 187 175 187 321 C187 456 210 516 270 516 L270 516 Z " />
<glyph glyph-name="Odieresis" unicode="&#xd6;" horiz-adv-x="550" d="M464 697 L468 842 L324 842 L321 697 L464 697 Z M240 697 L243 842 L99 842 L96 697 L240 697 Z M258 -16 C415 -16 515 105 515 332 C515 529 436 636 292 636 C135 636 35 515 35 288 C35 91 114 -16 258 -16 L258 -16 Z M270 516 C330 516 363 445 363 299 C363 164 340 104 280 104 C220 104 187 175 187 321 C187 456 210 516 270 516 L270 516 Z " />
<glyph glyph-name="multiply" unicode="&#xd7;" horiz-adv-x="550" d="M411 76 L500 163 L362 304 L496 440 L410 524 L277 390 L141 528 L51 440 L189 300 L55 165 L141 80 L274 215 L411 76 Z " />
<glyph glyph-name="Oslash" unicode="&#xd8;" horiz-adv-x="550" d="M184 321 C184 459 209 517 270 517 C292 517 311 508 326 489 L190 225 C186 252 184 284 184 321 L184 321 Z M280 103 C257 103 238 112 223 132 L359 397 C364 369 366 337 366 299 C366 161 341 103 280 103 L280 103 Z M258 -16 C415 -16 515 105 515 332 C515 429 496 504 459 555 L495 625 L406 671 L381 619 C355 630 325 636 292 636 C135 636 35 515 35 288 C35 190 55 114 92 62 L56 -5 L145 -51 L171 0 C196 -11 226 -16 258 -16 L258 -16 Z " />
<glyph glyph-name="Ugrave" unicode="&#xd9;" horiz-adv-x="550" d="M400 734 C346 773 236 859 174 914 L83 801 C161 754 287 698 362 673 L400 734 Z M270 -16 C408 -16 495 78 495 226 L495 620 L348 620 L348 198 C348 133 327 110 279 110 C232 110 203 141 203 215 L203 620 L56 620 L56 213 C56 67 136 -16 270 -16 L270 -16 Z " />
<glyph glyph-name="Uacute" unicode="&#xda;" horiz-adv-x="550" d="M144 736 L178 674 C255 695 389 753 462 807 L362 912 C303 851 202 772 144 736 L144 736 Z M270 -16 C408 -16 495 78 495 226 L495 620 L348 620 L348 198 C348 133 327 110 279 110 C232 110 203 141 203 215 L203 620 L56 620 L56 213 C56 67 136 -16 270 -16 L270 -16 Z " />
<glyph glyph-name="Ucircumflex" unicode="&#xdb;" horiz-adv-x="550" d="M384 675 L470 757 L278 894 L268 894 L81 741 L147 676 L262 767 L384 675 Z M270 -16 C408 -16 495 78 495 226 L495 620 L348 620 L348 198 C348 133 327 110 279 110 C232 110 203 141 203 215 L203 620 L56 620 L56 213 C56 67 136 -16 270 -16 L270 -16 Z " />
<glyph glyph-name="Udieresis" unicode="&#xdc;" horiz-adv-x="550" d="M460 690 L464 835 L320 835 L317 690 L460 690 Z M236 690 L239 835 L95 835 L92 690 L236 690 Z M270 -16 C408 -16 495 78 495 226 L495 620 L348 620 L348 198 C348 133 327 110 279 110 C232 110 203 141 203 215 L203 620 L56 620 L56 213 C56 67 136 -16 270 -16 L270 -16 Z " />
<glyph glyph-name="Yacute" unicode="&#xdd;" horiz-adv-x="550" d="M145 739 L179 677 C256 698 390 756 463 810 L363 915 C304 854 203 775 145 739 L145 739 Z M350 0 L350 207 L543 620 L392 620 L280 344 L162 623 L7 617 L202 204 L202 0 L350 0 Z " />
<glyph glyph-name="Thorn" unicode="&#xde;" horiz-adv-x="550" d="M222 0 L222 93 C394 117 519 190 519 337 C519 469 421 538 222 534 L222 620 L75 620 L75 0 L222 0 Z M375 307 C375 223 324 198 222 213 L222 413 C324 421 375 386 375 307 L375 307 Z " />
<glyph glyph-name="germandbls" unicode="&#xdf;" horiz-adv-x="550" d="M389 359 C389 403 470 448 470 560 C470 635 418 718 296 718 C139 718 54 602 54 454 L54 0 L195 0 L195 483 C195 568 216 598 265 598 C307 598 327 565 327 528 C327 464 251 415 251 339 C251 220 394 205 394 149 C394 114 357 105 261 114 L255 -9 C478 -14 538 71 538 153 C538 276 389 303 389 359 L389 359 Z " />
<glyph glyph-name="agrave" unicode="&#xe0;" horiz-adv-x="550" d="M394 630 C340 669 230 755 168 810 L77 697 C155 650 281 594 356 569 L394 630 Z M259 94 C217 94 192 116 192 153 C192 196 215 222 344 208 C345 175 345 146 347 121 C318 104 286 94 259 94 L259 94 Z M363 -4 L494 3 C489 71 483 159 483 250 C483 451 410 516 92 517 L79 398 C287 393 336 375 343 298 C138 302 51 218 51 119 C51 37 112 -13 201 -13 C268 -13 317 17 353 53 L363 -4 Z " />
<glyph glyph-name="aacute" unicode="&#xe1;" horiz-adv-x="550" d="M137 632 L171 570 C248 591 382 649 455 703 L355 808 C296 747 195 668 137 632 L137 632 Z M259 94 C217 94 192 116 192 153 C192 196 215 222 344 208 C345 175 345 146 347 121 C318 104 286 94 259 94 L259 94 Z M363 -4 L494 3 C489 71 483 159 483 250 C483 451 410 516 92 517 L79 398 C287 393 336 375 343 298 C138 302 51 218 51 119 C51 37 112 -13 201 -13 C268 -13 317 17 353 53 L363 -4 Z " />
<glyph glyph-name="acircumflex" unicode="&#xe2;" horiz-adv-x="550" d="M377 571 L463 653 L271 790 L261 790 L74 637 L140 572 L255 663 L377 571 Z M259 94 C217 94 192 116 192 153 C192 196 215 222 344 208 C345 175 345 146 347 121 C318 104 286 94 259 94 L259 94 Z M363 -4 L494 3 C489 71 483 159 483 250 C483 451 410 516 92 517 L79 398 C287 393 336 375 343 298 C138 302 51 218 51 119 C51 37 112 -13 201 -13 C268 -13 317 17 353 53 L363 -4 Z " />
<glyph glyph-name="atilde" unicode="&#xe3;" horiz-adv-x="550" d="M345 579 C403 579 456 642 492 723 L421 757 C394 707 374 692 361 692 C328 692 274 764 210 764 C152 764 99 701 63 621 L134 587 C160 635 180 651 193 651 C227 651 281 579 345 579 L345 579 Z M259 94 C217 94 192 116 192 153 C192 196 215 222 344 208 C345 175 345 146 347 121 C318 104 286 94 259 94 L259 94 Z M363 -4 L494 3 C489 71 483 159 483 250 C483 451 410 516 92 517 L79 398 C287 393 336 375 343 298 C138 302 51 218 51 119 C51 37 112 -13 201 -13 C268 -13 317 17 353 53 L363 -4 Z " />
<glyph glyph-name="adieresis" unicode="&#xe4;" horiz-adv-x="550" d="M453 586 L457 731 L313 731 L310 586 L453 586 Z M229 586 L232 731 L88 731 L85 586 L229 586 Z M259 94 C217 94 192 116 192 153 C192 196 215 222 344 208 C345 175 345 146 347 121 C318 104 286 94 259 94 L259 94 Z M363 -4 L494 3 C489 71 483 159 483 250 C483 451 410 516 92 517 L79 398 C287 393 336 375 343 298 C138 302 51 218 51 119 C51 37 112 -13 201 -13 C268 -13 317 17 353 53 L363 -4 Z " />
<glyph glyph-name="aring" unicode="&#xe5;" horiz-adv-x="550" d="M268 787 C184 787 132 738 132 674 C132 613 186 565 268 565 C352 565 405 613 405 678 C405 737 350 787 268 787 L268 787 Z M259 94 C217 94 192 116 192 153 C192 196 215 222 344 208 C345 175 345 146 347 121 C318 104 286 94 259 94 L259 94 Z M363 -4 L494 3 C489 71 483 159 483 250 C483 451 410 516 92 517 L79 398 C287 393 336 375 343 298 C138 302 51 218 51 119 C51 37 112 -13 201 -13 C268 -13 317 17 353 53 L363 -4 Z " />
<glyph glyph-name="ae" unicode="&#xe6;" horiz-adv-x="550" d="M368 400 C392 400 400 366 401 299 C381 299 354 299 328 298 C329 377 336 400 368 400 L368 400 Z M188 99 C161 99 149 121 149 158 C149 194 157 224 212 218 C212 178 214 142 223 111 C213 103 201 99 188 99 L188 99 Z M514 -7 L524 108 C350 111 329 130 328 216 L529 220 C542 405 492 515 385 515 C333 515 292 493 264 449 C230 493 167 507 48 512 L39 395 C185 390 208 375 212 300 C67 298 20 234 20 124 C20 42 61 -8 134 -8 C186 -8 227 20 254 54 C293 11 369 -12 514 -7 L514 -7 Z " />
<glyph glyph-name="ccedilla" unicode="&#xe7;" horiz-adv-x="550" d="M424 -119 C424 -84 398 -45 323 -7 C365 -10 414 -9 469 -4 L483 113 C275 98 205 136 205 263 C205 350 230 394 476 379 L467 513 C156 517 64 388 64 244 C64 135 103 43 233 7 L213 -39 C267 -62 296 -82 296 -100 C296 -116 267 -126 194 -133 L202 -240 C350 -229 424 -178 424 -119 L424 -119 Z " />
<glyph glyph-name="egrave" unicode="&#xe8;" horiz-adv-x="550" d="M408 628 C354 667 244 753 182 808 L91 695 C169 648 295 592 370 567 L408 628 Z M472 -12 L485 105 C283 108 208 131 192 215 L497 223 C515 408 448 520 303 520 C168 520 49 400 49 242 C49 77 134 -21 472 -12 L472 -12 Z M277 405 C334 405 357 368 360 302 C308 301 235 298 189 297 C194 377 223 405 277 405 L277 405 Z " />
<glyph glyph-name="eacute" unicode="&#xe9;" horiz-adv-x="550" d="M151 630 L185 568 C262 589 396 647 469 701 L369 806 C310 745 209 666 151 630 L151 630 Z M472 -12 L485 105 C283 108 208 131 192 215 L497 223 C515 408 448 520 303 520 C168 520 49 400 49 242 C49 77 134 -21 472 -12 L472 -12 Z M277 405 C334 405 357 368 360 302 C308 301 235 298 189 297 C194 377 223 405 277 405 L277 405 Z " />
<glyph glyph-name="ecircumflex" unicode="&#xea;" horiz-adv-x="550" d="M392 569 L478 651 L286 788 L276 788 L89 635 L155 570 L270 661 L392 569 Z M472 -12 L485 105 C283 108 208 131 192 215 L497 223 C515 408 448 520 303 520 C168 520 49 400 49 242 C49 77 134 -21 472 -12 L472 -12 Z M277 405 C334 405 357 368 360 302 C308 301 235 298 189 297 C194 377 223 405 277 405 L277 405 Z " />
<glyph glyph-name="edieresis" unicode="&#xeb;" horiz-adv-x="550" d="M467 584 L471 729 L327 729 L324 584 L467 584 Z M243 584 L246 729 L102 729 L99 584 L243 584 Z M472 -12 L485 105 C283 108 208 131 192 215 L497 223 C515 408 448 520 303 520 C168 520 49 400 49 242 C49 77 134 -21 472 -12 L472 -12 Z M277 405 C334 405 357 368 360 302 C308 301 235 298 189 297 C194 377 223 405 277 405 L277 405 Z " />
<glyph glyph-name="igrave" unicode="&#xec;" horiz-adv-x="550" d="M424 620 C370 659 260 745 198 800 L107 687 C185 640 311 584 386 559 L424 620 Z M521 0 L533 106 L370 106 L370 506 L71 506 L60 405 L227 397 L227 106 L64 106 L64 0 L521 0 Z " />
<glyph glyph-name="iacute" unicode="&#xed;" horiz-adv-x="550" d="M167 622 L201 560 C278 581 412 639 485 693 L385 798 C326 737 225 658 167 622 L167 622 Z M521 0 L533 106 L370 106 L370 506 L71 506 L60 405 L227 397 L227 106 L64 106 L64 0 L521 0 Z " />
<glyph glyph-name="icircumflex" unicode="&#xee;" horiz-adv-x="550" d="M408 561 L494 643 L302 780 L292 780 L105 627 L171 562 L286 653 L408 561 Z M521 0 L533 106 L370 106 L370 506 L71 506 L60 405 L227 397 L227 106 L64 106 L64 0 L521 0 Z " />
<glyph glyph-name="idieresis" unicode="&#xef;" horiz-adv-x="550" d="M483 576 L487 721 L343 721 L340 576 L483 576 Z M259 576 L262 721 L118 721 L115 576 L259 576 Z M521 0 L533 106 L370 106 L370 506 L71 506 L60 405 L227 397 L227 106 L64 106 L64 0 L521 0 Z " />
<glyph glyph-name="eth" unicode="&#xf0;" horiz-adv-x="550" d="M262 -16 C391 -16 503 84 503 269 C503 383 465 482 386 572 L453 599 L425 677 L323 636 C292 663 256 690 217 717 L124 634 C149 617 172 600 193 583 L106 548 L135 470 L259 520 C277 501 292 482 305 462 C167 453 44 370 44 215 C44 70 142 -16 262 -16 L262 -16 Z M279 99 C229 99 183 147 183 233 C183 330 233 375 358 338 C364 311 367 282 367 253 C367 148 336 99 279 99 L279 99 Z " />
<glyph glyph-name="ntilde" unicode="&#xf1;" horiz-adv-x="550" d="M350 583 C408 583 461 646 497 727 L426 761 C399 711 379 696 366 696 C333 696 279 768 215 768 C157 768 104 705 68 625 L139 591 C165 639 185 655 198 655 C232 655 286 583 350 583 L350 583 Z M281 399 C322 399 349 376 349 295 L349 0 L491 0 L491 346 C491 469 437 520 351 520 C283 520 234 489 196 453 L189 509 L57 502 C64 389 66 234 66 0 L208 0 C208 150 206 279 204 375 C227 390 252 399 281 399 L281 399 Z " />
<glyph glyph-name="ograve" unicode="&#xf2;" horiz-adv-x="550" d="M400 628 C346 667 236 753 174 808 L83 695 C161 648 287 592 362 567 L400 628 Z M255 -16 C394 -16 510 96 510 267 C510 433 423 522 296 522 C156 522 41 404 41 239 C41 73 128 -16 255 -16 L255 -16 Z M281 98 C220 98 186 152 186 265 C186 363 218 408 271 408 C331 408 366 354 366 242 C366 143 334 98 281 98 L281 98 Z " />
<glyph glyph-name="oacute" unicode="&#xf3;" horiz-adv-x="550" d="M144 630 L178 568 C255 589 389 647 462 701 L362 806 C303 745 202 666 144 630 L144 630 Z M255 -16 C394 -16 510 96 510 267 C510 433 423 522 296 522 C156 522 41 404 41 239 C41 73 128 -16 255 -16 L255 -16 Z M281 98 C220 98 186 152 186 265 C186 363 218 408 271 408 C331 408 366 354 366 242 C366 143 334 98 281 98 L281 98 Z " />
<glyph glyph-name="ocircumflex" unicode="&#xf4;" horiz-adv-x="550" d="M384 569 L470 651 L278 788 L268 788 L81 635 L147 570 L262 661 L384 569 Z M255 -16 C394 -16 510 96 510 267 C510 433 423 522 296 522 C156 522 41 404 41 239 C41 73 128 -16 255 -16 L255 -16 Z M281 98 C220 98 186 152 186 265 C186 363 218 408 271 408 C331 408 366 354 366 242 C366 143 334 98 281 98 L281 98 Z " />
<glyph glyph-name="otilde" unicode="&#xf5;" horiz-adv-x="550" d="M352 577 C410 577 463 640 499 721 L428 755 C401 705 381 690 368 690 C335 690 281 762 217 762 C159 762 106 699 70 619 L141 585 C167 633 187 649 200 649 C234 649 288 577 352 577 L352 577 Z M255 -16 C394 -16 510 96 510 267 C510 433 423 522 296 522 C156 522 41 404 41 239 C41 73 128 -16 255 -16 L255 -16 Z M281 98 C220 98 186 152 186 265 C186 363 218 408 271 408 C331 408 366 354 366 242 C366 143 334 98 281 98 L281 98 Z " />
<glyph glyph-name="odieresis" unicode="&#xf6;" horiz-adv-x="550" d="M460 584 L464 729 L320 729 L317 584 L460 584 Z M236 584 L239 729 L95 729 L92 584 L236 584 Z M255 -16 C394 -16 510 96 510 267 C510 433 423 522 296 522 C156 522 41 404 41 239 C41 73 128 -16 255 -16 L255 -16 Z M281 98 C220 98 186 152 186 265 C186 363 218 408 271 408 C331 408 366 354 366 242 C366 143 334 98 281 98 L281 98 Z " />
<glyph glyph-name="divide" unicode="&#xf7;" horiz-adv-x="550" d="M345 417 L348 546 L206 546 L204 417 L345 417 Z M497 362 L53 362 L53 243 L497 243 L497 362 Z M345 59 L347 188 L205 188 L203 59 L345 59 Z " />
<glyph glyph-name="oslash" unicode="&#xf8;" horiz-adv-x="550" d="M182 265 C182 365 217 409 271 409 C293 409 312 402 327 388 L189 191 C184 212 182 237 182 265 L182 265 Z M281 97 C259 97 240 104 225 118 L364 313 C368 293 370 269 370 242 C370 141 335 97 281 97 L281 97 Z M255 -16 C394 -16 510 96 510 267 C510 337 494 394 467 435 L511 498 L431 550 L396 500 C367 514 333 522 296 522 C156 522 41 404 41 239 C41 168 57 110 86 68 L43 9 L122 -43 L156 6 C185 -9 218 -16 255 -16 L255 -16 Z " />
<glyph glyph-name="ugrave" unicode="&#xf9;" horiz-adv-x="550" d="M403 624 C349 663 239 749 177 804 L86 691 C164 644 290 588 365 563 L403 624 Z M362 -3 L494 4 C487 118 485 272 485 506 L343 506 C343 355 344 226 346 131 C323 116 299 107 270 107 C229 107 202 130 202 212 L202 510 L60 502 L60 160 C60 37 113 -14 200 -14 C268 -14 317 17 355 53 L362 -3 Z " />
<glyph glyph-name="uacute" unicode="&#xfa;" horiz-adv-x="550" d="M146 626 L180 564 C257 585 391 643 464 697 L364 802 C305 741 204 662 146 626 L146 626 Z M362 -3 L494 4 C487 118 485 272 485 506 L343 506 C343 355 344 226 346 131 C323 116 299 107 270 107 C229 107 202 130 202 212 L202 510 L60 502 L60 160 C60 37 113 -14 200 -14 C268 -14 317 17 355 53 L362 -3 Z " />
<glyph glyph-name="ucircumflex" unicode="&#xfb;" horiz-adv-x="550" d="M387 565 L473 647 L281 784 L271 784 L84 631 L150 566 L265 657 L387 565 Z M362 -3 L494 4 C487 118 485 272 485 506 L343 506 C343 355 344 226 346 131 C323 116 299 107 270 107 C229 107 202 130 202 212 L202 510 L60 502 L60 160 C60 37 113 -14 200 -14 C268 -14 317 17 355 53 L362 -3 Z " />
<glyph glyph-name="udieresis" unicode="&#xfc;" horiz-adv-x="550" d="M462 580 L466 725 L322 725 L319 580 L462 580 Z M238 580 L241 725 L97 725 L94 580 L238 580 Z M362 -3 L494 4 C487 118 485 272 485 506 L343 506 C343 355 344 226 346 131 C323 116 299 107 270 107 C229 107 202 130 202 212 L202 510 L60 502 L60 160 C60 37 113 -14 200 -14 C268 -14 317 17 355 53 L362 -3 Z " />
<glyph glyph-name="yacute" unicode="&#xfd;" horiz-adv-x="550" d="M149 627 L183 565 C260 586 394 644 467 698 L367 803 C308 742 207 663 149 627 L149 627 Z M71 -177 C265 -164 323 -116 401 113 C448 248 494 401 524 506 L387 506 L296 164 L286 164 C249 259 201 417 168 511 L23 501 C50 424 164 120 199 36 L229 22 C204 -30 169 -36 60 -50 L71 -177 Z " />
<glyph glyph-name="thorn" unicode="&#xfe;" horiz-adv-x="550" d="M253 108 C235 108 222 111 208 116 L208 387 C227 399 247 405 266 405 C323 405 364 354 364 246 C364 151 317 108 253 108 L253 108 Z M208 -164 L208 -14 C375 -14 505 93 505 281 C505 427 429 520 325 520 C278 520 238 500 208 473 L208 715 L65 703 L65 -176 L208 -164 Z " />
<glyph glyph-name="ydieresis" unicode="&#xff;" horiz-adv-x="550" d="M465 581 L469 726 L325 726 L322 581 L465 581 Z M241 581 L244 726 L100 726 L97 581 L241 581 Z M71 -177 C265 -164 323 -116 401 113 C448 248 494 401 524 506 L387 506 L296 164 L286 164 C249 259 201 417 168 511 L23 501 C50 424 164 120 199 36 L229 22 C204 -30 169 -36 60 -50 L71 -177 Z " />
<glyph glyph-name="Amacron" unicode="&#x100;" horiz-adv-x="550" d="M453 823 L93 823 L93 702 L453 702 L453 823 Z M385 -5 L534 5 C485 211 435 414 377 620 L174 620 C116 414 66 206 17 0 L164 0 C174 51 185 102 196 154 L353 154 C364 100 375 47 385 -5 L385 -5 Z M270 502 L279 502 C296 423 314 341 331 260 L218 260 C235 341 252 423 270 502 L270 502 Z " />
<glyph glyph-name="amacron" unicode="&#x101;" horiz-adv-x="550" d="M449 719 L89 719 L89 598 L449 598 L449 719 Z M259 94 C217 94 192 116 192 153 C192 196 215 222 344 208 C345 175 345 146 347 121 C318 104 286 94 259 94 L259 94 Z M363 -4 L494 3 C489 71 483 159 483 250 C483 451 410 516 92 517 L79 398 C287 393 336 375 343 298 C138 302 51 218 51 119 C51 37 112 -13 201 -13 C268 -13 317 17 353 53 L363 -4 Z " />
<glyph glyph-name="Abreve" unicode="&#x102;" horiz-adv-x="550" d="M277 678 C355 678 429 739 485 836 L406 877 C368 821 334 790 290 790 C246 790 213 818 171 882 L74 825 C126 728 199 678 277 678 L277 678 Z M385 -5 L534 5 C485 211 435 414 377 620 L174 620 C116 414 66 206 17 0 L164 0 C174 51 185 102 196 154 L353 154 C364 100 375 47 385 -5 L385 -5 Z M270 502 L279 502 C296 423 314 341 331 260 L218 260 C235 341 252 423 270 502 L270 502 Z " />
<glyph glyph-name="abreve" unicode="&#x103;" horiz-adv-x="550" d="M273 574 C351 574 425 635 481 732 L402 773 C364 717 330 686 286 686 C242 686 209 714 167 778 L70 721 C122 624 195 574 273 574 L273 574 Z M259 94 C217 94 192 116 192 153 C192 196 215 222 344 208 C345 175 345 146 347 121 C318 104 286 94 259 94 L259 94 Z M363 -4 L494 3 C489 71 483 159 483 250 C483 451 410 516 92 517 L79 398 C287 393 336 375 343 298 C138 302 51 218 51 119 C51 37 112 -13 201 -13 C268 -13 317 17 353 53 L363 -4 Z " />
<glyph glyph-name="Aogonek" unicode="&#x104;" horiz-adv-x="550" d="M512 -228 L524 -118 C449 -113 422 -98 422 -77 C422 -56 449 -29 534 5 C485 211 435 414 377 620 L174 620 C116 414 66 206 17 0 L164 0 C174 51 185 102 196 154 L353 154 C363 102 374 51 384 1 C317 -41 287 -80 287 -118 C287 -175 350 -224 512 -228 L512 -228 Z M270 502 L279 502 C296 423 314 341 331 260 L218 260 C235 341 252 423 270 502 L270 502 Z " />
<glyph glyph-name="aogonek" unicode="&#x105;" horiz-adv-x="550" d="M472 -230 L484 -120 C409 -115 382 -100 382 -79 C382 -58 409 -31 494 3 C489 71 483 159 483 250 C483 451 410 516 92 517 L79 398 C287 393 336 375 343 298 C138 302 51 218 51 119 C51 37 112 -13 201 -13 C260 -13 313 22 351 66 L361 9 C282 -36 247 -79 247 -120 C247 -177 310 -226 472 -230 L472 -230 Z M259 94 C217 94 192 115 192 153 C192 196 215 222 344 208 C345 178 345 152 346 129 C321 106 287 94 259 94 L259 94 Z " />
<glyph glyph-name="Cacute" unicode="&#x106;" horiz-adv-x="550" d="M175 736 L209 674 C286 695 420 753 493 807 L393 912 C334 851 233 772 175 736 L175 736 Z M489 120 C274 108 209 162 209 321 C209 449 243 502 483 490 L475 630 C163 628 56 477 56 302 C56 112 153 -34 477 -4 L489 120 Z " />
<glyph glyph-name="cacute" unicode="&#x107;" horiz-adv-x="550" d="M157 622 L191 560 C268 581 402 639 475 693 L375 798 C316 737 215 658 157 622 L157 622 Z M64 244 C64 86 146 -36 469 -4 L483 113 C275 98 205 136 205 263 C205 350 230 394 476 379 L467 513 C156 517 64 388 64 244 L64 244 Z " />
<glyph glyph-name="Cdotaccent" unicode="&#x10a;" horiz-adv-x="550" d="M385 690 L389 835 L241 835 L237 690 L385 690 Z M489 120 C274 108 209 162 209 321 C209 449 243 502 483 490 L475 630 C163 628 56 477 56 302 C56 112 153 -34 477 -4 L489 120 Z " />
<glyph glyph-name="cdotaccent" unicode="&#x10b;" horiz-adv-x="550" d="M367 576 L371 721 L223 721 L219 576 L367 576 Z M64 244 C64 86 146 -36 469 -4 L483 113 C275 98 205 136 205 263 C205 350 230 394 476 379 L467 513 C156 517 64 388 64 244 L64 244 Z " />
<glyph glyph-name="Ccaron" unicode="&#x10c;" horiz-adv-x="550" d="M320 668 L507 821 L441 887 L326 796 L205 888 L118 805 L310 668 L320 668 Z M489 120 C274 108 209 162 209 321 C209 449 243 502 483 490 L475 630 C163 628 56 477 56 302 C56 112 153 -34 477 -4 L489 120 Z " />
<glyph glyph-name="ccaron" unicode="&#x10d;" horiz-adv-x="550" d="M302 554 L489 707 L423 773 L308 682 L187 774 L100 691 L292 554 L302 554 Z M64 244 C64 86 146 -36 469 -4 L483 113 C275 98 205 136 205 263 C205 350 230 394 476 379 L467 513 C156 517 64 388 64 244 L64 244 Z " />
<glyph glyph-name="Dcaron" unicode="&#x10e;" horiz-adv-x="550" d="M273 673 L460 826 L394 892 L279 801 L158 893 L71 810 L263 673 L273 673 Z M516 321 C516 567 401 662 65 620 L65 0 C386 -42 516 82 516 321 L516 321 Z M367 302 C367 153 339 97 209 115 L209 508 C336 521 367 446 367 302 L367 302 Z " />
<glyph glyph-name="dcaron" unicode="&#x10f;" horiz-adv-x="550" d="M550 567 L613 550 C666 630 697 707 699 809 L552 808 C562 727 561 648 550 567 L550 567 Z M282 102 C223 102 183 148 183 260 C183 354 218 399 279 399 C297 399 318 395 340 388 C341 282 342 191 344 122 C326 109 308 102 282 102 L282 102 Z M359 -3 L490 4 C484 112 482 264 482 511 L482 715 L340 703 L340 520 C173 520 42 413 42 225 C42 74 117 -14 222 -14 C277 -14 320 13 352 46 L359 -3 Z " />
<glyph glyph-name="Dcroat" unicode="&#x110;" horiz-adv-x="550" d="M516 321 C516 567 401 662 65 620 L65 361 L10 361 L10 263 L65 263 L65 0 C386 -42 516 82 516 321 L516 321 Z M209 115 L209 263 L291 263 L297 361 L209 361 L209 508 C336 521 367 446 367 302 C367 153 339 97 209 115 L209 115 Z " />
<glyph glyph-name="dcroat" unicode="&#x111;" horiz-adv-x="550" d="M282 102 C223 102 183 148 183 260 C183 352 218 396 279 396 C297 396 317 392 339 385 C340 280 341 190 343 121 C325 109 307 102 282 102 L282 102 Z M358 -3 L490 4 C484 112 482 264 482 511 L482 561 L537 561 L537 648 L482 648 L482 707 L339 695 L339 648 L226 648 L226 562 L339 562 L339 514 C172 514 42 409 42 225 C42 74 117 -14 222 -14 C276 -14 319 12 351 45 L358 -3 Z " />
<glyph glyph-name="Emacron" unicode="&#x112;" horiz-adv-x="550" d="M463 823 L103 823 L103 702 L463 702 L463 823 Z M493 121 L235 121 L235 258 L447 258 L447 364 L235 364 L235 499 L486 499 L486 620 L88 620 L88 0 L482 0 L493 121 Z " />
<glyph glyph-name="emacron" unicode="&#x113;" horiz-adv-x="550" d="M463 717 L103 717 L103 596 L463 596 L463 717 Z M472 -12 L485 105 C283 108 208 131 192 215 L497 223 C515 408 448 520 303 520 C168 520 49 400 49 242 C49 77 134 -21 472 -12 L472 -12 Z M277 405 C334 405 357 368 360 302 C308 301 235 298 189 297 C194 377 223 405 277 405 L277 405 Z " />
<glyph glyph-name="Ebreve" unicode="&#x114;" horiz-adv-x="550" d="M287 678 C365 678 439 739 495 836 L416 877 C378 821 344 790 300 790 C256 790 223 818 181 882 L84 825 C136 728 209 678 287 678 L287 678 Z M493 121 L235 121 L235 258 L447 258 L447 364 L235 364 L235 499 L486 499 L486 620 L88 620 L88 0 L482 0 L493 121 Z " />
<glyph glyph-name="ebreve" unicode="&#x115;" horiz-adv-x="550" d="M287 572 C365 572 439 633 495 730 L416 771 C378 715 344 684 300 684 C256 684 223 712 181 776 L84 719 C136 622 209 572 287 572 L287 572 Z M472 -12 L485 105 C283 108 208 131 192 215 L497 223 C515 408 448 520 303 520 C168 520 49 400 49 242 C49 77 134 -21 472 -12 L472 -12 Z M277 405 C334 405 357 368 360 302 C308 301 235 298 189 297 C194 377 223 405 277 405 L277 405 Z " />
<glyph glyph-name="Edotaccent" unicode="&#x116;" horiz-adv-x="550" d="M361 690 L365 835 L217 835 L213 690 L361 690 Z M493 121 L235 121 L235 258 L447 258 L447 364 L235 364 L235 499 L486 499 L486 620 L88 620 L88 0 L482 0 L493 121 Z " />
<glyph glyph-name="edotaccent" unicode="&#x117;" horiz-adv-x="550" d="M361 584 L365 729 L217 729 L213 584 L361 584 Z M472 -12 L485 105 C283 108 208 131 192 215 L497 223 C515 408 448 520 303 520 C168 520 49 400 49 242 C49 77 134 -21 472 -12 L472 -12 Z M277 405 C334 405 357 368 360 302 C308 301 235 298 189 297 C194 377 223 405 277 405 L277 405 Z " />
<glyph glyph-name="Eogonek" unicode="&#x118;" horiz-adv-x="550" d="M472 -123 C397 -118 370 -103 370 -82 C370 -61 397 -34 482 0 L493 121 L235 121 L235 258 L447 258 L447 364 L235 364 L235 499 L486 499 L486 620 L88 620 L88 0 L339 0 C267 -43 235 -84 235 -123 C235 -180 298 -229 460 -233 L472 -123 Z " />
<glyph glyph-name="eogonek" unicode="&#x119;" horiz-adv-x="550" d="M445 -230 L457 -120 C382 -115 355 -100 355 -79 C355 -61 383 -37 472 -7 L485 105 C283 108 208 131 192 215 L497 223 C515 408 448 520 303 520 C168 520 49 400 49 242 C49 91 132 0 335 2 C255 -40 220 -83 220 -124 C220 -177 283 -226 445 -230 L445 -230 Z M277 405 C334 405 357 368 360 302 C308 301 235 298 189 297 C194 377 223 405 277 405 L277 405 Z " />
<glyph glyph-name="Ecaron" unicode="&#x11a;" horiz-adv-x="550" d="M296 668 L483 821 L417 887 L302 796 L181 888 L94 805 L286 668 L296 668 Z M493 121 L235 121 L235 258 L447 258 L447 364 L235 364 L235 499 L486 499 L486 620 L88 620 L88 0 L482 0 L493 121 Z " />
<glyph glyph-name="ecaron" unicode="&#x11b;" horiz-adv-x="550" d="M296 562 L483 715 L417 781 L302 690 L181 782 L94 699 L286 562 L296 562 Z M472 -12 L485 105 C283 108 208 131 192 215 L497 223 C515 408 448 520 303 520 C168 520 49 400 49 242 C49 77 134 -21 472 -12 L472 -12 Z M277 405 C334 405 357 368 360 302 C308 301 235 298 189 297 C194 377 223 405 277 405 L277 405 Z " />
<glyph glyph-name="Gbreve" unicode="&#x11e;" horiz-adv-x="550" d="M298 678 C376 678 450 739 506 836 L427 877 C389 821 355 790 311 790 C267 790 234 818 192 882 L95 825 C147 728 220 678 298 678 L298 678 Z M493 9 C493 90 492 183 492 310 L359 310 C360 248 363 163 366 105 C242 111 194 180 194 316 C194 433 224 509 465 490 L456 630 C142 623 44 477 44 293 C44 64 196 -57 493 9 L493 9 Z " />
<glyph glyph-name="gbreve" unicode="&#x11f;" horiz-adv-x="550" d="M293 571 C371 571 445 632 501 729 L422 770 C384 714 350 683 306 683 C262 683 229 711 187 775 L90 718 C142 621 215 571 293 571 L293 571 Z M119 -178 C416 -163 484 -38 484 156 C484 263 483 422 481 494 C429 510 375 519 323 519 C168 519 44 415 44 257 C44 131 123 51 226 51 C274 51 312 66 342 87 C339 -26 315 -33 106 -51 L119 -178 Z M282 160 C228 160 184 200 184 290 C184 364 216 400 271 400 C294 400 317 396 342 389 C342 316 342 225 342 170 C322 163 302 160 282 160 L282 160 Z " />
<glyph glyph-name="Gdotaccent" unicode="&#x120;" horiz-adv-x="550" d="M372 690 L376 835 L228 835 L224 690 L372 690 Z M493 9 C493 90 492 183 492 310 L359 310 C360 248 363 163 366 105 C242 111 194 180 194 316 C194 433 224 509 465 490 L456 630 C142 623 44 477 44 293 C44 64 196 -57 493 9 L493 9 Z " />
<glyph glyph-name="gdotaccent" unicode="&#x121;" horiz-adv-x="550" d="M367 583 L371 728 L223 728 L219 583 L367 583 Z M119 -178 C416 -163 484 -38 484 156 C484 263 483 422 481 494 C429 510 375 519 323 519 C168 519 44 415 44 257 C44 131 123 51 226 51 C274 51 312 66 342 87 C339 -26 315 -33 106 -51 L119 -178 Z M282 160 C228 160 184 200 184 290 C184 364 216 400 271 400 C294 400 317 396 342 389 C342 316 342 225 342 170 C322 163 302 160 282 160 L282 160 Z " />
<glyph glyph-name="Gcommaaccent" unicode="&#x122;" horiz-adv-x="550" d="M493 9 C493 90 492 183 492 310 L359 310 C360 248 363 163 366 105 C242 111 194 180 194 316 C194 433 224 509 465 490 L456 630 C142 623 44 477 44 293 C44 64 196 -57 493 9 L493 9 Z M210 -278 L283 -300 C342 -248 377 -155 378 -72 L212 -79 C229 -141 228 -217 210 -278 L210 -278 Z " />
<glyph glyph-name="gcommaaccent" unicode="&#x123;" horiz-adv-x="550" d="M373 784 L300 806 C241 754 206 661 205 578 L371 585 C354 647 355 723 373 784 L373 784 Z M119 -178 C416 -163 484 -38 484 156 C484 263 483 422 481 494 C429 510 375 519 323 519 C168 519 44 415 44 257 C44 131 123 51 226 51 C274 51 312 66 342 87 C339 -26 315 -33 106 -51 L119 -178 Z M282 160 C228 160 184 200 184 290 C184 364 216 400 271 400 C294 400 317 396 342 389 C342 316 342 225 342 170 C322 163 302 160 282 160 L282 160 Z " />
<glyph glyph-name="Hbar" unicode="&#x126;" horiz-adv-x="550" d="M342 348 L208 348 L208 433 L342 433 L342 348 Z M342 0 L493 0 L493 428 L548 428 L548 526 L493 526 L493 620 L342 620 L342 521 L208 521 L208 620 L58 620 L58 526 L3 526 L3 428 L58 428 L58 0 L208 0 L208 236 L342 236 L342 0 Z " />
<glyph glyph-name="hbar" unicode="&#x127;" horiz-adv-x="550" d="M281 399 C322 399 349 376 349 295 L349 0 L491 0 L491 346 C491 465 437 515 351 515 C290 515 244 490 207 459 L207 562 L321 562 L321 648 L207 648 L207 715 L64 703 L64 648 L9 648 L9 561 L64 561 L64 0 L207 0 L207 378 C229 391 253 399 281 399 L281 399 Z " />
<glyph glyph-name="Imacron" unicode="&#x12a;" horiz-adv-x="550" d="M460 823 L100 823 L100 702 L460 702 L460 823 Z M350 507 L482 507 L482 620 L71 620 L71 507 L203 507 L203 113 L71 113 L71 0 L478 0 L488 113 L350 113 L350 507 Z " />
<glyph glyph-name="imacron" unicode="&#x12b;" horiz-adv-x="550" d="M479 709 L119 709 L119 588 L479 588 L479 709 Z M521 0 L533 106 L370 106 L370 506 L71 506 L60 405 L227 397 L227 106 L64 106 L64 0 L521 0 Z " />
<glyph glyph-name="Ibreve" unicode="&#x12c;" horiz-adv-x="550" d="M284 678 C362 678 436 739 492 836 L413 877 C375 821 341 790 297 790 C253 790 220 818 178 882 L81 825 C133 728 206 678 284 678 L284 678 Z M350 507 L482 507 L482 620 L71 620 L71 507 L203 507 L203 113 L71 113 L71 0 L478 0 L488 113 L350 113 L350 507 Z " />
<glyph glyph-name="ibreve" unicode="&#x12d;" horiz-adv-x="550" d="M303 564 C381 564 455 625 511 722 L432 763 C394 707 360 676 316 676 C272 676 239 704 197 768 L100 711 C152 614 225 564 303 564 L303 564 Z M521 0 L533 106 L370 106 L370 506 L71 506 L60 405 L227 397 L227 106 L64 106 L64 0 L521 0 Z " />
<glyph glyph-name="Iogonek" unicode="&#x12e;" horiz-adv-x="550" d="M384 -118 C309 -113 282 -98 282 -77 C282 -57 296 -32 337 0 L478 0 L488 113 L350 113 L350 507 L482 507 L482 620 L71 620 L71 507 L203 507 L203 113 L71 113 L71 0 L220 0 C170 -41 147 -79 147 -114 C147 -175 210 -224 372 -228 L384 -118 Z " />
<glyph glyph-name="iogonek" unicode="&#x12f;" horiz-adv-x="550" d="M369 576 L378 721 L229 721 L220 576 L369 576 Z M385 -123 C310 -118 283 -103 283 -82 C283 -61 302 -34 363 0 L521 0 L533 106 L370 106 L370 506 L71 506 L60 405 L227 397 L227 106 L64 106 L64 0 L236 0 C175 -43 148 -84 148 -123 C148 -180 211 -229 373 -233 L385 -123 Z " />
<glyph glyph-name="Idotaccent" unicode="&#x130;" horiz-adv-x="550" d="M358 690 L362 835 L214 835 L210 690 L358 690 Z M350 507 L482 507 L482 620 L71 620 L71 507 L203 507 L203 113 L71 113 L71 0 L478 0 L488 113 L350 113 L350 507 Z " />
<glyph glyph-name="dotlessi" unicode="&#x131;" horiz-adv-x="550" d="M521 0 L533 106 L370 106 L370 506 L71 506 L60 405 L227 397 L227 106 L64 106 L64 0 L521 0 Z " />
<glyph glyph-name="Kcommaaccent" unicode="&#x136;" horiz-adv-x="550" d="M379 -9 L538 9 L369 321 L523 620 L368 620 L251 375 L211 375 L211 620 L64 620 L64 0 L211 0 L211 253 L246 253 L379 -9 Z M193 -278 L266 -300 C325 -248 360 -155 361 -72 L195 -79 C212 -141 211 -217 193 -278 L193 -278 Z " />
<glyph glyph-name="kcommaaccent" unicode="&#x137;" horiz-adv-x="550" d="M383 -9 L535 9 L378 273 C429 346 476 424 520 499 L374 509 C338 438 301 372 258 309 L216 308 L216 715 L74 703 L74 0 L216 0 L216 207 L261 209 L383 -9 Z M205 -278 L278 -300 C337 -248 372 -155 373 -72 L207 -79 C224 -141 223 -217 205 -278 L205 -278 Z " />
<glyph glyph-name="Lacute" unicode="&#x139;" horiz-adv-x="550" d="M158 736 L192 674 C269 695 403 753 476 807 L376 912 C317 851 216 772 158 736 L158 736 Z M488 0 L500 122 L242 122 L242 620 L94 620 L94 0 L488 0 Z " />
<glyph glyph-name="lacute" unicode="&#x13a;" horiz-adv-x="550" d="M148 817 L182 755 C259 776 393 834 466 888 L366 993 C307 932 206 853 148 817 L148 817 Z M488 0 L500 106 L351 106 L351 701 L74 701 L62 599 L208 591 L208 106 L60 106 L60 0 L488 0 Z " />
<glyph glyph-name="Lcommaaccent" unicode="&#x13b;" horiz-adv-x="550" d="M488 0 L500 122 L242 122 L242 620 L94 620 L94 0 L488 0 Z M206 -269 L279 -291 C338 -239 373 -146 374 -63 L208 -70 C225 -132 224 -208 206 -269 L206 -269 Z " />
<glyph glyph-name="lcommaaccent" unicode="&#x13c;" horiz-adv-x="550" d="M488 0 L500 106 L351 106 L351 701 L74 701 L62 599 L208 591 L208 106 L60 106 L60 0 L488 0 Z M196 -269 L269 -291 C328 -239 363 -146 364 -63 L198 -70 C215 -132 214 -208 196 -269 L196 -269 Z " />
<glyph glyph-name="Lcaron" unicode="&#x13d;" horiz-adv-x="550" d="M336 467 L399 450 C452 530 483 607 485 709 L338 708 C348 627 347 548 336 467 L336 467 Z M488 0 L500 122 L242 122 L242 620 L94 620 L94 0 L488 0 Z " />
<glyph glyph-name="lcaron" unicode="&#x13e;" horiz-adv-x="550" d="M416 567 L479 550 C532 630 563 707 565 809 L418 808 C428 727 427 648 416 567 L416 567 Z M488 0 L500 106 L351 106 L351 701 L74 701 L62 599 L208 591 L208 106 L60 106 L60 0 L488 0 Z " />
<glyph glyph-name="Ldot" unicode="&#x13f;" horiz-adv-x="550" d="M488 0 L500 122 L242 122 L242 620 L94 620 L94 0 L488 0 Z M504 255 L512 403 L381 403 L372 255 L504 255 Z " />
<glyph glyph-name="ldot" unicode="&#x140;" horiz-adv-x="550" d="M488 0 L500 106 L351 106 L351 701 L74 701 L62 599 L208 591 L208 106 L60 106 L60 0 L488 0 Z M615 254 L623 402 L495 402 L486 254 L615 254 Z " />
<glyph glyph-name="Lslash" unicode="&#x141;" horiz-adv-x="550" d="M488 0 L500 122 L242 122 L242 335 L354 391 L333 485 L242 440 L242 620 L94 620 L94 366 L22 330 L43 236 L94 261 L94 0 L488 0 Z " />
<glyph glyph-name="lslash" unicode="&#x142;" horiz-adv-x="550" d="M488 0 L500 106 L351 106 L351 354 L462 409 L441 499 L351 454 L351 701 L74 701 L62 599 L208 591 L208 383 L90 325 L111 235 L208 283 L208 106 L60 106 L60 0 L488 0 Z " />
<glyph glyph-name="Nacute" unicode="&#x143;" horiz-adv-x="550" d="M146 736 L180 674 C257 695 391 753 464 807 L364 912 C305 851 204 772 146 736 L146 736 Z M373 0 L492 0 L492 620 L357 620 L363 275 L359 275 L187 620 L59 620 L59 0 L194 0 L188 345 L193 345 L373 0 Z " />
<glyph glyph-name="nacute" unicode="&#x144;" horiz-adv-x="550" d="M142 636 L176 574 C253 595 387 653 460 707 L360 812 C301 751 200 672 142 636 L142 636 Z M281 399 C322 399 349 376 349 295 L349 0 L491 0 L491 346 C491 469 437 520 351 520 C283 520 234 489 196 453 L189 509 L57 502 C64 389 66 234 66 0 L208 0 C208 150 206 279 204 375 C227 390 252 399 281 399 L281 399 Z " />
<glyph glyph-name="Ncommaaccent" unicode="&#x145;" horiz-adv-x="550" d="M373 0 L492 0 L492 620 L357 620 L363 275 L359 275 L187 620 L59 620 L59 0 L194 0 L188 345 L193 345 L373 0 Z M194 -269 L267 -291 C326 -239 361 -146 362 -63 L196 -70 C213 -132 212 -208 194 -269 L194 -269 Z " />
<glyph glyph-name="ncommaaccent" unicode="&#x146;" horiz-adv-x="550" d="M281 399 C322 399 349 376 349 295 L349 0 L491 0 L491 346 C491 469 437 520 351 520 C283 520 234 489 196 453 L189 509 L57 502 C64 389 66 234 66 0 L208 0 C208 150 206 279 204 375 C227 390 252 399 281 399 L281 399 Z M205 -269 L278 -291 C337 -239 372 -146 373 -63 L207 -70 C224 -132 223 -208 205 -269 L205 -269 Z " />
<glyph glyph-name="Ncaron" unicode="&#x147;" horiz-adv-x="550" d="M291 668 L478 821 L412 887 L297 796 L176 888 L89 805 L281 668 L291 668 Z M373 0 L492 0 L492 620 L357 620 L363 275 L359 275 L187 620 L59 620 L59 0 L194 0 L188 345 L193 345 L373 0 Z " />
<glyph glyph-name="ncaron" unicode="&#x148;" horiz-adv-x="550" d="M287 568 L474 721 L408 787 L293 696 L172 788 L85 705 L277 568 L287 568 Z M281 399 C322 399 349 376 349 295 L349 0 L491 0 L491 346 C491 469 437 520 351 520 C283 520 234 489 196 453 L189 509 L57 502 C64 389 66 234 66 0 L208 0 C208 150 206 279 204 375 C227 390 252 399 281 399 L281 399 Z " />
<glyph glyph-name="Omacron" unicode="&#x14c;" horiz-adv-x="550" d="M460 830 L100 830 L100 709 L460 709 L460 830 Z M258 -16 C415 -16 515 105 515 332 C515 529 436 636 292 636 C135 636 35 515 35 288 C35 91 114 -16 258 -16 L258 -16 Z M270 516 C330 516 363 445 363 299 C363 164 340 104 280 104 C220 104 187 175 187 321 C187 456 210 516 270 516 L270 516 Z " />
<glyph glyph-name="omacron" unicode="&#x14d;" horiz-adv-x="550" d="M456 717 L96 717 L96 596 L456 596 L456 717 Z M255 -16 C394 -16 510 96 510 267 C510 433 423 522 296 522 C156 522 41 404 41 239 C41 73 128 -16 255 -16 L255 -16 Z M281 98 C220 98 186 152 186 265 C186 363 218 408 271 408 C331 408 366 354 366 242 C366 143 334 98 281 98 L281 98 Z " />
<glyph glyph-name="Obreve" unicode="&#x14e;" horiz-adv-x="550" d="M284 685 C362 685 436 746 492 843 L413 884 C375 828 341 797 297 797 C253 797 220 825 178 889 L81 832 C133 735 206 685 284 685 L284 685 Z M258 -16 C415 -16 515 105 515 332 C515 529 436 636 292 636 C135 636 35 515 35 288 C35 91 114 -16 258 -16 L258 -16 Z M270 516 C330 516 363 445 363 299 C363 164 340 104 280 104 C220 104 187 175 187 321 C187 456 210 516 270 516 L270 516 Z " />
<glyph glyph-name="obreve" unicode="&#x14f;" horiz-adv-x="550" d="M280 572 C358 572 432 633 488 730 L409 771 C371 715 337 684 293 684 C249 684 216 712 174 776 L77 719 C129 622 202 572 280 572 L280 572 Z M255 -16 C394 -16 510 96 510 267 C510 433 423 522 296 522 C156 522 41 404 41 239 C41 73 128 -16 255 -16 L255 -16 Z M281 98 C220 98 186 152 186 265 C186 363 218 408 271 408 C331 408 366 354 366 242 C366 143 334 98 281 98 L281 98 Z " />
<glyph glyph-name="Ohungarumlaut" unicode="&#x150;" horiz-adv-x="550" d="M106 729 L173 688 C232 739 299 813 340 872 L208 933 C186 874 143 786 106 729 L106 729 Z M319 727 L386 687 C447 738 513 810 554 870 L416 923 C394 861 356 785 319 727 L319 727 Z M258 -16 C415 -16 515 105 515 332 C515 529 436 636 292 636 C135 636 35 515 35 288 C35 91 114 -16 258 -16 L258 -16 Z M270 516 C330 516 363 445 363 299 C363 164 340 104 280 104 C220 104 187 175 187 321 C187 456 210 516 270 516 L270 516 Z " />
<glyph glyph-name="ohungarumlaut" unicode="&#x151;" horiz-adv-x="550" d="M101 616 L168 575 C227 626 294 700 335 759 L203 820 C181 761 138 673 101 616 L101 616 Z M314 614 L381 574 C442 625 508 697 549 757 L411 810 C389 748 351 672 314 614 L314 614 Z M255 -16 C394 -16 510 96 510 267 C510 433 423 522 296 522 C156 522 41 404 41 239 C41 73 128 -16 255 -16 L255 -16 Z M281 98 C220 98 186 152 186 265 C186 363 218 408 271 408 C331 408 366 354 366 242 C366 143 334 98 281 98 L281 98 Z " />
<glyph glyph-name="OE" unicode="&#x152;" horiz-adv-x="550" d="M169 319 C169 459 193 499 254 498 L254 121 C191 119 169 177 169 319 L169 319 Z M522 121 L373 121 L373 258 L485 258 L485 364 L373 364 L373 499 L517 499 L517 620 L283 620 C115 620 24 506 24 299 C24 80 109 0 282 0 L515 0 L522 121 Z " />
<glyph glyph-name="oe" unicode="&#x153;" horiz-adv-x="550" d="M196 104 C167 104 156 159 156 266 C156 364 168 402 189 402 C216 402 227 347 227 241 C227 142 217 104 196 104 L196 104 Z M376 400 C396 400 404 367 407 303 C390 302 367 301 345 300 C347 377 356 400 376 400 L376 400 Z M517 -7 L526 109 C376 107 350 131 346 217 L531 223 C543 408 494 515 395 515 C356 515 321 494 295 457 C273 495 242 515 201 515 C91 515 16 406 16 239 C16 72 79 -9 172 -9 C218 -9 255 16 282 59 C322 12 392 -12 517 -7 L517 -7 Z " />
<glyph glyph-name="Racute" unicode="&#x154;" horiz-adv-x="550" d="M126 741 L160 679 C237 700 371 758 444 812 L344 917 C285 856 184 777 126 741 L126 741 Z M383 -9 L541 9 L397 277 C454 318 494 369 494 445 C494 575 398 657 69 620 L69 0 L214 0 L214 200 L283 202 L383 -9 Z M214 508 C304 518 350 485 350 412 C350 367 329 329 294 304 L214 302 L214 508 Z " />
<glyph glyph-name="racute" unicode="&#x155;" horiz-adv-x="550" d="M166 631 L200 569 C277 590 411 648 484 702 L384 807 C325 746 224 667 166 631 L166 631 Z M443 0 L455 106 L317 106 C315 203 314 275 313 340 C371 361 436 373 509 376 L504 527 C416 514 349 472 306 418 L296 506 L72 506 L61 405 L173 397 C175 318 176 227 177 106 L65 106 L65 0 L443 0 Z " />
<glyph glyph-name="Rcommaaccent" unicode="&#x156;" horiz-adv-x="550" d="M383 -9 L541 9 L397 277 C454 318 494 369 494 445 C494 575 398 657 69 620 L69 0 L214 0 L214 200 L283 202 L383 -9 Z M214 508 C304 518 350 485 350 412 C350 367 329 329 294 304 L214 302 L214 508 Z M209 -278 L282 -300 C341 -248 376 -155 377 -72 L211 -79 C228 -141 227 -217 209 -278 L209 -278 Z " />
<glyph glyph-name="rcommaaccent" unicode="&#x157;" horiz-adv-x="550" d="M443 0 L455 106 L317 106 C315 203 314 275 313 340 C371 361 436 373 509 376 L504 527 C416 514 349 472 306 418 L296 506 L72 506 L61 405 L173 397 C175 318 176 227 177 106 L65 106 L65 0 L443 0 Z M174 -269 L247 -291 C306 -239 341 -146 342 -63 L176 -70 C193 -132 192 -208 174 -269 L174 -269 Z " />
<glyph glyph-name="Rcaron" unicode="&#x158;" horiz-adv-x="550" d="M271 673 L458 826 L392 892 L277 801 L156 893 L69 810 L261 673 L271 673 Z M383 -9 L541 9 L397 277 C454 318 494 369 494 445 C494 575 398 657 69 620 L69 0 L214 0 L214 200 L283 202 L383 -9 Z M214 508 C304 518 350 485 350 412 C350 367 329 329 294 304 L214 302 L214 508 Z " />
<glyph glyph-name="rcaron" unicode="&#x159;" horiz-adv-x="550" d="M311 563 L498 716 L432 782 L317 691 L196 783 L109 700 L301 563 L311 563 Z M443 0 L455 106 L317 106 C315 203 314 275 313 340 C371 361 436 373 509 376 L504 527 C416 514 349 472 306 418 L296 506 L72 506 L61 405 L173 397 C175 318 176 227 177 106 L65 106 L65 0 L443 0 Z " />
<glyph glyph-name="Sacute" unicode="&#x15a;" horiz-adv-x="550" d="M152 742 L186 680 C263 701 397 759 470 813 L370 918 C311 857 210 778 152 742 L152 742 Z M75 122 L75 -8 C386 -16 493 89 493 191 C493 338 224 378 224 456 C224 494 267 509 453 496 L445 626 C185 639 70 535 70 437 C70 295 339 262 339 174 C339 130 270 109 75 122 L75 122 Z " />
<glyph glyph-name="sacute" unicode="&#x15b;" horiz-adv-x="550" d="M149 622 L183 560 C260 581 394 639 467 693 L367 798 C308 737 207 658 149 622 L149 622 Z M449 513 C178 529 77 445 77 351 C77 223 335 202 335 147 C335 113 274 104 91 113 L86 -7 C386 -17 484 59 484 152 C484 278 224 313 224 365 C224 397 285 406 454 392 L449 513 Z " />
<glyph glyph-name="Scedilla" unicode="&#x15e;" horiz-adv-x="550" d="M157 -239 C305 -228 379 -177 379 -118 C379 -80 349 -37 258 3 C430 32 493 112 493 191 C493 338 224 378 224 456 C224 494 267 509 453 496 L445 626 C185 639 70 535 70 437 C70 295 339 262 339 174 C339 130 270 109 75 122 L75 -8 C114 -9 149 -8 182 -6 L168 -38 C222 -61 251 -81 251 -99 C251 -115 222 -125 149 -132 L157 -239 Z " />
<glyph glyph-name="scedilla" unicode="&#x15f;" horiz-adv-x="550" d="M178 -239 C326 -228 400 -177 400 -118 C400 -80 370 -38 282 2 C431 24 484 83 484 152 C484 278 224 313 224 365 C224 397 285 406 454 392 L449 513 C178 529 77 445 77 351 C77 223 335 202 335 147 C335 113 274 104 91 113 L86 -7 C129 -8 168 -8 203 -6 L189 -38 C243 -61 272 -81 272 -99 C272 -115 243 -125 170 -132 L178 -239 Z " />
<glyph glyph-name="Scaron" unicode="&#x160;" horiz-adv-x="550" d="M297 674 L484 827 L418 893 L303 802 L182 894 L95 811 L287 674 L297 674 Z M75 122 L75 -8 C386 -16 493 89 493 191 C493 338 224 378 224 456 C224 494 267 509 453 496 L445 626 C185 639 70 535 70 437 C70 295 339 262 339 174 C339 130 270 109 75 122 L75 122 Z " />
<glyph glyph-name="scaron" unicode="&#x161;" horiz-adv-x="550" d="M294 554 L481 707 L415 773 L300 682 L179 774 L92 691 L284 554 L294 554 Z M449 513 C178 529 77 445 77 351 C77 223 335 202 335 147 C335 113 274 104 91 113 L86 -7 C386 -17 484 59 484 152 C484 278 224 313 224 365 C224 397 285 406 454 392 L449 513 Z " />
<glyph glyph-name="Tcommaaccent" unicode="&#x162;" horiz-adv-x="550" d="M350 498 L514 498 L514 620 L42 620 L32 498 L202 498 L202 0 L350 0 L350 498 Z M186 -269 L259 -291 C318 -239 353 -146 354 -63 L188 -70 C205 -132 204 -208 186 -269 L186 -269 Z " />
<glyph glyph-name="tcommaaccent" unicode="&#x163;" horiz-adv-x="550" d="M466 -7 L481 109 C342 112 295 126 295 197 L295 399 L471 399 L471 506 L295 506 L295 651 L154 638 L154 506 L64 506 L52 399 L154 399 L154 175 C154 40 229 -13 466 -7 L466 -7 Z M229 -276 L302 -298 C361 -246 396 -153 397 -70 L231 -77 C248 -139 247 -215 229 -276 L229 -276 Z " />
<glyph glyph-name="Tcaron" unicode="&#x164;" horiz-adv-x="550" d="M283 668 L470 821 L404 887 L289 796 L168 888 L81 805 L273 668 L283 668 Z M350 498 L514 498 L514 620 L42 620 L32 498 L202 498 L202 0 L350 0 L350 498 Z " />
<glyph glyph-name="tcaron" unicode="&#x165;" horiz-adv-x="550" d="M355 597 L418 580 C471 660 502 737 504 839 L357 838 C367 757 366 678 355 597 L355 597 Z M466 -7 L481 109 C342 112 295 126 295 197 L295 399 L471 399 L471 506 L295 506 L295 651 L154 638 L154 506 L64 506 L52 399 L154 399 L154 175 C154 40 229 -13 466 -7 L466 -7 Z " />
<glyph glyph-name="Umacron" unicode="&#x16a;" horiz-adv-x="550" d="M456 823 L96 823 L96 702 L456 702 L456 823 Z M270 -16 C408 -16 495 78 495 226 L495 620 L348 620 L348 198 C348 133 327 110 279 110 C232 110 203 141 203 215 L203 620 L56 620 L56 213 C56 67 136 -16 270 -16 L270 -16 Z " />
<glyph glyph-name="umacron" unicode="&#x16b;" horiz-adv-x="550" d="M458 713 L98 713 L98 592 L458 592 L458 713 Z M362 -3 L494 4 C487 118 485 272 485 506 L343 506 C343 355 344 226 346 131 C323 116 299 107 270 107 C229 107 202 130 202 212 L202 510 L60 502 L60 160 C60 37 113 -14 200 -14 C268 -14 317 17 355 53 L362 -3 Z " />
<glyph glyph-name="Ubreve" unicode="&#x16c;" horiz-adv-x="550" d="M280 678 C358 678 432 739 488 836 L409 877 C371 821 337 790 293 790 C249 790 216 818 174 882 L77 825 C129 728 202 678 280 678 L280 678 Z M270 -16 C408 -16 495 78 495 226 L495 620 L348 620 L348 198 C348 133 327 110 279 110 C232 110 203 141 203 215 L203 620 L56 620 L56 213 C56 67 136 -16 270 -16 L270 -16 Z " />
<glyph glyph-name="ubreve" unicode="&#x16d;" horiz-adv-x="550" d="M282 568 C360 568 434 629 490 726 L411 767 C373 711 339 680 295 680 C251 680 218 708 176 772 L79 715 C131 618 204 568 282 568 L282 568 Z M362 -3 L494 4 C487 118 485 272 485 506 L343 506 C343 355 344 226 346 131 C323 116 299 107 270 107 C229 107 202 130 202 212 L202 510 L60 502 L60 160 C60 37 113 -14 200 -14 C268 -14 317 17 355 53 L362 -3 Z " />
<glyph glyph-name="Uring" unicode="&#x16e;" horiz-adv-x="550" d="M274 891 C190 891 138 842 138 778 C138 717 192 669 274 669 C358 669 411 717 411 782 C411 841 356 891 274 891 L274 891 Z M270 -16 C408 -16 495 78 495 226 L495 620 L348 620 L348 198 C348 133 327 110 279 110 C232 110 203 141 203 215 L203 620 L56 620 L56 213 C56 67 136 -16 270 -16 L270 -16 Z " />
<glyph glyph-name="uring" unicode="&#x16f;" horiz-adv-x="550" d="M277 781 C193 781 141 732 141 668 C141 607 195 559 277 559 C361 559 414 607 414 672 C414 731 359 781 277 781 L277 781 Z M362 -3 L494 4 C487 118 485 272 485 506 L343 506 C343 355 344 226 346 131 C323 116 299 107 270 107 C229 107 202 130 202 212 L202 510 L60 502 L60 160 C60 37 113 -14 200 -14 C268 -14 317 17 355 53 L362 -3 Z " />
<glyph glyph-name="Uhungarumlaut" unicode="&#x170;" horiz-adv-x="550" d="M101 722 L168 681 C227 732 294 806 335 865 L203 926 C181 867 138 779 101 722 L101 722 Z M314 720 L381 680 C442 731 508 803 549 863 L411 916 C389 854 351 778 314 720 L314 720 Z M270 -16 C408 -16 495 78 495 226 L495 620 L348 620 L348 198 C348 133 327 110 279 110 C232 110 203 141 203 215 L203 620 L56 620 L56 213 C56 67 136 -16 270 -16 L270 -16 Z " />
<glyph glyph-name="uhungarumlaut" unicode="&#x171;" horiz-adv-x="550" d="M104 612 L171 571 C230 622 297 696 338 755 L206 816 C184 757 141 669 104 612 L104 612 Z M317 610 L384 570 C445 621 511 693 552 753 L414 806 C392 744 354 668 317 610 L317 610 Z M362 -3 L494 4 C487 118 485 272 485 506 L343 506 C343 355 344 226 346 131 C323 116 299 107 270 107 C229 107 202 130 202 212 L202 510 L60 502 L60 160 C60 37 113 -14 200 -14 C268 -14 317 17 355 53 L362 -3 Z " />
<glyph glyph-name="Uogonek" unicode="&#x172;" horiz-adv-x="550" d="M375 -233 L387 -123 C312 -118 285 -102 285 -78 C285 -46 329 -34 398 19 C462 68 495 128 495 226 L495 620 L348 620 L348 198 C348 133 327 110 279 110 C232 110 203 141 203 215 L203 620 L56 620 L56 213 C56 81 121 1 233 -14 C172 -51 150 -86 150 -123 C150 -180 213 -229 375 -233 L375 -233 Z " />
<glyph glyph-name="uogonek" unicode="&#x173;" horiz-adv-x="550" d="M472 -229 L484 -119 C409 -114 382 -99 382 -78 C382 -57 409 -30 494 4 C487 118 485 272 485 506 L343 506 C343 364 344 241 346 147 C323 122 299 107 270 107 C229 107 202 130 202 212 L202 510 L60 502 L60 160 C60 37 113 -14 200 -14 C260 -14 312 26 352 72 L360 9 C282 -36 247 -78 247 -119 C247 -176 310 -225 472 -229 L472 -229 Z " />
<glyph glyph-name="Wcircumflex" unicode="&#x174;" horiz-adv-x="550" d="M387 675 L473 757 L281 894 L271 894 L84 741 L150 676 L265 767 L387 675 Z M342 0 L479 0 C492 117 512 353 525 620 L388 620 L380 197 L376 197 C353 289 339 341 314 432 L241 432 C218 341 208 290 186 197 L182 197 L167 620 L26 620 C39 353 58 117 71 0 L204 0 L271 267 L342 0 Z " />
<glyph glyph-name="wcircumflex" unicode="&#x175;" horiz-adv-x="550" d="M384 561 L470 643 L278 780 L268 780 L81 627 L147 562 L262 653 L384 561 Z M338 0 L463 0 C478 99 503 312 511 506 L379 506 C379 382 378 296 377 160 L373 160 C357 217 332 294 317 342 L238 342 C224 295 200 220 184 163 L180 163 C178 299 176 383 175 506 L39 506 C46 312 69 99 85 0 L207 0 L270 219 L338 0 Z " />
<glyph glyph-name="Ycircumflex" unicode="&#x176;" horiz-adv-x="550" d="M386 678 L472 760 L280 897 L270 897 L83 744 L149 679 L264 770 L386 678 Z M350 0 L350 207 L543 620 L392 620 L280 344 L162 623 L7 617 L202 204 L202 0 L350 0 Z " />
<glyph glyph-name="ycircumflex" unicode="&#x177;" horiz-adv-x="550" d="M390 566 L476 648 L284 785 L274 785 L87 632 L153 567 L268 658 L390 566 Z M71 -177 C265 -164 323 -116 401 113 C448 248 494 401 524 506 L387 506 L296 164 L286 164 C249 259 201 417 168 511 L23 501 C50 424 164 120 199 36 L229 22 C204 -30 169 -36 60 -50 L71 -177 Z " />
<glyph glyph-name="Ydieresis" unicode="&#x178;" horiz-adv-x="550" d="M461 693 L465 838 L321 838 L318 693 L461 693 Z M237 693 L240 838 L96 838 L93 693 L237 693 Z M350 0 L350 207 L543 620 L392 620 L280 344 L162 623 L7 617 L202 204 L202 0 L350 0 Z " />
<glyph glyph-name="Zacute" unicode="&#x179;" horiz-adv-x="550" d="M156 736 L190 674 C267 695 401 753 474 807 L374 912 C315 851 214 772 156 736 L156 736 Z M490 0 L500 127 L221 124 L490 497 L490 620 L68 620 L59 493 L330 496 L59 123 L59 0 L490 0 Z " />
<glyph glyph-name="zacute" unicode="&#x17a;" horiz-adv-x="550" d="M138 622 L172 560 C249 581 383 639 456 693 L356 798 C297 737 196 658 138 622 L138 622 Z M484 0 L495 126 L226 121 L484 388 L484 506 L71 506 L60 381 L322 385 L62 119 L62 0 L484 0 Z " />
<glyph glyph-name="Zdotaccent" unicode="&#x17b;" horiz-adv-x="550" d="M366 690 L370 835 L222 835 L218 690 L366 690 Z M490 0 L500 127 L221 124 L490 497 L490 620 L68 620 L59 493 L330 496 L59 123 L59 0 L490 0 Z " />
<glyph glyph-name="zdotaccent" unicode="&#x17c;" horiz-adv-x="550" d="M348 576 L352 721 L204 721 L200 576 L348 576 Z M484 0 L495 126 L226 121 L484 388 L484 506 L71 506 L60 381 L322 385 L62 119 L62 0 L484 0 Z " />
<glyph glyph-name="Zcaron" unicode="&#x17d;" horiz-adv-x="550" d="M301 668 L488 821 L422 887 L307 796 L186 888 L99 805 L291 668 L301 668 Z M490 0 L500 127 L221 124 L490 497 L490 620 L68 620 L59 493 L330 496 L59 123 L59 0 L490 0 Z " />
<glyph glyph-name="zcaron" unicode="&#x17e;" horiz-adv-x="550" d="M283 554 L470 707 L404 773 L289 682 L168 774 L81 691 L273 554 L283 554 Z M484 0 L495 126 L226 121 L484 388 L484 506 L71 506 L60 381 L322 385 L62 119 L62 0 L484 0 Z " />
<glyph glyph-name="Aringacute" unicode="&#x1fa;" horiz-adv-x="550" d="M141 979 L175 917 C252 938 386 996 459 1050 L359 1155 C300 1094 199 1015 141 979 L141 979 Z M272 891 C188 891 136 842 136 778 C136 717 190 669 272 669 C356 669 409 717 409 782 C409 841 354 891 272 891 L272 891 Z M385 -5 L534 5 C485 211 435 414 377 620 L174 620 C116 414 66 206 17 0 L164 0 C174 51 185 102 196 154 L353 154 C364 100 375 47 385 -5 L385 -5 Z M270 502 L279 502 C296 423 314 341 331 260 L218 260 C235 341 252 423 270 502 L270 502 Z " />
<glyph glyph-name="aringacute" unicode="&#x1fb;" horiz-adv-x="550" d="M137 877 L171 815 C248 836 382 894 455 948 L355 1053 C296 992 195 913 137 877 L137 877 Z M268 787 C184 787 132 738 132 674 C132 613 186 565 268 565 C352 565 405 613 405 678 C405 737 350 787 268 787 L268 787 Z M259 94 C217 94 192 116 192 153 C192 196 215 222 344 208 C345 175 345 146 347 121 C318 104 286 94 259 94 L259 94 Z M363 -4 L494 3 C489 71 483 159 483 250 C483 451 410 516 92 517 L79 398 C287 393 336 375 343 298 C138 302 51 218 51 119 C51 37 112 -13 201 -13 C268 -13 317 17 353 53 L363 -4 Z " />
<glyph glyph-name="AEacute" unicode="&#x1fc;" horiz-adv-x="550" d="M190 736 L224 674 C301 695 435 753 508 807 L408 912 C349 851 248 772 190 736 L190 736 Z M249 499 L254 499 L254 254 L191 254 C211 336 231 417 249 499 L249 499 Z M254 0 L521 0 L529 121 L372 121 L372 258 L491 258 L491 364 L372 364 L372 499 L523 499 L523 620 L163 620 C107 416 42 205 -9 0 L128 0 C140 49 152 99 164 148 L254 148 L254 0 Z " />
<glyph glyph-name="aeacute" unicode="&#x1fd;" horiz-adv-x="550" d="M145 623 L179 561 C256 582 390 640 463 694 L363 799 C304 738 203 659 145 623 L145 623 Z M368 400 C392 400 400 366 401 299 C381 299 354 299 328 298 C329 377 336 400 368 400 L368 400 Z M188 99 C161 99 149 121 149 158 C149 194 157 224 212 218 C212 178 214 142 223 111 C213 103 201 99 188 99 L188 99 Z M514 -7 L524 108 C350 111 329 130 328 216 L529 220 C542 405 492 515 385 515 C333 515 292 493 264 449 C230 493 167 507 48 512 L39 395 C185 390 208 375 212 300 C67 298 20 234 20 124 C20 42 61 -8 134 -8 C186 -8 227 20 254 54 C293 11 369 -12 514 -7 L514 -7 Z " />
<glyph glyph-name="Oslashacute" unicode="&#x1fe;" horiz-adv-x="550" d="M143 744 L177 682 C254 703 388 761 461 815 L361 920 C302 859 201 780 143 744 L143 744 Z M184 321 C184 459 209 517 270 517 C292 517 311 508 326 489 L190 225 C186 252 184 284 184 321 L184 321 Z M280 103 C257 103 238 112 223 132 L359 397 C364 369 366 337 366 299 C366 161 341 103 280 103 L280 103 Z M258 -16 C415 -16 515 105 515 332 C515 429 496 504 459 555 L495 625 L406 671 L381 619 C355 630 325 636 292 636 C135 636 35 515 35 288 C35 190 55 114 92 62 L56 -5 L145 -51 L171 0 C196 -11 226 -16 258 -16 L258 -16 Z " />
<glyph glyph-name="oslashacute" unicode="&#x1ff;" horiz-adv-x="550" d="M144 630 L178 568 C255 589 389 647 462 701 L362 806 C303 745 202 666 144 630 L144 630 Z M182 265 C182 365 217 409 271 409 C293 409 312 402 327 388 L189 191 C184 212 182 237 182 265 L182 265 Z M281 97 C259 97 240 104 225 118 L364 313 C368 293 370 269 370 242 C370 141 335 97 281 97 L281 97 Z M255 -16 C394 -16 510 96 510 267 C510 337 494 394 467 435 L511 498 L431 550 L396 500 C367 514 333 522 296 522 C156 522 41 404 41 239 C41 168 57 110 86 68 L43 9 L122 -43 L156 6 C185 -9 218 -16 255 -16 L255 -16 Z " />
<glyph glyph-name="Scommaaccent" unicode="&#x218;" horiz-adv-x="550" d="M75 122 L75 -8 C386 -16 493 89 493 191 C493 338 224 378 224 456 C224 494 267 509 453 496 L445 626 C185 639 70 535 70 437 C70 295 339 262 339 174 C339 130 270 109 75 122 L75 122 Z M180 -277 L253 -299 C312 -247 347 -154 348 -71 L182 -78 C199 -140 198 -216 180 -277 L180 -277 Z " />
<glyph glyph-name="scommaaccent" unicode="&#x219;" horiz-adv-x="550" d="M449 513 C178 529 77 445 77 351 C77 223 335 202 335 147 C335 113 274 104 91 113 L86 -7 C386 -17 484 59 484 152 C484 278 224 313 224 365 C224 397 285 406 454 392 L449 513 Z M186 -277 L259 -299 C318 -247 353 -154 354 -71 L188 -78 C205 -140 204 -216 186 -277 L186 -277 Z " />
<glyph glyph-name="schwa" unicode="&#x259;" horiz-adv-x="550" d="M248 -14 C383 -14 502 106 502 264 C502 429 417 527 79 518 L66 401 C268 398 343 375 359 291 L54 283 C36 98 103 -14 248 -14 L248 -14 Z M274 101 C217 101 194 138 191 204 C243 205 316 208 362 209 C357 129 328 101 274 101 L274 101 Z " />
<glyph glyph-name="circumflex" unicode="&#x2c6;" horiz-adv-x="550" d="M383 561 L469 643 L277 780 L267 780 L80 627 L146 562 L261 653 L383 561 Z " />
<glyph glyph-name="caron" unicode="&#x2c7;" horiz-adv-x="550" d="M282 554 L469 707 L403 773 L288 682 L167 774 L80 691 L272 554 L282 554 Z " />
<glyph glyph-name="breve" unicode="&#x2d8;" horiz-adv-x="550" d="M273 564 C351 564 425 625 481 722 L402 763 C364 707 330 676 286 676 C242 676 209 704 167 768 L70 711 C122 614 195 564 273 564 L273 564 Z " />
<glyph glyph-name="dotaccent" unicode="&#x2d9;" horiz-adv-x="550" d="M347 576 L351 721 L203 721 L199 576 L347 576 Z " />
<glyph glyph-name="ring" unicode="&#x2da;" horiz-adv-x="550" d="M282 777 C198 777 146 728 146 664 C146 603 200 555 282 555 C366 555 419 603 419 668 C419 727 364 777 282 777 L282 777 Z " />
<glyph glyph-name="ogonek" unicode="&#x2db;" horiz-adv-x="550" d="M351 53 C203 -10 140 -68 140 -123 C140 -180 203 -229 365 -233 L377 -123 C302 -118 275 -103 275 -82 C275 -61 302 -34 387 0 L351 53 Z " />
<glyph glyph-name="tilde" unicode="&#x2dc;" horiz-adv-x="550" d="M344 569 C402 569 455 632 491 713 L420 747 C393 697 373 682 360 682 C327 682 273 754 209 754 C151 754 98 691 62 611 L133 577 C159 625 179 641 192 641 C226 641 280 569 344 569 L344 569 Z " />
<glyph glyph-name="hungarumlaut" unicode="&#x2dd;" horiz-adv-x="550" d="M114 608 L181 567 C240 618 307 692 348 751 L216 812 C194 753 151 665 114 608 L114 608 Z M327 606 L394 566 C455 617 521 689 562 749 L424 802 C402 740 364 664 327 606 L327 606 Z " />
<glyph glyph-name="commaaccent" unicode="&#x326;" horiz-adv-x="550" d="M189 -269 L262 -291 C321 -239 356 -146 357 -63 L191 -70 C208 -132 207 -208 189 -269 L189 -269 Z " />
<glyph glyph-name="Wgrave" unicode="&#x1e80;" horiz-adv-x="550" d="M403 734 C349 773 239 859 177 914 L86 801 C164 754 290 698 365 673 L403 734 Z M342 0 L479 0 C492 117 512 353 525 620 L388 620 L380 197 L376 197 C353 289 339 341 314 432 L241 432 C218 341 208 290 186 197 L182 197 L167 620 L26 620 C39 353 58 117 71 0 L204 0 L271 267 L342 0 Z " />
<glyph glyph-name="wgrave" unicode="&#x1e81;" horiz-adv-x="550" d="M400 620 C346 659 236 745 174 800 L83 687 C161 640 287 584 362 559 L400 620 Z M338 0 L463 0 C478 99 503 312 511 506 L379 506 C379 382 378 296 377 160 L373 160 C357 217 332 294 317 342 L238 342 C224 295 200 220 184 163 L180 163 C178 299 176 383 175 506 L39 506 C46 312 69 99 85 0 L207 0 L270 219 L338 0 Z " />
<glyph glyph-name="Wacute" unicode="&#x1e82;" horiz-adv-x="550" d="M146 736 L180 674 C257 695 391 753 464 807 L364 912 C305 851 204 772 146 736 L146 736 Z M342 0 L479 0 C492 117 512 353 525 620 L388 620 L380 197 L376 197 C353 289 339 341 314 432 L241 432 C218 341 208 290 186 197 L182 197 L167 620 L26 620 C39 353 58 117 71 0 L204 0 L271 267 L342 0 Z " />
<glyph glyph-name="wacute" unicode="&#x1e83;" horiz-adv-x="550" d="M143 622 L177 560 C254 581 388 639 461 693 L361 798 C302 737 201 658 143 622 L143 622 Z M338 0 L463 0 C478 99 503 312 511 506 L379 506 C379 382 378 296 377 160 L373 160 C357 217 332 294 317 342 L238 342 C224 295 200 220 184 163 L180 163 C178 299 176 383 175 506 L39 506 C46 312 69 99 85 0 L207 0 L270 219 L338 0 Z " />
<glyph glyph-name="Wdieresis" unicode="&#x1e84;" horiz-adv-x="550" d="M462 690 L466 835 L322 835 L319 690 L462 690 Z M238 690 L241 835 L97 835 L94 690 L238 690 Z M342 0 L479 0 C492 117 512 353 525 620 L388 620 L380 197 L376 197 C353 289 339 341 314 432 L241 432 C218 341 208 290 186 197 L182 197 L167 620 L26 620 C39 353 58 117 71 0 L204 0 L271 267 L342 0 Z " />
<glyph glyph-name="wdieresis" unicode="&#x1e85;" horiz-adv-x="550" d="M459 576 L463 721 L319 721 L316 576 L459 576 Z M235 576 L238 721 L94 721 L91 576 L235 576 Z M338 0 L463 0 C478 99 503 312 511 506 L379 506 C379 382 378 296 377 160 L373 160 C357 217 332 294 317 342 L238 342 C224 295 200 220 184 163 L180 163 C178 299 176 383 175 506 L39 506 C46 312 69 99 85 0 L207 0 L270 219 L338 0 Z " />
<glyph glyph-name="Ygrave" unicode="&#x1ef2;" horiz-adv-x="550" d="M402 737 C348 776 238 862 176 917 L85 804 C163 757 289 701 364 676 L402 737 Z M350 0 L350 207 L543 620 L392 620 L280 344 L162 623 L7 617 L202 204 L202 0 L350 0 Z " />
<glyph glyph-name="ygrave" unicode="&#x1ef3;" horiz-adv-x="550" d="M406 625 C352 664 242 750 180 805 L89 692 C167 645 293 589 368 564 L406 625 Z M71 -177 C265 -164 323 -116 401 113 C448 248 494 401 524 506 L387 506 L296 164 L286 164 C249 259 201 417 168 511 L23 501 C50 424 164 120 199 36 L229 22 C204 -30 169 -36 60 -50 L71 -177 Z " />
<glyph glyph-name="endash" unicode="&#x2013;" horiz-adv-x="550" d="M490 356 L66 356 L66 249 L478 249 L490 356 Z " />
<glyph glyph-name="emdash" unicode="&#x2014;" horiz-adv-x="550" d="M503 356 L54 356 L54 249 L495 249 L503 356 Z " />
<glyph glyph-name="quoteleft" unicode="&#x2018;" horiz-adv-x="550" d="M385 671 L309 692 C221 616 146 468 200 358 L374 365 C323 466 336 603 385 671 L385 671 Z " />
<glyph glyph-name="quoteright" unicode="&#x2019;" horiz-adv-x="550" d="M176 371 L252 349 C340 425 414 573 361 684 L187 677 C237 575 225 438 176 371 L176 371 Z " />
<glyph glyph-name="quotesinglbase" unicode="&#x201a;" horiz-adv-x="550" d="M167 -137 L243 -158 C331 -78 405 69 350 176 L179 169 C228 73 217 -66 167 -137 L167 -137 Z " />
<glyph glyph-name="quotedblleft" unicode="&#x201c;" horiz-adv-x="550" d="M481 672 L411 692 C328 611 278 463 318 358 L484 365 C444 462 446 601 481 672 L481 672 Z M256 671 L187 692 C100 613 46 466 82 358 L248 364 C212 460 216 600 256 671 L256 671 Z " />
<glyph glyph-name="quotedblright" unicode="&#x201d;" horiz-adv-x="550" d="M73 369 L144 348 C227 430 278 578 237 683 L71 676 C112 579 109 440 73 369 L73 369 Z M301 370 L370 349 C457 427 512 575 476 683 L309 677 C346 581 341 441 301 370 L301 370 Z " />
<glyph glyph-name="quotedblbase" unicode="&#x201e;" horiz-adv-x="550" d="M69 -138 L139 -159 C223 -77 272 71 232 176 L66 169 C106 72 104 -67 69 -138 L69 -138 Z M294 -137 L363 -158 C451 -80 504 68 469 176 L303 170 C338 74 334 -66 294 -137 L294 -137 Z " />
<glyph glyph-name="dagger" unicode="&#x2020;" horiz-adv-x="550" d="M319 144 L338 449 L486 447 L493 559 L342 561 L345 701 L211 702 L211 564 L69 566 L63 453 L211 451 L211 112 L233 102 L319 144 Z " />
<glyph glyph-name="daggerdbl" unicode="&#x2021;" horiz-adv-x="550" d="M320 91 L328 252 L479 250 L486 356 L334 359 L339 455 L486 453 L493 559 L342 561 L345 701 L211 702 L211 564 L69 566 L63 459 L211 457 L212 361 L62 363 L56 256 L212 254 L212 59 L234 49 L320 91 Z " />
<glyph glyph-name="bullet" unicode="&#x2022;" horiz-adv-x="550" d="M433 301 C433 393 367 453 278 453 C190 453 116 391 116 296 C116 204 183 143 271 143 C359 143 433 205 433 301 L433 301 Z " />
<glyph glyph-name="ellipsis" unicode="&#x2026;" horiz-adv-x="550" d="M520 0 L526 175 L395 175 L389 0 L520 0 Z M337 0 L343 175 L212 175 L206 0 L337 0 Z M154 0 L160 175 L29 175 L23 0 L154 0 Z " />
<glyph glyph-name="guilsinglleft" unicode="&#x2039;" horiz-adv-x="550" d="M340 -21 L434 78 L229 254 L441 430 L347 529 L123 321 L114 183 L340 -21 Z " />
<glyph glyph-name="guilsinglright" unicode="&#x203a;" horiz-adv-x="550" d="M204 -21 L428 187 L437 325 L211 529 L117 430 L322 254 L110 78 L204 -21 Z " />
<glyph glyph-name="fraction" unicode="&#x2044;" horiz-adv-x="550" d="M132 -160 L533 712 L413 761 L12 -112 L132 -160 Z " />
<glyph glyph-name="zero.sup" unicode="&#x2070;" horiz-adv-x="550" d="M267 315 C383 315 458 404 458 530 C458 653 395 730 281 730 C166 730 90 641 90 515 C90 392 153 315 267 315 L267 315 Z M271 641 C322 641 347 594 347 515 C347 446 326 405 278 405 C227 405 202 452 202 531 C202 600 222 641 271 641 L271 641 Z " />
<glyph glyph-name="four.sup" unicode="&#x2074;" horiz-adv-x="550" d="M451 392 L459 482 L409 481 L410 601 L306 592 L307 481 L207 482 L275 718 L155 725 C124 612 108 481 113 392 L307 394 L306 325 L410 325 L409 393 L451 392 Z " />
<glyph glyph-name="five.sup" unicode="&#x2075;" horiz-adv-x="550" d="M437 457 C437 512 387 559 236 575 L240 627 L417 627 L426 720 L150 720 L134 503 C274 492 333 478 333 454 C333 428 279 420 124 412 L130 313 C341 323 437 381 437 457 L437 457 Z " />
<glyph glyph-name="six.sup" unicode="&#x2076;" horiz-adv-x="550" d="M274 315 C368 315 446 373 446 457 C446 571 311 602 214 537 C227 586 272 610 398 646 L363 737 C188 688 103 597 103 482 C103 373 172 315 274 315 L274 315 Z M283 401 C243 401 211 427 209 487 C287 514 342 497 342 451 C342 418 319 401 283 401 L283 401 Z " />
<glyph glyph-name="seven.sup" unicode="&#x2077;" horiz-adv-x="550" d="M273 317 C315 423 374 526 445 627 L445 720 L126 720 L117 625 L329 625 L332 620 C258 523 202 429 157 328 L273 317 Z " />
<glyph glyph-name="eight.sup" unicode="&#x2078;" horiz-adv-x="550" d="M267 315 C380 315 445 372 445 433 C445 477 404 507 357 531 C409 554 437 585 437 627 C437 690 369 730 280 730 C169 730 112 670 112 616 C112 573 147 543 190 519 C136 497 106 465 106 421 C106 359 165 315 267 315 L267 315 Z M223 621 C223 637 242 652 275 652 C314 652 332 633 332 610 C332 592 318 574 296 561 C256 580 223 598 223 621 L223 621 Z M275 394 C232 394 213 415 213 439 C213 460 228 477 252 488 C296 468 333 450 333 428 C333 410 311 394 275 394 L275 394 Z " />
<glyph glyph-name="nine.sup" unicode="&#x2079;" horiz-adv-x="550" d="M186 307 C362 356 446 447 446 562 C446 671 376 729 275 729 C181 729 103 671 103 587 C103 473 238 442 335 507 C322 458 276 434 150 398 L186 307 Z M207 593 C207 626 230 644 265 644 C305 644 338 618 340 558 C262 530 207 547 207 593 L207 593 Z " />
<glyph glyph-name="zero.inf" unicode="&#x2080;" horiz-adv-x="550" d="M267 -160 C383 -160 458 -71 458 55 C458 178 395 255 281 255 C166 255 90 166 90 40 C90 -83 153 -160 267 -160 L267 -160 Z M271 166 C322 166 347 119 347 40 C347 -29 326 -70 278 -70 C227 -70 202 -23 202 56 C202 125 222 166 271 166 L271 166 Z " />
<glyph glyph-name="one.inf" unicode="&#x2081;" horiz-adv-x="550" d="M439 -150 L448 -59 L345 -59 L345 259 L238 250 L238 192 L132 181 L135 100 L238 100 L238 -59 L126 -59 L126 -150 L439 -150 Z " />
<glyph glyph-name="two.inf" unicode="&#x2082;" horiz-adv-x="550" d="M435 -150 L435 -57 L263 -57 C368 9 425 65 425 131 C425 200 357 255 133 255 L125 158 C270 152 313 137 313 101 C313 56 242 9 110 -65 L121 -150 L435 -150 Z " />
<glyph glyph-name="three.inf" unicode="&#x2083;" horiz-adv-x="550" d="M131 -162 C356 -159 437 -100 437 -32 C437 13 395 50 286 70 L426 159 L418 245 L132 245 L132 152 L297 154 L297 150 L163 67 L163 13 C277 3 330 -13 330 -32 C330 -52 283 -61 123 -65 L131 -162 Z " />
<glyph glyph-name="four.inf" unicode="&#x2084;" horiz-adv-x="550" d="M451 -83 L459 7 L409 6 L410 126 L306 117 L307 6 L207 7 L275 243 L155 250 C124 137 108 6 113 -83 L307 -81 L306 -150 L410 -150 L409 -82 L451 -83 Z " />
<glyph glyph-name="five.inf" unicode="&#x2085;" horiz-adv-x="550" d="M437 -18 C437 37 387 84 236 100 L240 152 L417 152 L426 245 L150 245 L134 28 C274 17 333 3 333 -21 C333 -47 279 -55 124 -63 L130 -162 C341 -152 437 -94 437 -18 L437 -18 Z " />
<glyph glyph-name="six.inf" unicode="&#x2086;" horiz-adv-x="550" d="M274 -160 C368 -160 446 -102 446 -18 C446 96 311 127 214 62 C227 111 272 135 398 171 L363 262 C188 213 103 122 103 7 C103 -102 172 -160 274 -160 L274 -160 Z M283 -74 C243 -74 211 -48 209 12 C287 39 342 22 342 -24 C342 -57 319 -74 283 -74 L283 -74 Z " />
<glyph glyph-name="seven.inf" unicode="&#x2087;" horiz-adv-x="550" d="M273 -158 C315 -52 374 51 445 152 L445 245 L126 245 L117 150 L329 150 L332 145 C258 48 202 -46 157 -147 L273 -158 Z " />
<glyph glyph-name="eight.inf" unicode="&#x2088;" horiz-adv-x="550" d="M267 -160 C380 -160 445 -103 445 -42 C445 2 404 32 357 56 C409 79 437 110 437 152 C437 215 369 255 280 255 C169 255 112 195 112 141 C112 98 147 68 190 44 C136 22 106 -10 106 -54 C106 -116 165 -160 267 -160 L267 -160 Z M223 146 C223 162 242 177 275 177 C314 177 332 158 332 135 C332 117 318 99 296 86 C256 105 223 123 223 146 L223 146 Z M275 -81 C232 -81 213 -60 213 -36 C213 -15 228 2 252 13 C296 -7 333 -25 333 -47 C333 -65 311 -81 275 -81 L275 -81 Z " />
<glyph glyph-name="nine.inf" unicode="&#x2089;" horiz-adv-x="550" d="M186 -168 C362 -119 446 -28 446 87 C446 196 376 254 275 254 C181 254 103 196 103 112 C103 -2 238 -33 335 32 C322 -17 276 -41 150 -77 L186 -168 Z M207 118 C207 151 230 169 265 169 C305 169 338 143 340 83 C262 55 207 72 207 118 L207 118 Z " />
<glyph glyph-name="colonmonetary" unicode="&#x20a1;" horiz-adv-x="550" d="M177 315 C177 375 209 429 327 457 L302 175 C207 205 177 247 177 315 L177 315 Z M277 -74 L380 -74 L388 29 C409 26 431 23 454 20 L480 140 C450 144 423 148 398 152 L426 472 C451 474 479 475 509 476 L503 601 C481 600 460 599 440 597 L449 693 L346 693 L337 582 C315 577 295 572 277 566 L288 693 L185 693 L171 519 C81 462 48 381 48 298 C48 219 76 160 135 116 L115 -74 L219 -74 L232 67 C249 60 269 54 289 49 L277 -74 Z " />
<glyph glyph-name="naira" unicode="&#x20a6;" horiz-adv-x="550" d="M367 242 L307 377 L371 377 L372 242 L367 242 Z M197 371 L203 371 L267 228 L198 228 L197 371 Z M369 0 L478 0 L478 139 L534 139 L534 250 L478 250 L478 354 L535 354 L535 465 L478 465 L478 620 L369 620 L370 467 L268 467 L200 620 L86 620 L86 465 L28 465 L28 354 L86 354 L86 250 L28 250 L28 139 L86 139 L86 0 L200 0 L199 138 L307 138 L369 0 Z " />
<glyph glyph-name="rupee" unicode="&#x20a8;" horiz-adv-x="550" d="M211 -5 L322 10 L254 274 C287 318 309 376 309 442 C309 566 229 643 47 619 L47 0 L153 0 L146 203 L167 204 L211 -5 Z M529 516 C393 524 329 455 329 377 C329 275 428 194 428 136 C428 111 404 99 337 101 L344 -10 C495 -15 544 57 544 130 C544 230 440 325 440 376 C440 400 461 411 533 406 L529 516 Z " />
<glyph glyph-name="Euro" unicode="&#x20ac;" horiz-adv-x="550" d="M487 93 C348 113 286 139 258 186 L432 186 L436 273 L237 273 C236 286 236 300 236 315 C236 321 236 326 236 331 L440 331 L445 418 L248 418 C270 471 327 490 478 510 L458 645 C238 606 151 529 121 429 L50 429 L50 331 L106 331 C106 325 106 318 106 312 C106 298 106 284 107 270 L51 270 L51 172 L123 172 C157 62 250 -4 470 -22 L487 93 Z " />
<glyph glyph-name="peso" unicode="&#x20b1;" horiz-adv-x="550" d="M214 440 L214 516 C289 523 336 497 353 440 L214 440 Z M214 274 L214 340 L355 340 C341 277 292 262 214 274 L214 274 Z M538 331 L538 444 L485 444 C469 593 334 657 85 620 L85 444 L26 444 L26 331 L85 331 L85 0 L214 0 L214 154 C344 172 443 225 475 331 L538 331 Z " />
<glyph glyph-name="rupeeindia" unicode="&#x20b9;" horiz-adv-x="550" d="M493 60 C367 145 301 187 238 210 C322 235 377 278 399 326 L474 326 L474 421 L407 421 C398 453 380 480 350 501 L476 501 L484 620 L85 620 L77 504 C198 491 251 462 271 421 L79 421 L79 326 L271 326 C252 285 200 258 89 254 L68 152 C191 119 227 96 389 -20 L493 60 Z " />
<glyph glyph-name="ruble" unicode="&#x20bd;" horiz-adv-x="550" d="M381 435 C381 371 344 354 238 352 L238 513 C335 518 381 493 381 435 L381 435 Z M411 99 L421 196 L238 196 L238 254 C415 269 516 328 516 451 C516 597 376 648 102 620 L102 351 L40 351 L40 249 L102 249 L102 201 L40 201 L40 99 L102 99 L102 0 L238 0 L238 99 L411 99 Z " />
<glyph glyph-name="numero" unicode="&#x2116;" horiz-adv-x="550" d="M410 189 C490 189 543 280 543 424 C543 561 502 627 433 627 C353 627 300 536 300 392 C300 255 341 189 410 189 L410 189 Z M195 0 L282 0 L282 620 L169 620 L179 359 L177 359 L107 620 L15 620 L15 0 L128 0 L117 303 L120 303 L195 0 Z M532 63 L532 157 L308 157 L308 63 L532 63 Z " />
<glyph glyph-name="published" unicode="&#x2117;" horiz-adv-x="550" d="M31 306 C31 119 122 7 265 7 C405 7 519 129 519 314 C519 501 412 613 270 613 C129 613 31 491 31 306 L31 306 Z M107 310 C107 463 167 542 268 542 C365 542 443 461 443 310 C443 157 371 78 268 78 C170 78 107 159 107 310 L107 310 Z M270 159 L270 230 C339 247 388 291 388 352 C388 430 324 469 188 451 L188 159 L270 159 Z " />
<glyph glyph-name="servicemark" unicode="&#x2120;" horiz-adv-x="550" d="M377 344 L399 344 L441 477 L443 477 L443 281 L523 281 L523 620 L444 620 L391 462 L388 462 L333 620 L255 620 L255 281 L333 281 L333 477 L335 477 L377 344 Z M27 354 L27 280 C170 275 224 332 224 386 C224 462 109 488 109 525 C109 548 138 554 210 548 L207 622 C74 630 28 565 28 518 C28 444 142 419 142 384 C142 360 106 348 27 354 L27 354 Z " />
<glyph glyph-name="trademark" unicode="&#x2122;" horiz-adv-x="550" d="M168 551 L232 551 L232 620 L17 620 L14 551 L90 551 L90 281 L168 281 L168 551 Z M377 344 L399 344 L441 477 L443 477 L443 281 L523 281 L523 620 L444 620 L391 462 L388 462 L333 620 L255 620 L255 281 L333 281 L333 477 L335 477 L377 344 Z " />
<glyph glyph-name="Omega" unicode="&#x2126;" horiz-adv-x="550" d="M247 7 C212 148 195 261 195 343 C195 450 223 506 276 506 C327 506 355 449 355 339 C355 257 339 145 305 7 L307 0 L507 0 L507 113 L441 113 C477 208 493 295 493 374 C494 526 419 635 281 635 C139 635 59 526 59 370 C59 293 76 206 110 113 L44 113 L44 0 L244 0 L247 7 Z " />
<glyph glyph-name="onethird" unicode="&#x2153;" horiz-adv-x="550" d="M439 425 L448 516 L345 516 L345 834 L238 825 L238 767 L132 756 L135 675 L238 675 L238 516 L126 516 L126 425 L439 425 Z M59 260 L491 260 L491 350 L59 350 L59 260 Z M131 -222 C356 -219 437 -160 437 -92 C437 -47 395 -10 286 10 L426 99 L418 185 L132 185 L132 92 L297 94 L297 90 L163 7 L163 -47 C277 -57 330 -73 330 -92 C330 -112 283 -121 123 -125 L131 -222 Z " />
<glyph glyph-name="twothirds" unicode="&#x2154;" horiz-adv-x="550" d="M435 425 L435 518 L263 518 C368 584 425 640 425 706 C425 775 357 830 133 830 L125 733 C270 727 313 712 313 676 C313 631 242 584 110 510 L121 425 L435 425 Z M59 260 L491 260 L491 350 L59 350 L59 260 Z M131 -222 C356 -219 437 -160 437 -92 C437 -47 395 -10 286 10 L426 99 L418 185 L132 185 L132 92 L297 94 L297 90 L163 7 L163 -47 C277 -57 330 -73 330 -92 C330 -112 283 -121 123 -125 L131 -222 Z " />
<glyph glyph-name="onefifth" unicode="&#x2155;" horiz-adv-x="550" d="M439 425 L448 516 L345 516 L345 834 L238 825 L238 767 L132 756 L135 675 L238 675 L238 516 L126 516 L126 425 L439 425 Z M59 260 L491 260 L491 350 L59 350 L59 260 Z M437 -78 C437 -23 387 24 236 40 L240 92 L417 92 L426 185 L150 185 L134 -32 C274 -43 333 -57 333 -81 C333 -107 279 -115 124 -123 L130 -222 C341 -212 437 -154 437 -78 L437 -78 Z " />
<glyph glyph-name="twofifths" unicode="&#x2156;" horiz-adv-x="550" d="M435 425 L435 518 L263 518 C368 584 425 640 425 706 C425 775 357 830 133 830 L125 733 C270 727 313 712 313 676 C313 631 242 584 110 510 L121 425 L435 425 Z M59 260 L491 260 L491 350 L59 350 L59 260 Z M437 -78 C437 -23 387 24 236 40 L240 92 L417 92 L426 185 L150 185 L134 -32 C274 -43 333 -57 333 -81 C333 -107 279 -115 124 -123 L130 -222 C341 -212 437 -154 437 -78 L437 -78 Z " />
<glyph glyph-name="threefifths" unicode="&#x2157;" horiz-adv-x="550" d="M131 413 C356 416 437 475 437 543 C437 588 395 625 286 645 L426 734 L418 820 L132 820 L132 727 L297 729 L297 725 L163 642 L163 588 C277 578 330 562 330 543 C330 523 283 514 123 510 L131 413 Z M59 260 L491 260 L491 350 L59 350 L59 260 Z M437 -78 C437 -23 387 24 236 40 L240 92 L417 92 L426 185 L150 185 L134 -32 C274 -43 333 -57 333 -81 C333 -107 279 -115 124 -123 L130 -222 C341 -212 437 -154 437 -78 L437 -78 Z " />
<glyph glyph-name="fourfifths" unicode="&#x2158;" horiz-adv-x="550" d="M451 492 L459 582 L409 581 L410 701 L306 692 L307 581 L207 582 L275 818 L155 825 C124 712 108 581 113 492 L307 494 L306 425 L410 425 L409 493 L451 492 Z M59 260 L491 260 L491 350 L59 350 L59 260 Z M437 -78 C437 -23 387 24 236 40 L240 92 L417 92 L426 185 L150 185 L134 -32 C274 -43 333 -57 333 -81 C333 -107 279 -115 124 -123 L130 -222 C341 -212 437 -154 437 -78 L437 -78 Z " />
<glyph glyph-name="onesixth" unicode="&#x2159;" horiz-adv-x="550" d="M439 425 L448 516 L345 516 L345 834 L238 825 L238 767 L132 756 L135 675 L238 675 L238 516 L126 516 L126 425 L439 425 Z M59 260 L491 260 L491 350 L59 350 L59 260 Z M274 -220 C368 -220 446 -162 446 -78 C446 36 311 67 214 2 C227 51 272 75 398 111 L363 202 C188 153 103 62 103 -53 C103 -162 172 -220 274 -220 L274 -220 Z M283 -134 C243 -134 211 -108 209 -48 C287 -21 342 -38 342 -84 C342 -117 319 -134 283 -134 L283 -134 Z " />
<glyph glyph-name="fivesixths" unicode="&#x215a;" horiz-adv-x="550" d="M437 557 C437 612 387 659 236 675 L240 727 L417 727 L426 820 L150 820 L134 603 C274 592 333 578 333 554 C333 528 279 520 124 512 L130 413 C341 423 437 481 437 557 L437 557 Z M59 260 L491 260 L491 350 L59 350 L59 260 Z M274 -220 C368 -220 446 -162 446 -78 C446 36 311 67 214 2 C227 51 272 75 398 111 L363 202 C188 153 103 62 103 -53 C103 -162 172 -220 274 -220 L274 -220 Z M283 -134 C243 -134 211 -108 209 -48 C287 -21 342 -38 342 -84 C342 -117 319 -134 283 -134 L283 -134 Z " />
<glyph glyph-name="oneeighth" unicode="&#x215b;" horiz-adv-x="550" d="M439 425 L448 516 L345 516 L345 834 L238 825 L238 767 L132 756 L135 675 L238 675 L238 516 L126 516 L126 425 L439 425 Z M59 260 L491 260 L491 350 L59 350 L59 260 Z M267 -220 C380 -220 445 -163 445 -102 C445 -58 404 -28 357 -4 C409 19 437 50 437 92 C437 155 369 195 280 195 C169 195 112 135 112 81 C112 38 147 8 190 -16 C136 -38 106 -70 106 -114 C106 -176 165 -220 267 -220 L267 -220 Z M223 86 C223 102 242 117 275 117 C314 117 332 98 332 75 C332 57 318 39 296 26 C256 45 223 63 223 86 L223 86 Z M275 -141 C232 -141 213 -120 213 -96 C213 -75 228 -58 252 -47 C296 -67 333 -85 333 -107 C333 -125 311 -141 275 -141 L275 -141 Z " />
<glyph glyph-name="threeeighths" unicode="&#x215c;" horiz-adv-x="550" d="M131 413 C356 416 437 475 437 543 C437 588 395 625 286 645 L426 734 L418 820 L132 820 L132 727 L297 729 L297 725 L163 642 L163 588 C277 578 330 562 330 543 C330 523 283 514 123 510 L131 413 Z M59 260 L491 260 L491 350 L59 350 L59 260 Z M267 -220 C380 -220 445 -163 445 -102 C445 -58 404 -28 357 -4 C409 19 437 50 437 92 C437 155 369 195 280 195 C169 195 112 135 112 81 C112 38 147 8 190 -16 C136 -38 106 -70 106 -114 C106 -176 165 -220 267 -220 L267 -220 Z M223 86 C223 102 242 117 275 117 C314 117 332 98 332 75 C332 57 318 39 296 26 C256 45 223 63 223 86 L223 86 Z M275 -141 C232 -141 213 -120 213 -96 C213 -75 228 -58 252 -47 C296 -67 333 -85 333 -107 C333 -125 311 -141 275 -141 L275 -141 Z " />
<glyph glyph-name="fiveeighths" unicode="&#x215d;" horiz-adv-x="550" d="M437 557 C437 612 387 659 236 675 L240 727 L417 727 L426 820 L150 820 L134 603 C274 592 333 578 333 554 C333 528 279 520 124 512 L130 413 C341 423 437 481 437 557 L437 557 Z M59 260 L491 260 L491 350 L59 350 L59 260 Z M267 -220 C380 -220 445 -163 445 -102 C445 -58 404 -28 357 -4 C409 19 437 50 437 92 C437 155 369 195 280 195 C169 195 112 135 112 81 C112 38 147 8 190 -16 C136 -38 106 -70 106 -114 C106 -176 165 -220 267 -220 L267 -220 Z M223 86 C223 102 242 117 275 117 C314 117 332 98 332 75 C332 57 318 39 296 26 C256 45 223 63 223 86 L223 86 Z M275 -141 C232 -141 213 -120 213 -96 C213 -75 228 -58 252 -47 C296 -67 333 -85 333 -107 C333 -125 311 -141 275 -141 L275 -141 Z " />
<glyph glyph-name="seveneighths" unicode="&#x215e;" horiz-adv-x="550" d="M273 417 C315 523 374 626 445 727 L445 820 L126 820 L117 725 L329 725 L332 720 C258 623 202 529 157 428 L273 417 Z M59 260 L491 260 L491 350 L59 350 L59 260 Z M267 -220 C380 -220 445 -163 445 -102 C445 -58 404 -28 357 -4 C409 19 437 50 437 92 C437 155 369 195 280 195 C169 195 112 135 112 81 C112 38 147 8 190 -16 C136 -38 106 -70 106 -114 C106 -176 165 -220 267 -220 L267 -220 Z M223 86 C223 102 242 117 275 117 C314 117 332 98 332 75 C332 57 318 39 296 26 C256 45 223 63 223 86 L223 86 Z M275 -141 C232 -141 213 -120 213 -96 C213 -75 228 -58 252 -47 C296 -67 333 -85 333 -107 C333 -125 311 -141 275 -141 L275 -141 Z " />
<glyph glyph-name="minus" unicode="&#x2212;" horiz-adv-x="550" d="M485 362 L65 362 L65 243 L485 243 L485 362 Z " />
<glyph glyph-name="approxequal" unicode="&#x2248;" horiz-adv-x="550" d="M357 318 C425 318 464 374 503 483 L420 518 C397 469 380 438 361 438 C325 438 276 522 198 522 C127 522 78 459 39 348 L120 313 C145 367 165 401 186 401 C225 401 278 318 357 318 L357 318 Z M357 89 C425 89 464 146 503 255 L422 290 C398 241 381 210 361 210 C325 210 276 293 199 293 C127 293 78 230 39 120 L122 86 C147 139 166 173 187 173 C225 173 278 89 357 89 L357 89 Z " />
<glyph glyph-name="notequal" unicode="&#x2260;" horiz-adv-x="550" d="M485 137 L485 256 L318 256 L353 355 L485 355 L485 474 L396 474 L436 585 L329 617 L277 474 L65 474 L65 355 L235 355 L199 256 L65 256 L65 137 L156 137 L116 26 L224 -5 L275 137 L485 137 Z " />
<glyph glyph-name="lessequal" unicode="&#x2264;" horiz-adv-x="550" d="M216 382 L473 519 L418 625 L69 424 L67 319 L428 153 L473 263 L216 375 L216 382 Z M488 118 L63 118 L63 -1 L488 -1 L488 118 Z " />
<glyph glyph-name="greaterequal" unicode="&#x2265;" horiz-adv-x="550" d="M335 382 L335 375 L78 263 L123 153 L484 319 L482 424 L133 625 L78 519 L335 382 Z M63 118 L63 -1 L488 -1 L488 118 L63 118 Z " />
<glyph glyph-name="hcoslug" unicode="&#xe10b;" horiz-adv-x="550" d="M500 700 L50 700 L50 -100 L500 -100 L500 700 Z M200 296 C200 279 211 268 228 252 C237 265 242 277 242 289 C242 307 233 318 220 318 C208 318 200 309 200 296 L200 296 Z M249 232 C261 220 270 208 279 197 C294 222 297 240 280 257 C273 250 263 241 249 232 L249 232 Z M210 139 C222 139 231 142 239 148 C218 175 197 197 183 210 C175 202 171 191 171 180 C171 157 188 139 210 139 L210 139 Z M301 173 C320 151 333 142 348 142 C363 142 372 151 380 164 L385 163 C384 119 357 92 325 92 C303 92 286 100 261 126 C240 103 215 92 183 92 C138 92 102 122 102 162 C102 193 123 217 163 230 C147 247 140 260 140 282 C140 314 171 346 222 346 C268 346 293 316 293 290 C293 280 291 272 286 265 C306 265 321 257 323 237 C335 255 349 265 368 265 C389 265 405 250 405 226 C405 203 389 186 368 186 C354 186 342 193 336 205 C324 198 312 188 301 173 L301 173 Z M229 68 L229 60 L239 60 L239 55 L229 55 L229 40 C229 37 230 36 232 36 C234 36 235 37 236 41 L240 40 C238 33 235 30 229 30 C223 30 220 34 220 40 L220 55 L215 55 L215 60 L220 60 L220 67 L229 68 Z M145 46 C145 55 152 61 161 61 C170 61 177 55 177 46 C177 37 170 30 161 30 C152 30 145 36 145 46 L145 46 Z M167 46 C167 54 165 57 161 57 C157 57 155 54 155 46 C155 37 157 34 161 34 C165 34 167 37 167 46 L167 46 Z M299 45 C299 51 297 55 294 55 C289 55 288 50 288 45 C288 39 289 35 294 35 C297 35 299 39 299 45 L299 45 Z M179 36 L183 36 L183 55 L179 55 L179 60 L192 60 L192 54 C194 58 197 61 202 61 C209 61 211 56 211 50 L211 36 L216 36 L216 31 L199 31 L199 36 L202 36 L202 49 C202 52 201 55 198 55 C195 55 192 52 192 47 L192 36 L195 36 L195 31 L179 31 L179 36 Z M108 36 L114 36 L114 67 L108 67 L108 72 L146 72 L146 57 L141 57 C139 65 138 67 132 67 L124 67 L124 53 L127 53 C131 53 131 54 132 59 L137 59 L137 42 L132 42 C131 47 131 48 127 48 L124 48 L124 36 L131 36 L131 31 L108 31 L108 36 Z M241 41 L246 41 C249 37 252 34 255 34 C258 34 259 36 259 37 C259 44 241 40 241 52 C241 56 245 61 252 61 C255 61 258 60 260 57 L261 61 L266 61 L266 51 L261 51 C258 55 256 56 253 56 C251 56 249 55 249 53 C249 48 267 50 267 39 C267 34 264 30 257 30 C252 30 249 32 247 34 L246 31 L241 31 L241 41 Z M279 69 L274 69 L274 74 L288 74 L288 54 C289 58 293 61 297 61 C304 61 309 55 309 46 C309 39 306 30 297 30 C291 30 288 32 286 36 L283 30 L279 30 L279 69 Z M318 24 C321 24 324 26 324 30 C321 37 312 55 312 55 L309 55 L309 60 L327 60 L327 55 L323 55 L330 40 L336 55 L332 55 L332 60 L345 60 L345 55 L341 55 L331 31 C328 24 324 19 318 19 C312 19 309 22 309 26 C309 29 311 31 314 31 C319 31 320 26 318 24 L318 24 Z M363 0 L363 -6 L359 -6 C357 -10 355 -13 352 -16 C354 -18 356 -20 357 -20 C358 -20 359 -19 360 -16 L363 -17 C362 -22 360 -26 354 -26 C350 -26 348 -24 345 -21 C342 -24 338 -26 332 -26 C325 -26 320 -22 320 -16 C320 -10 324 -7 330 -5 C327 -2 325 1 325 5 C325 10 329 16 338 16 C344 16 348 12 348 7 C348 2 345 0 340 -3 C342 -5 346 -10 349 -13 C351 -11 353 -8 354 -6 L349 -6 L349 0 L363 0 Z M235 4 L246 4 L246 8 C243 8 241 10 241 12 C241 14 242 15 242 15 C242 15 241 16 239 16 C237 16 235 14 235 8 L235 4 Z M367 -5 C367 10 376 18 387 18 C392 18 396 16 399 13 L399 17 L405 17 L405 1 L399 1 C396 10 394 13 388 13 C382 13 378 8 378 -4 C378 -15 382 -21 390 -21 C396 -21 399 -15 400 -9 L406 -9 C405 -19 399 -26 388 -26 C375 -26 367 -19 367 -5 L367 -5 Z M338 -1 C340 0 342 3 342 6 C342 9 340 11 337 11 C335 11 333 10 333 7 C333 5 335 2 338 -1 L338 -1 Z M270 -12 C270 -18 272 -21 277 -21 C281 -21 283 -19 284 -15 L289 -15 C288 -21 284 -26 276 -26 C266 -26 260 -20 260 -11 C260 -1 267 5 275 5 C286 5 290 -2 289 -12 L270 -12 Z M200 -12 C200 -18 202 -21 207 -21 C211 -21 213 -19 214 -15 L219 -15 C218 -21 214 -26 206 -26 C196 -26 190 -20 190 -11 C190 -1 197 5 205 5 C216 5 220 -2 219 -12 L200 -12 Z M156 -10 C156 -1 163 5 172 5 C181 5 188 -1 188 -10 C188 -19 181 -26 172 -26 C163 -26 156 -20 156 -10 L156 -10 Z M408 -10 C408 -1 415 5 424 5 C433 5 440 -1 440 -10 C440 -19 433 -26 424 -26 C415 -26 408 -20 408 -10 L408 -10 Z M270 -8 L280 -8 C280 -2 279 1 275 1 C272 1 270 -1 270 -8 L270 -8 Z M200 -8 L210 -8 C210 -2 209 1 205 1 C202 1 200 -1 200 -8 L200 -8 Z M178 -10 C178 -2 176 1 172 1 C168 1 166 -2 166 -10 C166 -19 168 -22 172 -22 C176 -22 178 -19 178 -10 L178 -10 Z M430 -10 C430 -2 428 1 424 1 C420 1 418 -2 418 -10 C418 -19 420 -22 424 -22 C428 -22 430 -19 430 -10 L430 -10 Z M222 -20 L226 -20 L226 -1 L221 -1 L221 4 L226 4 L226 5 C226 15 233 19 239 19 C243 19 245 18 247 17 L255 19 L255 -20 L259 -20 L259 -25 L242 -25 L242 -20 L246 -20 L246 -1 L235 -1 L235 -20 L239 -20 L239 -25 L222 -25 L222 -20 Z M291 -20 L295 -20 L295 -1 L291 -1 L291 4 L304 4 L304 -2 C306 3 309 5 313 5 C317 5 319 3 319 -1 C319 -4 317 -6 314 -6 C312 -6 309 -5 309 -2 L309 -1 C308 -1 305 -4 304 -8 L304 -20 L310 -20 L310 -25 L291 -25 L291 -20 Z M108 -20 L114 -20 L114 11 L108 11 L108 16 L129 16 L129 11 L124 11 L124 -1 L140 -1 L140 11 L135 11 L135 16 L156 16 L156 11 L150 11 L150 -20 L156 -20 L156 -25 L135 -25 L135 -20 L140 -20 L140 -6 L124 -6 L124 -20 L129 -20 L129 -25 L108 -25 L108 -20 Z M342 -18 C340 -16 336 -11 332 -7 C330 -9 329 -11 329 -14 C329 -18 332 -21 336 -21 C338 -21 340 -20 342 -18 L342 -18 Z M453 -20 C453 -23 451 -26 447 -26 C443 -26 441 -23 441 -20 C441 -17 443 -14 447 -14 C451 -14 453 -17 453 -20 L453 -20 Z " />
<glyph glyph-name="check.1" unicode="&#xe10c;" horiz-adv-x="550" d="M530 651 L387 694 C339 548 295 369 261 169 L254 169 L164 384 L42 332 L200 -18 L323 -12 C382 230 450 448 530 651 L530 651 Z " />
<glyph glyph-name="check.2" unicode="&#xe10d;" horiz-adv-x="550" d="M323 -13 L459 17 L326 273 L518 648 L380 697 L254 383 L185 535 L54 489 L178 254 L66 12 L158 -18 L247 156 L323 -13 Z " />
</font>
</svg>
