<?xml version="1.0" encoding="UTF-8"?>
<!-- Generator: Adobe Illustrator 21.0.0, SVG Export Plug-In . SVG Version: 6.00 Build 0)  -->
<svg
		version="1.1" id="Layer_1"
     	xmlns="http://www.w3.org/2000/svg" xmlns:xlink="http://www.w3.org/1999/xlink"
     	x="0px"
		y="0px"
	 	viewBox="-5 -5 116.1 37.9"
	 	style="enable-background:new -5 -5 116.1 37.9;"
	 	xml:space="preserve"
>
<style type="text/css">
	.st0{fill:#383838;}
</style>
<g>
	<g>
		<path class="st0" d="M0,12.2V0.3h2.3V10h5.3v2.2H0z"/>
		<path class="st0" d="M17.7,9.5h-4.9l-1,2.7H9.4l4.6-11.9h2.7l4.6,11.9h-2.5L17.7,9.5z M13.6,7.3h3.3l-1.7-4.5L13.6,7.3z"/>
		<path class="st0" d="M28.8,3.7c0-0.2-0.1-0.4-0.2-0.5c-0.1-0.2-0.2-0.4-0.4-0.5c-0.2-0.2-0.4-0.3-0.6-0.4c-0.3-0.1-0.6-0.2-1-0.2    c-0.3,0-0.5,0-0.8,0.1c-0.2,0.1-0.4,0.2-0.6,0.3C25.1,2.7,25,2.8,24.9,3c-0.1,0.2-0.1,0.4-0.1,0.6c0,0.3,0.1,0.6,0.3,0.9    c0.2,0.2,0.5,0.4,1,0.5l1.7,0.3c0.5,0.1,1,0.3,1.4,0.5c0.4,0.2,0.8,0.5,1,0.8c0.3,0.3,0.5,0.7,0.6,1C31,8,31.1,8.3,31.1,8.8    c0,0.5-0.1,0.9-0.3,1.4c-0.2,0.4-0.5,0.8-0.8,1.2c-0.4,0.3-0.8,0.6-1.3,0.8c-0.5,0.2-1.1,0.3-1.8,0.3c-0.8,0-1.5-0.1-2.1-0.3    c-0.6-0.2-1.1-0.5-1.4-0.9s-0.7-0.8-0.9-1.2c-0.2-0.4-0.3-0.9-0.4-1.3l2.2-0.6c0,0.3,0.1,0.6,0.2,0.8c0.1,0.3,0.3,0.5,0.5,0.7    c0.2,0.2,0.5,0.4,0.8,0.5c0.3,0.1,0.7,0.2,1.1,0.2c0.6,0,1.1-0.1,1.4-0.4c0.3-0.3,0.5-0.6,0.5-1.1c0-0.3-0.1-0.6-0.4-0.9    c-0.2-0.3-0.6-0.4-1.1-0.5l-1.7-0.3c-1-0.2-1.7-0.6-2.3-1.2c-0.6-0.6-0.9-1.3-0.9-2.2c0-0.5,0.1-1,0.3-1.5    c0.2-0.5,0.5-0.9,0.9-1.2c0.4-0.3,0.8-0.6,1.3-0.8c0.5-0.2,1-0.3,1.6-0.3c0.7,0,1.3,0.1,1.8,0.3C29,0.5,29.4,0.7,29.8,1    c0.3,0.3,0.6,0.6,0.8,1s0.3,0.7,0.4,1.1L28.8,3.7z"/>
		<path class="st0" d="M36,0.3h2.7L41.4,5l2.7-4.7h2.6l-4.2,6.9v5h-2.3v-5L36,0.3z"/>
		<path class="st0" d="M53,12.5c-0.6,0-1.2-0.1-1.8-0.3c-0.6-0.2-1-0.5-1.4-0.9c-0.4-0.4-0.7-0.9-1-1.4c-0.2-0.6-0.4-1.2-0.4-1.9    V0.3h2.3v7.6c0,0.8,0.2,1.4,0.6,1.8c0.4,0.4,1,0.6,1.7,0.6c0.7,0,1.3-0.2,1.7-0.6c0.4-0.4,0.6-1,0.6-1.8V0.3h2.3V8    c0,0.7-0.1,1.4-0.4,1.9c-0.2,0.6-0.6,1-1,1.4c-0.4,0.4-0.9,0.7-1.5,0.9C54.2,12.4,53.6,12.5,53,12.5z"/>
		<path class="st0" d="M67.6,12.2l-5.4-8.5v8.5h-2.3V0.3h2.9l5,7.9V0.3H70v11.9H67.6z"/>
		<path class="st0" d="M81.4,12.2l-0.2-1.4c-0.1,0.2-0.3,0.4-0.5,0.6c-0.2,0.2-0.5,0.4-0.8,0.5c-0.3,0.2-0.6,0.3-1,0.4    c-0.4,0.1-0.8,0.1-1.2,0.1c-0.8,0-1.6-0.1-2.3-0.4c-0.7-0.3-1.4-0.7-1.9-1.2c-0.5-0.5-1-1.2-1.3-2c-0.3-0.8-0.5-1.6-0.5-2.6    s0.2-1.8,0.5-2.6c0.3-0.8,0.8-1.4,1.3-2c0.6-0.5,1.2-1,2-1.2C76.3,0.1,77,0,77.8,0c0.8,0,1.5,0.1,2.1,0.3c0.6,0.2,1.1,0.5,1.6,0.8    c0.4,0.3,0.8,0.7,1.1,1.2c0.3,0.4,0.5,0.9,0.7,1.3l-2.2,0.8c-0.1-0.3-0.2-0.5-0.4-0.8c-0.2-0.3-0.4-0.5-0.6-0.7    c-0.3-0.2-0.6-0.4-1-0.5c-0.4-0.1-0.8-0.2-1.3-0.2c-0.4,0-0.9,0.1-1.3,0.2c-0.4,0.2-0.9,0.4-1.2,0.7c-0.4,0.3-0.6,0.8-0.9,1.3    c-0.2,0.5-0.3,1.1-0.3,1.8c0,0.7,0.1,1.3,0.3,1.8c0.2,0.5,0.5,0.9,0.8,1.3c0.3,0.3,0.7,0.6,1.2,0.8c0.5,0.2,0.9,0.3,1.4,0.3    c0.6,0,1-0.1,1.4-0.2c0.4-0.2,0.7-0.4,1-0.6s0.4-0.5,0.6-0.8C80.9,8.5,81,8.2,81.1,8h-3.8V6h6v6.2H81.4z"/>
		<path class="st0" d="M93,9.5h-4.9l-1,2.7h-2.5l4.6-11.9H92l4.6,11.9H94L93,9.5z M89,7.3h3.3l-1.7-4.5L89,7.3z"/>
		<path class="st0" d="M103.9,3.7c0-0.2-0.1-0.4-0.2-0.5c-0.1-0.2-0.2-0.4-0.4-0.5c-0.2-0.2-0.4-0.3-0.6-0.4c-0.3-0.1-0.6-0.2-1-0.2    c-0.3,0-0.5,0-0.8,0.1c-0.2,0.1-0.4,0.2-0.6,0.3c-0.2,0.1-0.3,0.3-0.4,0.5c-0.1,0.2-0.1,0.4-0.1,0.6c0,0.3,0.1,0.6,0.3,0.9    c0.2,0.2,0.5,0.4,1,0.5l1.7,0.3c0.5,0.1,1,0.3,1.4,0.5c0.4,0.2,0.8,0.5,1,0.8c0.3,0.3,0.5,0.7,0.6,1c0.1,0.4,0.2,0.8,0.2,1.2    c0,0.5-0.1,0.9-0.3,1.4c-0.2,0.4-0.5,0.8-0.8,1.2c-0.4,0.3-0.8,0.6-1.3,0.8c-0.5,0.2-1.1,0.3-1.8,0.3c-0.8,0-1.5-0.1-2.1-0.3    c-0.6-0.2-1.1-0.5-1.4-0.9c-0.4-0.4-0.7-0.8-0.9-1.2c-0.2-0.4-0.3-0.9-0.4-1.3l2.2-0.6c0,0.3,0.1,0.6,0.2,0.8    c0.1,0.3,0.3,0.5,0.5,0.7c0.2,0.2,0.5,0.4,0.8,0.5c0.3,0.1,0.7,0.2,1.1,0.2c0.6,0,1.1-0.1,1.4-0.4c0.3-0.3,0.5-0.6,0.5-1.1    c0-0.3-0.1-0.6-0.4-0.9c-0.2-0.3-0.6-0.4-1.1-0.5l-1.7-0.3c-1-0.2-1.7-0.6-2.3-1.2c-0.6-0.6-0.9-1.3-0.9-2.2c0-0.5,0.1-1,0.3-1.5    c0.2-0.5,0.5-0.9,0.9-1.2c0.4-0.3,0.8-0.6,1.3-0.8c0.5-0.2,1-0.3,1.6-0.3c0.7,0,1.3,0.1,1.8,0.3c0.5,0.2,0.9,0.4,1.3,0.7    s0.6,0.6,0.8,1s0.3,0.7,0.4,1.1L103.9,3.7z"/>
	</g>
	<g>
		<path class="st0" d="M22.9,21.8c0-0.1,0.1-0.1,0.1-0.1c0,0,0.1,0,0.2,0c0.1,0,0.2,0,0.2,0.1c0,0,0.1,0.1,0.1,0.3    c0,0.3,0,0.5,0,0.7c0,0.2,0,0.3,0,0.3c0,0.1,0,0.2-0.1,0.2c0,0-0.1,0.1-0.2,0.1c-0.2,0-0.3-0.1-0.3-0.4c0-0.1,0-0.1,0-0.2    c0-0.2-0.2-0.4-0.4-0.5s-0.4-0.2-0.7-0.2c-0.5,0-0.8,0.2-1.1,0.5c-0.3,0.3-0.4,0.8-0.4,1.3s0.1,1,0.4,1.3c0.3,0.3,0.7,0.5,1.1,0.5    c0.2,0,0.3,0,0.5-0.1c0.2,0,0.3-0.1,0.5-0.2c0.1,0,0.2-0.1,0.3-0.2c0.1-0.1,0.2-0.1,0.3-0.1c0.1,0,0.1,0,0.2,0.1s0.1,0.1,0.1,0.2    c0,0.1,0,0.2-0.1,0.2c-0.1,0.1-0.2,0.2-0.3,0.3c-0.2,0.1-0.4,0.2-0.7,0.3c-0.2,0.1-0.5,0.1-0.7,0.1c-0.6,0-1.2-0.2-1.6-0.7    s-0.6-1-0.6-1.7c0-0.7,0.2-1.3,0.6-1.7c0.4-0.5,1-0.7,1.6-0.7c0.2,0,0.3,0,0.5,0.1C22.5,21.7,22.7,21.8,22.9,21.8z"/>
		<path class="st0" d="M28.5,24.5c0,0.6-0.2,1-0.6,1.4c-0.4,0.4-0.9,0.5-1.5,0.5c-0.6,0-1.1-0.2-1.5-0.5c-0.4-0.4-0.6-0.8-0.6-1.4    s0.2-1,0.6-1.4s0.9-0.5,1.5-0.5s1.1,0.2,1.5,0.5C28.3,23.5,28.5,24,28.5,24.5z M26.5,25.9c0.4,0,0.7-0.1,1-0.4    c0.3-0.3,0.4-0.6,0.4-1c0-0.4-0.1-0.7-0.4-1c-0.3-0.3-0.6-0.4-1-0.4c-0.4,0-0.7,0.1-1,0.4c-0.3,0.3-0.4,0.6-0.4,1    c0,0.4,0.1,0.7,0.4,1C25.7,25.7,26.1,25.9,26.5,25.9z"/>
		<path class="st0" d="M30.3,24.9c0,0.3,0.1,0.6,0.2,0.7c0.1,0.1,0.4,0.2,0.7,0.2c0.3,0,0.5-0.1,0.7-0.3s0.3-0.4,0.3-0.7v-1.6h-0.5    c-0.1,0-0.2,0-0.2-0.1c0,0-0.1-0.1-0.1-0.2c0-0.1,0-0.2,0.1-0.2c0,0,0.1-0.1,0.2-0.1h0.8c0.1,0,0.2,0,0.2,0.1c0,0,0.1,0.1,0.1,0.3    v2.7h0.2c0.1,0,0.2,0,0.3,0.1c0.1,0,0.1,0.1,0.1,0.2c0,0.1,0,0.2-0.1,0.2c-0.1,0-0.1,0.1-0.2,0.1h-0.6c-0.1,0-0.1,0-0.2,0    c0,0-0.1-0.1-0.1-0.1v-0.3c-0.2,0.2-0.5,0.3-0.6,0.4c-0.2,0.1-0.4,0.1-0.6,0.1c-0.4,0-0.7-0.1-1-0.3c-0.2-0.2-0.3-0.6-0.3-1v-1.7    h-0.1c-0.2,0-0.3,0-0.4-0.1c-0.1,0-0.1-0.1-0.1-0.2c0-0.1,0-0.2,0.1-0.2c0.1,0,0.1-0.1,0.2-0.1H30c0.1,0,0.2,0,0.2,0.1    c0,0,0.1,0.1,0.1,0.2V24.9z"/>
		<path class="st0" d="M34.6,25.8v-2.5h-0.1c-0.2,0-0.3,0-0.4-0.1C34,23.2,34,23.1,34,23c0-0.1,0-0.2,0.1-0.2c0.1,0,0.1-0.1,0.3-0.1    h0.2h0.4c0.1,0,0.1,0,0.2,0c0,0,0.1,0.1,0.1,0.1v0.3c0.2-0.2,0.4-0.3,0.6-0.4c0.2-0.1,0.4-0.1,0.6-0.1c0.4,0,0.7,0.1,0.9,0.4    c0.2,0.2,0.3,0.6,0.3,1v1.8h0.2c0.1,0,0.2,0,0.3,0.1c0.1,0,0.1,0.1,0.1,0.2c0,0.1,0,0.2-0.1,0.2c-0.1,0-0.2,0.1-0.3,0.1h-0.9    c-0.2,0-0.3,0-0.3-0.1c0,0-0.1-0.1-0.1-0.2c0-0.1,0-0.2,0.1-0.2s0.2-0.1,0.3-0.1h0.1v-1.6c0-0.3-0.1-0.5-0.2-0.7    c-0.1-0.2-0.3-0.2-0.6-0.2c-0.3,0-0.5,0.1-0.7,0.3c-0.2,0.2-0.3,0.4-0.3,0.7v1.6h0.1c0.2,0,0.3,0,0.3,0.1c0.1,0,0.1,0.1,0.1,0.2    c0,0.1,0,0.2-0.1,0.2c0,0-0.2,0.1-0.3,0.1h-0.7h-0.2c-0.1,0-0.2,0-0.2-0.1c-0.1,0-0.1-0.1-0.1-0.2c0-0.1,0-0.2,0.1-0.2    C34.2,25.8,34.3,25.8,34.6,25.8L34.6,25.8z"/>
		<path class="st0" d="M41.8,22.9c0.1,0,0.2,0,0.3,0.1c0.1,0,0.1,0.1,0.1,0.2c0,0.1,0,0.2-0.1,0.2c-0.1,0-0.1,0.1-0.2,0.1h-1.6v1.3    c0,0.4,0.1,0.7,0.2,0.8c0.1,0.1,0.3,0.2,0.6,0.2c0.2,0,0.5-0.1,0.8-0.2c0.3-0.1,0.5-0.2,0.6-0.2c0.1,0,0.1,0,0.2,0.1    c0.1,0.1,0.1,0.1,0.1,0.2c0,0.1,0,0.2-0.1,0.2c-0.1,0.1-0.2,0.1-0.3,0.2c-0.3,0.1-0.5,0.2-0.7,0.2c-0.2,0-0.4,0.1-0.6,0.1    c-0.3,0-0.6,0-0.8-0.1c-0.2-0.1-0.4-0.2-0.5-0.4c-0.1-0.1-0.1-0.2-0.1-0.3c0-0.1,0-0.3,0-0.6v-0.1v-1.3H39c-0.1,0-0.2,0-0.2-0.1    c0,0-0.1-0.1-0.1-0.2c0-0.1,0-0.2,0.1-0.2c0.1,0,0.2-0.1,0.4-0.1h0.4v-0.8v-0.2c0-0.1,0-0.2,0.1-0.2c0-0.1,0.1-0.1,0.2-0.1    c0.1,0,0.2,0,0.2,0.1c0,0.1,0.1,0.2,0.1,0.4v0.8H41.8z"/>
		<path class="st0" d="M45.2,25.8h1.3c0.1,0,0.2,0,0.2,0.1c0,0,0.1,0.1,0.1,0.2c0,0.1,0,0.2-0.1,0.2c0,0-0.1,0.1-0.3,0.1h-2.5    c-0.1,0-0.2,0-0.2-0.1c-0.1,0-0.1-0.1-0.1-0.2c0-0.1,0-0.2,0.1-0.2c0.1,0,0.1-0.1,0.2-0.1h0.7v-2.5h-0.3c-0.3,0-0.4,0-0.5-0.1    c-0.1,0-0.1-0.1-0.1-0.2c0-0.1,0-0.2,0.1-0.2c0.1,0,0.1-0.1,0.2-0.1h0.9c0.1,0,0.1,0,0.2,0c0,0,0.1,0.1,0.1,0.1v0.7    c0.2-0.3,0.5-0.5,0.8-0.7c0.3-0.1,0.6-0.2,0.9-0.2c0.2,0,0.4,0,0.6,0.1c0.1,0.1,0.2,0.2,0.2,0.4c0,0.1,0,0.2-0.1,0.3    c-0.1,0.1-0.1,0.1-0.2,0.1c-0.1,0-0.2,0-0.3-0.1c-0.1-0.1-0.3-0.1-0.4-0.1c-0.2,0-0.4,0.1-0.6,0.2c-0.2,0.1-0.5,0.4-0.7,0.7V25.8z    "/>
		<path class="st0" d="M50,27.3h0.2c0.2,0,0.3,0,0.4,0.1c0.1,0,0.1,0.1,0.1,0.2c0,0.1,0,0.2-0.1,0.2c-0.1,0-0.1,0.1-0.2,0.1h-1.8    c-0.1,0-0.2,0-0.3-0.1s-0.1-0.1-0.1-0.2c0-0.1,0-0.2,0.1-0.2c0.1,0,0.1-0.1,0.2-0.1h0.8l0.6-1.2l-1.4-2.8c-0.2,0-0.3,0-0.4-0.1    c-0.1,0-0.1-0.1-0.1-0.2c0-0.1,0-0.2,0.1-0.2s0.1-0.1,0.2-0.1h1.1c0.1,0,0.2,0,0.3,0.1c0,0,0.1,0.1,0.1,0.2c0,0.1,0,0.2-0.1,0.2    c-0.1,0-0.2,0.1-0.4,0.1h-0.1l1.1,2.1l1.1-2.1h-0.2c-0.2,0-0.3,0-0.4-0.1c-0.1,0-0.1-0.1-0.1-0.2c0-0.1,0-0.2,0.1-0.2    c0,0,0.1-0.1,0.3-0.1h1c0.1,0,0.2,0,0.2,0.1c0.1,0,0.1,0.1,0.1,0.2c0,0.1,0,0.2-0.1,0.2c-0.1,0-0.2,0.1-0.3,0.1L50,27.3z"/>
		<path class="st0" d="M60.5,25.9c-0.2,0.2-0.4,0.3-0.5,0.3c-0.2,0.1-0.4,0.1-0.6,0.1c-0.3,0-0.6-0.1-0.9-0.4    c-0.2-0.2-0.3-0.5-0.3-0.9c0-0.2,0.1-0.5,0.2-0.7c0.1-0.2,0.3-0.4,0.6-0.6c-0.1-0.2-0.2-0.3-0.3-0.5c-0.1-0.1-0.1-0.3-0.1-0.4    c0-0.3,0.1-0.5,0.3-0.7c0.2-0.2,0.4-0.3,0.7-0.3c0.1,0,0.2,0,0.3,0.1c0.1,0,0.2,0.1,0.4,0.2c0,0,0,0,0,0c0,0,0,0,0.1,0    c0.1,0,0.1,0,0.2,0.1c0,0,0.1,0.1,0.1,0.2c0,0.1,0,0.2-0.1,0.2c-0.1,0.1-0.1,0.1-0.2,0.1c0,0-0.1,0-0.3-0.1    c-0.2-0.1-0.3-0.1-0.4-0.1c-0.1,0-0.2,0-0.3,0.1c-0.1,0.1-0.1,0.2-0.1,0.3c0,0.1,0,0.2,0.1,0.3c0,0.1,0.1,0.2,0.3,0.4l1,1.3    c0-0.1,0.1-0.3,0.2-0.5c0.1-0.3,0.2-0.4,0.3-0.4h0.2c0.1,0,0.1,0,0.1,0.1c0,0.1,0.1,0.1,0.1,0.2c0,0.1,0,0.2-0.1,0.2    c0,0-0.1,0.1-0.2,0.1c0,0.1-0.1,0.3-0.1,0.4c0,0.1-0.1,0.3-0.2,0.4l0.2,0.3h0.1c0,0,0.1,0,0.1,0.1c0,0,0,0.1,0,0.2    c0,0.1,0,0.2-0.1,0.2c0,0.1-0.1,0.1-0.1,0.1h-0.3c-0.1,0-0.1-0.1-0.2-0.2c0,0,0,0,0,0L60.5,25.9z M60.2,25.5l-0.9-1.2    c-0.2,0.1-0.3,0.2-0.3,0.3c-0.1,0.1-0.1,0.3-0.1,0.4c0,0.2,0.1,0.4,0.2,0.5c0.1,0.1,0.3,0.2,0.5,0.2c0.1,0,0.2,0,0.3-0.1    C60,25.7,60.1,25.6,60.2,25.5z"/>
		<path class="st0" d="M70.6,25.6v-0.9h-1c-0.1,0-0.1,0-0.2-0.1c0,0-0.1-0.1-0.1-0.2c0-0.1,0-0.2,0.1-0.2c0,0,0.1-0.1,0.2-0.1h1.7    c0.1,0,0.1,0,0.1,0.1c0,0,0,0.1,0,0.2c0,0.1,0,0.2-0.1,0.2c0,0-0.1,0.1-0.2,0.1h-0.1v1.1v0.1c0,0.1,0,0.1,0,0.1c0,0,0,0.1-0.1,0.1    c-0.1,0.1-0.4,0.2-0.6,0.2c-0.3,0.1-0.6,0.1-0.9,0.1c-0.7,0-1.3-0.2-1.7-0.7c-0.4-0.4-0.6-1-0.6-1.7s0.2-1.3,0.6-1.8    c0.4-0.5,0.9-0.7,1.6-0.7c0.2,0,0.4,0,0.5,0.1c0.2,0,0.4,0.1,0.6,0.2c0-0.1,0.1-0.1,0.1-0.1c0,0,0.1,0,0.2,0c0.1,0,0.2,0,0.2,0.1    c0,0.1,0.1,0.2,0.1,0.5v0.5c0,0.1,0,0.2-0.1,0.3c0,0.1-0.1,0.1-0.2,0.1c-0.1,0-0.2-0.1-0.3-0.2c0,0,0-0.1-0.1-0.1    c-0.1-0.2-0.2-0.4-0.4-0.5c-0.2-0.1-0.4-0.2-0.6-0.2c-0.5,0-0.8,0.2-1.1,0.5C68.1,22.9,68,23.4,68,24c0,0.6,0.2,1.1,0.5,1.4    c0.3,0.3,0.7,0.5,1.2,0.5c0.1,0,0.3,0,0.5-0.1C70.2,25.8,70.4,25.7,70.6,25.6z"/>
		<path class="st0" d="M76.2,24.5c0,0.6-0.2,1-0.6,1.4c-0.4,0.4-0.9,0.5-1.5,0.5c-0.6,0-1.1-0.2-1.5-0.5c-0.4-0.4-0.6-0.8-0.6-1.4    s0.2-1,0.6-1.4s0.9-0.5,1.5-0.5s1.1,0.2,1.5,0.5C76,23.5,76.2,24,76.2,24.5z M74.1,25.9c0.4,0,0.7-0.1,1-0.4    c0.3-0.3,0.4-0.6,0.4-1c0-0.4-0.1-0.7-0.4-1c-0.3-0.3-0.6-0.4-1-0.4s-0.7,0.1-1,0.4c-0.3,0.3-0.4,0.6-0.4,1c0,0.4,0.1,0.7,0.4,1    C73.4,25.7,73.7,25.9,74.1,25.9z"/>
		<path class="st0" d="M78.6,21.8H78c-0.3,0-0.4,0-0.5-0.1c-0.1,0-0.1-0.1-0.1-0.2c0-0.1,0-0.2,0.1-0.2c0.1,0,0.1-0.1,0.2-0.1H79    c0.1,0,0.1,0,0.2,0c0,0,0.1,0.1,0.1,0.1v4.4h1.2c0.1,0,0.2,0,0.2,0.1c0,0,0.1,0.1,0.1,0.2c0,0.1,0,0.2-0.1,0.2s-0.1,0.1-0.2,0.1    h-2.9c-0.1,0-0.2,0-0.2-0.1c-0.1,0-0.1-0.1-0.1-0.2c0-0.1,0-0.2,0.1-0.2c0.1,0,0.1-0.1,0.2-0.1h1.1V21.8z"/>
		<path class="st0" d="M84.9,25.8c0.1,0,0.2,0,0.2,0.1c0.1,0,0.1,0.1,0.1,0.2c0,0.1,0,0.2-0.1,0.2c-0.1,0-0.1,0.1-0.2,0.1h-2.5    c-0.1,0-0.2,0-0.2-0.1c-0.1,0-0.1-0.1-0.1-0.2c0-0.1,0-0.2,0.1-0.2c0.1,0,0.1-0.1,0.2-0.1H83v-2.4h-0.6c-0.1,0-0.2,0-0.2-0.1    c-0.1,0-0.1-0.1-0.1-0.2c0-0.1,0-0.2,0.1-0.2c0.1,0,0.1-0.1,0.2-0.1H83v-0.3c0-0.5,0.1-0.8,0.4-1c0.3-0.2,0.7-0.3,1.3-0.3    c0.3,0,0.5,0,0.6,0.1c0.1,0.1,0.2,0.2,0.2,0.3c0,0.1,0,0.1-0.1,0.2c-0.1,0.1-0.1,0.1-0.2,0.1c0,0-0.2,0-0.3,0c-0.2,0-0.3,0-0.5,0    c-0.3,0-0.5,0.1-0.6,0.2c-0.1,0.1-0.2,0.3-0.2,0.6v0.2h1.4c0.1,0,0.2,0,0.2,0.1c0.1,0,0.1,0.1,0.1,0.2c0,0.1,0,0.2-0.1,0.2    c-0.1,0.1-0.1,0.1-0.2,0.1h-1.3v2.4H84.9z"/>
	</g>
</g>
</svg>