<svg width="215" height="65" viewBox="0 0 215 65" fill="none" xmlns="http://www.w3.org/2000/svg">
<path d="M20.789 0.0588347C25.311 0.0588347 29.208 1.6347 32.4722 4.79413C35.7364 7.95356 37.3646 12.1123 37.3646 17.2858C37.3646 22.4592 35.7595 26.987 32.5416 30.4539C29.3237 33.9208 25.4345 35.6504 20.8584 35.6504C17 35.6504 13.8593 34.3974 11.4285 31.876V44.7597C11.4285 45.8052 11.9147 46.743 12.8947 47.5732C13.867 48.4034 14.3609 49.0338 14.3609 49.4566V49.6718C14.3609 50.3867 13.8362 50.7403 12.7867 50.7403H1.92919C0.879711 50.7403 0.354971 50.3867 0.354971 49.6718V49.4566C0.354971 49.0261 0.810261 48.4034 1.71312 47.5732C2.61598 46.743 3.07127 45.8052 3.07127 44.7597V9.88304C3.07127 8.88371 2.56197 8.00737 1.53564 7.24634C0.509307 6.48531 0 5.87034 0 5.39373V5.10931C0 4.49433 0.432139 3.99467 1.2887 3.61799L7.85567 0.412445C9.42989 -0.394708 10.217 -0.018037 10.217 1.55015L10.1475 5.46292C11.1507 3.75636 12.5783 2.42648 14.4381 1.48096C16.2901 0.535439 18.4045 0.0588347 20.789 0.0588347ZM19.863 32.9369C22.7182 32.9369 24.9483 31.7992 26.5457 29.5238C28.1431 27.2484 28.9379 24.0428 28.9379 19.9148C28.9379 14.7875 27.9964 10.6518 26.1135 7.49233C24.2306 4.34059 21.769 2.75703 18.7209 2.75703C16.9074 2.75703 15.3023 3.41044 13.8979 4.71726C12.4934 6.02408 11.6678 7.66913 11.4362 9.6678V22.8359C11.4362 25.4496 12.2928 27.7788 14.0059 29.8466C15.7191 31.9068 17.6714 32.9445 19.863 32.9445V32.9369Z" fill="#EFEDEC"/>
<path d="M61.8731 0.058513C63.918 0.058513 65.5308 0.627363 66.696 1.76506C67.8613 2.90277 68.4477 4.32489 68.4477 6.03144C68.4477 9.02175 67.2053 10.5131 64.736 10.5131C63.6865 10.5131 62.8762 10.2286 62.3052 9.65979C61.7341 9.09094 61.3792 8.4529 61.2326 7.738C61.0859 7.02309 60.7541 6.38505 60.2294 5.8162C59.7046 5.24735 58.987 4.96293 58.0841 4.96293C56.5099 4.96293 55.2984 5.8162 54.4418 7.52275C53.5852 9.22931 53.1531 11.3202 53.1531 13.7878V29.0161C53.1531 30.0615 53.701 30.984 54.7968 31.7911C55.8926 32.5983 56.4404 33.2133 56.4404 33.6438V33.9282C56.4404 34.597 55.9389 34.9275 54.9434 34.9275H43.8698C42.8666 34.9275 42.3728 34.597 42.3728 33.9282V33.6438C42.3728 33.2133 42.8281 32.5983 43.7309 31.7911C44.6338 30.984 45.0891 30.0615 45.0891 29.0161V9.88272C45.0891 8.79114 44.5798 7.8533 43.5534 7.06921C42.5271 6.28512 42.0178 5.67783 42.0178 5.25504V5.0398C42.0178 4.51707 42.4499 4.01741 43.3065 3.54849L50.2979 0.342938C51.6792 -0.318158 52.3737 0.0815746 52.3737 1.54982V7.09996C53.9865 2.41079 57.1581 0.058513 61.8731 0.058513Z" fill="#EFEDEC"/>
<path d="M89.4451 35.6425C83.5881 35.6425 78.8963 33.8668 75.3697 30.3076C71.8431 26.7485 70.0837 22.4821 70.0837 17.4931C70.0837 12.5041 71.7968 8.36074 75.2308 5.03988C78.6571 1.71902 82.8473 0.0585938 87.8091 0.0585938C93.3344 0.0585938 97.8564 1.80358 101.383 5.28587C104.91 8.77585 106.669 13.0345 106.669 18.0619C106.669 23.0894 105.072 27.2174 101.885 30.5843C98.6898 33.9513 94.5459 35.6348 89.4528 35.6348L89.4451 35.6425ZM90.5177 32.9366C92.8019 32.9366 94.6616 31.8835 96.0892 29.7695C97.5168 27.6555 98.2345 24.7267 98.2345 20.9831C98.2345 15.9557 97.1541 11.6585 94.9857 8.09937C92.8173 4.54021 90.1165 2.76448 86.8754 2.76448C84.3057 2.76448 82.2685 3.79456 80.7637 5.86241C79.2667 7.93026 78.5104 10.8821 78.5104 14.7257C78.5104 19.3765 79.6448 23.5737 81.9058 27.325C84.1668 31.0763 87.0375 32.9443 90.5177 32.9443V32.9366Z" fill="#EFEDEC"/>
<path d="M131.455 0.0588347C135.977 0.0588347 139.874 1.6347 143.138 4.79413C146.402 7.95356 148.031 12.1123 148.031 17.2858C148.031 22.4592 146.426 26.987 143.208 30.4539C139.99 33.9208 136.101 35.6504 131.525 35.6504C127.666 35.6504 124.525 34.3974 122.095 31.876V44.7597C122.095 45.8052 122.581 46.743 123.561 47.5732C124.533 48.4034 125.027 49.0338 125.027 49.4566V49.6718C125.027 50.3867 124.502 50.7403 123.453 50.7403H112.595C111.546 50.7403 111.021 50.3867 111.021 49.6718V49.4566C111.021 49.0261 111.476 48.4034 112.379 47.5732C113.282 46.743 113.737 45.8052 113.737 44.7597V9.88304C113.737 8.88371 113.228 8.00737 112.202 7.24634C111.175 6.48531 110.666 5.87034 110.666 5.39373V5.10931C110.666 4.49433 111.098 3.99467 111.955 3.61799L118.529 0.412445C120.104 -0.394708 120.891 -0.018037 120.891 1.55015L120.821 5.46292C121.825 3.75636 123.252 2.42648 125.112 1.48096C126.972 0.535439 129.086 0.0588347 131.47 0.0588347H131.455ZM130.529 32.9369C133.384 32.9369 135.614 31.7992 137.212 29.5238C138.809 27.2484 139.604 24.0428 139.604 19.9148C139.604 14.7875 138.663 10.6518 136.78 7.49233C134.897 4.34059 132.435 2.75703 129.387 2.75703C127.574 2.75703 125.968 3.41044 124.564 4.71726C123.16 6.02408 122.334 7.66913 122.102 9.6678V22.8359C122.102 25.4496 122.959 27.7788 124.672 29.8466C126.385 31.9068 128.337 32.9445 130.529 32.9445V32.9369Z" fill="#EFEDEC"/>
<path d="M181.614 24.4741C181.992 23.9514 182.486 23.7592 183.08 23.9053C183.675 24.0514 183.952 24.4741 183.898 25.1891C183.52 27.7028 182.039 30.0781 179.469 32.3074C176.899 34.5367 173.542 35.6513 169.398 35.6513C164.537 35.6513 160.501 33.9909 157.291 30.67C154.073 27.3491 152.468 22.9828 152.468 17.5711C152.468 12.5437 154.119 8.36953 157.43 5.04867C160.74 1.72781 164.776 0.0673828 169.537 0.0673828C173.828 0.0673828 177.123 1.12053 179.43 3.2345C181.738 5.34847 182.895 7.77761 182.895 10.5296C182.895 12.9972 181.684 14.6576 179.253 15.5109L161.96 21.8451C162.862 24.3127 164.221 26.2345 166.034 27.6105C167.84 28.9865 169.985 29.6784 172.462 29.6784C174.607 29.6784 176.475 29.1941 178.072 28.2178C179.67 27.2492 180.85 26.0039 181.606 24.4818L181.614 24.4741ZM168.11 2.76558C165.872 2.76558 164.082 3.8341 162.754 5.97113C161.419 8.10816 160.756 10.9063 160.756 14.3655C160.756 15.9798 160.902 17.4942 161.188 18.924L173.049 13.7967C174.283 13.2278 174.908 12.2285 174.908 10.8064C174.908 9.09981 174.252 7.33176 172.94 5.50221C171.629 3.67267 170.024 2.76558 168.118 2.76558H168.11Z" fill="#EFEDEC"/>
<path d="M207.759 0.058513C209.804 0.058513 211.416 0.627363 212.582 1.76506C213.747 2.90277 214.333 4.32489 214.333 6.03144C214.333 9.02175 213.091 10.5131 210.621 10.5131C209.572 10.5131 208.762 10.2286 208.191 9.65979C207.62 9.09094 207.265 8.4529 207.118 7.738C206.971 7.02309 206.64 6.38505 206.115 5.8162C205.59 5.24735 204.873 4.96293 203.97 4.96293C202.395 4.96293 201.184 5.8162 200.327 7.52275C199.471 9.22931 199.039 11.3202 199.039 13.7878V29.0161C199.039 30.0615 199.587 30.984 200.682 31.7911C201.778 32.5983 202.326 33.2133 202.326 33.6438V33.9282C202.326 34.597 201.824 34.9275 200.829 34.9275H189.755C188.752 34.9275 188.258 34.597 188.258 33.9282V33.6438C188.258 33.2133 188.714 32.5983 189.616 31.7911C190.519 30.984 190.975 30.0615 190.975 29.0161V9.88272C190.975 8.79114 190.465 7.8533 189.439 7.06921C188.413 6.28512 187.903 5.67783 187.903 5.25504V5.0398C187.903 4.51707 188.335 4.01741 189.192 3.54849L196.191 0.342938C197.572 -0.318158 198.267 0.0815746 198.267 1.54982V7.09996C199.887 2.4031 203.051 0.0508259 207.766 0.0508259L207.759 0.058513Z" fill="#EFEDEC"/>
<path d="M145.909 48.7729C146.055 48.7729 146.086 48.8114 146.086 48.9498V49.5109C146.086 49.657 146.048 49.6877 145.909 49.6877H144.057V54.5076C144.057 54.6459 144.018 54.6844 143.871 54.6844H143.208C143.061 54.6844 143.03 54.6459 143.03 54.5076V49.6877H141.171C141.024 49.6877 140.993 49.6493 140.993 49.5109V48.9498C140.993 48.8114 141.032 48.7729 141.171 48.7729H145.901H145.909Z" fill="#EFEDEC"/>
<path d="M147.753 52.2552V48.9498C147.753 48.8114 147.807 48.7729 147.938 48.7729H148.602C148.749 48.7729 148.779 48.8114 148.779 48.9498V52.2091C148.779 53.3776 149.327 53.9003 150.246 53.9003C151.164 53.9003 151.704 53.3776 151.704 52.2091V48.9498C151.704 48.8114 151.735 48.7729 151.882 48.7729H152.545C152.692 48.7729 152.73 48.8114 152.73 48.9498V52.2552C152.73 53.9387 151.627 54.7997 150.246 54.7997C148.864 54.7997 147.753 53.9387 147.753 52.2552Z" fill="#EFEDEC"/>
<path d="M162.122 48.9498C162.122 48.8114 162.16 48.7729 162.299 48.7729H162.97C163.109 48.7729 163.148 48.8114 163.148 48.9498V54.5076C163.148 54.6459 163.109 54.6844 162.97 54.6844H162.299C162.16 54.6844 162.122 54.6459 162.122 54.5076V52.1861H159.259V54.5076C159.259 54.6459 159.212 54.6844 159.081 54.6844H158.41C158.271 54.6844 158.232 54.6459 158.232 54.5076V48.9498C158.232 48.8114 158.279 48.7729 158.41 48.7729H159.081C159.22 48.7729 159.259 48.8114 159.259 48.9498V51.2943H162.122V48.9498Z" fill="#EFEDEC"/>
<path d="M168.349 48.665C170.016 48.665 171.389 50.0487 171.389 51.7322C171.389 53.4157 170.016 54.7994 168.349 54.7994C166.682 54.7994 165.309 53.4157 165.309 51.7322C165.309 50.0487 166.682 48.665 168.349 48.665ZM168.349 53.9C169.561 53.9 170.355 52.8238 170.355 51.7322C170.355 50.6406 169.561 49.5644 168.349 49.5644C167.137 49.5644 166.343 50.6253 166.343 51.7322C166.343 52.8392 167.168 53.9 168.349 53.9Z" fill="#EFEDEC"/>
<path d="M174.229 51.7244C174.229 52.8237 175.039 53.8922 176.228 53.8922C176.776 53.8922 177.277 53.7 177.617 53.431V52.3778H176.398C176.259 52.3778 176.22 52.3471 176.22 52.201V51.686C176.22 51.5476 176.266 51.5092 176.398 51.5092H178.466C178.612 51.5092 178.643 51.5476 178.643 51.686V53.6001C178.643 53.7384 178.597 53.8076 178.504 53.9076C177.941 54.4534 177.054 54.7916 176.22 54.7916C174.553 54.7916 173.187 53.4079 173.187 51.7244C173.187 50.0409 174.553 48.6572 176.22 48.6572C177.046 48.6572 177.879 48.9955 178.443 49.5182C178.543 49.6181 178.52 49.6719 178.427 49.7796L178.034 50.2023C177.941 50.2946 177.871 50.3177 177.771 50.2177C177.393 49.818 176.83 49.5489 176.22 49.5489C175.032 49.5489 174.221 50.6098 174.221 51.7167L174.229 51.7244Z" fill="#EFEDEC"/>
<path d="M186.306 54.5079C186.352 54.5924 186.298 54.6847 186.19 54.6847H185.411C185.28 54.6847 185.241 54.6463 185.172 54.5079L184.608 53.3471H181.938L181.39 54.5079C181.313 54.6463 181.282 54.6847 181.151 54.6847H180.364C180.264 54.6847 180.21 54.5924 180.256 54.5079L183.119 48.8117C183.181 48.7118 183.204 48.6426 183.266 48.6426H183.289C183.358 48.6426 183.374 48.7118 183.443 48.8117L186.306 54.5079ZM183.273 50.3799L182.293 52.4862H184.276L183.296 50.3799H183.281H183.273Z" fill="#EFEDEC"/>
<path d="M191.252 52.2467L192.773 54.4606C192.865 54.622 192.765 54.6912 192.618 54.6912H191.993C191.847 54.6912 191.762 54.6297 191.677 54.5144L190.203 52.3543H189.207V54.5144C189.207 54.6605 189.161 54.6912 189.03 54.6912H188.359C188.22 54.6912 188.181 54.6605 188.181 54.5144V48.9566C188.181 48.8182 188.227 48.7798 188.359 48.7798H190.427C191.391 48.7798 192.541 49.1872 192.541 50.5555C192.541 51.5241 191.993 52.0391 191.252 52.2544V52.2467ZM190.388 51.4934C191.183 51.4934 191.553 51.1551 191.553 50.5478C191.553 49.9098 191.121 49.6254 190.388 49.6254H189.207V51.4934H190.388Z" fill="#EFEDEC"/>
<path d="M195.25 54.7529C194.895 54.7529 194.617 54.4684 194.617 54.1148C194.617 53.7612 194.895 53.4614 195.257 53.4614C195.666 53.4614 195.952 53.7843 195.952 54.3224C195.952 55.1526 195.42 55.7829 194.787 56.0904C194.748 56.1135 194.702 56.1135 194.671 56.0751L194.501 55.806C194.47 55.7522 194.478 55.7291 194.532 55.6984C194.941 55.437 195.203 55.1142 195.288 54.7606H195.25V54.7529Z" fill="#EFEDEC"/>
<path d="M141.819 64.8773C141.672 64.8773 141.634 64.8311 141.634 64.7005V59.1426C141.634 59.0043 141.688 58.9658 141.819 58.9658H145.623C145.762 58.9658 145.808 59.0119 145.808 59.1426V59.6577C145.808 59.796 145.754 59.8422 145.623 59.8422H142.652V61.4642H145.492C145.639 61.4642 145.669 61.4949 145.669 61.641V62.156C145.669 62.2944 145.639 62.3328 145.492 62.3328H142.652V64.0086H145.623C145.77 64.0086 145.808 64.0394 145.808 64.1854V64.7005C145.808 64.8388 145.77 64.8773 145.623 64.8773H141.819Z" fill="#EFEDEC"/>
<path d="M149.103 64.7007C149.103 64.839 149.057 64.8775 148.926 64.8775H148.262C148.123 64.8775 148.077 64.8313 148.077 64.7007V58.9353C148.077 58.8738 148.093 58.8584 148.154 58.8584H148.224C148.278 58.8584 148.316 58.8815 148.363 58.9276L152.136 62.8942V59.1428C152.136 59.0045 152.175 58.966 152.314 58.966H152.985C153.124 58.966 153.163 59.0121 153.163 59.1428V64.9082C153.163 64.9697 153.147 64.9851 153.085 64.9851H153.024C152.97 64.9851 152.931 64.962 152.877 64.9159L149.103 60.9109V64.693V64.7007Z" fill="#EFEDEC"/>
<path d="M161.126 58.9658C162.793 58.9658 164.12 60.2419 164.12 61.9254C164.12 63.6089 162.801 64.8849 161.126 64.8849H158.996C158.857 64.8849 158.819 64.8388 158.819 64.7081V59.1503C158.819 59.0119 158.857 58.9735 158.996 58.9735H161.126V58.9658ZM159.845 59.8191V64.024H161.118C162.345 64.024 163.086 63.017 163.086 61.9177C163.086 60.8184 162.345 59.8114 161.118 59.8114H159.845V59.8191Z" fill="#EFEDEC"/>
<path d="M166.412 64.8773C166.266 64.8773 166.227 64.8311 166.227 64.7005V59.1426C166.227 59.0043 166.281 58.9658 166.412 58.9658H170.217C170.355 58.9658 170.402 59.0119 170.402 59.1426V59.6577C170.402 59.796 170.348 59.8422 170.217 59.8422H167.246V61.4642H170.085C170.232 61.4642 170.263 61.4949 170.263 61.641V62.156C170.263 62.2944 170.232 62.3328 170.085 62.3328H167.246V64.0086H170.217C170.363 64.0086 170.402 64.0394 170.402 64.1854V64.7005C170.402 64.8388 170.363 64.8773 170.217 64.8773H166.412Z" fill="#EFEDEC"/>
<path d="M172.007 59.1426C171.968 59.0581 172.015 58.9658 172.115 58.9658H172.902C173.018 58.9658 173.064 59.0119 173.141 59.1426L175.032 63.0554L176.922 59.1426C176.992 59.0043 177.038 58.9658 177.162 58.9658H177.941C178.072 58.9658 178.095 59.0734 178.057 59.1426L175.194 64.8311C175.124 64.9388 175.109 65.0003 175.039 65.0003H175.016C174.955 65.0003 174.939 64.9388 174.87 64.8311L172.007 59.1426Z" fill="#EFEDEC"/>
<path d="M182.455 58.8584C184.122 58.8584 185.496 60.2421 185.496 61.9256C185.496 63.6091 184.122 64.9928 182.455 64.9928C180.788 64.9928 179.415 63.6091 179.415 61.9256C179.415 60.2421 180.788 58.8584 182.455 58.8584ZM182.455 64.0934C183.667 64.0934 184.462 63.0172 184.462 61.9256C184.462 60.834 183.667 59.7578 182.455 59.7578C181.244 59.7578 180.449 60.8186 180.449 61.9256C180.449 63.0325 181.275 64.0934 182.455 64.0934Z" fill="#EFEDEC"/>
<path d="M191.793 58.9658C191.939 58.9658 191.97 59.0119 191.97 59.1426V59.6961C191.97 59.8422 191.924 59.8729 191.793 59.8729H189.948V64.6928C189.948 64.8311 189.902 64.8696 189.763 64.8696H189.099C188.953 64.8696 188.922 64.8234 188.922 64.6928V59.8729H187.062C186.916 59.8729 186.885 59.8268 186.885 59.6961V59.1426C186.885 59.0043 186.931 58.9658 187.062 58.9658H191.793Z" fill="#EFEDEC"/>
<path d="M196.43 58.8584C198.097 58.8584 199.471 60.2421 199.471 61.9256C199.471 63.6091 198.097 64.9928 196.43 64.9928C194.764 64.9928 193.39 63.6091 193.39 61.9256C193.39 60.2421 194.764 58.8584 196.43 58.8584ZM196.43 64.0934C197.642 64.0934 198.437 63.0172 198.437 61.9256C198.437 60.834 197.642 59.7578 196.43 59.7578C195.219 59.7578 194.424 60.8186 194.424 61.9256C194.424 63.0325 195.25 64.0934 196.43 64.0934Z" fill="#EFEDEC"/>
</svg>