<?xml version="1.0" encoding="UTF-8"?>
<!-- Generator: Adobe Illustrator 21.0.2, SVG Export Plug-In . SVG Version: 6.00 Build 0)  -->
<svg version="1.1" id="Layer_1" xmlns="http://www.w3.org/2000/svg" xmlns:xlink="http://www.w3.org/1999/xlink" x="0px" y="0px" viewBox="0 0 79 47.9" style="enable-background:new 0 0 79 47.9;" xml:space="preserve">
<style type="text/css">
	.st0{fill:#000000;}
</style>
<path class="st0" d="M68.2,43.4L68.2,43.4c2.9,0,5.5-1.1,7.5-3.1c2.1-2.1,3.1-4.9,3-8c-0.2-6.2-5.4-11.4-11.5-11.6  c-3-0.1-5.8,1-7.9,3.1c-2.1,2.1-3.1,4.9-3,8c0,0,0,0.1,0,0.1L37,12.4c-0.3-0.3-0.7-0.5-1.2-0.5c-0.4,0-0.9,0.2-1.2,0.5  c-0.3,0.3-0.5,0.7-0.5,1.2c0,0.5,0.2,0.9,0.5,1.2l9.2,9.3c2.1,2.7,2,6.4-0.2,8.7c-1.3,1.3-2.7,2-4.2,2c-1.7,0-3.6-0.9-5.3-2.6L3.3,1  C2.9,0.7,2.5,0.5,2.1,0.5S1.2,0.7,0.9,1c-0.7,0.7-0.7,1.7,0,2.4l10.5,10.6c0,0-0.1,0-0.1,0c-3-0.1-5.8,1-7.9,3.1  c-2.1,2.1-3.1,4.9-3,8c0.2,6.2,5.4,11.4,11.5,11.6c3,0.1,5.8-1,7.9-3.1c2.1-2.1,3.1-4.9,3-8c0,0,0-0.1,0-0.1l9.4,9.5  c2.3,2.1,4.7,3.2,7.1,3.2c2.4,0,4.7-1.1,6.7-3.1c1.6-1.6,2.6-3.8,2.7-6.2L66.4,47c0.3,0.3,0.7,0.5,1.2,0.5c0.4,0,0.9-0.2,1.2-0.5  c0.3-0.3,0.5-0.7,0.5-1.2s-0.2-0.9-0.5-1.2l-1.2-1.2c0,0,0.1,0,0.1,0C67.9,43.4,68,43.4,68.2,43.4 M67,24.1c4.4,0.2,8.1,3.9,8.3,8.3  c0.1,2.1-0.7,4-2.1,5.4c-1.4,1.4-3.3,2.2-5.4,2.1c-4.4-0.2-8.1-3.9-8.3-8.3c-0.1-2.1,0.7-4,2.1-5.4c1.3-1.3,3.1-2.1,5.1-2.1  C66.8,24.1,66.9,24.1,67,24.1 M11.1,17.4c4.4,0.2,8.1,3.9,8.3,8.3c0.1,2.1-0.7,4-2.1,5.4C16,32.6,14,33.4,12,33.3  c-4.4-0.2-8.1-3.9-8.3-8.3c-0.1-2.1,0.7-4,2.1-5.4c1.3-1.3,3.1-2.1,5.1-2.1C10.9,17.4,11,17.4,11.1,17.4"/>
<g>
</g>
<g>
</g>
<g>
</g>
<g>
</g>
<g>
</g>
<g>
</g>
<g>
</g>
<g>
</g>
<g>
</g>
<g>
</g>
<g>
</g>
<g>
</g>
<g>
</g>
<g>
</g>
<g>
</g>
</svg>