<svg width="224" height="59" viewBox="0 0 224 59" fill="none" xmlns="http://www.w3.org/2000/svg">
<g clip-path="url(#clip0_503_1102)">
<path d="M7.68392 46.4226C7.68392 45.3957 8.54327 44.5221 9.55329 44.5221H12.9907C20.9815 44.5221 26.3887 38.5597 26.3887 29.7721C26.3887 20.9845 20.9815 15.1242 12.9907 15.1242H0V11.3232H12.9907C23.5093 11.3232 30.4846 18.6755 30.4846 29.8799C30.4846 41.0842 23.5093 48.3344 12.9907 48.3344H9.55329C8.54327 48.3344 7.68392 47.4607 7.68392 46.4339V46.4226ZM2.02003 18.772C3.08027 18.772 3.98984 19.6967 3.98984 20.7746V48.323H0V20.7746C0 19.6967 0.959793 18.772 2.02003 18.772Z" fill="#08110C"/>
<path d="M36.5056 11.3179H40.2443L39.8928 24.4227H36.7567L36.5056 11.3179Z" fill="#08110C"/>
<path d="M54.2004 11.3179H58.5473L49.195 34.5491H58.1456C59.1556 34.5491 60.0149 35.3717 60.0149 36.3986C60.0149 37.4764 59.1556 38.3501 58.1456 38.3501H47.6827L43.6873 48.3234H39.3403L54.206 11.3179H54.2004ZM59.9647 20.4685C61.025 20.0601 62.141 20.5196 62.593 21.6485L73.1619 48.3234H68.8149L58.8543 23.1916C58.3465 22.0116 58.8543 20.877 59.9647 20.4685Z" fill="#08110C"/>
<path d="M78.1617 45.186L96.2639 19.6401C96.9726 18.5622 98.4402 18.3012 99.3999 19.0217C100.008 19.538 100.46 20.718 99.6511 21.898L83.3234 44.5109H104.656V48.3118H78.1617V45.1746V45.186ZM78.6695 11.312H104.149V15.113H78.6695V11.312Z" fill="#08110C"/>
<path d="M124.522 11.3179H128.869L119.517 34.5491H128.467C129.477 34.5491 130.337 35.3717 130.337 36.3986C130.337 37.4764 129.477 38.3501 128.467 38.3501H118.004L114.009 48.3234H109.662L124.528 11.3179H124.522ZM130.286 20.4685C131.347 20.0601 132.463 20.5196 132.915 21.6485L143.483 48.3234H139.136L129.176 23.1916C128.668 22.0116 129.176 20.877 130.286 20.4685Z" fill="#08110C"/>
<path d="M181.055 20.7746C181.055 20.5193 181.261 20.3037 181.507 20.3037H184.526C185.513 20.3037 186.311 20.6101 186.819 21.1206C187.21 21.5177 187.439 22.0907 187.439 22.7375V22.7602C187.439 24.1047 186.54 24.8932 185.285 25.1372L187.288 27.7581C187.383 27.8659 187.439 27.968 187.439 28.0985C187.439 28.3425 187.21 28.558 186.975 28.558C186.791 28.558 186.652 28.4502 186.551 28.3141L184.28 25.3187H181.964V28.0928C181.964 28.3481 181.758 28.5637 181.501 28.5637C181.245 28.5637 181.049 28.3538 181.049 28.0928V20.7746H181.055ZM184.442 24.4848C185.653 24.4848 186.512 23.8551 186.512 22.7999V22.7772C186.512 21.773 185.753 21.1603 184.453 21.1603H181.964V24.4848H184.442Z" fill="#08110C"/>
<path d="M186.975 28.6943C186.769 28.6943 186.59 28.5922 186.445 28.3936L184.219 25.4493H182.098V28.093C182.098 28.4277 181.83 28.6943 181.507 28.6943C181.183 28.6943 180.927 28.4163 180.927 28.093V20.7747C180.927 20.4456 181.194 20.1733 181.507 20.1733H184.526C185.519 20.1733 186.367 20.4797 186.908 21.03C187.333 21.4611 187.567 22.0681 187.567 22.7376C187.567 24.0083 186.819 24.899 185.513 25.2224L187.388 27.6788C187.461 27.7639 187.567 27.9057 187.567 28.0986C187.567 28.405 187.282 28.6886 186.975 28.6886V28.6943ZM181.836 25.1827H184.347L186.657 28.2291C186.752 28.3596 186.858 28.422 186.981 28.422C187.148 28.422 187.31 28.2631 187.31 28.0986C187.31 28.0135 187.277 27.9398 187.193 27.849L185.05 25.0465L185.262 25.0068C186.562 24.7515 187.31 23.9346 187.31 22.7603C187.31 22.1362 187.104 21.5973 186.724 21.2172C186.228 20.7123 185.446 20.44 184.526 20.44H181.507C181.334 20.44 181.189 20.5931 181.189 20.7747V28.093C181.189 28.2745 181.334 28.4277 181.507 28.4277C181.691 28.4277 181.836 28.2802 181.836 28.093V25.1827ZM184.442 24.621H181.836V21.03H184.453C185.826 21.03 186.646 21.6824 186.646 22.7773C186.646 23.8722 185.759 24.621 184.442 24.621ZM182.098 24.3544H184.442C185.619 24.3544 186.384 23.7474 186.384 22.8C186.384 21.8526 185.681 21.2966 184.453 21.2966H182.098V24.3544Z" fill="#08110C"/>
<path d="M189.38 28.0304V20.7746C189.38 20.5193 189.587 20.3037 189.832 20.3037H194.844C195.072 20.3037 195.256 20.4909 195.256 20.7235C195.256 20.9561 195.072 21.1433 194.844 21.1433H190.296V23.9402H194.325C194.553 23.9402 194.737 24.1387 194.737 24.36C194.737 24.5926 194.553 24.7798 194.325 24.7798H190.296V27.6503H194.899C195.128 27.6503 195.312 27.8376 195.312 28.0702C195.312 28.3027 195.128 28.49 194.899 28.49H189.832C189.593 28.49 189.38 28.2801 189.38 28.0191V28.0304Z" fill="#08110C"/>
<path d="M194.899 28.6319H189.832C189.52 28.6319 189.252 28.3539 189.252 28.0306V20.7747C189.252 20.4456 189.52 20.1733 189.832 20.1733H194.843C195.145 20.1733 195.39 20.423 195.39 20.7293C195.39 21.0356 195.145 21.2853 194.843 21.2853H190.424V23.8155H194.325C194.62 23.8155 194.871 24.0707 194.871 24.3714C194.871 24.6721 194.626 24.9274 194.325 24.9274H190.424V27.5313H194.899C195.201 27.5313 195.446 27.7809 195.446 28.0873C195.446 28.3936 195.201 28.6432 194.899 28.6432V28.6319ZM189.832 20.44C189.659 20.44 189.514 20.5931 189.514 20.7747V28.0306C189.514 28.2121 189.659 28.3653 189.832 28.3653H194.899C195.056 28.3653 195.184 28.2405 195.184 28.0759C195.184 27.9114 195.061 27.7866 194.899 27.7866H190.162V24.6494H194.325C194.481 24.6494 194.609 24.5246 194.609 24.3601C194.609 24.2069 194.475 24.0707 194.325 24.0707H190.162V21.0073H194.843C195 21.0073 195.128 20.8825 195.128 20.718C195.128 20.5534 195.005 20.4286 194.843 20.4286H189.832V20.44Z" fill="#08110C"/>
<path d="M196.601 27.8891L199.871 20.6218C199.988 20.3666 200.161 20.2134 200.446 20.2134H200.491C200.764 20.2134 200.954 20.3666 201.054 20.6218L204.324 27.8777C204.358 27.9628 204.38 28.0422 204.38 28.1103C204.38 28.3542 204.185 28.5528 203.945 28.5528C203.727 28.5528 203.576 28.3996 203.498 28.2124L202.656 26.329H198.236L197.394 28.2351C197.31 28.4337 197.165 28.5528 196.958 28.5528C196.73 28.5528 196.545 28.3656 196.545 28.133C196.545 28.0649 196.557 27.9798 196.601 27.8891ZM202.304 25.4893L200.452 21.2969L198.599 25.4893H202.304Z" fill="#08110C"/>
<path d="M203.945 28.6944C203.699 28.6944 203.493 28.5413 203.376 28.2746L202.572 26.4706H198.32L197.516 28.303C197.41 28.5583 197.215 28.7001 196.958 28.7001C196.657 28.7001 196.411 28.4505 196.411 28.1441C196.411 28.0364 196.434 27.9399 196.484 27.8435L199.754 20.5763C199.899 20.2472 200.128 20.0884 200.452 20.0884H200.496C200.814 20.0884 201.054 20.2586 201.183 20.5819L204.453 27.8321C204.497 27.9399 204.52 28.042 204.52 28.1215C204.52 28.4391 204.263 28.7001 203.95 28.7001L203.945 28.6944ZM198.147 26.204H202.739L203.616 28.1668C203.66 28.2633 203.755 28.4278 203.945 28.4278C204.112 28.4278 204.252 28.286 204.252 28.1158C204.252 28.0817 204.246 28.025 204.207 27.9342L200.937 20.6784C200.848 20.4515 200.703 20.3437 200.491 20.3437H200.446C200.228 20.3437 200.094 20.4401 199.988 20.6727L196.718 27.9456C196.691 28.008 196.674 28.0647 196.674 28.1328C196.674 28.2916 196.797 28.4221 196.958 28.4221C197.103 28.4221 197.209 28.3427 197.276 28.1895L198.153 26.1983L198.147 26.204ZM202.499 25.631H198.387L200.446 20.9791L202.505 25.631H202.499ZM198.794 25.3643H202.098L200.446 21.6315L198.794 25.3643Z" fill="#08110C"/>
<path d="M206.121 20.7126C206.121 20.4573 206.328 20.2417 206.573 20.2417C206.819 20.2417 207.036 20.4516 207.036 20.7126V27.6451H211.216C211.445 27.6451 211.629 27.8436 211.629 28.0762C211.629 28.3088 211.445 28.496 211.216 28.496H206.573C206.333 28.496 206.121 28.2861 206.121 28.0252V20.7069V20.7126Z" fill="#08110C"/>
<path d="M211.216 28.6318H206.573C206.261 28.6318 205.993 28.3538 205.993 28.0305V20.7122C205.993 20.3831 206.261 20.1108 206.573 20.1108C206.886 20.1108 207.165 20.3831 207.165 20.7122V27.5085H211.216C211.517 27.5085 211.763 27.7638 211.763 28.0758C211.763 28.3879 211.517 28.6318 211.216 28.6318ZM206.573 20.3775C206.4 20.3775 206.255 20.5306 206.255 20.7122V28.0305C206.255 28.212 206.4 28.3652 206.573 28.3652H211.216C211.372 28.3652 211.5 28.2404 211.5 28.0758C211.5 27.9113 211.372 27.7752 211.216 27.7752H206.902V20.7122C206.902 20.525 206.757 20.3775 206.573 20.3775Z" fill="#08110C"/>
<path d="M181.055 40.2617V33.0002C181.055 32.7449 181.261 32.5293 181.507 32.5293H186.518C186.747 32.5293 186.931 32.7165 186.931 32.9491C186.931 33.1817 186.747 33.3689 186.518 33.3689H181.97V36.1657H185.999C186.228 36.1657 186.412 36.3643 186.412 36.5855C186.412 36.8181 186.228 37.0054 185.999 37.0054H181.97V39.8759H186.574C186.802 39.8759 186.987 40.0631 186.987 40.2957C186.987 40.5283 186.802 40.7155 186.574 40.7155H181.507C181.267 40.7155 181.055 40.5056 181.055 40.2447V40.2617Z" fill="#08110C"/>
<path d="M186.574 40.8632H181.507C181.194 40.8632 180.927 40.5852 180.927 40.2618V33.0003C180.927 32.6712 181.194 32.3989 181.507 32.3989H186.518C186.819 32.3989 187.065 32.6485 187.065 32.9549C187.065 33.2612 186.819 33.5108 186.518 33.5108H182.098V36.041H185.999C186.295 36.041 186.546 36.2963 186.546 36.597C186.546 36.8977 186.3 37.153 185.999 37.153H182.098V39.7569H186.574C186.875 39.7569 187.121 40.0065 187.121 40.3129C187.121 40.6192 186.875 40.8688 186.574 40.8688V40.8632ZM181.507 32.6656C181.334 32.6656 181.189 32.8187 181.189 33.0003V40.2618C181.189 40.4433 181.334 40.5965 181.507 40.5965H186.574C186.73 40.5965 186.858 40.4717 186.858 40.3072C186.858 40.1427 186.735 40.0179 186.574 40.0179H181.836V36.8807H185.999C186.155 36.8807 186.283 36.7502 186.283 36.5913C186.283 36.4325 186.15 36.302 185.999 36.302H181.836V33.2385H186.518C186.674 33.2385 186.802 33.1137 186.802 32.9492C186.802 32.7847 186.68 32.6599 186.518 32.6599H181.507V32.6656Z" fill="#08110C"/>
<path d="M188.482 39.7456C188.376 39.6776 188.309 39.5471 188.309 39.3939C188.309 39.1386 188.504 38.9344 188.744 38.9344C188.862 38.9344 188.962 38.9798 189.023 39.0422C189.782 39.7002 190.541 40.0123 191.568 40.0123C192.65 40.0123 193.365 39.4279 193.365 38.6167V38.594C193.365 37.8338 192.963 37.4027 191.267 37.0396C189.414 36.6311 188.56 36.0241 188.56 34.6739V34.6512C188.56 33.3634 189.676 32.416 191.211 32.416C192.271 32.416 193.041 32.6827 193.778 33.2216C193.873 33.2897 193.973 33.4202 193.973 33.596C193.973 33.84 193.778 34.0385 193.538 34.0385C193.432 34.0385 193.354 34.0158 193.275 33.9591C192.595 33.4542 191.942 33.2443 191.188 33.2443C190.139 33.2443 189.47 33.8286 189.47 34.5661V34.5888C189.47 35.3603 189.883 35.7915 191.657 36.1829C193.454 36.5801 194.28 37.2495 194.28 38.5032V38.5259C194.28 39.9328 193.13 40.8462 191.529 40.8462C190.351 40.8462 189.375 40.4718 188.476 39.7456H188.482Z" fill="#08110C"/>
<path d="M191.534 40.9767C190.368 40.9767 189.341 40.608 188.404 39.8478C188.264 39.7513 188.175 39.5755 188.175 39.3883C188.175 39.0592 188.426 38.7983 188.744 38.7983C188.884 38.7983 189.023 38.855 189.113 38.9401C189.866 39.5925 190.603 39.8705 191.562 39.8705C192.522 39.8705 193.225 39.3542 193.225 38.6111C193.225 37.9246 192.918 37.5218 191.233 37.1587C189.548 36.7843 188.421 36.217 188.421 34.6626C188.421 33.267 189.587 32.2686 191.2 32.2686C192.243 32.2686 193.058 32.5238 193.845 33.1025C193.923 33.1592 194.096 33.3237 194.096 33.5847C194.096 33.9024 193.839 34.1634 193.527 34.1634C193.393 34.1634 193.287 34.1293 193.186 34.0556C192.544 33.579 191.925 33.3635 191.177 33.3635C190.245 33.3635 189.593 33.8513 189.593 34.5548C189.593 35.2583 189.916 35.6554 191.68 36.0411C193.594 36.4666 194.408 37.1985 194.408 38.4919C194.408 39.9556 193.225 40.9654 191.523 40.9654L191.534 40.9767ZM188.75 39.0706C188.577 39.0706 188.443 39.2124 188.443 39.3939C188.443 39.4961 188.488 39.5868 188.555 39.6322H188.566C189.47 40.3697 190.413 40.7101 191.534 40.7101C193.102 40.7101 194.157 39.8308 194.157 38.526C194.157 37.346 193.426 36.7106 191.635 36.3135C189.922 35.939 189.341 35.5022 189.341 34.5888C189.341 33.7209 190.117 33.1082 191.188 33.1082C191.981 33.1082 192.667 33.3408 193.348 33.8457C193.404 33.8854 193.454 33.9024 193.538 33.9024C193.705 33.9024 193.845 33.7606 193.845 33.5904C193.845 33.4486 193.744 33.3578 193.7 33.3237C192.952 32.7791 192.204 32.5409 191.211 32.5409C189.754 32.5409 188.694 33.4259 188.694 34.6456C188.694 35.8653 189.397 36.4837 191.294 36.9035C192.941 37.2552 193.493 37.6807 193.493 38.5884C193.493 39.4961 192.701 40.1371 191.568 40.1371C190.541 40.1371 189.754 39.8364 188.94 39.133C188.901 39.0933 188.828 39.0592 188.75 39.0592V39.0706Z" fill="#08110C"/>
<path d="M198.097 33.3861H195.759C195.53 33.3861 195.335 33.1989 195.335 32.9663C195.335 32.7337 195.53 32.5352 195.759 32.5352H201.356C201.584 32.5352 201.78 32.7337 201.78 32.9663C201.78 33.1989 201.584 33.3861 201.356 33.3861H199.017V40.3186C199.017 40.5739 198.811 40.7895 198.554 40.7895C198.298 40.7895 198.091 40.5796 198.091 40.3186V33.3861H198.097Z" fill="#08110C"/>
<path d="M198.56 40.9199C198.236 40.9199 197.968 40.6476 197.968 40.3185V33.5222H195.764C195.457 33.5222 195.206 33.2726 195.206 32.9662C195.206 32.6599 195.463 32.3989 195.764 32.3989H201.361C201.663 32.3989 201.919 32.6599 201.919 32.9662C201.919 33.2726 201.668 33.5222 201.361 33.5222H199.157V40.3185C199.157 40.6476 198.889 40.9199 198.566 40.9199H198.56ZM195.764 32.6656C195.608 32.6656 195.469 32.8074 195.469 32.9662C195.469 33.1251 195.602 33.2556 195.764 33.2556H198.231V40.3185C198.231 40.5058 198.376 40.6533 198.56 40.6533C198.744 40.6533 198.889 40.5058 198.889 40.3185V33.2556H201.356C201.517 33.2556 201.651 33.1251 201.651 32.9662C201.651 32.8074 201.512 32.6656 201.356 32.6656H195.759H195.764Z" fill="#08110C"/>
<path d="M201.942 40.1198L205.212 32.8469C205.329 32.5917 205.502 32.4385 205.786 32.4385H205.831C206.104 32.4385 206.294 32.5917 206.395 32.8469L209.665 40.1085C209.698 40.1879 209.72 40.273 209.72 40.3411C209.72 40.585 209.525 40.7836 209.285 40.7836C209.067 40.7836 208.917 40.6304 208.839 40.4432L207.996 38.5597H203.577L202.734 40.4659C202.65 40.6644 202.505 40.7836 202.299 40.7836C202.07 40.7836 201.886 40.5964 201.886 40.3638C201.886 40.2957 201.897 40.2106 201.942 40.1198ZM207.644 37.7201L205.792 33.5277L203.939 37.7201H207.644Z" fill="#08110C"/>
<path d="M209.291 40.92C209.045 40.92 208.839 40.7668 208.721 40.5002L207.918 38.6962H203.666L202.862 40.5286C202.756 40.7839 202.561 40.9257 202.304 40.9257C202.003 40.9257 201.757 40.6761 201.757 40.3697C201.757 40.2619 201.78 40.1655 201.83 40.0691L205.1 32.8018C205.245 32.4728 205.474 32.314 205.797 32.314H205.842C206.16 32.314 206.4 32.4842 206.528 32.8075L209.798 40.0634C209.843 40.1712 209.865 40.2676 209.865 40.3527C209.865 40.6704 209.609 40.9314 209.296 40.9314L209.291 40.92ZM203.493 38.4295H208.085L208.961 40.3924C209.006 40.4889 209.101 40.6534 209.291 40.6534C209.458 40.6534 209.597 40.5116 209.597 40.3414C209.597 40.296 209.581 40.2336 209.553 40.1598L206.283 32.904C206.194 32.677 206.048 32.5693 205.836 32.5693H205.792C205.574 32.5693 205.44 32.6657 205.334 32.8983L202.064 40.1712C202.025 40.2506 202.02 40.3187 202.02 40.3584C202.02 40.5172 202.142 40.6477 202.304 40.6477C202.449 40.6477 202.555 40.5683 202.622 40.4151L203.498 38.4239L203.493 38.4295ZM207.845 37.8509H203.733L205.792 33.199L207.851 37.8509H207.845ZM204.14 37.5843H207.444L205.792 33.8514L204.14 37.5843Z" fill="#08110C"/>
<path d="M212.605 33.3861H210.267C210.038 33.3861 209.843 33.1989 209.843 32.9663C209.843 32.7337 210.038 32.5352 210.267 32.5352H215.864C216.093 32.5352 216.288 32.7337 216.288 32.9663C216.288 33.1989 216.093 33.3861 215.864 33.3861H213.526V40.3186C213.526 40.5739 213.32 40.7895 213.063 40.7895C212.806 40.7895 212.6 40.5796 212.6 40.3186V33.3861H212.605Z" fill="#08110C"/>
<path d="M213.068 40.9199C212.745 40.9199 212.477 40.6476 212.477 40.3185V33.5222H210.273C209.966 33.5222 209.715 33.2726 209.715 32.9662C209.715 32.6599 209.971 32.3989 210.273 32.3989H215.87C216.171 32.3989 216.428 32.6599 216.428 32.9662C216.428 33.2726 216.177 33.5222 215.87 33.5222H213.665V40.3185C213.665 40.6476 213.398 40.9199 213.074 40.9199H213.068ZM210.273 32.6656C210.116 32.6656 209.977 32.8074 209.977 32.9662C209.977 33.1251 210.111 33.2556 210.273 33.2556H212.739V40.3185C212.739 40.5058 212.884 40.6533 213.068 40.6533C213.253 40.6533 213.398 40.5058 213.398 40.3185V33.2556H215.864C216.026 33.2556 216.16 33.1251 216.16 32.9662C216.16 32.8074 216.02 32.6656 215.864 32.6656H210.267H210.273Z" fill="#08110C"/>
<path d="M217.94 40.2617V33.0002C217.94 32.7449 218.146 32.5293 218.392 32.5293H223.403C223.632 32.5293 223.816 32.7165 223.816 32.9491C223.816 33.1817 223.632 33.3689 223.403 33.3689H218.855V36.1657H222.884C223.113 36.1657 223.297 36.3643 223.297 36.5855C223.297 36.8181 223.113 37.0054 222.884 37.0054H218.855V39.8759H223.459C223.688 39.8759 223.872 40.0631 223.872 40.2957C223.872 40.5283 223.688 40.7155 223.459 40.7155H218.392C218.152 40.7155 217.94 40.5056 217.94 40.2447V40.2617Z" fill="#08110C"/>
<path d="M223.453 40.8632H218.386C218.074 40.8632 217.806 40.5852 217.806 40.2618V33.0003C217.806 32.6712 218.074 32.3989 218.386 32.3989H223.397C223.699 32.3989 223.944 32.6485 223.944 32.9549C223.944 33.2612 223.699 33.5108 223.397 33.5108H218.978V36.041H222.878C223.174 36.041 223.425 36.2963 223.425 36.597C223.425 36.8977 223.18 37.153 222.878 37.153H218.978V39.7569H223.453C223.755 39.7569 224 40.0065 224 40.3129C224 40.6192 223.755 40.8688 223.453 40.8688V40.8632ZM218.386 32.6656C218.213 32.6656 218.068 32.8187 218.068 33.0003V40.2618C218.068 40.4433 218.213 40.5965 218.386 40.5965H223.453C223.609 40.5965 223.738 40.4717 223.738 40.3072C223.738 40.1427 223.615 40.0179 223.453 40.0179H218.716V36.8807H222.878C223.035 36.8807 223.163 36.7502 223.163 36.5913C223.163 36.4325 223.029 36.302 222.878 36.302H218.716V33.2385H223.397C223.554 33.2385 223.682 33.1137 223.682 32.9492C223.682 32.7847 223.559 32.6599 223.397 32.6599H218.386V32.6656Z" fill="#08110C"/>
<path d="M165.453 59C165.017 59 164.666 58.6426 164.666 58.2001V0.799904C164.666 0.357404 165.017 0 165.453 0C165.888 0 166.239 0.357404 166.239 0.799904V58.2001C166.239 58.6426 165.888 59 165.453 59Z" fill="#08110C"/>
</g>
<defs>
<clipPath id="clip0_503_1102">
<rect width="224" height="59" fill="#08110C"/>
</clipPath>
</defs>
</svg>